<svg width="498" height="333" viewBox="0 0 498 333" fill="none" xmlns="http://www.w3.org/2000/svg">
<path d="M376.389 281.047H249.376C247.485 280.954 245.602 280.857 243.708 280.728C241.149 280.553 238.602 280.427 236.076 280.017C236.034 280.58 235.976 281.14 235.907 281.701C234.968 282.353 234.315 283.419 234.369 284.582C234.455 286.503 235.923 288.128 237.921 288.128H293.365C314.32 289.074 335.269 290.122 356.222 291.119L371.962 291.871C372.155 291.427 372.379 291.013 372.57 290.592C372.948 289.768 373.329 288.946 373.714 288.128H376.378C378.236 288.128 380.016 286.497 379.93 284.582C379.843 282.667 378.38 281.047 376.389 281.047Z" fill="#E6332A"/>
<path d="M291.047 9.79389C291.076 9.70082 291.103 9.60774 291.129 9.51688C291.149 9.46813 291.2 9.33295 291.249 9.22214L291.489 9.44375C291.833 9.7806 292.155 10.1352 292.499 10.4764C294.426 12.4067 296.804 13.6056 299.603 13.4349C302.567 13.2554 305.318 11.9856 308.215 11.4404C309.413 11.2146 310.628 11.0871 311.847 11.0593C313.383 11.0086 314.92 11.0678 316.447 11.2366C318.301 11.436 320.079 9.4637 319.999 7.69083C319.906 5.59884 318.445 4.3667 316.447 4.14509C313.488 3.84822 310.504 3.93238 307.567 4.39551C305.014 4.77668 302.645 5.68749 300.138 6.23708C299.899 6.25883 299.661 6.2951 299.426 6.34566C299.244 6.34566 299.062 6.35674 298.875 6.34566H298.711C298.672 6.3174 298.63 6.29568 298.584 6.2814C298.54 6.26378 298.495 6.2497 298.449 6.23929L298.344 6.17059C298.293 6.13735 298.216 6.07973 298.16 6.03763C298.054 5.94234 297.938 5.85148 297.843 5.75397C297.456 5.38832 297.099 4.99607 296.733 4.61933C294.832 2.70907 292.379 1.35726 289.604 2.03538C286.911 2.7002 285.073 5.05369 284.294 7.60218C283.483 10.2504 284.294 12.8875 284.249 15.5668C284.241 15.6368 284.241 15.7074 284.249 15.7773C284.249 15.8106 284.236 15.846 284.229 15.8903C284.203 16.0499 284.16 16.2117 284.118 16.3668C284.076 16.5219 284.003 16.7325 283.943 16.9142C283.763 17.2466 283.588 17.579 283.377 17.8915C283.288 18.0244 283.188 18.1508 283.101 18.2837C283.592 17.5236 283.192 18.1552 283.048 18.3214C281.938 19.6023 280.584 20.6682 279.25 21.7142C276.011 24.2561 272.705 26.9841 271.673 31.1747C271.228 32.9719 272.247 35.1038 274.155 35.5359C275.988 35.9526 278.051 34.9863 278.524 33.0584C278.575 32.8523 278.925 31.9259 278.746 32.2451C278.843 32.0456 278.943 31.8484 279.056 31.6556C279.17 31.4628 279.278 31.3165 279.378 31.1459L279.403 31.1038C279.239 31.3963 279.585 30.86 279.638 30.7979C279.801 30.6088 279.967 30.4249 280.138 30.2461C281.234 29.0938 282.493 28.1098 283.743 27.1303C286.443 25.014 289.1 22.82 290.468 19.5823C291.442 17.2754 291.38 14.9286 291.134 12.4731C291.069 11.8549 291.009 11.2343 291 10.6116C291 10.3701 291 10.1307 291.018 9.88918C291.02 9.87589 291.032 9.836 291.047 9.79389Z" fill="#E6332A"/>
<path d="M275.396 214.762C275.316 214.279 275.238 213.798 275.174 213.317C275.098 212.819 275.085 212.314 275.134 211.812C274.363 212.034 273.584 212.237 272.798 212.422C272.036 212.041 271.204 211.818 270.353 211.767C269.503 211.715 268.65 211.836 267.847 212.122C266.054 212.741 264.331 213.452 262.484 213.926C262.324 213.968 262.164 214.006 262.004 214.044C260.947 214.135 259.902 214.214 258.874 214.283C246.501 215.091 234.082 213.757 222.165 210.341C215.325 208.388 208.844 205.667 202.597 202.454L184.228 186.157C181.289 183.546 178.205 180.118 174.225 179.189C171.117 178.462 167.906 179.497 165.99 181.849C165.587 181.935 165.198 182.078 164.834 182.272C162.964 183.276 162.52 185.88 162.407 187.79C162.365 188.47 162.363 189.153 162.385 189.833C163.249 189.561 164.144 189.397 165.049 189.343C165.303 190.132 165.847 190.795 166.572 191.198L189.661 203.989C193.293 206.002 196.903 208.096 200.539 210.126L202.038 211.42C205.172 214.19 208.392 216.934 211.961 219.136C215.359 221.186 219.001 222.801 222.802 223.945C230.597 226.367 238.889 227.141 247.001 227.653C251.407 227.932 255.821 228.064 260.241 228.049C264.169 228.049 268.294 228.171 271.908 226.407C275.46 224.679 277.205 220.92 276.379 217.111C276.198 216.274 275.864 215.478 275.396 214.762Z" fill="#48AE4C"/>
<path d="M432.948 207.252C432.488 205.455 430.379 204.194 428.579 204.774C426.612 205.41 425.741 207.176 426.096 209.135C426.112 209.22 426.125 209.306 426.141 209.39C424.974 210.8 424.136 212.45 423.685 214.221C423.461 214.687 423.342 215.196 423.335 215.713C423.335 215.759 423.335 215.806 423.335 215.855C423.267 216.267 423.213 216.681 423.173 217.098C422.773 221.308 423.408 225.552 423.137 229.761C422.643 230.187 422.301 230.762 422.16 231.398C421.683 233.583 421.29 235.784 420.968 237.996C420.208 239.431 419.196 240.719 417.98 241.798L417.758 241.758C416.153 241.537 414.166 242.556 413.859 244.298C413.859 244.329 413.848 244.358 413.842 244.389C412.51 245.074 411.2 245.778 410.11 246.86C408.844 248.11 407.974 249.725 407.383 251.387C406.84 252.962 406.468 254.591 406.273 256.245C406.171 256.779 406.082 257.311 405.978 257.834L404.697 264.223C404.333 266.036 405.217 268.139 407.177 268.584C409.253 269.056 410.778 267.946 411.546 266.107C411.91 265.233 412.265 264.351 412.614 263.474L414.046 263.427V263.835C414.054 264.688 414.369 265.51 414.935 266.149C415.501 266.789 416.278 267.203 417.125 267.317C418.95 267.56 420.418 266.461 421.024 264.777C421.246 264.156 421.468 263.533 421.69 262.907C422.258 262.851 422.826 262.791 423.395 262.723H423.435C424.056 262.801 424.688 262.718 425.268 262.483C427.531 262.188 429.782 261.808 432.02 261.344C432.295 261.314 432.566 261.256 432.83 261.171C434.892 260.728 436.944 260.207 438.975 259.602C439.098 257.434 439.164 255.263 439.173 253.089C440.014 252.44 440.605 251.452 440.505 250.366C439.08 235.825 436.554 221.412 432.948 207.252Z" fill="#48AE4C"/>
<path d="M377.355 296.943C380.285 295.97 382.079 293.537 383.293 290.818C384.625 287.815 385.485 284.56 386.508 281.44L388.26 276.108C388.529 275.288 388.798 274.467 389.068 273.646C389.312 272.903 389.605 272.179 389.45 271.458C389.98 271.523 390.513 271.587 391.046 271.647C390.727 272.418 390.504 273.226 390.38 274.051C390.256 275.159 390.189 276.254 390.158 277.353C390.109 279.547 390.224 281.741 390.502 283.917C391.008 288.128 392.205 292.238 393.81 296.172C397.132 304.219 402.37 311.336 409.071 316.906C422.877 328.452 442.623 333.305 460.281 329.952C468.408 328.412 475.899 324.513 481.816 318.743C487.404 313.3 491.584 306.521 494.304 299.241C500.314 283.184 498.995 264.19 490.345 249.315C481.418 233.964 463.784 223.221 445.677 226.046C444.021 226.31 442.387 226.705 440.793 227.227C440.307 225.76 439.781 224.302 439.239 222.846C437.154 214.374 434.194 206.141 430.408 198.279C428.896 194.323 427.202 190.452 424.984 186.786C423.874 184.951 422.729 183.138 421.55 181.346C420.595 179.901 419.629 178.283 418.457 176.951C419.269 176.119 420.011 175.222 420.677 174.27C424.727 168.534 426.263 161.139 425.055 154.252C423.907 147.703 420.058 141.82 414.716 137.901C412.135 136.004 409.221 134.605 406.125 133.775C404.768 133.418 402.846 133.245 402.351 131.688C401.907 130.285 402.41 128.672 402.735 127.298C409.869 97.1191 408.278 65.5396 398.148 36.2275C397.562 34.5389 396.971 32.8524 396.354 31.1748V31.1615C396.314 31.0552 396.276 30.9399 396.236 30.838C395.706 29.402 393.439 30.3106 393.754 31.7444C399.029 55.6227 398.454 80.3897 394.9 104.472C393.89 111.322 392.68 118.147 391.477 124.964C391.468 125.028 391.468 125.093 391.477 125.157C390.3 124.346 388.788 123.982 387.285 124.004C387.059 123.511 386.799 123.034 386.506 122.577C386.322 122.294 386.126 122.017 385.924 121.751C387.094 119.756 387.199 117.261 386.43 115.076C385.487 112.394 383.398 110.435 380.749 109.44C375.086 107.313 369.427 109.884 364.747 113.068C355.869 101.502 342.79 93.2562 328.582 89.9787C326.053 88.6911 323.016 88.5648 320.31 87.6917C318.214 87.0158 316.314 85.8612 314.464 84.6999C314.171 84.516 313.874 84.3365 313.576 84.1526C318.294 83.8224 323.076 82.8362 327.341 80.8994C328.913 80.1951 330.394 79.3021 331.75 78.2401C333.97 77.0677 335.844 75.0511 337.438 73.2073C339.084 71.2831 340.52 69.1897 341.723 66.9624C348.025 63.5984 350.059 54.9202 350.914 48.1789C351.245 45.5833 351.393 42.9679 351.358 40.3516C351.335 39.022 351.302 37.6259 351.011 36.3051C350.991 35.4763 350.585 34.6076 350.316 33.8541C349.837 32.5043 349.276 31.1847 348.636 29.9028C348.244 29.1154 347.821 28.3479 347.368 27.6003C343.889 19.9814 337.538 13.9603 330.689 9.24003C326.61 6.43003 322.057 4.2206 317.146 3.39621C312.284 2.58291 307.305 3.4494 302.685 5.04055C300.581 3.13337 298.08 1.7164 295.361 0.892038C292.772 0.111976 288.561 -0.81878 286.363 1.29758C285.253 2.37017 284.873 3.95688 284.485 5.40177C284.012 7.15248 283.623 8.92313 283.304 10.7071C283.035 12.2034 282.849 13.7134 282.746 15.2301C280.699 16.689 278.8 18.3442 277.076 20.172C271.379 26.2729 267.772 34.0558 266.498 42.2752C265.757 46.8582 265.933 51.5422 267.015 56.057C267.186 56.7418 267.392 57.4177 267.619 58.087C267.333 58.0943 267.051 58.1536 266.786 58.2621C259.323 61.2549 252.041 64.6801 244.978 68.5203C241.442 70.4439 237.998 72.5203 234.613 74.6943C231.773 76.5182 228.992 78.424 226.421 80.6024C226.293 80.6403 226.171 80.6963 226.059 80.7686C216.573 87.1373 208.478 95.3572 202.26 104.933C196.038 114.464 191.744 125.118 189.619 136.295C188.761 140.833 188.292 145.435 188.216 150.052C178.685 138.588 163.87 133.21 150.528 127.08C142.664 123.473 135.209 119.324 128.598 113.717C121.731 107.893 115.526 101.214 107.967 96.2458C107.523 95.9503 107.062 95.6592 106.586 95.3726C106.217 94.7521 105.653 94.2468 104.996 94.1205C104.726 94.0665 104.453 94.028 104.179 94.0053C97.8741 90.6812 90.3302 88.6667 83.5546 91.1488C81.5581 91.8413 79.7815 93.0503 78.4062 94.6524C76.8033 96.5737 76.1262 99.0026 75.9309 101.46C75.569 105.983 76.0263 110.768 76.5969 115.251C77.627 123.488 80.2045 132.182 86.7404 137.766C94.6727 144.548 105.622 144.248 115.455 144.169L133.508 144.02C139.363 143.974 145.233 143.798 151.083 144.02C160.989 144.417 171.66 146.662 178.447 154.502C179.271 155.456 180.019 156.474 180.683 157.545C176.827 156.901 172.877 157.099 169.105 158.125C163.857 159.542 158.449 162.323 155.301 166.899C152.415 171.09 152.284 176.61 155.607 180.608C156.922 182.21 158.783 183.272 160.833 183.591C159.175 187.704 160.24 192.654 160.773 196.905C158.524 196.758 156.704 198.822 156.111 200.907C155.301 203.777 155.467 207.081 155.472 210.037C155.472 211.147 155.497 212.255 155.547 213.361C152.608 213.45 150.574 216.553 150.046 219.165C149.662 221.065 149.81 222.964 149.935 224.878C150.05 226.629 150.17 228.378 150.306 230.126C144.149 232.748 138.426 236.384 133.622 240.985C126.056 248.223 121.553 257.446 118.257 267.152C118.122 267.38 118.036 267.634 118.006 267.897C117.233 270.224 116.525 272.575 115.859 274.933C115.402 276.555 115.033 278.195 114.651 279.837C114.592 280.076 114.618 280.329 114.724 280.551C114.453 280.566 114.197 280.683 114.008 280.879C113.82 281.074 113.712 281.334 113.707 281.605C113.701 281.876 113.799 282.14 113.98 282.343C114.161 282.545 114.412 282.672 114.682 282.698C118.456 283.091 122.217 283.418 125.991 283.709C125.523 285.754 125.425 287.919 125.441 289.998C125.435 292.599 125.666 295.195 126.131 297.754C126.554 299.982 127.229 302.154 128.143 304.23C128.467 304.961 128.826 305.679 129.222 306.375C129.602 307.291 130.017 308.188 130.467 309.065C134.983 317.841 142.677 323.849 151.851 327.264C156.901 329.145 162.205 330.284 167.509 331.177C173.319 332.155 179.167 332.762 185.047 332.113C195.442 330.958 205.07 326.1 212.166 318.431C219.261 310.762 223.348 300.796 223.677 290.361C229.027 290.539 234.398 290.344 239.75 290.339C242.414 290.339 245.049 290.24 247.702 290.251C250.489 290.264 253.315 290.446 256.097 290.302C256.234 290.294 256.371 290.272 256.505 290.237C261.599 290.533 266.696 290.819 271.795 291.095C285.09 291.812 298.389 292.484 311.692 293.112L371.487 295.993C373.046 297.358 375.27 297.626 377.355 296.943ZM385.125 274.173L383.76 278.266C382.796 281.163 381.844 284.057 380.874 286.947C380.165 289.043 379.402 291.463 377.581 292.883C376.666 293.553 375.549 293.89 374.415 293.839C374.613 293.236 374.813 292.633 375.01 292.028H374.935C375.117 291.698 375.301 291.363 375.463 291.053C375.907 290.18 376.351 289.311 376.806 288.436C377.789 286.497 378.796 284.571 379.828 282.656C381.697 279.19 383.639 275.764 385.653 272.378C385.438 273.005 385.292 273.654 385.118 274.173H385.125ZM337.591 280.194C336.996 277.88 335.455 276.125 333.566 274.8C334.512 274.22 335.431 273.564 336.337 272.976C337.733 272.068 339.123 271.152 340.53 270.262C343.406 268.444 346.335 266.717 349.317 265.08C352.246 263.476 355.221 261.96 358.215 260.484C359.772 259.717 361.342 258.979 362.924 258.268C363.654 257.939 364.387 257.613 365.122 257.291C365.475 257.116 365.837 256.96 366.206 256.823L366.428 256.763C366.472 257.335 366.516 257.907 366.57 258.479C366.809 261.078 366.88 264.019 368.53 266.175C370.395 268.613 374.009 268.91 376.789 269.457C378.896 269.874 381.008 270.25 383.125 270.585C380.986 274.194 378.947 277.861 377.006 281.586C376.711 282.149 376.418 282.718 376.118 283.286C369.818 282.944 363.517 282.598 357.216 282.246C350.675 281.881 344.132 281.53 337.589 281.194C337.675 280.866 337.674 280.521 337.584 280.194H337.591ZM179.393 210.7C179.417 211.125 179.442 211.549 179.468 211.974C179.526 212.967 179.585 213.958 179.646 214.948C179.67 215.371 179.697 215.797 179.722 216.222L179.739 216.535C179.002 216.67 177.91 216.951 177.675 216.978C173.9 217.565 170.109 217.681 166.297 217.8C165.957 217.804 165.627 217.912 165.351 218.11C165.045 214.678 164.656 211.254 164.279 207.823C165.014 208.058 165.797 208.198 166.499 208.355C168.053 208.705 169.625 208.927 171.192 209.16C172.759 209.392 174.364 209.603 175.956 209.771C176.678 209.851 177.404 209.931 178.128 209.993C178.478 210.022 178.962 209.993 179.404 210.022C179.393 210.285 179.393 210.547 179.393 210.7ZM166.148 220.918C170.226 221.291 174.384 220.918 178.418 220.287C180.083 220.025 182.568 219.981 183.08 217.98C183.303 217.093 183.08 216.021 183.027 215.099C182.961 214.035 182.895 212.973 182.83 211.912C182.73 210.303 183.147 207.48 181.133 206.879C180.265 206.618 179.195 206.693 178.292 206.638C177.204 206.571 176.116 206.509 175.031 206.416C172.932 206.248 170.838 206.026 168.75 205.751C167.334 205.565 165.555 205.129 164.01 205.253C163.67 202.124 163.344 198.992 162.987 195.863C162.842 194.56 162.665 193.25 162.543 191.939C166.421 191.772 170.073 192.517 173.721 194.037C177.166 195.473 180.354 197.503 183.369 199.682C189.654 204.222 195.178 209.703 201.352 214.383C208.498 219.804 216.783 223.664 225.173 226.758C233.212 229.721 241.75 231.161 250.32 230.767C259.715 230.337 268.853 228.032 277.183 223.675C277.371 224.544 277.556 225.411 277.738 226.277C279.318 233.86 280.533 241.714 283.57 248.881C286.239 255.222 290.84 260.565 296.719 264.152C302.398 267.653 308.843 269.677 315.162 271.687C318.714 272.815 322.266 273.936 325.742 275.277C328.595 276.385 332.769 277.734 333.812 280.979C315.284 280.032 296.751 279.168 278.217 278.277C270.84 277.92 263.463 277.55 256.083 277.229L245.014 276.753C242.081 276.628 239.115 276.476 236.182 276.693C236.087 269.098 233.74 261.548 229.886 254.92C223.726 244.309 214.195 236.305 203.097 231.208C191.454 225.89 178.528 224.015 165.851 225.805C165.791 224.125 165.691 222.447 165.566 220.772C165.751 220.853 165.949 220.902 166.15 220.918H166.148ZM275.165 213.315C275.48 215.458 275.891 217.596 276.335 219.742C276.079 219.774 275.831 219.854 275.604 219.976C268.243 223.87 260.154 226.203 251.847 226.828C243.539 227.453 235.192 226.357 227.329 223.609C218.984 220.686 210.7 216.892 203.534 211.677C197.318 207.156 191.808 201.751 185.578 197.246C182.104 194.733 178.365 192.57 174.329 191.088C170.73 189.758 166.192 188.612 162.385 189.835C162.363 189.157 162.365 188.475 162.407 187.792C162.525 185.882 162.964 183.274 164.834 182.279C167.32 180.949 170.266 182.343 172.437 183.637C177.912 186.901 183.021 190.777 188.391 194.21C198.99 200.982 210.006 206.875 222.158 210.345C234.077 213.76 246.498 215.093 258.872 214.283C264.12 213.931 269.825 213.353 275.131 211.81C275.081 212.311 275.093 212.817 275.167 213.315H275.165ZM277.742 210.953C282.136 209.341 286.132 206.941 289.196 203.28C291.1 201 292.552 198.11 292.348 195.081C292.271 193.967 291.987 192.876 291.511 191.865C294.046 192.73 296.677 193.224 299.392 192.938C303.32 192.526 307.176 189.933 308.623 186.203C309.511 183.89 309.192 181.549 308.111 179.526C310.284 178.436 311.478 175.759 311.172 173.399C310.826 170.759 308.69 168.834 306.674 167.32C304.59 165.769 302.282 164.545 299.828 163.69C296.835 162.642 293.678 162.256 290.523 162.168C287.695 162.088 284.835 162.039 281.998 162.168C282.186 161.436 282.359 160.704 282.518 159.969C283.603 159.395 284.618 158.436 285.459 157.6C286.475 156.594 287.458 155.56 288.41 154.498C290.277 152.396 292.014 150.183 293.614 147.872C296.366 143.912 298.942 139.572 300.793 135.06C301.18 134.28 301.557 133.494 301.917 132.696C303.049 133.265 304.181 133.819 305.298 134.382C315.705 139.595 326.508 143.528 338.128 144.938C341.304 145.325 344.499 145.538 347.699 145.576C349.368 145.594 351.037 145.564 352.705 145.487C354.377 145.41 356.222 145.449 357.811 144.933C358.027 144.865 358.231 144.765 358.417 144.638C358.753 144.61 359.084 144.576 359.417 144.55C360.864 144.435 362.303 144.29 363.75 144.107C366.438 143.761 369.099 143.226 371.711 142.507C373.143 142.105 374.64 141.644 376.127 141.097C376.14 142.637 377.43 143.931 378.822 144.689C378.822 144.689 378.822 144.705 378.822 144.712C378.942 151.666 380.054 158.615 381.264 165.452C381.871 168.874 382.528 172.286 383.236 175.688C383.591 177.385 383.961 179.084 384.346 180.785C384.532 181.629 384.723 182.478 384.919 183.325C384.961 183.519 385.012 183.711 385.074 183.901C376.907 196.518 371.22 210.571 368.315 225.311C366.524 234.373 365.814 243.616 366.199 252.845C364.563 252.952 362.942 253.938 361.47 254.618C359.888 255.333 358.318 256.072 356.761 256.834C353.653 258.37 350.603 260.052 347.624 261.834C344.644 263.616 341.714 265.501 338.852 267.476C337.42 268.462 335.999 269.455 334.618 270.512C333.455 271.398 332.176 272.325 331.135 273.393C328.438 272.063 325.585 271.062 322.734 270.113C316.895 268.17 310.921 266.598 305.207 264.298C299.779 262.111 294.464 259.201 290.683 254.632C286.385 249.439 284.467 242.758 282.928 236.322C281.916 232.065 280.992 227.786 280.042 223.518C279.543 221.302 279.005 219.086 278.488 216.869C278.235 215.799 277.986 214.724 277.724 213.654C277.605 213.162 277.387 212.643 277.327 212.138C277.287 211.777 277.265 210.485 277.571 211.653C277.572 211.66 277.575 211.666 277.58 211.671C277.585 211.677 277.591 211.68 277.597 211.683C277.604 211.685 277.611 211.685 277.618 211.683C277.625 211.681 277.631 211.678 277.636 211.673C277.73 211.581 277.791 211.461 277.81 211.331C277.829 211.2 277.806 211.068 277.742 210.953ZM305.42 176.295C302.485 173.908 298.722 172.851 295.143 171.863L280.258 167.703C280.48 167.107 280.684 166.507 280.886 165.902C286.345 166.23 292.011 165.501 297.314 167.047C299.785 167.769 302.113 168.909 304.197 170.418C305.551 171.391 308.031 173.177 307.063 175.141C306.77 175.732 306.215 176.138 305.775 176.608C305.657 176.495 305.54 176.393 305.42 176.295ZM383.265 267.006C380.136 266.51 376.982 265.978 373.902 265.233C372.946 264.998 371.856 264.732 371.238 263.886C370.732 263.175 370.546 262.237 370.433 261.326C373.574 263.352 377.694 264.136 381.251 264.673C385.869 265.371 390.555 265.499 395.215 265.685C404.864 266.067 414.554 266.222 424.165 265.131C429.107 264.604 433.996 263.661 438.78 262.312C438.673 263.673 438.558 265.029 438.396 266.386C426.325 268.586 414.045 269.423 401.787 268.881C395.582 268.605 389.398 267.979 383.265 267.006ZM400.976 301.338C400.892 301.203 400.808 301.07 400.728 300.934C400.815 300.921 400.9 300.899 400.983 300.87L400.976 301.338ZM401.496 292.165C401.48 292.298 401.467 292.431 401.451 292.562C401.451 292.316 401.434 292.07 401.427 291.824L401.558 291.928C401.527 292.004 401.506 292.084 401.496 292.165ZM405.221 285.497C404.473 285.561 404.124 286.452 404.218 287.079C404.414 288.4 404.608 289.721 404.797 291.042C404.46 290.74 404.118 290.446 403.767 290.155C402.637 289.231 400.852 287.465 399.369 288.75C398.135 289.819 398.718 292.25 398.778 293.646L398.958 297.708C395.697 291.266 393.856 284.201 393.559 276.99C393.524 276.059 393.535 275.13 393.537 274.2C393.512 273.42 393.431 272.643 393.295 271.875C394.238 271.966 395.184 272.052 396.128 272.125C403.625 272.717 411.153 272.801 418.661 272.376C416.812 276.283 416.606 280.54 417.538 284.624C416.396 283.998 415.342 283.225 414.401 282.326C414.246 282.162 414.052 282.041 413.836 281.974C413.621 281.908 413.392 281.897 413.172 281.944C412.951 281.991 412.746 282.094 412.577 282.243C412.408 282.391 412.28 282.581 412.205 282.794C411.664 284.417 411.433 286.128 411.524 287.837L409.477 286.729C408.074 285.967 406.855 285.353 405.221 285.497ZM417.654 287.337C417.461 287.312 417.266 287.323 417.078 287.37C417.061 287.279 417.045 287.188 417.027 287.099C417.236 287.184 417.445 287.266 417.656 287.337H417.654ZM414.403 289.493C414.315 289.053 414.251 288.61 414.212 288.163C414.276 288.606 414.34 289.05 414.406 289.493H414.403ZM484.831 269.77C485.056 267.534 485.182 265.295 485.21 263.053C486.717 264.422 488.192 265.826 489.635 267.263C490.248 267.877 491.105 267.46 491.245 266.685L491.771 263.749C494.394 273.405 494.394 283.585 491.771 293.242C488.052 306.65 478.996 319.326 465.521 324.208C457.124 327.248 447.658 327.359 438.92 325.939C430.811 324.626 423.069 321.624 416.199 317.127C413.022 315.028 410.094 312.575 407.472 309.814C407.732 308.886 407.648 307.731 407.705 306.9L407.905 304.077C408.475 304.615 409.051 305.146 409.635 305.67C410.614 306.557 411.89 308.108 413.329 307.175C414.481 306.419 414.27 304.571 414.346 303.408L414.521 300.697L417.185 303.011C417.893 303.629 419.223 303.616 419.505 302.517C419.836 301.224 420.099 299.914 420.295 298.594C421.073 299.259 421.905 299.858 422.782 300.385C423.492 300.81 424.698 300.571 424.9 299.64C425.022 299.086 425.144 298.532 425.259 297.965C428.13 300.784 431.502 303.122 435.028 305.032C439.583 307.496 444.514 309.085 449.714 307.964C454.267 306.982 458.339 304.294 461.653 301.105C465.219 297.702 468.14 293.683 470.274 289.242C472.085 285.444 472.804 281.218 472.349 277.036C472.902 275.846 472.742 274.191 472.829 272.945C472.911 271.82 472.973 270.689 473.033 269.557C473.661 270.285 474.343 270.964 475.074 271.589C475.871 272.267 477.2 273.672 478.373 273.256C479.611 272.812 479.327 270.745 479.398 269.732C479.463 268.801 479.52 267.868 479.576 266.94C480.623 268.345 481.911 269.555 483.381 270.512C483.522 270.597 483.682 270.645 483.846 270.651C484.011 270.656 484.174 270.619 484.32 270.543C484.465 270.468 484.589 270.356 484.679 270.218C484.769 270.081 484.822 269.922 484.833 269.759L484.831 269.77ZM483.004 246.122C483.068 247.513 483.135 248.903 483.117 250.297C483.105 251.018 483.079 251.737 483.039 252.455C483.039 252.591 482.921 253.393 482.862 254.027C482.591 253.84 482.324 253.648 482.06 253.453C481.532 253.066 481.014 252.661 480.506 252.24C479.372 251.289 478.301 250.266 477.298 249.178C476.559 248.384 475.078 249.067 475.369 250.177C475.879 252.053 476.068 254.001 475.926 255.939C474.15 254.558 472.374 253.177 470.598 251.797C469.932 251.285 468.771 251.861 468.822 252.708C468.951 255.186 469.148 257.654 469.415 260.112C467.856 258.906 466.244 257.775 464.577 256.719C463.776 256.214 462.903 257.091 463.269 257.907C463.679 258.828 464.04 259.77 464.353 260.728C458.954 255.013 450.215 249.8 442.867 253.001C442.885 245.813 442.28 238.637 441.058 231.553C456.303 225.982 473.384 234.024 483.006 246.111L483.004 246.122ZM453.83 277.978C453.297 276.154 452.213 274.386 451.248 272.857C450.004 270.889 448.682 268.968 447.28 267.095C446.634 266.232 445.972 265.383 445.296 264.549C444.521 263.596 443.719 262.49 442.496 262.133C442.616 260.545 442.707 258.954 442.769 257.36L442.874 257.289C445.811 255.141 449.807 255.972 452.893 257.289C456.385 258.789 459.424 261.402 461.873 264.263C466.817 270.04 469.492 277.929 466.939 285.344C465.587 289.271 463.074 292.923 460.301 295.981C457.704 298.862 454.655 301.429 451.023 302.882C447.196 304.416 443.275 303.99 439.537 302.439C435.766 300.842 432.27 298.663 429.178 295.981C422.491 290.175 418.171 281.058 420.575 272.269C423.432 272.077 426.284 271.81 429.134 271.467C429.613 272.524 430.184 273.557 430.745 274.57C430.885 274.82 431.032 275.068 431.174 275.316C432.388 278.355 433.694 281.353 435.183 284.267C435.606 285.17 436.09 286.044 436.631 286.882C441.561 282.765 448.022 280.784 453.832 277.967L453.83 277.978ZM433.525 218.217C434.497 220.951 435.399 223.739 436.386 226.483C437.816 233.183 438.701 239.987 439.033 246.829C439.235 251.094 439.214 255.368 438.971 259.631C430.192 262.242 421.088 263.294 411.948 263.509C409.712 263.565 407.479 263.569 405.243 263.547C405.246 263.515 405.246 263.483 405.243 263.452C405.23 262.344 405.707 261.537 405.876 260.462C406.051 259.354 406.062 258.206 406.178 257.08C406.354 255.147 406.759 253.241 407.386 251.403C407.976 249.738 408.846 248.125 410.112 246.873C411.753 245.246 413.886 244.471 415.862 243.327C419.967 240.945 422.043 236.929 422.835 232.371C423.723 227.312 422.686 222.193 423.168 217.109C423.574 212.803 425.488 208.61 429.578 206.873C430.91 210.644 432.188 214.443 433.527 218.206L433.525 218.217ZM420.806 187.092C422.669 190.217 424.431 193.392 425.803 196.767C426.791 199.205 427.71 201.643 428.601 204.123C424.771 204.94 421.969 208.453 420.58 211.979C418.528 217.189 419.556 222.926 419.405 228.362C419.287 232.573 418.295 237.417 414.41 239.768C412.345 241.02 410.079 241.86 408.216 243.436C406.495 244.887 405.243 246.76 404.335 248.808C403.332 251.055 402.835 253.51 402.539 255.941C402.379 257.117 402.291 258.301 402.277 259.487C402.277 260.848 402.888 262.02 402.877 263.343C402.873 263.401 402.873 263.46 402.877 263.518C401.178 263.486 399.48 263.44 397.784 263.383C393.215 263.23 388.622 263.113 384.068 262.68C381.6 262.454 379.152 262.05 376.742 261.47C374.504 260.925 372.406 260.03 370.226 259.336C368.028 238.685 372.02 217.428 380.962 198.724C385.772 188.642 392.072 179.337 399.651 171.123C400.586 173.902 401.978 176.459 404.169 178.387C406.504 180.444 409.635 181.39 412.698 180.552C413.961 180.196 415.153 179.627 416.224 178.87C416.737 180.027 417.383 181.144 417.978 182.236C418.877 183.868 419.849 185.47 420.808 187.081L420.806 187.092ZM408.949 138.635C412.454 140.452 415.462 143.095 417.711 146.336C419.449 148.88 420.641 151.754 421.214 154.779C421.787 157.804 421.728 160.915 421.041 163.916C420.323 167.1 418.936 170.095 416.972 172.703C416.381 173.494 415.711 174.224 414.974 174.881C414.862 174.668 414.701 174.485 414.503 174.347C414.305 174.21 414.076 174.122 413.837 174.092C413.688 173.957 413.542 173.82 413.393 173.678C413.145 173.433 412.904 173.179 412.672 172.916C412.141 172.325 411.655 171.696 411.22 171.032C410.336 169.669 409.608 168.211 409.048 166.686C407.799 163.302 407.312 159.63 407.017 156.049C406.749 152.765 406.493 149.434 406.691 146.141C406.757 144.623 407.015 143.12 407.459 141.667C407.831 140.6 408.331 139.582 408.949 138.635ZM404.952 137.113C405.661 137.323 406.364 137.54 407.059 137.8C405.539 139.289 404.686 141.474 404.246 143.51C403.62 146.425 403.66 149.379 403.763 152.337C403.985 159.152 404.429 166.285 408.107 172.251C409.021 173.773 410.141 175.162 411.437 176.377C411.551 176.479 411.659 176.585 411.784 176.683C411.196 176.844 410.586 176.903 409.979 176.858C404.837 176.466 403.005 169.323 402.295 165.252C400.958 157.555 400.511 149.73 400.963 141.93C400.999 141.319 401.043 140.707 401.087 140.095C402.12 138.792 403.321 137.706 404.952 137.113ZM393.51 128.233C393.481 128.095 393.448 127.967 393.41 127.836C393.476 127.746 393.522 127.645 393.548 127.537C394.354 124.268 395.089 120.82 395.011 117.418C397.148 107.942 398.688 98.3416 399.624 88.6734C400.866 76.3467 400.909 63.929 399.755 51.5938C399.733 51.3545 399.706 51.1174 399.682 50.8781C401.55 58.7914 402.823 66.8331 403.489 74.9359C404.713 89.613 404.098 104.461 401.38 118.945C400.734 122.384 399.715 125.791 399.207 129.25C398.985 130.759 398.972 132.372 399.689 133.762C399.738 133.859 399.791 133.952 399.846 134.046C399.357 134.004 398.869 134.13 398.461 134.402C396.767 133.147 394.759 132.38 392.658 132.186C393.408 130.998 393.788 129.549 393.508 128.233H393.51ZM392.52 139.619C392.831 138.479 392.855 137.28 392.589 136.129C392.993 136.255 393.393 136.397 393.774 136.541C394.884 136.971 395.772 137.68 396.771 138.329C396.948 138.445 397.142 138.531 397.346 138.586C396.697 145.917 396.801 153.295 397.657 160.605C397.879 162.584 398.143 164.709 398.545 166.824C394.563 170.992 390.901 175.455 387.591 180.173C387.563 180.065 387.536 179.952 387.514 179.861C387.136 178.163 386.766 176.464 386.404 174.764C385.707 171.44 385.021 168.116 384.37 164.767C383.109 158.287 382.037 151.737 380.39 145.339C382.556 145.961 385.052 145.762 387.132 145.062C389.689 144.193 391.827 142.278 392.52 139.619ZM387.778 125.316C389.274 125.811 390.624 126.79 391.121 128.215C391.765 130.068 389.823 132.514 387.876 131.679C387.825 131.656 387.773 131.637 387.72 131.621C388.404 129.581 388.425 127.378 387.78 125.325L387.778 125.316ZM385.558 135.289C385.944 134.859 386.294 134.399 386.606 133.913C386.729 134.039 386.874 134.143 387.034 134.218C387.358 134.373 387.702 134.483 388.055 134.546C388.188 134.879 388.404 135.171 388.684 135.395C389.678 136.213 389.774 137.757 389.447 138.91C388.977 140.574 387.649 141.585 386.102 142.234C384.468 142.891 382.69 143.106 380.947 142.859C379.783 142.684 377.652 141.928 377.785 140.446C380.736 139.207 383.524 137.569 385.567 135.298L385.558 135.289ZM346.538 106.48C346.869 105.807 347.24 105.156 347.648 104.527C348.19 103.975 348.6 103.28 349.073 102.61C349.212 102.414 349.298 102.185 349.322 101.946C351.219 103.281 353.037 104.723 354.768 106.267C357.981 109.14 360.883 112.341 363.426 115.818C363.89 116.452 364.794 116.297 365.333 115.909C369.183 113.152 373.991 110.407 378.902 111.727C380.942 112.277 382.734 113.5 383.615 115.455C384.226 116.752 384.311 118.234 383.853 119.592C381.053 117.243 377.467 116.035 373.814 116.21C369.387 116.405 364.196 118.834 362.147 122.985C360.697 119.697 358.769 116.64 356.426 113.912C353.691 110.737 350.17 108.51 346.511 106.537C346.524 106.519 346.536 106.5 346.547 106.48H346.538ZM343.519 98.3267C343.556 98.3444 343.594 98.3665 343.63 98.3865L343.47 98.5726C343.496 98.4925 343.516 98.4102 343.527 98.3267H343.519ZM342.866 103.918C342.848 104.053 342.833 104.19 342.815 104.326C342.803 104.435 342.803 104.546 342.815 104.656L342.384 104.452C342.551 104.277 342.713 104.097 342.875 103.918H342.866ZM334.891 95.8247C335.03 95.5596 335.068 95.2537 334.999 94.9628C334.93 94.6719 334.759 94.4154 334.516 94.2402C334.738 94.3222 334.96 94.402 335.196 94.4884C337.291 95.2756 339.343 96.1744 341.343 97.1809C341.287 97.2458 341.237 97.3155 341.194 97.3893C340.164 99.1115 339.494 101.024 339.223 103.011C336.741 101.926 334.223 100.924 331.674 99.9821C333.033 98.8142 334.192 97.4203 334.9 95.8247H334.891ZM318.745 90.6767C319.013 90.7033 319.282 90.7343 319.551 90.7654C319.735 90.823 319.921 90.8806 320.11 90.9316C321.855 91.4036 323.662 91.6097 325.396 92.1416C325.407 92.3624 325.474 92.5767 325.591 92.7643C325.616 92.8106 325.631 92.8609 325.638 92.9128C324.753 94.2554 324.344 95.8561 324.479 97.4579C323.644 97.1787 322.81 96.9025 321.975 96.6291C319.013 95.6607 315.981 94.6347 312.897 93.859C312.984 93.4956 313.044 93.1033 313.119 92.6712C313.255 91.8728 313.341 91.0668 313.379 90.2579C315.159 90.4884 316.971 90.4972 318.754 90.6767H318.745ZM346.698 34.7981C347.304 35.0818 347.615 35.7644 347.808 36.3649C348.396 38.171 348.252 40.2386 348.192 42.1046C348.068 46.6232 347.45 51.1905 346.101 55.5252C345.064 58.8493 343.381 62.3241 340.151 63.9995C336.723 65.7724 332.642 65.0566 329.175 63.7912C325.548 62.4353 322.172 60.4883 319.184 58.0294C312.746 52.7817 308.617 44.0924 311.521 35.9926C311.878 36.1322 312.238 36.2608 312.604 36.3826C314.609 37.0238 316.66 37.5083 318.74 37.832C322.966 38.531 327.268 38.6421 331.524 38.1622C335.877 37.6835 339.982 36.5378 344.105 35.1017C344.873 34.8292 345.898 34.4192 346.698 34.7981ZM269.701 41.0697C271.166 33.9782 274.516 27.2125 279.612 22.0113C280.581 21.0285 281.607 20.1028 282.684 19.239C282.709 19.9592 282.748 20.6795 282.815 21.4086C282.904 22.3969 284.347 22.1288 284.458 21.2667C284.838 18.3437 285.293 15.403 285.817 12.4977C286.092 10.9664 286.44 9.44613 286.84 7.94584C287.173 6.69375 287.446 5.26216 288.048 4.10758C288.627 2.99953 289.824 3.15688 290.934 3.2566C292.158 3.37255 293.364 3.63291 294.526 4.03223C296.91 4.85125 299.074 6.20268 300.855 7.98351C300.999 8.12892 301.166 8.24883 301.35 8.33808C301.426 8.55969 301.499 8.76579 301.572 8.97853L301.874 8.86108C305.997 7.30982 310.419 6.27048 314.846 6.64499C319.122 7.00843 323.123 8.78795 326.715 11.055C334.219 15.7908 341.811 22.4967 344.802 31.0862C344.876 31.2974 344.977 31.4985 345.102 31.6845C343.363 31.9283 341.645 32.7239 339.96 33.3244C339.96 33.1213 339.923 32.9198 339.849 32.7305C338.237 28.4269 335.327 24.4823 332.054 21.28C328.813 18.0926 324.945 15.6108 320.694 13.9913C320.541 13.9315 320.472 14.1642 320.616 14.2284C324.728 16.0602 328.388 18.7699 331.337 22.1665C334.252 25.526 336.132 29.402 337.409 33.6347C337.451 33.7769 337.512 33.9126 337.591 34.038C335.518 34.5734 333.414 34.979 331.29 35.2524C330.86 29.4286 328.36 23.6224 323.143 20.5753C323.087 20.5395 323.02 20.527 322.956 20.5407C322.891 20.5544 322.835 20.5932 322.799 20.6484C322.763 20.7037 322.75 20.7709 322.764 20.8353C322.778 20.8997 322.817 20.9561 322.872 20.9919C324.939 22.7116 326.138 25.4241 327.068 27.8884C328.024 30.3255 328.52 32.9186 328.529 35.5361C327.586 35.6041 326.639 35.6506 325.689 35.6757C325.838 34.5987 325.443 33.2846 325.176 32.3782C324.781 31.0485 324.271 29.6324 323.196 28.695C323.165 28.6644 323.125 28.6443 323.082 28.6378C323.038 28.6314 322.994 28.6388 322.955 28.659C322.917 28.6792 322.885 28.7112 322.866 28.7503C322.846 28.7895 322.84 28.8337 322.847 28.8768C323.089 30.1599 323.585 31.3654 323.616 32.6906C323.624 33.2906 323.576 33.89 323.474 34.4812C323.407 34.8735 323.303 35.2148 323.267 35.5627C322.867 35.4918 322.497 35.5627 321.973 35.6026C321.8 35.6159 321.624 35.6203 321.449 35.6225C321.142 35.607 320.836 35.5915 320.527 35.5716C320.219 35.5516 319.89 35.4873 319.577 35.4253C317.961 35.1017 316.369 34.6142 314.78 34.1954C313.568 33.8762 312.352 33.5653 311.134 33.2624C310.364 33.1028 309.58 32.9344 308.823 32.7017C308.073 34.4854 307.494 36.3359 307.094 38.2286C307.094 38.3261 307.074 38.4214 307.065 38.5234C306.958 39.9513 307.011 41.3867 307.225 42.8026C307.604 48.4537 310.333 53.9917 314.298 58.0936C315.992 59.827 317.863 61.3779 319.881 62.7208C319.602 63.1524 319.288 63.5607 318.942 63.9419C318.27 64.6064 317.525 65.1943 316.722 65.6948C315.15 66.7233 313.421 67.4911 311.603 67.9685C307.96 68.9236 303.753 68.9458 300.121 67.8954C300.1 67.8887 300.078 67.8861 300.057 67.8878C300.035 67.8894 300.014 67.8953 299.995 67.9051C299.976 67.9149 299.959 67.9283 299.944 67.9447C299.93 67.9611 299.92 67.9801 299.913 68.0006C299.906 68.0212 299.904 68.0428 299.905 68.0643C299.907 68.0858 299.913 68.1068 299.923 68.126C299.933 68.1453 299.946 68.1624 299.962 68.1764C299.979 68.1905 299.998 68.2011 300.018 68.2078C302.017 69.0344 303.935 69.6439 306.108 69.8079C308.236 69.9678 310.377 69.8185 312.462 69.3646C314.508 68.9333 316.489 68.239 318.356 67.2992C319.728 66.5923 321.387 65.5862 322.217 64.1812C322.701 64.4604 323.194 64.7264 323.689 64.9879C323.158 65.4998 322.703 66.1181 322.204 66.6499C321.316 67.6006 320.361 68.4893 319.375 69.3469C318.387 70.2129 317.31 70.9735 316.163 71.6162C314.933 72.2965 313.601 72.6289 312.302 73.1342C312.113 73.2073 312.231 73.5331 312.424 73.4688C313.885 72.9724 315.435 73.081 316.929 72.7131C318.175 72.3787 319.37 71.877 320.481 71.2217C321.637 70.534 322.731 69.7488 323.753 68.8749C324.621 68.1635 325.887 67.3502 326.462 66.3131C327.212 66.6366 327.978 66.9292 328.753 67.1995C328.087 69.7835 326.44 72.9503 323.853 73.8677C323.522 73.9874 323.631 74.5325 323.977 74.4151C325.671 73.8877 327.323 73.4622 328.717 72.312C330.093 71.1889 331.103 69.6822 331.617 67.984C332.338 68.1349 333.066 68.2474 333.799 68.3209C333.3 70.3264 333.004 72.1746 331.628 73.8367C330.163 75.6096 328.178 76.9015 326.118 77.8788C321.396 80.1215 315.794 80.9969 310.604 81.0789C299.967 81.2473 289.735 77.5664 281.521 70.8671C277.969 67.9862 274.827 64.538 272.054 60.8792C271.027 58.8439 270.217 56.7061 269.639 54.5014C269.417 53.7036 269.195 52.9036 268.973 52.1013C268.973 52.0371 268.973 51.9706 268.957 51.9063C268.725 48.2772 268.975 44.6333 269.701 41.0697ZM163.91 143.231C158.533 141.824 152.961 141.441 147.424 141.356C141.725 141.274 136.022 141.372 130.329 141.403C124.557 141.434 118.785 141.465 113.013 141.496C108.082 141.518 103.047 141.509 98.2248 140.372C93.7847 139.32 89.6975 137.234 86.6383 133.797C83.9564 130.788 82.2092 127.06 81.0881 123.218C79.9114 119.2 79.312 115.018 79.0234 110.854C78.8754 108.687 78.7866 106.515 78.757 104.339C78.7304 101.921 78.7925 99.3017 80.1446 97.1987C82.3424 93.7792 86.9446 92.8551 90.7365 93.0612C92.8046 93.1829 94.8503 93.5549 96.8284 94.1693C96.6175 95.6319 96.8417 97.1987 96.8084 98.6591C96.756 100.706 96.4502 102.739 95.8982 104.711C94.8081 108.654 92.9433 112.361 92.0242 116.35C91.5491 118.42 90.9874 120.966 91.4847 123.087C91.6681 123.851 92.0976 124.533 92.7072 125.03C93.3168 125.526 94.0729 125.809 94.8592 125.835C96.1912 125.899 97.5433 125.066 98.4291 124.12C99.9831 122.469 100.856 120.173 101.759 118.136C102.635 116.125 103.408 114.07 104.073 111.98C105.414 107.819 106.342 103.536 106.845 99.1931C109.905 101.281 112.771 103.696 115.55 106.196C115.358 106.212 115.174 106.286 115.025 106.408C114.875 106.53 114.767 106.695 114.713 106.881C114.203 108.716 113.978 110.564 113.341 112.374C112.688 114.177 111.905 115.93 110.997 117.62C110.033 119.453 108.795 121.27 108.04 123.191C107.07 125.629 108.761 128.047 111.37 128.133C115.464 128.268 117.566 123.88 118.721 120.647C119.443 118.674 120.02 116.65 120.446 114.593C120.692 113.47 120.867 112.332 120.969 111.187C121.53 111.705 122.092 112.222 122.655 112.738C124.675 114.573 126.722 116.386 128.849 118.099C128.758 118.124 128.669 118.154 128.582 118.189C128.072 118.398 128.138 119.007 128.476 119.311C128.353 121.017 127.723 122.701 126.961 124.222C126.007 126.136 125.263 128.481 127.015 130.205C128.007 131.189 129.33 131.182 130.423 130.369C132.051 129.144 133.294 127.479 134.006 125.571C134.407 124.539 134.643 123.45 134.705 122.345C137.522 124.153 140.434 125.81 143.428 127.309C150.903 131.094 158.713 134.178 166.192 137.946C173.179 141.469 180.003 145.66 185.114 151.686C186.386 153.178 187.528 154.776 188.529 156.461C189.339 157.831 191.921 157.598 191.841 155.734C191.469 146.829 192.548 137.923 195.036 129.363C195.133 130.041 195.271 130.719 195.409 131.393C195.805 133.338 196.368 135.246 197.091 137.095C197.8 138.868 198.93 140.501 200.663 141.416C202.511 142.389 205.184 142.631 206.618 140.811C208.052 138.992 207.044 136.333 206.291 134.385C205.596 132.585 204.515 131.009 203.385 129.456C202.377 128.071 201.185 126.812 200.339 125.314C199.54 123.898 198.885 122.396 197.926 121.084C197.92 121.076 197.913 121.07 197.906 121.064C200.03 115.825 202.679 110.814 205.812 106.107C205.825 106.624 205.843 107.142 205.87 107.659C205.943 109.057 206.065 110.457 206.236 111.847C206.54 114.283 207.028 116.692 207.697 119.054C209.018 123.801 211.032 128.329 213.675 132.49C215.274 134.983 217.514 137.498 220.802 136.368C221.481 136.15 222.096 135.766 222.588 135.251C223.081 134.735 223.436 134.104 223.621 133.416C224.065 131.701 223.222 130.272 222.438 128.822C219.92 124.198 217.723 119.405 215.864 114.48C214.84 111.762 213.992 108.982 213.325 106.156C212.989 104.718 212.674 103.293 212.417 101.837C212.212 100.685 211.85 99.5588 211.6 98.4197C212.31 97.5835 213.039 96.7621 213.786 95.9554C216.835 92.6487 220.157 89.6048 223.719 86.8562C223.752 87.8224 223.81 88.8086 223.81 89.7814C223.773 92.3207 223.869 94.8601 224.099 97.3893C224.523 101.391 225.95 105.407 228.645 108.456C230.016 109.986 231.727 111.173 233.64 111.922C235.015 112.467 236.464 112.587 237.743 111.734C239.164 110.797 239.592 109.152 239.342 107.543C238.995 105.327 238.169 103.08 237.423 100.968C236.644 98.7699 235.832 96.5848 235.061 94.382C234.188 91.9928 233.441 89.5591 232.826 87.0911C232.533 85.839 232.331 84.567 232.104 83.3016C231.987 82.6523 231.882 81.9941 231.816 81.3381C231.816 81.3049 231.816 81.2717 231.802 81.2406C231.962 81.1032 232.12 80.9681 232.282 80.8417C233.732 79.7095 235.245 78.6611 236.815 77.7016C239.106 76.2899 241.477 75.0422 243.897 73.8633C243.822 74.2799 243.775 74.7054 243.722 75.1065C243.561 76.3089 243.528 77.5249 243.622 78.7342C243.804 81.1875 244.37 83.5454 244.954 85.9232C246.035 90.3044 247.19 94.7233 249.105 98.8275C250.173 101.108 251.408 103.989 254.334 103.998C257.633 103.998 258.716 100.755 258.794 98.0319C258.927 93.2208 257.333 88.7532 255.464 84.3941C254.478 82.1646 253.687 79.8542 253.099 77.4888C252.811 76.2988 252.642 75.0888 252.409 73.8877C252.165 72.6467 251.845 71.45 251.763 70.1957C253.761 69.2849 255.781 68.3763 257.779 67.4433C259.777 66.5103 261.713 65.5574 263.665 64.5845C265.414 63.7114 267.537 62.938 269.006 61.6238C269.102 61.7807 269.211 61.929 269.333 62.0671C269.415 62.2887 269.497 62.4948 269.583 62.7075C270.453 64.8643 271.644 66.8772 273.118 68.6777C274.588 70.4505 276.561 72.5536 278.906 73.0057C279.113 73.0411 279.324 73.0411 279.532 73.0057C287.911 80.2955 298.66 84.2958 309.776 84.2612C309.394 85.7504 309.656 87.5011 309.554 88.9969C309.502 89.956 309.4 90.9117 309.247 91.8601C309.176 92.2657 309.076 92.6402 309.001 93.0058C308.37 92.8995 307.74 92.8064 307.109 92.7333C306.41 92.6513 306.081 93.6995 306.685 94.0452C307.54 94.5349 308.417 94.9804 309.312 95.397C309.506 95.6477 309.76 95.8462 310.05 95.9747C310.34 96.1031 310.658 96.1574 310.975 96.1327C313.55 97.212 316.221 98.0984 318.829 99.038L319.255 99.1909C317.546 101.502 316.489 104.288 315.637 107.016C315.182 108.451 314.811 109.91 314.527 111.388C314.165 113.314 314.069 115.506 316.354 116.277C320.059 117.529 321.904 112.935 322.899 110.294C323.433 108.864 323.871 107.4 324.208 105.912C324.544 104.434 324.992 102.777 325.03 101.223C326.959 101.901 328.882 102.588 330.802 103.324L331.965 103.778C329.918 105.626 328.635 108.31 327.92 110.938C327.237 113.458 326.297 117.511 328.289 119.665C329.621 121.11 331.841 121.039 333.244 119.754C334.343 118.75 335.171 117.316 335.862 116.007C336.588 114.662 337.202 113.259 337.698 111.814C338.197 110.327 338.783 108.514 338.679 106.938C338.679 106.83 338.659 106.717 338.643 106.617C339.888 107.192 341.122 107.792 342.344 108.419C345.87 110.24 349.588 112.219 352.441 115.02C355.605 118.123 357.345 122.081 359.841 125.658C360.78 127.005 362.505 126.495 362.782 125.241C363.932 123.96 365.095 122.644 366.492 121.638C368.235 120.375 370.256 119.549 372.386 119.231C376.504 118.637 380.978 120.261 383.36 123.743C385.556 126.954 385.516 130.783 382.601 133.516C379.455 136.465 374.913 138.17 370.808 139.278C368.31 139.932 365.769 140.412 363.204 140.711C361.872 140.875 360.54 141 359.208 141.084C358.797 141.11 358.382 141.126 357.967 141.141C357.81 141.089 357.647 141.054 357.483 141.035C356.117 140.873 354.706 141.11 353.331 141.181C351.957 141.252 350.552 141.292 349.16 141.297C346.518 141.305 343.879 141.193 341.243 140.96C335.887 140.486 330.588 139.514 325.414 138.054C320.13 136.565 315.062 134.509 310.062 132.246C307.724 131.191 305.367 130.13 303.033 129.015C302.729 128.228 301.746 127.787 300.88 127.962C299.39 127.222 297.918 126.455 296.477 125.644C292.819 123.59 288.84 120.663 288.241 116.206C288.106 115.2 286.598 115.413 286.52 116.354C286.375 118.074 286.699 119.8 287.459 121.35C287.411 121.327 287.36 121.307 287.313 121.281C286.234 120.695 285.265 119.926 284.449 119.009C283.982 118.539 283.568 118.019 283.215 117.458C282.926 116.962 282.788 116.405 282.467 115.927C282.438 115.876 282.399 115.833 282.352 115.799C282.305 115.766 282.251 115.743 282.194 115.733C282.137 115.723 282.079 115.725 282.023 115.741C281.967 115.756 281.916 115.783 281.872 115.82C279.909 117.254 281.849 120.507 283.028 121.764C284.582 123.428 287.246 125.434 289.702 124.802L289.839 124.76C290.549 125.507 291.313 126.199 292.126 126.832C294.227 128.442 296.465 129.863 298.815 131.08C296.908 135.814 294.659 140.443 291.882 144.723C291.389 145.485 290.876 146.232 290.354 146.97C289 148.853 287.563 150.673 286.043 152.428C285.155 153.462 284.229 154.472 283.266 155.457L283.255 155.471C284.023 148.614 283.108 141.691 279.232 135.701C276.346 131.227 272.114 127.736 266.926 126.278C261.318 124.702 255.346 125.378 249.962 127.455C247.465 128.441 245.072 129.672 242.818 131.131C242.678 131.03 242.52 130.954 242.352 130.91C240.125 130.314 237.769 130.397 235.59 131.149C234.564 131.503 233.572 131.948 232.626 132.479C231.847 132.922 230.748 133.452 230.526 134.402C230.503 134.477 230.511 134.557 230.546 134.627C230.581 134.697 230.641 134.75 230.714 134.777C231.518 135.087 232.362 134.67 233.134 134.427C234 134.152 234.873 133.884 235.763 133.695C237.026 133.399 238.322 133.269 239.619 133.308C237.399 134.894 235.228 136.61 233.427 138.651C233.17 138.943 233.447 139.451 233.84 139.242C236.24 137.975 238.416 136.337 240.722 134.91C243.029 133.463 245.444 132.196 247.947 131.12C252.704 129.113 258.05 128.055 263.205 128.838C262.761 129.299 262.35 129.791 261.958 130.245C260.999 131.377 260.117 132.571 259.316 133.819C257.714 136.263 256.363 138.861 255.284 141.576C254.383 143.832 257.151 146.008 259.191 144.882C261.763 143.494 264.074 141.671 266.022 139.495C267.018 138.38 267.91 137.177 268.687 135.9C269.45 134.635 270.329 133.195 270.58 131.714C272.664 133.161 274.448 134.997 275.835 137.119C273.875 138.088 272.179 139.685 270.82 141.312C269.022 143.531 267.802 146.159 267.268 148.962C266.984 150.418 267.49 151.79 268.98 152.335C271.97 153.425 274.918 151.801 277.036 149.744C277.953 148.862 278.792 147.902 279.545 146.877C279.675 147.73 279.761 148.59 279.802 149.452C280.111 155.989 278.362 162.365 275.911 168.373C275.533 169.301 276.19 170.513 277.132 170.782L289.937 174.411C293.416 175.4 297.112 176.16 300.385 177.736C302.523 178.773 305.031 180.472 305.173 183.092C305.331 185.986 302.474 188.145 299.923 188.77C296.402 189.636 292.803 188.222 289.524 186.706C289.354 186.236 289.01 185.849 288.563 185.625C281.625 181.84 273.688 181.288 265.982 180.357C262.43 179.93 258.776 179.393 255.428 178.084C254.032 177.538 252.764 176.67 252.118 175.28C251.23 173.374 251.29 170.702 251.732 168.701C251.954 167.69 250.44 167.149 250.178 168.193C249.41 171.156 248.317 174.841 249.894 177.74C250.014 177.96 250.147 178.173 250.291 178.378C234.444 175.719 218.584 173.06 203.572 167.198C200.801 166.117 198.066 164.931 195.404 163.606C192.64 162.227 189.949 160.696 187.117 159.457C185.817 158.89 184.475 158.424 183.103 158.063C179.837 150.256 171.905 145.325 163.91 143.225V143.231ZM316.651 110.994C316.601 111.063 316.558 111.137 316.525 111.215C316.349 111.696 316.052 111.116 316.64 110.987L316.651 110.994ZM157.297 171.134C159.048 166.462 164.343 163.639 168.841 162.27C174.287 160.619 179.859 160.794 185.125 162.965C187.907 164.113 190.511 165.64 193.2 166.983C195.821 168.291 198.491 169.495 201.21 170.598C223.171 179.462 247.076 181.222 270.054 186.11C272.927 186.722 275.8 187.365 278.639 188.105C280.688 188.645 282.749 189.321 284.578 190.414C286.09 191.318 287.579 192.537 288.079 194.296C288.789 196.794 287.255 199.32 285.637 201.118C282.438 204.681 277.958 206.722 273.406 207.956C268.1 209.397 262.528 210.008 257.058 210.27C245.245 210.839 233.421 209.398 222.092 206.008C210.452 202.516 199.891 196.785 189.679 190.321C187.077 188.674 184.455 187.063 181.842 185.432C179.337 183.868 176.855 182.219 174.262 180.805C171.887 179.511 169.005 178.265 166.232 178.782C164.998 179.038 163.859 179.629 162.94 180.49C162.629 180.187 162.214 180.013 161.779 180.005C157.565 179.803 156.024 174.522 157.297 171.134ZM158.586 204.422C158.669 202.352 158.868 200.016 161.064 199.411C161.761 205.226 162.48 211.037 163.189 216.852C163.562 219.923 164.077 222.95 164.669 225.984C163.178 226.225 161.692 226.521 160.214 226.871C160.214 226.071 159.958 225.24 159.823 224.433C159.6 223.103 159.403 221.765 159.235 220.417C158.9 217.727 158.685 215.026 158.589 212.315C158.493 209.694 158.482 207.054 158.586 204.422ZM155.654 215.473C155.738 216.79 155.846 218.105 155.978 219.418C156.133 220.978 156.326 222.534 156.557 224.085C156.724 225.193 156.748 226.6 157.274 227.651C155.865 228.06 154.471 228.521 153.092 229.034C152.841 226.527 152.53 224.005 152.517 221.499C152.503 218.899 153.196 216.471 155.654 215.473ZM138.384 295.115C138.08 297.127 137.755 299.139 137.467 301.154C137.467 301.127 137.445 301.101 137.436 301.074C137.105 300.058 136.716 299.062 136.27 298.091C136.173 297.895 136.023 297.731 135.835 297.619C135.648 297.506 135.432 297.449 135.213 297.455C134.815 297.022 134.39 296.614 133.939 296.234C133.324 295.711 132.476 296.356 132.41 297.014C132.241 298.705 131.946 300.438 131.719 302.171C129.699 296.347 129.217 290.101 130.318 284.037C134.572 284.329 138.83 284.573 143.088 284.799C143.07 285.098 143.077 285.406 143.088 285.701C143.127 287.052 143.284 288.397 143.557 289.721C143.786 290.885 144.088 292.034 144.46 293.16C144.343 293.264 144.253 293.395 144.198 293.541C144.143 293.688 144.126 293.845 144.147 294C144.251 295.332 144.196 296.671 143.981 297.989C142.892 296.699 141.712 295.487 140.451 294.364C139.654 293.666 138.544 294.062 138.384 295.115ZM209.892 313.994C204.238 320.757 196.128 325.382 187.516 327.126C182.461 328.15 177.333 327.997 172.235 327.361C167.245 326.736 162.245 325.859 157.383 324.516C150.559 322.628 144.116 319.532 139.225 314.563C139.536 313.236 139.654 311.871 139.576 310.51C140.815 311.007 142.054 311.503 143.286 312.015C144.174 312.381 144.84 311.463 144.751 310.685C144.652 309.837 144.619 308.983 144.653 308.13C146.289 309.238 148.325 310.271 149.144 308.119C149.588 306.951 149.526 305.475 149.657 304.236C149.695 303.891 149.771 303.485 149.844 303.06C154.02 307.99 159.814 311.663 165.879 313.794C172.153 316.01 179.031 316.564 185.531 315.044C191.653 313.573 197.213 310.356 201.534 305.783C206.118 300.934 209.175 294.763 209.857 288.123L217.392 288.476C218.027 288.504 218.659 288.527 219.294 288.544C219.163 297.85 215.845 306.831 209.892 313.994ZM170.275 291.301C172.582 292.081 175.008 292.491 177.302 293.296C178.298 293.652 179.251 293.019 179.633 292.119C180.199 290.806 180.695 289.464 181.12 288.099C181.263 287.643 181.36 287.175 181.411 286.701L204.768 287.875L205.841 287.926C204.622 298.2 196.643 307.301 186.852 310.479C175.639 314.12 162.791 310.559 154.206 302.723C151.675 300.414 149.451 297.761 147.861 294.718C147.655 294.173 147.364 293.637 147.182 293.134L147.118 292.954C147.018 292.575 146.924 292.196 146.842 291.813C146.547 290.437 146.34 289.043 146.223 287.64C146.147 286.754 146.132 285.838 146.001 284.948C150.61 285.183 155.219 285.391 159.821 285.63L169.88 286.133C169.478 287.283 169.372 288.549 169.214 289.741C169.105 290.419 169.667 291.093 170.275 291.301ZM172.566 288.586L172.227 288.516C172.191 288.043 172.144 287.569 172.067 287.104C172.211 287.252 172.358 287.394 172.511 287.547C172.451 287.893 172.47 288.248 172.566 288.586ZM230.899 285.927C230.74 285.854 230.569 285.808 230.395 285.792C215.389 284.241 200.306 283.82 185.243 283.133L178.754 282.838C178.316 282.742 177.87 282.686 177.422 282.672C175.792 282.605 174.162 282.55 172.537 282.49C172.384 282.485 172.23 282.5 172.08 282.534C161.481 282.059 150.882 281.6 140.282 281.158C132.374 280.835 124.464 280.549 116.547 280.564C116.56 280.541 116.571 280.517 116.58 280.493C117.124 278.96 117.655 277.413 118.186 275.864C119.922 276.852 121.935 276.846 123.898 276.919L129.841 277.14C133.686 277.282 137.489 277.063 141.321 276.826C145.153 276.589 148.976 276.784 152.783 276.885C156.75 276.992 160.715 277.001 164.683 277.016C164.706 277.008 164.726 276.993 164.74 276.973C164.754 276.953 164.761 276.93 164.761 276.905C164.761 276.881 164.754 276.857 164.74 276.838C164.726 276.818 164.706 276.803 164.683 276.795C160.733 276.433 156.784 276.063 152.825 275.789C149.027 275.525 145.175 275.345 141.41 274.754C137.644 274.162 133.861 273.57 130.012 273.344L124.297 273.007C122.552 272.903 120.759 272.717 119.089 273.207C119.444 272.173 119.803 271.138 120.166 270.104C121.498 270.341 122.976 270.248 124.284 270.259C125.976 270.275 127.672 270.33 129.361 270.246C130.989 270.164 132.616 270.098 134.246 269.929C135.049 269.845 135.828 269.621 136.628 269.501C137.602 269.355 138.597 269.311 139.58 269.231C139.616 269.229 139.649 269.213 139.674 269.188C139.698 269.163 139.713 269.129 139.715 269.094C139.716 269.059 139.705 269.024 139.683 268.997C139.66 268.969 139.629 268.951 139.594 268.945C137.862 268.635 136.204 268.147 134.488 267.769C132.854 267.405 131.177 267.203 129.523 266.96C127.921 266.725 126.3 266.621 124.688 266.481C123.711 266.395 122.648 266.239 121.602 266.199C124.295 259.15 127.561 252.38 132.718 246.66C140.266 238.292 150.528 232.699 161.488 230.244C184.184 225.147 210.312 233.701 223.901 252.958C230.59 262.419 234.122 274.548 230.899 285.918V285.927ZM276.854 287.427C269.464 287.117 262.073 286.794 254.678 286.541C248.131 286.319 241.606 286.206 235.061 286.193C235.581 284.171 235.92 282.107 236.076 280.026C238.596 280.436 241.149 280.562 243.708 280.737C246.95 280.959 250.2 281.087 253.446 281.258C260.084 281.61 266.724 281.923 273.364 282.242L312.762 284.117C333.297 285.089 353.833 285.907 374.375 286.776C374.24 287.053 374.102 287.328 373.969 287.607C373.492 288.604 373.03 289.601 372.57 290.612C372.38 291.033 372.155 291.456 371.962 291.891L356.222 291.139C329.767 289.87 303.315 288.527 276.854 287.419V287.427Z" fill="black"/>
<path d="M402.219 200.399C401.136 199.839 399.922 199.715 398.721 199.65C397.044 199.564 395.368 199.486 393.692 199.407C392.864 199.364 391.901 200.085 391.952 200.984C391.952 201.035 391.952 201.084 391.965 201.135C391.186 203.225 391.505 205.423 393.839 206.562C395.171 207.209 396.663 207.353 398.115 207.469C399.566 207.584 401.083 207.555 402.333 206.753C404.761 205.215 404.85 201.756 402.219 200.399Z" fill="black"/>
<path d="M327.538 169.574C334.421 169.831 341.27 170.398 348.15 170.58C355.03 170.762 361.881 170.819 368.759 170.445C370.626 170.343 370.63 167.648 368.759 167.546C361.876 167.169 355.034 167.234 348.15 167.413C341.265 167.593 334.412 168.158 327.538 168.419C327.391 168.428 327.253 168.493 327.152 168.6C327.051 168.708 326.995 168.849 326.995 168.997C326.995 169.144 327.051 169.285 327.152 169.393C327.253 169.5 327.391 169.565 327.538 169.574Z" fill="black"/>
<path d="M351.094 246.246C348.152 246.104 345.204 246.279 342.26 246.363C339.316 246.448 336.372 246.483 333.428 246.534C332.716 246.547 332.714 247.629 333.428 247.642C336.372 247.691 339.316 247.726 342.26 247.811C345.204 247.895 348.152 248.072 351.094 247.93C351.317 247.93 351.532 247.841 351.69 247.684C351.848 247.526 351.937 247.311 351.937 247.088C351.937 246.865 351.848 246.651 351.69 246.493C351.532 246.335 351.317 246.246 351.094 246.246Z" fill="black"/>
<path d="M343.354 39.2593C343.559 42.9002 343.209 46.5512 342.315 50.0871C341.392 53.6328 339.893 56.8749 338.162 60.086C337.598 61.1343 339.114 62.1537 339.731 61.1054C343.505 54.7098 344.871 46.6411 344.289 39.3036C344.242 38.7186 343.323 38.6499 343.354 39.2593Z" fill="black"/>
<path d="M334.216 47.8729C333.891 51.2469 332.88 54.5193 331.246 57.4907C330.909 58.1201 331.837 58.7317 332.185 58.1001C333.893 54.9606 334.863 51.4749 335.025 47.9062C335.049 47.392 334.263 47.361 334.216 47.8729Z" fill="black"/>
<path d="M292.599 51.1021C291.711 50.5436 290.561 49.943 289.491 49.8433C288.738 49.7724 288.041 50.7298 288.492 51.3946C289.087 52.281 290.081 52.9946 291.007 53.5198C291.331 53.7183 291.719 53.785 292.091 53.7063C292.463 53.6275 292.79 53.4092 293.005 53.0965C293.21 52.7763 293.282 52.3894 293.206 52.0174C293.13 51.6453 292.912 51.3171 292.599 51.1021Z" fill="black"/>
<path d="M283.248 52.2632C285.402 52.0926 287.688 50.9203 288.798 49.0122C289.584 47.6604 289.742 46.0227 289.072 44.6775C288.93 43.1085 288.567 41.5673 287.995 40.0991C287.968 40.0282 287.868 40.0747 287.875 40.1434V40.1789C287.431 40.385 286.967 40.5977 286.543 40.8437C286.004 41.1795 285.515 41.5882 285.089 42.0581C284.279 41.7861 283.422 41.6851 282.571 41.7614C281.72 41.8377 280.895 42.0896 280.147 42.5013C279.618 42.293 279.079 42.1113 278.564 41.8675C278.178 41.6773 277.807 41.4588 277.454 41.2138H277.429C277.496 41.8609 277.605 42.5567 277.629 43.2371C277.616 43.3745 277.589 43.5074 277.589 43.6515C277.578 43.727 277.59 43.8041 277.623 43.8731C277.623 43.9595 277.607 44.0437 277.596 44.128C277.094 44.8272 276.82 45.6635 276.81 46.5235C276.617 47.574 276.972 48.6953 277.618 49.6416C278.881 51.5297 281.026 52.4405 283.248 52.2632Z" fill="black"/>
<path d="M256.607 206.855C262.317 208.329 268.212 207.059 273.602 205.016C278.297 203.243 284.036 200.313 283.79 194.425C283.705 192.43 280.582 192.271 280.682 194.274C280.904 199.163 275.389 201.144 271.668 202.629C266.879 204.532 262.069 206.859 256.794 205.953C256.256 205.855 256.099 206.724 256.607 206.855Z" fill="black"/>
<path d="M278.211 51.1726C277.214 50.592 275.829 51.7643 275.103 52.3737C274.975 52.4925 274.874 52.6369 274.807 52.7973C274.739 52.9577 274.706 53.1305 274.711 53.3045C274.715 53.4785 274.755 53.6496 274.83 53.8067C274.905 53.9638 275.013 54.1033 275.146 54.2161C275.278 54.3288 275.434 54.4123 275.601 54.4609C275.768 54.5096 275.944 54.5224 276.117 54.4985C276.289 54.4745 276.455 54.4144 276.603 54.3221C276.751 54.2297 276.877 54.1073 276.974 53.9627C277.048 53.8607 277.123 53.7632 277.196 53.6657C277.233 53.6078 277.277 53.5549 277.327 53.5084C277.512 53.3045 277.709 53.1206 277.904 52.9278C278.32 52.5266 278.977 51.6225 278.211 51.1726Z" fill="black"/>
<path d="M214.142 56.6639C217.022 56.6846 219.901 56.7031 222.78 56.7193C225.73 56.7326 228.696 56.8434 231.64 56.6396C231.907 56.6396 232.163 56.5338 232.351 56.3455C232.54 56.1573 232.646 55.9019 232.646 55.6357C232.646 55.3694 232.54 55.1141 232.351 54.9258C232.163 54.7375 231.907 54.6318 231.64 54.6318C226.507 54.275 221.281 54.5564 216.135 54.5897L200.63 54.696C190.367 54.7647 180.106 54.7958 169.842 54.8445C149.317 54.9435 128.791 55.0093 108.266 55.0418C96.67 55.0802 85.0782 55.1924 73.4909 55.3786C73.4226 55.3786 73.3571 55.4057 73.3088 55.4539C73.2605 55.5021 73.2334 55.5675 73.2334 55.6357C73.2334 55.7038 73.2605 55.7692 73.3088 55.8174C73.3571 55.8657 73.4226 55.8927 73.4909 55.8927C94.0888 56.1963 114.687 56.2606 135.289 56.2983C155.813 56.336 176.34 56.4578 196.865 56.5553C202.624 56.5819 208.383 56.6181 214.142 56.6639Z" fill="black"/>
<path d="M216.202 274.519C215.165 275.498 215.489 277.145 215.001 278.372C214.992 278.402 214.995 278.434 215.008 278.462C215.02 278.49 215.043 278.512 215.071 278.526C215.098 278.539 215.13 278.542 215.16 278.534C215.19 278.526 215.216 278.508 215.234 278.483C215.426 278.167 215.583 277.831 215.702 277.481C215.71 277.491 215.719 277.498 215.729 277.504C216.815 277.889 218.022 277.898 219.163 277.971C220.435 278.053 221.75 278.308 223.02 278.261C223.142 278.256 223.261 278.223 223.368 278.164C223.335 278.756 223.322 279.347 223.608 279.881C223.786 280.218 224.352 280.3 224.549 279.926C224.973 279.126 224.851 278.248 224.867 277.357C224.88 276.619 224.96 275.839 224.514 275.203C223.695 274.04 221.85 274.175 220.613 274.069C219.237 273.951 217.332 273.453 216.202 274.519ZM223.231 276.371C223.269 276.468 223.3 276.567 223.324 276.668C222.01 276.376 220.584 276.466 219.243 276.537C218.082 276.599 216.841 276.715 215.798 277.255C215.927 276.852 216.106 276.467 216.331 276.107C217.11 274.951 218.73 275.423 219.898 275.569C220.549 275.649 221.197 275.728 221.847 275.813C222.38 275.877 223.011 275.839 223.231 276.371Z" fill="black"/>
<path d="M211.122 274.49C210.906 275.655 210.793 276.837 210.782 278.023C210.782 278.721 211.893 278.78 211.873 278.078C211.833 276.863 211.684 275.654 211.429 274.466C211.395 274.28 211.14 274.328 211.122 274.49Z" fill="black"/>
<path d="M203.452 273.47C203.335 273.499 203.23 273.564 203.153 273.656C203.076 273.748 203.029 273.862 203.021 273.982C203.035 275.42 203.152 276.856 203.37 278.277C203.372 278.29 203.379 278.301 203.39 278.308C203.372 278.509 203.433 278.71 203.561 278.867C204.384 279.808 206.183 279.456 207.222 279.053C208.383 278.609 209.22 277.723 208.878 276.416C208.323 274.288 205.532 272.77 203.452 273.47ZM203.761 277.752C203.658 277.791 203.57 277.861 203.507 277.951C203.625 276.819 203.789 275.689 204.018 274.574C205.25 274.66 206.447 275.064 207.126 276.214C208.223 278.124 204.591 277.424 203.761 277.752Z" fill="black"/>
<path d="M170.797 165.547C176.347 164.149 182.432 166.824 187.243 169.383C189.632 170.658 191.95 172.056 194.336 173.328C195.557 173.982 196.798 174.604 198.066 175.163C199.334 175.721 200.808 176.448 202.213 176.1C203.161 175.865 203.607 174.658 202.903 173.917C201.92 172.88 200.37 172.588 199.069 172.111C197.715 171.604 196.388 171.028 195.073 170.418C192.445 169.197 189.876 167.848 187.214 166.695C184.586 165.524 181.802 164.737 178.949 164.359C176.063 164.003 173.479 164.359 170.735 165.246C170.541 165.292 170.599 165.589 170.797 165.547Z" fill="black"/>
<path d="M198.486 274.187C198.119 275.159 198.737 278.087 196.736 277.69C195.3 277.409 194.581 275.43 194.707 274.162C194.734 273.905 194.363 273.859 194.276 274.085C193.537 276.019 194.478 278.701 196.765 279.015C197.815 279.159 198.763 278.572 199.309 277.686C199.884 276.757 200.117 275.069 199.585 274.093C199.528 273.992 199.443 273.91 199.34 273.855C199.237 273.801 199.121 273.778 199.005 273.787C198.889 273.797 198.779 273.84 198.687 273.911C198.595 273.982 198.525 274.077 198.486 274.187Z" fill="black"/>
<path d="M191.699 97.1945C190.367 97.2122 189.035 97.2366 187.703 97.2831C184.891 97.385 182.083 97.484 179.28 97.5801C173.739 97.7751 168.196 97.8992 162.654 97.9524C162.001 97.9524 161.988 98.9585 162.654 98.9651C168.198 99.0227 173.74 99.1476 179.28 99.3396L187.481 99.6277C188.813 99.6765 190.145 99.7031 191.477 99.7208C192.918 99.7407 194.345 99.8538 195.748 99.4726C196.75 99.2022 196.752 97.7175 195.748 97.4449C194.412 97.0837 193.071 97.1767 191.699 97.1945Z" fill="black"/>
<path d="M191.159 273.513C188.81 273.36 186.466 273.213 184.159 273.734C183.842 273.805 183.773 274.335 184.126 274.399C185.436 274.66 186.762 274.834 188.096 274.92C187.732 276.041 187.569 277.533 188.22 278.497C188.424 278.798 188.977 278.769 188.979 278.33C188.979 277.747 188.757 277.198 188.699 276.617C188.642 276.068 188.628 275.515 188.66 274.964C189.465 275.024 190.274 275.079 191.079 275.159C192.141 275.277 192.229 273.586 191.159 273.513Z" fill="black"/>
<path d="M177.24 275.545C177.038 275.532 176.838 275.497 176.645 275.439L176.325 275.427C176.189 275.124 176.056 274.814 175.923 274.51C176.195 274.485 176.469 274.48 176.742 274.495C177.266 274.477 177.781 274.43 178.296 274.368C179.457 274.233 180.579 274.027 181.724 273.796C181.759 273.787 181.79 273.765 181.811 273.735C181.832 273.704 181.842 273.668 181.839 273.631C181.835 273.595 181.82 273.561 181.794 273.535C181.768 273.508 181.734 273.492 181.697 273.488C180.599 273.446 179.524 273.418 178.423 273.464C177.535 273.504 176.443 273.464 175.601 273.781C174.76 274.098 174.491 275.015 175.237 275.638C175.71 276.037 176.469 276.041 177.049 276.11L177.166 276.123L178.807 276.312C179.233 276.358 180.092 276.274 180.463 276.474C182.288 277.449 180.019 277.44 179.677 277.462C179.14 277.5 178.6 277.515 178.061 277.526C176.975 277.548 175.901 277.513 174.817 277.562C174.753 277.561 174.691 277.584 174.641 277.625C174.591 277.666 174.558 277.724 174.546 277.787C174.535 277.85 174.546 277.915 174.577 277.972C174.609 278.028 174.659 278.071 174.72 278.093C176.671 278.71 178.758 278.661 180.772 278.368C181.882 278.209 182.992 277.278 181.991 276.152C180.894 274.916 178.785 275.669 177.24 275.545Z" fill="black"/>
<path d="M107.98 224.214C100.911 223.631 93.8003 223.83 86.7116 223.87C79.7695 223.908 72.8273 223.99 65.8851 224.05C51.8513 224.174 37.8197 224.316 23.7903 224.477L12.2681 224.606C8.27199 224.65 4.29362 224.896 0.30415 224.954C0.223484 224.954 0.146123 224.986 0.0890835 225.043C0.0320443 225.1 0 225.177 0 225.257C0 225.338 0.0320443 225.415 0.0890835 225.472C0.146123 225.529 0.223484 225.561 0.30415 225.561C7.39285 225.665 14.4815 225.933 21.5747 226.004L42.399 226.226C56.4328 226.381 70.4651 226.509 84.496 226.609C92.3151 226.678 100.183 226.924 107.98 226.283C108.232 226.25 108.463 226.127 108.63 225.937C108.797 225.746 108.89 225.502 108.89 225.248C108.89 224.995 108.797 224.75 108.63 224.56C108.463 224.37 108.232 224.246 107.98 224.214Z" fill="black"/>
<path d="M103.982 169.093C100.116 168.514 96.229 168.729 92.3283 168.765C88.3662 168.8 84.4034 168.849 80.4398 168.911C72.5171 169.038 64.5922 169.146 56.6651 169.235C55.8836 169.235 55.8814 170.445 56.6651 170.453C64.5907 170.535 72.5156 170.643 80.4398 170.779C84.4034 170.843 88.3662 170.891 92.3283 170.925C96.229 170.961 100.116 171.174 103.982 170.597C104.727 170.473 104.727 169.195 103.982 169.093Z" fill="black"/>
<path d="M35.7541 303.609C38.0319 303.7 40.3186 303.7 42.5986 303.746C47.2371 303.834 51.8741 303.92 56.5096 304.006C65.6363 304.176 74.7653 304.25 83.892 304.287C89.1314 304.309 94.3397 304.254 99.5702 303.933C101.397 303.82 101.399 301.211 99.5702 301.096C90.3835 300.529 81.168 300.719 71.968 300.83C62.839 300.941 53.7116 301.079 44.5856 301.245L36.8642 301.393C34.2001 301.442 31.5693 301.799 28.9141 302.058C28.794 302.058 28.6788 302.105 28.5938 302.19C28.5089 302.275 28.4612 302.39 28.4612 302.51C28.4612 302.63 28.5089 302.745 28.5938 302.83C28.6788 302.914 28.794 302.962 28.9141 302.962C31.1897 303.188 33.4541 303.509 35.7541 303.609Z" fill="black"/>
</svg>
