<svg width="353" height="278" viewBox="0 0 353 278" fill="none" xmlns="http://www.w3.org/2000/svg">
<path d="M342.648 141.26C344.192 141.129 345.292 140.153 345.388 138.595C346.836 114.979 347.723 91.3253 348.032 67.653C348.109 61.6082 348.148 55.5634 348.148 49.5187C348.148 46.7591 348.148 43.9807 348.128 41.2024C348.109 38.4616 348.399 35.5143 347.897 32.811C346.739 26.6536 339.619 27.5547 334.737 27.5735C328.91 27.5922 323.082 27.8738 317.274 28.4558C314.013 28.7749 310.733 29.1691 307.491 29.676C305.099 30.0515 302.629 30.6897 300.873 32.4168C300.429 32.8486 300.082 33.3179 299.812 33.806C298.847 34.1251 298.056 34.9323 297.979 36.1901C296.512 62.5656 295.47 88.9787 294.891 115.392C294.737 122.845 294.602 130.297 294.525 137.769C294.505 139.346 295.798 140.247 297.265 140.434C312.315 142.331 327.52 142.612 342.648 141.26ZM342.648 59.0739C342.552 73.5101 342.224 87.965 341.703 102.382C341.664 103.227 341.626 104.072 341.606 104.917C341.568 103.396 341.51 101.876 341.414 100.355L342.648 59.0739ZM335.451 76.3635C335.355 75.4437 335.277 74.505 335.181 73.5852C335.393 73.4162 335.567 73.1909 335.702 72.9281C335.605 74.0732 335.528 75.2184 335.451 76.3635ZM332.209 32.9424C333.058 32.9237 333.907 32.9237 334.737 32.9237C335.297 32.9237 335.876 32.9424 336.435 32.9424C336.242 33.2053 336.088 33.5432 336.03 33.9562C335.798 35.5706 335.548 37.1851 335.316 38.7995C335.258 37.8233 335.2 36.8471 335.142 35.8897C335.027 34.0312 333.579 33.2053 332.19 33.3367C332.19 33.2053 332.209 33.0738 332.209 32.9424ZM331.823 114.472C331.823 114.922 331.843 115.373 331.843 115.824C331.823 116.161 331.804 116.499 331.766 116.819C331.727 116.8 331.708 116.8 331.669 116.8C331.746 116.03 331.785 115.26 331.823 114.472ZM326.633 33.1114C326.614 33.2991 326.594 33.4681 326.556 33.6558C326.151 33.3742 325.668 33.224 325.166 33.1865C325.649 33.1677 326.15 33.1489 326.633 33.1114ZM324.356 33.2428C323.951 33.3179 323.565 33.4681 323.218 33.7121C323.218 33.5807 323.198 33.4493 323.179 33.3179C323.565 33.2803 323.97 33.2616 324.356 33.2428ZM323.16 80.7563C323.218 81.8639 323.275 82.9527 323.333 84.0603C323.218 84.0978 323.082 84.1542 322.967 84.2292C323.044 83.0653 323.102 81.9202 323.16 80.7563ZM307.762 35.6081C307.762 35.6269 307.762 35.6269 307.762 35.6269C307.723 35.6082 307.684 35.5894 307.646 35.5706C307.665 35.3453 307.646 35.1388 307.626 34.9511C307.781 34.9323 307.916 34.8948 308.07 34.876C307.916 35.1013 307.819 35.3453 307.762 35.6081ZM315.364 136.605C315.403 136.455 315.422 136.304 315.422 136.154C315.75 136.229 316.097 136.267 316.425 136.248C317.139 136.492 317.95 136.455 318.644 136.136C318.857 136.361 319.088 136.567 319.339 136.717C318.027 136.699 316.696 136.661 315.364 136.605ZM322.793 136.398C322.832 136.53 322.87 136.661 322.928 136.774C322.754 136.774 322.561 136.774 322.388 136.774C322.523 136.661 322.658 136.549 322.793 136.398Z" fill="#48AE4C"/>
<path d="M73.6071 108.239C71.4459 108.296 69.362 109.366 67.4324 110.248C66.101 110.868 64.4608 111.374 63.2259 112.276C62.5699 110.436 61.2963 108.859 59.2896 108.089C54.292 106.174 50.51 110.792 48.426 114.566C47.5577 114.622 46.7473 114.772 45.9369 115.035C45.8211 113.083 45.2229 111.13 43.6985 109.798C43.0039 109.197 42.1742 108.765 41.248 108.577C40.5147 108.427 39.2219 108.896 38.643 108.69C38.2571 108.559 37.9484 108.634 37.7168 108.821C35.247 109.122 33.0665 110.811 32.1596 113.233C30.1143 111.224 26.641 109.91 23.8817 109.854C20.6014 109.779 19.8103 112.369 20.1962 115.073C20.3892 116.406 22.4924 115.842 22.2802 114.509C22.0293 112.764 22.7626 111.75 24.7886 112.107C25.6377 112.257 26.4674 112.501 27.2778 112.764C28.8022 113.252 30.2687 113.965 31.8123 114.434C31.793 114.491 31.7737 114.547 31.7737 114.603C31.0984 118.771 34.1471 123.314 38.5466 123.915C43.3512 124.572 45.8211 120.31 45.9562 116.218C46.8052 116.068 47.6735 116.03 48.5418 116.105C47.5191 124.44 61.5279 127.35 63.5732 118.208C63.882 116.819 63.9399 115.26 63.6697 113.796C68.2235 113.045 74.7069 106.907 76.2892 113.627C76.5014 114.491 77.8521 114.472 78.0644 113.627C78.7397 110.868 76.5207 108.164 73.6071 108.239ZM38.2571 121.737C35.3435 121.024 33.2981 117.607 33.877 114.791C34.3594 112.463 35.9609 111.374 37.8905 110.717C37.9484 110.736 37.987 110.774 38.0449 110.792C38.643 110.999 38.8746 110.811 39.4535 110.792C42.0584 110.717 43.3705 112.219 43.6792 114.641C44.0845 117.889 42.7916 122.826 38.2571 121.737ZM61.6244 115.917C61.5279 118.79 60.4473 121.493 57.167 121.925C53.5394 122.413 49.5066 119.634 50.4328 115.636C50.4521 115.58 50.4521 115.542 50.4521 115.486C51.5133 113.533 52.7483 111.374 54.8708 110.398C58.9229 108.54 61.7401 112.369 61.6244 115.917Z" fill="#48AE4C"/>
<path d="M170.433 74.9745C167.809 74.7305 165.127 74.8806 162.484 74.8994C161.442 74.8994 159.879 75.2185 158.875 74.9182C156.868 74.2987 157.37 76.0258 157.37 73.3413C157.389 67.7283 157.833 62.0965 157.544 56.4647C157.505 55.4509 156.097 55.5073 155.962 56.4647C155.441 60.5383 155.344 64.6495 155.113 68.742C154.997 70.807 153.916 74.524 155.093 76.4012C155.904 77.6965 157.486 77.5088 158.856 77.5464C162.657 77.659 166.651 77.8279 170.414 77.3962C172.016 77.1897 172.035 75.1247 170.433 74.9745Z" class="fill-black"/>
<path d="M169.218 69.8682C169.99 67.6343 170.665 65.3628 171.34 63.0913C173.752 63.2415 176.28 63.3729 178.711 63.1101C179.175 63.7671 179.638 64.4242 180.062 65.1188C180.738 66.2076 181.316 68.3476 182.802 68.6292C183.4 68.7419 184.249 68.479 184.346 67.7657C184.365 67.6906 184.365 67.6155 184.365 67.5592C184.462 66.8271 184.153 66.3014 183.478 66.1137C182.957 65.4003 182.127 63.6169 181.722 63.0162C181.606 62.8285 181.471 62.6595 181.336 62.4718C181.992 61.7585 181.297 60.3318 180.043 60.5195C180.004 60.5195 179.966 60.5382 179.927 60.5382C179.657 60.1816 179.387 59.8249 179.117 59.487C177.785 57.835 175.354 54.0429 172.884 54.0993C170.646 54.1368 170.511 56.765 170.028 58.4169C168.986 62.0401 167.906 65.6632 167.037 69.3426C166.729 70.6567 168.774 71.2011 169.218 69.8682ZM173 57.4783C173.135 56.1079 173.424 56.0891 173.868 57.4408C174.235 57.7974 174.601 58.1729 174.949 58.5296C175.701 59.318 176.396 60.1253 177.071 60.97C175.315 61.2704 173.579 61.552 171.784 61.6083C172.132 60.4256 172.305 58.492 173 57.4783Z" class="fill-black"/>
<path d="M202.928 74.9179C206.999 75.3309 212.325 75.0681 215.953 73.0595C216.917 72.5338 216.551 70.8818 215.374 70.9569C211.572 71.2197 207.906 72.0645 204.066 72.3086C203.449 67.3151 203.526 62.3028 203.488 57.2905C203.488 56.0327 201.635 56.089 201.519 57.2905C200.921 62.7345 201.288 68.1974 201.616 73.6414C201.674 74.3735 202.195 74.8429 202.928 74.9179Z" class="fill-black"/>
<path d="M219.02 72.1025C219.56 72.9848 220.718 72.4967 220.834 71.6144C221.104 69.5494 220.236 67.3342 219.83 65.288C219.367 62.9602 218.962 60.6136 218.441 58.3046C218.229 57.3847 216.724 57.5912 216.762 58.5298C216.859 60.8389 217.129 63.1104 217.476 65.4006C217.804 67.6346 217.843 70.1689 219.02 72.1025Z" class="fill-black"/>
<path d="M225.889 72.4213C225.909 73.3223 227.279 73.3036 227.317 72.4213C227.433 69.1736 227.298 66.1888 226.796 63.1476C228.07 64.7996 229.227 66.5079 230.269 68.2913C231.601 70.5815 232.662 72.7216 234.9 74.2985C235.556 74.7678 236.811 74.3173 236.926 73.4913C237.775 67.6155 237.968 61.4768 236.907 55.6198C236.637 54.118 234.071 54.4559 234.167 55.9765C234.476 60.7823 234.669 65.4566 234.418 70.2249C232.932 68.3664 231.929 65.9259 230.655 64.105C229.054 61.8147 227.24 59.6747 225.31 57.6472C224.5 56.8025 222.879 57.666 223.265 58.7924C224.751 63.1288 225.812 67.8783 225.889 72.4213Z" class="fill-black"/>
<path d="M245.224 70.7129C247.887 71.3136 252.518 69.5678 251.997 66.3952C251.9 65.757 251.032 65.5317 250.53 65.8133C248.948 66.6768 248.35 68.4978 246.169 68.3288C243.661 68.1411 242.04 65.4191 241.963 63.2039C241.828 58.9238 246.845 56.596 249.662 60.2003C250.202 60.8949 251.534 60.5382 251.225 59.5621C250.414 56.9152 247.269 55.7325 244.645 56.2957C241.345 56.9902 239.474 60.0689 239.532 63.2227C239.57 66.5079 241.77 69.9245 245.224 70.7129Z" class="fill-black"/>
<path d="M253 62.5658C250.685 62.9037 248.35 63.129 246.015 63.2416C245.108 63.2792 245.089 64.6308 246.015 64.6308C248.041 64.612 250.067 64.7059 252.074 64.8373C252.035 67.3904 252.055 69.9435 252.093 72.4778C252.132 74.1298 254.795 74.1298 254.737 72.4778C254.64 69.5493 254.602 66.6395 254.525 63.711C254.525 62.8662 253.791 62.4532 253 62.5658Z" class="fill-black"/>
<path d="M262.397 71.9894C268.996 72.7403 268.746 61.0449 268.09 57.3842C267.781 55.6572 265.06 56.3893 265.369 58.1164C265.793 60.4442 265.832 62.8095 265.35 65.1186C264.983 66.8832 263.787 71.2197 261.047 68.1597C258.615 65.4753 258.808 60.4817 259.175 57.2153C259.252 56.5395 258.249 56.5207 258.036 57.0651C256.782 60.1626 256.782 63.5229 257.824 66.6955C258.519 68.8543 259.754 71.689 262.397 71.9894Z" class="fill-black"/>
<path d="M275.113 70.0373C275.789 68.4416 276.406 66.8084 277.004 65.1564C278.567 65.2502 280.227 65.3066 281.809 65.1752C282.504 67.2214 283.063 69.3427 284.105 71.2199C284.626 72.1398 286.344 71.7643 286.228 70.6568C285.707 65.2127 282.523 59.4683 280.13 54.5499C279.629 53.4986 278.066 53.8928 277.738 54.8502C276.117 59.6935 274.284 64.5369 273.029 69.4741C272.721 70.8257 274.612 71.2575 275.113 70.0373ZM279.204 58.7361C279.86 60.238 280.497 61.7398 281.095 63.2603C280.651 63.4105 280.208 63.5419 279.744 63.6358C279.03 63.7672 278.259 63.786 277.506 63.7672C278.085 62.0964 278.645 60.4069 279.204 58.7361Z" class="fill-black"/>
<path d="M185.542 107.77C183.516 108.014 181.451 108.258 179.387 108.502C179.097 106.907 178.383 105.367 178.036 103.791C177.727 102.439 177.631 101.05 177.438 99.6981C179.522 99.8671 181.683 100.055 183.342 98.6657C183.747 98.3277 183.844 97.5768 183.554 97.1451C183.458 97.0137 183.362 96.8635 183.265 96.7321C182.937 96.2628 182.339 96.1877 181.895 96.5631C180.757 97.5581 178.827 97.5956 177.052 97.483C176.897 96.9198 176.068 96.901 175.836 97.4079C175.354 97.3703 174.891 97.3328 174.505 97.3328C171.688 97.2577 168.87 97.0137 166.053 97.1451C165.397 97.1826 165.223 98.1025 165.899 98.2902C169.005 99.135 172.286 99.379 175.508 99.5667C175.431 100.975 175.605 102.42 175.798 103.791C176.01 105.367 176.222 107.226 176.897 108.765C174.563 108.991 172.247 109.178 169.97 109.216C169.141 109.235 169.16 110.417 169.97 110.455C175.238 110.718 180.236 110.98 185.542 110.474C187.317 110.305 187.298 107.564 185.542 107.77Z" class="fill-black"/>
<path d="M197.949 95.568C196.135 95.3239 194.283 95.6243 192.45 95.6994C190.424 95.7932 188.417 95.7932 186.391 95.8683C185.194 95.9247 185.252 97.5016 186.391 97.633C187.606 97.7831 188.957 97.9333 190.366 98.046C190.482 99.8106 190.617 101.556 190.771 103.321C190.925 105.123 190.848 106.944 191.601 108.596C191.929 109.347 193.26 109.141 193.414 108.371C193.762 106.587 193.241 104.804 192.971 103.021C192.72 101.387 192.45 99.773 192.18 98.1398C194.206 98.2149 196.232 98.121 197.968 97.6517C198.952 97.4452 199.107 95.7369 197.949 95.568Z" class="fill-black"/>
<path d="M202.04 107.864C203.197 106.005 204.297 104.091 205.359 102.195C206.844 102.082 208.388 102.082 209.835 101.8C209.912 101.932 209.97 102.044 210.048 102.176C211.109 104.034 211.977 106.231 213.559 107.714C214.37 108.465 215.566 107.695 215.354 106.7C214.929 104.598 213.463 102.702 212.421 100.843C212.305 100.655 212.209 100.468 212.112 100.28C212.112 99.9419 211.938 99.6228 211.63 99.4351C210.704 97.8019 209.777 96.1686 208.851 94.5354C208.369 93.6907 206.96 93.6531 206.497 94.5354C204.317 98.5903 202.04 102.608 200.072 106.775C199.473 108.014 201.268 109.084 202.04 107.864ZM207.693 97.9708C208.002 98.4964 208.292 99.0409 208.6 99.5665C207.886 99.7354 207.192 99.9419 206.478 100.167C206.883 99.4351 207.288 98.7029 207.693 97.9708Z" class="fill-black"/>
<path d="M217.997 93.897C218.268 96.6378 218.557 99.341 218.904 102.082C219.117 103.64 218.885 106.475 219.888 107.845C220.834 109.14 222.609 108.709 223.941 108.465C226.526 108.014 229.131 107.507 231.717 106.982C233.511 106.606 232.739 103.978 230.964 104.316C229.343 104.616 227.722 104.954 226.121 105.273C225.195 105.461 224.153 105.78 223.227 105.874C221.664 106.024 221.721 105.724 221.451 104.335C220.737 100.787 220.004 97.2573 219.174 93.7468C219.001 93.1273 217.94 93.2399 217.997 93.897Z" class="fill-black"/>
<path d="M237.564 93.4278C237.622 92.6393 236.387 92.5267 236.175 93.2401C235.017 97.126 234.669 102.551 236.85 106.156C237.352 107 239.011 106.7 238.876 105.63C238.625 103.584 237.834 101.669 237.583 99.5852C237.352 97.539 237.409 95.4928 237.564 93.4278Z" class="fill-black"/>
<path d="M237.68 87.1953C237.757 86.1815 236.406 85.6559 235.673 86.2379C235.21 86.5945 235.113 87.1577 235.287 87.627C234.592 87.9086 234.554 88.9786 235.383 89.2415C236.001 89.4479 236.657 89.2227 237.101 88.7909C237.274 88.622 237.409 88.3967 237.525 88.1902C237.622 87.9837 237.68 87.7772 237.699 87.5519C237.699 87.4956 237.699 87.4393 237.699 87.3642C237.641 87.0075 237.641 86.9512 237.68 87.1953Z" class="fill-black"/>
<path d="M247.269 91.1374C246.671 90.4615 245.282 90.7807 245.108 91.6818C244.626 94.3287 244.124 96.9756 243.661 99.6226C243.294 101.688 242.793 103.771 243.179 105.855C243.256 106.287 243.893 106.306 244.105 105.968C244.973 104.616 245.359 103.058 245.687 101.481C246.073 101.669 246.459 101.875 246.903 101.969C247.559 102.101 248.253 102.119 248.909 102.082C249.585 102.044 250.241 101.932 250.878 101.725C251.399 103.077 251.881 104.466 252.672 105.649C253.251 106.512 254.679 106.193 254.698 105.123C254.737 102.682 253.27 100.054 252.113 97.933C250.8 95.4926 249.141 93.2399 247.269 91.1374ZM248.427 100.129C247.732 100.261 246.71 100.524 245.899 100.561C245.957 100.28 246.015 99.998 246.073 99.7164C246.42 98.1208 246.748 96.5439 247.076 94.9482C248.099 96.3186 249.025 97.7453 249.816 99.2659C249.893 99.4161 249.951 99.5663 250.029 99.7164C249.508 99.8666 248.967 100.036 248.427 100.129Z" class="fill-black"/>
<path d="M267.877 90.931C267.8 94.3664 267.588 97.8018 267.337 101.218C264.346 97.3137 261.394 93.3715 258.403 89.4668C257.708 88.5469 255.759 88.6971 255.894 90.1238C256.377 95.1361 256.84 100.205 257.901 105.123C258.152 106.249 260.062 106.005 259.985 104.842C259.754 101.444 259.348 98.0458 259.001 94.648C261.76 98.2899 264.52 101.913 267.24 105.592C268.089 106.738 269.672 106.268 269.826 104.917C270.424 100.28 270.675 95.5866 270.752 90.9123C270.791 89.1101 267.916 89.1101 267.877 90.931Z" class="fill-black"/>
<path d="M280.13 87.2703C277.255 87.1014 277.293 91.0999 277.023 92.8646C276.348 97.4638 275.017 101.95 274.476 106.569C274.399 107.301 275.595 107.601 275.904 106.944C277.004 104.635 277.66 102.195 278.239 99.7165C279.956 100.092 281.693 100.036 283.468 99.6039C283.565 99.5851 283.661 99.5476 283.738 99.51C284.414 101.782 284.915 104.128 285.957 106.249C286.44 107.207 288.041 106.737 288.003 105.705C287.887 101.481 285.803 96.9757 284.201 93.0898C283.487 91.2689 282.658 87.4017 280.13 87.2703ZM282.793 97.201C281.442 97.7266 280.053 97.9707 278.625 97.9707C278.837 96.9382 279.03 95.8869 279.223 94.8544C279.397 93.9158 279.262 91.9447 279.995 91.1562C280.4 89.7858 280.805 90.2552 281.191 92.5454C281.519 93.3339 281.847 94.1411 282.156 94.9483C282.445 95.6804 282.696 96.4313 282.947 97.1635C282.889 97.1635 282.851 97.1635 282.793 97.201Z" class="fill-black"/>
<path d="M291.167 76.6262C290.858 82.6334 290.646 89.1663 291.399 95.1361C291.572 96.544 293.598 96.6191 293.714 95.1361C294.119 89.1288 293.502 82.6147 292.846 76.6262C292.711 75.5937 291.206 75.5561 291.167 76.6262Z" class="fill-black"/>
<path d="M293.097 103.546C292.576 103.546 292.576 104.336 293.097 104.336C293.618 104.355 293.618 103.546 293.097 103.546Z" class="fill-black"/>
<path d="M245.089 118.564C244.317 119.916 246.439 121.118 247.211 119.766C248.62 120.498 250.028 121.23 251.437 121.962C251.418 123.333 250.974 124.478 250.067 125.398C249.025 126.618 247.559 127.425 246.015 127.913C243.487 128.72 240.458 128.307 237.891 127.801C233.434 126.918 229.266 125.003 225.118 123.239C218.962 120.648 211.475 117.344 204.683 119.409C199.512 120.986 197.351 125.642 200.554 130.128C204.066 135.066 210.376 136.286 215.952 134.409C216.473 134.24 216.261 133.432 215.721 133.583C210.144 135.347 202.696 132.663 201.461 126.712C199.975 119.503 211.012 120.742 215.2 121.868C223.728 124.14 231.234 129.471 240.13 130.485C245.861 131.142 253.328 129.171 253.83 122.507C254.216 117.795 248.041 113.421 245.089 118.564Z" class="fill-black"/>
<path d="M226.006 132.099C224.308 131.198 222.745 132.531 222.494 134.089C221.954 134.765 221.838 135.854 221.973 136.642C222.397 138.989 225.273 139.646 226.778 137.787C228.07 136.21 228.032 133.15 226.006 132.099Z" class="fill-black"/>
<path d="M222.957 131.799C223.13 131.499 223.169 131.161 223.092 130.86C223.072 130.184 222.416 129.584 221.741 129.602C221.336 129.621 220.892 129.734 220.622 130.053C219.773 131.048 220.352 132.362 221.664 132.493C222.185 132.569 222.686 132.231 222.957 131.799Z" class="fill-black"/>
<path d="M224.384 131.236C225.088 131.236 225.658 130.681 225.658 129.997C225.658 129.313 225.088 128.758 224.384 128.758C223.681 128.758 223.111 129.313 223.111 129.997C223.111 130.681 223.681 131.236 224.384 131.236Z" class="fill-black"/>
<path d="M229.304 130.935C229.111 130.935 228.957 130.973 228.822 131.029C229.227 130.222 228.822 129.039 227.626 129.039C225.831 129.039 225.831 131.743 227.626 131.743C227.819 131.743 227.992 131.705 228.127 131.649C227.741 132.437 228.127 133.601 229.304 133.601C231.041 133.582 231.041 130.935 229.304 130.935Z" class="fill-black"/>
<path d="M227.529 121.699C227.529 122.356 228.108 122.92 228.784 122.92C229.459 122.92 230.038 122.356 230.038 121.699C230.038 121.042 229.459 120.479 228.784 120.479C228.108 120.479 227.529 121.042 227.529 121.699Z" class="fill-black"/>
<path d="M230.077 123.464C230.077 124.14 230.656 124.703 231.35 124.703C232.045 124.703 232.624 124.121 232.624 123.464C232.624 122.788 232.045 122.225 231.35 122.225C230.675 122.207 230.077 122.788 230.077 123.464Z" class="fill-black"/>
<path d="M234.071 125.492C235.769 125.492 235.769 122.938 234.071 122.938C232.392 122.938 232.373 125.492 234.071 125.492Z" class="fill-black"/>
<path d="M236.908 125.698C238.528 125.698 238.528 123.239 236.908 123.239C235.287 123.239 235.287 125.698 236.908 125.698Z" class="fill-black"/>
<path d="M237.544 119.146C237.776 117.907 237.332 116.574 236.27 115.823C235.209 115.091 233.666 115.091 232.681 115.974C232.238 116.368 231.929 116.969 231.775 117.607C231.543 117.851 231.35 118.132 231.176 118.452C230.694 119.447 230.79 120.779 231.524 121.624C233.511 123.933 237.1 121.493 237.544 119.146Z" class="fill-black"/>
<path d="M127.693 24.9454C128.696 24.9454 128.696 23.4436 127.693 23.4436C126.709 23.4436 126.69 24.9454 127.693 24.9454Z" class="fill-black"/>
<path d="M64.7697 102.232C65.7345 103.002 66.68 103.753 67.6448 104.503C67.8764 104.691 68.2816 104.56 68.3588 104.278C68.6482 103.34 68.9955 102.438 69.3621 101.519C69.5744 100.993 70.0761 100.148 69.4393 99.7164C68.899 99.3597 68.0693 99.8291 67.5676 100.054C66.6993 100.449 65.9082 100.974 65.175 101.575C65.0785 101.65 65.0206 101.781 65.0206 101.894L65.0013 101.875C64.7697 101.725 64.5382 102.044 64.7697 102.232Z" class="fill-black"/>
<path d="M31.3489 102.758C30.3841 102.139 29.4772 101.482 28.6282 100.712C28.3002 100.412 27.6055 100.487 27.6248 101.031C27.6248 101.988 27.6055 102.946 27.6055 103.922C27.5863 104.654 27.4705 105.424 27.7792 106.118C27.8371 106.269 27.9722 106.344 28.1072 106.381C28.1844 106.475 28.3388 106.531 28.4546 106.419C28.4739 106.4 28.4932 106.381 28.4932 106.381C28.6475 106.325 28.7633 106.231 28.8212 106.062C28.8212 106.062 28.8212 106.062 28.8212 106.043C29.6509 105.199 30.5192 104.354 31.4068 103.565C31.6384 103.359 31.6384 102.946 31.3489 102.758Z" class="fill-black"/>
<path d="M5.89795 182.879C5.06823 185.902 5.45415 189.544 5.45415 192.585C5.45415 195.964 5.53133 199.362 5.95584 202.703C5.99443 204.806 6.09091 206.871 6.1488 208.823C6.36105 215.675 7.17148 222.546 8.61866 229.248C11.185 241.074 15.9511 252.357 23.4764 262.025C22.1643 262.607 21.0645 263.526 20.3312 264.972C18.6139 268.37 20.8715 271.58 23.9781 273.176C27.9145 275.203 33.1051 276.029 36.9256 273.438C40.862 270.773 44.7404 265.817 45.5702 261.217C45.5895 261.161 45.5894 261.105 45.5894 261.048C46.863 259.641 47.6348 257.989 48.1751 256.074C48.4838 255.041 48.7733 253.99 49.0241 252.92C49.4293 255.173 50.0854 257.388 50.8958 259.547C51.7641 261.893 52.7482 264.39 54.2726 266.436C58.1703 273.57 65.715 280.816 73.8964 274.715C76.5013 272.781 77.8521 269.552 76.675 266.474C75.9804 264.634 74.7068 263.545 73.1632 262.944C73.2211 262.851 73.2789 262.757 73.3175 262.644C78.1994 250.592 80.7464 237.77 81.5569 224.855C81.8849 219.467 82.0007 214.079 82.0585 208.673C82.0778 208.654 82.0778 208.635 82.0971 208.598C82.0778 208.541 82.0778 208.466 82.0778 208.41C82.0778 208.391 82.0778 208.373 82.0778 208.335V208.316C82.0778 208.26 82.0585 208.204 82.0778 208.147C82.0971 208.016 82.0971 207.903 82.0971 207.772C82.0971 207.64 82.1357 207.547 82.1936 207.471C82.1936 207.246 82.3094 207.096 82.4445 207.002V206.983C91.7257 203.004 97.7846 195.157 101.528 186.089C104.249 179.481 106.448 172.648 108.494 165.815C109.709 161.76 111.755 156.016 109.497 151.961C108.475 150.102 106.68 149.182 104.731 149.032C108.417 146.817 111.909 144.245 114.476 140.998C114.861 140.66 115.151 140.209 115.402 139.74C115.595 139.44 115.807 139.158 116 138.839C116.154 138.576 116.193 138.313 116.135 138.088C116.174 137.975 116.231 137.863 116.27 137.769C116.309 137.694 116.309 137.619 116.328 137.562C118.238 138.276 120.284 138.238 122.155 136.962C124.548 135.328 125.764 132.287 124.992 129.528C124.895 129.208 124.779 128.908 124.644 128.608C127.404 127.275 130.626 125.604 134.061 123.689C134.099 125.961 134.119 128.214 134.157 130.485C134.196 134.446 134.138 138.426 134.292 142.387C134.62 150.628 133.27 158.869 134.292 167.11C134.466 168.5 134.794 169.119 136.396 169.081C146.14 168.856 155.884 168.481 165.609 168.631C174.891 168.781 184.172 169.645 193.453 169.964C204.047 170.339 214.64 170.527 225.233 170.696C231.408 170.79 237.583 170.715 243.757 170.715C254.351 170.715 264.964 170.715 275.576 170.715C275.576 170.733 275.576 170.752 275.576 170.771C282.021 170.771 288.447 170.752 294.891 170.771C303.594 170.79 312.315 171.071 321.018 170.809C330.492 170.527 339.966 169.739 349.441 169.157C352.432 168.969 353.088 168.424 352.991 165.458C352.856 161.666 352.451 157.893 352.239 154.12C351.544 141.561 350.753 129.002 350.232 116.424C349.672 102.777 349.344 89.1101 348.978 75.4625C348.862 71.0321 348.785 66.6206 348.862 62.1902C348.978 54.6624 349.344 47.1534 349.363 39.6255C349.363 37.0725 348.765 34.4819 348.264 31.9476C347.897 30.0703 346.604 29.3382 344.559 29.3757C339.947 29.4508 335.335 29.3382 330.743 29.2818C321.385 29.1692 312.026 28.9815 302.668 28.9627C296.03 28.9439 289.411 29.188 282.774 29.2443C281.963 29.2443 281.018 29.1317 280.381 28.7187C277.641 26.9353 274.978 25.0392 272.296 23.162C267.916 20.102 263.574 17.0233 259.175 14.0009C255.258 11.2977 251.341 8.59443 247.366 6.00381C244.298 3.99514 241.172 2.06156 237.949 0.315707C237.12 -0.134835 235.557 -0.09729 234.746 0.390798C231.813 2.11788 229.054 4.14532 226.237 6.06012C216.628 12.6118 206.999 19.1446 197.39 25.715C195.595 26.954 193.916 28.3432 192.083 29.5447C191.176 30.1266 190.077 30.7461 189.054 30.8024C186.082 30.9526 183.072 30.6898 180.101 30.8024C169.912 31.1779 159.724 31.6284 149.536 32.0602C146.101 32.2104 142.667 32.3981 139.232 32.492C137.495 32.5483 135.72 32.567 134.003 32.3605C131.745 32.0977 130.761 32.6609 130.78 34.9136C130.8 37.4292 131.109 39.9447 131.321 42.4414C131.456 44.0747 131.707 45.7079 131.822 47.3411C132.131 51.809 132.421 56.2768 132.652 60.7447C132.807 63.6169 132.787 66.5079 132.999 69.3989C133.212 72.4588 133.791 75.5188 133.887 78.5787C134.061 83.8163 133.964 89.0538 133.984 94.2726C133.984 100.768 133.945 107.282 133.964 113.777C133.984 116.03 134.003 118.302 134.022 120.554C130.047 122.845 126.362 124.947 123.313 126.674C123.12 126.468 122.908 126.261 122.696 126.073C122.657 125.98 122.58 125.923 122.464 125.886C119.145 123.164 113.781 122.413 112.025 126.993C112.025 127.012 112.006 127.031 112.006 127.05C104.712 126.749 97.7846 129.546 90.9925 131.799C85.3774 133.676 78.6625 135.291 73.1825 138.125C72.4685 136.924 71.7353 135.779 70.9056 134.671C71.0599 134.521 71.2143 134.39 71.3687 134.24C71.6774 133.845 71.9668 133.451 72.2563 133.038C72.8351 132.212 73.2404 131.236 73.6649 130.316C73.8964 129.828 74.0894 129.321 74.263 128.814C74.3209 128.626 74.3595 128.458 74.4367 128.27C74.4753 128.157 74.5525 128.063 74.6297 128.007C74.6104 127.988 74.5911 127.988 74.5718 127.988C75.3243 125.679 75.7681 123.295 76.2119 120.93C76.7522 118.039 76.0768 115.223 75.3436 112.426C75.1892 111.863 74.9963 111.318 74.9384 110.736C74.784 110.605 74.6489 110.455 74.5718 110.211C74.1087 108.878 73.5684 107.545 73.1053 106.212C72.8351 105.818 72.6229 105.405 72.4685 104.992C73.1246 103.753 73.2982 102.044 73.4912 100.674C73.7035 99.1347 73.7806 97.5766 73.7035 96.0185C73.6842 95.7744 73.607 95.5679 73.4526 95.4365V95.399C73.4526 95.3802 73.4526 95.3802 73.4526 95.3614C73.4333 95.3614 73.414 95.3614 73.3754 95.3802C73.2211 95.2676 73.0088 95.2112 72.7773 95.2488C71.8896 95.3802 71.002 95.5491 70.1144 95.7369C68.5322 96.056 66.9692 96.5066 65.4834 97.1636C63.9591 97.8394 62.4154 98.7593 61.5085 100.111C59.9262 98.947 58.0738 98.2336 56.125 97.6892C53.6165 96.9946 51.0116 96.3564 48.4066 96.056C43.93 95.5491 39.2797 96.6755 35.1118 98.2524C34.5908 98.6842 33.8769 98.947 32.9893 98.8719C30.8089 98.7029 28.6091 98.4214 26.5831 97.7455C26.5252 97.6892 26.4673 97.6517 26.3901 97.6329C26.0235 97.4827 25.6569 97.3138 25.3288 97.0697C25.2517 97.0134 25.1552 97.0134 25.0587 97.0697C24.9043 96.9946 24.6728 97.0697 24.6149 97.2387C24.4798 97.6141 24.4605 98.0647 24.4798 98.5152C24.1132 102.495 23.6115 106.55 23.5343 110.511C22.8976 112.276 22.2608 114.059 21.6433 115.842C21.5276 116.161 21.489 116.499 21.4697 116.837C20.8715 118.564 20.7557 120.46 20.8522 122.356C20.9873 125.473 21.489 128.533 22.2222 131.555C22.2608 131.762 22.2801 131.949 22.3187 132.156C22.3573 132.25 22.3959 132.343 22.4345 132.419C22.5117 132.7 22.5695 132.982 22.6467 133.263C20.9294 136.248 19.8295 139.759 16.4914 141.185C14.5232 142.011 12.748 142.481 11.0113 143.851C6.99782 146.986 3.92978 151.567 2.03879 156.166C-1.62741 165.158 -0.353891 175.258 5.89795 182.879ZM197.467 28.4746C203.564 24.1757 209.642 19.8768 215.798 15.6342C221.567 11.6544 227.452 7.82475 233.203 3.80741C235.152 2.43701 237.004 2.56842 238.837 3.58214C241.77 5.21536 244.645 6.94244 247.424 8.80093C253.946 13.1749 260.371 17.6804 266.855 22.1107C269.73 24.0818 272.605 26.0154 275.46 27.9865C275.769 28.193 275.981 28.5122 276.232 28.775C276.194 28.9439 276.136 29.1129 276.097 29.2818C249.334 29.6573 222.571 30.0327 195.267 30.427C196.213 29.5822 196.791 28.9627 197.467 28.4746ZM133.347 37.5418C133.154 35.7584 133.829 35.214 135.354 35.1201C137.495 34.9887 139.637 34.9324 141.779 34.8385C153.472 34.3317 165.166 33.8248 176.859 33.3367C179.464 33.2241 182.049 33.2241 184.654 33.149C202.657 32.736 220.66 32.3042 238.683 31.9476C257.94 31.5721 277.178 31.2154 296.435 30.9901C300.719 30.9338 304.983 31.5346 309.267 31.5909C313.3 31.6472 317.332 31.1966 321.346 31.2717C327.386 31.3656 333.406 31.7598 339.445 31.9476C340.661 31.9851 341.896 31.7411 343.131 31.666C345.427 31.5158 346.315 32.0039 346.681 34.2378C347.106 36.7158 347.376 39.2689 347.357 41.7844C347.26 54.4371 346.855 67.0711 346.932 79.7238C346.99 91.1 347.453 102.495 347.916 113.871C348.148 119.559 348.92 125.21 349.228 130.898C349.556 136.886 349.595 142.912 349.846 148.901C350.058 153.763 350.483 158.625 350.676 163.487C350.811 166.603 350.579 166.866 347.434 167.129C341.607 167.655 335.779 168.274 329.933 168.424C319.532 168.687 309.132 168.668 298.712 168.668C288.832 168.668 278.953 168.5 269.074 168.462C254.505 168.424 239.937 168.556 225.369 168.387C213.54 168.255 201.712 167.88 189.884 167.448C182.551 167.185 175.238 166.359 167.906 166.228C157.91 166.04 147.896 166.266 137.901 166.303C137.708 166.303 137.515 166.228 136.974 166.134C136.974 161.648 136.994 157.236 136.974 152.824C136.936 148.582 136.82 144.358 136.801 140.115C136.762 134.146 136.704 128.176 136.666 122.187C137.766 121.568 138.885 120.911 140.023 120.254C139.965 123.858 139.869 127.463 139.811 131.067C139.792 131.574 139.618 132.062 139.618 132.569C139.618 133.695 139.637 134.84 139.695 135.967C139.792 137.525 139.907 139.083 140.023 140.641C140.139 142.162 140.293 143.682 140.351 145.203C140.544 150.44 140.66 155.678 140.891 160.915C140.93 161.798 141.123 162.849 141.663 163.45C142.049 163.881 143.188 163.825 143.96 163.75C145.175 163.637 146.371 163.206 147.587 163.168C157.003 162.868 166.42 162.455 175.817 162.417C183.612 162.38 191.408 162.868 199.203 162.962C206.092 163.037 213 162.68 219.889 162.849C231.717 163.131 243.526 163.994 255.354 164.032C268.553 164.069 281.751 163.468 294.93 163.149C301.896 162.98 308.862 162.98 315.789 162.567C324.221 162.079 332.615 161.028 341.066 161.967C342.571 162.136 343.247 161.554 343.208 160.071C342.996 152.299 342.919 144.527 342.571 136.755C342.301 130.954 341.51 125.154 341.279 119.353C340.893 109.741 340.719 100.13 340.545 90.5181C340.468 86.4069 340.487 82.2957 340.642 78.1845C341.105 65.9823 341.645 53.7989 342.147 41.6154C342.089 41.6154 342.012 41.6154 341.954 41.5967C342.012 40.583 342.263 39.5505 342.089 38.5743C341.973 37.8985 341.298 36.866 340.777 36.8097C338.461 36.5468 336.127 36.4342 333.811 36.5468C327.443 36.8284 321.095 37.4104 314.727 37.5606C308.881 37.692 303.034 37.3353 297.188 37.3728C286.71 37.4292 276.232 37.8797 265.774 37.692C252.46 37.4479 239.146 36.6595 225.832 36.2653C220.699 36.1151 215.566 36.3967 210.434 36.4718C206.613 36.5281 202.773 36.4154 198.953 36.6782C190.212 37.2977 181.509 38.1237 172.787 38.7808C170.009 38.9873 167.23 38.8934 164.452 38.9873C159.28 39.1562 154.109 39.3815 148.938 39.5317C146.468 39.6068 143.998 39.4941 141.548 39.7194C140.814 39.7945 139.753 40.6768 139.579 41.3526C139.232 42.723 139.386 44.2061 139.386 45.6516C139.367 49.6126 139.406 53.5924 139.367 57.5534C139.329 61.2328 139.001 64.931 139.116 68.6292C139.329 76.0632 139.85 83.4784 140.023 90.9123C140.197 98.0271 140.178 105.142 140.139 112.238C140.139 113.834 140.12 115.448 140.1 117.044C138.943 117.72 137.804 118.377 136.685 119.015C136.685 117.757 136.666 116.481 136.666 115.223C136.666 105.236 136.878 95.2488 136.685 85.2618C136.569 79.0856 135.797 72.9282 135.411 66.7707C135.219 63.5043 135.373 60.2003 135.141 56.9339C134.62 50.4949 134.061 43.9996 133.347 37.5418ZM339.407 58.2855C339.465 58.2855 339.523 58.2855 339.581 58.3043C339.214 66.5267 338.481 74.7303 338.558 82.9527C338.693 97.6329 339.272 112.294 339.716 126.975C340.024 137.206 340.391 147.455 340.758 157.686C340.815 159.151 340.314 159.601 338.751 159.658C324.453 160.089 310.174 160.728 295.875 161.066C279.3 161.46 262.706 161.816 246.131 161.798C233.396 161.798 220.66 161.197 207.944 160.859C199.3 160.634 190.655 160.164 182.011 160.183C171.553 160.202 161.094 160.634 150.636 160.878C149.073 160.915 147.51 160.859 145.947 160.897C144.712 160.915 144.23 160.409 144.172 159.207C144.056 155.603 143.94 151.998 143.651 148.413C143.323 144.264 142.609 140.134 142.435 136.004C142.261 131.668 142.551 127.294 142.57 122.938C142.57 121.568 142.57 120.216 142.57 118.846C152.43 113.008 162.696 106.362 169.025 101.613C168.851 101.275 168.677 100.918 168.504 100.561C161.943 104.429 152.064 110.192 142.551 115.711C142.532 114.134 142.532 112.557 142.493 110.98C142.416 104.335 142.261 97.6892 142.184 91.0625C142.126 85.0553 142.146 79.0668 142.069 73.0596C141.991 67.6343 141.837 62.209 141.721 56.7649C141.644 53.2357 141.567 49.6877 141.528 46.1584C141.509 42.9671 141.818 42.5353 144.982 42.31C148.147 42.0848 151.35 42.1786 154.514 42.0097C165.359 41.4277 176.203 41.0523 187.008 40.0761C200.303 38.8746 213.598 38.349 226.932 38.6869C241.365 39.0624 255.779 39.6068 270.212 39.832C278.471 39.9635 286.729 39.4941 294.988 39.4566C300.97 39.4378 306.951 39.8696 312.914 39.7382C319.725 39.588 326.537 39.0061 333.348 38.6869C335.007 38.6118 336.744 38.7057 338.365 39.0999C338.944 39.2501 339.619 40.4891 339.619 41.24C339.638 46.0458 339.484 50.8516 339.388 55.6761C339.388 56.5021 339.407 57.3844 339.407 58.2855ZM82.0778 188.643C82.155 188.605 82.2515 188.549 82.3094 188.511C82.348 186.371 82.4252 184.25 82.4638 182.11C82.2901 179.162 81.7305 176.271 80.8236 173.418C79.7816 170.133 79.2221 166.791 78.9905 163.393C78.9519 162.943 78.894 162.474 78.8168 162.023C78.759 161.985 78.7204 161.929 78.6625 161.892C84.9336 159.695 90.9732 156.56 96.6848 153.5C96.8005 153.444 96.9163 153.388 97.0128 153.312C95.4884 155.603 94.5815 158.4 93.7904 160.765C89.9698 172.292 89.2752 184.081 82.2515 194.049C82.2708 192.247 82.2129 190.426 82.0778 188.643ZM105.445 153.068C107.876 154.514 107.954 154.458 107.915 156.879C107.896 158.606 107.452 160.315 107.027 161.985C106.429 164.388 105.599 166.754 104.847 169.138C103.245 174.131 101.625 179.125 99.6563 183.987C96.0094 192.96 90.4715 199.362 82.1164 203.961C82.1357 201.896 82.1936 199.793 82.2322 197.691C82.3287 197.503 82.4252 197.334 82.5023 197.128C82.7146 196.602 82.6181 196.039 82.348 195.551C86.8053 191.252 89.3717 185.376 91.2819 179.575C91.938 177.548 92.5169 175.483 93.0572 173.418C93.7518 173.549 94.485 173.587 95.1604 173.868C95.9515 174.188 97.1286 173.662 97.5145 172.93C98.6529 170.733 96.8391 168.162 94.5429 167.749C94.7359 167.016 94.9288 166.284 95.1411 165.552C95.7007 166.228 96.6076 166.697 97.418 166.866C98.8845 167.185 100.447 166.941 101.219 165.533C101.972 164.201 101.47 162.642 100.467 161.591C99.6177 160.69 98.0741 159.883 96.7812 160.258C97.0321 159.526 97.3022 158.794 97.611 158.081C98.0741 156.954 98.5565 155.809 99.2318 154.796C99.6756 154.251 100.1 153.707 100.544 153.181C102.203 151.247 103.824 151.21 105.445 153.068ZM2.59837 163.863C2.59837 163.806 2.61767 163.769 2.61767 163.712C2.61767 163.675 2.59837 163.619 2.61767 163.562C2.65626 163.356 2.69485 163.149 2.73344 162.924C2.75274 162.811 2.77203 162.68 2.81062 162.567C2.81062 162.53 2.81062 162.492 2.81062 162.455C2.86851 162.117 2.9264 161.798 2.98429 161.46C2.98429 161.422 3.00358 161.385 3.00358 161.347C3.00358 161.328 3.02288 161.328 3.02288 161.328C3.75612 157.931 5.16471 154.627 7.19077 151.623C8.69585 149.408 10.4904 147.249 12.6129 145.578C14.639 143.982 16.993 143.982 19.0963 142.762C19.3664 142.612 19.6173 142.406 19.8488 142.18C20.1769 141.448 20.6014 140.754 21.0452 140.078C21.7012 139.158 22.3187 138.201 22.8976 137.243C23.3414 136.511 23.7659 135.685 23.8624 134.84C24.75 136.098 25.8691 137.149 27.297 137.75C25.5025 135.629 24.6149 132.888 24.1518 130.222C24.0746 129.847 24.0167 129.434 23.9395 129.021C24.9815 129.621 26.3515 129.34 27.0848 128.307C28.3583 126.468 26.6603 123.408 24.4991 122.938C24.8079 122.507 25.2324 122.131 25.7726 121.85C25.9849 121.737 26.1779 121.718 26.3708 121.756C26.4094 121.737 26.4673 121.718 26.5252 121.699C27.1812 121.493 27.8759 121.343 28.5127 121.08C31.3298 119.878 31.9087 117.175 29.7476 115.091C28.8214 114.209 27.7022 113.496 26.6024 112.839C25.5218 112.2 25.1359 111.337 25.7919 110.361C26.6796 108.99 26.5638 107.47 26.5445 105.987C26.5059 104.016 26.3129 102.044 26.3129 100.073C26.3129 100.017 26.3129 99.9607 26.3129 99.9232C26.3708 99.1159 26.8918 98.9658 27.7987 99.3412C28.8214 99.773 29.7862 100.355 30.8474 100.618C33.0086 101.143 35.189 101.819 37.3694 100.505C39.1061 99.4351 41.2286 99.3412 43.2161 99.1159C45.5509 98.8719 47.9242 98.9845 50.2783 98.9845C51.1852 98.9845 52.0728 99.0784 52.9412 99.2286C53.0183 99.2474 53.0762 99.2661 53.1534 99.2849C55.6426 99.9419 58.4212 100.505 60.3315 102.232C60.6595 102.533 61.0454 102.626 61.412 102.589C61.412 102.57 61.4313 102.589 61.4313 102.57C63.1872 100.843 65.1747 99.3037 67.4323 98.1773C67.9919 97.8957 69.3426 97.1261 70.4425 96.9008C70.867 96.8069 71.2529 96.8069 71.5616 96.9383C72.6422 97.4076 72.0826 98.6466 71.8511 99.4351C71.1564 101.8 70.3267 104.072 70.0565 106.512C70.8863 106.644 71.4651 107.151 71.7739 107.958C72.3142 109.385 72.9509 110.774 73.5105 112.2C73.6842 112.613 73.7999 113.026 73.9157 113.439C74.0508 113.965 73.8578 114.228 73.2597 114.341C71.0792 114.697 69.0725 118.452 70.1337 120.761C70.6547 121.887 71.6967 122.281 72.9509 121.887C73.2597 121.793 73.5684 121.681 74.2051 121.474C73.935 122.582 73.742 123.577 73.4912 124.534C73.3368 124.421 73.1053 124.365 72.9123 124.328C72.4685 124.252 72.0054 124.328 71.6002 124.459C70.674 124.741 69.8636 125.341 69.497 126.242C68.8795 127.782 69.8443 129.546 71.4072 129.997C71.0599 130.673 70.674 131.33 70.2688 131.968C69.5934 133.77 68.6094 135.516 67.2972 136.962C68.0498 136.661 68.783 136.361 69.4584 135.929C69.6127 135.835 69.7285 135.723 69.8829 135.61C70.4039 136.793 71.002 137.919 71.6388 139.045C71.1371 139.346 70.6354 139.665 70.153 140.003C70.0565 140.078 70.0758 140.284 70.2302 140.266C71.0792 140.172 71.9089 140.04 72.758 139.871C72.7965 139.871 72.8351 139.853 72.8544 139.853C74.7068 139.477 76.5592 138.933 78.4116 138.332C78.6239 140.397 79.5887 142.274 81.1323 143.738C81.7305 144.32 82.8111 144.076 83.0426 143.25C83.6215 141.129 83.525 138.839 82.5602 136.868C83.9302 136.342 85.3002 135.835 86.6509 135.328C86.7088 137.187 87.1912 138.895 88.021 140.603C88.3876 141.373 89.6418 141.298 90.0277 140.603C91.1662 138.576 91.417 136.098 90.8767 133.845C97.8618 131.517 105.194 128.551 112.662 129.115C113.434 129.171 113.742 128.533 113.646 127.951C113.781 127.838 113.916 127.707 113.993 127.519C114.9 125.21 118.065 125.416 119.878 126.28C120.766 126.712 121.576 127.331 122.175 128.101C122.213 128.439 122.425 128.758 122.734 128.946C123.062 129.546 123.274 130.203 123.332 130.917C123.506 132.982 122.348 135.009 120.496 136.023C118.373 137.187 116.135 136.511 114.051 135.723C113.858 135.647 113.665 135.948 113.839 136.079C114.109 136.286 114.398 136.473 114.668 136.661C114.649 136.699 114.611 136.717 114.591 136.755C114.244 137.393 113.819 138.088 113.491 138.82C109.188 144.808 101.624 148.657 95.0253 152.092C94.9096 150.91 94.5236 149.764 93.8483 148.732C93.2308 147.812 92.2467 146.611 90.9732 146.817C89.4874 147.042 89.5839 148.601 89.6032 149.708C89.6418 151.36 89.719 153.012 89.9891 154.627C89.5839 154.814 89.1787 155.021 88.7735 155.208C88.4648 153.275 87.6157 151.548 86.2843 150.102C85.7247 149.483 84.6056 149.821 84.3933 150.59C83.8531 152.599 83.7566 154.739 84.374 156.71C83.8724 156.785 83.3514 156.954 82.8304 156.992C82.0778 157.048 81.3253 157.011 80.5728 157.067C80.1675 156.654 79.2992 156.635 79.087 157.367C78.6239 158.982 77.0223 159.282 75.5944 159.714C74.1473 160.146 72.758 160.577 71.2143 160.446C71.0406 160.427 70.9827 160.728 71.1757 160.765C73.0667 161.047 75.7488 161.291 77.8328 160.615C76.3084 161.892 74.4753 162.905 72.5843 163.712C73.6456 163.468 74.7261 163.187 75.7874 162.886C75.8067 162.98 75.826 163.074 75.8453 163.168C76.0575 164.088 76.3856 164.989 76.6557 165.89C75.1699 166.284 73.2789 167.993 72.1791 168.837C71.0213 169.738 69.8443 170.884 69.9794 172.461C70.2881 176.572 75.4787 176.121 78.3151 175.37C78.5274 175.314 78.7204 175.164 78.8168 174.957C79.2606 176.609 79.5115 178.28 79.7045 179.97C77.5626 180.214 75.2857 180.983 73.2597 181.734C71.7353 182.297 70.3267 183.443 70.3653 185.17C70.4232 186.84 71.9475 187.798 73.4912 188.098C75.6523 188.492 77.9485 188.624 80.1675 188.793C79.9939 189.9 79.8781 191.027 79.7816 192.172C76.9837 192.998 66.8148 195.326 70.867 199.587C72.8351 201.652 76.5978 201.652 79.3764 200.319C79.3378 201.389 79.2992 202.459 79.2607 203.51C79.2607 203.604 79.2414 203.679 79.2414 203.773C75.8646 203.999 68.0884 206.308 70.7898 210.682C71.8896 212.446 74.4174 212.334 76.2312 212.014C77.1381 211.845 78.0064 211.564 78.8361 211.188C78.8168 211.62 78.7783 212.033 78.759 212.465C78.8361 213.328 78.7204 214.154 78.5853 214.999C78.5274 215.825 78.4695 216.651 78.4116 217.477C78.4309 217.534 78.4502 217.609 78.4309 217.684C78.4116 217.89 78.373 218.097 78.3537 218.303C78.3537 218.36 78.3537 218.416 78.3344 218.472C78.3344 218.472 78.3344 218.472 78.3151 218.472C78.2573 218.885 78.2187 219.279 78.1608 219.692C78.1415 219.805 78.1415 219.918 78.1222 220.049C78.1415 220.049 78.1801 220.049 78.1994 220.049C78.1222 221.044 78.045 222.039 77.9485 223.034C77.4661 228.178 76.8487 233.321 75.9996 238.39C75.1892 238.334 74.4174 238.352 73.5877 238.465C72.7001 238.578 71.8125 238.859 71.716 239.873C71.523 241.581 73.6263 242.764 75.1121 243.271C74.8998 244.341 74.6682 245.43 74.4174 246.5C73.0281 246.331 71.0792 246.256 70.867 247.701C70.674 249.053 72.1984 249.653 73.5877 249.898C73.0474 251.925 72.4685 253.952 71.8125 255.942C71.4072 257.294 70.9634 258.646 70.4618 259.978C70.4618 259.997 70.4425 260.016 70.4425 260.035C70.3846 260.147 70.3267 260.279 70.2688 260.391C70.2495 260.429 70.2109 260.448 70.1916 260.467C70.1337 260.617 70.0758 260.767 70.018 260.917C69.7864 261.386 69.5934 261.874 69.497 262.381C69.497 262.381 69.497 262.381 69.497 262.4C68.5708 262.381 67.6253 262.438 66.7184 262.531C66.6026 262.55 66.5254 262.588 66.4482 262.663C69.9601 262.231 74.1665 264.352 75.3436 267.525C76.4049 270.397 73.7035 272.988 70.8863 273.457C69.0146 274.077 66.6991 273.87 64.673 273.063C61.1612 271.693 59.3474 268.238 57.3792 265.047C55.1602 262.7 53.7323 259.603 53.0762 256.43C52.9412 256.092 52.8254 255.736 52.7482 255.36C52.7482 255.342 52.7482 255.323 52.7482 255.323C51.7255 252.394 51.3203 249.334 51.1273 246.218C50.6064 243.177 50.4906 240.061 50.0468 237.02C49.8538 235.743 49.5644 234.41 49.3907 233.059C48.2523 239.385 47.2296 245.918 45.4158 252.15C45.4158 252.169 45.4351 252.188 45.4158 252.188C45.3386 254.384 44.6632 256.618 43.8914 258.664C43.409 259.96 42.8301 260.898 42.0776 261.818C41.5759 262.794 40.9777 263.733 40.2638 264.634C38.0641 268.126 34.9767 271.636 31.1948 271.749C29.5739 271.805 26.4287 271.524 24.4991 270.66C24.4219 270.66 24.3448 270.66 24.2676 270.641C22.0486 269.928 21.296 267.056 22.2608 265.103C22.2415 265.066 22.2415 265.009 22.2415 264.953L22.4152 264.803C22.4924 264.69 22.5502 264.578 22.6274 264.484C24.5377 262.025 28.2618 261.781 31.3684 261.687C31.3105 261.649 31.2527 261.612 31.1562 261.593C29.7283 261.368 28.1846 261.236 26.6795 261.368C26.7567 260.936 26.6603 260.485 26.3129 260.053C26.0042 259.659 25.7148 259.246 25.406 258.852C24.4991 257.857 23.6887 256.75 23.0133 255.586C22.9555 255.492 22.9362 255.417 22.9362 255.323C21.1995 252.676 19.6559 249.898 18.3052 247.063C19.1542 246.687 19.7909 246.012 20.1383 245.129C20.3119 244.698 20.0032 244.228 19.6559 244.003C18.884 243.459 18.0543 243.083 17.1088 242.933C16.8773 242.895 16.665 242.933 16.5107 243.027C16.144 242.107 15.7774 241.187 15.4494 240.248C15.7195 240.286 16.009 240.305 16.2791 240.286C17.3597 240.23 18.7876 239.854 19.27 238.84C19.9067 237.508 18.4981 236.588 17.514 235.968C16.4335 235.292 15.0828 234.354 13.7899 234.185C13.6935 234.166 13.597 234.185 13.5198 234.185C12.883 231.895 12.3235 229.604 11.8604 227.258C11.2236 224.066 10.7798 220.856 10.4132 217.646C10.4325 217.646 10.4325 217.665 10.4518 217.665C10.4325 217.609 10.3939 217.552 10.3746 217.496C10.2009 217.083 10.2009 216.67 10.2588 216.257C10.0851 214.624 9.91148 212.991 9.77641 211.339L9.75712 211.019C9.75712 210.963 9.73782 210.907 9.73782 210.851C10.0273 210.963 10.3167 211.095 10.6254 211.188C11.4359 211.451 12.2849 211.526 13.1339 211.508C14.1952 211.47 15.1792 211.376 16.0476 210.719C16.9545 210.025 17.4176 209.011 17.3597 207.884C17.2632 206.195 16.1054 205.219 14.6968 204.562C14.4846 204.055 14.0987 203.642 13.4426 203.454C12.3042 203.116 11.2043 202.778 10.2009 202.178C9.93078 202.009 9.62205 201.896 9.31331 201.84C9.31331 201.464 9.29402 201.108 9.29402 200.732C10.5675 201.051 11.9761 200.995 13.1532 200.432C14.8512 199.624 15.9897 197.897 15.5459 196.02C15.0056 193.711 12.3621 191.946 9.91148 191.44C9.79571 191.383 9.67993 191.346 9.56416 191.308C9.15895 191.177 8.61866 191.177 8.17486 191.327C8.13627 190.482 8.17486 189.581 8.27134 188.736C10.1237 190.576 14.8898 190.201 15.4108 187.497C16.337 185.094 11.8218 181.866 9.52557 181.077C9.54486 180.683 9.58346 180.289 9.60275 179.894C9.66064 179.031 9.75712 178.167 9.8343 177.304C11.5709 178.637 14.3302 178.9 16.2019 177.773C20.4663 175.183 15.1407 171.766 11.7253 170.095C11.5902 169.945 11.378 169.851 11.185 169.832C11.0885 169.795 11.0113 169.757 10.9149 169.701C11.2622 167.899 11.6867 166.097 12.1498 164.313C12.3813 164.407 12.6322 164.445 12.8637 164.463C13.1339 165.402 13.8092 166.097 14.9091 166.284C15.5652 166.397 16.1054 165.909 16.2984 165.346C14.4846 163.863 13.3268 162.061 12.9795 159.939C12.883 160.615 12.8059 161.31 12.7673 161.985C12.748 161.967 12.7287 161.967 12.6901 161.967C12.2463 161.798 11.8411 161.535 11.4551 161.253C10.664 160.69 10.0466 160.071 9.48698 159.301C9.21683 158.757 9.02388 158.175 8.9274 157.574C8.9274 157.555 8.88881 157.536 8.86951 157.555C8.40641 158.099 8.36782 158.663 8.50289 159.357C8.50289 159.376 8.52219 159.395 8.52219 159.414C8.54148 160.427 8.9081 161.497 9.54486 162.323C9.44839 162.642 9.3712 162.98 9.27472 163.299C9.12036 163.806 8.98528 164.313 8.86951 164.82C8.75374 165.552 8.58007 166.284 8.36782 166.998H8.38711C8.17486 168.087 8.0012 169.175 7.84683 170.264C7.40303 173.305 7.13289 176.384 6.84345 179.444C6.82415 179.688 6.80486 179.932 6.80486 180.176C3.31231 175.352 2.03879 169.663 2.63696 164.069C2.59837 163.957 2.59837 163.919 2.59837 163.863Z" class="fill-black"/>
<path d="M32.1209 125.398C34.1276 125.604 36.1151 125.792 38.1026 126.017C38.064 126.13 38.0254 126.224 37.9868 126.336C37.7745 127.068 37.9482 127.688 38.3341 128.214C36.3273 128.552 34.3206 128.965 32.3524 129.378C32.198 129.415 32.2559 129.622 32.391 129.603C34.5328 129.209 36.6747 128.983 38.8165 128.758C39.6848 129.528 40.9776 130.016 41.9424 130.335C43.0037 130.673 44.0457 130.804 45.0491 130.71C44.8947 132.043 45.4929 133.038 47.1137 133.376C48.7731 133.733 50.4133 132.888 50.8378 131.292C53.7515 132.344 57.5141 131.856 57.958 128.889C59.9261 129.284 61.875 129.809 63.8432 130.147C64.0361 130.185 64.0747 129.884 63.9011 129.828C61.9908 129.171 60.0033 128.889 57.9965 128.664C57.9965 128.627 58.0158 128.608 58.0158 128.57C58.0737 127.425 57.2826 126.487 56.2406 125.773C58.5561 125.36 60.9488 125.266 63.3222 125.473C63.6309 125.492 63.6502 125.06 63.3415 125.022C60.6401 124.684 58.0351 124.797 55.4688 125.304C54.7163 124.91 53.9444 124.628 53.3077 124.459C52.4587 124.234 51.6482 124.177 50.8571 124.253C51.3202 123.295 51.5132 122.3 51.0886 121.38C50.8764 120.949 50.2975 120.892 49.9502 121.174C49.2169 121.775 48.6381 122.469 48.1943 123.258C47.6733 121.962 46.8243 120.873 45.5507 121.662C45.2806 121.831 45.0491 122.15 45.1455 122.488C45.4157 123.389 45.763 124.253 46.2068 125.079C43.6791 123.408 39.9164 122.957 38.4499 125.379C36.3273 125.191 34.1855 125.172 32.1402 125.398C32.0823 125.341 32.1016 125.398 32.1209 125.398ZM48.5416 127.707C48.8503 127.632 49.1205 127.369 49.0047 127.05C49.3327 126.599 49.7186 126.092 50.066 125.567C51.5324 125.06 53.3077 124.928 54.6777 125.454C53.655 125.698 52.613 125.998 51.5903 126.355C51.1851 126.505 51.4939 127.106 51.8991 126.937C53.0761 126.487 54.2725 126.149 55.4881 125.886C55.7968 126.111 56.0863 126.374 56.2985 126.712C56.723 127.369 56.8195 127.951 56.6844 128.476C55.5846 128.345 54.4654 128.214 53.3848 127.988C53.0954 127.932 53.0568 128.345 53.3077 128.345C54.4268 128.326 55.546 128.439 56.6458 128.627C55.8547 130.954 50.1046 131.311 48.8117 128.007C48.7731 127.857 48.6574 127.763 48.5416 127.707ZM49.9888 130.879C49.68 132.081 48.503 132.588 47.2681 132.362C46.2068 132.156 45.7437 131.499 45.5314 130.617C46.4576 130.448 47.326 130.072 48.0785 129.415C48.5416 129.997 49.217 130.504 49.9888 130.879ZM39.3375 126.167C41.1127 126.374 42.8879 126.599 44.6631 126.9C44.9719 126.956 45.0876 126.43 44.7789 126.355C43.1195 125.98 41.3829 125.661 39.6269 125.454C40.2637 124.553 41.653 124.177 42.7529 124.459C43.216 124.478 43.6791 124.553 44.1229 124.684C44.7789 124.891 45.5507 125.229 45.8788 125.848C46.1875 126.092 46.4769 126.411 46.805 126.843C46.9593 127.031 47.1137 127.219 47.2681 127.406C47.3067 127.613 47.4417 127.763 47.6347 127.876C46.9207 128.533 46.1489 128.965 45.3192 129.152C45.2227 129.396 44.9719 129.584 44.6053 129.528C43.4282 129.359 42.2126 129.359 41.132 128.833C40.9583 128.758 40.804 128.664 40.6496 128.552C41.5179 128.458 42.3862 128.383 43.2738 128.27C43.7369 128.214 43.5826 127.538 43.1195 127.575C42.0582 127.65 40.9969 127.782 39.955 127.951C39.5883 127.538 39.3182 127.05 39.3375 126.505C39.2989 126.393 39.3182 126.28 39.3375 126.167Z" class="fill-black"/>
<path d="M36.0382 121.38C38.045 121.436 40.0325 121.361 42.0199 121.211C42.2901 121.192 42.5216 120.93 42.5602 120.686C42.9461 118.001 43.7952 110.699 39.3378 110.417C35.112 110.154 35.3243 117.044 35.5944 120.291C35.305 120.686 35.4015 121.361 36.0382 121.38ZM36.7136 116.762C36.8873 115.711 37.003 112.294 38.3344 111.919C39.0677 112.088 39.8202 112.257 40.5535 112.407C40.9201 112.895 41.1709 113.421 41.3253 114.003C41.5376 114.622 41.634 115.242 41.6919 115.899C41.7884 117.269 41.5954 118.658 41.4025 120.029C40.8815 120.066 41.634 120.066 41.1323 120.066C41.5954 119.39 41.4797 118.452 41.5183 117.626C41.5568 116.481 41.634 115.335 41.2867 114.228C40.9973 113.308 39.6466 113.458 39.2799 114.228C38.7975 115.279 38.7589 116.499 38.6432 117.644C38.566 118.47 38.4116 119.39 38.8554 120.066C38.3923 120.047 36.6943 120.047 36.2312 120.029C36.2119 120.029 36.2119 120.029 36.2119 120.029C36.3663 118.921 36.5399 117.832 36.7136 116.762Z" class="fill-black"/>
<path d="M52.6515 120.949C54.6583 121.005 56.6458 120.93 58.6332 120.78C58.9034 120.761 59.1349 120.498 59.1735 120.254C59.5594 117.57 60.4084 110.267 55.9511 109.986C51.7253 109.723 51.9376 116.612 52.2077 119.86C51.9183 120.235 52.0148 120.93 52.6515 120.949ZM53.3269 116.331C53.5005 115.279 53.6163 111.863 54.9477 111.487C55.681 111.656 56.4335 111.825 57.1667 111.975C57.5334 112.464 57.7842 112.989 57.9386 113.571C58.1508 114.191 58.2473 114.81 58.3052 115.467C58.4017 116.838 58.2087 118.227 58.0158 119.597C57.4948 119.635 58.2473 119.635 57.7456 119.635C58.2087 118.959 58.0929 118.02 58.1315 117.194C58.1701 116.049 58.2473 114.904 57.9 113.796C57.6105 112.877 56.2598 113.027 55.8932 113.796C55.4108 114.848 55.3722 116.068 55.2565 117.213C55.1793 118.039 55.0249 118.959 55.4687 119.635C55.0056 119.616 53.3076 119.616 52.8445 119.597C52.8252 119.597 52.8252 119.597 52.8252 119.597C52.9795 118.49 53.1532 117.401 53.3269 116.331Z" class="fill-black"/>
<path d="M59.2509 142.706C59.6947 142.518 59.3667 141.842 58.9229 141.955C54.4077 143.1 50.124 143.926 45.4351 143.532C40.5919 143.138 35.9995 141.748 31.8509 139.271C31.8509 139.271 31.8316 139.271 31.8509 139.289C39.6464 144.208 50.4134 146.404 59.2509 142.706Z" class="fill-black"/>
<path d="M36.4433 143.494C36.424 143.475 36.4047 143.513 36.424 143.532C39.4149 145.747 43.1582 146.46 46.8437 146.892C47.3261 146.948 47.3454 146.179 46.8437 146.141C43.6213 145.878 39.1254 145.465 36.4433 143.494Z" class="fill-black"/>
<path d="M65.4839 223.916C66.2943 223.409 65.5418 222.114 64.7121 222.64C52.8644 230.074 37.4278 229.567 26.0818 221.326C25.9854 221.251 25.8503 221.42 25.9468 221.495C37.4471 230.956 52.7679 231.876 65.4839 223.916Z" class="fill-black"/>
<path d="M29.3812 155.058C31.716 154.533 34.0315 153.876 36.4627 153.819C38.9905 153.782 41.2095 154.608 43.6408 154.908C44.8371 155.058 45.8598 154.889 47.0561 154.758C49.9312 154.439 52.4204 154.627 55.2761 155.208C55.8743 155.34 56.1059 154.495 55.527 154.307C50.6837 152.73 45.8212 154.232 40.9201 153.369C37.0223 152.693 32.7772 152.937 29.2268 154.72C29.0724 154.833 29.1882 155.096 29.3812 155.058Z" class="fill-black"/>
</svg>
