<svg width="196" height="148" viewBox="0 0 196 148" fill="none" xmlns="http://www.w3.org/2000/svg">
<path d="M72.9023 109.515C71.7378 109.301 70.3716 109.854 69.3372 110.374C68.7192 110.68 68.5045 111.519 68.7647 112.118C69.064 112.807 69.7015 113.028 70.4171 112.924C70.6318 112.892 70.8725 112.866 71.1458 112.807C71.3539 112.762 71.5556 112.703 71.7638 112.651C72.2712 112.534 72.8177 112.488 73.2536 112.183C73.7415 111.844 74.0472 111.337 73.9496 110.725C73.8716 110.198 73.4747 109.619 72.9023 109.515Z" fill="#ED1B23"/>
<path d="M73.2988 135.681C73.7867 135.519 74.1901 135.109 74.2031 134.452C74.2226 133.496 74.0795 132.572 73.7672 131.667C73.3899 130.581 72.1799 130.588 71.6269 131.251C70.8267 130.744 69.5581 131.03 69.6557 132.227C70.046 136.865 71.1064 141.432 71.5163 146.077C71.718 148.361 74.7431 147.873 74.7105 146.064C74.717 146.071 74.73 146.071 74.7366 146.077C74.4178 142.655 74.0925 139.084 73.2988 135.681Z" fill="#ED1B23"/>
<path d="M129.853 129.124C129.742 126.672 125.93 126.652 126.027 129.124C126.105 131.089 126.515 132.969 126.964 134.875C127.413 136.788 127.348 138.935 127.979 140.756C128.408 141.986 130.269 142.474 130.952 141.146C132.78 137.588 130.022 132.865 129.853 129.124Z" fill="#00AB2E"/>
<path d="M93.3231 14.229C93.1474 13.3963 92.0805 12.5506 91.5405 11.926C90.6948 10.9502 89.8621 9.96786 88.9448 9.05708C88.7041 8.81637 88.2617 8.99202 88.2617 9.33681C88.2747 10.9957 88.2487 12.6482 88.3073 14.3071C88.3138 14.4827 88.3983 14.6779 88.5675 14.756C88.626 14.782 88.6911 14.795 88.7496 14.821C88.9318 15.2569 89.4587 15.3805 89.7905 15.1333C90.2784 15.2244 90.7664 15.2504 91.2673 15.2113C92.3797 15.348 93.5507 15.2829 93.3231 14.229Z" fill="#251C1C"/>
<path d="M135.043 22.2047C133.755 22.1526 132.473 22.3673 131.205 22.5755C130.411 22.7056 129.448 22.6601 129.227 23.5643C129.175 23.6034 129.169 23.6879 129.214 23.74C129.201 24.0653 129.383 24.371 129.715 24.4686C130.424 24.6638 131.01 25.0281 131.569 25.4379C131.816 25.6656 132.063 25.8933 132.311 26.121C132.844 26.6024 133.566 27.4156 134.295 27.6108C135.7 27.9816 137.47 25.7307 137.678 24.5011C137.958 22.8682 136.377 22.2567 135.043 22.2047Z" fill="#251C1C"/>
<path d="M99.2827 37.4406C98.6126 35.3783 96.4983 34.0252 94.397 35.053C91.8924 36.2826 91.4305 40.0623 91.8859 42.4694C91.9184 42.645 92.0225 42.7622 92.1526 42.8272C92.068 42.8858 92.0225 43.0094 92.1331 43.0874C93.5708 44.1023 95.1777 45.2213 96.7911 45.9239C97.4351 46.2036 97.9165 46.3792 98.5476 45.8848C99.595 45.0651 99.3347 43.0354 99.4193 41.8969C99.5234 40.4462 99.7446 38.8718 99.2827 37.4406ZM98.5801 41.0317C98.5215 42.2807 98.9444 45.1757 97.1098 45.2147C96.8496 45.2213 96.4918 45.0326 96.1275 44.8049C96.1275 44.7984 96.1405 44.7984 96.1405 44.7919C96.8106 43.3672 97.2204 41.8579 97.292 40.2835C97.3245 39.4833 97.4091 38.0521 96.3682 37.8049C95.3273 37.5577 94.7938 39.0084 94.4946 39.7175C94.0132 40.843 93.5383 42.3133 93.8505 43.5493C93.5187 43.3867 93.1935 43.2306 92.8617 43.0744C92.8552 43.0224 92.8487 42.9703 92.8357 42.9118C92.8357 42.9053 92.8422 42.9053 92.8422 42.8988C92.8357 42.8142 92.8292 42.7426 92.8227 42.6646C92.8682 42.5865 92.8942 42.4954 92.8812 42.3783C92.6925 40.4982 92.7186 38.2343 94.0782 36.7445C95.542 35.1376 97.7083 35.7622 98.3914 37.7919C98.7232 38.8133 98.6321 39.9843 98.5801 41.0317Z" fill="#251C1C"/>
<path d="M120.119 41.7606C119.475 39.6658 117.445 38.0979 115.422 39.5617C112.924 41.3703 111.863 45.755 111.258 48.5914C111.148 49.1184 111.974 49.255 112.078 48.7281C112.475 46.7309 113.067 44.7987 113.952 42.9641C114.654 41.5069 116.749 37.2327 119.189 41.3507C119.676 42.1769 119.702 43.5366 119.761 44.4799C119.846 45.8721 119.969 50.1203 118.466 50.7318C118.161 50.8554 117.666 50.7708 117.146 50.6277C117.731 49.8015 117.874 48.2857 118.011 47.4139C118.161 46.4641 118.05 42.6063 116.131 43.6147C115.279 44.0636 115.012 45.5924 114.752 46.4121C114.413 47.4855 114.095 48.6044 114.056 49.7299C113.255 49.5413 112.455 49.3721 111.629 49.281C111.44 49.2615 111.343 49.5282 111.525 49.6128C113.353 50.413 116.007 51.5515 117.991 51.6035C118.792 51.623 119.013 51.623 119.494 51.005C121.062 49.0013 120.795 43.9595 120.119 41.7606Z" fill="#251C1C"/>
<path d="M141.238 18.5291C139.715 14.9901 135.747 12.9929 131.648 12.1732C131.648 12.0301 131.622 11.8805 131.531 11.7243C127.823 5.49199 121.292 1.92693 114.266 0.736409C108.228 -0.284965 99.0035 -0.935523 94.1828 3.66392C91.4375 3.37767 88.6401 3.6444 85.9273 4.52916C85.8362 4.56169 85.7646 4.60723 85.6996 4.65277C85.6931 4.65927 85.6866 4.65927 85.68 4.66578C85.641 4.69831 85.615 4.74384 85.5825 4.78287C85.4849 4.90648 85.4133 5.04961 85.4328 5.20574C85.8817 8.87488 86.1094 12.7067 86.9681 16.3107C86.773 16.2717 86.5648 16.3173 86.4282 16.4994C82.5249 21.5087 80.0202 28.5868 81.2237 34.9427C81.2823 35.242 81.3669 35.5412 81.4449 35.834C81.4449 35.8405 81.4579 35.847 81.4579 35.86C81.51 36.0747 81.5685 36.2894 81.6336 36.504C81.6401 36.5236 81.6336 36.5366 81.6401 36.5496C82.3102 38.9501 83.3771 41.2271 84.6522 43.3544C85.7061 45.1174 86.8966 46.7894 88.1327 48.4223C88.4905 48.8972 88.8418 49.4501 89.2386 49.951C89.1085 50.1787 88.9849 50.426 88.8678 50.7057C87.7358 50.4585 86.5713 50.3024 85.3613 50.2438C83.6763 50.1592 81.7702 50.0617 80.0527 50.452C80.1113 50.7252 80.1763 50.9984 80.2544 51.2717C80.9895 51.083 81.7572 50.9659 82.5314 50.8878C82.694 50.8033 82.8762 50.7903 83.0518 50.8618C84.8994 50.7382 86.8185 50.8748 88.6726 51.2652C88.5035 51.8832 88.484 52.4622 88.5815 53.0152C85.9403 52.833 83.2665 53.2884 81.0025 54.7262C80.6708 54.9343 80.97 55.4873 81.3343 55.3312C83.7999 54.2447 86.1745 53.5226 88.6986 53.5031C89.2191 55.2076 90.839 56.5672 92.4719 57.4845C95.51 59.1955 99.0165 60.3274 102.165 58.4994C102.536 61.1211 106.316 62.3312 108.632 62.689C109.933 62.8906 111.644 62.8711 113.153 62.4287C113.173 62.4483 113.199 62.4678 113.218 62.4873C114.35 63.6973 114.63 65.0765 115.28 66.5207C115.391 66.7745 115.833 66.781 115.859 66.4622C115.996 64.8358 115.15 63.3265 113.895 62.1555C114.662 61.8302 115.345 61.3878 115.833 60.7568C117.362 61.9603 118.52 63.5282 118.826 65.2066C118.91 65.6685 119.568 65.61 119.555 65.1351C119.489 62.9492 117.876 61.4269 116.139 60.3209C116.159 60.2884 116.185 60.2689 116.198 60.2364C116.269 60.0932 116.302 59.9566 116.347 59.8135C122.476 58.8507 128.181 54.6481 131.798 49.7494C134.055 46.6918 136.293 42.7494 137.594 38.6574C137.692 38.2866 137.796 37.9223 137.933 37.5645C137.939 37.5514 137.946 37.5514 137.946 37.5384C137.946 37.5319 137.939 37.5319 137.939 37.5254C138.687 34.7606 138.967 31.9567 138.479 29.3349C138.603 29.3219 138.726 29.2829 138.824 29.2178C140.685 27.9817 141.576 24.5208 142.096 22.4585C142.526 20.7671 142.643 19.4139 141.238 18.5291ZM93.9161 57.0681C92.7841 56.5282 90.891 55.0644 89.9607 53.5551C90.6048 53.6137 91.2618 53.6983 91.9319 53.8609C92.1076 53.8999 92.1466 53.6332 91.9774 53.5877C91.2423 53.386 90.4877 53.2429 89.7265 53.1323C89.4468 52.5533 89.3232 51.9743 89.4728 51.4538C91.5025 51.9548 93.4152 52.7094 94.983 53.6267C95.0676 53.6788 95.1587 53.5356 95.0741 53.4771C93.4087 52.254 91.6261 51.4408 89.7395 50.9269C90.0258 50.5365 90.5007 50.1853 91.2618 49.925C94.6057 48.754 97.8715 53.1258 100.324 56.2485C100.48 56.4892 100.662 56.7103 100.858 56.925C101.196 57.3479 101.515 57.7252 101.807 58.0505C99.3613 59.267 96.2191 58.1546 93.9161 57.0681ZM108.814 58.4669C110.766 58.2066 113.082 58.8962 115.007 60.1518C114.864 60.3665 114.649 60.5486 114.298 60.6722C113.914 61.0235 113.465 61.2577 112.964 61.3944C111.722 60.5226 110.271 59.9566 109.003 59.8786C108.833 59.8655 108.788 60.1062 108.957 60.1453C110.147 60.4055 111.266 60.8934 112.229 61.609C111.377 61.8042 110.46 61.8302 109.614 61.7977C107.331 61.7066 103.557 60.5746 102.412 58.3172C102.425 58.2912 102.432 58.2652 102.432 58.2392C102.451 58.2001 102.451 58.1481 102.445 58.1025C102.503 58.1025 102.562 58.083 102.608 58.0505C102.731 58.057 102.848 58.018 102.926 57.9269C103.011 57.9204 103.095 57.8944 103.161 57.8488C104.26 58.018 105.398 57.8033 106.309 57.1267C106.322 57.1137 106.335 57.1007 106.355 57.0877C106.849 56.9575 107.35 56.8339 107.851 56.7299C108.814 56.5347 109.816 56.3655 110.805 56.3135C111.371 56.32 111.93 56.3265 112.496 56.333C114.266 56.3005 115.04 57.0747 114.832 58.6425C115.092 59.0654 115.176 59.4167 115.163 59.7224C113.212 58.597 111.071 57.7252 108.801 58.2326C108.632 58.2587 108.651 58.4929 108.814 58.4669ZM139.592 25.1258L139.13 26.1212C138.648 26.6481 138.492 27.2076 138.668 27.8126C138.46 27.6695 138.18 27.637 137.972 27.8256L137.855 27.9297C137.562 28.1964 137.497 28.5282 137.705 28.8795C137.725 28.912 137.744 28.9446 137.764 28.9771C137.634 29.0552 137.542 29.1918 137.562 29.3935C137.757 31.4427 137.601 33.5505 137.185 35.6453C136.924 35.4631 136.586 35.3656 136.209 35.268C134.765 34.9037 133.255 34.65 131.785 34.4158C130.061 34.136 127.485 33.7912 126.294 35.4436C125.214 36.9399 126.177 38.8786 127.42 39.913C129.41 41.5784 132.338 42.0923 134.836 42.6193C134.329 43.7057 133.782 44.7726 133.19 45.7875C133.099 45.6704 132.976 45.5728 132.826 45.5077C131.141 44.8507 129.358 44.1286 127.576 43.7773C126.255 43.517 124.922 43.8293 124.291 45.1304C122.807 48.1685 125.943 50.8228 128.448 52.0328C125.084 55.3312 120.999 57.3934 116.51 59.1239C116.653 57.478 115.3 56.0012 113.687 55.4678C111.865 54.8628 109.49 55.0904 107.253 55.6434C107.441 55.11 107.226 54.5375 106.661 54.2317C105.743 53.7308 104.702 54.1667 103.935 54.7326C103.655 54.9408 103.33 55.188 103.05 55.4678C103.043 55.4678 103.03 55.4743 103.024 55.4743C102.608 53.8609 101.176 51.2131 99.7711 52.6118C99.4588 52.9241 99.3938 53.3405 99.4393 53.7698C96.707 50.5756 92.8297 47.2903 90.3706 48.741C89.1605 47.2122 86.3111 42.886 85.9923 42.3656C85.0945 40.8953 84.2879 39.3535 83.6568 37.7466C85.3157 38.3191 87.5471 37.6555 88.5685 36.2763C89.5899 34.9102 89.063 33.4334 87.7293 32.5617C86.1354 31.5208 84.3464 30.5514 82.4663 30.1936C82.5183 29.5105 82.6224 28.834 82.746 28.1639C84.6327 29.8228 87.2869 30.8897 89.7981 30.5449C90.9366 30.3888 91.5936 29.5366 91.444 28.3916C91.2618 27.0059 90.1559 25.9065 89.0304 25.1908C88.3018 24.7289 85.8557 23.5254 84.1642 23.4604C85.062 21.255 86.22 19.1277 87.4105 17.0979C87.4821 16.9808 87.4886 16.8637 87.4626 16.7531C87.6057 16.6881 87.7293 16.5645 87.7293 16.3953C87.7488 13.045 87.1958 9.62953 86.7665 6.28567C88.6206 7.41113 90.4291 8.60816 92.1336 9.9418C93.9812 11.386 95.5815 13.1621 97.4551 14.5477C97.9365 14.9055 98.6261 14.32 98.2423 13.8061C95.6986 10.4232 91.6652 7.74291 87.9115 5.53752C92.654 4.68529 97.2469 5.26429 101.606 7.59979C102.51 8.0812 103.161 6.63696 102.263 6.15555C100.259 5.08213 98.1317 4.334 95.9523 3.91764C98.457 2.62303 101.358 1.99849 104.325 1.78381C104.937 3.46224 107.422 4.02173 109.022 4.334C113.27 5.16671 117.603 5.64162 121.903 6.0905C122.339 6.13604 122.658 5.87582 122.82 5.53102C125.468 7.10537 127.778 9.19365 129.541 11.8349C127.81 11.6528 126.125 11.6658 124.668 11.8609C123.64 11.9976 123.796 13.6174 124.831 13.4678C129.95 12.7457 135.513 14.0013 138.837 17.7615C136.723 17.5403 134.212 18.0217 132.494 18.4251C129.293 19.1862 126.132 20.5329 123.302 22.1983C122.963 22.4 123.276 22.8879 123.621 22.7773C127.524 21.5217 131.252 19.7522 135.402 19.3879C137.653 19.1862 140.483 18.9325 140.743 21.6518C140.841 22.7513 140.034 24.1044 139.592 25.1258Z" fill="#251C1C"/>
<path d="M143.339 78.0806C143.28 74.7107 142.291 71.1586 141.322 67.9969C140.21 64.3668 138.876 59.8975 136.306 57.009C136.287 56.983 136.261 56.9765 136.235 56.97C136.176 53.0081 135.487 48.8575 134.303 45.312C134.264 45.1819 134.146 45.1689 134.055 45.2144C134.042 45.1754 134.036 45.1298 134.023 45.0908C133.782 45.4941 133.541 45.891 133.301 46.3008C133.977 48.5648 134.602 50.8417 134.934 53.2293C134.96 53.3984 134.966 53.5611 134.986 53.7302C135.064 54.6865 135.116 55.6494 135.168 56.6122C133.457 55.9226 131.421 55.8055 129.625 55.9941C128.291 56.1373 125.819 56.456 125.91 58.2516C125.995 59.8845 127.608 61.1661 129.007 61.6735C130.555 62.233 132.917 62.7274 134.641 62.5713C134.68 62.5843 134.712 62.6038 134.751 62.6103C134.973 62.6363 135.103 62.5843 135.298 62.4802C135.356 62.4477 135.376 62.4021 135.415 62.3631C135.376 64.3018 135.278 66.2404 135.057 68.1726C134.634 71.8417 133.925 75.4393 132.988 78.9848C130.536 77.6121 127.133 75.8231 124.31 76.6103C122.443 77.1307 121.051 79.1344 122.098 80.995C122.638 81.9514 123.659 82.4653 124.609 82.9207C126.314 83.7534 128.435 85.0936 130.295 85.4579C130.555 85.5099 130.79 85.5034 131.011 85.4644C130.464 87.0452 129.885 88.6196 129.261 90.1809C129.098 90.0183 128.903 89.8621 128.649 89.7385C127.816 89.3287 126.789 89.2701 125.917 88.8928C124.843 88.4309 123.829 87.8649 122.71 87.5136C121.252 87.0517 119.424 86.785 118.032 87.6177C116.972 88.2488 116.62 89.3417 117.375 90.3696C118.37 91.7227 120.777 92.7181 122.28 93.3036C123.972 93.9607 125.709 94.3185 127.511 94.3575C127.387 94.6307 127.277 94.904 127.153 95.1772C127.12 95.2162 127.094 95.2618 127.081 95.3138C127.075 95.3398 127.062 95.3658 127.055 95.3919C126.977 95.5675 126.899 95.7497 126.815 95.9318C126.763 96.0424 126.769 96.14 126.795 96.2246C126.372 97.5777 125.891 98.9179 125.351 100.206C125.331 100.258 125.318 100.31 125.305 100.362C125.305 100.375 125.305 100.382 125.299 100.395C125.299 100.401 125.292 100.401 125.292 100.408C125 101.286 124.577 102.119 124.076 102.899C121.428 107.726 117.408 111.22 110.778 110.582C106.582 110.179 102.386 107.447 102.341 102.841C102.276 96.5694 109.152 96.4132 113.634 96.9532C113.823 96.9727 113.908 96.719 113.732 96.6344C112.158 95.8993 110.297 95.6066 108.508 95.7757C108.638 92.5945 108.723 89.4718 109.438 86.3426C110.245 82.8036 111.8 79.6874 113.251 76.3956C113.426 75.9923 112.86 75.6084 112.58 75.9793C111.806 77.0006 111.11 78.1456 110.499 79.3622C109.328 77.8789 109.282 75.8947 109.243 74.0471C109.237 73.7934 108.833 73.7869 108.794 74.0341C108.462 76.2785 108.345 78.7571 109.946 80.5266C107.844 85.3082 106.992 91.0592 107.76 95.8733C105.216 96.3092 102.913 97.7339 101.866 100.258C101.339 101.533 101.254 102.86 101.495 104.129C95.6269 104.721 89.7589 105.274 83.8909 105.879C82.4531 106.028 80.9959 106.159 79.5321 106.282C80.02 102.795 78.5758 98.1177 76.6567 95.2487C74.2886 91.6902 70.9253 89.9923 67.3862 87.8845C67.2886 87.8259 67.1846 87.9885 67.2756 88.0601C70.0535 90.1874 73.1892 92.9588 75.1539 95.8538C76.3379 97.5973 77.0275 99.4969 77.4243 101.559C77.7301 103.147 77.7171 104.897 78.3546 106.386C77.7886 106.438 77.2227 106.484 76.6502 106.536C74.9002 106.686 73.1502 106.848 71.4067 107.024C71.3351 107.056 71.2635 107.095 71.1725 107.102C71.1204 107.108 71.0749 107.108 71.0228 107.115C70.9383 107.16 70.8407 107.193 70.7236 107.193H69.8063C68.1018 107.388 66.4039 107.603 64.7189 107.876C64.4717 107.915 64.3676 108.104 64.3676 108.286L64.2961 108.292C64.244 108.299 64.2505 108.377 64.3026 108.377L64.3741 108.37C64.3872 108.423 64.4262 108.468 64.4522 108.514C64.3741 108.559 64.3156 108.631 64.3351 108.748C64.9727 112.111 65.6753 115.423 66.0266 118.838C66.0526 119.066 66.1957 119.215 66.3844 119.287C66.3714 119.313 66.3518 119.339 66.3518 119.378C66.4104 120.835 66.5991 122.279 66.8593 123.717C66.8463 123.73 66.8398 123.743 66.8267 123.763C66.8593 123.977 66.9113 124.199 66.9178 124.413C66.9569 124.582 66.9959 124.758 67.0349 124.934C67.0544 125.025 67.0805 125.109 67.1 125.2C67.1065 125.22 67.1 125.239 67.1 125.259C67.113 125.331 67.126 125.396 67.139 125.467C67.1585 125.441 67.178 125.415 67.1911 125.389C67.2561 125.701 67.3212 126.007 67.3927 126.313C67.4448 126.534 67.4968 126.781 67.5424 127.035C63.5349 125.213 60.0089 123.834 57.0814 120.25C56.3007 119.293 55.6372 118.278 55.0517 117.218C56.587 117.914 58.6753 117.446 59.8333 116.242C61.2385 114.785 59.3844 113.061 58.1483 112.28C57.2636 111.721 56.3007 111.331 55.3379 110.934C54.7914 110.713 53.1325 110.251 52.6836 109.717C52.6836 109.463 52.508 109.249 52.2673 109.203C52.1632 108.676 52.0656 108.149 51.981 107.616C51.8119 106.549 51.6493 105.417 51.5126 104.239C51.7403 104.448 52.0136 104.656 52.3519 104.89C54.6223 106.458 58.1093 107.356 60.5684 105.697C67.679 100.922 55.5721 95.1121 51.4801 93.0954C52.1632 88.4504 53.9522 84.1828 57.8165 81.5675C58.0117 81.4374 57.836 81.1056 57.6149 81.2032C57.1334 81.4244 56.6781 81.6846 56.2487 81.9644C56.3983 81.5285 56.5349 81.0926 56.6976 80.6633C56.9643 79.9607 57.2571 79.2776 57.5628 78.5945C58.5321 79.4272 59.7682 79.8956 60.9978 80.2534C61.7914 80.4811 63.1901 80.9625 64.1009 80.6112C64.4002 80.5462 64.6734 80.364 64.9141 79.9867C66.6251 77.2739 62.7998 73.9495 60.705 72.759C61.4857 71.5099 62.3184 70.2869 63.1836 69.0833C63.5219 72.1019 64.4197 75.0815 65.8444 77.8008C69.2143 84.2478 75.7784 90.7014 82.837 92.9328C90.2793 95.2813 96.4726 88.2813 96.3035 81.0601C96.2189 77.5926 94.1827 74.0406 90.7347 72.9672C89.1344 72.4662 87.4624 72.6549 86.0572 73.364C85.4392 70.6707 83.6306 67.9579 81.3927 66.0192C81.4383 65.9412 81.4773 65.8631 81.5098 65.772C81.8156 64.8612 81.7896 63.1373 81.113 62.4021C80.8528 62.1224 80.4364 62.2785 80.4299 62.6623C80.4169 63.2999 80.7292 63.9114 80.7552 64.562C80.7552 64.575 80.7422 65.0369 80.6836 65.4337C79.955 64.8808 79.2003 64.3993 78.4262 64.0415C78.1204 63.8984 77.7756 64.2887 77.9968 64.562C79.1223 65.9347 80.7422 66.8715 82.0107 68.114C83.6111 69.6754 84.8992 71.4644 85.6864 73.5527C84.6911 74.1382 83.8518 74.9969 83.3249 76.1029C83.0842 76.6103 83.8648 76.9616 84.1186 76.4672C85.4132 73.917 88.4578 72.7525 91.1185 73.9235C93.415 74.9384 94.8137 77.417 95.1325 79.8175C95.7245 84.2673 92.9401 90.2069 88.5098 91.7618C84.1511 93.2906 79.3435 89.9532 76.0256 87.4616C74.2951 86.1605 72.6622 84.7227 71.1855 83.1484C72.0377 83.272 73.0916 83.0963 73.7812 82.9467C75.4076 82.5954 78.0424 81.5545 78.3806 79.6744C78.6994 77.9179 77.021 76.8965 75.4336 77.0201C74.3472 77.1047 73.3779 77.6056 72.376 77.9765C70.9383 78.5099 69.442 78.6856 67.9782 79.0759C67.3277 78.0675 66.7422 77.0201 66.2412 75.9337C66.8723 76.1614 67.666 76.2265 68.6483 76.233C69.7933 76.2395 71.3156 76.22 72.6427 75.8492C72.8379 75.7841 73.0331 75.7255 73.2282 75.6605C73.2347 75.6605 73.2347 75.6605 73.2412 75.654V75.6475C73.2868 75.641 73.3193 75.6149 73.3583 75.6084C73.521 75.5369 73.6836 75.4783 73.8528 75.4198C73.8463 75.4068 73.8528 75.3937 73.8463 75.3872C74.3602 75.101 74.8026 74.7172 75.1083 74.2032C76.0907 72.5378 75.0563 70.7748 73.2477 70.4951C71.9076 70.2869 70.4634 70.7032 69.1427 70.8464C67.5879 71.009 66.0656 70.8724 64.5173 70.9049C64.2961 69.9096 64.1399 68.9077 64.0489 67.8993C64.0684 67.8733 64.0944 67.8408 64.1139 67.8148C64.2505 67.6326 64.153 67.4439 63.9968 67.3789C63.7236 63.1633 64.6604 58.9086 67.0935 55.1614C68.232 53.4049 69.5981 51.746 71.1009 50.1782C73.1046 52.1624 74.9197 54.9077 77.5935 56.0007C79.6037 56.8269 82.4206 56.2804 82.5963 53.7172C82.6353 53.1252 82.4987 52.5527 82.2775 52.0062C82.2905 51.9997 82.3035 51.9932 82.323 51.9867C82.3035 51.9542 82.2905 51.9282 82.271 51.8956C82.2384 51.8436 82.2319 51.7981 82.2189 51.7525C82.2059 51.733 82.1994 51.707 82.1929 51.6809C82.1864 51.6549 82.1799 51.6354 82.1799 51.6094C82.1604 51.5443 82.1344 51.4793 82.1344 51.3947C82.1018 51.4142 82.0628 51.4272 82.0368 51.4533C81.8481 51.089 81.6399 50.7376 81.4318 50.4059C80.573 49.0267 79.6622 47.1075 78.3871 46.0536C77.7561 45.5332 77.1056 45.3185 76.4745 45.312C78.218 43.9198 80.0135 42.6187 81.8026 41.3761C82.4987 41.0313 83.2013 40.6865 83.7282 40.1661C83.9949 39.9059 83.7347 39.5676 83.4225 39.5741C83.6436 39.1122 83.1427 38.4486 82.5963 38.7869C77.665 41.8575 72.0442 46.0276 69.1557 51.2451C68.0108 52.5137 66.9569 53.8603 66.0721 55.3241C63.7236 59.1949 62.7998 63.6512 63.0991 68.062C61.5377 69.7534 60.1716 71.6075 58.9745 73.5722C58.9095 73.6633 58.8574 73.7544 58.7989 73.8519C57.5108 75.9923 56.4308 78.2562 55.5461 80.5852C55.2989 81.2293 55.0517 81.9188 54.811 82.6214C54.9476 82.6475 55.0907 82.68 55.2273 82.7125C52.3388 85.1066 50.8751 88.8278 50.2245 92.8742C50.1009 93.0238 50.0489 93.2385 50.153 93.4142C49.4504 98.391 49.9253 103.784 50.5238 107.759C51.2654 112.697 52.7747 117.615 56.047 121.479C58.7598 124.68 63.1186 128.037 67.4318 128.447C67.5814 128.46 67.7115 128.421 67.8286 128.362C68.0108 129.13 68.2515 129.878 68.6288 130.444C68.9215 130.886 69.3314 131.179 69.7998 131.387C69.7933 131.407 69.7803 131.42 69.7803 131.439C69.7868 131.914 69.8063 132.383 69.8258 132.851C69.9104 133.137 69.9754 133.43 70.008 133.742C70.4178 137.834 70.8212 141.926 71.1399 146.031C71.153 146.031 71.166 146.031 71.1725 146.031C71.3546 146.766 71.6148 147.404 72.0247 147.742C72.5191 148.152 73.5015 147.957 74.0544 147.931C74.1195 147.931 74.1845 147.924 74.2496 147.918C74.4318 148.002 74.6464 147.989 74.8091 147.892C76.2858 147.827 77.7691 147.742 79.2459 147.664C82.8825 147.475 86.5126 147.248 90.1427 147.001C104.136 146.064 118.104 144.711 131.895 142.128C132.221 142.069 132.5 141.803 132.455 141.438C132.396 140.97 132.325 140.501 132.26 140.033C132.279 140.04 132.292 140.04 132.312 140.04C132.299 139.968 132.279 139.903 132.266 139.831C132.221 139.669 132.208 139.506 132.182 139.343C132.175 139.343 132.169 139.343 132.169 139.343C131.746 136.338 131.206 133.352 130.555 130.385C130.256 129.845 130.041 129.266 129.95 128.622C129.905 128.323 129.918 128.024 129.944 127.725C129.879 127.445 129.814 127.165 129.742 126.885C129.84 126.794 129.911 126.69 129.996 126.593C130.041 126.645 130.1 126.677 130.165 126.716C130.25 126.469 130.347 126.228 130.471 125.994C130.464 126.007 130.451 126.027 130.445 126.04C130.458 126.02 130.471 125.994 130.484 125.975C130.575 125.799 130.672 125.63 130.777 125.461C130.75 125.461 130.724 125.467 130.698 125.461C131.59 123.353 131.154 120.328 130.399 117.628C130.451 117.615 130.503 117.615 130.555 117.589C131.733 117.023 132.904 116.463 134.088 115.917C134.745 115.611 134.777 114.739 134.133 114.401C131.362 112.944 130.243 110.296 129.684 107.427C129.703 107.434 129.71 107.447 129.729 107.453C131.974 108.383 135.974 107.824 137.855 106.295C139.689 104.805 138.895 102.333 137.321 100.993C136.28 100.108 134.973 99.5815 133.639 99.3082C132.884 99.1586 132.11 99.0935 131.342 99.074C130.757 99.061 129.69 99.3277 129.066 99.2172H129.059C128.994 99.1651 128.922 99.1261 128.844 99.1066C128.864 98.3779 128.922 97.6493 129.033 96.9337C129.17 96.075 129.397 95.1707 129.69 94.2469C131.752 96.0164 135.896 96.68 138.447 97.3696C140.216 97.8445 143.84 99.3212 145.147 97.1289C146.331 95.1512 144.568 92.3863 143.137 91.0917C140.613 88.8082 136.898 87.8779 133.724 86.8045C135.077 85.1846 136.651 83.8575 138.382 83.1029C138.564 83.0248 138.46 82.745 138.271 82.8101C135.22 83.903 132.468 86.4142 130.471 89.4132C131.115 87.7673 131.713 86.1019 132.266 84.4235C132.949 83.3175 133.197 81.5936 133.45 80.5852C133.45 80.5722 133.45 80.5657 133.45 80.5527C134.667 76.233 135.552 71.8222 135.942 67.3399C136.176 64.6531 136.235 61.9402 136.137 59.2404C136.137 59.1819 136.137 59.1233 136.144 59.0648C136.163 58.8371 136.183 58.6159 136.215 58.4012C136.235 58.2581 136.228 58.115 136.209 57.9718C137.23 61.3352 139.026 64.5294 140.027 67.9254C140.262 68.7255 140.45 69.5257 140.626 70.3324C139.513 70.417 138.434 71.0285 137.529 71.627C136.736 72.154 135.708 72.798 135.747 73.8779C135.766 74.4765 135.994 74.9058 136.345 75.2311C136.365 75.2506 136.384 75.2701 136.404 75.2831C136.469 75.3417 136.54 75.3938 136.619 75.4393C136.664 75.4718 136.71 75.4979 136.755 75.5239C138.102 76.285 140.457 76.0508 141.706 76.0118C141.836 76.7209 141.966 77.43 142.122 78.1326C140.938 78.0675 139.709 78.2692 138.837 78.5685C138.746 78.601 138.765 78.7246 138.856 78.7311C139.962 78.8417 141.055 78.9393 142.148 79.18C142.727 79.3101 143.313 79.5443 143.898 79.6744C153.403 83.6753 155.628 96.1075 153.435 105.28C152.121 110.778 149.252 115.806 145.219 119.762C143.306 121.635 141.14 123.216 138.824 124.556C136.222 126.059 133.431 126.814 130.672 127.933C130.464 128.017 130.549 128.317 130.764 128.304C136.378 128.024 142.181 124.387 146.162 120.633C150.56 116.483 153.546 110.979 154.867 105.092C157.163 95.1512 154.21 81.6261 143.339 78.0806ZM127.524 96.4263C127.55 96.4002 127.569 96.3677 127.595 96.3287C127.504 96.7711 127.433 97.2069 127.387 97.6428C127.303 98.4365 127.264 99.2562 127.257 100.082C126.951 100.082 126.658 100.108 126.372 100.167C126.802 98.9309 127.172 97.6688 127.524 96.4263ZM76.7998 107.635C79.2199 107.369 81.6334 107.069 84.0145 106.835C89.928 106.256 95.8351 105.612 101.749 105.02C102.451 107.239 104.123 109.197 106.159 110.29C110.284 112.495 116.204 112.17 120.055 109.528C122.534 107.824 124.141 105.436 125.325 102.802C125.494 106.302 126.066 109.776 126.32 113.269C126.32 113.282 126.327 113.289 126.327 113.302C124.935 113.725 123.425 113.991 122.072 114.297C116.054 115.657 109.926 116.548 103.785 117.133C92.0554 118.259 80.2933 118.161 68.5247 118.213C68.0823 115.084 67.7766 111.532 66.521 108.598C69.9494 108.41 73.3779 108.032 76.7998 107.635ZM125.631 127.295C123.77 127.699 121.708 127.783 120.335 127.965C113.634 128.87 106.895 129.442 100.148 129.826C93.5646 130.197 86.968 130.385 80.3779 130.541C78.8165 130.58 77.2552 130.626 75.6938 130.672C74.6595 130.698 73.3648 130.854 72.1418 130.776C71.6799 127.126 70.8277 122.715 69.2989 119.365C87.9699 119.638 106.953 119.241 125.13 114.713C126.034 118.897 126.47 122.891 125.631 127.152C125.618 127.204 125.624 127.25 125.631 127.295ZM64.9336 108.696C65.363 108.676 65.7859 108.644 66.2152 108.624C66.2673 111.799 67.1715 115.078 67.6074 118.226C67.4383 118.226 67.2691 118.226 67.1 118.226C66.6316 115.006 66.0266 111.766 64.9336 108.696ZM69.1688 129.624C68.5507 128.948 68.1539 126.716 67.9002 125.285C67.8611 125.226 67.8286 125.174 67.8156 125.09C67.8091 125.031 67.8026 124.979 67.7961 124.921C67.744 124.556 67.7115 124.186 67.679 123.821C67.6595 123.802 67.6399 123.776 67.6139 123.756C67.3082 122.292 67.0544 120.816 66.7357 119.352C66.7357 119.345 66.7292 119.345 66.7292 119.339C67.5554 119.352 68.3816 119.365 69.2078 119.378C69.3444 123.028 70.2487 127.048 71.1139 130.639C70.3593 130.47 69.6762 130.177 69.1688 129.624ZM72.2849 145.706C71.7645 144.333 71.6994 142.59 71.4717 141.133C70.9708 137.951 70.6065 134.744 70.2552 131.543C71.0684 131.797 72.0247 131.817 72.9485 131.784C72.5126 136.696 73.1241 141.965 73.8853 146.844C72.9355 146.721 72.7533 146.929 72.2849 145.706ZM94.7487 145.491C88.705 145.953 82.6483 146.311 76.5981 146.701C76.1232 146.734 75.5767 146.825 75.0433 146.87C74.4253 141.855 74.165 136.748 73.4039 131.765C74.087 131.725 74.731 131.673 75.271 131.667C84.1251 131.615 92.9856 131.42 101.82 130.88C109.757 130.398 117.908 129.858 125.761 128.375C126.092 132.753 126.515 137.242 127.107 141.588C127.114 141.64 127.133 141.679 127.153 141.718C116.419 143.533 105.593 144.665 94.7487 145.491ZM131.193 141.022C130.152 141.217 129.111 141.393 128.064 141.568C128.064 141.542 128.077 141.523 128.077 141.497C127.992 137.177 127.283 132.5 126.177 128.304C126.665 128.206 127.159 128.121 127.641 128.024C128.031 127.939 128.382 127.822 128.701 127.679C129.781 132.083 130.614 136.52 131.193 141.022ZM126.847 126.97C127.68 122.813 127.524 118.448 125.696 114.577C126.444 114.388 127.192 114.206 127.934 113.998C129.189 117.055 129.976 120.308 129.898 123.633C129.853 125.428 128.545 126.404 126.847 126.97ZM129.619 113.536C129.866 113.464 130.009 113.172 129.989 112.931C129.983 112.892 129.983 112.853 129.976 112.82C130.555 113.712 131.277 114.492 132.156 115.123C131.453 115.475 130.757 115.832 130.054 116.184C130.041 116.19 130.028 116.203 130.015 116.216C129.703 115.279 129.378 114.414 129.079 113.692C129.261 113.633 129.443 113.588 129.619 113.536ZM128.148 112.586C128.057 112.664 127.96 112.69 127.869 112.697C127.699 112.807 127.504 112.905 127.264 113.002C127.257 113.002 127.25 113.002 127.25 113.009C127.211 112.736 127.185 112.463 127.146 112.196C127.055 112.079 127.016 111.916 127.055 111.727C127.062 111.695 127.068 111.656 127.075 111.623C126.658 108.338 126.411 105.027 125.767 101.78C125.793 101.715 125.826 101.65 125.852 101.579C126.099 101.462 126.307 101.41 126.502 101.39C126.639 101.338 126.782 101.318 126.932 101.351C128.74 101.377 128.799 104.311 128.812 105.775C128.818 107.648 129.781 111.181 128.148 112.586Z" fill="#251C1C"/>
<path d="M131.01 86.4011C131.03 86.4011 131.03 86.3687 131.004 86.3687L131.01 86.4011Z" fill="#251C1C"/>
<path d="M109.978 65.7597C106.836 62.7671 101.82 63.1705 97.8845 63.9707C97.5397 64.0422 97.351 64.2504 97.2859 64.4911C94.2673 60.7829 89.6809 58.3564 85.6475 61.9409C85.6084 61.98 85.6345 62.058 85.693 62.032C88.8807 60.7634 92.127 60.9781 94.8594 63.2095C97.3445 65.2392 98.3333 68.1082 99.4133 71.0032C99.6605 71.6733 100.565 71.2959 100.428 70.6454C100.07 68.9865 99.1856 67.0933 97.969 65.3824C98.0406 65.3824 98.1056 65.3889 98.1902 65.3759C101.781 64.6017 106.55 64.0487 109.874 65.9288C109.972 65.9874 110.063 65.8378 109.978 65.7597Z" fill="#251C1C"/>
<path d="M107.076 132.689C106.933 132.702 106.842 132.773 106.784 132.871C100.799 131.745 93.4278 131.342 88.1973 134.764C86.4863 135.883 85.0356 137.809 85.5235 139.975C85.9984 142.096 88.1387 143.202 90.0449 143.761C93.3367 144.724 96.9538 144.542 100.291 143.976C103.219 143.481 106.68 142.883 109.048 140.964C112.105 138.466 112.203 132.123 107.076 132.689ZM107.011 140.925C105.19 141.803 103.036 142.226 101.072 142.603C97.201 143.351 92.4259 143.859 88.7502 142.096C84.9835 140.287 86.5318 136.742 89.3097 135.174C91.1768 134.12 93.2911 133.554 95.3989 133.248C99.1917 132.689 102.958 133.124 106.751 133.307C106.816 133.45 106.953 133.547 107.155 133.515C109.978 133.059 110.837 135.837 110.186 137.939C109.763 139.324 108.247 140.326 107.011 140.925Z" fill="#251C1C"/>
<path d="M122.735 118.832C114.869 118.676 107.043 119.782 99.2431 120.647C95.4503 121.07 91.638 121.447 87.8258 121.649C83.8379 121.863 79.8044 121.421 75.836 121.72C75.3676 121.753 75.2505 122.403 75.7254 122.546C82.7905 124.719 91.4429 123.321 98.6445 122.533C106.672 121.655 114.648 120.653 122.741 120.621C123.893 120.621 123.893 118.851 122.735 118.832Z" fill="#251C1C"/>
<path d="M101.963 123.731C98.9122 123.855 95.2951 123.809 92.4067 124.876C92.1139 124.987 92.0489 125.455 92.4067 125.539C95.4057 126.21 98.9318 125.696 101.963 125.409C103.017 125.305 103.056 123.685 101.963 123.731Z" fill="#251C1C"/>
<path d="M109.608 126.216C105.282 126.886 100.93 127.354 96.5581 127.582C92.9215 127.771 89.1613 127.465 85.5702 128.037C85.2059 128.096 85.2319 128.669 85.5702 128.747C89.4801 129.618 93.7998 129.195 97.7682 128.955C101.867 128.708 105.933 128.233 109.992 127.608C110.903 127.458 110.519 126.073 109.608 126.216Z" fill="#251C1C"/>
<path d="M74.6004 113.673C74.5223 112.567 74.6655 111.058 74.2946 110.004C73.7807 108.547 70.6385 109.1 69.4415 109.594C69.435 109.594 69.4285 109.601 69.422 109.601C69.3764 109.62 69.3179 109.64 69.2788 109.659C68.9536 109.816 69.0381 110.297 69.3309 110.427C69.3504 111.559 69.5196 112.691 69.6041 113.816C69.6497 114.46 69.409 115.983 69.8969 116.49C70.3978 117.011 71.8746 116.861 72.4861 116.861C73.0391 116.855 74.3337 117.03 74.7045 116.451C75.0753 115.859 74.6459 114.337 74.6004 113.673ZM73.4814 112.314C73.5205 112.691 73.553 113.068 73.592 113.439C72.5902 113.348 71.3346 113.302 70.3653 113.686C70.3132 113.198 70.2677 112.71 70.1961 112.223C71.2761 112.34 72.3885 112.294 73.4684 112.314C73.4749 112.32 73.4749 112.314 73.4814 112.314ZM69.8188 110.44C70.4368 110.362 71.0419 110.251 71.6664 110.232C72.1608 110.219 72.5186 110.206 72.9415 110.518C73.4294 110.882 73.3839 111.071 73.4229 111.618C72.3365 111.579 71.1915 111.553 70.1181 111.767C70.0335 111.312 69.9424 110.869 69.8188 110.44ZM73.4294 115.846C72.948 116.067 71.8225 115.937 71.2956 115.853C70.2677 115.697 70.4954 114.987 70.4043 114.057C70.4043 114.044 70.4043 114.031 70.3978 114.018C71.3997 114.35 72.6357 114.317 73.6506 114.324C73.6636 114.324 73.6766 114.317 73.6896 114.317C73.7937 114.929 73.9173 115.618 73.4294 115.846Z" fill="#251C1C"/>
<path d="M80.6708 113.836C80.2154 113.699 79.7275 113.816 79.2591 113.927C79.233 113.413 79.0964 112.899 79.0444 112.398C78.9793 111.741 78.9598 111.084 78.9338 110.427C79.4737 110.453 80.0332 110.492 80.4951 110.219C80.6773 110.115 80.7033 109.802 80.4951 109.705C79.9096 109.419 79.2525 109.581 78.6215 109.633C77.9254 109.692 77.2423 109.757 76.5723 109.965C76.4486 110.004 76.4356 110.193 76.5723 110.225C77.1773 110.368 77.7888 110.394 78.4003 110.401C78.2377 111.513 78.0685 112.977 78.4198 114.103C78.036 114.187 77.6522 114.278 77.2879 114.447C77.0862 114.545 77.1317 114.896 77.3529 114.935C77.9384 115.039 78.5174 114.974 79.1094 114.935C79.6689 114.896 80.2934 114.942 80.7749 114.636C81.1001 114.441 81.0416 113.946 80.6708 113.836Z" fill="#251C1C"/>
<path d="M86.6112 109.184C85.206 109.106 83.4495 109.067 82.1159 109.581C81.9728 109.64 81.9207 109.893 82.1159 109.926C82.812 110.043 83.5536 110.056 84.2953 110.037C84.2107 111.429 84.2953 112.827 84.3863 114.22C84.4189 114.668 85.0954 114.675 85.0889 114.22C85.0694 112.814 85.0369 111.409 84.8352 110.024C85.4402 109.998 86.0387 109.965 86.6112 109.958C87.1057 109.939 87.1057 109.21 86.6112 109.184Z" fill="#251C1C"/>
<path d="M43.8419 129.195C40.3159 128.733 36.5557 129.214 32.9972 129.279C29.3801 129.344 25.763 129.364 22.1459 129.383C14.9117 129.409 7.69048 129.273 0.456285 129.383C-0.16825 129.39 -0.135722 130.262 0.456285 130.333C7.89215 131.205 15.341 131.511 22.8224 131.641C29.6468 131.758 37.4079 132.513 44.1022 131.127C45.2862 130.88 44.8373 129.331 43.8419 129.195Z" fill="#251C1C"/>
<path d="M40.9994 119.463C37.545 118.214 33.3359 119.755 30.2067 121.33C29.4911 121.694 29.992 122.93 30.7597 122.644C32.4706 122 34.2271 121.538 36.0487 121.323C37.7206 121.128 39.3405 121.2 40.9994 120.835C41.7411 120.673 41.6175 119.684 40.9994 119.463Z" fill="#251C1C"/>
<path d="M193.802 126.476C177.148 127.257 160.481 127.777 143.814 128.076C143.189 128.089 143.196 129.013 143.814 129.039C160.474 129.768 177.135 129.8 193.802 129.189C195.546 129.124 195.546 126.391 193.802 126.476Z" fill="#251C1C"/>
<path d="M169.425 116.061C167.187 116.653 164.709 116.38 162.445 116.087C161.723 115.996 161.645 117.102 162.282 117.31C164.761 118.103 167.148 118.071 169.712 118.136C171.221 118.169 170.954 115.651 169.425 116.061Z" fill="#251C1C"/>
</svg>
