<svg width="288" height="224" viewBox="0 0 288 224" fill="none" xmlns="http://www.w3.org/2000/svg">
<path d="M53.3961 140.213C55.4733 138.535 52.0499 135.981 50.0708 137.699C49.0812 138.555 48.1273 139.424 47.2002 140.3C45.7738 139.249 44.3207 138.218 42.8943 137.181C41.8423 136.413 39.8364 137.45 40.7814 138.414C42.1365 139.788 43.4738 141.196 44.8556 142.577C43.6699 143.77 42.5198 144.976 41.4144 146.236C40.5853 147.179 42.3415 148.001 43.3578 147.368C44.6861 146.539 45.961 145.69 47.2091 144.821C47.9045 145.454 48.6177 146.081 49.3576 146.681C51.2387 148.21 54.0558 145.98 52.3441 144.423C51.6755 143.81 50.9712 143.224 50.2491 142.638C51.31 141.85 52.3619 141.041 53.3961 140.213Z" fill="#00AB2E"/>
<path d="M176.948 34.7302C175.905 33.9891 174.817 33.2816 173.703 32.6079C174.532 31.9745 175.343 31.3277 176.128 30.6742C177.884 29.1987 175.138 27.0898 173.23 28.4845C172.232 29.2121 171.26 29.9735 170.315 30.7483C168.372 29.7781 166.339 28.9157 164.208 28.188C162.737 27.6894 161.694 29.0774 162.96 29.8051C164.645 30.7753 166.277 31.7859 167.873 32.8235C166.794 33.7735 165.751 34.7302 164.743 35.7004C163.531 36.866 165.376 38.3213 166.91 37.3376C168.202 36.5156 169.486 35.6532 170.752 34.7706C171.813 35.5185 172.856 36.2798 173.863 37.0749C175.816 38.611 179.007 36.1922 176.948 34.7302Z" fill="#ED1B23"/>
<path d="M279.167 160.345C273.622 147.45 248.696 152.429 236.714 156.175C228.45 158.762 220.828 162.548 214.543 167.379C207.723 172.628 202.552 178.611 194.395 182.721C195.171 180.288 195.83 177.829 196.356 175.35C196.401 175.121 196.454 174.885 196.499 174.656C197.123 173.281 197.596 171.806 197.328 170.586C198.398 165.028 199.129 159.146 197.979 153.796C200.769 153.688 203.551 153.581 206.341 153.459C206.35 153.486 206.359 153.507 206.368 153.534C206.564 154.12 207.669 153.965 207.723 153.406C210.941 153.264 212.84 153.123 214.079 152.974C216.076 153.284 218.26 152.893 220.257 152.685C222.237 152.476 224.242 152.26 226.195 151.91C226.346 151.943 226.516 151.97 226.694 151.964C238.301 151.809 249.534 149.707 261.017 148.757C261.685 148.703 262.336 148.359 262.3 147.786C261.418 133.395 260.553 119.024 259.421 104.659C268.042 104.949 274.157 99.1278 274.202 92.5587C274.255 84.6623 265.617 75.6811 255.81 73.1546C255.614 73.1007 255.427 73.094 255.258 73.1007C254.277 62.1791 253.412 52.0526 253.368 50.1728C253.341 50.0583 253.314 49.9437 253.296 49.8292C253.047 49.5866 252.868 49.2902 252.868 48.8994C252.868 48.4682 252.842 48.0572 252.824 47.6327C252.815 47.5856 252.806 47.5452 252.797 47.498C252.806 47.5047 252.815 47.5047 252.824 47.5115C252.788 46.7232 252.717 45.9282 252.61 45.1399C252.494 45.1062 252.378 45.0792 252.262 45.0725C250.586 37.5736 248.268 27.9861 246.191 23.3102C245.05 20.7432 244.078 18.1358 240.485 17.0241C235.752 15.5553 228.967 16.3975 223.993 16.4177C209.791 16.4716 218.305 16.9028 204.139 17.6641C175.727 19.1868 147.467 21.9829 119.206 24.6375C91.0796 27.2786 62.9083 29.7243 34.5944 30.7889C34.425 30.8899 34.2378 30.9843 34.0238 31.0584C33.8634 31.1392 33.6851 31.2066 33.4978 31.2538C32.8738 31.4087 32.2408 31.5502 31.6079 31.6782C31.3761 31.7523 31.1443 31.813 30.9125 31.8534C30.9036 31.8534 30.8947 31.8534 30.8858 31.8534C30.8769 31.8534 30.868 31.8602 30.859 31.8602C31.0195 31.8534 31.171 31.8534 31.3315 31.8467C28.4609 33.1066 26.5709 35.613 25.6438 38.2473C25.1713 40.4707 25.0465 42.7548 24.6721 45.0725C25.2872 51.8572 25.8755 58.6487 26.4194 65.4401C26.4728 65.4468 26.5263 65.4536 26.5887 65.4536C27.0256 70.8099 27.721 76.1528 28.2291 81.5024C13.8136 85.3697 7.99217 110.043 26.9632 111.242C27.8904 111.303 28.764 111.289 29.5753 111.235C29.5218 111.666 29.5842 112.118 29.6644 112.569C29.4505 114.085 29.6644 115.669 29.8606 117.144C30.5649 129.528 31.1889 141.911 31.6792 154.288C31.706 155.029 32.4816 155.629 33.4711 155.642C48.3056 155.892 63.1401 156.026 77.9835 156.053C75.9242 171.779 80.7026 187.39 91.2044 201.013C86.0516 201.154 81.0324 202.873 78.8037 206.477C73.8737 214.421 84.5895 221.131 94.0215 222.068C105.629 223.22 113.421 218.82 117.343 210.85C122.737 199.881 124.279 187.444 125.438 175.781C125.901 175.868 126.365 175.909 126.838 175.909C129.494 176.576 132.24 177.068 135.021 177.351C133.301 188.818 143.99 198.695 159.252 199.76C159.448 199.773 159.6 199.753 159.752 199.719C160.634 202.307 161.65 204.833 162.72 207.232C166.072 214.758 173.73 221.845 185.248 221.441C194.796 221.104 203.266 214.933 201.465 207.447C200.181 202.131 194.199 198.81 187.557 198.17C187.78 197.792 187.976 197.408 188.19 197.024C188.493 197.341 188.975 197.57 189.643 197.577C211.253 197.88 233.728 195.461 253.742 189.074C268.033 184.506 284.882 173.638 279.167 160.345ZM87.5315 153.021C87.576 152.968 87.6117 152.9 87.6206 152.813C88.1288 142.592 87.5403 132.209 86.5419 121.84C103.159 121.294 119.786 120.688 136.403 120.028C137.206 129.891 138.026 139.755 138.882 149.619C138.962 150.529 140.834 150.535 140.763 149.619C139.925 139.728 139.051 129.844 138.16 119.96C159.145 119.125 180.122 118.222 201.099 117.299C201.26 118.748 201.411 120.203 201.581 121.651C202.695 131.259 202.936 141.494 205.601 151C166.251 152.152 126.9 152.846 87.5315 153.021ZM151.131 83.7662C145.737 84.2041 140.335 84.6488 134.941 85.0868C134.005 75.1017 133.06 65.11 132.106 55.1249C138.989 54.6533 145.871 54.1884 152.762 53.7639C167.017 52.8813 181.281 52.1065 195.545 51.3855C196.134 60.9663 196.856 70.5337 197.64 80.1077C182.128 81.2935 166.625 82.5063 151.131 83.7662ZM197.81 82.2098C197.997 84.4265 198.175 86.6364 198.362 88.8531C199.12 97.6927 199.931 106.526 200.876 115.352C179.908 116.201 158.94 117.077 137.972 118.013C137.036 107.705 136.082 97.403 135.12 87.1013C141.324 86.5825 147.529 86.0704 153.743 85.5786C168.426 84.4063 183.118 83.2878 197.81 82.2098ZM133.64 85.1946C116.719 86.5758 99.7984 87.9906 82.8957 89.5335C81.7457 79.3396 80.3638 69.1727 78.7502 59.0259C96.277 57.7189 113.795 56.3848 131.331 55.1788C132.097 65.184 132.864 75.1893 133.64 85.1946ZM133.8 87.2091C134.602 97.5041 135.405 107.799 136.243 118.087C119.625 118.835 103.017 119.63 86.4082 120.493C85.4632 110.966 84.2151 101.452 83.1988 92.1005C83.1809 91.9186 83.1542 91.7367 83.1363 91.5548C100.021 90.1062 116.906 88.624 133.8 87.2091ZM259.546 144.842C258.752 148.13 254.322 147.079 250.452 147.274C242.946 147.665 235.368 148.056 227.96 149.073C227.799 149.026 227.621 149.006 227.425 148.999V148.979C224.759 149.188 222.13 149.579 219.455 149.76C217.155 149.922 214.837 149.781 212.742 150.562C212.608 150.609 212.51 150.677 212.412 150.737C211.271 150.798 209.8 150.859 207.83 150.919C208.071 140.921 205.753 130.538 204.665 120.641C204.54 119.475 204.398 118.31 204.273 117.144C229.368 116.039 231.74 114.921 256.827 113.87C257.504 121.24 258.173 128.605 258.868 135.975C259.118 138.644 260.188 142.208 259.546 144.842ZM261.445 84.5275C261.551 84.4804 261.65 84.4332 261.757 84.3793C261.935 84.2918 262.042 84.1233 261.979 83.9616C261.364 82.3311 258.315 81.8999 256.042 81.8864C255.846 79.69 255.641 77.4531 255.436 75.223C266.74 78.3155 278.124 92.8282 267.15 100.334C259.911 105.286 249.668 100.981 247.172 94.863C245.701 91.2584 246.245 86.6095 250.845 84.3861C252.61 83.5843 254.518 83.1935 256.577 83.2138C258.146 83.207 259.581 83.5034 260.883 84.1031C260.669 84.3591 261.106 84.6825 261.445 84.5275ZM27.3911 35.8959C28.1578 34.764 29.1474 33.8612 30.2974 33.0595C29.4951 34.3935 29.8606 36.1789 30.966 37.5399C28.0419 37.102 26.6244 38.6718 25.9469 40.6526C26.1074 39.0222 26.357 37.4254 27.3911 35.8959ZM17.754 103.817C15.5164 96.9987 19.0467 86.0839 28.3539 83.2946C28.452 84.3996 28.5501 85.4978 28.6214 86.6027C28.7194 88.1389 28.7373 89.6885 28.7194 91.2449C27.507 91.2112 26.2054 91.3527 24.8236 91.7367C24.7077 91.7704 24.7523 91.885 24.8771 91.8715C34.4518 90.8811 38.5883 98.6966 36.9301 104.504C34.7638 112.111 20.0184 110.71 17.754 103.817ZM35.1649 152.941C34.5141 141.244 33.7029 129.561 32.7757 117.892C32.8381 117.771 32.8916 117.636 32.9006 117.481C32.9986 115.958 32.963 114.429 32.7847 112.913C32.6955 112.138 32.6598 111.404 32.2765 110.784C42.4752 108.028 40.3891 94.5463 31.6971 91.7502C31.5544 90.0052 31.4028 88.2804 31.2869 86.6027C30.7699 79.3801 29.9229 72.1372 27.8101 65.0695C27.088 58.5071 26.3213 51.9448 25.5279 45.3892C26.357 42.1147 26.5977 38.8335 32.1606 38.4832C32.5172 38.463 32.6866 38.2204 32.5439 37.9779C31.1443 35.6938 30.7877 33.6119 33.6405 31.8736C33.694 31.84 33.694 31.7995 33.7207 31.7658C87.3442 29.9063 140.335 22.8251 193.816 19.5911C206.983 18.796 220.195 18.1829 233.407 18.0617C234.192 18.1156 234.94 18.2099 235.6 18.3649C244.729 20.5546 245.772 29.2055 247.359 35.303C248.874 41.1377 251.718 64.133 253.804 82.0414C249.935 82.5804 246.717 84.5747 245.308 87.3776C241.974 93.9938 246.94 102.234 255.935 104.221C256.176 106.856 256.425 109.49 256.666 112.125C231.57 113.196 229.172 114.2 204.059 115.217C203.034 106.094 201.973 96.9785 200.974 87.8492C200.76 85.902 200.573 83.9549 200.377 82.0145C204.05 81.7449 207.723 81.462 211.396 81.1992C221.006 80.512 230.617 79.8382 240.236 79.1847C240.673 79.1577 241.047 79.124 241.386 79.0971C241.27 78.2482 241.136 77.406 240.994 76.5638C240.904 76.5772 240.806 76.5975 240.717 76.6109C240.45 76.6581 240.263 76.7726 240.12 76.9074C239.763 76.9411 239.371 76.9815 238.916 77.0085C229.297 77.7024 219.687 78.4166 210.077 79.1375C206.769 79.3868 203.462 79.6496 200.154 79.8989C199.174 70.3652 198.237 60.8249 197.328 51.2845C201.786 51.0622 206.252 50.8196 210.71 50.6108C229.939 49.7147 226.935 49.9168 246.022 48.0303C246.958 47.9359 247.02 46.9253 246.022 46.8916C226.854 46.2448 229.85 48.0101 210.71 48.9331C206.199 49.1487 201.679 49.4047 197.168 49.6338C196.294 40.4775 195.411 31.3279 194.44 22.1783C194.431 22.0907 194.252 22.084 194.252 22.1783C194.466 31.3616 194.885 40.5449 195.429 49.7214C180.755 50.4827 166.09 51.3047 151.434 52.2345C144.935 52.6455 138.445 53.0767 131.946 53.5079C131.135 44.9579 130.314 36.4147 129.503 27.8648C129.494 27.7435 129.245 27.7435 129.253 27.8648C129.913 36.4282 130.564 44.9916 131.215 53.5551C113.634 54.7409 96.0631 56.0412 78.5363 57.5976C77.2436 49.5664 75.8172 41.542 74.2392 33.531C74.2125 33.3761 73.847 33.4098 73.8737 33.5715C74.9346 41.6296 75.9687 49.6877 76.9672 57.7458C63.6572 58.9451 50.365 60.2859 37.1262 61.849C37.0193 61.8625 37.046 61.9972 37.153 61.9905C50.4898 61.1011 63.8176 60.1174 77.1366 59.127C78.4025 69.3142 79.606 79.5081 80.7561 89.7087C67.3123 90.9417 53.8864 92.2758 40.4961 93.7378C40.514 94.1757 40.5496 94.6136 40.5763 95.0516C54.0557 94.0005 67.5263 92.8821 80.9968 91.73C81.0503 92.1814 81.1038 92.6328 81.1483 93.0842C82.1646 102.254 83.0383 111.431 83.8317 120.614C69.6748 121.355 55.5267 122.123 41.3876 122.985C41.2717 122.992 41.2628 123.134 41.3876 123.127C55.5713 122.79 69.7639 122.366 83.9476 121.907C83.9744 122.244 84.01 122.581 84.0368 122.925C84.8748 132.849 84.9907 142.935 86.5597 152.799C86.5775 152.887 86.6221 152.954 86.6756 153.008C69.5054 153.096 52.3352 153.069 35.1649 152.941ZM136.02 177.438C137.981 177.607 139.951 177.661 141.922 177.634C141.369 184.162 148.233 189.795 156.614 190.947C156.899 190.988 157.148 190.947 157.371 190.886C157.799 193.157 158.37 195.414 159.056 197.631C145.318 196.276 135.788 187.875 136.02 177.438ZM157.033 188.865C149.143 187.76 144.908 183.253 144.115 177.56C148.51 177.31 152.851 176.549 156.908 175.201C157.148 175.121 157.3 174.993 157.416 174.858C157.487 174.811 157.559 174.764 157.621 174.716C156.391 179.257 156.337 184.068 157.033 188.865ZM177.412 187.322C176.414 191.055 183.67 192.187 187.914 192.2C187.049 194.094 186.167 195.973 185.231 197.853C185.195 197.92 185.204 197.981 185.195 198.048C183.278 198.048 181.344 198.264 179.489 198.729C177.956 199.113 178.571 200.898 180.167 200.575C191.079 198.379 204.594 205.655 197.319 214.448C191.141 221.906 177.537 220.417 170.423 214.845C164.031 209.832 161.704 201.175 159.76 194.552C157.746 187.693 157.532 181.124 158.227 174.218C158.486 173.962 158.7 173.679 158.896 173.389C159.056 173.288 159.226 173.187 159.386 173.099C161.526 171.853 163.558 170.526 165.457 169.064C165.707 168.875 165.341 168.619 165.083 168.781C163.371 169.825 161.579 170.795 159.689 171.644C159.671 171.604 159.618 171.583 159.573 171.61C159.395 171.718 159.208 171.819 159.029 171.927C158.771 172.035 158.521 172.156 158.263 172.257C156.819 172.837 155.143 173.2 153.698 173.787C144.4 175.612 135.877 175.828 126.579 173.719C124.805 173.16 122.737 172.998 120.963 172.446C118.573 171.705 116.318 170.714 114.098 169.724C114 169.683 113.92 169.778 113.982 169.838C115.738 171.415 117.78 172.675 120.107 173.746C121.007 174.164 121.988 174.642 123.013 175.047C122.861 182.902 121.899 190.657 120.044 198.399C118.538 204.712 116.906 211.604 110.666 216.341C103.534 221.751 87.9772 221.899 82.2449 214.892C78.3312 210.109 81.603 204.658 88.5389 203.317C90.0544 203.028 91.5521 202.953 93.0498 203.014C93.3262 203.108 93.6204 203.122 93.9056 203.068C96.1611 203.23 98.4077 203.641 100.628 204.038C101.528 204.2 102.045 203.29 101.252 202.913C99.2992 201.976 96.9457 201.384 94.4941 201.128C91.7215 197.725 89.359 194.201 87.371 190.583C89.6354 191.311 93.0052 190.536 94.2801 189.108C96.1165 187.053 94.3158 184.964 91.989 183.765C89.7959 182.633 86.6043 181.723 84.2507 181.939C84.0813 181.932 83.9031 181.966 83.7337 182.013C83.7069 182.02 83.6802 182.033 83.6445 182.04C83.6088 182.054 83.5643 182.06 83.5286 182.081C83.5108 182.087 83.493 182.094 83.484 182.094C83.0026 180.807 82.5569 179.514 82.1736 178.213C82.4588 178.334 82.7976 178.436 83.181 178.496C84.3399 178.685 85.5523 178.53 86.7291 178.685C87.8791 178.84 89.0024 179.076 90.1703 179.177C91.8641 179.318 93.8165 179.318 95.2072 178.462C101.305 174.716 85.588 168.363 80.025 167.426C79.6328 163.667 79.5971 159.867 79.9181 156.047C118.787 156.094 157.674 155.38 196.499 153.857C195.741 158.56 195.625 163.256 195.171 167.959C190.9 167.938 186.363 168.888 182.467 170.074C179.757 170.896 177.145 172.56 178.063 175.02C178.99 177.519 182.779 178.712 185.774 179.332C188.315 179.857 190.892 180.416 192.799 179.716C192.327 181.238 191.801 182.754 191.248 184.257C191.132 184.183 191.007 184.115 190.856 184.088C187.156 183.408 178.402 183.617 177.412 187.322ZM267.248 179.682C260.972 184.115 252.824 186.675 244.774 188.67C226.97 193.09 208.347 195.017 189.626 194.707C189.554 194.707 189.492 194.713 189.421 194.72C189.938 193.716 190.437 192.706 190.9 191.695C191.837 191.19 192.425 190.341 191.881 189.512C192.648 187.713 193.316 185.894 193.94 184.061C201.402 182.134 206.894 177.762 212.296 173.288C212.956 176.973 214.962 183.004 220.124 180.868C222.513 179.877 222.718 177.553 222.789 175.74C222.896 173.032 222.13 170.317 220.846 167.804C220.703 167.514 220.462 167.278 220.195 167.062C221.684 166.011 223.226 165.021 224.858 164.152C225.865 163.62 226.89 163.108 227.933 162.616C227.238 164.691 227.648 167.541 227.612 169.043C227.532 171.893 228.04 174.353 231.232 176.125C232.186 176.657 233.826 176.421 234.602 175.794C236.964 173.894 237.445 171.59 237.365 169.05C237.267 166.187 237.891 161.935 235.761 159.436C238.185 158.607 240.673 157.893 243.213 157.286C242.821 159.078 244.274 161.288 244.283 163.135C244.292 165.23 244.248 167.211 245.87 169.01C246.993 170.249 249.668 170.512 250.72 169.01C252.503 166.456 253.769 163.768 254.277 160.904C254.589 159.126 254.963 157.057 253.965 155.359C261.703 154.403 270.921 154.389 274.603 159.422C279.586 166.207 273.988 174.925 267.248 179.682Z" fill="black"/>
<path d="M65.4859 135.989C64.2467 135.908 62.8203 136.642 61.7773 137.094C60.5114 137.639 59.5485 138.353 58.5411 139.135C58.238 139.371 58.6214 139.735 58.9958 139.58C60.1815 139.088 61.4385 138.684 62.6331 138.205C63.7029 137.781 65.1561 137.545 65.9673 136.878C66.4042 136.528 66.0832 136.029 65.4859 135.989Z" fill="black"/>
<path d="M79.4818 134.082C76.9678 133.921 74.4538 134.493 71.9665 134.628C71.4851 134.655 71.4851 135.174 71.9665 135.194C74.4627 135.322 76.9678 135.901 79.4818 135.74C80.8904 135.645 80.8904 134.17 79.4818 134.082Z" fill="black"/>
<path d="M94.7616 136.514C92.7735 135.914 90.625 135.611 88.5033 135.469C88.1645 135.449 88.1021 135.854 88.4231 135.914C90.4913 136.278 92.2743 136.918 94.0572 137.794C95.1181 138.313 96.0542 136.905 94.7616 136.514Z" fill="black"/>
<path d="M110.034 138.812C108.946 138.408 107.912 138.63 106.735 138.657C105.344 138.691 103.989 138.637 102.625 138.428C102.144 138.354 101.805 138.859 102.278 139.054C103.508 139.566 104.827 140.011 106.2 140.227C107.431 140.422 108.973 140.665 110.034 140.052C110.551 139.762 110.747 139.081 110.034 138.812Z" fill="black"/>
<path d="M123.057 136.103C121.979 136.015 121.132 136.783 120.312 137.221C119.384 137.72 118.413 138.151 117.388 138.515C116.915 138.683 117.281 139.141 117.717 139.101C118.966 138.973 120.214 138.771 121.39 138.434C122.389 138.144 123.664 137.834 123.913 136.958C124.056 136.493 123.655 136.15 123.057 136.103Z" fill="black"/>
<path d="M132.436 130.619C131.651 131.097 131.179 131.832 130.626 132.458C130.073 133.085 129.396 133.698 128.709 134.244C128.344 134.534 128.701 135.059 129.244 134.938C131.357 134.446 134.112 133.004 134.041 131.124C134.014 130.457 133.06 130.242 132.436 130.619Z" fill="black"/>
<path d="M147.022 121.623C145.97 121.805 145.364 122.432 144.668 123.011C143.911 123.645 143.278 124.366 142.573 125.033C142.449 125.147 142.609 125.349 142.805 125.255C143.777 124.783 144.811 124.366 145.738 123.84C146.594 123.362 147.414 122.984 147.771 122.189C147.931 121.839 147.45 121.549 147.022 121.623Z" fill="black"/>
<path d="M157.862 111.241C157.728 110.608 156.587 110.487 156.053 110.884C155.125 111.571 154.974 112.723 154.376 113.586C153.752 114.489 153.004 115.317 152.273 116.166C152.032 116.443 152.487 116.719 152.825 116.584C154.163 116.065 155.268 115.284 156.168 114.374C157.069 113.471 158.103 112.414 157.862 111.241Z" fill="black"/>
<path d="M159.511 103.48C159.181 103.002 158.165 103.002 157.835 103.48C157.273 104.282 157.523 105.084 157.657 105.946C157.79 106.809 157.951 107.644 158.183 108.493C158.281 108.857 159.047 108.857 159.145 108.493C159.377 107.644 159.538 106.809 159.671 105.946C159.823 105.077 160.064 104.282 159.511 103.48Z" fill="black"/>
<path d="M157.123 99.4922C156.249 98.394 155.25 97.4844 153.877 96.723C152.719 96.0762 150.98 95.2071 149.482 95.5979C149.028 95.7191 148.725 96.1234 149.019 96.467C149.741 97.3227 151.176 97.6124 152.308 98.0907C153.646 98.6567 154.992 99.3103 156.169 100.051C156.668 100.375 157.497 99.9705 157.123 99.4922Z" fill="black"/>
<path d="M146.353 93.7642C145.105 93.3465 143.83 92.8007 142.475 92.6121C141.388 92.4639 139.988 92.1742 139.168 92.8547C138.927 93.0568 138.909 93.36 139.168 93.5554C139.926 94.1415 140.977 93.9596 141.985 94.027C143.34 94.1213 144.642 94.1685 145.925 94.5391C146.505 94.7142 146.933 93.9596 146.353 93.7642Z" fill="black"/>
<path d="M130.974 93.2727C128.406 93.7983 124.671 94.8089 123.521 96.7897C123.271 97.2209 123.815 97.7734 124.439 97.4837C125.527 96.9919 126.294 96.2507 127.256 95.6376C128.442 94.883 129.761 94.344 131.215 93.9532C131.785 93.805 131.562 93.1515 130.974 93.2727Z" fill="black"/>
<path d="M122.809 100.61C121.597 101.695 119.912 103.79 121.062 105.219C121.338 105.562 122.069 105.508 122.203 105.104C122.417 104.477 122.212 103.804 122.301 103.157C122.417 102.315 122.729 101.634 123.397 100.954C123.656 100.698 123.085 100.367 122.809 100.61Z" fill="black"/>
<path d="M124.269 110.749C123.583 109.84 122.861 108.944 122.37 107.953C122.281 107.771 121.925 107.839 121.978 108.034C122.263 109.085 122.486 110.143 123.021 111.14C123.44 111.928 123.832 112.824 124.831 113.282C125.161 113.431 125.705 113.242 125.66 112.925C125.535 112.09 124.804 111.457 124.269 110.749Z" fill="black"/>
<path d="M133.952 116.199L129.958 114.36C129.227 114.023 128.353 114.838 129.031 115.269C130.217 116.031 131.393 116.785 132.579 117.547C133.836 118.355 135.352 116.839 133.952 116.199Z" fill="black"/>
<path d="M142.868 121.704C142.663 121.468 142.449 121.239 142.217 121.01C141.816 120.613 140.862 120.815 141.076 121.374C141.174 121.644 141.29 121.906 141.415 122.162C141.816 123.018 143.492 122.418 142.868 121.704Z" fill="black"/>
<path d="M154.421 125.457C153.253 125.073 152.067 124.79 150.846 124.52C150.043 124.345 149.553 125.221 150.275 125.538C151.372 126.023 152.459 126.474 153.636 126.845C154.679 127.182 155.464 125.801 154.421 125.457Z" fill="black"/>
<path d="M167.758 125.937C166.983 125.371 166.136 125.694 165.218 125.869C164.068 126.091 162.882 126.26 161.687 126.213C161.215 126.193 161.108 126.765 161.571 126.839C163.167 127.095 167.179 128.093 167.946 126.476C168.035 126.3 167.937 126.065 167.758 125.937Z" fill="black"/>
<path d="M173.874 123.835C172.688 124.441 172.001 125.431 170.522 125.741C169.773 125.896 169.987 126.671 170.7 126.718C172.51 126.846 175.264 125.97 174.988 124.313C174.926 123.936 174.391 123.572 173.874 123.835Z" fill="black"/>
<path d="M180.042 119.124C179.828 119.104 179.685 119.097 179.471 119.124C178.972 119.178 178.74 119.576 178.687 119.906C178.571 120.627 178.276 121.226 177.394 121.604C176.779 121.866 177.216 122.513 177.849 122.426C179.418 122.217 180.808 121.145 180.817 119.906C180.826 119.582 180.496 119.171 180.042 119.124Z" fill="black"/>
<path d="M181.006 111.047C181.015 112.226 181.398 113.418 181.657 114.577C181.746 115.008 182.709 115.008 182.807 114.577C183.056 113.418 183.449 112.226 183.457 111.047C183.457 109.854 180.997 109.854 181.006 111.047Z" fill="black"/>
<path d="M182.61 103.723C182.396 103.615 182.048 103.615 181.834 103.723C180.925 104.181 181.014 104.936 181.059 105.684C181.103 106.526 181.273 107.348 181.424 108.183C181.531 108.783 182.922 108.783 183.029 108.183C183.18 107.348 183.35 106.526 183.394 105.684C183.43 104.942 183.519 104.181 182.61 103.723Z" fill="black"/>
<path d="M182.868 95.9746C182.574 95.5232 181.584 95.631 181.433 96.1161C181.21 96.8707 181.406 97.6388 181.397 98.4001C181.388 99.2154 181.388 100.017 181.255 100.832C181.174 101.344 182.155 101.358 182.36 100.947C183.1 99.4781 183.849 97.4703 182.868 95.9746Z" fill="black"/>
<path d="M183.34 86.8987C182.975 86.454 182.199 86.5888 181.967 87.0334C181.548 87.8487 181.825 88.7986 181.86 89.6611C181.905 90.611 181.869 91.5476 181.736 92.4908C181.673 92.949 182.574 92.9894 182.752 92.5919C183.465 91.0288 184.615 88.4281 183.34 86.8987Z" fill="black"/>
<path d="M181.388 74.4749C180.764 74.3604 180.06 74.7983 180.291 75.3036C180.63 76.038 181.325 76.5905 181.727 77.298C182.163 78.0593 182.342 78.8206 182.217 79.6426C182.137 80.1412 183.242 80.3703 183.501 79.9054C184.463 78.1806 184.383 75.0342 181.388 74.4749Z" fill="black"/>
<path d="M178.857 71.4698C177.244 70.5805 175.425 69.4688 173.41 69.206C172.768 69.1185 172.073 69.7451 172.697 70.1358C174.338 71.1667 176.611 71.517 178.635 71.8876C178.973 71.9415 179.125 71.6113 178.857 71.4698Z" fill="black"/>
<path d="M161.82 39.002L162.204 38.7123C162.23 38.6921 162.186 38.6584 162.159 38.6786C162.025 38.7797 161.901 38.874 161.767 38.9751C161.384 38.7325 160.724 38.6786 160.349 39.0896C159.324 40.2147 158.21 41.2995 157.425 42.5325C157.087 43.0648 157.96 43.6644 158.558 43.1928C159.859 42.1619 160.849 40.9492 161.918 39.7836C162.195 39.4804 162.079 39.1906 161.82 39.002Z" fill="black"/>
<path d="M156.472 44.6143C155.473 45.214 154.6 45.9349 153.949 46.7636C153.432 47.4306 152.79 48.347 153.236 49.1016C153.361 49.3104 153.78 49.3239 153.976 49.1757C154.6 48.6838 154.626 47.8483 154.939 47.215C155.366 46.3391 156.035 45.5913 156.891 44.931C157.167 44.7222 156.766 44.4392 156.472 44.6143Z" fill="black"/>
<path d="M154.206 59.4693C153.047 58.3981 152.155 57.0371 153.19 55.7165C153.413 55.4336 152.86 55.09 152.574 55.3595C151.086 56.7811 150.89 59.3953 153.404 60.2509C154.09 60.4867 154.687 59.914 154.206 59.4693Z" fill="black"/>
<path d="M160.981 63.7087C160.214 63.1967 159.43 62.7183 158.726 62.1523C158.191 61.7279 157.29 62.2736 157.665 62.7722C158.2 63.4796 158.797 64.2073 159.555 64.7934C160.241 65.3257 161.151 66.1005 162.229 65.9119C162.532 65.858 162.809 65.6019 162.782 65.3661C162.711 64.5846 161.694 64.1803 160.981 63.7087Z" fill="black"/>
<path d="M170.789 68.7681C170.379 68.2359 169.755 67.9327 169.042 67.6632C168.31 67.3869 167.597 67.1377 166.893 66.8277C166.447 66.6256 165.921 67.1107 166.322 67.3869C166.929 67.7979 167.455 68.2291 168.016 68.6671C168.569 69.0915 169.149 69.4756 169.933 69.6036C170.566 69.7114 171.128 69.2128 170.789 68.7681Z" fill="black"/>
<path d="M252.573 24.1057C252.457 23.8093 251.878 23.8699 251.869 24.1798C251.753 27.9124 252.11 31.8 252.93 35.4855C253.153 36.5163 255.488 36.2872 255.364 35.2362C254.9 31.517 253.937 27.6901 252.573 24.1057Z" fill="black"/>
<path d="M257.86 26.2137C257.682 25.7556 256.799 25.951 256.924 26.4091C258.288 31.5701 257.521 36.7041 258.181 41.8651C258.315 42.9094 260.553 43.3608 260.829 42.1346C262.006 36.8456 259.83 31.2332 257.86 26.2137Z" fill="black"/>
<path d="M108.035 17.1657C105.53 15.5689 103.159 13.8576 100.689 12.2339C98.8172 11.0009 96.6687 8.80443 94.021 8.97961C93.0582 9.04024 92.3272 9.64665 92.5857 10.4013C93.2721 12.4158 96.5618 13.1367 98.7905 14.0867C101.67 15.3129 104.621 16.4381 107.474 17.698C107.919 17.8934 108.437 17.4218 108.035 17.1657Z" fill="black"/>
<path d="M135.958 6.69524C135.842 4.84241 136.314 2.94916 136.056 1.13002C135.895 -0.0153652 133.444 -0.52742 133.132 0.833564C132.347 4.29666 133.578 9.02641 134.968 12.3615C135.227 12.9814 136.609 12.9072 136.537 12.1998C136.359 10.3672 136.074 8.53459 135.958 6.69524Z" fill="black"/>
<path d="M166.768 2.87422C162.783 5.66356 158.851 8.3586 155.356 11.5252C155.062 11.7947 155.517 12.1451 155.864 11.9093C159.796 9.25469 164.111 6.68769 168.854 4.92246C170.993 4.12069 168.693 1.51997 166.768 2.87422Z" fill="black"/>
<path d="M57.2923 220.383C50.5169 219.076 42.0656 220.558 35.1921 221.003C34.363 221.057 34.363 221.919 35.1921 221.973C42.0745 222.425 50.5258 223.9 57.2923 222.593C58.7365 222.324 58.7365 220.666 57.2923 220.383Z" fill="black"/>
<path d="M145.942 212.938C144.694 212.635 143.339 212.958 142.056 213.08C140.674 213.208 139.292 213.302 137.901 213.389C137.135 213.437 137.135 214.238 137.901 214.292C139.292 214.387 140.674 214.474 142.056 214.602C143.348 214.724 144.685 215.054 145.942 214.744C147.119 214.454 147.119 213.221 145.942 212.938Z" fill="black"/>
<path d="M286.336 215.667C276.797 214.528 266.963 215.02 257.344 215.087C246.914 215.162 236.563 215.573 226.151 215.95C224.778 215.997 224.778 217.513 226.151 217.56C236.563 217.931 246.914 218.348 257.344 218.423C266.963 218.49 276.806 218.982 286.336 217.843C287.753 217.668 287.753 215.842 286.336 215.667Z" fill="black"/>
<path d="M35.0849 196.033C24.0125 194.719 11.6563 196.471 0.468036 196.707C-0.156012 196.721 -0.156012 197.428 0.468036 197.441C11.6563 197.677 24.0214 199.429 35.0849 198.115C36.4488 197.953 36.4488 196.195 35.0849 196.033Z" fill="black"/>
<path d="M242.51 122.857C242.501 122.783 242.34 122.756 242.323 122.837C241.618 126.179 241.6 129.83 242.349 133.166C242.43 133.55 243.268 133.455 243.241 133.071C243.027 129.676 242.759 126.26 242.51 122.857Z" fill="black"/>
<path d="M239.923 134.843C236.054 134.614 232.007 135.106 228.147 135.362C227.754 135.389 227.737 135.834 228.147 135.834C232.06 135.847 236.188 136.076 240.057 135.611C240.672 135.537 240.467 134.877 239.923 134.843Z" fill="black"/>
<path d="M243.901 136.98C243.847 136.717 243.241 136.778 243.286 137.041C243.66 139.506 243.598 142.094 244.204 144.526C244.284 144.843 244.89 144.748 244.908 144.452C245.104 142.013 244.364 139.392 243.901 136.98Z" fill="black"/>
<path d="M254.037 134.116C252.807 133.974 251.604 134.284 250.382 134.412C249.045 134.554 247.708 134.641 246.37 134.796C245.96 134.843 246.103 135.281 246.46 135.308C247.886 135.416 249.312 135.382 250.748 135.322C251.916 135.275 253.11 135.329 254.171 134.938C254.617 134.776 254.537 134.176 254.037 134.116Z" fill="black"/>
<path d="M249.624 129.029C249.054 129.413 248.706 129.891 248.269 130.363C247.797 130.868 247.289 131.353 246.754 131.818C246.335 132.182 246.985 132.694 247.467 132.351C248.59 131.549 250.061 130.565 250.516 129.42C250.676 129.016 250.008 128.773 249.624 129.029Z" fill="black"/>
<path d="M239.746 132.087C238.819 131.609 237.669 131.34 236.635 131.009C236.225 130.875 235.859 131.299 236.269 131.481C237.268 131.926 238.275 132.471 239.372 132.761C239.924 132.903 240.183 132.31 239.746 132.087Z" fill="black"/>
<path d="M239.72 137.761C238.471 138.132 237.286 138.731 236.394 139.493C235.895 139.917 236.376 140.537 237.107 140.422C238.525 140.2 239.791 139.547 240.656 138.684C241.084 138.26 240.37 137.572 239.72 137.761Z" fill="black"/>
<path d="M249.883 139.034C249.187 138.287 247.877 137.923 246.78 137.626C246.522 137.559 246.281 137.849 246.504 137.983C247.395 138.509 248.296 139.243 249.366 139.54C249.731 139.641 250.106 139.277 249.883 139.034Z" fill="black"/>
<path d="M243.195 133.82C241.083 133.82 241.074 136.306 243.195 136.306C245.317 136.306 245.317 133.82 243.195 133.82Z" fill="black"/>
</svg>
