<svg width="256" height="200" viewBox="0 0 256 200" fill="none" xmlns="http://www.w3.org/2000/svg">
<path d="M164.837 48.3833C165.045 48.3833 165.228 48.4089 165.436 48.4089C165.748 48.4344 165.748 47.9236 165.436 47.9236C165.228 47.9236 165.045 47.9491 164.837 47.9491C164.55 47.9747 164.55 48.3578 164.837 48.3833Z" fill="#E6332A"/>
<path d="M178.325 120.749C175.721 120.647 172.961 120.672 170.539 121.692C169.341 122.202 168.612 123.758 168.612 124.982C168.612 125.058 168.612 125.135 168.612 125.211C167.883 126.231 167.544 127.48 167.726 128.806C168.013 130.923 169.471 132.325 171.45 133.039C172.908 133.575 174.653 133.626 176.164 133.192C177.934 132.708 179.288 131.713 180.148 130.26C182.283 129.418 183.585 127.276 183.273 125.007C182.934 122.585 180.877 120.851 178.325 120.749Z" fill="#E6332A"/>
<path d="M177.647 78.1145C177.647 77.4515 177.647 76.7885 177.647 76.151C179.756 75.6156 181.501 73.4737 181.397 71.3572C181.267 68.5269 179.183 66.6654 176.371 66.436C175.876 66.4105 175.355 66.436 174.887 66.5379C170.954 66.8439 167.022 67.5834 163.429 69.1643C163.246 69.2408 163.064 69.3428 162.908 69.4703C162.101 69.6233 161.423 69.8273 160.929 70.0058C161.189 71.5102 161.267 73.1932 161.814 74.6721C162.075 75.3861 163.168 76.0745 164.002 76.253C166.944 76.8905 169.939 77.3495 172.934 77.7575C174.418 78.0125 175.954 78.0125 177.647 78.1145Z" fill="#E6332A"/>
<path d="M177.309 21.6084C175.226 20.3335 172.596 20.4355 170.434 21.5065C170.408 21.532 170.356 21.532 170.33 21.5574C170.122 21.5574 169.914 21.5574 169.679 21.5574C168.872 21.5574 168.039 21.6594 167.257 21.8379C165.278 21.8634 163.325 22.6539 161.789 23.8779C158.378 26.6063 158.378 31.4766 161.502 34.46C164.002 36.8314 167.414 37.1119 170.617 36.4489C174.054 36.3469 177.726 35.2504 179.575 32.216C181.684 28.7482 180.903 23.8014 177.309 21.6084Z" fill="#48AE4C"/>
<path d="M171.867 82.0413C169.367 82.1688 167.18 83.4692 165.409 85.1267C163.664 85.7896 162.18 87.1921 161.685 89.079C160.279 94.2554 165.461 98.5902 170.513 97.4683C172.232 97.0858 174.055 96.1678 175.539 94.8929C175.617 94.8674 175.695 94.8164 175.773 94.7909C176.138 94.7909 176.502 94.7654 176.893 94.7399C177.127 94.3319 177.284 93.9494 177.362 93.5924C178.117 92.7254 178.612 91.629 178.638 90.4815C179.002 89.3085 179.028 88.0591 178.638 86.8096C177.726 83.9282 174.94 81.8883 171.867 82.0413Z" fill="#48AE4C"/>
<path d="M65.8296 117.46C62.0797 117.638 58.3819 117.97 54.6841 118.531C51.3248 119.041 48.0176 119.704 44.7104 120.571C43.0178 121.004 41.3511 121.489 39.7106 122.126C38.096 122.738 35.7784 123.579 34.9451 125.16C34.3982 126.18 34.7368 127.251 35.6742 127.889C36.9763 128.756 39.0856 128.603 40.596 128.526C42.3146 128.424 44.0073 128.246 45.726 128.067C49.0853 127.736 52.4706 127.43 55.8559 127.2C59.1631 126.971 62.4963 126.741 65.8035 126.639C69.293 126.512 72.8085 126.741 76.298 126.588C78.7458 126.486 81.0895 124.574 80.9593 122.024C80.8291 119.321 78.9021 117.715 76.298 117.46C72.8606 117.077 69.267 117.307 65.8296 117.46Z" fill="#48AE4C"/>
<path d="M27.7029 31.4512C29.3956 31.5022 31.0622 31.5787 32.7548 31.4767C34.0829 31.4002 35.385 31.3237 36.7131 31.2472C37.4422 31.2727 38.1713 31.2727 38.9005 31.2727C42.5202 31.2727 46.1399 31.2217 49.7595 31.0942C56.8166 30.8393 63.8997 30.5843 70.9568 30.2528C85.2793 29.6153 99.6018 29.2073 113.924 29.0288C122.023 28.9268 130.148 28.9778 138.272 28.8503C140.642 28.8248 142.934 26.8359 142.83 24.388C142.725 21.9146 140.824 20.0021 138.272 19.9256C123.794 19.5177 109.263 19.8746 94.7842 20.2826C80.4617 20.6651 66.1393 21.2006 51.8428 22.3736C47.6763 22.7305 43.5618 23.1385 39.4474 23.6995C37.4162 23.98 35.411 24.3115 33.4059 24.694C32.4163 24.898 31.4268 25.102 30.4633 25.4589C29.4737 25.8159 28.7185 26.4024 27.8071 26.9124C27.2602 27.2184 27.0259 27.7029 27.0259 28.1874C25.9582 28.4423 25.177 29.0033 25.3072 30.2783C25.4374 31.6297 26.7394 31.4257 27.7029 31.4512Z" fill="#48AE4C"/>
<path d="M201.762 194.543C212.647 194.364 223.506 193.956 234.391 193.65C240.641 193.497 246.917 193.141 253.166 193.88C254.468 194.033 255.562 192.988 255.354 191.968C255.093 190.718 254.078 190.514 253.01 190.616C251.682 190.744 250.38 191.177 249.026 191.228C240.511 191.585 231.995 192.019 223.48 192.172C211.345 192.376 182.361 192.503 170.2 192.58V194.543C175.122 194.594 196.866 194.619 201.762 194.543Z" class="fill-black"/>
<path d="M163.612 154.128C178.299 154.052 203.116 153.797 217.803 153.72C222.387 153.695 227.048 153.746 231.579 154.358C234.183 154.715 236.032 154.154 237.985 152.777C239.6 151.629 240.251 150.431 239.964 148.34C238.923 140.716 237.881 133.091 237.36 125.442C236.631 114.809 235.798 104.201 234.209 93.6699C233.142 86.6321 232.491 79.5179 231.475 72.4547C229.912 61.4901 228.064 50.551 226.553 39.5864C224.861 27.3978 224.262 15.1073 223.559 2.84223C223.532 2.40875 223.559 1.94977 223.454 1.54178C223.168 0.470822 222.543 -0.0901568 221.267 0.0118394C215.59 0.419824 209.887 0.929805 204.21 1.0573C191.086 1.36329 177.961 1.49078 164.836 1.66928C146.53 1.92427 128.249 2.05176 109.942 2.40875C97.4946 2.66374 85.0471 3.17372 72.5995 3.6327C64.4227 3.93869 56.2459 4.29568 48.069 4.78016C38.3297 5.34114 28.6165 6.05511 18.8772 6.71809C13.643 7.07508 8.43481 8.19703 3.12247 7.45756C2.80998 7.40656 2.44541 7.48306 2.10688 7.53406C0.284019 7.81455 -0.210758 8.45203 0.075692 10.186C0.231937 11.1549 0.544428 12.1239 0.570469 13.0929C0.804837 25.3834 1.09129 37.6994 1.19545 50.0155C1.22149 55.0643 0.674632 60.1131 0.648591 65.1619C0.570469 81.0733 0.544428 97.0102 0.62255 112.947C0.648591 118.225 0.961082 123.478 1.27357 128.757C1.79439 137.197 2.44541 145.611 2.94019 154.052C3.04435 155.684 4.03391 156.219 5.23179 156.423C7.31506 156.755 9.45041 156.882 11.5858 156.958C21.1167 157.239 30.6477 157.162 40.1786 156.398C46.3243 155.913 77.1046 156.015 83.2763 155.786C91.349 155.505 99.4216 155.148 107.468 154.817C107.468 154.842 107.468 154.893 107.468 154.919C110.046 154.919 112.624 154.995 115.202 154.893C117.051 154.817 117.963 155.76 118.249 157.315C118.588 159.253 118.64 161.242 118.9 163.206C119.473 168.025 116.869 171.085 113.015 173.431C112.26 173.89 111.426 174.247 110.619 174.604C107.26 176.134 103.849 177.536 100.593 179.219C93.7968 182.713 88.0939 187.277 85.1773 194.595C84.0054 197.527 84.7346 198.777 87.9376 198.649C90.5157 198.547 93.0937 198.292 95.6718 198.241C104.63 198.037 113.614 197.859 122.572 197.782C131.426 197.68 140.28 197.833 149.134 197.655C153.821 197.553 158.508 197.043 163.196 196.635C165.461 196.431 166.737 194.595 165.93 192.326C164.914 189.444 163.899 186.435 162.206 183.911C160.071 180.749 157.545 177.791 153.43 176.644C150.097 175.726 146.842 174.476 143.665 173.125C140.592 171.824 138.587 169.326 138.092 166.138C137.624 163.129 137.676 160.018 137.806 156.958C137.91 154.766 138.587 154.281 140.775 154.256C151.425 154.128 127.364 154.001 138.014 154.001C146.556 153.924 155.097 154.179 163.612 154.128ZM135.436 168.306C137.051 172.666 139.837 175.598 144.16 177.281C145.41 177.766 146.66 178.327 147.962 178.607C155.54 180.188 160.201 184.599 161.842 192.53C159.68 192.963 157.545 193.575 155.383 193.805C146.998 194.697 138.613 194.748 130.202 194.595C120.15 194.442 110.098 194.876 100.021 195.029C96.7915 195.08 93.5624 195.029 90.3594 195.029C89.6042 192.81 90.4115 191.204 91.6094 189.674C94.0572 186.563 97.2082 184.293 100.724 182.509C104.916 180.392 109.213 178.531 113.354 176.363C116.843 174.553 120.359 172.462 121.426 168.484C122.103 165.909 121.843 163.104 121.843 160.375C121.843 158.565 121.556 156.729 121.374 154.511C125.879 154.511 129.968 154.511 134.525 154.511C134.525 155.735 134.551 156.984 134.525 158.259C134.395 161.625 134.186 164.94 135.436 168.306ZM106.14 152.063C91.4531 152.496 52.1574 152.726 37.4964 153.72C28.8248 154.307 20.2313 153.924 11.6118 153.593C7.10673 153.414 6.3255 152.904 5.96093 148.442C5.12762 138.497 4.52868 128.527 3.82558 118.557C3.59121 115.37 3.3308 112.208 3.25268 109.02C3.04435 100.682 2.73186 92.3184 2.80998 83.9802C2.88811 76.0755 3.35684 68.1708 3.82558 60.2661C4.32036 51.3669 4.00786 42.5188 3.46101 33.6196C3.01831 26.5054 3.27872 19.3401 3.35684 12.2004C3.38288 10.1605 4.00786 9.80348 6.09113 9.65048C13.9034 9.0385 21.7157 8.32453 29.554 7.81455C38.7204 7.22807 47.9128 6.69259 57.1052 6.3101C72.8079 5.69813 88.4845 5.13715 104.187 4.70366C117.312 4.34668 130.436 4.09169 143.561 3.93869C157.701 3.7602 171.841 3.7857 185.982 3.6327C195.174 3.53071 204.366 3.27572 213.559 3.09722C214.444 3.07173 215.382 3.04623 216.241 3.19922C219.47 3.7347 220.173 4.32118 220.486 7.55956C221.163 14.6483 221.579 21.788 222.309 28.8768C222.908 34.6651 223.741 40.4023 224.548 46.1651C225.538 53.1264 226.605 60.0621 227.621 67.0233C228.636 73.9591 229.704 80.8948 230.537 87.8816C231.553 96.6023 233.272 105.221 233.636 114.018C233.975 122.458 234.678 130.898 235.251 139.339C235.329 140.435 235.746 141.481 235.85 142.577C236.084 144.948 236.24 147.32 236.475 150.38C233.506 150.66 231.215 151.043 228.923 151.043C219.392 151.068 209.835 150.864 200.304 150.941C188.091 151.017 165.774 151.374 153.561 151.374C141.556 151.374 164.237 150.89 152.259 151.017C136.842 151.119 121.504 151.604 106.14 152.063Z" class="fill-black"/>
<path d="M178.325 139.083C189.21 138.981 200.069 138.828 210.955 138.751C213.064 138.751 215.199 139.032 217.335 139.21C218.585 139.312 219.834 139.057 219.782 137.655C219.678 134.646 220.876 131.892 220.381 128.705C219.183 120.8 218.819 112.768 218.168 104.787C217.777 100.069 217.673 95.352 217.178 90.6602C216.033 79.9506 215.564 69.19 215.564 58.4294C215.564 52.1821 215.98 45.9094 215.98 39.6621C215.98 34.4093 215.642 29.131 215.512 25.4081C215.512 20.0278 215.512 16.1775 215.512 12.3271C215.512 9.54772 214.574 8.80825 211.866 9.16524C210.668 9.31823 209.444 9.24174 208.22 9.21624C206.658 9.16524 205.095 8.98674 203.559 9.01224C200.434 9.08874 197.309 9.39473 194.184 9.44573C185.096 9.57322 176.008 9.72622 166.919 9.70072C154.68 9.64972 142.441 9.34373 130.228 9.31823C125.176 9.31823 120.124 9.67522 115.098 9.93021C108.718 10.2617 102.338 10.8227 95.958 10.9757C86.7916 11.1797 77.5992 9.98121 68.4068 10.9757C63.5111 11.5111 58.5112 11.2562 53.6155 11.7916C42.5742 12.9646 31.5589 14.316 20.4395 14.571C18.226 14.622 15.9604 14.571 13.799 14.1376C10.7262 13.5001 8.95542 15.03 9.26791 18.1664C9.99706 25.0256 10.8304 31.9104 11.221 38.7951C11.7158 47.6688 12.2887 56.5425 12.3668 65.4416C12.523 85.1014 13.3303 104.761 13.9292 124.421C14.1376 131.102 14.45 137.808 14.7625 144.489C14.8667 146.58 15.7521 147.447 17.8874 147.523C18.877 147.549 19.8926 147.37 20.8821 147.217C22.4186 146.937 23.9289 146.427 25.4653 146.299C36.5327 145.407 47.6001 144.489 58.6675 143.724C67.1568 143.137 75.6982 142.831 84.1875 142.347C95.2549 141.709 106.322 140.868 117.416 140.434C131.191 139.873 144.993 139.593 158.769 139.261C165.305 139.057 171.815 139.159 178.325 139.083ZM124.343 137.859C117.285 138.114 110.202 138.088 103.145 138.369C97.1038 138.624 91.0623 139.134 85.0208 139.516C80.3335 139.797 75.6201 140.052 70.9067 140.332C63.1725 140.766 55.4384 141.097 47.7303 141.684C39.5795 142.296 31.4547 143.163 23.3039 143.902C22.3144 143.979 21.2988 143.826 20.3092 143.826C18.5905 143.8 18.0697 142.933 17.9916 141.301C17.6791 136.048 17.0541 130.796 16.8458 125.543C16.4552 115.012 16.2208 104.455 16.0125 93.8986C15.7261 80.6135 15.7521 67.3031 15.2313 54.0181C14.7886 42.722 13.773 31.4514 13.0438 20.1553C12.9918 19.4159 13.122 18.6764 13.2001 17.7584C20.5436 17.2484 27.4965 16.8405 34.3974 16.2285C39.5274 15.7695 44.6054 15.0045 49.7354 14.367C50.074 14.316 50.4125 14.265 50.751 14.265C58.5893 13.9081 66.4276 13.3471 74.266 13.2451C82.0001 13.1176 89.7342 13.5511 97.4684 13.5511C101.479 13.5511 105.515 13.0921 109.525 12.8371C116.244 12.4291 122.936 11.6896 129.655 11.6641C141.764 11.6386 153.873 12.0466 166.008 12.2251C168.482 12.2506 170.956 12.1231 173.404 12.0721C181.58 11.9446 189.757 11.7151 197.908 11.7406C201.944 11.7661 205.955 12.2761 209.991 12.5311C211.84 12.6586 212.1 13.9591 212.204 15.3105C212.387 17.6054 212.517 19.9003 212.543 22.2207C212.673 31.9869 212.751 41.753 212.803 51.5191C212.856 59.2964 212.647 67.0991 212.986 74.8763C213.402 84.0814 214.236 93.2866 214.939 102.492C215.642 111.467 216.449 120.443 217.178 129.393C217.23 130.158 217.282 130.923 217.256 131.688C217.204 134.06 216.84 134.417 214.444 134.85C207.1 136.176 199.653 135.36 192.283 135.666C187.257 135.87 182.205 136.099 177.18 136.227C174.263 136.303 171.346 136.201 168.43 136.252C159.576 136.405 150.696 136.533 141.842 136.839C135.983 137.068 130.176 137.655 124.343 137.859Z" class="fill-black"/>
<path d="M191.45 24.8977C194.106 25.0252 196.814 24.9487 199.392 25.4842C202.283 26.0961 202.673 25.9431 202.413 22.5517C197.778 22.2712 193.142 21.9143 188.507 21.8123C187.934 21.8123 187.335 23.0872 186.736 23.8012C187.309 24.2092 187.804 24.8467 188.429 24.9742C189.419 25.1017 190.46 24.8467 191.45 24.8977Z" class="fill-black"/>
<path d="M197.153 28.2382C194.471 28.1107 191.815 28.1362 189.132 28.0597C187.987 28.0342 187.075 28.2637 187.023 29.5386C186.971 30.7371 187.726 31.3491 188.898 31.3491C192.127 31.3236 195.356 31.2726 198.585 31.1451C199.679 31.0941 200.512 30.6096 200.46 28.9012C199.392 28.6717 198.273 28.2892 197.153 28.2382Z" class="fill-black"/>
<path d="M188.169 36.8568C192.049 36.8823 195.929 36.8568 199.809 36.8568C199.653 34.0519 199.054 33.4144 196.632 33.4909C193.872 33.5674 191.111 33.7969 188.325 33.8734C187.231 33.8989 186.19 33.9499 186.112 35.2504C186.033 36.5508 187.075 36.8568 188.169 36.8568Z" class="fill-black"/>
<path d="M197.466 91.9095C195.904 91.7565 194.342 91.578 192.779 91.425C192.779 91.4505 192.779 91.5015 192.779 91.527C191.555 91.527 190.253 91.323 189.107 91.6035C188.456 91.7565 188.014 92.751 187.467 93.363C188.04 93.822 188.561 94.3319 189.185 94.6634C189.524 94.8419 190.071 94.6634 190.514 94.6889C192.727 94.7144 194.967 94.6889 197.18 94.7654C198.196 94.8164 199.055 94.7399 199.133 93.5925C199.211 92.547 198.482 92.037 197.466 91.9095Z" class="fill-black"/>
<path d="M189.394 112.079C188.821 112.487 188.378 113.482 188.378 114.195C188.378 114.603 189.394 115.317 189.992 115.343C192.544 115.47 195.096 115.394 197.857 115.394C197.857 114.374 197.987 113.966 197.831 113.762C196.763 112.513 190.643 111.187 189.394 112.079Z" class="fill-black"/>
<path d="M185.748 45.3991C189.107 45.3991 192.44 45.3991 195.8 45.3991C195.93 45.6541 196.034 45.9091 196.164 46.1895C196.737 45.5521 197.727 44.9911 197.831 44.2771C198.013 43.0787 196.972 42.6452 195.826 42.6962C195.149 42.7217 194.472 42.7472 193.821 42.7217C191.243 42.6197 188.691 42.5432 186.139 42.3392C185.071 42.2627 184.055 42.0332 183.821 43.4102C183.561 44.8636 184.42 45.3991 185.748 45.3991Z" class="fill-black"/>
<path d="M188.117 98.0546C187.57 98.1821 187.31 99.559 186.919 100.349C187.57 100.579 188.273 101.114 188.846 101.012C191.58 100.553 194.289 99.9415 196.997 99.2785C197.492 99.151 197.83 98.5135 198.377 97.9781C194.731 96.0656 191.372 97.3151 188.117 98.0546Z" class="fill-black"/>
<path d="M187.623 48.816C186.919 48.816 185.748 49.8104 185.591 50.4989C185.331 51.6719 186.399 52.1053 187.544 52.1053C187.779 52.1053 187.987 52.0798 188.221 52.0798C190.773 52.1053 193.325 52.0798 195.877 52.1563C197.752 52.2073 197.935 52.0033 197.752 49.224C194.393 49.0455 191.008 48.7905 187.623 48.816Z" class="fill-black"/>
<path d="M189.21 127.889C190.304 127.889 191.423 127.71 192.517 127.608C192.517 127.583 192.517 127.583 192.517 127.557C193.611 127.481 194.731 127.379 195.85 127.353C196.762 127.353 197.908 127.379 197.725 126.206C197.647 125.619 196.684 124.803 196.033 124.676C193.871 124.293 191.658 124.14 189.47 123.987C188.22 123.911 187.309 124.446 187.257 125.823C187.179 127.149 187.882 127.863 189.21 127.889Z" class="fill-black"/>
<path d="M196.528 86.6312C194.913 86.3252 193.247 86.2487 191.762 86.0957C190.252 86.0957 188.872 85.8917 187.622 86.1722C187.023 86.2997 186.32 87.3196 186.268 87.9826C186.19 88.8751 186.867 89.5635 187.987 89.538C190.747 89.436 193.507 89.436 196.241 89.2065C196.788 89.1555 197.283 88.3396 197.83 87.8806C197.413 87.4471 197.049 86.7331 196.528 86.6312Z" class="fill-black"/>
<path d="M189.104 58.7861C191.604 58.5056 194.104 58.3016 197.047 58.0211C197.411 56.3127 196.187 55.5222 194.677 55.3692C192.672 55.1907 190.641 55.2927 188.636 55.3947C187.386 55.4712 186.474 56.1597 186.578 57.5111C186.735 59.0921 187.933 58.9136 189.104 58.7861Z" class="fill-black"/>
<path d="M189.081 128.857C188.456 128.908 187.596 129.877 187.414 130.54C187.101 131.688 188.247 132.096 189.107 132.045C191.528 131.917 193.95 131.611 196.346 131.28C196.737 131.229 197.049 130.566 197.752 129.826C194.549 128.551 191.789 128.653 189.081 128.857Z" class="fill-black"/>
<path d="M188.534 111.008C191.06 110.829 193.586 110.625 196.502 110.421C197.466 107.974 197.18 107.464 194.601 107.387C192.492 107.336 190.357 107.26 188.248 107.209C186.972 107.183 186.034 107.642 186.06 109.07C186.06 110.37 187.076 111.11 188.534 111.008Z" class="fill-black"/>
<path d="M196.136 119.244C196.475 119.015 196.527 118.352 196.814 117.638C191.319 116.388 188.454 117.281 188.09 120.086C190.303 120.596 194.756 120.188 196.136 119.244Z" class="fill-black"/>
<path d="M187.753 82.0668C188.248 82.1943 188.82 81.8373 189.367 81.7098C191.32 81.1998 193.273 80.7918 195.174 80.1798C195.773 80.0013 196.216 79.3384 196.737 78.9049C196.164 78.3949 195.617 77.8849 195.148 77.4514C192.102 78.1399 189.471 78.6499 186.919 79.3639C186.451 79.4914 185.826 80.6388 186.008 81.0213C186.216 81.5313 187.102 81.9138 187.753 82.0668Z" class="fill-black"/>
<path d="M185.434 70.3115C186.866 70.286 188.325 70.3115 189.757 70.3115C189.757 70.3625 189.757 70.439 189.757 70.49C191.189 70.49 192.647 70.592 194.08 70.439C194.705 70.3625 195.668 69.8781 195.798 69.4191C196.085 68.4246 195.33 67.8891 194.262 67.7871C192.491 67.6341 190.72 67.4811 188.976 67.3026C187.882 67.2007 186.762 66.9967 185.668 66.9202C184.497 66.8437 183.351 66.9967 183.273 68.5011C183.221 69.9291 184.132 70.337 185.434 70.3115Z" class="fill-black"/>
<path d="M195.644 75.1818C196.347 73.8049 195.644 72.632 194.368 72.5045C191.529 72.224 188.613 72.275 185.748 72.4535C185.305 72.479 184.706 73.7284 184.628 74.4679C184.602 74.7484 185.748 75.5133 186.347 75.5133C189.342 75.4878 192.31 75.3093 195.644 75.1818Z" class="fill-black"/>
<path d="M177.597 132.58C178.716 132.478 179.836 132.682 180.956 132.555C182.831 132.377 183.404 131.612 182.701 129.929C181.841 127.914 181.815 125.9 181.998 123.783C182.102 122.738 182.024 121.667 182.024 120.315C180.617 120.417 179.628 120.519 178.664 120.57C175.774 120.749 172.909 120.953 170.019 121.106C169.133 121.157 168.196 121.029 167.337 121.208C165.462 121.616 164.941 122.763 165.383 124.599C165.852 126.614 166.165 128.654 166.347 130.694C166.581 133.345 167.258 133.804 169.993 133.32C172.467 132.963 175.045 132.784 177.597 132.58ZM169.003 124.472C172.388 124.293 175.461 124.115 178.899 123.936C179.029 125.9 179.159 127.685 179.341 129.903C176.373 130.158 173.56 130.311 170.774 130.005C170.123 129.929 169.342 128.73 169.081 127.889C168.795 126.996 169.003 125.951 169.003 124.472Z" class="fill-black"/>
<path d="M158.742 35.9898C159.002 37.4433 159.758 37.9533 161.32 37.8003C163.638 37.5708 166.007 37.6983 168.325 37.5708C172.335 37.3668 176.372 37.1118 180.382 36.8058C181.814 36.6783 182.569 35.8623 182.335 34.3324C181.997 32.165 181.762 29.9976 181.476 27.8301C181.528 27.8301 181.606 27.8301 181.658 27.8046C181.658 27.0397 181.658 26.2747 181.658 25.5097C181.658 24.7448 181.788 23.9798 181.71 23.2148C181.502 20.7669 180.694 20.2059 178.247 20.6649C172.153 21.7614 166.086 22.3733 159.992 20.6649C159.393 20.4864 158.013 21.0474 157.857 21.5064C157.362 23.1638 156.919 24.9742 157.101 26.6572C157.414 29.7681 158.169 32.8535 158.742 35.9898ZM160.929 24.3113C165.851 24.0818 170.408 23.7758 174.965 23.6738C178.195 23.5973 178.299 23.8523 178.507 26.9632C178.611 28.3656 178.95 29.7681 179.08 31.1705C179.262 33.3634 178.872 33.8479 176.71 34.3579C172.283 35.4289 167.83 34.8679 163.377 34.6639C162.258 34.6129 161.034 34.1029 160.982 32.777C160.851 29.9721 160.929 27.1672 160.929 24.3113Z" class="fill-black"/>
<path d="M158.664 55.3181C158.951 58.429 160.331 59.8059 163.534 59.6784C165.747 59.6019 167.987 59.6019 170.2 59.6529C172.882 59.7039 175.565 59.9079 178.247 59.8569C181.867 59.7804 182.231 59.2704 181.762 55.6496C181.658 54.8846 181.476 54.1451 181.372 53.3802C181.059 51.1107 180.799 48.8158 180.617 47.4134C180.877 42.6196 180.721 42.5686 176.658 42.6961C171.086 42.8491 165.513 42.8491 159.94 42.8491C157.649 42.8491 156.867 43.5375 156.919 45.7305C156.945 46.3679 157.154 47.0054 157.284 47.6429C157.753 50.1928 158.43 52.7427 158.664 55.3181ZM162.779 45.6285C166.919 45.5265 171.06 45.5265 175.2 45.4755C176.424 45.45 177.57 45.705 177.726 47.0819C178.117 50.3203 178.403 53.5587 178.768 57.307C172.804 57.7915 167.57 56.6695 162.206 56.2361C160.747 53.0232 161.112 49.7083 160.617 46.2914C161.372 46.0364 162.076 45.6285 162.779 45.6285Z" class="fill-black"/>
<path d="M176.764 116.822C177.545 116.899 178.326 117.103 179.081 117.103C180.826 117.103 181.868 115.981 181.061 114.655C179.628 112.309 179.706 109.861 179.706 107.362C179.706 105.603 178.743 104.761 177.024 104.685C174.68 104.557 172.337 104.455 169.993 104.353C169.993 104.277 169.993 104.226 169.967 104.149C166.868 104.506 163.743 104.685 160.697 105.297C158.796 105.679 158.587 106.776 159.29 108.51C159.941 110.09 160.618 111.748 160.879 113.405C161.504 117.638 163.196 118.99 167.181 117.485C170.436 116.261 173.561 116.542 176.764 116.822ZM164.446 114.094C164.108 112.538 163.717 111.059 163.483 109.555C163.275 108.255 164.004 107.388 165.332 107.337C168.327 107.235 171.347 107.184 174.342 107.311C175.045 107.337 176.087 108.127 176.269 108.739C176.738 110.371 176.842 112.105 177.102 114.068C172.858 114.094 168.899 114.094 164.446 114.094Z" class="fill-black"/>
<path d="M161.19 78.7773C162.18 78.9303 163.169 79.4658 164.107 79.3638C167.544 78.9813 170.747 79.9248 174.054 80.5878C176.346 81.0467 178.742 81.3527 180.721 79.6698C180.721 76.4569 180.356 73.5755 180.799 70.7961C181.528 66.2063 180.018 65.8238 176.19 65.7473C170.956 65.6708 165.773 67.0222 160.435 65.9258C158.065 65.4413 156.529 68.1697 157.336 70.4136C157.935 72.1476 158.456 73.958 158.716 75.7684C158.925 77.4004 159.419 78.4968 161.19 78.7773ZM177.648 69.1132C177.648 72.0966 177.648 74.927 177.648 78.1143C175.955 78.0123 174.419 78.0123 172.935 77.7829C169.94 77.3494 166.945 76.9159 164.003 76.2784C163.169 76.0999 162.076 75.4114 161.815 74.6975C161.268 73.193 161.19 71.5356 160.93 70.0311C163.977 68.7817 173.924 68.2462 177.648 69.1132Z" class="fill-black"/>
<path d="M179.365 84.4634C178.506 82.6785 176.501 84.0299 175.069 83.877C171.084 83.4945 167.048 83.4435 163.012 83.418C159.861 83.3925 158.611 85.3304 159.522 88.3648C159.991 89.9202 160.225 91.5522 160.512 93.1586C160.694 94.2041 160.772 95.3005 160.928 96.601C162.152 96.601 163.142 96.55 164.105 96.601C168.558 96.8814 173.011 97.2639 177.464 97.5189C180.068 97.6464 180.85 96.601 180.407 94.1276C180.094 92.4191 179.912 90.6852 179.756 88.9513C179.6 87.4468 179.964 85.7384 179.365 84.4634ZM176.839 94.7395C172.491 95.173 168.272 93.5156 163.611 93.3371C163.35 92.5721 163.064 92.0876 163.012 91.5522C162.725 86.5798 162.335 85.9934 167.933 86.1464C169.704 86.1974 171.501 86.0954 173.272 86.1974C175.069 86.3249 176.449 87.0388 176.683 89.0788C176.918 90.8637 178.115 92.5976 176.839 94.7395Z" class="fill-black"/>
<path d="M134.342 20.2825C126.27 20.4865 118.223 20.8435 110.15 21.0985C100.723 21.379 91.2966 21.5319 81.8698 21.9144C75.594 22.1694 69.3441 22.7814 63.0683 23.1639C59.3705 23.3934 55.6727 23.3424 51.9749 23.5719C43.0168 24.1073 34.0848 24.7703 25.1267 25.3058C21.8716 25.5098 20.9602 26.6063 21.7414 29.7426C22.2883 31.9865 23.1737 34.205 23.382 36.4744C24.3195 47.8469 25.0486 59.245 25.8819 70.6176C26.0642 73.142 26.2465 75.6664 26.6632 78.1398C27.7829 85.203 28.3037 92.3173 28.1214 99.457C28.0694 101.93 28.5381 102.593 31.1161 102.823C33.4598 103.027 35.8295 103.154 38.1472 103.052C43.6418 102.797 49.1104 102.415 54.605 102.032C64.3183 101.369 74.0576 100.655 83.7708 99.967C87.1301 99.7375 90.4893 99.508 93.8226 99.202C100.072 98.641 106.296 97.927 112.546 97.4426C119.369 96.9071 126.191 96.4991 133.04 96.1676C136.712 95.9891 140.41 95.5811 144.055 96.6776C146.425 97.3916 147.649 96.3206 147.753 93.8472C147.779 93.0822 147.649 92.3173 147.597 91.5523C147.18 86.07 146.79 80.6132 146.373 75.1309C145.722 67.0477 144.941 58.9645 144.394 50.8558C143.821 42.6706 142.441 34.4345 145.41 26.3768C145.852 25.1783 146.087 24.1583 147.389 23.5719C148.691 22.9854 149.55 22.0164 149.029 20.2315C144.16 20.257 139.238 20.155 134.342 20.2825ZM25.283 30.3036C25.1007 28.7737 26.2465 28.2637 27.6267 28.1107C29.5277 27.8812 31.4026 27.4987 33.2775 27.3457C39.293 26.8867 45.3084 26.4533 51.3499 26.0708C56.8185 25.7393 62.3131 25.5863 67.7817 25.2548C76.1669 24.7703 84.552 24.1073 92.9372 23.7249C98.4058 23.4699 103.926 23.6229 109.421 23.5209C117.832 23.3679 126.217 23.1384 134.629 22.9344C136.842 22.8834 139.056 22.9344 141.477 22.9344C141.477 23.8269 141.477 24.5153 141.477 25.5353C138.274 25.5353 135.28 25.4843 132.285 25.5353C124.889 25.6883 117.494 25.7903 110.124 26.1218C105.879 26.3003 101.661 26.9632 97.4423 27.2692C87.3905 28.0087 77.3387 28.6972 67.2869 29.3346C55.7769 30.0741 44.2668 30.7881 32.7567 31.4766C31.0901 31.5786 29.3974 31.5021 27.7048 31.4511C26.7413 31.4256 25.4392 31.6296 25.283 30.3036ZM144.003 79.6187C144.186 82.5766 144.706 85.509 144.889 88.4669C145.149 92.1643 144.055 93.0822 140.332 93.2607C132.389 93.6432 124.447 94.1277 116.504 94.6377C111.036 94.9947 105.541 95.4026 100.072 95.8871C91.5831 96.6521 83.1458 97.5956 74.6565 98.3605C69.865 98.794 65.0474 99.0745 60.2298 99.304C52.3915 99.661 44.5532 99.916 36.7149 100.094C35.0744 100.145 33.4338 99.6865 31.7151 99.457C31.5588 98.4625 31.2203 97.6721 31.3245 96.9836C32.1578 92.2153 31.0641 87.5744 30.3349 82.9336C29.2412 76.2019 29.085 69.3936 28.6683 62.6109C28.1735 54.5022 27.2361 46.4445 26.533 38.3613C26.4288 37.1884 26.4027 35.9899 26.3246 34.562C29.5797 34.2305 32.5484 33.8735 35.5431 33.593C37.0014 33.4655 38.4597 33.4655 39.918 33.389C50.777 32.777 61.636 32.2415 72.4691 31.5276C82.0781 30.9156 91.6872 30.0486 101.296 29.4111C111.921 28.6972 122.52 27.5242 133.196 28.3657C135.748 28.5697 138.274 28.8757 140.852 29.1307C140.983 29.8191 141.087 30.2271 141.113 30.6606C141.217 35.2504 141.113 39.8657 141.425 44.4556C141.842 50.4733 142.675 56.4401 143.118 62.4579C143.561 68.2207 143.639 73.9325 144.003 79.6187Z" class="fill-black"/>
<path d="M129.003 102.211C128.169 102.084 127.128 102.135 126.451 102.543C124.367 103.869 123.352 105.909 122.987 107.821C122.987 110.881 125.956 113.839 128.352 113.609C130.435 113.405 133.404 110.294 133.534 108.127C133.69 106.113 130.982 102.492 129.003 102.211ZM129.992 107.77C129.94 108.917 129.81 109.988 128.404 110.269C127.31 110.473 126.451 109.555 126.399 108.229C126.373 107.005 126.789 106.011 128.169 105.96C129.315 105.909 130.044 106.495 129.992 107.77Z" class="fill-black"/>
<path d="M114.811 101.395C111.4 101.216 109.342 103.307 109.368 107.489C109.42 107.974 109.447 108.968 109.707 109.911C110.436 112.563 113.795 114.45 115.931 113.175C117.91 112.002 119.655 110.396 119.941 107.846C120.28 104.506 117.962 101.573 114.811 101.395ZM115.071 109.962C114.056 110.625 112.962 110.421 112.65 109.325C112.337 108.254 112.311 106.928 112.65 105.883C113.092 104.455 114.16 104.506 116.894 105.959C117.311 107.897 116.452 109.096 115.071 109.962Z" class="fill-black"/>
<path d="M118.38 119.729C118.354 117.689 117.833 117.051 115.88 117.204C112.416 117.459 108.979 118.02 105.515 118.097C99.9686 118.199 94.5001 120.264 88.8492 118.658C87.0784 118.148 86.0628 119.244 86.1409 121.055C86.219 122.687 86.3753 124.344 86.6097 125.951C86.8961 127.888 87.5732 128.347 89.5262 128.169C90.9845 128.041 92.4168 127.939 93.8751 127.863C97.7812 127.633 101.687 127.455 105.593 127.2C108.276 127.021 110.958 126.741 112.833 126.588C114.317 126.69 114.968 126.766 115.645 126.741C118.796 126.69 119.656 125.492 118.77 122.534C118.51 121.641 118.38 120.672 118.38 119.729ZM113.328 123.783C111.244 124.166 109.135 124.446 107.052 124.778C102.078 125.568 97.0521 125.441 92.0522 125.186C91.5053 125.16 90.8022 125.211 90.4377 124.931C89.8908 124.497 89.2398 123.783 89.2658 123.197C89.2658 122.763 90.2293 122.049 90.8283 121.973C96.5833 121.335 102.338 120.8 108.093 120.213C108.093 120.315 108.119 120.417 108.119 120.519C109.682 120.417 111.244 120.392 112.807 120.239C113.901 120.111 114.864 120.111 115.098 121.437C115.281 122.763 114.578 123.554 113.328 123.783Z" class="fill-black"/>
<path d="M92.9373 47.5666C90.9321 43.6142 87.4166 43.2317 83.7709 42.6453C83.1199 42.5433 82.4428 42.6453 81.7658 42.6453C78.12 42.2373 74.7087 42.9257 71.3755 44.5577C63.5632 48.408 60.5685 58.1487 61.4539 65.3394C61.6101 66.7164 61.9486 68.1953 62.6257 69.3938C64.4746 72.6576 67.2089 75.029 70.7244 76.508C73.1983 77.5534 75.6462 78.6499 78.1721 79.5679C83.0418 81.3528 87.9375 81.1233 92.4946 78.8539C103.171 73.5756 103.093 61.1831 98.484 54.5023C96.7914 52.1054 94.2393 50.142 92.9373 47.5666ZM97.4684 69.8017C96.4007 73.9581 90.8019 77.9104 85.9844 78.0889C80.9585 78.2674 76.5836 76.304 72.391 73.9836C70.464 72.9381 68.8234 71.3827 67.1829 69.9292C64.2663 67.3028 63.6413 63.9625 64.3444 60.2906C64.6829 58.5567 65.0996 56.8482 65.6465 55.1908C67.4693 49.53 72.4171 45.7306 78.5107 45.2207C79.396 45.1442 80.3075 45.0932 81.1929 45.0167C81.1929 44.9657 81.2189 44.8892 81.2189 44.8382C82.7553 45.0422 84.3438 45.1187 85.8281 45.5011C87.1041 45.8326 87.9895 46.6486 88.6666 48.0001C89.578 49.8105 91.0103 51.4934 92.5727 52.8449C97.9632 57.4857 99.1611 63.223 97.4684 69.8017Z" class="fill-black"/>
<path d="M88.5622 57.8424C85.3071 55.9045 82.052 53.9666 78.7188 52.1306C77.9375 51.6972 76.4011 51.1617 76.1147 51.4677C75.4897 52.1561 75.1772 53.3546 75.1772 54.3491C75.2033 56.746 75.4637 59.1174 75.6459 61.5143C75.4897 61.5143 75.3074 61.5398 75.1512 61.5398C75.1512 63.1972 75.073 64.8292 75.1772 66.4866C75.3074 68.96 76.8699 69.6485 79.0313 68.2971C82.2343 66.3081 85.4634 64.3192 88.6664 62.3048C91.0361 60.8003 90.984 59.2959 88.5622 57.8424ZM78.9011 64.5232C78.9011 61.6418 78.9011 59.1939 78.9011 56.2105C81.3489 57.5109 83.328 58.5564 85.5154 59.7294C84.0832 62.5343 81.401 63.0697 78.9011 64.5232Z" class="fill-black"/>
<path d="M76.8702 118.148C73.8234 119.346 70.6725 118.811 67.5475 119.015C61.4019 119.397 55.2563 120.035 49.0846 120.239C44.3191 120.392 39.6317 122.1 34.7621 120.494C32.783 119.831 31.4289 121.488 31.6893 123.63C31.8716 125.032 32.0538 126.46 32.2361 127.863C32.5486 130.26 33.6163 131.025 36.1162 130.693C38.4599 130.387 40.7775 129.954 43.1212 129.75C49.7096 129.163 56.2979 128.526 62.8862 128.169C67.7038 127.914 72.5214 127.965 77.3389 128.092C79.6826 128.169 80.6201 127.582 80.6201 125.134C80.3076 123.452 80.0732 121.59 79.6305 119.78C79.318 118.403 78.2764 117.587 76.8702 118.148ZM74.6567 124.93C63.7456 125.823 52.8345 126.766 41.9233 127.633C40.4911 127.761 39.0068 127.71 37.5745 127.557C35.4652 127.327 35.335 127.098 35.4912 124.191C40.2307 123.605 44.7357 122.942 49.2929 122.534C55.074 121.998 60.8811 121.641 66.6882 121.31C69.2662 121.157 71.8443 121.259 74.4223 121.208C75.7504 121.182 77.0525 121.386 77.1566 122.942C77.2347 124.522 75.9848 124.803 74.6567 124.93Z" class="fill-black"/>
<path d="M77.5214 195.945C74.3964 196.226 37.6007 196.685 34.4758 196.787C25.9865 197.042 17.4711 197.169 8.98176 197.322C6.97661 197.373 6.79433 197.679 7.41931 200C12.2629 199.745 16.8201 199.515 21.4033 199.286C29.2155 198.903 70.7247 198.546 78.563 198.189C80.2296 198.113 80.2556 197.246 79.9431 195.92C79.0317 195.92 78.2765 195.869 77.5214 195.945Z" class="fill-black"/>
<path d="M76.402 106.062C74.449 106.266 72.4959 106.521 70.5168 106.674C69.397 106.776 68.5116 107.056 68.5637 108.356C68.6158 109.402 69.2929 109.886 70.3345 109.886C72.8865 109.886 75.4385 109.912 77.9905 109.759C78.902 109.708 79.7613 109.121 81.2717 108.509C79.5009 106.827 78.2249 105.883 76.402 106.062Z" class="fill-black"/>
<path d="M34.3698 112.207C35.802 112.207 37.2603 111.977 38.6926 111.926C45.6194 111.671 52.5463 111.442 59.4732 111.212C59.8117 111.212 60.2284 111.263 60.4627 111.11C60.9575 110.728 61.6346 110.269 61.6867 109.784C61.7387 109.3 61.244 108.382 60.8013 108.28C59.7596 108.025 58.6138 107.974 57.5722 108.101C49.6037 109.147 41.6612 110.243 33.6406 108.484C33.1198 108.356 32.5469 108.458 31.8959 108.458C31.2709 109.606 30.4637 110.753 31.6355 111.748C32.2605 112.258 33.4323 112.207 34.3698 112.207Z" class="fill-black"/>
</svg>
