<svg width="102" height="102" viewBox="0 0 102 102" fill="none" xmlns="http://www.w3.org/2000/svg">
<path d="M2.66361 83.2939C3.05709 83.4061 3.51311 83.4733 3.96249 83.4556C4.41407 83.6575 4.93574 83.6657 5.37088 83.3683C5.8641 83.0319 6.37047 82.7108 6.84616 82.3473C7.32842 81.9778 7.80083 81.3817 7.73177 80.6841C7.59915 79.3479 7.02918 78.2443 5.95615 77.5219C5.08589 76.9352 3.87039 76.7062 2.89052 77.0946C2.13315 77.143 1.4383 77.4286 0.856299 78.0707C-0.0687681 79.093 -0.352731 80.7526 0.549319 81.8857C1.08858 82.5621 1.86239 83.0661 2.66361 83.2939Z" fill="#EF4036"/>
<path d="M84.7884 32.2821C86.1157 32.2679 87.3883 31.5195 88.0383 30.3722C89.0685 29.1623 89.1102 27.0482 87.8048 25.8986C87.1823 25.3509 86.4237 25.1726 85.6927 25.6046C85.6017 25.6589 85.5118 25.7191 85.4252 25.7852C84.8267 25.9068 84.2569 26.2775 83.8469 26.9432C83.3855 27.6916 83.2704 28.6477 83.5499 29.481C83.426 29.8717 83.3613 30.3002 83.3646 30.7476C83.3701 31.5703 84.0124 32.2903 84.7884 32.2821Z" fill="#39B100"/>
<path d="M78.2309 38.4154C76.7205 38.5145 75.2398 38.7317 73.8358 37.7862C73.1694 37.3377 72.6455 37.7154 72.5655 38.5665C72.5282 38.9607 72.5489 39.3951 72.6651 39.7681C73.5716 42.6777 74.0538 45.6641 74.1711 48.7284C74.1952 49.3835 74.3224 50.0374 74.4232 50.6878C74.6479 52.1267 74.8869 53.5632 75.128 55.0528C74.7367 55.1803 74.4813 55.3184 74.2171 55.342C70.9761 55.6348 67.7329 55.9098 64.4908 56.1919C60.3093 56.5566 56.1488 57.0666 52.0397 58.0238C50.378 58.4122 48.6989 58.6164 46.989 58.1962C45.8711 57.9223 45.3812 58.5739 45.6486 59.7354C45.8624 60.6585 46.0344 61.598 46.1517 62.54C46.3764 64.353 46.5243 66.1756 46.7523 67.9874C46.9222 69.3401 46.6504 69.7368 45.3669 69.8158C41.8869 70.0307 38.4048 70.2207 34.9259 70.471C31.1643 70.7436 27.4377 71.5239 23.641 71.335C22.671 71.2878 22.0867 72.179 22.2829 73.1929C22.4945 74.2848 22.8189 75.3577 22.9493 76.4602C23.0907 77.6571 23.0929 78.8776 23.1039 80.0887C23.1105 80.8961 22.9844 81.7046 22.991 82.5132C23.0008 83.6711 23.3407 84.004 24.4444 84.063C25.718 84.1303 26.9949 84.148 28.263 84.2625C33.2632 84.7146 38.2612 84.4195 43.257 84.2401C45.71 84.1527 48.1564 83.8824 50.6083 83.7656C53.3889 83.6334 56.174 83.5861 58.9569 83.4905C62.2549 83.376 65.554 83.2356 68.8531 83.1329C70.5038 83.0821 72.1577 83.14 73.8061 83.0609C77.2949 82.8933 80.7815 82.6572 84.2702 82.4719C85.6819 82.3975 87.1001 82.4282 88.5118 82.3326C90.7248 82.1815 92.9312 81.9171 95.1452 81.7884C96.8386 81.6893 98.5397 81.733 100.237 81.6964C101.839 81.6633 102.271 81.0247 101.847 79.3781C101.709 78.8422 101.42 78.2567 101.515 77.7645C101.695 76.8356 101.568 75.9798 101.463 75.0697C101.135 72.251 100.898 69.4192 100.639 66.5922C100.342 63.3568 100.051 60.1202 99.7727 56.8824C99.7168 56.2261 99.8659 55.5132 99.6796 54.9124C99.0198 52.7948 99.1348 50.5886 99.0098 48.4285C98.8268 45.2415 98.9046 42.0368 98.8685 38.838C98.8542 37.5112 97.974 36.7817 96.8287 37.0993C96.2401 37.2622 95.6362 37.4121 95.0323 37.4546C91.1259 37.7284 87.2174 37.9857 83.3089 38.2171C81.6166 38.3174 79.9199 38.3032 78.2309 38.4154ZM68.6174 81.8557C69.3518 80.9551 70.0424 80.32 70.9762 80.0934C71.6601 79.927 72.367 79.8491 73.0674 79.7865C75.1257 79.6035 77.1875 79.4466 79.4092 79.266C79.6053 79.9777 79.7632 80.5467 79.9824 81.3422C76.1923 81.9501 72.5238 81.9797 68.6174 81.8557ZM87.7337 64.0792C89.6068 63.901 91.4822 63.7534 93.5252 63.5787C94.242 65.6928 94.0031 67.7325 93.853 69.8831C89.8096 70.4828 85.8671 71.067 81.9246 71.6513C81.8578 71.5486 81.7898 71.4459 81.7219 71.3433C81.9817 70.8416 82.2227 70.3281 82.5022 69.8418C83.2431 68.5517 84.0454 67.3005 84.7392 65.982C85.4155 64.6989 86.4645 64.1996 87.7337 64.0792ZM87.2273 62.5034C87.8411 61.3266 88.5228 60.3398 89.7997 59.7342C89.9762 62.1469 89.3986 62.7418 87.2273 62.5034ZM85.798 72.4316C86.5949 73.8032 86.5675 75.1925 86.573 76.5464C86.5774 77.3349 86.1959 77.5662 85.1601 77.6347C82.8595 77.7846 80.5578 77.9239 78.255 78.062C77.0855 78.1328 75.9149 78.1895 74.4177 78.2697C74.8375 77.8932 74.9997 77.7055 75.1948 77.5792C76.8093 76.5405 78.4172 75.5053 79.6568 73.9236C79.8958 73.6178 80.3518 73.4266 80.7354 73.3487C82.3883 73.0147 84.0509 72.742 85.798 72.4316ZM93.3827 80.7391C89.312 81.2655 85.3366 81.2738 81.2988 81.2844C80.9206 79.4725 81.1136 79.0736 82.5165 78.9897C86.037 78.7808 89.5619 78.6392 93.0857 78.4775C93.1657 78.4739 93.2501 78.5542 93.4792 78.6687C93.4518 79.2766 93.42 79.9494 93.3827 80.7391ZM99.6061 79.7794C98.1155 80.5903 96.5131 80.4593 94.7528 80.6281C94.7912 80.058 94.7824 79.574 94.8679 79.109C94.9676 78.5601 95.2679 78.2402 95.8587 78.2603C96.6106 78.2862 97.3669 78.2567 98.1188 78.2001C98.795 78.1493 99.4669 78.0289 100.182 77.9345C100.698 79.1196 100.64 79.2164 99.6061 79.7794ZM100.055 76.5475C95.9661 77.0445 92.0072 77.3644 87.9025 77.3053C87.772 75.929 87.5956 74.6389 87.5452 73.3428C87.497 72.1506 87.7983 71.8319 88.9141 71.6962C89.8019 71.5888 90.6963 71.5498 91.5885 71.479C92.2889 71.4223 92.9893 71.3633 93.8617 71.2913C93.9308 71.8414 93.991 72.3171 94.1017 73.1953C94.6158 72.4139 94.9424 71.9169 95.3622 71.2795C96.7092 71.2795 98.1955 71.2795 99.8396 71.2795C100.163 72.9911 100.04 74.7274 100.055 76.5475ZM99.0416 63.2942C99.285 65.2572 99.5294 67.2391 99.8012 69.4287C98.1078 69.5503 96.6687 69.6541 95.0345 69.7722C95.0148 67.965 94.9666 66.257 94.9896 64.5502C95.0016 63.6401 95.6987 63.3816 96.3662 63.3143C97.2035 63.2305 98.053 63.2942 99.0416 63.2942ZM98.4662 56.2356C98.6361 57.9908 98.7928 59.6197 98.9561 61.3053C96.2686 61.7137 93.7861 62.0891 91.3232 62.4633C91.195 61.5567 91.0919 60.7824 90.9736 60.0116C90.8124 58.9528 91.103 58.2611 92.0445 57.796C94.0206 56.8199 96.0801 56.1954 98.4662 56.2356ZM93.5811 38.7872C94.8317 38.7152 96.1404 38.4532 97.3537 39.5308C97.6288 44.4141 97.9028 49.2772 98.1834 54.2738C97.2781 54.5122 96.5284 54.805 95.7579 54.8947C93.0846 55.2086 91.0383 56.8376 89.0182 58.5208C87.1275 60.0966 85.7651 62.1717 84.4608 64.2952C82.8255 66.9558 81.2242 69.6423 79.5154 72.2486C78.1245 74.3721 76.155 75.7897 74.0177 76.9347C71.6481 78.2024 69.2838 79.4619 67.4578 81.6279C67.1904 81.9454 66.6379 82.1095 66.2116 82.1237C61.6805 82.2783 57.1473 82.3373 52.6184 82.5226C48.6551 82.6855 44.6983 83.029 40.735 83.1954C35.6362 83.4091 30.5362 83.4421 25.4593 82.7091C24.8072 82.6147 24.2514 82.4235 24.4246 81.6362C24.9036 79.456 24.2438 77.3903 23.9512 75.2987C23.6169 72.9014 23.6103 72.8317 25.9011 72.6901C29.529 72.4658 33.1569 72.2462 36.7838 71.9925C37.5335 71.9405 38.27 71.6974 39.0197 71.6313C41.3674 71.4235 43.7185 71.25 46.0695 71.0895C46.3863 71.0682 46.7183 71.1638 47.0296 71.2594C47.9152 71.5333 48.4194 71.2512 48.4676 70.3033C48.4918 69.8265 48.3021 69.3319 48.1771 68.8538C48.039 68.3238 47.765 67.8139 47.7245 67.2804C47.5689 65.2537 47.4713 63.2211 47.3804 61.1896C47.3365 60.2276 47.4527 60.106 48.3942 59.9325C50.3003 59.5796 52.2107 59.2526 54.1156 58.895C56.2924 58.4854 58.4581 57.9943 60.6447 57.6556C62.0817 57.4337 63.5472 57.4313 64.9983 57.3062C67.2551 57.1114 69.5097 56.886 71.7664 56.6912C72.8482 56.598 73.9322 56.5082 75.0172 56.4917C75.4217 56.4858 75.8295 56.6888 76.2482 56.801C77.387 55.8248 77.2916 55.8649 76.7512 54.5004C76.2766 53.3035 75.9479 52.0122 75.7396 50.7279C75.3198 48.1275 75.0228 45.5024 74.6798 42.8878C74.6008 42.2847 74.5121 41.6803 74.4748 41.0724C74.4233 40.2355 74.6512 39.9688 75.4053 39.9286C79.3521 39.7162 83.2991 39.5297 87.2438 39.2912C89.3603 39.1637 91.4668 38.91 93.5811 38.7872Z" fill="#251C1C"/>
<path d="M93.9307 26.2497C94.2957 26.1471 94.6574 25.6241 94.8009 25.2039C94.8689 25.0021 94.4535 24.3611 94.2157 24.334C93.6391 24.2679 92.9859 24.3139 92.4609 24.5571C91.9315 24.8026 91.6432 25.3916 91.9545 26.297C92.6406 26.297 93.3213 26.4221 93.9307 26.2497Z" fill="#251C1C"/>
<path d="M92.5979 33.5412C92.816 33.7111 93.2807 33.8138 93.4582 33.6793C93.7235 33.4786 93.9493 33.0525 93.9832 32.6996C94.0424 32.061 92.805 30.844 92.0224 30.8086C91.8712 30.9231 91.5149 31.0588 91.3889 31.3221C91.2639 31.5817 91.253 32.0633 91.4021 32.2841C91.7254 32.7645 92.1474 33.1906 92.5979 33.5412Z" fill="#251C1C"/>
<path d="M88.5041 22.1241C89.0412 21.5115 89.5859 20.9768 90.0156 20.35C90.1625 20.1351 90.0802 19.6654 89.9782 19.3596C89.9256 19.2062 89.4785 19.0232 89.4094 19.0905C88.971 19.5154 88.5392 19.9687 88.2038 20.4857C87.9078 20.9437 87.7281 21.4973 88.5041 22.1241Z" fill="#251C1C"/>
<path d="M86.7439 42.3613C86.2342 43.4072 84.7535 43.8097 85.3892 44.9464C86.3373 45.2887 87.0815 45.4221 87.6822 45.8104C88.3179 46.2212 88.1644 47.0286 87.4498 47.3237C87.1056 47.4665 86.6793 47.3886 86.3483 47.5491C86.0315 47.7026 85.7476 48.0024 85.5372 48.3081C85.4561 48.425 85.6183 48.7354 85.6742 48.9762C86.4535 48.7932 87.1407 48.6421 87.8236 48.4722C88.6193 48.2739 89.1826 47.8005 89.3799 46.9034C89.5761 46.0052 89.2823 45.3076 88.6313 44.7575C88.3046 44.4825 87.9649 44.224 87.6306 43.9572C87.8947 42.778 89.1837 42.1418 88.868 40.7324C87.6854 40.8056 86.6135 40.8446 85.5459 40.9437C84.6855 41.024 84.5343 41.5008 85.0034 42.5455C85.5262 42.49 86.0567 42.4345 86.7439 42.3613Z" fill="#251C1C"/>
<path d="M85.6543 32.9751C86.9016 33.0212 87.8858 32.2539 88.721 31.3155C90.0966 29.7692 90.1854 27.7319 88.9381 26.077C88.6553 25.7028 88.2717 25.1882 87.9023 25.1539C85.5875 24.945 82.9185 26.4476 82.9635 29.48C82.9624 31.3521 84.0958 32.9197 85.6543 32.9751ZM84.054 29.107C84.2272 28.3315 84.6086 27.5607 85.3189 27.1063C85.6356 26.9044 86.1234 26.9186 86.5147 26.9776C86.8194 27.0225 87.088 27.3046 87.3861 27.4533C88.7112 28.1131 88.9359 28.9406 87.9977 30.1198C87.6163 30.599 87.0857 31.0039 86.5486 31.2612C85.3101 31.8538 83.8918 30.6498 84.054 29.107Z" fill="#251C1C"/>
<path d="M4.86871 84.0161C6.36154 83.6159 7.20664 82.3942 7.5245 80.9258C7.92127 79.0963 7.84231 77.3906 5.45292 76.4097C5.1526 76.287 4.86219 76.1359 4.51036 75.9718C4.5531 75.3769 4.46315 74.7654 4.65496 74.2839C5.42768 72.3291 6.13033 70.3107 7.15405 68.5106C8.46164 66.2077 10.3205 64.4395 12.3921 62.8401C14.1227 61.5051 15.9377 60.7756 17.9665 60.4687C19.6994 60.2066 21.3797 60.6092 22.8638 61.511C23.9554 62.1732 24.8892 63.1635 25.8242 64.0901C26.2878 64.5493 26.5585 65.2268 26.9838 65.7426C27.2063 66.0117 27.5997 66.3316 27.8682 66.288C28.2113 66.2325 28.5456 65.8713 28.8032 65.5632C28.9358 65.405 28.9128 65.0793 28.9237 64.8267C29.0059 63.0089 29.5826 61.3433 30.3125 59.738C30.9132 58.416 31.608 57.1436 32.2273 55.831C34.563 50.8793 38.3838 47.7123 42.9565 45.4484C44.0547 44.9054 45.2308 44.687 46.4168 44.9172C48.587 45.3386 50.5708 46.277 52.2905 47.7725C52.7497 48.1715 53.0599 48.7723 53.4336 49.2834C53.6846 49.6269 53.9291 49.9763 54.1659 50.3103C55.2411 49.6045 55.3781 49.2929 55.5195 48.2388C55.6334 47.3948 55.7924 46.5331 56.0884 45.7482C56.7427 44.0095 57.5253 42.3274 58.2026 40.5994C59.8665 36.3535 62.3534 32.7109 65.5506 29.7233C67.8895 27.5396 70.4038 25.5472 73.2722 24.1319C75.8041 22.8831 78.1968 22.9952 80.5665 24.4931C80.9676 24.7469 81.3436 25.0467 81.8817 25.4315C82.1064 24.774 82.3048 24.1956 82.4911 23.6491C80.7166 22.2645 78.9421 21.5563 76.8399 21.718C74.3946 21.9057 72.2672 22.8878 70.3096 24.3585C68.762 25.5224 67.2603 26.7582 65.7828 28.0248C63.2926 30.1601 61.1773 32.6979 59.542 35.6241C58.4043 37.6579 57.5417 39.8711 56.5783 42.0158C55.8012 43.7451 55.0569 45.4909 54.2722 47.2874C53.9707 47.082 53.6989 46.9628 53.5049 46.7586C52.2675 45.4531 50.8053 44.5454 49.1908 43.9174C47.3254 43.1927 45.4708 42.9637 43.533 43.7675C41.0746 44.7874 38.8967 46.3041 36.8559 48.0263C35.5691 49.1123 34.3832 50.4001 33.365 51.7799C31.5697 54.2127 30.2873 56.9984 29.1397 59.8455C28.6564 61.0435 28.1971 62.2534 27.659 63.6321C26.9663 62.964 26.4193 62.3431 25.7869 61.8462C24.8421 61.1049 23.905 60.2857 22.8462 59.79C19.888 58.4066 16.9209 58.8067 14.081 60.2432C11.7113 61.4413 9.71001 63.1753 7.97277 65.3224C5.69188 68.1423 4.10153 71.3128 3.35511 74.9472C3.13262 76.0273 2.87173 76.8854 1.95433 77.5854C0.663182 78.5698 0.307012 80.7559 0.988756 82.1357C1.85135 83.8815 3.07448 84.4977 4.86871 84.0161ZM4.35248 78.0729C5.81023 78.1272 6.66403 78.8177 6.58183 79.9709C6.47003 81.5538 5.32028 82.9549 3.84609 82.8711C2.64591 82.8027 1.84474 81.797 1.88529 80.3923C1.93681 78.6725 2.64373 78.0079 4.35248 78.0729Z" fill="#251C1C"/>
<path d="M64.1891 63.3622C64.6812 62.4745 65.0079 61.5278 64.9126 60.4726C64.8106 59.3595 64.1705 58.7929 63.1797 59.0172C62.6875 59.1281 62.2097 59.3961 61.768 59.6711C61.3109 59.9568 61.186 60.4195 61.4315 61.1289C62.1538 60.8727 62.8246 60.6355 63.5162 60.39C63.8998 61.2847 63.8044 62.046 63.3441 62.6586C62.8497 63.3161 62.247 63.8945 61.6332 64.4292C60.8725 65.0914 60.8199 65.2212 61.3 66.1549C62.5561 66.1549 63.7562 66.1549 65.0791 66.1549C65.0791 65.4975 65.0791 64.9509 65.0791 64.4174C64.541 64.3466 64.1541 64.297 63.605 64.225C63.8725 63.8355 64.051 63.6124 64.1891 63.3622Z" fill="#251C1C"/>
<path d="M38.8726 77.8445C38.5077 77.8622 38.1449 77.9378 37.621 78.0098C37.507 76.5024 37.3985 75.0683 37.2725 73.4004C36.7672 73.5893 36.3035 73.6058 36.1446 73.8501C35.5418 74.7767 34.7197 75.2807 33.7705 75.6667C33.068 75.9512 33.0471 76.4753 33.5765 77.2166C34.4742 76.6606 35.3368 76.1282 36.3112 75.5263C36.3112 76.4552 36.3112 77.2307 36.3112 77.9885C34.6495 78.2458 34.4797 78.4961 34.871 79.7921C36.1172 79.7402 37.3305 79.6906 38.5449 79.6411C38.6863 79.6352 38.8299 79.6505 38.968 79.6233C39.424 79.5372 39.8065 79.3129 39.789 78.7534C39.7725 78.162 39.4448 77.8162 38.8726 77.8445Z" fill="#251C1C"/>
</svg>
