<svg width="102" height="102" viewBox="0 0 102 102" fill="none" xmlns="http://www.w3.org/2000/svg">
<path d="M42.1075 58.2791C45.8585 58.1088 49.6027 57.8862 53.339 57.6053C55.1725 57.4676 57.0049 57.3161 58.8339 57.1526C60.4827 57.005 62.0917 56.8309 63.5215 56.2244C64.6656 55.7384 64.3129 54.325 62.7822 54.4014C55.0999 54.7853 47.1263 54.8375 39.6379 56.1473C37.8157 56.466 38.5879 58.3533 40.4169 58.0339C40.5972 58.0021 40.7774 57.9748 40.9577 57.9453C41.1868 58.1618 41.5689 58.3041 42.1075 58.2791Z" fill="#EF4036"/>
<path d="M74.8562 19.6369C74.8521 19.4891 74.8428 19.3423 74.8231 19.1954C74.549 17.1413 72.5789 15.4958 70.3108 15.6011C69.7015 15.6291 69.1473 15.7894 68.6656 16.0464C68.2224 16.0049 67.7719 16.0253 67.3339 16.1161C67.2062 15.6909 66.9862 15.2967 66.6956 14.9489C66.5015 14.431 66.1828 13.943 65.7406 13.5372C64.4649 12.368 62.6245 12.3999 61.3374 13.315C61.218 13.3565 61.0997 13.4058 60.9824 13.4628C60.6918 13.6039 60.4354 13.7739 60.2101 13.9642C59.8385 13.9005 59.4534 13.9295 59.087 14.0328C59.0475 13.5459 58.9105 13.0667 58.6531 12.6251C57.72 11.0241 55.5733 10.396 53.7413 10.8559C52.887 11.0704 52.1739 11.5129 51.6601 12.0965C51.1951 12.0985 50.7301 12.1796 50.2889 12.3468C50.2215 12.2791 50.153 12.2125 50.0803 12.1497C49.0735 11.2714 47.7272 10.9284 46.4515 11.1496C45.7062 11.0781 44.9432 11.1941 44.2768 11.5245C42.6721 12.3197 41.9943 14.2117 42.5144 15.7856C42.1833 15.8465 41.8604 15.9643 41.5646 16.1266C40.3138 14.9459 38.1164 14.7324 36.5677 15.7121C36.2085 15.9392 35.9033 16.2281 35.6563 16.5557C35.4549 16.6542 35.2618 16.7693 35.0791 16.9007C34.5622 17.2746 34.1408 17.7413 33.8398 18.2572C33.0135 19.0138 32.5828 20.0804 32.6845 21.1713C32.2299 21.3356 31.8177 21.6477 31.5022 22.1424C31.4762 22.1821 31.4555 22.2236 31.4326 22.2642C30.2555 22.6574 29.4262 23.586 29.1802 24.6189C28.6497 25.1174 28.3031 25.7803 28.3062 26.4982C28.3103 27.4586 28.9124 28.2644 29.7366 28.7707C29.174 28.82 28.6134 29.0209 28.1287 29.3997C27.6574 29.7678 27.3897 30.1863 27.2838 30.6133C26.7627 30.9718 26.4254 31.4491 26.2707 31.9602C25.5151 32.7332 25.4113 33.9565 25.9894 34.8492C25.9977 34.8628 26.0081 34.8743 26.0164 34.8878C25.8814 35.055 25.7735 35.2367 25.6988 35.427C25.4497 35.2937 25.1736 35.1903 24.8694 35.1266C23.4577 34.828 22.0117 35.5488 21.3993 36.6803C19.8081 38.0272 20.3914 40.2958 22.1 41.2959C23.6881 42.2254 25.6064 41.7404 26.6299 40.4205C27.6865 39.8369 28.3114 38.8485 28.5533 37.7479C28.9384 37.6397 29.3037 37.4648 29.611 37.2387C30.376 36.6773 30.8296 35.8232 30.9479 34.9313C31.1441 34.7362 31.3144 34.5197 31.4514 34.2878C32.0212 33.8714 32.4748 33.3168 32.7343 32.6878C34.0972 31.5467 34.9556 29.6104 35.1248 28.0895C35.6542 27.5716 36.0289 26.9185 36.1472 26.1696C36.1576 26.1059 36.1649 26.042 36.1711 25.9783C36.9911 25.6874 37.7707 25.2179 38.4288 24.6294C38.7827 24.5289 39.1284 24.3879 39.4585 24.2005C39.91 23.9444 40.3335 23.5975 40.6999 23.1926C41.576 22.7559 42.2849 22.1337 42.8766 21.4119C43.0447 21.4525 43.215 21.4834 43.3852 21.5017C44.7782 21.6525 46.247 21.1162 47.4065 20.2853C48.3521 19.9133 49.2084 19.2978 49.8987 18.5905C50.7218 19.0543 51.7141 19.1848 52.6597 19.0157C53.3718 19.4051 54.198 19.637 55.0211 19.6727C56.0623 19.7181 57.0795 19.4853 58.0531 19.1577C58.2742 19.3867 58.5254 19.5906 58.8015 19.7607C59.8997 20.437 61.2814 20.7259 62.6131 20.6148C63.2878 21.3201 64.277 21.7858 65.3066 21.9926C65.862 22.6767 66.6416 23.1791 67.5311 23.4014C68.4342 24.4459 70.0493 24.8305 71.57 24.2923C73.0689 23.7618 74.193 22.5279 74.6435 21.1134C74.8043 20.6409 74.8822 20.1432 74.8584 19.6456C74.8563 19.6418 74.8562 19.6389 74.8562 19.6369ZM55.7706 14.4822C55.7374 14.3846 55.699 14.2879 55.6554 14.1932C55.7426 14.2164 55.7893 14.3063 55.7706 14.4822Z" fill="#39B100"/>
<path d="M72.945 85.9662C72.0652 85.2441 71.0767 85.3772 70.1442 85.9076C69.7701 85.8406 69.3633 85.934 69.0219 86.2785C68.945 86.3559 68.867 86.4314 68.789 86.5069C67.8986 86.7835 67.1284 87.3422 66.5688 88.0529C66.4413 88.2153 66.3159 88.3946 66.1968 88.5843C65.4065 89.1024 64.5814 89.5546 63.729 89.9444C63.5403 89.9481 63.3528 89.9614 63.1673 89.9822C61.9871 90.1171 60.9113 90.5664 60.0483 91.2223C53.946 92.7513 46.9702 91.9019 40.9238 90.2691C40.2894 90.0973 39.792 90.3267 39.5085 90.7014C36.4368 88.9439 33.4916 92.0859 33.2777 94.6843C33.1639 96.0585 33.8405 97.4885 35.1777 98.2256C36.6266 99.025 38.4169 98.6683 39.7878 97.9095C40.7035 97.4026 41.4296 96.6777 41.8721 95.8679C41.8774 95.8613 41.8827 95.8537 41.889 95.8471C41.8827 96.2011 41.9333 96.5418 42.0344 96.8637C42.0344 96.8741 42.0344 96.8845 42.0344 96.8948C41.9027 97.8245 42.1197 98.7664 42.8405 99.5498C44.5254 101.385 47.673 101.054 49.5571 99.6848C49.8985 99.4365 50.2041 99.1505 50.4675 98.8372C51.3832 100.296 53.1978 101.276 55.1124 100.932C55.9681 100.778 56.7352 100.375 57.3432 99.8254C57.4507 99.7858 57.555 99.7395 57.6573 99.6904C57.6804 99.6791 57.7036 99.6687 57.7278 99.6565C57.7331 99.6536 57.7395 99.6508 57.7447 99.648C58.3875 99.328 58.927 98.8363 59.2895 98.2454C60.9545 99.8641 63.8659 100.356 66.0209 98.9778C67.5709 97.9868 68.2769 96.4304 68.1652 94.9146C68.2052 94.8042 68.239 94.6919 68.2685 94.5787C69.5172 94.5654 70.67 93.9368 71.5277 93.1336C72.5825 92.1463 73.3412 90.8637 73.6257 89.5187C73.8681 88.3776 74.003 86.8354 72.945 85.9662Z" fill="#39B100"/>
<path d="M33.5845 29.0967C34.4469 28.1697 35.3857 27.3171 36.4003 26.5396C36.5907 26.3938 36.3199 26.1405 36.131 26.2856C35.1165 27.0631 34.1776 27.9157 33.3153 28.8426C33.1537 29.0157 33.4222 29.2704 33.5845 29.0967Z" fill="#251C1C"/>
<path d="M81.7923 30.852C81.7726 31.4799 81.7137 32.1038 81.6226 32.7257C81.576 33.0402 82.0624 33.1764 82.11 32.8588C82.2022 32.2329 82.2695 31.6059 82.2943 30.9748C82.3119 30.5148 82.4288 29.8346 82.0966 29.4494C81.4435 28.6914 80.5731 29.5775 80.2326 30.1461C80.0659 30.4237 80.5028 30.6747 80.6694 30.3981C80.8795 30.0477 81.3763 29.1913 81.7985 30.1225C81.8751 30.2936 81.7975 30.6737 81.7923 30.852Z" fill="#251C1C"/>
<path d="M29.925 59.5939C28.6889 58.8453 27.4518 58.0966 26.2157 57.348C25.8991 57.157 25.6219 57.7483 25.9396 57.9393C27.1756 58.6879 28.4127 59.4366 29.6487 60.1852C29.9653 60.3776 30.2427 59.7863 29.925 59.5939Z" fill="#251C1C"/>
<path d="M28.7002 50.658C28.4688 50.3316 27.7473 50.6166 27.9769 50.9408C29.2744 52.7753 30.7707 54.5304 32.471 56.212C32.771 56.5097 33.496 56.2292 33.1926 55.9292C31.494 54.2476 29.9977 52.4925 28.7002 50.658Z" fill="#251C1C"/>
<path d="M77.6742 52.5189C76.7801 53.4627 75.886 54.4065 74.992 55.3503C74.6978 55.6605 74.9564 56.5867 75.2495 56.2787C76.1436 55.3349 77.0377 54.391 77.9317 53.4472C78.227 53.137 77.9684 52.2109 77.6742 52.5189Z" fill="#251C1C"/>
<path d="M75.7037 58.8895C74.4653 58.2611 73.2231 58.113 71.9615 58.476C71.5659 58.5905 71.5607 59.9562 71.9615 59.8389C73.1664 59.4898 74.3519 59.6017 75.5362 60.2022C75.9305 60.4032 76.0993 59.0878 75.7037 58.8895Z" fill="#251C1C"/>
<path d="M71.1029 63.1961C70.8271 63.0083 70.4104 63.3096 70.6874 63.4974C71.9098 64.328 73.1334 65.1594 74.3558 65.99C74.6316 66.1778 75.0484 65.8764 74.7714 65.6887C73.549 64.8572 72.3265 64.0266 71.1029 63.1961Z" fill="#251C1C"/>
<path d="M58.0394 30.2692C58.123 27.0755 55.5944 23.9824 51.7581 24.3271C48.3614 24.6323 46.9671 28.3281 47.8248 31.1412C47.2468 30.9133 46.5719 30.893 45.9196 31.1219C45.4902 31.2726 45.003 31.5266 44.7832 31.9254C44.3941 32.6323 45.035 32.7347 44.4013 32.3976C44.2805 32.3339 44.1402 32.3948 44.0989 32.5126C43.8264 33.2813 43.8687 33.6309 44.3528 34.3436C44.5479 34.6304 44.9876 34.3301 44.7543 34.0539C44.7543 34.049 44.7543 34.0442 44.7543 34.0393C44.6274 34.0123 44.5128 33.936 44.456 33.7931C44.4137 33.6869 44.3332 33.5961 44.295 33.486C44.2445 33.3402 44.2527 33.1924 44.2899 33.0447C44.3477 32.8226 44.6852 32.6623 44.8978 32.813C44.9772 32.8699 45.0474 32.9355 45.1186 33.0002C45.0556 32.2035 45.7069 31.5247 46.5708 31.373C47.3283 31.2398 48.0612 31.5565 48.5948 32.0548C48.6639 31.9853 48.7371 31.9196 48.8135 31.8569C47.352 29.204 48.7433 24.7926 52.4197 24.9104C56.2353 25.0321 58.1499 28.6217 57.1653 31.7323C57.3583 31.8028 57.5481 31.8781 57.7359 31.9582C57.7721 31.8491 57.8103 31.74 57.8403 31.6289C58.9415 28.6332 61.3751 31.2291 62.0243 32.36C62.7075 33.5527 62.3247 34.051 60.9035 34.3108C59.2893 34.6063 57.2127 34.2499 55.5614 34.219C52.0007 34.1533 48.4399 34.1205 44.8781 34.0819C44.8017 34.0809 44.8028 34.189 44.8781 34.1919C48.1148 34.3503 51.3504 34.5087 54.5902 34.6101C57.1167 34.6903 60.4111 35.3229 62.8582 34.728C62.947 34.7067 63.0296 34.6333 63.0502 34.5483C63.717 31.7642 60.0345 28.5087 58.0394 30.2692Z" fill="#251C1C"/>
<path d="M51.1755 35.2942C47.7951 34.6804 44.2507 35.0911 40.8649 35.4761C40.6897 35.4958 40.6842 35.8686 40.8649 35.858C44.308 35.6625 47.739 36.0413 51.1755 35.9307C51.4817 35.9201 51.4608 35.3457 51.1755 35.2942Z" fill="#251C1C"/>
<path d="M86.5263 56.4021C87.24 55.7937 87.7187 55.0515 88.1536 54.2833C88.3876 53.8681 88.6312 53.4271 88.7092 52.9756C88.8224 52.3213 88.4079 51.7636 88.0404 51.226C87.7284 50.7716 87.223 50.5745 86.661 50.4501C86.1995 50.3487 86.1461 50.145 86.4602 49.8321C86.6365 49.658 86.8491 49.5059 86.9901 49.3117C88.0639 47.8299 88.6397 46.24 88.2337 44.453C88.2048 44.3258 88.1739 44.1862 88.0938 44.0819C87.597 43.4314 87.146 42.7475 86.2935 42.3849C85.927 42.229 85.817 41.9324 85.9901 41.5641C86.4281 40.6333 86.8928 39.7102 87.2603 38.7584C87.5841 37.9175 87.8715 37.0508 87.6952 36.1324C87.5905 35.592 87.2935 35.1634 86.6792 35.0658C85.9933 34.9558 85.287 34.9481 84.5893 34.9013C84.4248 34.8898 84.2571 34.8994 84.1289 34.8994C84.4024 34.1532 84.6887 33.4721 84.8992 32.7719C85.317 31.3857 85.3629 29.9853 84.7475 28.6374C84.2582 27.566 83.0851 27.0886 81.9483 27.6702C81.7902 27.7506 81.6138 27.8042 81.3574 27.9046C81.4493 27.4043 81.4996 26.9996 81.6 26.6065C81.9814 25.1084 81.9076 23.6974 80.726 22.4605C79.9012 21.5976 78.8296 21.2294 77.6074 21.2475C76.9824 21.2571 76.3595 21.4322 75.7228 21.5345C75.7046 21.5087 75.6672 21.4752 75.6576 21.436C75.6373 21.3499 75.6191 21.2618 75.6202 21.1748C75.633 19.9656 75.5112 18.7823 75.0379 17.6276C74.7035 16.8097 74.3295 16.0454 73.4716 15.569C72.057 14.7827 70.6703 14.9281 69.3124 15.701C68.6724 16.0655 68.5944 16.032 68.542 15.3624C68.4897 14.7109 68.2353 14.1379 67.5879 13.8069C67.0676 13.541 66.5056 13.3057 65.9286 13.1727C65.388 13.0493 64.8827 13.0024 64.9062 12.3529C64.9084 12.2888 64.8582 12.1893 64.7994 12.1625C64.2748 11.9224 64.1263 11.4307 63.826 11.0385C63.1594 10.1689 62.4863 9.30028 61.7587 8.47185C61.0034 7.60994 60.3099 6.6438 59.3569 5.99904C58.1539 5.18783 57.1261 4.23696 56.0406 3.32817C55.9006 3.21146 55.8066 3.04791 55.7019 2.90059C55.3173 2.35819 54.9551 1.80235 54.5502 1.27238C54.2649 0.898345 54.0278 0.917462 53.7009 1.28098C53.1677 1.87599 52.6537 2.4863 52.0928 3.05931C50.5682 4.61573 49.0276 6.15973 47.4848 7.70179C45.8876 9.29934 44.2861 10.894 42.6717 12.4772C41.9057 13.2291 41.0296 13.9016 40.3426 14.7052C39.817 15.3193 39.272 15.57 38.412 15.5729C36.7837 15.5767 35.3895 16.2472 34.2057 17.1809C33.664 17.6085 33.3585 18.2781 32.9493 18.8396C32.6896 19.1946 32.6982 19.5811 32.914 19.9302C33.0849 20.2057 33.3371 20.4458 33.5797 20.6802C33.898 20.9873 33.8649 21.1834 33.4172 21.3155C32.9054 21.4676 32.3938 21.6311 31.8692 21.7354C30.4418 22.0185 29.1832 22.5552 28.2099 23.5615C27.4674 24.3297 26.8081 25.139 26.963 26.2295C27.0773 27.0369 27.5293 27.7219 28.087 28.3523C28.2248 28.5082 28.3659 28.6632 28.4599 28.7674C27.5101 29.174 26.603 29.4973 25.7707 29.9355C24.6949 30.5018 24.2183 31.4536 24.0206 32.5212C23.9148 33.0981 24.1745 33.5821 24.5762 34.0184C24.7097 34.1647 24.9106 34.3445 24.5676 34.4631C24.1477 34.6076 23.7119 34.7196 23.2781 34.8315C21.7696 35.2199 20.6039 35.9803 19.9885 37.3081C19.8219 37.6688 19.7738 38.0734 19.637 38.4475C19.325 39.2969 19.5954 39.9886 20.2952 40.5874C20.6702 40.9089 20.6606 41.0313 20.2246 41.3058C19.0644 42.0386 18.0451 42.8957 17.2619 43.9604C16.6925 44.7343 16.3902 45.5733 16.7737 46.4849C16.9479 46.8991 17.1648 47.3353 17.4949 47.6491C17.8955 48.0298 17.9147 48.1724 17.3773 48.4575C16.591 48.8746 15.7726 49.2649 15.0674 49.7766C14.2971 50.3344 13.6785 51.0489 13.7725 52.0209C13.8024 52.3232 13.9755 52.635 14.1625 52.8981C14.576 53.4835 14.9788 54.0919 15.5012 54.5961C16.0611 55.1385 16.1263 55.1223 15.4564 55.614C14.5514 56.2779 14.1753 57.1809 14.0642 58.17C13.9264 59.4088 14.295 60.4649 15.6689 61.0494C15.6839 61.0561 15.7074 61.0637 15.7085 61.0733C15.733 61.2206 15.8313 61.4177 15.7608 61.5086C15.3944 61.9869 14.951 62.4183 14.5974 62.9033C14.1914 63.461 13.7053 64.0216 13.5151 64.6444C13.2395 65.5503 12.9082 66.4763 13.0236 67.4472C13.0727 67.8538 13.0877 68.2719 13.2127 68.6603C13.4734 69.4696 13.8142 70.2559 14.7522 70.6481C15.0321 70.7648 15.3324 70.8576 15.6336 70.915C16.092 71.002 16.0793 71.267 15.9457 71.5473C15.4724 72.5413 15.0044 73.5399 14.483 74.5147C13.9275 75.5574 13.7736 76.5935 14.4788 77.6085C14.8944 78.2064 15.3944 78.7574 16.3046 78.7928C16.7459 78.81 17.1829 78.8923 17.622 78.9477C18.3218 79.0348 18.3464 79.0491 18.2791 79.6517C18.1541 80.7873 17.8901 81.9228 17.9168 83.0545C17.9382 83.9231 18.232 84.8118 18.5611 85.6412C18.8987 86.4945 19.6969 87.0589 20.5441 87.5295C20.7044 87.6195 20.9084 87.6539 21.0986 87.6902C21.402 87.7476 21.7108 87.7772 22.0153 87.8318C22.8251 87.9762 23.6349 88.0834 24.448 87.8538C24.7973 87.7553 24.9416 87.8567 24.9982 88.1953C25.1799 89.2658 25.3807 90.3343 25.6168 91.3962C25.8829 92.5948 26.6532 93.4998 27.7857 94.1589C27.9865 94.2765 28.2269 94.3674 28.462 94.4048C29.5806 94.5827 30.6746 94.5061 31.7516 94.1464C32.0155 94.0584 32.273 93.626 32.5999 93.978C32.7987 94.1923 32.8691 94.5042 32.9898 94.7739C33.0262 94.8553 33.0315 94.9471 33.0647 95.0303C33.4375 95.9764 33.7367 96.9197 34.6096 97.6773C35.8222 98.7287 37.8116 99.0568 39.2636 98.28C39.6503 98.0733 40.0659 97.9107 40.4687 97.728C40.5979 97.881 40.7101 97.9767 40.771 98.0934C41.4206 99.3169 42.614 100.013 43.91 100.54C44.5927 100.819 45.3908 100.945 46.1472 100.984C47.2787 101.044 48.424 100.962 49.3567 100.259C49.8033 99.9224 50.2147 99.5484 50.6378 99.1868C50.8824 98.9783 51.1174 98.852 51.4593 99.0615C51.9102 99.338 52.3686 99.6164 52.859 99.8297C54.9819 100.75 57.1058 101.381 59.2949 99.9205C59.7469 99.6192 59.9712 99.2863 59.9712 98.8281C59.9712 98.4799 59.9071 98.124 59.812 97.7844C59.6785 97.307 59.7576 97.1884 60.3014 97.2535C60.8014 97.3128 61.2928 97.4506 61.7929 97.4793C62.951 97.5462 64.1188 97.5108 65.2706 97.6208C67.0131 97.7863 68.2172 97.0086 69.2311 95.9085C69.4768 95.6426 69.5623 95.2131 69.5997 94.8486C69.6414 94.4296 69.5912 93.9924 69.4993 93.5782C69.4277 93.2548 69.5409 93.1314 69.855 93.0281C70.3561 92.8645 70.8508 92.678 71.3348 92.4771C72.6265 91.9395 73.8103 91.2278 74.5967 90.1669C75.4172 89.0601 75.7312 87.8021 75.2227 86.4744C75.1532 86.2936 75.0924 86.1108 75.0261 85.9291C74.8904 85.5579 75.0112 85.2948 75.3755 85.0614C76.3702 84.4233 77.3766 83.792 78.3157 83.0908C79.616 82.1217 80.804 81.0848 81.2378 79.5064C81.5893 78.2236 81.444 77.1311 80.3233 76.2147C80.1171 76.0453 80.0988 75.8875 80.3115 75.6933C80.9611 75.1002 81.6 74.4966 82.2335 73.8901C82.4002 73.7303 82.5573 73.5562 82.6833 73.3687C83.1972 72.6073 83.709 71.8448 84.1973 71.07C84.5114 70.5725 84.8426 70.0741 85.0562 69.5403C85.2753 68.9912 85.5381 68.4441 85.3052 67.8003C85.0028 66.9623 84.4633 66.3252 83.6824 65.8182C83.2529 65.5398 83.2283 65.3331 83.4954 65.0165C84.0745 64.3315 84.6418 63.638 85.2101 62.9454C85.3661 62.757 85.4997 62.5541 85.6557 62.3657C86.3555 61.5229 86.9527 60.6391 87.0595 59.56C87.1193 58.9573 86.9922 58.4235 86.3597 58.0724C86.1674 57.9653 85.9965 57.818 85.8479 57.664C85.7785 57.5922 85.7219 57.4276 85.7668 57.3635C85.9976 57.0297 86.2133 56.6681 86.5263 56.4021ZM40.7999 15.2572C41.2754 14.7358 41.7881 14.2412 42.2807 13.7323C43.505 12.4667 44.7059 11.1829 45.9538 9.93835C46.972 8.92338 48.0768 7.97926 49.0854 6.95855C50.6174 5.40979 52.1014 3.82367 53.6004 2.24908C54.0139 1.81478 54.1506 1.811 54.5256 2.27113C54.6026 2.36583 54.6827 2.46246 54.735 2.56961C55.5449 4.20638 57.0375 5.28735 58.5931 6.29658C59.5835 6.94038 60.3249 7.77257 61.0172 8.64309C61.7886 9.61023 62.498 10.6166 63.217 11.6153C63.4361 11.9195 63.5974 12.2572 63.8228 12.6428C63.6604 12.7442 63.5579 12.8532 63.435 12.8761C63.1145 12.9364 62.7844 12.9479 62.4618 12.9977C61.5269 13.1411 60.7299 13.5296 60.0803 14.1408C59.811 14.3953 59.6251 14.4019 59.4595 14.0767C58.9734 13.1229 58.1539 12.4161 57.2191 11.845C56.1688 11.2021 54.9594 11.0528 53.6891 11.137C52.7061 11.203 52.1816 11.6564 51.9038 12.4581C51.7157 13.0024 51.6174 12.9833 51.0896 12.6609C49.6024 11.755 48.0137 11.2078 46.1932 11.7741C45.8107 11.8928 45.442 12.0687 45.0948 12.2591C43.6183 13.0674 42.6568 14.268 41.9142 15.6369C41.8234 15.8034 41.6033 16.0444 41.4655 16.033C41.1962 16.0119 40.9185 15.8636 40.6994 15.7067C40.6353 15.6599 40.6984 15.3672 40.7999 15.2572ZM84.6161 57.8869C84.9163 58.0017 85.2197 58.1135 85.506 58.2522C86.224 58.5976 86.4227 59.0989 86.2015 59.8078C85.8607 60.9069 85.1888 61.8424 84.4356 62.735C83.6663 63.6457 82.9697 64.6166 81.8703 65.2633C81.584 65.4316 81.6599 65.6431 81.8885 65.8047C81.9985 65.8832 82.1534 65.93 82.2955 65.9492C83.3201 66.0869 83.8617 66.7451 84.3361 67.4664C84.803 68.1762 84.584 68.8956 84.1877 69.5279C83.3885 70.8059 82.569 72.083 81.6278 73.2778C81.1 73.9475 80.3297 74.4727 79.6331 75.0265C79.2645 75.3193 78.8104 75.4934 78.2784 75.4724C78.1256 75.4657 77.9653 75.6072 77.8082 75.6818C77.9044 75.8243 77.9643 76.0157 78.1042 76.098C78.3329 76.2319 78.6074 76.3161 78.8745 76.3811C80.7143 76.8336 80.8489 77.7089 80.5743 79.0539C80.289 80.4515 79.2784 81.477 78.0775 82.3264C77.0251 83.0697 75.8947 83.7241 74.8028 84.4224C74.6426 84.5248 74.4994 84.6482 74.3573 84.7696C73.775 85.2661 73.8071 85.2509 74.212 85.8966C74.7707 86.7891 74.8252 87.7323 74.4534 88.7042C74.01 89.8617 73.1586 90.6672 71.962 91.2498C70.963 91.7357 69.9405 92.1423 68.8379 92.3795C68.4116 92.4704 68.3839 92.6876 68.4843 93.0042C68.6222 93.4404 68.7482 93.8805 68.8614 94.3224C69.0281 94.971 68.6179 95.3661 68.1424 95.8023C66.9832 96.8632 65.5451 96.8795 64.0718 96.7819C62.8976 96.7054 61.7256 96.5743 60.5557 96.4442C60.1348 96.3973 59.7223 96.2844 59.3067 96.2012C58.9606 96.1323 58.8024 96.2424 58.8548 96.5696C58.9146 96.9474 58.9007 97.3454 59.0321 97.7022C59.5172 99.0242 58.9413 99.5226 57.3622 99.8536C56.6667 99.999 55.8644 99.8478 55.1336 99.7197C54.0353 99.5274 52.9818 99.1763 52.1313 98.4876C51.8087 98.2264 51.5758 97.8791 51.2766 97.5931C51.1345 97.4563 50.9326 97.3683 50.7585 97.2593C50.6602 97.4143 50.5052 97.5597 50.4721 97.7252C50.3449 98.3757 49.9326 98.8683 49.3877 99.2557C48.2456 100.066 46.9528 100.363 45.5115 100.034C45.1002 99.9406 44.6429 99.9397 44.2775 99.7723C42.816 99.1036 41.5852 98.2168 41.0456 96.7474C40.8832 96.3064 40.6546 96.2596 40.271 96.5714C39.4687 97.2238 38.6139 97.7749 37.459 97.7787C36.1267 97.7835 35.1855 97.2018 34.5327 96.2098C33.9547 95.3326 33.7314 94.3521 33.5839 93.3562C33.5583 93.1821 33.5893 92.9966 33.5358 92.8311C33.4771 92.6493 33.3948 92.414 33.2388 92.3375C33.1266 92.282 32.8499 92.4149 32.696 92.5211C31.8616 93.098 30.9557 93.5007 29.8926 93.6088C28.618 93.7389 27.7751 93.1831 27.1105 92.2867C26.3071 91.201 26.1179 89.9584 26.0122 88.7148C25.9587 88.069 26.1296 87.4099 26.1788 86.7556C26.1895 86.6121 26.166 86.4007 26.0656 86.3338C25.9587 86.262 25.7247 86.2878 25.573 86.3366C25.3444 86.4102 25.1414 86.5461 24.9224 86.6456C23.3711 87.3497 21.308 87.0838 20.0558 85.9951C19.4308 85.4508 19.1712 84.7247 19.0141 83.9862C18.6316 82.1888 18.8838 80.4505 19.7172 78.7793C19.9394 78.3335 19.8271 78.147 19.2929 78.1011C18.5087 78.0341 17.7224 77.9959 16.9404 77.9174C15.5995 77.7816 14.7822 76.8431 15.1241 75.6809C15.6187 74.003 16.3089 72.3844 17.498 70.9772C17.6156 70.8366 17.7406 70.6931 17.8154 70.5343C17.8795 70.3984 17.9553 70.1832 17.8838 70.1029C17.8015 70.0082 17.5664 70.0005 17.3955 69.9928C16.8922 69.9679 16.3762 70.0168 15.8858 69.9364C14.9756 69.7862 14.3025 69.086 14.1572 68.2709C13.748 65.9674 14.592 64.012 16.2726 62.314C16.6316 61.9505 17.1487 61.7114 17.5995 61.4216C17.7181 61.3451 17.8912 61.3192 17.9788 61.2245C18.1177 61.0771 18.2064 60.8907 18.3164 60.7204C18.1295 60.6276 17.9532 60.4869 17.7534 60.4524C17.3378 60.3788 16.9104 60.3597 16.4873 60.3224C15.5888 60.243 15.1807 59.4968 15.1583 58.9401C15.0931 57.3454 15.5579 56.0406 17.5889 55.3757C17.7908 55.3088 17.9137 55.0486 18.074 54.8783C17.902 54.774 17.7438 54.618 17.5547 54.5731C16.5835 54.3445 15.9318 53.7772 15.4318 53.0377C15.3046 52.8493 15.1999 52.6503 15.0813 52.4581C14.7202 51.8707 14.8067 51.1676 15.3837 50.6778C16.3313 49.8742 17.4233 49.2591 18.6231 48.7894C19.0205 48.6344 19.387 48.401 19.7331 48.1638C20.0248 47.9638 19.9234 47.7448 19.6317 47.6128C19.4287 47.5209 19.2043 47.4578 18.9821 47.409C17.6381 47.1173 17.3421 45.515 17.9532 44.6129C18.6787 43.5424 19.6723 42.7254 20.8123 42.0491C21.1745 41.8348 21.6595 41.7545 22.1029 41.6894C22.5025 41.6301 22.9287 41.7172 23.3283 41.656C23.5238 41.6263 23.683 41.4062 23.8593 41.2723C23.7076 41.1594 23.574 40.992 23.4009 40.9451C22.9789 40.8313 22.5291 40.8007 22.106 40.6888C20.6968 40.3186 20.2257 39.5274 20.6317 38.2628C21.1541 36.6375 22.4565 35.81 24.2012 35.369C24.9587 35.1777 25.6617 35.2973 26.3818 35.414C26.7323 35.4714 27.0315 35.4293 27.1682 35.1289C27.305 34.8286 26.9898 34.7434 26.7729 34.6143C26.3295 34.3503 25.8904 34.0795 25.4641 33.7935C24.9844 33.4711 24.8551 32.5203 25.1307 31.9061C25.5677 30.9323 26.5015 30.5028 27.4631 30.0618C28.1821 29.7317 28.9438 29.8675 29.6821 29.7719C30.0165 29.7288 30.3658 29.658 30.3776 29.3414C30.3851 29.1577 30.149 28.8985 29.9449 28.7875C29.2333 28.401 28.603 27.9639 28.1778 27.3C27.5698 26.3501 27.6478 25.4193 28.3786 24.5459C29.3519 23.3846 30.6308 22.6997 32.1971 22.384C33.1405 22.1946 34.0732 21.9592 34.9984 21.7086C35.2014 21.654 35.4878 21.4503 35.4932 21.3078C35.4996 21.1251 35.303 20.8887 35.1203 20.7567C34.7538 20.4908 34.3307 20.288 33.9429 20.045C33.5593 19.8049 33.5241 19.4739 33.6812 19.1047C34.3137 17.6267 35.5957 16.8241 37.24 16.4625C38.1406 16.2645 39.0755 16.0875 40.0093 16.3429C40.3992 16.4491 40.8875 16.5218 41.1204 16.7686C41.5019 17.1714 41.7978 17.5904 42.4346 17.709C42.6055 17.7406 42.708 18.0026 42.8822 18.1021C43.02 18.1805 43.2208 18.171 43.3939 18.2007C43.395 18.0543 43.4527 17.883 43.3886 17.7635C43.1397 17.2947 42.8406 16.847 42.5895 16.3793C42.5361 16.2798 42.5724 16.1153 42.6248 16.0024C43.4784 14.1389 44.8566 12.7623 47.1109 12.2543C47.9752 12.0592 48.8033 12.2974 49.5982 12.5997C49.8396 12.6915 50.0704 12.8053 50.2979 12.923C50.767 13.166 51.126 13.4865 51.2766 13.9773C51.3172 14.1083 51.4753 14.2106 51.579 14.3254C51.7264 14.2097 51.9369 14.1188 52.0106 13.9734C52.2168 13.5583 52.3739 13.1229 52.5395 12.6925C52.7778 12.0745 53.2703 11.7895 53.9851 11.7493C56.4915 11.6096 57.9114 12.5604 59.0204 14.6373C59.1476 14.8755 59.2244 15.1357 59.3569 15.371C59.4135 15.4714 59.5599 15.6044 59.654 15.5977C59.7875 15.5872 59.9649 15.4887 60.0311 15.3815C61.0162 13.8098 63.0205 13.056 64.9564 13.5515C65.6028 13.717 66.2449 13.8959 66.8838 14.0805C67.4896 14.2565 67.8731 14.6401 67.9095 15.2026C67.9426 15.7096 67.8443 16.2214 67.8315 16.7313C67.8262 16.9341 67.8956 17.1378 67.9308 17.3406C68.1221 17.2431 68.3763 17.1876 68.4971 17.0422C69.34 16.0281 71.1008 15.4274 72.447 15.7546C73.2173 15.9421 73.775 16.4204 74.1255 17.0346C74.7152 18.0697 75.0037 19.1831 74.9524 20.3578C74.9995 20.3645 75.0464 20.3722 75.0934 20.3789C74.9353 21.0304 74.7676 21.6799 74.6277 22.3342C74.5988 22.471 74.6789 22.626 74.7078 22.7723C74.8702 22.7446 75.0667 22.7609 75.1896 22.6825C76.0069 22.1678 76.8531 21.7334 77.9012 21.8052C79.7292 21.9286 81.1769 23.3071 81.1727 24.9477C81.1673 26.3778 80.7773 27.7334 80.1021 29.0286C80.0262 29.176 80.0797 29.3777 80.0733 29.5537C80.2763 29.5002 80.5209 29.4935 80.6726 29.3845C81.1534 29.0391 81.5765 28.6297 82.0637 28.2939C82.8596 27.7458 83.6962 27.94 84.1204 28.7694C84.5979 29.7059 84.6685 30.6941 84.4879 31.7043C84.2529 33.0234 83.927 34.3043 82.7677 35.2695C82.6716 35.3499 82.6684 35.5202 82.6214 35.6483C82.7976 35.6885 83.0124 35.8062 83.1449 35.7546C83.927 35.4523 84.7518 35.4896 85.568 35.4608C85.7464 35.4542 85.9313 35.4685 86.1055 35.5039C86.8907 35.6627 87.0413 35.8799 87.0915 36.5983C87.1567 37.5081 86.6973 38.2905 86.3832 39.0989C85.9761 40.1502 85.4451 41.1623 84.9676 42.1916C84.802 42.5475 84.9142 42.7618 85.2903 42.8048C86.4805 42.9426 87.4549 43.947 87.5692 45.0089C87.7668 46.8312 86.9121 48.2557 85.5798 49.5203C85.3138 49.7729 85.0008 49.9852 84.7198 50.2263C84.6119 50.3181 84.4366 50.5046 84.4623 50.5352C84.567 50.6624 84.724 50.8031 84.8864 50.8337C85.2368 50.8987 85.6022 50.9055 85.9623 50.9227C87.3331 50.9868 88.2326 52.3021 87.6909 53.4558C87.0926 54.731 86.1877 55.7794 85.1204 56.7428C84.9131 56.9303 84.6941 57.1072 84.4804 57.289C84.1952 57.53 84.2475 57.7453 84.6161 57.8869Z" fill="#251C1C"/>
<path d="M80.3425 41.9105C80.1991 41.1407 80.1698 40.3468 79.9511 39.5971C79.5797 38.3179 79.0963 37.0665 78.6642 35.8026C78.501 35.325 78.4121 34.8166 78.1788 34.3707C77.7278 33.5086 77.1963 32.682 76.7025 31.8381C76.2944 31.1384 75.9429 30.4062 75.4773 29.7401C74.7783 28.7396 74.001 27.7843 73.2571 26.8107C72.9809 26.4502 72.7465 26.0514 72.4159 25.741C71.7661 25.1316 71.0483 24.5847 70.3829 23.9888C69.1535 22.8874 67.6176 22.2435 66.1089 21.5688C65.4654 21.2805 64.7173 21.1892 64.0812 20.8922C62.9972 20.3876 61.9646 19.7898 60.9078 19.2343C59.3436 18.4107 57.6329 17.9407 55.9087 17.5082C55.8197 17.4861 55.7036 17.5553 55.6 17.5822C55.4807 17.614 55.3614 17.6755 55.2422 17.6745C53.9092 17.662 52.5763 17.6341 51.2423 17.6265C50.8918 17.6236 50.5182 17.612 50.1928 17.71C48.9593 18.081 47.7059 18.4222 46.5288 18.9143C45.3078 19.4246 44.1275 20.0416 43.0007 20.7125C41.877 21.3833 40.8181 22.1532 39.775 22.9298C39.1546 23.392 38.6168 23.9485 38.0466 24.4666C37.1112 25.3152 36.1308 26.1254 35.2582 27.025C33.9912 28.3321 32.7733 29.6814 31.5942 31.0568C30.8534 31.9198 30.1806 32.8406 29.555 33.7786C28.9711 34.6542 28.4711 35.5807 27.9657 36.4985C27.294 37.7181 26.6233 38.9398 26.0092 40.1844C25.5927 41.0263 25.2736 41.9085 24.9116 42.7735C24.3194 44.1863 23.5975 45.5664 23.1674 47.0196C22.48 49.3426 21.981 51.7137 21.4181 54.0684C21.3365 54.4115 21.3657 54.7747 21.3071 55.1236C21.1523 56.0386 20.9315 56.9459 20.8227 57.8657C20.6993 58.9181 20.7338 59.9887 20.5811 61.0373C20.3572 62.575 20.5026 64.1022 20.6637 65.6207C20.829 67.1671 21.1157 68.7117 21.4788 70.2312C21.7969 71.5584 22.2718 72.8559 22.7248 74.1534C23.0115 74.9741 23.3464 75.7862 23.7293 76.5734C24.085 77.3028 24.5349 77.9948 24.943 78.7032C25.4263 79.5441 25.825 80.4245 26.5061 81.1665C27.1444 81.8623 27.6675 82.6495 28.3319 83.3223C29.0936 84.0921 29.9431 84.7908 30.777 85.4982C31.1045 85.7749 31.5586 85.9393 31.841 86.2439C32.9062 87.3896 34.4128 87.9153 35.751 88.6775C36.0774 88.8639 36.4143 89.0331 36.745 89.2109C36.9385 89.3147 37.1175 89.4512 37.3236 89.5213C38.3594 89.8731 39.4319 90.146 40.3442 90.7563C40.4447 90.8236 40.5755 90.8562 40.6958 90.8937C41.7641 91.2291 42.8259 91.5829 43.9036 91.8885C44.8338 92.1528 45.7723 92.4152 46.7275 92.5767C47.6389 92.7305 48.5753 92.7736 49.5044 92.8275C51.0728 92.9188 52.5951 93.4609 54.2148 93.1216C55.6001 92.8314 57.0198 92.6881 58.4197 92.4536C59.2128 92.32 59.9411 92.0596 60.6358 91.729C60.889 91.8539 61.2437 91.8029 61.3002 91.4819C61.3064 91.4483 61.3085 91.4147 61.3138 91.381C61.6653 91.1869 62.0116 90.9802 62.3548 90.765C63.4398 90.0845 64.5311 89.4319 65.5146 88.6179C67.2985 87.1426 68.3866 85.2088 69.7008 83.425C70.0732 82.9195 70.2783 82.3102 70.5817 81.7595C71.2105 80.6187 71.9031 79.5047 72.4796 78.3428C73.1744 76.9396 73.7823 75.4999 74.4132 74.0708C74.8652 73.0482 75.2921 72.0159 75.7346 70.9904C76.1532 70.0197 76.5947 69.0577 76.9954 68.0802C77.3909 67.1162 77.6765 66.109 78.1411 65.1757C78.6433 64.1695 78.9028 63.119 79.1361 62.0512C79.428 60.723 79.7053 59.3918 80.0192 58.0675C80.1688 57.4399 80.4199 56.8334 80.5695 56.2058C80.7432 55.4744 80.9399 54.7344 80.9818 53.9905C81.1094 51.7396 81.168 49.4858 81.2621 47.0062C81.2318 46.7755 81.1931 46.32 81.1094 45.8721C80.8625 44.5506 80.5873 43.233 80.3425 41.9105ZM59.2871 91.3792C57.2312 91.95 55.1261 92.2691 52.9906 92.3133C51.913 92.3354 50.8269 92.099 49.7461 91.9712C49.2617 91.9135 48.7782 91.851 48.2938 91.7904C47.1324 91.8212 45.9763 91.777 44.861 91.6021C43.211 91.3435 41.6667 90.7294 40.1977 89.9759C40.2144 89.9605 40.2312 89.9471 40.2396 89.926C41.0222 87.8615 41.0902 85.8932 42.9463 84.267C45.0169 82.4525 48.1086 82.3073 50.2242 84.1286C50.7034 84.5409 51.4191 83.8884 50.9462 83.4655C50.8227 83.355 50.6961 83.254 50.5684 83.1569C56.0112 80.9127 59.9839 86.5131 60.3512 90.963C60.0143 91.1293 59.6638 91.2744 59.2871 91.3792ZM65.7155 86.2133C65.7124 86.2805 65.7249 86.342 65.7458 86.3997C64.4348 87.7125 62.8466 88.8303 61.3619 89.9663C61.3096 89.308 61.1558 88.6419 60.9194 87.9913C60.5103 86.614 59.9944 85.3204 60.1085 83.8441C60.119 83.7163 59.8982 83.6904 59.8657 83.8144C59.7192 84.368 59.6093 84.9484 59.5664 85.5299C57.4038 82.6745 53.6508 80.9003 50.197 82.8993C45.5735 79.9151 38.7162 84.8119 39.9278 89.8346C39.2853 89.4954 38.6555 89.134 38.0403 88.762C38.3991 88.4727 38.6126 87.999 38.7916 87.6068C39.0678 86.9975 39.1703 86.3612 39.3838 85.7375C39.4162 85.6452 39.2676 85.6135 39.2299 85.6981C38.9851 86.2565 38.6157 86.8158 38.2359 87.3088C37.9587 87.6683 37.5444 87.9394 37.287 88.2998C37.2473 88.2748 37.2054 88.2498 37.1656 88.2248C37.0662 88.2805 36.9522 88.2777 36.7785 88.1797C36.0356 87.7654 35.2761 87.3733 34.5447 86.9427C34.5709 86.8793 34.5886 86.8101 34.5981 86.7342C34.733 85.6731 34.0739 84.0719 32.766 83.8729C33.8238 81.3385 36.1308 79.5941 38.4871 77.9334C38.7894 78.3207 39.2341 78.6148 39.6997 78.8493C40.3013 79.1511 40.8412 78.2938 40.2354 78.0074C39.7604 77.7825 39.2697 77.5662 38.9213 77.1799C38.6441 76.8723 38.5749 76.4062 38.6356 75.9785C38.8846 76.3158 39.1451 76.6503 39.4266 76.9781C39.7572 77.3635 40.4907 76.8503 40.1727 76.4495C39.5177 75.6249 38.9066 74.7733 38.3793 73.8833C39.0751 73.6738 39.82 73.0894 39.5354 72.4503C39.2362 71.7795 38.146 71.767 37.4188 71.9534C37.2692 71.5853 37.1311 71.2124 37.0191 70.8289C37.1625 70.8357 37.3121 70.8107 37.4565 70.7434C38.1471 70.4263 38.7947 69.9121 38.7403 69.1345C38.69 68.4166 37.9315 67.7592 37.4188 67.2719C37.2399 67.1018 37.0369 67.0413 36.8434 67.0547C37.0725 65.8678 37.5099 64.7106 37.9274 63.4496C37.9451 63.3958 37.9325 63.3487 37.9043 63.3102C38.0905 63.1805 38.1962 62.9143 38.01 62.6942C37.3111 61.8658 36.3914 60.1434 36.8465 59.0526C37.2462 58.0924 39.7907 59.3063 40.6707 59.265C41.1645 59.4178 41.7232 59.4755 42.2746 59.5331C45.2021 59.8359 48.2248 59.5081 51.1544 59.3649C54.0871 59.2227 57.023 59.0324 59.9578 58.9526C60.8398 58.9286 61.726 59.0536 62.4071 58.7816C62.4218 58.7807 62.4354 58.7826 62.4501 58.7778C63.4796 58.4779 64.4808 58.1184 65.4831 57.7542C65.0584 58.9719 64.2884 60.3684 64.3166 61.4976C64.3459 62.6721 65.6077 63.8648 65.9278 64.9874C66.0293 65.342 66.0963 65.6948 66.1486 66.0456C65.4152 65.7803 64.2873 66.2272 63.6846 66.5011C62.4553 67.0585 62.5588 68.2205 63.3372 69.1047C63.8227 69.6573 64.8303 70.3532 65.7113 70.3561C65.5596 70.8097 65.3765 71.2566 65.1746 71.6987C64.867 71.3719 64.4568 71.1634 63.9368 71.2326C63.2348 71.3249 62.8277 71.9265 62.9784 72.5532C63.0893 73.0126 63.5758 73.5623 64.1272 73.6517C63.5957 74.5224 63.0046 75.3643 62.3946 76.1688C62.0315 76.6493 62.8769 77.0876 63.2431 76.6243C63.511 76.2841 63.7736 75.9382 64.0289 75.5854C64.0676 75.7719 64.1199 75.7709 64.2633 75.9919C64.8136 76.8415 65.5668 77.5047 66.0324 78.4225C66.8287 79.9911 67.0422 81.6297 67.3989 83.2847C66.3935 84.1036 65.7615 84.9302 65.7155 86.2133ZM39.9759 49.3772C39.956 49.0687 39.9236 48.7621 39.8838 48.4565C39.8901 48.4401 39.8954 48.4228 39.8985 48.4046C40.0795 47.0196 40.2501 45.6453 40.6006 44.2854C40.723 43.8087 40.8569 43.405 40.7575 43.0417C48.1945 43.0965 55.6711 42.7995 63.1112 42.5736C62.8779 46.5372 62.632 50.5008 62.405 54.4644C62.4029 54.5057 62.404 54.5556 62.404 54.6018C54.9032 54.8113 47.1963 54.4903 39.7542 55.2716C39.6234 53.3283 40.1004 51.3321 39.9759 49.3772ZM62.2638 57.141C61.4927 58.4164 59.7632 58.2376 58.4909 58.3077C56.209 58.4327 53.926 58.5384 51.643 58.6527C49.5819 58.7556 47.5175 58.896 45.4542 58.9392C44.364 58.9613 42.4316 59.1622 41.4721 58.7518C40.2396 58.2241 39.8974 56.8104 39.775 55.5754C47.2433 56.078 54.9283 55.4648 62.4301 55.3956C62.4636 56.0492 62.4877 56.769 62.2638 57.141ZM80.3644 48.1692C80.2818 50.1298 80.2619 52.0933 80.1133 54.0491C80.0421 54.9804 79.7481 55.8993 79.5336 56.8191C79.1298 58.5481 78.6882 60.2694 78.3043 62.0022C77.9841 63.441 77.4003 64.7952 76.8353 66.158C76.0296 68.1014 75.2408 70.0495 74.432 71.9909C74.1568 72.6512 73.8451 73.298 73.5458 73.9496C73.0729 74.9818 72.6083 76.017 72.1176 77.0425C71.7368 77.8383 71.3246 78.6225 70.9176 79.4077C70.859 79.5211 70.7533 79.6134 70.6204 79.7748C70.4551 80.1525 70.2752 80.5206 70.0482 80.8656C70.0471 80.9425 70.0313 81.0224 70.0031 81.0839C69.6149 81.921 69.1943 82.7389 68.644 83.4982C68.5215 81.673 68.08 79.7278 67.1562 78.1199C66.6477 77.2328 65.389 75.4595 64.1115 75.4691C65.8295 73.0702 67.174 70.3849 67.2232 67.4708C67.2452 66.1503 67.0108 64.799 66.4385 63.5813C65.818 62.2598 65.3607 61.6044 65.6882 60.1031C65.8996 59.1401 66.2847 58.2174 66.4699 57.239C66.5337 56.9026 66.2083 56.6893 65.8776 56.8209C65.0176 57.1631 64.1597 57.4994 63.3143 57.8637C63.6292 57.1313 63.5528 56.1414 63.5612 55.3091C63.782 55.1582 63.7913 54.8237 63.5894 54.6642C63.671 53.409 63.7453 52.1529 63.8217 50.8968C63.9912 48.1105 64.1596 45.3243 64.326 42.538C66.1968 42.4842 68.0644 42.4352 69.9278 42.3997C69.5166 45.578 69.3596 48.8794 69.7855 52.0721C69.7614 52.1048 69.7436 52.1404 69.7373 52.1779C69.7258 52.2586 69.73 52.3403 69.729 52.422C69.3042 52.5335 68.8888 52.7132 68.486 52.8698C67.9984 53.0611 67.4931 53.2159 67.0798 53.5292C66.8298 53.7185 67.1112 54.0126 67.3634 53.9761C67.8562 53.904 68.2956 53.6618 68.7423 53.4667C69.0792 53.3196 69.4382 53.1755 69.7698 53.0015C69.7709 53.0121 69.7718 53.0217 69.7729 53.0314C69.5887 53.312 69.4319 53.6109 69.2551 53.8925C68.9684 54.35 68.6754 54.8046 68.3626 55.2467C68.1784 55.5081 68.6189 55.8319 68.8386 55.5849C69.1996 55.1784 69.5479 54.7652 69.8514 54.3211C69.8984 54.2519 69.9477 54.1799 69.9969 54.1087C70.1036 54.6249 70.2113 55.14 70.3044 55.6599C70.3494 55.9098 70.8255 55.8541 70.7899 55.5994C70.7251 55.1342 70.6988 54.621 70.658 54.1058C70.9008 54.4576 71.1635 54.7959 71.4617 55.0881C71.6594 55.2812 71.9785 55.0352 71.8508 54.8122C71.5213 54.2365 71.0316 53.7031 70.5545 53.2043C70.5514 53.189 70.5503 53.1726 70.5482 53.1572C70.8108 53.385 71.0912 53.5974 71.3727 53.8031C71.6991 54.0433 72.0099 54.2884 72.3991 54.4355C72.7538 54.5691 72.9201 54.1193 72.7328 53.9079C72.4765 53.6176 72.1103 53.4186 71.7776 53.2091C71.4281 52.99 71.0776 52.7632 70.701 52.5864C70.6089 52.5431 70.5189 52.5508 70.4436 52.5844C70.4331 52.5786 70.4237 52.57 70.4122 52.5652C70.385 52.4729 70.3515 52.3845 70.318 52.297C70.34 48.7746 70.4133 45.3108 70.883 41.7875C70.9353 41.3924 70.4353 41.3069 70.1664 41.5164C70.1005 41.4866 70.0241 41.4664 69.932 41.4683C68.0141 41.5077 66.091 41.5338 64.1659 41.5539C63.9504 41.4011 63.6073 41.403 63.3781 41.5626C53.5996 41.6587 43.7477 41.6221 34.0466 42.4093C33.717 42.4362 33.7087 42.8725 34.0466 42.886C35.7594 42.9571 37.4753 43.0013 39.1933 43.0253C39.1923 43.1522 39.2341 43.2782 39.3315 43.3877C39.3179 43.456 39.3032 43.5732 39.2885 43.7414C39.2749 43.825 39.2634 43.9076 39.2508 43.9912C39.2446 43.8336 39.2414 43.6751 39.2435 43.5165C39.2445 43.4444 39.1316 43.4473 39.1242 43.5165C39.0207 44.4411 39.0385 45.3637 39.1012 46.2863C39.1107 46.5064 39.1285 46.7265 39.1525 46.9457C39.2833 48.4786 39.4852 50.0134 39.3994 51.5608C39.2948 53.4609 38.4881 56.4192 39.3576 58.2203C39.3754 58.2558 39.3994 58.2828 39.4193 58.3174C38.8962 58.1694 38.3448 58.078 37.8593 57.9838C37.1771 57.8512 36.5023 57.6225 36.1706 58.3174C35.4215 59.8801 36.3558 62.0272 37.4021 63.2535C37.446 63.3054 37.4941 63.34 37.5433 63.3621C35.1201 67.5448 35.7291 71.8534 38.3982 75.6478C38.0968 76.1005 38.0382 76.7733 38.1491 77.2452C38.1794 77.374 38.2275 77.4932 38.284 77.6076C36.5838 77.9171 34.9967 79.2414 33.8866 80.3919C32.6719 81.6509 31.8118 83.0964 31.4111 84.7331C29.5079 83.2328 27.8862 81.5 26.5449 79.5221C25.2443 77.6028 24.3948 75.5133 23.5065 73.42C22.6977 71.5123 22.2603 69.543 21.9109 67.5516C21.4286 64.8 21.3814 62.0272 21.7528 59.2545C22.0238 57.2352 22.2426 55.2082 22.5826 53.1985C22.8316 51.73 23.1664 50.2653 23.5975 48.8332C24.0872 47.2013 24.6992 45.5982 25.3071 43.9989C25.7727 42.7754 26.2686 41.5577 26.8357 40.3717C27.4362 39.1194 28.1028 37.8922 28.8038 36.6841C29.5948 35.3212 30.4077 33.9641 31.3013 32.657C31.9374 31.7248 32.6792 30.8434 33.4513 29.9996C34.6472 28.6915 35.8828 27.4123 37.1509 26.1629C38.0141 25.3123 38.9704 24.5415 39.8702 23.7217C41.2388 22.4742 42.8658 21.5448 44.4854 20.625C45.6091 19.9878 46.8584 19.5409 48.0375 18.9834C49.3015 18.3856 50.647 18.1906 52.0479 18.2281C53.315 18.2617 54.5831 18.303 55.8501 18.3415C55.9296 18.3443 56.0143 18.3453 56.0886 18.3684C57.0281 18.6615 57.9531 19.0076 58.9105 19.2401C60.1043 19.5314 61.1558 20.106 62.0974 20.7576C63.2776 21.5746 64.7142 21.6976 65.9613 22.2897C67.7013 23.1143 69.4999 23.8514 70.7199 25.3546C70.8057 25.4593 70.9144 25.5564 71.0326 25.6285C71.7608 26.0735 72.2495 26.703 72.7214 27.3633C73.5479 28.5214 74.4237 29.6497 75.2576 30.8031C75.5045 31.1443 75.6813 31.5277 75.8874 31.8929C76.4252 32.8473 76.9735 33.7969 77.4903 34.7608C77.6431 35.0463 77.6964 35.3759 77.8063 35.6816C78.2133 36.8137 78.6893 37.9287 79.0147 39.08C79.3003 40.0882 79.4165 41.1368 79.6101 42.168C79.7293 42.8062 79.8381 43.4463 79.9783 44.0807C80.2765 45.431 80.422 46.791 80.3644 48.1692Z" fill="#251C1C"/>
<path d="M63.6587 61.8121C63.7045 61.8754 63.7644 61.9079 63.8266 61.9188C63.892 62.1015 64.013 62.219 64.1853 62.1394C64.5495 61.9694 64.5396 61.2731 64.6367 60.7648C64.7762 60.0286 64.9867 59.3014 65.2396 58.6538C65.317 58.4567 65.1873 58.2594 65.074 58.3028C65.0511 58.2847 65.026 58.2758 64.9976 58.2848C64.6574 58.3952 64.3543 58.6285 64.0413 58.8727C63.7971 59.0644 63.4635 59.2146 63.2662 59.5185C63.1092 59.7609 63.1048 60.0594 63.168 60.3705C63.2672 60.8498 63.4221 61.4865 63.6587 61.8121Z" fill="#251C1C"/>
<path d="M60.9311 73.3182C59.8287 73.0195 58.6998 72.9312 57.5668 72.8636C57.5668 72.8446 57.5719 72.8284 57.5719 72.8094C57.5719 72.193 57.0862 71.7107 56.4757 71.3616C57.7713 71.0658 59.1078 70.943 60.4586 70.9887C60.6274 70.9944 60.6253 70.7556 60.4586 70.7451C58.9268 70.6462 57.4615 70.7861 56.0278 71.1371C55.5953 70.9468 55.1433 70.8146 54.7793 70.7451C54.2976 70.6529 53.8314 70.6405 53.3927 70.7052C53.6187 70.1744 53.7005 69.636 53.4265 69.149C53.2986 68.9217 52.9591 68.9064 52.773 69.071C52.3762 69.4191 52.0725 69.812 51.8527 70.2419C51.5162 69.5589 51.0039 68.9958 50.3106 69.4648C50.1593 69.5675 50.0417 69.7454 50.1092 69.9262C50.2861 70.4066 50.5173 70.8593 50.7934 71.2855C49.3168 70.4551 47.1826 70.3342 46.434 71.6793C45.2325 71.6422 44.03 71.6955 42.8765 71.8733C42.8571 71.8762 42.8632 71.9029 42.8806 71.9038C44.0198 71.959 45.1477 72.0008 46.2756 72.056C46.2572 72.115 46.2357 72.1691 46.2213 72.2319C46.1324 72.6353 46.2479 72.9635 46.477 73.2327C45.3542 73.4791 44.2376 73.7625 43.1404 74.0355C43.0585 74.0555 43.0934 74.1715 43.1752 74.1535C44.3685 73.8814 45.566 73.6884 46.7675 73.5048C47.2777 73.89 48.0252 74.1183 48.5825 74.2562C49.193 74.4084 49.7881 74.4456 50.3424 74.3609C50.3045 75.0867 50.6655 75.5994 51.5991 75.7344C52.5481 75.8724 53.4397 75.3692 53.6248 74.4978C55.3039 74.9744 57.4042 74.6034 57.5525 72.9882C58.6722 73.1423 59.7868 73.3706 60.9065 73.4905C61.0139 73.5019 61.0292 73.3449 60.9311 73.3182ZM50.0448 73.7539C49.3812 73.6978 48.6868 73.7302 48.06 73.4867C47.9649 73.4505 47.8687 73.403 47.7747 73.3507C48.2624 73.2765 48.7512 73.2023 49.24 73.1205C49.5028 73.0777 49.3853 72.7218 49.1317 72.7542C48.5396 72.8293 47.9465 72.934 47.3555 73.0501C47.1315 72.8398 46.97 72.582 46.9546 72.2871C46.9505 72.2196 46.9658 72.1597 46.975 72.0959C47.9802 72.152 48.9854 72.2205 49.9968 72.3299C50.1737 72.349 50.2166 72.0674 50.0397 72.0379C49.0897 71.8828 48.1039 71.7696 47.111 71.7116C47.4372 71.2103 48.2093 70.9592 48.8392 71.0866C49.102 71.0781 49.3689 71.1057 49.6184 71.1685C49.9927 71.2636 50.4446 71.4196 50.6461 71.743C50.823 71.8629 51.007 72.0274 51.2013 72.2548C51.2954 72.349 51.3874 72.445 51.4805 72.5402C51.5122 72.6448 51.594 72.7294 51.6983 72.7789C51.3148 73.1584 50.8915 73.4067 50.4314 73.5313C50.3802 73.6683 50.2524 73.771 50.0448 73.7539ZM51.637 75.2008C51.0296 75.1228 50.7473 74.7775 50.598 74.3105C51.1154 74.1906 51.5929 73.9585 51.9979 73.5847C52.2821 73.8929 52.6779 74.1401 53.1237 74.3247C52.9856 74.9867 52.3456 75.293 51.637 75.2008ZM56.8326 72.8188C56.2047 72.7817 55.5769 72.739 54.9531 72.6572C54.7926 72.6363 54.7782 72.8608 54.9245 72.8513C55.5595 72.8085 56.1884 72.8379 56.8162 72.9007C56.443 74.1763 53.2138 74.5397 52.3793 72.7979C52.3435 72.7237 52.277 72.6819 52.2024 72.6543C52.2034 72.6524 52.2045 72.6524 52.2055 72.6505C52.3814 72.6039 52.5173 72.447 52.4457 72.2776C52.6186 72.0198 52.815 71.7392 52.997 71.4462C53.8079 71.1333 54.7987 71.0067 55.5881 71.2493C55.0155 71.4091 54.4459 71.5994 53.8804 71.8267C53.6565 71.9171 53.8498 72.231 54.0748 72.1359C54.7231 71.86 55.3897 71.6403 56.0667 71.4653C56.2497 71.5766 56.4184 71.7088 56.5524 71.8857C56.8101 72.2282 56.8858 72.543 56.8326 72.8188Z" fill="#251C1C"/>
<path d="M51.5016 45.4106C54.5185 45.5736 57.5918 45.8044 60.6098 45.5403C61.1176 45.4967 61.1339 44.6952 60.6098 44.6906C57.5777 44.6665 54.5283 45.0191 51.5016 45.1833C51.3627 45.1902 51.3627 45.4025 51.5016 45.4106Z" fill="#251C1C"/>
<path d="M58.4537 78.6822C57.9294 78.8235 57.4665 79.0382 56.9147 79.1318C56.1957 79.2548 55.4776 79.2348 54.7518 79.1619C54.5663 79.1431 54.5425 79.3792 54.7088 79.4207C55.5412 79.6272 56.4103 79.6844 57.2756 79.609C57.8398 79.5601 58.5012 79.4941 58.8201 79.0722C58.9649 78.8806 58.7235 78.6087 58.4537 78.6822Z" fill="#251C1C"/>
<path d="M57.5428 77.703C54.6965 78.1613 52.1914 78.6036 49.2801 77.9989C49.2637 77.9957 49.2576 78.0136 49.2732 78.0174C51.8891 78.7303 55.1512 79.0492 57.6979 77.9735C57.9014 77.8876 57.762 77.668 57.5428 77.703Z" fill="#251C1C"/>
<path d="M52.8118 68.6933C54.1285 68.8396 55.4465 68.9248 56.7752 68.9618C56.962 68.9665 57.133 68.8489 57.1788 68.7155C57.6498 67.3418 58.7894 63.5765 55.8741 63.1661C53.0985 62.7752 52.6913 66.3822 52.6166 68.094C52.3841 68.2839 52.3938 68.646 52.8118 68.6933ZM53.6238 66.3229C53.8165 65.7866 54.1767 64.0044 55.0754 63.8868C55.5512 64.0174 56.027 64.1471 56.5029 64.2777C56.7077 64.5509 56.8331 64.8426 56.8812 65.152C56.9692 65.4883 56.9933 65.819 56.9728 66.1608C56.9294 66.8852 56.6944 67.5966 56.4475 68.295C56.1066 68.2802 55.7693 68.2505 55.4308 68.2255C55.7934 67.8957 55.7933 67.4094 55.8813 66.9722C56.0005 66.3785 56.1463 65.7828 56.0054 65.1863C55.8885 64.6907 54.979 64.688 54.6839 65.0641C54.2755 65.5837 54.1562 66.221 53.9948 66.8055C53.878 67.2307 53.6972 67.704 53.9478 68.0866C53.6478 68.0523 53.3479 68.0245 53.0479 67.9819C53.0407 67.981 53.0358 67.9837 53.0286 67.9828C53.2226 67.428 53.4238 66.8759 53.6238 66.3229Z" fill="#251C1C"/>
<path d="M44.4647 68.9597C45.2966 68.8544 46.1171 68.6901 46.9346 68.4776C47.049 68.4486 47.1294 68.3042 47.1301 68.1698C47.1407 66.7771 47.0756 62.9887 45.2155 63.1412C43.4449 63.2865 43.9245 66.788 44.2252 68.4267C44.1214 68.651 44.2003 68.9933 44.4647 68.9597ZM44.8738 63.9746C45.1905 64.0091 45.5064 64.0445 45.8231 64.0799C46.0027 64.3014 46.1383 64.5547 46.23 64.8398C46.3512 65.143 46.4331 65.4526 46.4891 65.7813C46.6096 66.4776 46.6088 67.1966 46.5998 67.9056C46.3891 67.9546 46.1777 67.9892 45.9663 68.0291C46.1209 67.6478 46.0224 67.1866 45.9876 66.7545C45.9406 66.1689 45.9095 65.5761 45.7034 65.0359C45.5322 64.5865 44.9768 64.7526 44.873 65.1657C44.7291 65.734 44.7852 66.3614 44.8049 66.9469C44.8193 67.3736 44.8048 67.8557 45.0344 68.1726C44.8442 68.1962 44.6556 68.2252 44.4647 68.2406C44.4601 68.2416 44.4578 68.2443 44.4533 68.2452C44.4593 67.6823 44.47 67.1203 44.4806 66.5575C44.4904 66.0127 44.3502 64.2533 44.8738 63.9746Z" fill="#251C1C"/>
<path d="M38.5312 61.2597C38.2749 60.8289 37.9896 60.489 37.6787 60.303C37.6782 60.303 37.6774 60.303 37.6765 60.303C37.6729 60.2922 37.6703 60.2805 37.6663 60.2697C37.6338 60.1787 37.557 60.2296 37.5477 60.3383C37.505 60.8112 37.557 61.3125 37.5987 61.7776C37.6387 62.2182 37.6943 62.6755 37.8422 62.9996C37.9026 63.1337 38.0199 63.1876 38.0949 63.0721C38.2602 62.8145 38.5343 62.3857 38.5081 61.8804C38.6027 61.7855 38.6418 61.4457 38.5312 61.2597Z" fill="#251C1C"/>
</svg>
