<svg width="102" height="102" viewBox="0 0 102 102" fill="none" xmlns="http://www.w3.org/2000/svg">
<path d="M31.974 93.7901C32.1274 93.5954 32.2798 93.3998 32.4333 93.2051C33.0738 93.9223 34.5417 93.6999 34.4833 92.4918C34.4487 91.7736 34.4133 91.0544 34.3787 90.3363C34.3346 89.4302 33.0498 88.643 32.3719 89.505C32.3326 89.5548 32.2933 89.6057 32.253 89.6555C31.6854 89.6565 31.112 89.6575 30.5338 89.6584C30.2529 88.9412 29.3612 88.6277 28.7235 89.1771C28.2144 88.5912 27.0533 88.621 26.6553 89.576L26.6333 89.6296C24.286 89.5951 21.9388 89.5587 19.6021 89.7035C19.2167 89.1656 18.417 89.0064 17.859 89.5463C17.6135 88.8051 16.4428 88.4695 15.8972 89.1042C15.5549 89.5031 15.2529 89.8876 14.9767 90.2826C14.8128 90.3152 14.6478 90.3498 14.4839 90.3862C14.3822 90.4082 14.2662 90.4657 14.1483 90.5434C13.4378 90.7179 12.8864 91.4457 13.4263 92.1994C13.5221 92.4017 13.618 92.603 13.7139 92.8053C13.7494 93.1821 13.9805 93.5149 14.2854 93.7306C14.8617 94.7249 15.5913 95.5754 16.485 96.2504C16.4447 96.4854 16.4054 96.7212 16.3651 96.9561C16.2021 97.9149 17.1456 98.6552 17.9107 98.3839C17.9079 98.3973 17.904 98.4107 17.9012 98.4241C17.6116 99.6677 19.4267 100.569 20.0499 99.3302C20.1304 99.1711 20.21 99.0109 20.2906 98.8518C20.701 99.1221 21.2369 99.1433 21.6502 98.6629C21.7154 98.5862 21.7672 98.5075 21.8314 98.4308C22.074 98.6983 22.4269 98.8518 22.7845 98.8393C22.7807 98.8642 22.7759 98.8882 22.7711 98.9131C22.5352 100.423 24.4558 100.935 25.0378 99.5383C25.2267 99.0857 25.4146 98.6332 25.6035 98.1796C26.1395 98.1144 26.6812 98.0185 27.2325 97.8843C29.1301 97.4193 30.972 95.7777 31.974 93.7901Z" fill="#EF4036"/>
<path d="M45.8127 13.5245C44.3006 13.4583 44.3035 15.8094 45.8127 15.8756C57.5843 16.3905 69.6119 14.7269 81.3538 13.8956C82.8544 13.7892 82.8659 11.4381 81.3538 11.5445C69.6119 12.3758 57.5843 14.0384 45.8127 13.5245Z" fill="#39B100"/>
<path d="M71.0203 19.4844H48.573C47.06 19.4844 47.058 21.8354 48.573 21.8354H71.0203C72.5333 21.8345 72.5353 19.4844 71.0203 19.4844Z" fill="#39B100"/>
<path d="M58.4506 29.3613H46.7777C45.2656 29.3613 45.2628 31.7124 46.7777 31.7124H58.4506C59.9627 31.7114 59.9656 29.3613 58.4506 29.3613Z" fill="#39B100"/>
<path d="M41.4845 4.26877C40.868 4.27453 40.2534 4.56028 39.5371 4.74341C39.9619 5.66006 40.1508 6.12989 41.146 5.72046C42.0962 5.33022 43.2267 5.27173 44.2795 5.2631C46.8569 5.242 49.4352 5.33596 52.0135 5.37911C63.9788 5.58238 75.9432 5.79909 87.9085 5.96209C89.1262 5.97935 89.6315 6.30725 89.688 7.59497C89.8012 10.1685 90.1378 12.7315 90.2854 15.305C90.5261 19.5047 90.8847 23.712 90.8319 27.9108C90.7783 32.1738 90.2816 36.43 89.991 40.6892C89.8482 42.7775 89.8789 44.8899 89.5711 46.9523C89.1396 49.8509 88.2671 52.6909 87.9468 55.5952C87.548 59.2168 87.4693 62.8786 87.3437 66.525C87.2248 69.9557 87.2565 73.3913 87.1644 76.823C87.0771 80.0715 86.8432 83.318 86.8231 86.5666C86.8163 87.7747 86.5287 88.1832 85.2918 88.1717C79.3614 88.117 73.4272 88.2437 67.4997 88.1056C61.7275 87.9723 55.962 87.5657 50.1917 87.3404C47.0831 87.2196 43.9698 87.2061 40.8584 87.2013C40.4883 87.2013 40.1162 87.5638 39.7452 87.7585C40.1124 87.9176 40.4816 88.2158 40.8459 88.211C42.2545 88.1928 43.6697 87.9425 45.0677 88.024C49.625 88.2915 54.1728 88.7394 58.7311 88.98C63.2482 89.2178 67.7739 89.3895 72.2967 89.4077C76.9192 89.4249 81.5418 89.1698 86.1643 89.142C87.6582 89.1325 88.0168 88.4574 87.9411 87.1687C87.8529 85.6615 87.7301 84.1485 87.7829 82.6441C87.9794 77.0138 88.1606 71.3806 88.5049 65.7589C88.7791 61.2687 89.2499 56.7899 89.69 52.3112C90.108 48.0665 90.6181 43.8313 91.0458 39.5875C91.1522 38.5261 91.0573 37.4464 91.1273 36.3802C91.4111 32.0251 91.7706 27.6739 91.9931 23.316C92.0516 22.1789 91.6565 21.0263 91.5712 19.8738C91.3238 16.5256 91.1493 13.1706 90.901 9.82141C90.7907 8.3237 90.5721 6.83368 90.3813 5.15476C90.2528 5.12983 89.8846 5.00325 89.5135 4.99366C86.9832 4.9227 84.4519 4.86707 81.9205 4.82488C71.3647 4.65037 60.8089 4.4759 50.2531 4.31386C47.3305 4.26975 44.407 4.24097 41.4845 4.26877Z" fill="#251C1C"/>
<path d="M85.6672 91.6869C82.4186 91.475 79.1634 91.2037 75.9119 91.2152C70.6144 91.2315 65.3178 91.4741 60.0192 91.5824C57.8801 91.6256 55.739 91.5518 53.5989 91.5585C49.567 91.5709 45.5351 91.594 41.5032 91.6457C41.2222 91.6496 40.7725 91.8691 40.7093 92.0811C40.6383 92.3198 40.8512 92.7196 41.0535 92.9497C41.6537 93.6314 42.3575 94.225 42.9299 94.9268C43.7171 95.8934 44.4737 95.5233 45.1832 94.9298C45.7595 94.4484 46.2341 93.8443 47.0807 92.9497C47.5026 93.5576 47.8152 94.1177 48.2323 94.5846C49.1672 95.6317 50.2583 95.7447 51.0177 94.6507C51.9248 93.3438 52.665 93.806 53.4838 94.5587C54.7812 95.7505 55.3353 95.7678 56.5933 94.5136C57.2655 93.8424 57.8235 93.7657 58.5379 94.5414C59.7076 95.8138 60.4594 95.7879 61.6205 94.4408C62.2696 93.6862 62.7155 93.6995 63.3637 94.411C64.2784 95.4139 65.5489 96.1896 66.642 95.063C68.2509 93.4052 69.1886 94.5385 70.298 95.5146C70.4734 95.669 70.6585 95.8119 70.833 95.9548C71.3086 95.6892 71.7708 95.5098 72.1294 95.2068C72.464 94.923 72.6884 94.5097 73.0623 94.0207C73.4526 94.4781 73.7009 94.829 74.0106 95.1148C74.3558 95.435 74.747 95.7102 75.1353 95.9816C76.2466 96.7592 77.0118 96.4993 78.2237 94.712C78.731 93.9632 79.0569 93.8655 79.6313 94.5606C79.9323 94.925 80.3313 95.2049 80.6467 95.5578C81.4215 96.4265 82.0648 96.3718 82.6325 95.3574C82.8089 95.0429 82.9642 94.7169 83.1656 94.3257C83.4235 94.5175 83.5692 94.6306 83.7198 94.7389C84.5108 95.3066 85.3037 95.8723 86.0957 96.439C86.4217 95.6211 86.7478 94.8032 87.0738 93.9853C87.091 93.9393 87.115 93.8961 87.1275 93.8491C87.5033 92.4262 87.1265 91.7819 85.6672 91.6869ZM42.1955 92.6458C43.4582 92.6458 44.629 92.6458 45.794 92.6458C44.6635 94.7734 43.6912 94.8175 42.1955 92.6458ZM49.5977 94.1531C48.9188 94.1819 48.1958 93.1578 47.4921 92.5969C47.586 92.4368 47.679 92.2757 47.773 92.1146C48.9974 92.1146 50.2219 92.1146 51.4473 92.1146C51.5403 92.2488 51.6323 92.3831 51.7253 92.5173C51.0177 93.1051 50.3293 94.1224 49.5977 94.1531ZM52.7494 92.5892C54.2097 92.5892 55.461 92.5892 56.7458 92.5892C54.948 94.8348 54.948 94.8348 52.7494 92.5892ZM58.0728 92.6899C59.3912 92.5135 60.6751 92.3419 62.1162 92.1491C60.5687 94.8003 59.8256 94.8808 58.0728 92.6899ZM85.7103 95.3698C84.9384 94.6804 84.4408 94.2969 84.017 93.8463C82.8482 92.6046 82.526 92.6439 81.8778 94.157C81.7714 94.4063 81.6094 94.6325 81.4205 94.9614C81.1932 94.761 81.0475 94.6574 80.9324 94.5261C78.9812 92.3035 78.8393 92.2632 77.076 94.5414C76.3425 95.4888 75.655 95.2874 74.9828 94.7341C72.9396 93.0495 72.9616 93.0226 70.7726 94.7773C70.2136 94.248 69.6968 93.5999 69.0333 93.1943C68.6565 92.9632 67.8031 92.9047 67.5643 93.153C65.3734 95.4302 64.429 94.5616 62.8325 92.0887C68.4225 92.0887 73.8869 92.0369 79.3494 92.1184C81.2258 92.1462 83.1042 92.4684 84.9672 92.7493C85.3967 92.8145 86.0238 93.2 86.1053 93.5462C86.2185 94.0237 85.9011 94.6028 85.7103 95.3698Z" fill="#251C1C"/>
<path d="M78.7118 13.3178C72.1083 13.547 65.5077 13.8806 58.9023 14.0628C54.67 14.1798 50.4319 14.0878 46.1968 14.106C45.5889 14.1079 44.9809 14.2028 44.373 14.2546C44.3913 14.4905 44.4095 14.7263 44.4277 14.9613C56.7813 14.7417 69.136 14.5221 81.4896 14.3025C81.4953 14.0619 81.5002 13.8202 81.505 13.5796C80.5739 13.4866 79.639 13.2862 78.7118 13.3178Z" fill="#251C1C"/>
<path d="M81.5446 30.1102C81.231 29.9318 80.9271 29.6164 80.6039 29.5943C76.6391 29.3326 72.6715 29.1034 68.7038 28.8838C61.3793 28.4782 54.0595 28.3431 46.7628 29.3086C46.4579 29.3489 46.1664 29.4917 45.8691 29.5876C45.8778 29.7381 45.8864 29.8887 45.895 30.0392C46.3514 30.0392 46.8078 30.0565 47.2633 30.0363C50.5636 29.8887 53.8697 29.5282 57.1623 29.6212C64.9605 29.8427 72.7511 30.2847 80.5464 30.603C80.8724 30.6165 81.2118 30.2828 81.5446 30.1102Z" fill="#251C1C"/>
<path d="M79.6559 21.1083C79.1323 20.9405 78.6097 20.6308 78.0843 20.626C73.9067 20.5857 69.7281 20.6039 65.6492 20.6039C65.6434 20.5934 65.6386 20.5848 65.6329 20.5742H63.6586C63.3144 20.6778 62.881 20.6183 62.4716 20.6135C61.2548 20.6001 60.0381 20.5953 58.8213 20.5992C54.7817 20.6116 50.7421 20.6087 46.7035 20.6701C46.1973 20.6778 45.6958 21.0316 45.1934 21.2253C45.249 21.3691 45.3055 21.5129 45.3621 21.6567H79.5216C79.5667 21.4746 79.6108 21.2915 79.6559 21.1083Z" fill="#251C1C"/>
<path d="M79.355 37.9621C79.3809 37.7713 79.4068 37.5805 79.4327 37.3897C78.9399 37.2545 78.4413 36.9831 77.9561 37.0052C72.5924 37.2478 67.2315 36.6494 61.8448 37.4165C57.8311 37.988 53.6995 37.7387 49.6215 37.872C49.1364 37.8873 48.655 38.0043 48.1718 38.0743C48.1526 38.267 48.1325 38.4597 48.1133 38.6525C48.7404 38.7915 49.379 39.0868 49.9926 39.0418C52.5978 38.8519 55.1924 38.385 57.7966 38.3408C64.6293 38.2248 71.4648 38.2824 78.2994 38.2507C78.6513 38.2488 79.0031 38.0628 79.355 37.9621Z" fill="#251C1C"/>
<path d="M78.1963 46.8131C77.7964 46.6251 77.4081 46.3164 76.9929 46.2733C76.0293 46.1726 75.0503 46.1524 74.081 46.1831C66.9146 46.4075 59.7492 46.6549 52.5829 46.8879C51.2692 46.9301 49.9509 46.883 48.644 46.9904C48.2643 47.0221 47.9181 47.4488 47.5566 47.6952C48.0035 47.8295 48.4627 48.1047 48.8971 48.0701C49.7965 47.9963 50.6796 47.628 51.5742 47.6098C57.8028 47.4785 64.0323 47.396 70.2619 47.3203C72.8335 47.2896 75.4061 47.3155 77.9786 47.3155C78.0515 47.1477 78.1244 46.9809 78.1963 46.8131Z" fill="#251C1C"/>
<path d="M45.43 75.2823C48.3401 75.4195 51.254 75.5288 54.1679 75.5546C61.315 75.617 68.4622 75.6342 75.6094 75.6553C76.2441 75.6572 76.8788 75.5556 77.5145 75.5019C77.5098 75.3418 77.505 75.1826 77.5012 75.0225C76.2259 74.8298 74.9555 74.5297 73.6735 74.4673C71.2937 74.3513 68.9062 74.313 66.5225 74.3513C62.5414 74.4146 58.5612 74.5594 54.5802 74.6774C53.047 74.7234 51.5071 74.9045 49.9826 74.8163C48.4513 74.7281 46.9382 74.3446 45.4079 74.1768C45.0714 74.1394 44.6955 74.4664 44.3379 74.6265C44.7013 74.8547 45.057 75.2651 45.43 75.2823Z" fill="#251C1C"/>
<path d="M44.7118 66.8485C46.8826 66.8485 49.0544 66.8831 51.2242 66.8428C59.0387 66.6971 66.8523 66.5244 74.6658 66.3739C75.0858 66.3652 75.5067 66.51 75.9277 66.51C76.3189 66.511 76.7101 66.4151 77.1013 66.3624C77.062 66.1226 77.0226 65.8829 76.9833 65.6432C76.2297 65.6432 75.4751 65.6318 74.7215 65.6452C70.2964 65.7248 65.8724 65.8466 61.4473 65.884C56.3367 65.9271 51.2261 65.8868 46.1155 65.9166C45.6102 65.9194 45.1049 66.1572 44.5996 66.2857C44.637 66.4736 44.6744 66.6615 44.7118 66.8485Z" fill="#251C1C"/>
<path d="M75.2094 80.2474C69.7767 80.4382 64.3439 80.6214 58.9121 80.8265C54.4372 80.9963 49.9633 81.1755 45.4913 81.4076C45.1289 81.4258 44.7894 81.8841 44.4395 82.1373C44.8508 82.2571 45.2717 82.5055 45.6715 82.4748C49.3381 82.1958 52.9951 81.7154 56.6655 81.5927C61.3811 81.4354 66.1062 81.5543 70.8266 81.5543C70.8266 81.4574 70.8266 81.3606 70.8266 81.2637C72.5803 81.2637 74.334 81.282 76.0868 81.2446C76.3514 81.2398 76.6093 80.978 76.8711 80.8352C76.6093 80.6376 76.3725 80.373 76.0781 80.2628C75.8221 80.1669 75.5009 80.2369 75.2094 80.2474Z" fill="#251C1C"/>
<path d="M65.6309 55.4972C68.3032 55.4531 70.9755 55.3899 73.6458 55.293C74.3218 55.2681 74.9901 55.0782 75.6623 54.9641C74.9556 54.7263 74.248 54.2795 73.5433 54.2852C69.3656 54.3207 65.1879 54.4483 61.0113 54.571C56.2641 54.7119 51.5178 54.8759 46.7725 55.0484C46.436 55.0609 46.1062 55.2297 45.7734 55.3256C45.7821 55.4205 45.7897 55.5154 45.7984 55.6104C46.0956 55.6669 46.3938 55.7772 46.6901 55.7734C53.004 55.69 59.318 55.6018 65.6309 55.4972Z" fill="#251C1C"/>
<path d="M34.9584 16.6275C34.9613 16.2881 34.6372 15.871 34.3524 15.6149C32.22 13.6934 29.9753 11.888 27.9301 9.8792C25.7411 7.72949 23.7305 5.39666 21.6335 3.13477C18.6678 6.29125 15.7731 9.33938 12.9177 12.424C11.3174 14.1518 10.1831 15.9793 10.6049 18.6008C11.0431 21.3162 11.185 24.1045 11.1812 26.8602C11.1755 30.4443 10.8523 34.0256 10.7478 37.6107C10.5992 42.7721 10.3643 47.9392 10.4563 53.0987C10.58 60.0963 11.0105 67.0881 11.2464 74.0847C11.3989 78.5951 11.3845 83.1103 11.5628 87.6187C11.6108 88.8422 12.1899 90.0359 12.3481 91.2671C12.7336 94.252 16.2554 98.2015 19.2421 98.6559C21.109 98.9388 23.0247 99.0807 24.9089 99.0126C26.3308 98.9608 27.887 98.7643 29.121 98.1247C32.1711 96.5455 33.6793 93.8301 33.9114 90.4003C33.9363 90.0379 34.1645 89.6936 34.2393 89.3293C34.3774 88.6591 34.5739 87.9773 34.5576 87.3042C34.5375 86.5007 34.1866 85.6982 34.2124 84.9024C34.2978 82.2886 34.5758 79.6796 34.618 77.0658C34.689 72.5689 34.6679 68.07 34.619 63.5721C34.6046 62.3237 34.2182 61.0743 34.2393 59.8297C34.3045 55.8486 34.5404 51.8705 34.6017 47.8894C34.7609 37.4688 34.8673 27.0481 34.9584 16.6275ZM20.2374 5.98346C21.5874 4.52891 21.7677 4.57682 23.0669 6.12247C23.7439 6.92789 24.5292 7.64032 25.2378 8.42082C25.5072 8.7171 25.6999 9.08239 26.1755 9.78234C22.9327 9.78234 20.1626 9.78234 16.9064 9.78234C18.2171 8.2808 19.1971 7.10434 20.2374 5.98346ZM15.3138 11.3002C15.6561 10.9387 16.3676 10.792 16.9141 10.7834C20.1636 10.7355 23.4169 10.6933 26.6635 10.8112C27.2791 10.8342 27.9014 11.5428 28.4642 12.003C29.7769 13.0769 31.054 14.192 32.6294 15.5306C25.6251 16.0483 18.9449 16.0205 11.8649 15.4174C13.1814 13.821 14.1805 12.4968 15.3138 11.3002ZM27.2139 60.9448C27.2724 64.5309 27.608 68.1122 27.7604 71.6992C27.9407 75.9286 28.0615 80.1609 28.1871 84.3922C28.213 85.2533 27.9599 85.8833 26.8821 85.8996C24.7439 85.9322 22.6067 86.0865 20.4704 86.0798C20.1732 86.0789 19.6401 85.4584 19.617 85.0998C19.1405 77.5375 18.639 69.9752 18.314 62.4052C17.9362 53.6184 17.7176 44.8259 17.4405 36.0353C17.3024 31.6582 17.3226 27.2706 16.9937 22.9088C16.8662 21.2059 16.9198 19.5826 17.2305 17.9459C17.3015 17.5691 17.6888 16.9602 17.941 16.9545C21.1895 16.8873 24.44 16.9104 27.888 16.9104C27.888 17.5825 27.8908 18.0159 27.887 18.4493C27.7892 30.0301 27.7106 41.6119 27.5754 53.1927C27.5447 55.7777 27.1717 58.3637 27.2139 60.9448ZM11.5043 48.4302C11.3912 40.0567 11.7565 31.6764 11.8907 23.2981C11.9262 21.1235 11.8965 18.9469 11.8965 16.5527C13.2283 16.663 14.5285 16.7713 15.9591 16.8892C15.9591 17.9564 15.938 18.9536 15.962 19.9498C16.1489 27.935 16.3167 35.9212 16.5488 43.9044C16.6878 48.7044 16.9275 53.5014 17.1308 58.2994C17.3427 63.3094 17.5268 68.3212 17.7953 73.3292C17.9889 76.9613 18.3475 80.5857 18.5384 84.2178C18.6419 86.1767 18.5527 86.1814 16.5056 86.0808C12.8553 85.9015 12.7029 85.9072 12.5619 82.2646C12.1247 70.9897 11.6578 59.7118 11.5043 48.4302ZM27.2331 97.8831C24.4841 98.5543 21.9509 98.3068 19.4013 97.6404C16.2745 96.8235 14.3147 94.5962 13.3367 91.5682C13.2533 91.3103 14.0165 90.4895 14.4863 90.386C19.1597 89.3571 23.9117 89.6188 28.6483 89.6543C29.9916 89.6639 31.3359 89.6553 32.639 89.6553C33.3725 93.1119 30.3781 97.115 27.2331 97.8831ZM31.0234 88.6121C30.7415 88.5536 30.4366 88.5344 30.1527 88.5747C27.4076 88.9649 24.7008 89.0771 21.9211 88.5574C20.5989 88.3101 19.1223 88.9438 17.708 89.1183C16.6495 89.2497 15.5803 89.3235 14.5132 89.3533C12.6674 89.405 12.3961 89.0388 12.7374 86.8872C19.5739 87.3695 26.4267 87.4279 33.2287 85.6991C33.8922 88.6744 33.4818 89.1242 31.0234 88.6121ZM33.9171 20.9384C33.8184 35.157 33.7196 49.3746 33.6151 63.5932C33.5691 69.8246 33.4837 76.0562 33.4809 82.2877C33.4799 83.7729 33.0743 84.6952 31.4587 84.8755C30.7817 84.9512 30.1336 85.2859 29.2658 85.5697C29.1278 81.0651 29.2773 76.7244 28.8075 72.4509C27.7029 62.3937 28.0625 52.3058 28.493 42.2792C28.819 34.6929 28.5908 27.1229 28.8717 19.5519C28.9043 18.689 28.9925 17.8279 29.0635 16.8471C30.6887 16.8471 32.1644 16.8471 33.9181 16.8471C33.9181 18.3294 33.9258 19.6344 33.9171 20.9384Z" fill="#251C1C"/>
</svg>
