<svg width="102" height="102" viewBox="0 0 102 102" fill="none" xmlns="http://www.w3.org/2000/svg">
<path d="M56.464 73.3123C56.8114 73.3722 57.1347 73.3722 57.4342 73.3483C58.2725 74.1507 59.063 75.1568 59.7577 75.8514C61.0991 77.1929 62.4405 78.5343 63.7819 79.8757C65.1353 81.2291 68.1296 80.798 68.441 78.6421C68.5728 77.7917 68.6925 76.9533 68.8243 76.103C69.7226 74.7855 70.6328 73.48 71.4352 72.1146C72.0221 71.1086 72.4653 69.9707 72.7048 68.821C72.8126 68.3299 72.3335 67.5394 71.8904 67.2041C71.6508 67.0364 70.7646 67.4796 70.4052 67.8628C70.1298 68.1622 69.9382 68.5455 69.7465 68.9287C69.6028 67.8388 68.98 66.9046 67.7823 66.5693C66.4648 66.186 64.5725 67.0244 64.3449 68.5215C64.1772 69.6234 64.0095 70.7373 63.8418 71.8392C63.3508 70.4259 62.8238 68.9767 62.0214 67.743C61.4584 66.8807 60.3445 66.3896 59.8056 65.9824C58.6318 66.0064 57.9252 66.4256 57.7096 67.0484C53.6853 66.4136 52.3799 72.6536 56.464 73.3123Z" fill="#EF4036"/>
<path d="M16.521 47.0348C15.1317 46.1844 13.5986 45.5257 11.8978 45.1065C10.1252 44.6753 8.91558 45.6095 8.32871 47.3223C8.05324 48.1487 7.41848 49.1907 6.69986 49.4542C5.09494 50.041 5.52608 50.9872 5.90934 51.9813C6.12492 52.5442 6.50818 53.0712 6.87947 53.5623C6.97529 53.694 7.08308 53.8258 7.1789 53.9455C7.68193 55.5744 8.87969 56.9398 10.3888 57.862C11.0236 59.1435 12.0655 60.2214 13.5028 60.8562C19.2877 63.4073 25.3839 56.317 22.1861 50.9513C21.1201 49.1667 18.9284 47.7414 16.521 47.0348Z" fill="#39B100"/>
<path d="M92.8499 25.045C90.3228 24.6019 87.8795 24.8534 85.9871 26.8895C83.3282 29.752 82.8132 33.2852 83.1366 36.9621C83.2085 37.8245 83.448 38.3874 83.8672 38.7347C84.2624 40.16 85.6518 41.2978 87.101 40.9744C88.2747 41.5493 89.8437 41.2619 90.7898 39.9684C91.7719 38.6269 92.6223 37.2017 93.3529 35.7285C94.4907 34.1954 95.1495 32.2672 95.365 30.1951C95.4609 29.8238 95.5447 29.4406 95.6286 29.0693C95.8082 28.171 95.6046 27.3925 95.1734 26.7937C94.7662 25.8595 93.9039 25.2247 92.8499 25.045Z" fill="#39B100"/>
<path d="M69.0877 19.0337C69.2314 16.794 68.3811 14.8418 67.0277 13.0931C66.1414 11.9433 64.9796 11.5601 63.5783 11.8715C62.5363 12.099 61.4824 12.2547 60.4643 12.5661C59.8894 12.7338 59.2906 13.0332 58.8714 13.4405C56.3442 15.9676 55.4699 19.1774 55.1226 23.4891C55.5178 25.1539 55.7214 27.8009 56.7874 30.0166C57.9132 32.3761 59.1109 33.5618 60.7637 33.3941C62.0213 34.2325 64.0933 33.957 64.8718 32.5318C65.5545 31.2742 66.1893 29.9328 66.7283 28.5434C67.4349 27.6332 67.9858 26.5792 68.3571 25.5851C69.0637 23.6808 69.3393 21.477 69.0758 19.381C69.0638 19.2613 69.0757 19.1535 69.0877 19.0337Z" fill="#39B100"/>
<path d="M36.4622 21.0321C35.3484 20.3255 33.983 19.9662 32.6775 19.5949C26.6291 17.8582 24.5571 20.6489 23.7068 25.9547C23.2996 29.5118 28.0783 35.3087 31.3121 36.6142C31.7792 36.8058 32.2224 36.9495 32.6296 37.0693C32.8332 37.237 33.0368 37.4046 33.2404 37.5604C34.5339 38.5185 36.1748 37.6801 37.0132 36.6142C37.4923 36.2908 37.9714 35.8716 38.4504 35.3566C41.804 31.7635 40.75 23.7389 36.4622 21.0321Z" fill="#39B100"/>
<path d="M85.9751 41.7535C93.5446 41.9092 97.8083 35.5375 98 28.9741C97.988 23.5366 92.5625 20.195 87.6399 22.6143C82.6934 25.0337 79.3758 32.2438 80.6813 37.7293C81.4239 40.8074 82.8252 41.6937 85.9751 41.7535ZM85.9871 26.8901C87.8795 24.854 90.3227 24.6025 92.8499 25.0457C94.2751 25.2972 95.353 26.3631 95.4369 27.8363C95.7483 33.6691 92.8139 39.0348 86.2386 39.2264C84.1785 39.2983 83.3042 38.8312 83.1366 36.9628C82.8252 33.2858 83.3402 29.7526 85.9871 26.8901Z" fill="#251C1C"/>
<path d="M73.4478 44.2315C69.2798 44.8423 65.4711 46.3155 62.3931 49.2618C61.2073 50.3877 60.1174 50.7709 58.4646 50.3278C55.099 49.4295 51.7815 50.1601 48.7633 51.6692C40.7746 55.6815 35.9239 66.7602 38.4391 75.1441C39.5889 78.9767 40.6907 82.7255 44.0922 85.2526C45.4815 86.2827 46.8349 87.3726 48.2722 88.3427C53.0749 91.5885 58.2969 93.6845 64.7765 93.8761C66.6569 93.6246 69.1241 93.373 71.5674 92.9538C73.1723 92.6784 74.9569 92.5107 76.2504 91.6723C78.6339 90.1273 80.9454 88.3188 82.8857 86.2468C86.4308 82.4381 88.8023 77.8748 89.7245 72.7128C90.1916 70.0658 90.6468 67.3231 90.4671 64.6642C90.2395 61.3586 89.7005 58.0889 87.7243 55.0826C85.8439 52.2321 84.5145 49.0343 81.5322 47.0222C79.077 45.3454 76.6097 43.7644 73.4478 44.2315ZM82.3826 51.0823C84.1313 53.5137 85.9398 56.2324 86.5746 59.0829C88.8023 69.1196 86.2871 80.4978 76.2504 86.8815C69.735 91.0256 62.6685 91.4328 55.3985 88.4505C51.6018 86.8935 48.5117 84.4023 45.6852 81.6116C44.5593 80.5098 43.9485 78.7611 43.4455 77.1921C42.667 74.7488 42.1879 72.2097 41.7687 70.497C42.0322 65.9458 42.1998 62.2449 44.5473 59.1907C47.6134 55.2024 51.2904 51.9447 56.7759 52.831C61.5307 53.6095 65.8903 55.4779 68.7648 59.6938C69.3996 60.616 70.1302 60.7238 70.8967 60.101C71.8069 59.3464 71.6872 58.3284 70.9326 57.5619C69.699 56.3282 68.4055 55.1305 67.0162 54.1005C64.2614 52.0525 64.2375 50.8428 67.124 48.9145C69.4954 47.3335 72.1303 46.6389 74.9689 46.6269C78.3344 46.6269 80.646 48.663 82.3826 51.0823Z" fill="#251C1C"/>
<path d="M67.1357 66.0419C66.2374 66.9043 65.5188 66.9762 64.6565 65.8503C63.0396 63.7424 60.6921 62.9639 58.2488 62.7363C55.2186 62.9519 52.8232 64.5089 53.973 68.0301C55.3743 72.3418 58.153 75.5637 61.4826 78.4142C62.8599 79.5879 64.381 80.582 65.7224 81.7797C66.7404 82.69 67.8064 82.666 68.5849 81.8276C70.2856 79.9832 72.0822 78.1148 73.2918 75.9469C74.4656 73.839 74.9686 71.3597 75.7232 69.0362C76.346 67.1319 75.6034 65.1916 73.8428 63.97C72.3098 62.904 70.4533 63.0597 68.8603 64.4131C68.2615 64.9281 67.7105 65.503 67.1357 66.0419ZM70.3934 67.8744C70.7527 67.4912 71.639 67.048 71.8786 67.2157C72.3337 67.5391 72.8008 68.3415 72.693 68.8326C72.4534 69.9704 72.0103 71.1202 71.4234 72.1263C70.3934 73.8749 69.1957 75.5277 68.0819 77.2165C67.3992 78.2345 66.6087 78.3423 65.6625 77.5758C62.5245 75.0247 59.8896 72.0424 57.9373 68.4973C57.2067 67.1678 57.8655 66.03 59.8177 65.9941C60.3447 66.4013 61.4706 66.8923 62.0335 67.7547C62.8719 69.0482 63.4108 70.5573 63.9258 72.0304C64.4768 73.5994 65.399 74.1624 66.6686 73.1443C67.7585 72.27 68.4771 70.9286 69.3155 69.7429C69.7107 69.156 69.9144 68.3894 70.3934 67.8744Z" fill="#251C1C"/>
<path d="M57.8651 11.3557C51.9245 16.2902 50.3196 25.5364 55.0385 32.9142C56.1524 34.6509 57.8291 36.1241 60.0329 35.9804C63.2427 35.7648 66.2729 34.5191 67.9976 31.7644C70.2732 28.1115 71.2554 23.8836 71.8901 19.3204C71.5548 18.0388 71.2553 16.4818 70.7283 14.9967C68.4168 8.3734 62.6798 7.35537 57.8651 11.3557ZM69.0875 19.0329C68.7881 23.6081 67.8299 27.9558 64.4404 31.3812C64.3566 31.465 64.2968 31.5489 64.2009 31.6207C60.536 34.5671 58.5717 33.7766 56.7752 30.0278C55.7092 27.8001 55.5176 25.1651 55.1104 23.5003C55.4577 19.1886 56.332 15.9788 58.8592 13.4517C59.2784 13.0325 59.8772 12.745 60.4521 12.5773C61.4702 12.2779 62.5241 12.1102 63.5661 11.8827C64.9674 11.5832 66.1292 11.9665 67.0155 13.1043C68.3809 14.841 69.2312 16.7932 69.0875 19.0329Z" fill="#251C1C"/>
<path d="M34.4741 40.28C36.8935 40.3878 39.1332 39.3338 40.8459 37.4055C44.3911 33.4291 44.7503 27.2011 41.8639 22.6139C39.0253 18.0866 34.4022 16.6853 29.5875 16.2901C26.4735 16.0385 23.3954 17.4638 21.9701 20.4581C20.1975 24.1589 19.6705 28.1712 22.0899 31.908C23.1199 33.489 24.3655 35.0101 25.7668 36.2677C28.1502 38.4235 30.7014 40.4237 34.4741 40.28ZM23.7068 25.9675C24.5572 20.6617 26.6292 17.871 32.6776 19.6077C33.9711 19.979 35.3364 20.3383 36.4623 21.0449C40.762 23.7517 41.816 31.7763 38.4744 35.3694C36.4143 37.5851 34.6418 37.9564 31.3242 36.627C28.0784 35.3095 23.2996 29.5246 23.7068 25.9675Z" fill="#251C1C"/>
<path d="M23.2279 48.28C20.8085 46.2199 17.994 44.5551 15.1554 43.082C13.6823 42.3154 11.7899 42.04 10.0892 42.0639C7.98124 42.0879 6.74757 43.7168 5.84929 45.5133C5.22649 46.7589 4.67556 47.9925 3.23832 48.6633C2.16039 49.1783 1.72921 50.2681 2.17235 51.5617C4.10065 57.1429 9.70591 62.4967 16.5088 62.329C17.1316 62.305 17.7664 62.3409 18.3653 62.2332C21.9703 61.5864 24.6412 59.718 25.779 56.1489C26.7851 52.9869 25.5155 50.2202 23.2279 48.28ZM18.8922 59.0593C18.1018 59.3228 17.2514 59.3946 16.425 59.5623C12.0893 59.3347 9.29865 56.7477 6.8793 53.5498C6.50801 53.0588 6.13673 52.5438 5.90917 51.9689C5.5259 50.9748 5.09477 50.0286 6.69969 49.4417C7.41831 49.1783 8.05307 48.1363 8.32854 47.3098C8.91541 45.5971 10.1131 44.6629 11.8977 45.0941C16.2693 46.16 19.5869 48.807 22.0182 52.4719C23.4914 54.6996 21.7787 58.0891 18.8922 59.0593Z" fill="#251C1C"/>
</svg>
