<svg width="364" height="157" viewBox="0 0 364 157" fill="none" xmlns="http://www.w3.org/2000/svg">
<path d="M22.3152 154.925C20.4962 154.5 18.2847 154.999 17.8027 157.129C17.4334 158.637 17.9662 159.955 18.9542 161.065C17.4214 161.367 16.0475 162.21 15.8933 163.95C15.6412 167.118 18.9994 168.272 21.5285 168.859C24.0576 169.445 27.209 170.144 29.6771 168.759C30.6836 168.17 31.6189 167.086 31.7085 165.881C31.6771 165.522 31.6937 165.075 31.6143 164.803C32.3327 164.74 32.6291 163.991 32.2948 163.352C30.3456 159.207 26.5756 155.889 22.3152 154.925ZM28.8258 161.567L28.8738 161.479C28.9615 161.527 29.0012 161.663 29.0889 161.711C28.8655 161.703 28.8258 161.567 28.8258 161.567ZM19.5738 157.643C19.7012 157.826 19.7409 157.962 19.9163 158.058C19.7326 158.186 19.6365 158.361 19.6282 158.584C19.5968 158.225 19.5174 157.954 19.5738 157.643ZM18.065 163.315L18.1527 163.363C18.3281 163.459 18.4556 163.643 18.631 163.739C18.2238 163.858 17.944 164.161 17.8397 164.56C17.7603 164.288 17.7686 164.065 17.8249 163.753C17.8729 163.666 17.969 163.49 18.065 163.315ZM29.0419 166.587C28.6264 166.93 28.2588 167.185 27.7159 167.343C27.5405 167.247 27.4131 167.064 27.3253 167.016C27.3734 166.928 27.3337 166.792 27.2459 166.744C27.8203 166.944 28.2755 166.738 28.5156 166.299C29.0982 166.276 29.522 165.71 29.5866 165.175C29.8018 165.407 29.3216 166.284 29.0419 166.587ZM27.1046 159.713C26.3632 159.193 25.534 158.625 24.7926 158.105C24.6171 158.009 24.5294 157.961 24.354 157.865C24.0908 157.721 23.8673 157.713 23.7316 157.753C23.4685 157.608 23.341 157.425 23.0779 157.281C23.2533 157.377 23.4288 157.473 23.6522 157.481C24.9763 157.978 26.1564 158.738 27.1046 159.713Z" fill="#39B100"/>
<path d="M15.8774 169.186C17.0178 169.81 18.4859 170.044 19.9144 170.141C21.0316 170.183 22.2366 170.273 23.4019 170.226C25.1498 170.157 26.81 170.04 28.3511 169.515C29.0297 169.317 29.6687 168.983 30.3954 168.696C30.5311 168.657 30.5791 168.569 30.7629 168.442C31.099 167.828 31.5708 167.174 31.7315 166.464C31.8358 166.065 31.677 165.522 31.6059 165.027C31.4471 164.484 31.424 163.901 31.1294 163.398C30.9226 162.943 30.8515 162.448 30.3732 162.072C29.8949 161.696 29.6484 161.106 29.2661 160.554C28.6207 159.859 28.063 159.212 27.4175 158.516C26.7241 157.909 26.0307 157.301 25.2015 156.733C24.2846 156.118 23.3197 155.589 22.2504 155.46C21.6281 155.347 20.918 155.187 20.2874 155.298C19.7047 155.321 19.1138 155.567 18.5709 155.726C17.5727 156.092 16.6623 156.505 16.2218 157.518C16.0215 158.093 15.9088 158.715 15.8442 159.25C15.7796 159.784 15.8904 160.415 15.9134 160.998C15.9532 161.133 15.8091 161.396 15.6734 161.436C15.3059 161.691 14.8507 161.898 14.3954 162.105C12.702 163.116 12.5875 164.991 13.4232 166.588C14.1711 168.138 14.5617 168.466 15.8774 169.186ZM16.0381 168.476C15.4638 168.275 15.0335 167.812 14.6512 167.261C14.4361 167.029 14.269 166.709 14.1018 166.39C13.0908 164.696 13.7316 163.109 15.2329 162.449C15.7362 162.154 16.2791 161.996 16.822 161.837C17.7722 161.559 18.6743 161.369 19.6955 161.586C19.7832 161.634 19.919 161.594 20.0547 161.554C20.1904 161.515 20.3742 161.387 20.3345 161.251C20.3825 161.164 20.1673 160.932 20.0796 160.884C19.7684 160.828 19.3696 160.723 19.1461 160.715C18.4277 160.778 17.7094 160.841 16.943 160.991C16.6715 161.07 16.5441 160.887 16.5524 160.663C16.521 160.304 16.5376 159.857 16.5062 159.498C16.5228 159.051 16.5395 158.604 16.6041 158.07C16.9171 156.873 18.0113 156.332 19.2329 155.974C20.678 155.625 22.0501 156.034 23.3262 156.619C24.7777 157.299 25.9014 158.371 26.9374 159.394C27.9734 160.417 28.8257 161.567 29.6299 162.805C30.1793 163.676 30.593 164.587 30.5994 165.616C30.5745 166.286 30.3741 166.861 30.1738 167.435C29.8377 168.049 29.3741 168.479 28.6475 168.766C27.4259 169.123 26.1165 169.432 24.8155 169.518C23.2911 169.596 21.8146 169.586 20.2505 169.528C18.822 169.43 17.4416 169.244 16.0381 168.476Z" fill="white"/>
<path d="M11.2808 153.217C10.3159 152.689 9.29464 152.472 8.3048 152.614C7.94562 152.646 7.67415 152.725 7.65753 153.172C7.69724 153.308 7.51349 153.435 7.41746 153.611C7.12938 154.137 6.97701 154.623 7.27156 155.127C7.39068 155.534 7.55781 155.853 7.76464 156.309C8.13029 157.307 9.0952 157.835 10.0684 158.14C11.0813 158.58 12.1903 158.845 13.3242 158.44C14.0509 158.153 14.6021 157.771 14.675 157.013C14.6834 156.79 14.6039 156.518 14.4368 156.199C13.6326 154.96 12.4211 153.841 11.2808 153.217ZM9.56702 157.181C8.95299 156.845 8.73786 156.613 8.44331 156.11C8.23648 155.655 8.11736 155.248 7.86251 154.88C7.40083 154.057 8.55133 153.205 9.26139 153.366C11.1764 153.616 12.5153 154.919 13.5347 156.389C13.917 156.94 13.7166 157.514 13.0379 157.713C12.543 157.784 12.0481 157.855 11.5135 157.791C10.8034 157.63 10.2291 157.43 9.56702 157.181Z" fill="white"/>
<path d="M15.3105 148.354C14.7361 148.154 14.0261 147.993 13.4037 147.88C13.1803 147.872 12.7731 147.991 12.6771 148.167C12.1655 148.685 11.9652 149.259 12.2034 150.073C12.5293 150.936 13.1748 151.631 13.9162 152.151C14.6577 152.671 15.4388 153.326 16.3723 153.495C16.907 153.56 17.4019 153.489 17.8174 153.146C18.4647 152.589 18.4499 151.782 17.9402 151.047C17.3991 149.953 16.4905 149.114 15.3105 148.354C15.3502 148.49 15.3105 148.354 15.3105 148.354ZM15.0538 149.239C15.4444 149.567 15.7075 149.711 15.9707 149.855C16.3613 150.183 16.7519 150.511 17.0067 150.878C17.3096 151.158 17.4287 151.565 17.5958 151.885C17.8026 152.34 17.5229 152.643 17.076 152.626C16.5413 152.562 15.919 152.449 15.3927 152.161C14.8664 151.873 14.4361 151.409 13.9098 151.121C13.3437 150.697 13.0492 150.194 12.8904 149.651C12.811 149.38 12.8193 149.156 13.051 148.941C13.3705 148.774 13.6817 148.83 13.9448 148.975C14.0325 149.023 14.208 149.119 14.3437 149.079C14.6549 149.135 14.8784 149.143 15.0538 149.239Z" fill="white"/>
<path d="M165.626 136.855C163.758 136.915 161.752 137.97 161.837 140.152C161.871 141.704 162.726 142.839 163.968 143.656C162.566 144.344 161.457 145.515 161.758 147.235C162.335 150.36 165.877 150.606 168.472 150.518C171.067 150.429 174.291 150.289 176.317 148.312C177.137 147.483 177.76 146.194 177.534 145.007C177.411 144.668 177.311 144.232 177.164 143.99C177.842 143.743 177.934 142.943 177.446 142.412C174.49 138.913 169.99 136.684 165.626 136.855ZM173.633 141.586L173.657 141.489C173.754 141.512 173.828 141.633 173.925 141.657C173.707 141.707 173.633 141.586 173.633 141.586ZM163.681 140.19C163.851 140.334 163.925 140.455 164.119 140.502C163.975 140.673 163.927 140.867 163.977 141.085C163.854 140.747 163.707 140.505 163.681 140.19ZM163.692 146.059L163.789 146.083C163.983 146.13 164.154 146.275 164.348 146.322C163.985 146.542 163.794 146.907 163.796 147.32C163.649 147.078 163.599 146.86 163.573 146.545C163.597 146.448 163.644 146.253 163.692 146.059ZM175.141 146.379C174.829 146.817 174.54 147.159 174.056 147.453C173.862 147.405 173.691 147.261 173.594 147.237C173.618 147.14 173.544 147.019 173.447 146.995C174.054 147.04 174.44 146.723 174.558 146.237C175.115 146.064 175.378 145.407 175.302 144.874C175.57 145.042 175.333 146.014 175.141 146.379ZM171.491 140.24C170.64 139.93 169.692 139.596 168.842 139.286C168.647 139.239 168.55 139.215 168.356 139.168C168.064 139.096 167.846 139.146 167.725 139.22C167.434 139.149 167.263 139.004 166.972 138.933C167.166 138.981 167.361 139.028 167.578 138.978C168.986 139.115 170.323 139.544 171.491 140.24Z" fill="#39B100"/>
<path d="M163.098 152.296C164.361 152.604 165.84 152.449 167.245 152.174C168.335 151.925 169.522 151.7 170.636 151.354C172.306 150.834 173.879 150.291 175.232 149.386C175.836 149.019 176.367 148.53 176.995 148.066C177.116 147.992 177.139 147.895 177.284 147.725C177.449 147.044 177.736 146.291 177.707 145.563C177.705 145.151 177.411 144.668 177.214 144.208C176.92 143.725 176.747 143.168 176.332 142.758C176.015 142.372 175.818 141.912 175.259 141.673C174.7 141.434 174.308 140.927 173.797 140.493C172.993 139.989 172.287 139.508 171.484 139.003C170.657 138.596 169.829 138.189 168.882 137.855C167.836 137.497 166.768 137.237 165.701 137.389C165.071 137.441 164.344 137.469 163.763 137.74C163.206 137.913 162.699 138.304 162.216 138.598C161.347 139.209 160.574 139.844 160.411 140.937C160.366 141.544 160.418 142.174 160.494 142.707C160.57 143.24 160.841 143.821 161.014 144.377C161.087 144.498 161.016 144.79 160.895 144.863C160.606 145.204 160.22 145.522 159.834 145.84C158.46 147.255 158.835 149.096 160.055 150.422C161.179 151.725 161.641 151.941 163.098 152.296ZM163.07 151.569C162.463 151.524 161.927 151.187 161.415 150.754C161.148 150.586 160.904 150.32 160.659 150.055C159.244 148.681 159.453 146.982 160.732 145.956C161.142 145.541 161.625 145.247 162.108 144.953C162.954 144.439 163.776 144.021 164.819 143.967C164.916 143.99 165.037 143.917 165.158 143.843C165.279 143.77 165.423 143.599 165.35 143.478C165.373 143.381 165.106 143.213 165.008 143.189C164.693 143.216 164.281 143.218 164.063 143.268C163.385 143.514 162.708 143.761 162.006 144.105C161.765 144.252 161.594 144.107 161.544 143.889C161.421 143.55 161.321 143.114 161.198 142.776C161.098 142.34 160.999 141.904 160.923 141.37C160.916 140.133 161.832 139.328 162.92 138.666C164.225 137.955 165.657 137.995 167.04 138.229C168.619 138.511 169.981 139.255 171.247 139.975C172.512 140.695 173.633 141.586 174.731 142.574C175.487 143.272 176.122 144.045 176.395 145.038C176.544 145.692 176.499 146.298 176.454 146.905C176.288 147.585 175.952 148.12 175.324 148.585C174.237 149.246 173.052 149.884 171.818 150.304C170.365 150.773 168.936 151.146 167.411 151.494C166.005 151.769 164.624 151.947 163.07 151.569Z" fill="white"/>
<path d="M154.524 138.061C153.456 137.801 152.413 137.856 151.494 138.249C151.155 138.372 150.913 138.519 151.013 138.955C151.086 139.076 150.942 139.247 150.895 139.441C150.752 140.024 150.731 140.534 151.146 140.943C151.366 141.306 151.611 141.571 151.928 141.957C152.54 142.827 153.608 143.087 154.627 143.13C155.72 143.293 156.86 143.262 157.85 142.577C158.478 142.112 158.911 141.6 158.785 140.849C158.736 140.631 158.589 140.39 158.345 140.124C157.247 139.137 155.787 138.369 154.524 138.061ZM153.895 142.334C153.215 142.168 152.947 142 152.532 141.59C152.215 141.204 151.994 140.841 151.653 140.552C150.994 139.877 151.885 138.756 152.612 138.728C154.527 138.474 156.157 139.386 157.522 140.542C158.034 140.975 157.989 141.582 157.385 141.949C156.926 142.146 156.466 142.343 155.933 142.419C155.205 142.447 154.599 142.402 153.895 142.334Z" fill="white"/>
<path d="M157.158 132.322C156.552 132.277 155.824 132.306 155.194 132.358C154.976 132.408 154.613 132.628 154.566 132.822C154.206 133.455 154.161 134.062 154.602 134.787C155.14 135.535 155.943 136.04 156.794 136.35C157.645 136.66 158.569 137.091 159.515 137.013C160.048 136.937 160.507 136.74 160.82 136.302C161.301 135.596 161.078 134.821 160.395 134.243C159.59 133.326 158.495 132.75 157.158 132.322C157.232 132.443 157.158 132.322 157.158 132.322ZM157.139 133.244C157.602 133.459 157.893 133.53 158.184 133.601C158.647 133.817 159.109 134.032 159.45 134.321C159.815 134.513 160.035 134.876 160.279 135.141C160.597 135.527 160.405 135.892 159.969 135.992C159.436 136.068 158.806 136.12 158.223 135.978C157.64 135.836 157.104 135.499 156.521 135.357C155.865 135.094 155.45 134.685 155.156 134.201C155.009 133.96 154.96 133.742 155.128 133.474C155.393 133.23 155.708 133.204 156 133.275C156.097 133.298 156.291 133.346 156.412 133.272C156.727 133.246 156.945 133.196 157.139 133.244Z" fill="white"/>
<path d="M157.318 151.093C155.958 150.762 154.65 151.061 153.563 151.722C152.741 152.139 151.992 152.677 151.608 153.407C151.225 154.137 151.741 155.395 152.713 155.632C154.291 155.914 155.843 155.88 157.293 154.998C157.897 154.631 158.502 154.264 158.862 153.631C159.511 152.657 158.97 151.496 157.707 151.188C157.513 151.141 157.416 151.117 157.318 151.093ZM156.982 151.629C157.079 151.653 157.176 151.676 157.371 151.724C158.439 151.984 158.662 152.759 157.964 153.515C157.698 153.759 157.336 153.979 156.973 154.2C155.862 154.958 154.504 155.039 153.097 154.902C152.514 154.76 152.146 154.156 152.362 153.694C152.625 153.037 153.253 152.573 153.954 152.229C154.8 151.715 155.719 151.321 156.982 151.629Z" fill="white"/>
<path d="M154.716 145.725C153.697 145.682 152.725 145.445 151.709 145.815C151.128 146.085 150.474 146.235 149.797 146.481C149.337 146.678 149.048 147.019 148.953 147.408C148.882 147.7 148.811 147.991 149.273 148.207C149.37 148.23 149.444 148.351 149.444 148.351C149.74 149.247 150.567 149.654 151.442 149.867C152.996 150.246 154.475 150.092 155.633 149.139C155.899 148.895 156.164 148.651 156.453 148.309C157.031 147.627 156.661 146.61 155.664 146.058C155.469 146.011 155.104 145.819 154.716 145.725ZM154.379 146.26C154.744 146.452 155.23 146.57 155.571 146.859C156.107 147.196 156.183 147.729 155.846 148.264C155.702 148.435 155.437 148.679 155.195 148.826C153.987 149.561 152.629 149.642 151.219 149.092C150.368 148.782 150.219 148.128 150.166 147.498C150.09 146.965 150.697 147.01 150.962 146.766C150.962 146.766 150.962 146.766 151.083 146.692C152.026 146.201 153.116 145.952 154.379 146.26Z" fill="white"/>
<path d="M92.4493 132.792C88.5518 129.29 84.8667 133.315 84.406 137.281C81.309 137.524 78.7347 140.561 80.6691 143.9C82.0542 146.368 85.2933 147.115 87.9664 147.438C90.0172 147.649 93.6802 147.83 95.4299 146.507C98.6977 144.078 94.7448 134.846 92.4493 132.792ZM93.0994 135.77C94.1021 137.687 95.6524 141.727 95.1705 143.857C94.5195 146.921 89.6599 146.427 87.2102 146.112C86.0532 145.935 84.8566 145.622 83.7559 145.133C79.5851 142.964 81.6137 136.551 86.2711 138.872C86.9729 139.256 87.5491 138.204 86.8473 137.82C86.4087 137.579 85.9221 137.427 85.4752 137.411C85.6774 135.583 86.3431 133.326 88.4669 132.778C90.8621 132.151 92.2637 134.172 93.0994 135.77Z" fill="white"/>
<path d="M77.3055 140.462C76.2298 139.304 74.1956 138.646 73.1162 139.993C72.4126 140.862 72.4588 142.028 73.0082 142.898C73.0479 143.034 73.0876 143.17 73.1273 143.305C74.2427 144.6 76.0534 145.249 77.7302 144.685C79.7265 143.954 78.1661 141.389 77.3055 140.462ZM76.9759 142.106C77.143 142.425 77.565 143.112 77.3729 143.463C77.2289 143.726 76.3831 143.606 76.1596 143.597C75.5373 143.485 75.0507 143.332 74.5724 142.956C74.5327 142.821 74.493 142.685 74.3175 142.589C73.5761 142.069 73.6656 140.864 74.48 140.626C75.5742 140.085 76.5142 141.283 76.9759 142.106Z" fill="white"/>
<path d="M75.7378 132.08C74.6916 132.533 74.2346 133.993 74.9677 134.736C74.8237 134.999 74.7673 135.311 74.9825 135.542C75.9308 136.517 77.7876 138.332 79.289 137.672C80.7904 137.011 80.4663 134.896 79.7497 133.706C79.0332 132.516 77.2391 131.42 75.7378 132.08ZM79.2364 135.477C79.3075 135.972 79.3305 136.554 78.6122 136.617C78.3887 136.609 78.0859 136.329 77.9104 136.233C77.2964 135.897 76.8661 135.433 76.3001 135.01C76.5318 134.794 76.5965 134.26 76.1099 134.107C75.8633 133.516 75.9197 133.205 76.4543 133.27C76.7258 133.19 76.9972 133.111 77.3481 133.303C77.6593 133.359 78.0101 133.552 78.2253 133.783C78.6159 134.111 79.1256 134.846 79.2364 135.477Z" fill="white"/>
<path d="M83.2768 127.886C82.4162 126.959 80.948 126.725 79.9813 127.45C79.7578 127.442 79.4864 127.521 79.382 127.92C79.0127 129.428 79.4014 131.008 80.3894 132.119C81.1623 132.998 83.2675 134.151 83.996 132.611C84.6285 131.248 84.2647 128.996 83.2768 127.886ZM82.8114 129.569C82.9305 129.976 82.9619 130.335 82.9453 130.782C82.937 131.006 82.9286 131.229 82.9203 131.453C83.0394 131.86 82.9434 132.035 82.5445 131.931C81.7781 132.081 81.0533 131.115 80.7587 130.611C80.4245 129.972 80.3137 129.342 80.4263 128.719C80.4263 128.719 80.4264 128.719 80.4744 128.632C81.3137 127.723 82.5334 128.619 82.8114 129.569Z" fill="white"/>
<path d="M87.6103 123.302C86.6454 122.774 85.3758 123.219 84.8956 124.097C84.7599 124.136 84.6639 124.312 84.5678 124.487C84.2382 126.131 84.9215 128.215 86.2686 129.294C87.4404 130.278 89.4681 129.905 89.6223 128.166C89.7682 126.65 89.1892 124.167 87.6103 123.302ZM88.0138 125.689C88.2123 126.368 88.578 127.366 88.4653 127.989C88.1754 129.768 86.6777 127.922 86.3435 127.283C86.0092 126.644 85.8107 125.965 85.8356 125.295C85.9713 125.255 86.0674 125.08 86.0757 124.856C86.0609 124.05 86.9944 124.219 87.385 124.547C87.6878 124.827 87.8467 125.37 88.0138 125.689Z" fill="white"/>
<path d="M263.672 131.286C259.774 127.784 256.089 131.809 255.629 135.775C252.532 136.018 249.957 139.055 251.892 142.394C253.277 144.862 256.516 145.609 259.189 145.932C261.24 146.142 264.903 146.323 266.653 145.001C269.92 142.572 265.967 133.34 263.672 131.286ZM264.322 134.263C265.325 136.18 266.875 140.221 266.393 142.351C265.742 145.415 260.883 144.921 258.433 144.606C257.276 144.429 256.079 144.116 254.979 143.627C250.808 141.458 252.836 135.045 257.494 137.366C258.196 137.75 258.772 136.697 258.07 136.313C257.631 136.073 257.145 135.921 256.698 135.904C256.9 134.077 257.566 131.819 259.69 131.272C262.085 130.645 263.486 132.666 264.322 134.263Z" fill="white"/>
<path d="M248.529 138.957C247.453 137.798 245.419 137.14 244.34 138.487C243.636 139.356 243.682 140.522 244.232 141.392C244.271 141.528 244.311 141.664 244.351 141.8C245.466 143.094 247.277 143.743 248.954 143.179C250.95 142.448 249.389 139.884 248.529 138.957ZM248.199 140.6C248.366 140.92 248.788 141.607 248.596 141.957C248.452 142.221 247.606 142.1 247.383 142.091C246.761 141.979 246.274 141.826 245.796 141.451C245.756 141.315 245.716 141.179 245.541 141.083C244.799 140.563 244.889 139.358 245.703 139.12C246.798 138.579 247.738 139.777 248.199 140.6Z" fill="white"/>
<path d="M246.961 130.574C245.915 131.028 245.458 132.488 246.191 133.231C246.047 133.494 245.991 133.805 246.206 134.037C247.154 135.012 249.011 136.826 250.512 136.166C252.014 135.506 251.689 133.391 250.973 132.2C250.256 131.01 248.462 129.914 246.961 130.574ZM250.46 133.971C250.531 134.466 250.554 135.049 249.835 135.112C249.612 135.103 249.309 134.824 249.134 134.728C248.52 134.391 248.089 133.928 247.523 133.504C247.755 133.289 247.82 132.754 247.333 132.602C247.087 132.011 247.143 131.7 247.678 131.765C247.949 131.685 248.22 131.606 248.571 131.798C248.882 131.854 249.233 132.046 249.448 132.278C249.839 132.606 250.349 133.341 250.46 133.971Z" fill="white"/>
<path d="M254.501 126.38C253.641 125.452 252.172 125.219 251.206 125.944C250.982 125.935 250.711 126.015 250.606 126.414C250.237 127.922 250.626 129.502 251.614 130.613C252.387 131.492 254.492 132.645 255.22 131.105C255.853 129.742 255.489 127.49 254.501 126.38ZM254.036 128.063C254.155 128.47 254.186 128.829 254.17 129.276C254.161 129.5 254.153 129.723 254.145 129.947C254.264 130.354 254.168 130.529 253.769 130.425C253.003 130.575 252.278 129.609 251.983 129.105C251.649 128.466 251.538 127.836 251.651 127.213C251.651 127.213 251.651 127.213 251.699 127.126C252.538 126.217 253.758 127.113 254.036 128.063Z" fill="white"/>
<path d="M258.834 121.797C257.869 121.269 256.599 121.714 256.119 122.591C255.983 122.631 255.887 122.806 255.791 122.982C255.461 124.625 256.145 126.709 257.492 127.789C258.664 128.772 260.691 128.4 260.846 126.66C260.991 125.144 260.412 122.661 258.834 121.797ZM259.237 124.184C259.436 124.863 259.801 125.861 259.689 126.483C259.399 128.262 257.901 126.417 257.567 125.778C257.232 125.139 257.034 124.46 257.059 123.79C257.195 123.75 257.291 123.575 257.299 123.351C257.284 122.545 258.218 122.714 258.608 123.042C258.911 123.322 259.07 123.865 259.237 124.184Z" fill="white"/>
<path d="M352.794 149.915C348.897 146.414 345.212 150.439 344.751 154.405C341.654 154.647 339.08 157.684 341.014 161.023C342.399 163.491 345.638 164.238 348.311 164.561C350.362 164.772 354.025 164.953 355.775 163.631C359.043 161.201 355.09 151.97 352.794 149.915ZM353.444 152.893C354.447 154.81 355.997 158.85 355.515 160.981C354.864 164.044 350.005 163.55 347.555 163.236C346.398 163.058 345.201 162.745 344.101 162.257C339.93 160.088 341.959 153.674 346.616 155.995C347.318 156.38 347.894 155.327 347.192 154.943C346.754 154.703 346.267 154.55 345.82 154.534C346.022 152.706 346.688 150.449 348.812 149.901C351.207 149.274 352.609 151.296 353.444 152.893Z" fill="white"/>
<path d="M337.651 157.586C336.575 156.427 334.541 155.77 333.462 157.117C332.758 157.986 332.804 159.151 333.354 160.022C333.393 160.158 333.433 160.293 333.473 160.429C334.588 161.724 336.399 162.373 338.076 161.809C340.072 161.077 338.512 158.513 337.651 157.586ZM337.321 159.23C337.489 159.549 337.911 160.236 337.718 160.587C337.574 160.85 336.729 160.729 336.505 160.721C335.883 160.608 335.396 160.456 334.918 160.08C334.878 159.944 334.839 159.809 334.663 159.713C333.922 159.193 334.011 157.988 334.826 157.75C335.92 157.209 336.86 158.407 337.321 159.23Z" fill="white"/>
<path d="M336.083 149.204C335.037 149.657 334.58 151.117 335.313 151.86C335.169 152.124 335.113 152.435 335.328 152.667C336.276 153.642 338.133 155.456 339.634 154.796C341.136 154.136 340.812 152.02 340.095 150.83C339.379 149.64 337.585 148.544 336.083 149.204ZM339.582 152.601C339.653 153.096 339.676 153.679 338.958 153.741C338.734 153.733 338.431 153.453 338.256 153.357C337.642 153.021 337.212 152.558 336.645 152.134C336.877 151.919 336.942 151.384 336.455 151.232C336.209 150.641 336.265 150.33 336.8 150.394C337.071 150.315 337.343 150.235 337.693 150.427C338.005 150.484 338.356 150.676 338.571 150.908C338.961 151.235 339.471 151.97 339.582 152.601Z" fill="white"/>
<path d="M343.623 145.009C342.763 144.082 341.295 143.849 340.328 144.573C340.104 144.565 339.833 144.644 339.729 145.043C339.359 146.551 339.748 148.132 340.736 149.243C341.509 150.122 343.614 151.274 344.343 149.735C344.975 148.371 344.611 146.12 343.623 145.009ZM343.158 146.692C343.277 147.1 343.308 147.459 343.292 147.906C343.284 148.129 343.275 148.353 343.267 148.576C343.386 148.983 343.29 149.159 342.891 149.054C342.125 149.205 341.4 148.238 341.105 147.735C340.771 147.096 340.66 146.465 340.773 145.843C340.773 145.843 340.773 145.843 340.821 145.755C341.66 144.847 342.88 145.742 343.158 146.692Z" fill="white"/>
<path d="M347.956 140.427C346.991 139.899 345.721 140.344 345.241 141.221C345.105 141.261 345.009 141.436 344.913 141.611C344.584 143.255 345.267 145.339 346.614 146.418C347.786 147.402 349.814 147.03 349.968 145.29C350.114 143.774 349.535 141.291 347.956 140.427ZM348.359 142.814C348.558 143.492 348.923 144.49 348.811 145.113C348.521 146.892 347.023 145.046 346.689 144.407C346.355 143.768 346.156 143.09 346.181 142.419C346.317 142.38 346.413 142.204 346.421 141.981C346.406 141.175 347.34 141.344 347.73 141.671C348.033 141.951 348.192 142.494 348.359 142.814Z" fill="white"/>
</svg>
