<svg width="241" height="95" viewBox="0 0 241 95" fill="none" xmlns="http://www.w3.org/2000/svg">
<path d="M15.4482 92.8862C14.2473 92.6052 12.7873 92.935 12.4691 94.3414C12.2253 95.3369 12.577 96.2068 13.2293 96.9401C12.2173 97.1389 11.3102 97.696 11.2084 98.8445C11.042 100.936 13.2592 101.698 14.9289 102.085C16.5986 102.472 18.6792 102.934 20.3086 102.019C20.9731 101.63 21.5906 100.915 21.6498 100.119C21.629 99.8821 21.64 99.587 21.5876 99.4078C22.0619 99.3664 22.2575 98.8714 22.0369 98.4495C20.75 95.713 18.261 93.5227 15.4482 92.8862ZM19.7466 97.2711L19.7783 97.2132C19.8362 97.2449 19.8624 97.3345 19.9203 97.3662C19.7728 97.3608 19.7466 97.2711 19.7466 97.2711ZM13.6383 94.6803C13.7225 94.8016 13.7487 94.8913 13.8645 94.9547C13.7432 95.0388 13.6798 95.1546 13.6743 95.3021C13.6536 95.065 13.6011 94.8858 13.6383 94.6803ZM12.6422 98.4251L12.7001 98.4568C12.816 98.5202 12.9001 98.6415 13.0159 98.7049C12.7471 98.7836 12.5624 98.9836 12.4935 99.2469C12.4411 99.0677 12.4465 98.9201 12.4837 98.7147C12.5154 98.6568 12.5788 98.541 12.6422 98.4251ZM19.8892 100.586C19.6149 100.812 19.3723 100.98 19.0138 101.085C18.898 101.021 18.8139 100.9 18.756 100.868C18.7877 100.811 18.7615 100.721 18.7036 100.689C19.0827 100.821 19.3833 100.685 19.5418 100.395C19.9264 100.38 20.2062 100.006 20.2489 99.6535C20.3909 99.8065 20.074 100.386 19.8892 100.586ZM18.6103 96.0471C18.1208 95.7039 17.5733 95.329 17.0838 94.9857C16.968 94.9223 16.9101 94.8907 16.7942 94.8273C16.6205 94.7322 16.473 94.7267 16.3834 94.7529C16.2096 94.6578 16.1255 94.5365 15.9518 94.4414C16.0676 94.5048 16.1834 94.5682 16.3309 94.5737C17.2051 94.9016 17.9842 95.4033 18.6103 96.0471Z" fill="#39B100"/>
<path d="M11.1981 102.301C11.951 102.713 12.9202 102.868 13.8633 102.932C14.6009 102.96 15.3965 103.019 16.1658 102.988C17.3198 102.943 18.4158 102.865 19.4333 102.519C19.8813 102.388 20.3032 102.167 20.7829 101.978C20.8726 101.952 20.9042 101.894 21.0256 101.81C21.2475 101.405 21.559 100.973 21.665 100.504C21.7339 100.241 21.6291 99.8823 21.5821 99.5556C21.4773 99.1971 21.462 98.8125 21.2676 98.4802C21.131 98.1797 21.0841 97.853 20.7683 97.6048C20.4525 97.3567 20.2898 96.9666 20.0374 96.6027C19.6113 96.1436 19.2431 95.7163 18.817 95.2572C18.3591 94.8561 17.9013 94.455 17.3539 94.0801C16.7486 93.6735 16.1115 93.3248 15.4056 93.2394C14.9947 93.1651 14.5259 93.059 14.1096 93.1322C13.7249 93.1474 13.3348 93.3102 12.9763 93.415C12.3173 93.6564 11.7163 93.9295 11.4255 94.5983C11.2932 94.9774 11.2188 95.3883 11.1761 95.7413C11.1335 96.0943 11.2066 96.5106 11.2219 96.8953C11.2481 96.9849 11.153 97.1586 11.0634 97.1848C10.8208 97.3531 10.5202 97.4896 10.2197 97.6262C9.10166 98.2937 9.02608 99.5318 9.57777 100.586C10.0716 101.609 10.3294 101.826 11.1981 102.301ZM11.3042 101.832C10.925 101.7 10.6409 101.394 10.3886 101.03C10.2465 100.877 10.1362 100.666 10.0258 100.455C9.35831 99.3373 9.78138 98.2894 10.7726 97.8536C11.1048 97.6591 11.4633 97.5543 11.8217 97.4494C12.449 97.2659 13.0446 97.1403 13.7188 97.2836C13.7767 97.3153 13.8663 97.2891 13.956 97.2629C14.0456 97.2367 14.1669 97.1525 14.1407 97.0629C14.1724 97.005 14.0303 96.852 13.9724 96.8203C13.767 96.7831 13.5036 96.7142 13.3561 96.7087C12.8818 96.7502 12.4076 96.7916 11.9016 96.891C11.7224 96.9434 11.6382 96.8221 11.6437 96.6746C11.623 96.4375 11.634 96.1424 11.6132 95.9053C11.6242 95.6102 11.6352 95.3152 11.6779 94.9622C11.8845 94.1721 12.6069 93.8149 13.4134 93.579C14.3674 93.3486 15.2733 93.6186 16.1158 94.0045C17.0741 94.4538 17.816 95.1609 18.5 95.8364C19.1839 96.5118 19.7466 97.2714 20.2776 98.0889C20.6403 98.6637 20.9134 99.2648 20.9177 99.9445C20.9012 100.387 20.7689 100.766 20.6366 101.145C20.4147 101.551 20.1087 101.835 19.629 102.024C18.8224 102.26 17.958 102.464 17.0991 102.521C16.0926 102.572 15.1179 102.565 14.0852 102.527C13.1421 102.462 12.2308 102.34 11.3042 101.832Z" fill="#251C1C"/>
<path d="M8.16326 91.7587C7.52622 91.41 6.852 91.2667 6.19851 91.3606C5.96137 91.3813 5.78215 91.4337 5.77118 91.7288C5.79739 91.8184 5.67608 91.9025 5.61268 92.0183C5.42248 92.3658 5.32189 92.6871 5.51635 93.0193C5.59499 93.2881 5.70534 93.4991 5.84189 93.7996C6.08329 94.4586 6.72033 94.8073 7.36286 95.0084C8.0316 95.2992 8.76373 95.4742 9.51233 95.2066C9.99209 95.0176 10.356 94.7652 10.4042 94.2647C10.4097 94.1172 10.3572 93.938 10.2469 93.7271C9.71593 92.9096 8.91612 92.1707 8.16326 91.7587ZM7.03183 94.3757C6.62644 94.1538 6.48441 94.0008 6.28995 93.6685C6.1534 93.368 6.07475 93.0992 5.9065 92.8565C5.6017 92.3134 6.36127 91.7507 6.83005 91.8568C8.09438 92.022 8.97832 92.8821 9.65132 93.8526C9.9037 94.2166 9.77141 94.5957 9.32335 94.7268C8.9966 94.7738 8.66985 94.8207 8.31689 94.778C7.8481 94.6719 7.46892 94.5397 7.03183 94.3757Z" fill="#251C1C"/>
<path d="M10.8238 88.5483C10.4446 88.416 9.97579 88.3099 9.56492 88.2355C9.41739 88.2301 9.14856 88.3087 9.08516 88.4245C8.74744 88.7665 8.61515 89.1457 8.77243 89.6834C8.98762 90.2527 9.41374 90.7118 9.90325 91.055C10.3928 91.3982 10.9085 91.831 11.5248 91.9426C11.8778 91.9852 12.2045 91.9383 12.4788 91.7121C12.9062 91.3439 12.8964 90.8117 12.5599 90.3265C12.2027 89.6041 11.6028 89.05 10.8238 88.5483C10.85 88.6379 10.8238 88.5483 10.8238 88.5483ZM10.6543 89.1329C10.9122 89.3493 11.0859 89.4444 11.2596 89.5395C11.5175 89.7559 11.7754 89.9723 11.9436 90.2149C12.1436 90.3996 12.2222 90.6685 12.3325 90.8794C12.4691 91.1799 12.2844 91.3799 11.9893 91.3689C11.6364 91.3262 11.2255 91.2519 10.878 91.0617C10.5305 90.8715 10.2465 90.5654 9.89899 90.3753C9.5253 90.0954 9.33083 89.7632 9.22598 89.4048C9.17355 89.2255 9.17904 89.078 9.33205 88.936C9.54298 88.8256 9.7484 88.8628 9.92214 88.9579C9.98005 88.9896 10.0959 89.053 10.1855 89.0268C10.3909 89.064 10.5385 89.0695 10.6543 89.1329Z" fill="#251C1C"/>
<path d="M110.062 80.956C108.83 80.9954 107.505 81.6918 107.561 83.1326C107.584 84.1573 108.148 84.9065 108.968 85.446C108.042 85.8999 107.31 86.6729 107.509 87.8086C107.89 89.872 110.229 90.0342 111.942 89.9759C113.655 89.9177 115.784 89.825 117.121 88.52C117.662 87.9723 118.073 87.1212 117.925 86.3374C117.843 86.1138 117.778 85.8259 117.681 85.6664C118.128 85.5036 118.189 84.9748 117.866 84.6244C115.915 82.3142 112.944 80.8427 110.062 80.956ZM115.349 84.079L115.365 84.0149C115.429 84.0305 115.478 84.1102 115.542 84.1259C115.398 84.1588 115.349 84.079 115.349 84.079ZM108.779 83.1574C108.891 83.2528 108.94 83.3326 109.068 83.3638C108.973 83.4765 108.941 83.6048 108.974 83.7487C108.893 83.525 108.796 83.3654 108.779 83.1574ZM108.786 87.0324L108.85 87.048C108.978 87.0793 109.091 87.1747 109.219 87.2059C108.98 87.3515 108.853 87.5925 108.855 87.8647C108.758 87.7051 108.725 87.5612 108.707 87.3531C108.723 87.289 108.754 87.1607 108.786 87.0324ZM116.345 87.2435C116.138 87.533 115.948 87.7583 115.628 87.9524C115.5 87.9211 115.388 87.8257 115.323 87.8101C115.339 87.7459 115.291 87.6662 115.226 87.6505C115.627 87.6802 115.882 87.4705 115.96 87.1498C116.328 87.0355 116.501 86.6021 116.451 86.2501C116.628 86.3612 116.472 87.0026 116.345 87.2435ZM113.935 83.1907C113.373 82.9859 112.747 82.7655 112.186 82.5606C112.057 82.5294 111.993 82.5137 111.865 82.4825C111.673 82.4356 111.529 82.4685 111.449 82.517C111.256 82.4701 111.144 82.3747 110.951 82.3278C111.08 82.359 111.208 82.3903 111.352 82.3574C112.281 82.448 113.163 82.7309 113.935 83.1907Z" fill="#39B100"/>
<path d="M108.394 91.1497C109.228 91.3529 110.204 91.251 111.131 91.0693C111.851 90.9049 112.635 90.7561 113.37 90.5275C114.473 90.1847 115.511 89.8262 116.405 89.2285C116.803 88.9859 117.154 88.6635 117.568 88.3568C117.648 88.3083 117.664 88.2442 117.759 88.1315C117.869 87.6825 118.058 87.185 118.039 86.7047C118.037 86.4325 117.843 86.1134 117.713 85.81C117.519 85.4909 117.405 85.1232 117.131 84.8527C116.921 84.5977 116.792 84.2942 116.422 84.1363C116.053 83.9784 115.795 83.6437 115.457 83.3575C114.926 83.0244 114.46 82.7069 113.93 82.3738C113.384 82.1048 112.838 81.8358 112.212 81.6154C111.522 81.3793 110.816 81.2074 110.112 81.3076C109.696 81.3421 109.216 81.3611 108.833 81.5395C108.465 81.6538 108.13 81.9119 107.811 82.106C107.237 82.5097 106.727 82.9291 106.62 83.6503C106.59 84.0508 106.625 84.4669 106.675 84.8189C106.725 85.1709 106.903 85.5541 107.017 85.9217C107.066 86.0015 107.019 86.1939 106.939 86.2425C106.749 86.4678 106.494 86.6775 106.239 86.8871C105.331 87.8213 105.579 89.0367 106.385 89.9126C107.126 90.7729 107.432 90.9152 108.394 91.1497ZM108.375 90.6694C107.974 90.6398 107.621 90.4177 107.283 90.1315C107.106 90.0204 106.945 89.8452 106.784 89.6701C105.849 88.7629 105.987 87.6412 106.832 86.9636C107.102 86.6898 107.421 86.4958 107.74 86.3017C108.299 85.9621 108.842 85.6867 109.53 85.6506C109.594 85.6662 109.674 85.6177 109.754 85.5692C109.833 85.5206 109.929 85.408 109.88 85.3282C109.896 85.2641 109.719 85.1531 109.655 85.1374C109.447 85.1547 109.175 85.1563 109.031 85.1892C108.583 85.352 108.136 85.5148 107.673 85.7417C107.513 85.8387 107.401 85.7433 107.368 85.5994C107.286 85.3757 107.221 85.0879 107.139 84.8642C107.074 84.5764 107.008 84.2885 106.958 83.9365C106.953 83.1199 107.558 82.5879 108.276 82.1513C109.138 81.6818 110.083 81.7081 110.996 81.8628C112.038 82.0488 112.938 82.5398 113.774 83.0152C114.609 83.4906 115.349 84.0787 116.074 84.7309C116.573 85.1923 116.992 85.7022 117.172 86.3576C117.271 86.7894 117.241 87.1899 117.211 87.5903C117.102 88.0394 116.88 88.393 116.465 88.6997C115.748 89.1363 114.965 89.5573 114.15 89.8344C113.191 90.1443 112.248 90.3901 111.241 90.6203C110.313 90.802 109.401 90.9195 108.375 90.6694Z" fill="#251C1C"/>
<path d="M102.733 81.752C102.028 81.5801 101.339 81.6162 100.733 81.876C100.509 81.9574 100.349 82.0544 100.415 82.3423C100.464 82.422 100.368 82.5347 100.337 82.663C100.243 83.0478 100.229 83.3842 100.503 83.6548C100.649 83.8941 100.81 84.0693 101.019 84.3242C101.423 84.8983 102.129 85.0702 102.801 85.0982C103.523 85.206 104.275 85.1855 104.929 84.7333C105.343 84.4266 105.63 84.0886 105.547 83.5927C105.514 83.4488 105.417 83.2892 105.255 83.1141C104.531 82.4619 103.567 81.9552 102.733 81.752ZM102.318 84.5727C101.869 84.4633 101.692 84.3522 101.418 84.0817C101.209 83.8267 101.063 83.5874 100.838 83.3966C100.403 82.9508 100.991 82.2107 101.471 82.1919C102.735 82.0242 103.811 82.6263 104.713 83.3895C105.051 83.6757 105.021 84.0762 104.622 84.3188C104.319 84.4487 104.015 84.5786 103.663 84.6287C103.183 84.6476 102.782 84.618 102.318 84.5727Z" fill="#251C1C"/>
<path d="M104.472 77.9625C104.071 77.9329 103.591 77.9518 103.175 77.9863C103.031 78.0191 102.792 78.1647 102.76 78.293C102.523 78.7107 102.493 79.1112 102.784 79.5898C103.139 80.0841 103.67 80.4172 104.231 80.622C104.793 80.8269 105.403 81.1115 106.027 81.0597C106.379 81.0096 106.683 80.8797 106.889 80.5902C107.207 80.1239 107.06 79.6124 106.609 79.2308C106.077 78.6255 105.354 78.2455 104.472 77.9625C104.52 78.0423 104.472 77.9625 104.472 77.9625ZM104.459 78.571C104.765 78.7133 104.957 78.7603 105.149 78.8071C105.454 78.9494 105.76 79.0917 105.985 79.2825C106.226 79.4092 106.371 79.6485 106.533 79.8237C106.742 80.0787 106.616 80.3196 106.328 80.3854C105.976 80.4355 105.56 80.47 105.175 80.3762C104.79 80.2824 104.436 80.0604 104.051 79.9666C103.618 79.793 103.344 79.5225 103.15 79.2034C103.053 79.0438 103.02 78.8999 103.131 78.7231C103.306 78.5619 103.515 78.5447 103.707 78.5916C103.771 78.6072 103.899 78.6384 103.979 78.5899C104.187 78.5727 104.331 78.5398 104.459 78.571Z" fill="#251C1C"/>
<path d="M104.578 90.3557C103.68 90.1369 102.817 90.3342 102.099 90.7708C101.556 91.0462 101.062 91.4014 100.808 91.8833C100.555 92.3652 100.896 93.1958 101.537 93.3522C102.579 93.5381 103.604 93.516 104.561 92.9338C104.96 92.6912 105.359 92.4487 105.597 92.0309C106.025 91.3879 105.668 90.6214 104.835 90.4182C104.706 90.3869 104.642 90.3713 104.578 90.3557ZM104.356 90.7093C104.42 90.7249 104.484 90.7405 104.613 90.7718C105.318 90.9437 105.465 91.4552 105.004 91.9544C104.829 92.1155 104.589 92.2611 104.35 92.4066C103.616 92.9074 102.72 92.9608 101.791 92.8702C101.406 92.7764 101.163 92.3776 101.306 92.0725C101.479 91.6391 101.894 91.3324 102.357 91.1055C102.915 90.7659 103.522 90.5061 104.356 90.7093Z" fill="#251C1C"/>
<path d="M102.86 86.8118C102.187 86.7838 101.546 86.6275 100.874 86.8717C100.491 87.0501 100.059 87.1488 99.6121 87.3116C99.3086 87.4415 99.1178 87.6668 99.0553 87.9233C99.0084 88.1158 98.9615 88.3082 99.2666 88.4505C99.3307 88.4661 99.3792 88.5459 99.3792 88.5459C99.5749 89.1372 100.121 89.4062 100.698 89.5468C101.725 89.7969 102.701 89.6951 103.466 89.066C103.641 88.9048 103.816 88.7437 104.007 88.5183C104.388 88.0677 104.144 87.3966 103.485 87.0323C103.357 87.001 103.116 86.8743 102.86 86.8118ZM102.638 87.1654C102.879 87.2921 103.199 87.3702 103.425 87.5611C103.778 87.7831 103.828 88.1351 103.606 88.4887C103.511 88.6014 103.336 88.7625 103.176 88.8596C102.378 89.3447 101.482 89.3981 100.551 89.0353C99.9894 88.8305 99.8907 88.3987 99.8562 87.9826C99.8061 87.6306 100.207 87.6603 100.382 87.4991C100.382 87.4991 100.382 87.4991 100.462 87.4506C101.084 87.1266 101.804 86.9622 102.638 87.1654Z" fill="#251C1C"/>
<path d="M61.7506 78.2727C59.1775 75.9611 56.7446 78.6184 56.4404 81.2366C54.3957 81.397 52.6961 83.402 53.9733 85.6063C54.8877 87.2358 57.0262 87.729 58.791 87.9423C60.1449 88.0813 62.5633 88.2008 63.7185 87.3278C65.8759 85.7239 63.2661 79.6291 61.7506 78.2727ZM62.1798 80.2387C62.8418 81.5043 63.8654 84.1719 63.5471 85.5783C63.1174 87.6009 59.909 87.2748 58.2917 87.0669C57.5279 86.9499 56.7379 86.7432 56.0112 86.4207C53.2576 84.9888 54.5969 80.7544 57.6718 82.287C58.1351 82.5406 58.5155 81.8456 58.0522 81.592C57.7626 81.4335 57.4413 81.333 57.1463 81.322C57.2798 80.1156 57.7193 78.6251 59.1214 78.2636C60.7027 77.8497 61.6281 79.1841 62.1798 80.2387Z" fill="#251C1C"/>
<path d="M51.7525 83.3368C51.0423 82.5717 49.6994 82.1377 48.9867 83.0271C48.5222 83.6007 48.5527 84.3701 48.9154 84.9449C48.9416 85.0345 48.9678 85.1241 48.9941 85.2137C49.7305 86.0684 50.9259 86.497 52.0329 86.1245C53.3509 85.6417 52.3207 83.9488 51.7525 83.3368ZM51.5349 84.4218C51.6452 84.6328 51.9238 85.0863 51.797 85.318C51.7019 85.4917 51.1435 85.4119 50.996 85.4064C50.5851 85.332 50.2639 85.2314 49.9481 84.9833C49.9219 84.8937 49.8957 84.8041 49.7798 84.7407C49.2903 84.3975 49.3495 83.6019 49.8871 83.4447C50.6095 83.0874 51.2301 83.8787 51.5349 84.4218Z" fill="#251C1C"/>
<path d="M50.7173 77.8026C50.0266 78.1019 49.7249 79.0657 50.2089 79.5564C50.1138 79.7302 50.0766 79.9356 50.2187 80.0886C50.8447 80.7324 52.0707 81.9302 53.0619 81.4944C54.0531 81.0585 53.8391 79.6619 53.3661 78.8761C52.893 78.0903 51.7085 77.3667 50.7173 77.8026ZM53.0271 80.0453C53.0741 80.3721 53.0893 80.7567 52.615 80.7982C52.4675 80.7927 52.2676 80.608 52.1517 80.5446C51.7464 80.3227 51.4623 80.0167 51.0886 79.7369C51.2416 79.5948 51.2843 79.2419 50.963 79.1413C50.8002 78.7511 50.8374 78.5457 51.1904 78.5884C51.3696 78.5359 51.5488 78.4835 51.7805 78.6103C51.9859 78.6475 52.2176 78.7743 52.3596 78.9273C52.6175 79.1437 52.954 79.629 53.0271 80.0453Z" fill="#251C1C"/>
<path d="M55.6952 75.0336C55.1271 74.4216 54.1578 74.2673 53.5195 74.7459C53.372 74.7404 53.1928 74.7928 53.1239 75.0562C52.88 76.0517 53.1367 77.0953 53.789 77.8287C54.2992 78.409 55.6891 79.1698 56.1701 78.1536C56.5877 77.2532 56.3475 75.767 55.6952 75.0336ZM55.388 76.1449C55.4666 76.4138 55.4873 76.6509 55.4764 76.946C55.4709 77.0935 55.4654 77.241 55.4599 77.3886C55.5385 77.6574 55.4751 77.7732 55.2118 77.7043C54.7058 77.8037 54.2273 77.1654 54.0328 76.8332C53.8121 76.4113 53.739 75.995 53.8133 75.5841C53.8133 75.5841 53.8134 75.5841 53.8451 75.5262C54.3992 74.9263 55.2045 75.5176 55.388 76.1449Z" fill="#251C1C"/>
<path d="M58.5558 72.008C57.9187 71.6593 57.0805 71.9531 56.7635 72.5322C56.6739 72.5585 56.6105 72.6743 56.5471 72.7901C56.3295 73.8752 56.7806 75.2511 57.67 75.9637C58.4436 76.613 59.7823 76.3673 59.8841 75.2188C59.9804 74.2178 59.5982 72.5786 58.5558 72.008ZM58.8222 73.5838C58.9532 74.0319 59.1946 74.6909 59.1203 75.1017C58.9288 76.2764 57.9401 75.0578 57.7194 74.636C57.4987 74.2141 57.3677 73.7661 57.3841 73.3235C57.4737 73.2973 57.5371 73.1815 57.5426 73.0339C57.5329 72.5017 58.1492 72.6133 58.407 72.8297C58.607 73.0144 58.7118 73.3729 58.8222 73.5838Z" fill="#251C1C"/>
<path d="M174.794 77.2781C172.221 74.9665 169.788 77.6238 169.484 80.242C167.439 80.4023 165.74 82.4074 167.017 84.6117C167.931 86.2412 170.07 86.7343 171.834 86.9477C173.188 87.0867 175.607 87.2061 176.762 86.3332C178.919 84.7293 176.31 78.6345 174.794 77.2781ZM175.223 79.2441C175.885 80.5096 176.909 83.1773 176.591 84.5836C176.161 86.6063 172.952 86.2802 171.335 86.0723C170.571 85.9553 169.781 85.7486 169.055 85.4261C166.301 83.9942 167.64 79.7598 170.715 81.2924C171.179 81.546 171.559 80.851 171.096 80.5974C170.806 80.4389 170.485 80.3384 170.19 80.3274C170.323 79.121 170.763 77.6305 172.165 77.269C173.746 76.8551 174.672 78.1895 175.223 79.2441Z" fill="#251C1C"/>
<path d="M164.796 82.3421C164.086 81.5771 162.743 81.143 162.03 82.0324C161.566 82.6061 161.596 83.3754 161.959 83.9503C161.985 84.0399 162.012 84.1295 162.038 84.2191C162.774 85.0738 163.97 85.5023 165.077 85.1299C166.395 84.6471 165.364 82.9542 164.796 82.3421ZM164.579 83.4272C164.689 83.6381 164.968 84.0917 164.841 84.3233C164.746 84.4971 164.187 84.4172 164.04 84.4117C163.629 84.3374 163.308 84.2368 162.992 83.9887C162.966 83.8991 162.939 83.8095 162.824 83.7461C162.334 83.4028 162.393 82.6073 162.931 82.45C163.653 82.0928 164.274 82.8841 164.579 83.4272Z" fill="#251C1C"/>
<path d="M163.761 76.8085C163.07 77.1078 162.769 78.0715 163.253 78.5623C163.158 78.736 163.12 78.9415 163.263 79.0945C163.889 79.7382 165.114 80.9361 166.106 80.5002C167.097 80.0643 166.883 78.6678 166.41 77.882C165.937 77.0962 164.752 76.3726 163.761 76.8085ZM166.071 79.0512C166.118 79.3779 166.133 79.7626 165.659 79.8041C165.511 79.7986 165.311 79.6139 165.196 79.5505C164.79 79.3286 164.506 79.0225 164.132 78.7427C164.285 78.6007 164.328 78.2477 164.007 78.1471C163.844 77.757 163.881 77.5515 164.234 77.5942C164.413 77.5418 164.593 77.4894 164.824 77.6162C165.03 77.6534 165.261 77.7802 165.403 77.9332C165.661 78.1496 165.998 78.6348 166.071 79.0512Z" fill="#251C1C"/>
<path d="M168.739 74.0385C168.171 73.4265 167.202 73.2722 166.564 73.7508C166.416 73.7453 166.237 73.7977 166.168 74.0611C165.924 75.0566 166.181 76.1002 166.833 76.8336C167.343 77.4139 168.733 78.1747 169.214 77.1585C169.632 76.2581 169.392 74.7719 168.739 74.0385ZM168.432 75.1498C168.511 75.4187 168.532 75.6558 168.521 75.9508C168.515 76.0984 168.51 76.2459 168.504 76.3934C168.583 76.6623 168.519 76.7781 168.256 76.7092C167.75 76.8086 167.271 76.1703 167.077 75.8381C166.856 75.4162 166.783 74.9999 166.858 74.589C166.858 74.589 166.858 74.589 166.889 74.5311C167.443 73.9312 168.249 74.5225 168.432 75.1498Z" fill="#251C1C"/>
<path d="M171.599 71.0138C170.962 70.6651 170.124 70.959 169.807 71.5381C169.718 71.5643 169.654 71.6801 169.591 71.796C169.373 72.8811 169.824 74.257 170.714 74.9696C171.487 75.6188 172.826 75.3731 172.928 74.2246C173.024 73.2236 172.642 71.5844 171.599 71.0138ZM171.866 72.5897C171.997 73.0377 172.238 73.6967 172.164 74.1076C171.973 75.2823 170.984 74.0637 170.763 73.6418C170.542 73.22 170.411 72.7719 170.428 72.3294C170.517 72.3031 170.581 72.1873 170.586 72.0398C170.577 71.5076 171.193 71.6192 171.451 71.8356C171.651 72.0203 171.756 72.3788 171.866 72.5897Z" fill="#251C1C"/>
<path d="M233.632 89.5774C231.059 87.2658 228.626 89.9231 228.322 92.5413C226.278 92.7017 224.578 94.7067 225.855 96.911C226.77 98.5405 228.908 99.0336 230.673 99.247C232.027 99.386 234.445 99.5055 235.6 98.6325C237.758 97.0286 235.148 90.9338 233.632 89.5774ZM234.062 91.5434C234.724 92.8089 235.747 95.4766 235.429 96.883C234.999 98.9056 231.791 98.5795 230.174 98.3716C229.41 98.2546 228.62 98.0479 227.893 97.7254C225.139 96.2935 226.479 92.0591 229.554 93.5917C230.017 93.8453 230.397 93.1503 229.934 92.8967C229.644 92.7382 229.323 92.6377 229.028 92.6267C229.162 91.4203 229.601 89.9298 231.003 89.5683C232.585 89.1544 233.51 90.4888 234.062 91.5434Z" fill="#251C1C"/>
<path d="M223.635 94.6419C222.925 93.8769 221.582 93.4428 220.869 94.3322C220.405 94.9059 220.435 95.6752 220.798 96.2501C220.824 96.3397 220.85 96.4293 220.876 96.5189C221.613 97.3736 222.808 97.8021 223.915 97.4297C225.233 96.9469 224.203 95.254 223.635 94.6419ZM223.417 95.727C223.528 95.9379 223.806 96.3915 223.679 96.6231C223.584 96.7969 223.026 96.717 222.878 96.7115C222.467 96.6372 222.146 96.5366 221.83 96.2885C221.804 96.1989 221.778 96.1093 221.662 96.0459C221.173 95.7027 221.232 94.9071 221.769 94.7498C222.492 94.3926 223.112 95.1839 223.417 95.727Z" fill="#251C1C"/>
<path d="M222.6 89.1078C221.909 89.4071 221.607 90.3709 222.091 90.8616C221.996 91.0353 221.959 91.2408 222.101 91.3938C222.727 92.0375 223.953 93.2354 224.944 92.7995C225.936 92.3637 225.722 90.9671 225.249 90.1813C224.775 89.3955 223.591 88.6719 222.6 89.1078ZM224.91 91.3505C224.957 91.6773 224.972 92.0619 224.497 92.1034C224.35 92.0979 224.15 91.9132 224.034 91.8498C223.629 91.6279 223.345 91.3219 222.971 91.0421C223.124 90.9 223.167 90.547 222.845 90.4465C222.683 90.0563 222.72 89.8509 223.073 89.8935C223.252 89.8411 223.431 89.7887 223.663 89.9155C223.868 89.9527 224.1 90.0795 224.242 90.2325C224.5 90.4489 224.836 90.9342 224.91 91.3505Z" fill="#251C1C"/>
<path d="M227.578 86.3388C227.01 85.7267 226.04 85.5725 225.402 86.0511C225.255 86.0456 225.075 86.098 225.006 86.3614C224.763 87.3569 225.019 88.4005 225.672 89.1339C226.182 89.7142 227.572 90.475 228.053 89.4588C228.47 88.5584 228.23 87.0721 227.578 86.3388ZM227.271 87.4501C227.349 87.7189 227.37 87.9561 227.359 88.2511C227.353 88.3987 227.348 88.5462 227.342 88.6937C227.421 88.9626 227.358 89.0784 227.094 89.0095C226.588 89.1089 226.11 88.4706 225.915 88.1384C225.695 87.7165 225.622 87.3002 225.696 86.8893C225.696 86.8893 225.696 86.8893 225.728 86.8314C226.282 86.2315 227.087 86.8228 227.271 87.4501Z" fill="#251C1C"/>
<path d="M230.438 83.3131C229.801 82.9645 228.963 83.2583 228.646 83.8374C228.556 83.8636 228.493 83.9795 228.429 84.0953C228.212 85.1804 228.663 86.5563 229.552 87.2689C230.326 87.9181 231.665 87.6724 231.766 86.5239C231.863 85.523 231.481 83.8837 230.438 83.3131ZM230.704 84.889C230.836 85.3371 231.077 85.996 231.003 86.4069C230.811 87.5816 229.822 86.363 229.602 85.9411C229.381 85.5193 229.25 85.0712 229.266 84.6287C229.356 84.6025 229.419 84.4866 229.425 84.3391C229.415 83.8069 230.031 83.9185 230.289 84.1349C230.489 84.3196 230.594 84.6781 230.704 84.889Z" fill="#251C1C"/>
</svg>
