<svg width="401" height="319" viewBox="0 0 401 319" fill="none" xmlns="http://www.w3.org/2000/svg">
<path d="M338.196 307.454C330.769 306.464 323.508 309.022 316.163 308.527C316.163 308.032 315.998 307.454 315.586 306.876C314.348 305.309 311.625 304.813 309.067 304.731C309.15 303.658 309.315 302.585 309.562 301.595C310.965 301.843 312.533 302.008 313.77 301.1C314.843 300.358 315.338 299.037 314.761 297.799C313.688 295.406 310.965 296.232 309.397 297.799C309.149 296.974 308.572 296.314 307.747 295.819C306.674 295.159 305.024 294.994 304.116 295.902C303.208 296.727 303.291 298.212 303.951 299.12C304.941 300.44 306.591 300.77 308.159 300.44C307.912 301.183 307.994 301.925 307.994 302.668C307.912 303.328 307.747 304.071 307.664 304.731C306.674 304.731 305.684 304.813 304.941 304.896C303.208 305.061 301.475 305.391 299.743 305.886C299.99 305.061 299.99 304.236 299.743 303.411C299.743 302.916 299.577 302.42 299.412 302.008C298.67 300.523 295.947 299.78 294.544 300.688C292.068 302.338 292.729 306.051 294.709 307.867C293.554 308.444 292.233 309.022 291.078 309.352C290.666 309.434 290.171 309.517 289.758 309.682C289.345 309.764 289.015 309.682 288.768 309.599C288.768 309.599 288.768 309.599 288.685 309.599C288.685 309.517 288.685 309.517 288.603 309.434C288.438 309.187 288.273 309.022 288.025 308.857C287.86 308.692 287.612 308.609 287.447 308.609C286.54 308.362 285.467 308.692 285.137 309.764C284.807 310.755 285.302 311.662 286.127 311.992C286.54 312.488 287.282 312.818 287.943 312.983C288.025 312.983 288.025 312.983 288.108 312.983C291.986 315.211 300.98 314.303 303.456 314.22C305.766 314.138 316.741 314.551 315.421 309.847C315.503 309.764 315.503 309.764 315.586 309.682C323.095 309.93 330.604 307.454 338.113 307.867C338.526 307.949 338.526 307.537 338.196 307.454ZM311.295 297.964C313.523 298.872 313.935 299.532 312.615 300.027C311.708 300.605 310.552 300.358 309.562 300.192C309.562 300.11 309.562 300.11 309.562 300.027C309.81 299.12 310.387 298.377 311.295 297.964ZM306.591 299.532C304.859 299.12 304.611 298.212 305.849 296.644C307.499 296.314 308.077 298.377 308.159 299.697C307.664 299.697 307.087 299.615 306.591 299.532Z" fill="#251C1C"/>
<path d="M287.202 315.871C281.178 315.953 275.072 316.201 269.048 316.449C268.635 316.449 268.635 317.026 269.048 317.026C275.072 316.861 281.178 316.779 287.202 316.531C287.614 316.449 287.614 315.871 287.202 315.871Z" fill="#251C1C"/>
<path d="M314.597 317.356C311.709 317.109 308.821 317.439 305.933 317.439C305.52 317.439 305.52 318.099 305.933 318.099C308.821 318.099 311.709 318.511 314.597 318.181C315.175 318.099 315.175 317.356 314.597 317.356Z" fill="#251C1C"/>
<path d="M355.443 310.177C350.245 310.095 344.881 310.755 339.683 311.085C338.94 311.168 338.858 312.24 339.683 312.323C344.964 312.488 350.492 312.488 355.691 311.498C356.351 311.333 356.104 310.177 355.443 310.177Z" fill="#251C1C"/>
<path d="M254.525 303.08C249.821 302.998 245.035 303.08 240.332 302.833C239.837 302.833 239.837 303.575 240.332 303.658C245.035 303.905 249.821 304.153 254.525 303.988C255.103 303.988 255.103 303.08 254.525 303.08Z" fill="#251C1C"/>
<path d="M47.2411 286.99C41.2173 287.073 35.111 287.32 29.0873 287.568C28.6747 287.568 28.6747 288.145 29.0873 288.145C35.111 287.98 41.2173 287.898 47.2411 287.65C47.6537 287.65 47.6537 286.99 47.2411 286.99Z" fill="#251C1C"/>
<path d="M154.347 287.567C148.324 287.65 142.217 287.897 136.193 288.145C135.781 288.145 135.781 288.723 136.193 288.723C142.217 288.558 148.324 288.475 154.347 288.228C154.76 288.228 154.76 287.567 154.347 287.567Z" fill="#251C1C"/>
<path d="M14.5643 274.282C9.86082 274.199 5.07482 274.282 0.371328 274.034C-0.123776 274.034 -0.123776 274.777 0.371328 274.86C5.07482 275.107 9.86082 275.355 14.5643 275.19C15.1419 275.107 15.1419 274.282 14.5643 274.282Z" fill="#251C1C"/>
<path d="M386.8 295.159C382.262 295.076 377.641 295.076 373.102 295.076C372.36 295.076 372.36 296.231 373.102 296.231C377.641 296.231 382.262 296.231 386.8 296.149C387.46 296.149 387.46 295.159 386.8 295.159Z" fill="#251C1C"/>
<path d="M396.371 42.8213C395.298 36.8801 388.614 37.7878 384.076 37.7878C378.63 37.7878 373.184 38.1178 367.82 38.6129C364.767 38.943 361.714 39.2731 358.661 39.7682C356.433 40.0982 354.122 40.7584 352.472 42.4087C352.059 42.8213 351.729 43.2339 351.482 43.729C350.574 44.0591 349.831 44.8017 349.749 46.0395C348.346 71.3723 347.438 96.6226 346.861 121.955C346.696 129.134 346.613 136.231 346.531 143.41C346.531 144.895 347.686 145.803 349.089 145.968C363.117 147.783 377.309 148.031 391.42 146.793C392.823 146.628 393.895 145.72 393.978 144.235C395.298 121.543 396.123 98.9331 396.454 76.2408C396.536 70.4646 396.536 64.6884 396.536 58.8297C396.536 56.1891 396.536 53.5486 396.536 50.8255C396.619 48.2675 396.866 45.4619 396.371 42.8213ZM359.156 44.8017C359.073 44.9668 358.908 45.2143 358.908 45.4619C358.908 45.4619 358.826 45.4619 358.826 45.3794C358.826 45.1318 358.826 44.9668 358.826 44.8017C358.908 44.8842 359.073 44.8017 359.156 44.8017ZM366.005 142.337C366.005 142.172 366.087 142.09 366.087 141.925C366.417 142.007 366.747 142.007 366.995 142.007C367.655 142.255 368.398 142.172 369.058 141.925C369.223 142.172 369.47 142.337 369.718 142.502C368.48 142.42 367.242 142.42 366.005 142.337ZM372.523 142.502C372.689 142.42 372.771 142.255 372.936 142.172C372.936 142.337 373.019 142.42 373.101 142.502C372.936 142.502 372.771 142.502 372.523 142.502ZM373.101 92.0842C373.184 91.0114 373.184 89.8562 373.266 88.7835C373.349 89.8562 373.349 90.9289 373.431 91.9191C373.349 92.0016 373.266 92.0842 373.101 92.0842ZM373.349 43.6465C373.349 43.4815 373.349 43.3989 373.349 43.2339C373.679 43.2339 374.091 43.1514 374.421 43.1514C374.009 43.3164 373.679 43.4815 373.349 43.6465ZM376.484 43.6465C376.072 43.3989 375.659 43.2339 375.164 43.2339C375.659 43.2339 376.072 43.1514 376.567 43.1514C376.484 43.3164 376.484 43.4815 376.484 43.6465ZM381.353 123.358H381.27C381.353 122.616 381.353 121.873 381.435 121.13C381.435 121.543 381.435 121.955 381.435 122.451C381.353 122.781 381.353 123.028 381.353 123.358ZM384.736 84.5751C384.654 83.6674 384.571 82.8422 384.488 81.9345C384.654 81.7695 384.819 81.5219 384.984 81.2744C384.901 82.3471 384.819 83.5024 384.736 84.5751ZM385.314 43.894C385.066 45.4619 384.901 47.0297 384.654 48.515C384.571 47.6073 384.571 46.6171 384.488 45.7094C384.406 43.894 383.003 43.1514 381.765 43.2339C381.765 43.1514 381.765 42.9863 381.765 42.9038C382.591 42.9038 383.333 42.9038 384.158 42.9038C384.654 42.9038 385.231 42.9038 385.726 42.9038C385.479 43.1514 385.396 43.4815 385.314 43.894ZM390.595 109.578C390.595 110.403 390.512 111.228 390.512 112.053C390.512 110.568 390.43 109.165 390.347 107.68L391.502 68.0716C391.42 81.852 391.09 95.7149 390.595 109.578Z" fill="#39B100"/>
<path d="M328.955 175.097C319.053 175.097 309.151 175.097 299.249 175.097C293.473 175.097 287.696 175.179 281.92 175.097C272.018 174.931 262.116 174.766 252.296 174.354C243.632 174.024 234.968 173.199 226.303 173.034C217.227 172.869 208.15 173.281 199.073 173.446C197.587 173.446 197.257 172.869 197.092 171.548C196.102 163.627 197.422 155.705 197.092 147.866C196.927 144.07 197.01 140.274 197.01 136.478C196.927 131.115 196.845 125.834 196.845 120.47C196.845 114.199 196.845 108.01 196.845 101.739C196.845 96.705 196.927 91.6715 196.762 86.7204C196.68 83.7498 196.102 80.8617 195.937 77.8911C195.772 75.168 195.772 72.3624 195.607 69.6394C195.359 65.3484 195.112 61.0575 194.864 56.7666C194.782 55.1988 194.534 53.631 194.369 52.0632C194.204 49.6702 193.874 47.2772 193.874 44.8842C193.874 42.7387 194.782 42.1611 196.845 42.4086C198.495 42.5737 200.063 42.5737 201.713 42.4911C204.931 42.4086 208.15 42.2436 211.285 42.0786C220.775 41.666 230.264 41.2534 239.836 40.8408C242.642 40.7583 245.447 41.0058 248.171 40.8408C249.161 40.7583 250.151 40.1807 250.976 39.603C252.709 38.4478 254.277 37.1275 255.927 35.9723C264.922 29.701 273.916 23.4296 282.91 17.1583C285.551 15.3429 288.109 13.3625 290.832 11.7122C291.575 11.2171 293.06 11.2171 293.803 11.6297C296.773 13.28 299.744 15.1779 302.549 17.0758C306.263 19.5513 309.893 22.1919 313.607 24.7499C317.733 27.638 321.776 30.6087 325.819 33.4968C328.295 35.3121 330.77 37.1275 333.328 38.7779C333.906 39.1905 334.814 39.273 335.556 39.273C341.745 39.1905 347.934 39.0254 354.123 39.0254C362.87 39.0254 371.616 39.1905 380.281 39.3555C384.572 39.438 388.863 39.5205 393.153 39.438C395.051 39.438 396.289 40.0981 396.619 41.9135C397.114 44.3065 397.609 46.7821 397.609 49.2576C397.609 56.4366 397.279 63.6981 397.114 70.8771C397.032 75.0855 397.114 79.3764 397.197 83.5848C397.527 96.705 397.857 109.743 398.352 122.863C398.847 134.911 399.59 146.958 400.25 159.006C400.415 162.636 400.828 166.267 400.993 169.898C401.075 172.704 400.498 173.281 397.692 173.446C388.863 174.024 380.033 174.766 371.204 175.014C363.117 175.262 354.948 175.014 346.861 174.931C340.92 175.097 334.896 175.097 328.955 175.097ZM199.568 170.723C200.063 170.806 200.228 170.888 200.393 170.888C209.717 170.806 219.042 170.641 228.366 170.806C235.215 170.971 242.064 171.713 248.913 171.961C259.97 172.373 270.945 172.704 282.003 172.869C295.618 173.034 309.151 172.869 322.766 172.951C332.008 172.951 341.168 173.116 350.409 173.116C360.147 173.116 369.801 173.116 379.538 172.869C384.984 172.704 390.43 172.126 395.877 171.631C398.847 171.383 399.012 171.136 398.93 168.165C398.765 163.462 398.352 158.841 398.187 154.137C397.939 148.361 397.939 142.585 397.609 136.891C397.279 131.445 396.619 125.999 396.372 120.553C395.959 109.66 395.546 98.6855 395.464 87.7932C395.381 75.6631 395.794 63.5331 395.877 51.403C395.877 49.01 395.629 46.5345 395.216 44.1415C394.886 41.996 394.061 41.5009 391.916 41.666C390.76 41.7485 389.605 41.996 388.45 41.9135C382.839 41.7485 377.228 41.3359 371.534 41.2534C367.821 41.1709 364.025 41.5835 360.229 41.5835C356.268 41.5009 352.225 40.9233 348.264 41.0058C330.275 41.2534 312.369 41.5835 294.38 41.9135C277.547 42.2436 260.796 42.6562 243.962 43.0688C241.569 43.1513 239.094 43.1513 236.701 43.2338C225.808 43.7289 214.916 44.224 204.024 44.6366C202.043 44.7191 200.063 44.8016 198 44.8842C196.597 44.9667 195.937 45.4618 196.102 47.1946C196.762 53.3834 197.257 59.6548 197.752 65.8436C198 68.9792 197.835 72.1149 198 75.2505C198.33 81.1918 199.073 87.0505 199.155 92.9918C199.32 102.564 199.155 112.136 199.155 121.708C199.155 129.629 199.238 137.634 199.32 145.555C199.32 149.599 199.485 153.642 199.485 157.768C199.568 162.141 199.568 166.35 199.568 170.723ZM329.368 39.438C329.45 39.273 329.45 39.1079 329.533 38.9429C329.285 38.6954 329.12 38.3653 328.79 38.2002C326.149 36.3023 323.426 34.487 320.786 32.5891C314.762 28.2982 308.738 24.0073 302.632 19.7989C300.074 17.9835 297.351 16.3332 294.628 14.7653C292.895 13.7751 291.162 13.6926 289.347 15.0129C283.983 18.8912 278.537 22.522 273.091 26.3177C267.397 30.3611 261.703 34.487 256.01 38.6128C255.35 39.1079 254.854 39.6856 253.947 40.5107C279.445 40.1807 304.447 39.7681 329.368 39.438Z" fill="#251C1C"/>
<path d="M391.008 51.321C390.513 63.0385 390.018 74.6734 389.605 86.3909C389.44 90.3517 389.44 94.3125 389.522 98.1909C389.688 107.433 389.853 116.592 390.183 125.834C390.43 131.363 391.173 136.974 391.42 142.503C391.75 149.929 391.833 157.438 391.998 164.865C391.998 166.268 391.42 166.845 390.018 166.68C382.096 165.773 374.257 166.763 366.418 167.258C359.981 167.67 353.462 167.67 346.944 167.836C334.648 168.166 322.353 168.743 309.976 168.661C298.918 168.661 287.944 167.835 276.886 167.505C270.45 167.34 264.014 167.67 257.577 167.588C250.316 167.505 243.054 167.01 235.793 167.093C227.046 167.175 218.216 167.505 209.47 167.836C208.314 167.836 207.242 168.331 206.086 168.413C205.344 168.496 204.354 168.496 203.941 168.083C203.446 167.505 203.281 166.515 203.198 165.608C202.951 160.574 202.868 155.54 202.703 150.507C202.621 149.022 202.538 147.619 202.373 146.133C202.291 144.648 202.126 143.163 202.043 141.677C201.961 140.605 201.961 139.532 201.961 138.459C201.961 137.964 202.126 137.469 202.126 137.057C202.208 131.033 202.373 125.009 202.456 118.985C202.456 112.136 202.538 105.37 202.373 98.5209C202.208 91.4244 201.713 84.2454 201.548 77.1489C201.465 73.6007 201.713 70.0524 201.796 66.5042C201.878 62.7084 201.796 58.9126 201.796 55.1168C201.796 53.714 201.63 52.3112 201.961 50.9909C202.126 50.3308 203.116 49.5056 203.776 49.4231C206.086 49.1756 208.397 49.3406 210.625 49.2581C215.411 49.093 220.279 48.928 225.065 48.763C227.623 48.6804 230.264 48.763 232.822 48.5979C240.991 47.9378 249.078 47.1951 257.247 46.535C260.795 46.2874 264.426 46.37 267.974 46.37C272.76 46.2874 277.546 46.0399 282.332 46.2049C294.793 46.6175 307.17 47.3602 319.63 47.6077C329.367 47.7728 339.187 47.3602 348.924 47.2777C354.37 47.2777 359.816 47.6077 365.262 47.4427C371.204 47.2777 377.145 46.7825 383.086 46.4525C385.232 46.37 387.46 46.4525 389.605 46.7C390.1 46.7825 390.678 47.7728 390.843 48.3504C391.008 49.2581 390.76 50.2483 390.76 51.2385C390.843 51.321 390.925 51.321 391.008 51.321ZM388.615 67.2468C388.532 67.2468 388.532 67.2468 388.45 67.2468C388.45 66.4217 388.45 65.514 388.45 64.6888C388.532 60.0678 388.697 55.4469 388.697 50.8259C388.697 50.0832 388.037 48.928 387.542 48.763C386.057 48.3504 384.406 48.2679 382.839 48.3504C376.485 48.6804 370.131 49.1756 363.777 49.3406C358.248 49.5056 352.637 49.0105 347.026 49.093C339.352 49.093 331.595 49.5881 323.921 49.4231C310.471 49.1756 297.021 48.6804 283.57 48.3504C271.11 48.0203 258.733 48.5154 246.355 49.6707C236.288 50.5783 226.138 50.9909 216.071 51.486C213.1 51.6511 210.13 51.5686 207.159 51.7336C204.189 51.9811 203.941 52.3937 203.941 55.4469C203.941 58.8301 204.024 62.2133 204.106 65.5965C204.189 70.7951 204.354 75.9937 204.436 81.1923C204.519 86.9685 204.436 92.6622 204.519 98.4384C204.601 104.792 204.684 111.146 204.766 117.582C204.849 121.378 204.849 125.257 204.849 129.052C204.849 133.261 204.519 137.387 204.684 141.595C204.849 145.556 205.509 149.517 205.839 153.477C206.086 156.943 206.251 160.409 206.334 163.875C206.334 165.03 206.829 165.525 207.984 165.525C209.47 165.525 210.872 165.525 212.358 165.525C222.095 165.277 231.832 164.865 241.651 164.865C249.738 164.865 257.742 165.277 265.829 165.525C277.711 165.855 289.594 166.433 301.476 166.433C316.907 166.433 332.42 166.103 347.851 165.69C361.219 165.36 374.504 164.782 387.872 164.37C389.357 164.287 389.77 163.875 389.77 162.472C389.44 152.652 389.11 142.833 388.78 133.013C388.367 118.903 387.79 104.875 387.707 90.7643C387.542 83.0077 388.285 75.086 388.615 67.2468Z" fill="#251C1C"/>
<path d="M230.842 83.2548C228.367 83.0072 225.891 83.1723 223.416 83.1723C222.425 83.1723 220.94 83.5023 220.032 83.1723C218.134 82.5947 218.63 84.245 218.63 81.687C218.63 76.3233 219.042 70.8772 218.795 65.5136C218.712 64.5234 217.474 64.6059 217.309 65.5136C216.814 69.3919 216.732 73.3527 216.484 77.3135C216.402 79.294 215.329 82.8422 216.484 84.6576C217.227 85.8953 218.712 85.7303 220.032 85.7303C223.581 85.8128 227.294 85.9779 230.842 85.5653C232.245 85.4002 232.327 83.4198 230.842 83.2548Z" fill="#251C1C"/>
<path d="M242.972 74.7556C242.476 74.0954 241.734 72.3625 241.321 71.7849C241.239 71.6199 241.074 71.4549 240.991 71.2898C241.569 70.6297 240.909 69.2269 239.753 69.3919H239.671C239.423 69.0619 239.176 68.7318 238.928 68.4017C237.69 66.8339 235.38 63.2031 233.152 63.2031C231.089 63.2856 230.924 65.7612 230.511 67.329C229.521 70.7947 228.531 74.2604 227.706 77.8087C227.376 79.129 229.274 79.6241 229.769 78.3863C230.511 76.2409 231.089 74.0954 231.749 71.8674C233.977 72.0325 236.37 72.115 238.598 71.8674C239.011 72.5276 239.423 73.1052 239.836 73.7653C240.496 74.8381 240.991 76.901 242.394 77.1486C242.972 77.2311 243.714 76.9835 243.797 76.3234C243.797 76.2409 243.797 76.1583 243.797 76.1583C243.879 75.4157 243.632 74.9206 242.972 74.7556ZM232.079 70.4647C232.409 69.3094 232.574 67.494 233.235 66.5038C233.317 65.1835 233.647 65.1835 234.06 66.4213C234.39 66.7514 234.72 67.0814 235.05 67.494C235.71 68.2367 236.37 69.0619 237.03 69.8045C235.38 70.1346 233.73 70.3821 232.079 70.4647Z" fill="#251C1C"/>
<path d="M272.76 79.377C269.211 79.6246 265.828 80.4498 262.197 80.6973C261.62 75.9113 261.702 71.1253 261.702 66.2568C261.702 65.019 259.969 65.1015 259.887 66.2568C259.309 71.4554 259.639 76.7365 259.969 81.9351C260.052 82.6777 260.464 83.0903 261.207 83.1728C265.003 83.5854 269.954 83.3379 273.337 81.3574C274.162 80.8623 273.832 79.2945 272.76 79.377Z" fill="#251C1C"/>
<path d="M276.886 74.0132C276.473 71.7852 276.061 69.5572 275.566 67.3293C275.401 66.4216 273.998 66.6691 273.998 67.5768C274.08 69.8048 274.328 71.9502 274.658 74.1782C274.988 76.3237 274.988 78.7167 276.143 80.6146C276.638 81.4397 277.711 81.0271 277.876 80.1195C278.124 78.0565 277.299 75.9111 276.886 74.0132Z" fill="#251C1C"/>
<path d="M292.813 64.6883C292.565 63.2855 290.172 63.5331 290.255 65.0184C290.585 69.6393 290.75 74.0953 290.502 78.7163C289.1 76.9834 288.192 74.5904 286.954 72.8575C285.469 70.6296 283.736 68.6491 282.003 66.6687C281.26 65.8435 279.775 66.6687 280.105 67.7415C281.508 71.8673 282.498 76.4058 282.498 80.7792C282.498 81.6044 283.818 81.6044 283.818 80.7792C283.901 77.6435 283.818 74.7554 283.323 71.8673C284.479 73.4351 285.634 75.0855 286.541 76.8184C287.779 79.0463 288.769 81.1093 290.832 82.5946C291.493 83.0072 292.648 82.5946 292.73 81.8519C293.638 76.2407 293.803 70.2995 292.813 64.6883Z" fill="#251C1C"/>
<path d="M306.921 75.0036C306.839 74.4259 306.014 74.1784 305.519 74.4259C304.033 75.2511 303.456 76.984 301.475 76.8189C299.165 76.6539 297.597 74.0134 297.597 71.8679C297.432 67.742 302.135 65.5141 304.776 68.9798C305.271 69.6399 306.509 69.3099 306.261 68.4022C305.519 65.8441 302.548 64.7714 300.072 65.2665C297.019 65.9267 295.286 68.8973 295.286 71.8679C295.369 75.0036 297.432 78.3043 300.567 79.0469C303.043 79.707 307.334 78.0567 306.921 75.0036Z" fill="#251C1C"/>
<path d="M309.315 72.445C309.315 71.6198 308.572 71.2073 307.83 71.3723C305.684 71.7024 303.456 71.8674 301.311 72.0324C300.486 72.1149 300.486 73.3527 301.311 73.3527C303.209 73.3527 305.107 73.4352 307.004 73.5177C306.922 75.9933 307.004 78.3863 307.004 80.8618C307.004 82.4296 309.48 82.4296 309.48 80.8618C309.397 78.0562 309.315 75.2506 309.315 72.445Z" fill="#251C1C"/>
<path d="M321.941 66.4215C321.61 64.7712 319.135 65.4313 319.383 67.0817C319.795 69.3096 319.795 71.5376 319.383 73.7656C319.052 75.4159 317.897 79.6243 315.339 76.6537C313.111 74.0956 313.276 69.3096 313.606 66.174C313.689 65.5138 312.781 65.5138 312.534 66.0089C311.378 68.9796 311.378 72.1977 312.369 75.2509C313.029 77.3138 314.184 80.0369 316.659 80.2844C322.766 81.1096 322.518 69.8873 321.941 66.4215Z" fill="#251C1C"/>
<path d="M333.164 63.6982C332.669 62.708 331.266 63.0381 330.936 64.0283C329.451 68.6493 327.718 73.2702 326.563 78.0562C326.233 79.3765 328.048 79.7066 328.461 78.5513C329.121 76.9835 329.698 75.4157 330.194 73.8479C331.679 73.9304 333.164 74.0129 334.65 73.8479C335.31 75.8283 335.805 77.8087 336.795 79.6241C337.29 80.5318 338.858 80.1192 338.775 79.0464C338.363 73.9304 335.392 68.4017 333.164 63.6982ZM332.752 72.3625C332.091 72.5276 331.349 72.5276 330.689 72.4451C331.266 70.8772 331.761 69.2269 332.257 67.6591C332.834 69.0618 333.494 70.5472 333.989 72.0325C333.659 72.1975 333.247 72.28 332.752 72.3625Z" fill="#251C1C"/>
<path d="M244.869 114.694C242.971 114.942 241.073 115.189 239.093 115.354C238.845 113.869 238.185 112.384 237.855 110.816C237.607 109.496 237.442 108.175 237.277 106.855C239.258 107.02 241.238 107.185 242.806 105.865C243.219 105.535 243.301 104.792 242.971 104.379C242.888 104.214 242.806 104.132 242.723 103.967C242.393 103.554 241.816 103.472 241.486 103.802C240.413 104.792 238.598 104.792 236.947 104.71C236.782 104.132 236.04 104.132 235.792 104.627C235.379 104.627 234.884 104.544 234.554 104.544C231.914 104.462 229.273 104.214 226.633 104.379C225.972 104.379 225.89 105.287 226.468 105.452C229.356 106.277 232.409 106.525 235.462 106.69C235.379 108.01 235.544 109.413 235.709 110.733C235.874 112.219 236.122 114.034 236.782 115.519C234.637 115.767 232.409 115.932 230.346 115.932C229.603 115.932 229.603 117.087 230.346 117.087C235.297 117.335 239.918 117.582 244.869 117.087C246.519 117.17 246.519 114.529 244.869 114.694Z" fill="#251C1C"/>
<path d="M256.505 102.976C254.772 102.729 253.122 103.059 251.389 103.141C249.491 103.224 247.593 103.224 245.695 103.307C244.54 103.389 244.623 104.874 245.695 105.039C246.851 105.204 248.088 105.369 249.409 105.452C249.491 107.102 249.656 108.835 249.821 110.486C249.986 112.218 249.904 113.951 250.564 115.519C250.894 116.262 252.132 116.014 252.214 115.272C252.544 113.539 252.049 111.888 251.802 110.155C251.554 108.588 251.307 107.02 251.059 105.452C252.957 105.534 254.855 105.452 256.423 104.957C257.413 104.792 257.578 103.141 256.505 102.976Z" fill="#251C1C"/>
<path d="M272.762 113.621C272.349 111.641 271.029 109.825 270.039 108.01C269.956 107.845 269.874 107.68 269.709 107.432C269.709 107.102 269.544 106.772 269.296 106.607C268.471 105.039 267.563 103.471 266.738 101.904C266.325 101.078 265.005 101.078 264.51 101.904C262.447 105.782 260.384 109.66 258.486 113.621C257.909 114.859 259.559 115.849 260.302 114.694C261.374 112.878 262.447 111.063 263.437 109.248C264.84 109.165 266.243 109.165 267.646 108.918C267.728 109 267.811 109.165 267.811 109.248C268.801 111.063 269.626 113.126 271.111 114.529C271.772 115.354 272.927 114.611 272.762 113.621ZM264.427 107.432C264.84 106.69 265.17 106.029 265.583 105.287C265.83 105.782 266.16 106.277 266.408 106.855C265.748 107.02 265.088 107.185 264.427 107.432Z" fill="#251C1C"/>
<path d="M287.282 111.393C285.797 111.723 284.229 111.971 282.744 112.301C281.919 112.466 280.928 112.796 280.021 112.878C278.535 113.043 278.618 112.713 278.37 111.393C277.71 108.01 277.05 104.627 276.225 101.243C276.06 100.666 275.07 100.748 275.152 101.408C275.4 104.049 275.647 106.607 275.977 109.248C276.142 110.733 275.977 113.456 276.885 114.776C277.793 116.014 279.443 115.601 280.681 115.354C283.074 114.941 285.549 114.446 287.942 113.951C289.675 113.621 288.933 111.063 287.282 111.393Z" fill="#251C1C"/>
<path d="M293.474 106.855C293.226 104.874 293.309 102.894 293.474 100.914C293.556 100.171 292.401 100.006 292.153 100.749C291.081 104.462 290.75 109.661 292.813 113.126C293.309 113.951 294.794 113.621 294.711 112.631C294.464 110.651 293.721 108.835 293.474 106.855Z" fill="#251C1C"/>
<path d="M293.554 95.1376C293.471 94.8075 293.471 94.725 293.554 94.9725C293.636 93.9823 292.399 93.4872 291.656 94.0648C291.243 94.3949 291.161 94.9725 291.326 95.3851C290.666 95.6327 290.666 96.7054 291.409 96.9529C291.986 97.118 292.564 96.9529 292.976 96.5403C293.141 96.3753 293.224 96.2103 293.389 95.9627C293.471 95.7977 293.554 95.5501 293.554 95.3026C293.554 95.2201 293.554 95.2201 293.554 95.1376Z" fill="#251C1C"/>
<path d="M307.007 105.287C305.769 102.894 304.201 100.749 302.468 98.7684C301.891 98.1083 300.653 98.4383 300.488 99.2635C299.993 101.822 299.58 104.297 299.168 106.855C298.838 108.836 298.342 110.816 298.755 112.796C298.838 113.209 299.415 113.209 299.58 112.879C300.405 111.559 300.735 110.073 301.065 108.588C301.396 108.753 301.808 109.001 302.221 109.083C302.798 109.248 303.458 109.248 304.119 109.166C304.779 109.166 305.356 109.001 305.934 108.836C306.429 110.156 306.842 111.476 307.584 112.631C308.162 113.456 309.482 113.126 309.482 112.136C309.482 109.826 308.079 107.35 307.007 105.287ZM303.541 107.35C302.881 107.515 301.973 107.763 301.148 107.763C301.231 107.515 301.231 107.185 301.313 106.938C301.643 105.452 301.973 103.884 302.221 102.399C303.211 103.719 304.036 105.122 304.779 106.525C304.861 106.69 304.944 106.773 304.944 106.938C304.614 107.103 304.119 107.268 303.541 107.35Z" fill="#251C1C"/>
<path d="M321.693 98.5209C321.611 101.822 321.446 105.122 321.198 108.423C318.393 104.71 315.67 100.914 312.864 97.1181C312.204 96.2104 310.388 96.3754 310.554 97.7782C310.966 102.564 311.461 107.433 312.451 112.136C312.699 113.209 314.432 112.961 314.349 111.889C314.102 108.588 313.772 105.37 313.442 102.069C316 105.535 318.558 109.083 321.116 112.549C321.941 113.622 323.344 113.209 323.509 111.889C324.086 107.433 324.334 102.977 324.334 98.4383C324.416 96.788 321.776 96.788 321.693 98.5209Z" fill="#251C1C"/>
<path d="M336.959 100.584C336.298 98.8511 335.473 95.1378 333.163 95.0553C330.44 94.8902 330.522 98.686 330.275 100.419C329.615 104.792 328.377 109.166 327.882 113.539C327.799 114.199 328.954 114.529 329.202 113.869C330.192 111.641 330.852 109.331 331.347 106.938C332.915 107.268 334.566 107.268 336.216 106.855C336.298 106.855 336.381 106.773 336.463 106.773C337.124 108.918 337.536 111.229 338.526 113.209C338.939 114.117 340.424 113.704 340.424 112.714C340.424 108.588 338.444 104.297 336.959 100.584ZM331.76 105.287C331.925 104.297 332.173 103.307 332.338 102.317C332.503 101.409 332.338 99.5112 333.08 98.7685C333.493 97.4483 333.823 97.9434 334.235 100.089C334.566 100.831 334.813 101.657 335.143 102.399C335.391 103.142 335.638 103.802 335.886 104.545C335.803 104.545 335.803 104.545 335.721 104.627C334.401 105.04 333.08 105.287 331.76 105.287Z" fill="#251C1C"/>
<path d="M344.964 84.823C344.881 83.8328 343.478 83.8328 343.396 84.823C343.148 90.5992 342.901 96.8705 343.643 102.564C343.808 103.884 345.706 103.967 345.789 102.564C346.201 96.788 345.624 90.5992 344.964 84.823Z" fill="#251C1C"/>
<path d="M345.21 110.65C344.714 110.65 344.714 111.394 345.21 111.394C345.705 111.394 345.705 110.65 345.21 110.65Z" fill="#251C1C"/>
<path d="M300.487 125.009C299.744 126.329 301.724 127.484 302.467 126.164C303.787 126.907 305.108 127.567 306.428 128.309C306.428 129.63 306.015 130.702 305.108 131.61C304.117 132.765 302.797 133.508 301.312 134.003C298.919 134.746 296.113 134.416 293.72 133.921C289.594 133.095 285.634 131.197 281.838 129.547C276.144 127.072 269.13 123.936 262.776 125.834C257.908 127.319 255.927 131.775 258.898 136.148C262.199 140.852 268.057 142.09 273.256 140.274C273.751 140.109 273.504 139.367 273.008 139.532C267.81 141.182 260.878 138.624 259.723 132.93C258.32 125.999 268.635 127.237 272.513 128.309C280.435 130.455 287.449 135.571 295.783 136.561C301.147 137.221 308.078 135.323 308.573 128.887C308.986 124.348 303.21 120.14 300.487 125.009Z" fill="#251C1C"/>
<path d="M282.662 138.047C281.094 137.221 279.609 138.459 279.361 139.945C278.866 140.605 278.784 141.677 278.866 142.42C279.279 144.648 281.92 145.308 283.322 143.493C284.56 142.007 284.56 139.037 282.662 138.047Z" fill="#251C1C"/>
<path d="M279.938 136.809C279.938 136.149 279.278 135.571 278.701 135.571C278.288 135.571 277.875 135.736 277.628 135.984C276.803 136.974 277.38 138.212 278.618 138.294C279.113 138.377 279.608 138.047 279.856 137.634C279.938 137.469 280.021 137.139 279.938 136.809Z" fill="#251C1C"/>
<path d="M281.177 137.139C281.815 137.139 282.332 136.622 282.332 135.984C282.332 135.346 281.815 134.829 281.177 134.829C280.539 134.829 280.022 135.346 280.022 135.984C280.022 136.622 280.539 137.139 281.177 137.139Z" fill="#251C1C"/>
<path d="M285.715 136.892C285.55 136.892 285.385 136.892 285.22 136.974C285.55 136.231 285.22 135.076 284.148 135.076C282.497 135.076 282.497 137.634 284.148 137.634C284.313 137.634 284.478 137.634 284.643 137.552C284.313 138.294 284.643 139.45 285.715 139.45C287.366 139.45 287.366 136.892 285.715 136.892Z" fill="#251C1C"/>
<path d="M285.222 129.217C285.86 129.217 286.377 128.7 286.377 128.062C286.377 127.424 285.86 126.906 285.222 126.906C284.584 126.906 284.067 127.424 284.067 128.062C284.067 128.7 284.584 129.217 285.222 129.217Z" fill="#251C1C"/>
<path d="M287.611 130.868C288.249 130.868 288.767 130.351 288.767 129.713C288.767 129.075 288.249 128.557 287.611 128.557C286.973 128.557 286.456 129.075 286.456 129.713C286.456 130.351 286.973 130.868 287.611 130.868Z" fill="#251C1C"/>
<path d="M290.172 129.217C288.604 129.217 288.604 131.693 290.172 131.693C291.74 131.693 291.74 129.217 290.172 129.217Z" fill="#251C1C"/>
<path d="M292.813 129.547C291.327 129.547 291.327 131.94 292.813 131.94C294.381 131.858 294.381 129.547 292.813 129.547Z" fill="#251C1C"/>
<path d="M292.233 122.451C291.243 121.708 289.841 121.791 288.85 122.616C288.438 123.029 288.108 123.606 288.025 124.184C287.778 124.431 287.613 124.679 287.448 125.009C287.035 125.999 287.117 127.237 287.778 128.062C289.593 130.29 292.976 127.897 293.389 125.669C293.636 124.431 293.224 123.111 292.233 122.451Z" fill="#251C1C"/>
<path d="M168.705 33.8262C167.798 33.8262 167.798 35.3115 168.705 35.3115C169.695 35.3115 169.695 33.8262 168.705 33.8262Z" fill="#251C1C"/>
<path d="M114.407 106.937C113.912 106.607 113.169 107.019 112.674 107.267C111.849 107.679 111.106 108.175 110.446 108.752C110.363 108.835 110.281 108.917 110.281 109.082C110.033 108.917 109.868 109.247 110.033 109.412C110.941 110.155 111.849 110.898 112.756 111.558C113.004 111.723 113.334 111.64 113.416 111.31C113.664 110.403 113.994 109.577 114.324 108.67C114.489 108.175 114.984 107.432 114.407 106.937Z" fill="#251C1C"/>
<path d="M78.8435 109.908C77.9358 109.33 77.1106 108.67 76.2854 107.927C75.9554 107.68 75.3777 107.68 75.3777 108.257C75.3777 109.165 75.3777 110.073 75.3777 110.981C75.3777 111.723 75.2127 112.466 75.5428 113.126C75.6253 113.291 75.7078 113.374 75.8728 113.374C75.9554 113.456 76.1204 113.539 76.2029 113.374C76.2029 113.374 76.2029 113.374 76.2854 113.291C76.4505 113.209 76.533 113.126 76.6155 112.961C77.3582 112.136 78.1833 111.311 79.0085 110.568C79.091 110.485 79.091 110.073 78.8435 109.908Z" fill="#251C1C"/>
<path d="M166.23 135.57C165.9 134.333 165.075 133.177 164.084 132.27C164.002 132.187 164.002 132.105 163.837 132.105C160.784 129.464 155.75 128.804 154.1 133.177C154.1 133.177 154.1 133.177 154.1 133.26C147.333 133.012 140.814 135.653 134.461 137.798C129.262 139.614 122.908 141.182 117.875 143.822C117.214 142.667 116.554 141.594 115.729 140.521C115.894 140.356 116.059 140.274 116.142 140.109C116.389 139.696 116.719 139.366 116.967 138.954C117.545 138.128 117.875 137.221 118.287 136.313C118.535 135.818 118.7 135.323 118.865 134.91C118.947 134.745 118.947 134.58 119.03 134.415C119.03 134.333 119.112 134.25 119.195 134.168C119.195 134.168 119.195 134.168 119.112 134.168C119.855 131.94 120.268 129.712 120.68 127.401C121.175 124.596 120.515 121.955 119.855 119.232C119.69 118.654 119.525 118.159 119.442 117.582C119.277 117.499 119.195 117.334 119.112 117.087C118.7 115.766 118.205 114.528 117.71 113.208C117.462 112.796 117.297 112.466 117.132 112.053C117.71 110.815 117.875 109.247 118.122 107.927C118.287 106.442 118.37 104.956 118.37 103.471C118.37 103.224 118.287 103.059 118.122 102.894C118.122 102.894 118.122 102.894 118.122 102.811H118.04C117.875 102.729 117.71 102.646 117.462 102.646C116.637 102.811 115.812 102.894 114.987 103.141C113.501 103.471 112.016 103.884 110.696 104.461C109.293 105.122 107.808 106.029 106.982 107.267C105.497 106.112 103.764 105.452 101.949 104.956C99.6383 104.296 97.1628 103.636 94.7698 103.389C90.5614 102.894 86.2705 103.966 82.3922 105.534C81.8971 105.947 81.2369 106.194 80.4117 106.112C78.3488 105.947 76.3684 105.699 74.4705 105.039C74.388 104.956 74.388 104.956 74.3055 104.956C73.9754 104.791 73.6453 104.626 73.3153 104.379C73.2327 104.296 73.1502 104.296 73.0677 104.379C72.9027 104.296 72.7376 104.379 72.6551 104.544C72.4901 104.874 72.4901 105.369 72.5726 105.782C72.2425 109.577 71.7474 113.456 71.6649 117.252C71.0873 118.984 70.5097 120.635 69.9321 122.368C69.8495 122.698 69.767 123.028 69.767 123.358C69.1894 125.008 69.1069 126.824 69.1894 128.639C69.3544 131.61 69.767 134.58 70.5097 137.468C70.5097 137.633 70.5922 137.881 70.5922 138.046C70.5922 138.128 70.6747 138.211 70.6747 138.293C70.7572 138.541 70.8397 138.871 70.8397 139.119C69.2719 142.007 68.1992 145.39 65.0635 146.71C63.2481 147.535 61.5978 147.948 59.9474 149.268C56.2342 152.239 53.3461 156.695 51.5307 161.068C48.065 169.733 49.2202 179.387 55.0789 186.731C54.3363 189.619 54.6663 193.168 54.6663 196.056C54.6663 199.274 54.7489 202.575 55.1614 205.793C55.1614 207.773 55.244 209.754 55.3265 211.651C55.4915 218.253 56.3167 224.854 57.637 231.208C60.03 242.513 64.4859 253.405 71.4999 262.647C70.2621 263.225 69.2719 264.05 68.5293 265.453C66.9614 268.671 69.0244 271.807 71.9125 273.292C75.6257 275.272 80.4117 276.015 83.96 273.539C87.5908 270.981 91.2215 266.195 92.0467 261.822C92.0467 261.739 92.0467 261.739 92.0467 261.657C93.2019 260.337 93.9446 258.686 94.4397 256.871C94.6872 255.881 95.0173 254.89 95.2649 253.818C95.6775 255.963 96.2551 258.109 96.9977 260.172C97.8229 262.4 98.7306 264.793 100.133 266.773C103.764 273.622 110.778 280.553 118.452 274.695C120.928 272.797 122.166 269.744 121.093 266.773C120.433 265.04 119.277 263.967 117.792 263.39C117.875 263.307 117.875 263.225 117.957 263.06C122.496 251.507 124.889 239.212 125.631 226.835C125.961 221.636 126.044 216.52 126.126 211.321V211.239C126.126 211.156 126.126 211.156 126.126 211.074V210.991C126.126 210.909 126.126 210.909 126.126 210.826C126.126 210.744 126.126 210.579 126.126 210.496C126.126 210.414 126.126 210.249 126.209 210.166C126.209 209.919 126.291 209.836 126.456 209.754C135.121 205.958 140.814 198.366 144.28 189.702C146.838 183.348 148.901 176.829 150.799 170.228C151.954 166.349 153.852 160.821 151.707 156.942C150.717 155.127 149.066 154.302 147.251 154.137C150.717 151.991 153.935 149.516 156.328 146.463C156.658 146.133 156.988 145.72 157.153 145.225C157.318 144.977 157.565 144.647 157.73 144.4C157.896 144.152 157.896 143.905 157.813 143.657C157.896 143.575 157.896 143.41 157.978 143.327C157.978 143.245 157.978 143.162 158.061 143.08C159.876 143.74 161.774 143.74 163.507 142.502C165.817 141.099 166.972 138.211 166.23 135.57ZM126.209 192.26C126.291 192.26 126.374 192.177 126.456 192.095C126.456 190.032 126.539 187.969 126.621 185.989C126.456 183.183 125.961 180.377 125.136 177.654C124.146 174.519 123.651 171.3 123.403 168.082C123.403 167.67 123.321 167.175 123.238 166.762C123.156 166.679 123.156 166.679 123.073 166.597C128.932 164.534 134.543 161.481 139.907 158.51C139.989 158.428 140.154 158.428 140.237 158.345C138.834 160.573 137.926 163.214 137.266 165.524C133.718 176.582 133.058 187.886 126.539 197.458C126.374 195.726 126.291 193.993 126.209 192.26ZM147.993 158.098C150.304 159.5 150.304 159.418 150.304 161.728C150.304 163.379 149.891 165.029 149.479 166.597C148.901 168.907 148.158 171.135 147.416 173.446C145.931 178.232 144.445 183.018 142.547 187.721C139.164 196.303 133.965 202.492 126.209 206.865C126.209 204.885 126.291 202.905 126.291 200.842C126.374 200.677 126.456 200.512 126.539 200.347C126.704 199.851 126.621 199.274 126.374 198.861C130.5 194.735 132.893 189.124 134.708 183.513C135.368 181.533 135.863 179.552 136.359 177.572C137.019 177.654 137.679 177.737 138.339 177.984C139.082 178.314 140.154 177.819 140.567 177.077C141.64 174.931 139.907 172.538 137.761 172.126C137.926 171.383 138.091 170.723 138.339 169.98C138.834 170.64 139.742 171.053 140.484 171.218C141.887 171.548 143.29 171.3 144.033 169.98C144.693 168.742 144.28 167.175 143.372 166.184C142.547 165.359 141.145 164.534 139.907 164.864C140.154 164.204 140.402 163.461 140.649 162.801C141.062 161.728 141.557 160.656 142.135 159.665C142.547 159.17 142.96 158.593 143.372 158.098C144.94 156.365 146.508 156.365 147.993 158.098ZM161.939 141.759C159.958 142.914 157.896 142.254 155.915 141.512C155.75 141.429 155.585 141.759 155.75 141.842C155.998 142.007 156.245 142.254 156.493 142.419L156.41 142.502C156.08 143.079 155.668 143.822 155.42 144.482C151.377 150.259 144.363 153.889 138.174 157.19C138.091 156.035 137.679 154.962 137.101 153.972C136.524 153.064 135.616 151.909 134.378 152.156C132.975 152.404 133.058 153.889 133.14 154.962C133.14 156.53 133.223 158.098 133.47 159.665C133.058 159.831 132.728 160.078 132.315 160.243C132.068 158.428 131.242 156.777 130.005 155.375C129.51 154.797 128.437 155.127 128.272 155.87C127.777 157.768 127.694 159.831 128.272 161.728C127.777 161.811 127.364 161.976 126.869 161.976C126.126 162.058 125.466 161.976 124.724 162.058C124.311 161.646 123.568 161.646 123.321 162.306C122.908 163.874 121.423 164.121 120.103 164.534C118.782 164.947 117.462 165.359 116.059 165.194C115.894 165.194 115.812 165.442 116.059 165.524C117.792 165.772 120.35 166.019 122.248 165.359C120.845 166.597 119.112 167.587 117.38 168.33C118.37 168.082 119.36 167.835 120.35 167.505C120.35 167.587 120.35 167.67 120.433 167.752C120.598 168.66 120.928 169.485 121.175 170.393C119.773 170.723 118.04 172.373 116.967 173.198C115.894 174.106 114.821 175.179 114.904 176.664C115.234 180.625 120.02 180.212 122.661 179.47C122.826 179.387 122.991 179.222 123.156 179.057C123.568 180.625 123.816 182.275 123.981 183.843C122 184.091 119.855 184.833 117.957 185.493C116.554 186.071 115.234 187.144 115.234 188.794C115.317 190.444 116.719 191.352 118.122 191.6C120.103 192.012 122.248 192.095 124.311 192.26C124.146 193.333 124.063 194.405 123.981 195.478C121.34 196.303 111.851 198.531 115.647 202.575C117.462 204.555 121.01 204.555 123.568 203.317C123.568 204.307 123.486 205.38 123.486 206.37C123.486 206.453 123.486 206.535 123.486 206.618C120.35 206.865 113.089 209.011 115.647 213.219C116.637 214.952 119.03 214.787 120.763 214.457C121.588 214.292 122.413 214.044 123.156 213.632C123.156 214.044 123.073 214.457 123.073 214.87C123.156 215.695 123.073 216.52 122.908 217.263C122.826 218.088 122.826 218.83 122.743 219.656C122.743 219.738 122.743 219.821 122.743 219.821C122.743 219.986 122.661 220.233 122.661 220.398C122.661 220.481 122.661 220.481 122.661 220.563C122.578 220.976 122.578 221.306 122.496 221.719C122.496 221.801 122.496 221.966 122.496 222.049H122.578C122.496 223.039 122.413 223.946 122.331 224.937C121.918 229.888 121.34 234.756 120.515 239.707C119.773 239.625 119.03 239.707 118.287 239.79C117.462 239.872 116.637 240.202 116.554 241.11C116.389 242.76 118.37 243.916 119.69 244.328C119.525 245.401 119.277 246.391 119.03 247.381C117.71 247.216 115.894 247.134 115.729 248.537C115.564 249.857 116.967 250.435 118.287 250.682C117.792 252.663 117.214 254.56 116.637 256.458C116.224 257.779 115.812 259.016 115.399 260.337C115.399 260.337 115.399 260.337 115.399 260.419C115.317 260.502 115.317 260.667 115.234 260.749L115.152 260.832C115.069 260.997 115.069 261.162 114.987 261.244C114.739 261.739 114.574 262.152 114.491 262.647C113.666 262.647 112.759 262.647 111.933 262.812C111.851 262.812 111.768 262.895 111.686 262.977C114.987 262.565 118.865 264.628 120.02 267.598C121.01 270.321 118.452 272.879 115.812 273.292C114.079 273.869 111.933 273.704 110.035 272.962C106.735 271.642 105.084 268.341 103.187 265.288C101.124 263.06 99.8033 260.089 99.1432 257.036C98.9781 256.706 98.8956 256.376 98.8131 256.046C98.8131 256.046 98.8131 256.046 98.8131 255.963C97.8229 253.158 97.4928 250.187 97.3278 247.216C96.8327 244.328 96.7502 241.275 96.3376 238.387C96.1726 237.149 95.8425 235.911 95.76 234.591C94.6872 240.615 93.7796 246.886 92.0467 252.91C92.0467 252.91 92.0467 252.91 92.0467 252.993C91.9642 255.138 91.304 257.201 90.6439 259.181C90.1488 260.419 89.6537 261.327 88.9935 262.235C88.4984 263.142 88.0033 264.05 87.3432 264.958C85.2803 268.341 82.3922 271.642 78.8439 271.807C77.3586 271.889 74.388 271.559 72.5726 270.734C72.4901 270.734 72.4076 270.734 72.325 270.734C70.2621 270.074 69.5195 267.268 70.4272 265.453C70.4272 265.37 70.4272 265.37 70.4272 265.288L70.5922 265.123C70.6747 265.04 70.7572 264.875 70.7572 264.793C72.5726 262.4 76.0383 262.235 78.9264 262.069C78.8439 261.987 78.8439 261.987 78.7614 261.987C77.4411 261.739 75.9558 261.657 74.553 261.739C74.6355 261.327 74.553 260.914 74.2229 260.502C73.8929 260.089 73.6453 259.759 73.3978 259.346C72.5726 258.356 71.8299 257.366 71.1698 256.211C71.0873 256.128 71.0873 256.046 71.0873 255.963C69.4369 253.405 68.0341 250.765 66.7964 248.042C67.6216 247.711 68.1992 247.051 68.5293 246.226C68.6943 245.814 68.4467 245.401 68.1167 245.153C67.374 244.658 66.6314 244.246 65.7237 244.163C65.4761 244.163 65.3111 244.163 65.146 244.246C64.816 243.338 64.4859 242.513 64.1558 241.605C64.4034 241.605 64.6509 241.688 64.8985 241.605C65.8887 241.523 67.209 241.193 67.7041 240.202C68.2817 238.882 66.9614 238.057 66.0537 237.479C65.0635 236.819 63.8258 235.911 62.588 235.746C62.5055 235.746 62.423 235.746 62.3405 235.746C61.7628 233.518 61.2677 231.373 60.7726 229.145C60.195 226.092 59.7824 223.039 59.4523 219.903C59.4523 219.821 59.3698 219.821 59.3698 219.738C59.2048 219.326 59.2048 218.913 59.2873 218.583C59.1223 217.015 58.9572 215.447 58.8747 213.879V213.549C58.8747 213.467 58.8747 213.467 58.8747 213.384C59.1223 213.467 59.4523 213.632 59.6999 213.714C60.4426 213.962 61.2677 214.044 62.0104 214.044C63.0006 214.044 63.9083 213.962 64.7335 213.302C65.5586 212.642 65.9712 211.651 65.9712 210.579C65.8887 208.928 64.816 208.021 63.4957 207.361C63.3307 206.865 62.9181 206.453 62.3405 206.288C61.2677 205.958 60.2775 205.628 59.2873 205.05C59.0398 204.885 58.7097 204.802 58.4621 204.72C58.4621 204.39 58.4621 203.977 58.4621 203.647C59.6174 203.977 60.9377 203.895 62.0929 203.4C63.6607 202.657 64.7335 200.924 64.3209 199.191C63.8258 196.963 61.3502 195.313 59.0398 194.818C58.9572 194.735 58.7922 194.735 58.7097 194.653C58.2971 194.57 57.802 194.57 57.3894 194.653C57.3069 193.828 57.3894 193.002 57.4719 192.177C59.2048 193.91 63.6607 193.58 64.1558 191.022C64.981 188.712 60.7726 185.658 58.6272 184.833C58.6272 184.421 58.7097 184.091 58.7097 183.678C58.7922 182.853 58.8747 182.028 58.9572 181.203C60.6076 182.523 63.1656 182.77 64.8985 181.615C68.8593 179.14 63.9083 175.839 60.6901 174.271C60.6076 174.106 60.36 174.024 60.195 174.024C60.1125 173.941 60.03 173.941 59.9474 173.941C60.2775 172.208 60.6901 170.475 61.1027 168.742C61.3502 168.825 61.5153 168.907 61.7628 168.907C62.0104 169.815 62.6705 170.475 63.6607 170.64C64.2383 170.723 64.7335 170.31 64.981 169.733C63.2481 168.33 62.1754 166.597 61.8453 164.534C61.7628 165.194 61.6803 165.854 61.6803 166.514H61.5978C61.1852 166.349 60.7726 166.102 60.4426 165.854C59.6999 165.277 59.1223 164.699 58.6272 163.956C58.3796 163.461 58.2146 162.884 58.1321 162.306C58.1321 162.306 58.1321 162.306 58.0496 162.306C57.637 162.801 57.5544 163.379 57.7195 164.039C57.7195 164.039 57.7195 164.039 57.7195 164.121C57.7195 165.112 58.0495 166.102 58.7097 166.927C58.6272 167.257 58.5447 167.587 58.4621 167.835C58.2971 168.33 58.2146 168.825 58.0496 169.32C57.967 170.063 57.802 170.723 57.5545 171.383C57.3894 172.456 57.2244 173.446 57.0593 174.519C56.6468 177.407 56.3992 180.377 56.1517 183.348C56.1517 183.596 56.1517 183.843 56.1517 184.091C52.851 179.47 51.6957 174.024 52.2733 168.66C52.2733 168.577 52.2733 168.577 52.2733 168.495C52.2733 168.412 52.2733 168.412 52.2733 168.33C52.2733 168.247 52.2733 168.247 52.2733 168.165C52.2733 168 52.3559 167.752 52.3559 167.587C52.3559 167.505 52.4384 167.34 52.4384 167.257V167.175C52.5209 166.844 52.5209 166.514 52.6034 166.184V166.102C53.2635 162.884 54.5838 159.665 56.4817 156.777C57.8845 154.632 59.5349 152.569 61.5153 151.001C63.4132 149.433 65.6411 149.433 67.539 148.278C67.7866 148.113 68.0342 147.948 68.2817 147.7C68.6118 146.958 68.9418 146.298 69.3544 145.72C69.932 144.812 70.5097 143.905 71.0873 142.997C71.4999 142.337 71.9125 141.512 71.995 140.686C72.8202 141.924 73.8929 142.914 75.2132 143.492C73.5628 141.429 72.7376 138.789 72.325 136.231C72.2425 135.9 72.16 135.488 72.16 135.075C73.1502 135.653 74.388 135.405 75.1306 134.415C76.3684 132.682 74.7181 129.712 72.7376 129.299C73.0677 128.887 73.3978 128.556 73.8929 128.226C74.0579 128.144 74.3055 128.061 74.4705 128.144C74.553 128.144 74.553 128.144 74.6355 128.061C75.2957 127.896 75.8733 127.731 76.4509 127.484C79.0915 126.328 79.5866 123.77 77.6062 121.79C76.781 120.965 75.7083 120.222 74.6355 119.645C73.6453 119.067 73.2327 118.242 73.8929 117.252C74.7181 115.931 74.6355 114.446 74.6355 113.043C74.6355 111.145 74.388 109.247 74.388 107.349C74.388 107.267 74.388 107.267 74.388 107.184C74.4705 106.442 74.9656 106.277 75.7908 106.607C76.781 107.019 77.6062 107.597 78.5964 107.845C80.5768 108.34 82.6397 109 84.7026 107.762C86.353 106.772 88.3334 106.607 90.1488 106.442C92.2942 106.194 94.5222 106.359 96.7502 106.359C97.5754 106.359 98.4005 106.442 99.2257 106.607C99.3082 106.607 99.3907 106.607 99.3907 106.689C101.701 107.349 104.342 107.845 106.075 109.495C106.405 109.742 106.735 109.825 107.065 109.825C108.715 108.175 110.531 106.689 112.676 105.617C113.171 105.369 114.491 104.626 115.482 104.379C115.894 104.296 116.224 104.296 116.554 104.379C117.545 104.874 117.049 106.029 116.802 106.772C116.142 109.082 115.399 111.228 115.152 113.538C115.894 113.703 116.472 114.116 116.719 114.941C117.214 116.344 117.792 117.664 118.37 118.984C118.535 119.397 118.617 119.81 118.782 120.14C118.947 120.635 118.7 120.882 118.122 120.965C116.059 121.295 114.244 124.926 115.234 127.154C115.729 128.226 116.719 128.639 117.875 128.226C118.122 128.144 118.452 128.061 119.03 127.814C118.782 128.887 118.617 129.794 118.37 130.702C118.205 130.619 118.04 130.537 117.792 130.537C117.38 130.454 116.967 130.537 116.554 130.702C115.729 130.949 114.904 131.527 114.574 132.435C113.996 133.92 114.904 135.57 116.389 136.066C116.059 136.726 115.729 137.303 115.317 137.963C114.656 139.696 113.749 141.347 112.511 142.749C113.171 142.502 113.914 142.172 114.491 141.759C114.656 141.677 114.739 141.594 114.904 141.429C115.399 142.584 115.977 143.657 116.554 144.73C116.059 145.06 115.647 145.307 115.152 145.638C115.069 145.72 115.069 145.885 115.234 145.885C116.059 145.803 116.802 145.638 117.627 145.555H117.71C119.442 145.225 121.175 144.647 122.908 144.07C123.073 146.05 123.981 147.866 125.466 149.268C126.044 149.846 127.034 149.598 127.282 148.773C127.859 146.71 127.694 144.565 126.869 142.667C128.189 142.172 129.427 141.677 130.665 141.182C130.747 142.997 131.16 144.565 131.903 146.215C132.233 146.958 133.388 146.875 133.8 146.215C134.873 144.235 135.121 141.924 134.626 139.779C141.145 137.551 147.993 134.745 154.925 135.24C155.668 135.323 155.915 134.663 155.833 134.085C155.998 134.003 156.08 133.838 156.163 133.673C156.988 131.445 159.958 131.692 161.691 132.517C163.424 133.342 164.744 134.993 164.909 136.973C164.744 138.871 163.672 140.769 161.939 141.759Z" fill="#251C1C"/>
<path d="M109.209 135.818C107.394 135.158 105.578 134.911 103.68 134.663V134.58C103.763 133.508 103.02 132.6 102.03 131.94C104.176 131.527 106.404 131.445 108.631 131.692C108.879 131.692 108.962 131.28 108.631 131.28C106.073 130.95 103.68 131.032 101.287 131.527C100.627 131.115 99.8846 130.867 99.2245 130.702C98.3993 130.455 97.6567 130.455 96.914 130.537C97.3266 129.629 97.4916 128.639 97.1616 127.814C96.9965 127.401 96.4189 127.319 96.0888 127.649C95.4287 128.227 94.8511 128.887 94.4385 129.629C93.9434 128.392 93.2007 127.319 91.963 128.144C91.7154 128.309 91.4679 128.639 91.5504 128.969C91.7979 129.877 92.128 130.702 92.5406 131.445C90.2301 129.794 86.6819 129.382 85.2791 131.692C83.2987 131.527 81.3182 131.527 79.4203 131.692V131.775C81.3182 131.94 83.1336 132.187 85.0315 132.352C85.0315 132.435 84.949 132.518 84.949 132.683C84.784 133.425 84.949 134.003 85.2791 134.498C83.3812 134.828 81.5658 135.241 79.6679 135.571C79.5029 135.571 79.5854 135.818 79.7504 135.818C81.7308 135.488 83.7112 135.241 85.7742 134.993C86.5994 135.736 87.7546 136.231 88.6623 136.478C89.6525 136.808 90.6427 136.891 91.5504 136.808C91.3854 138.129 91.963 139.036 93.4483 139.366C95.0161 139.697 96.5014 138.871 96.914 137.386C99.6371 138.376 103.103 137.964 103.515 135.076C105.331 135.488 107.146 135.983 108.962 136.313C109.374 136.148 109.374 135.901 109.209 135.818ZM88.0021 134.911C87.8371 134.828 87.6721 134.745 87.507 134.663C88.3322 134.58 89.1574 134.498 89.9826 134.415C90.3952 134.333 90.2301 133.755 89.8175 133.755C88.8273 133.838 87.8371 134.003 86.8469 134.085C86.5168 133.673 86.2693 133.178 86.2693 132.683C86.2693 132.6 86.2693 132.435 86.3518 132.352C88.0021 132.518 89.6525 132.765 91.3028 133.013C91.6329 133.095 91.7154 132.6 91.3854 132.518C89.8175 132.187 88.2497 131.857 86.5994 131.692C87.177 130.867 88.4973 130.455 89.4875 130.785C89.9 130.785 90.3952 130.867 90.7252 131.032C91.3028 131.197 92.0455 131.527 92.3756 132.187C92.6231 132.435 92.9532 132.765 93.2007 133.178C93.3658 133.343 93.4483 133.508 93.6133 133.673C93.6133 133.838 93.7784 134.003 93.9434 134.085C93.2833 134.745 92.5406 135.158 91.7979 135.323C91.7154 135.571 91.4679 135.736 91.1378 135.653C90.1476 135.406 88.9924 135.406 88.0021 134.911ZM93.6958 138.294C92.7056 138.129 92.293 137.469 92.0455 136.643C92.9532 136.478 93.6958 136.148 94.4385 135.488C94.8511 136.066 95.5112 136.561 96.2539 136.891C95.9238 138.046 94.8511 138.541 93.6958 138.294ZM102.525 134.58C101.452 134.415 100.462 134.333 99.4721 134.085C99.2245 134.003 99.142 134.415 99.3895 134.415C100.462 134.415 101.452 134.498 102.525 134.663C101.783 136.891 96.4189 137.221 95.1812 134.085C95.0986 133.92 95.0161 133.838 94.9336 133.838C95.2637 133.755 95.4287 133.508 95.3462 133.178C95.6763 132.765 96.0063 132.27 96.3364 131.775C97.7392 131.28 99.3895 131.197 100.627 131.692C99.6371 131.94 98.7294 132.187 97.7392 132.518C97.3266 132.683 97.6567 133.26 98.0693 133.095C99.142 132.683 100.297 132.352 101.452 132.105C101.783 132.352 102.03 132.6 102.195 132.93C102.525 133.508 102.608 134.085 102.525 134.58Z" fill="#251C1C"/>
<path d="M86.3499 117.252C82.389 117.004 82.6366 123.606 82.8841 126.741C82.6366 127.154 82.7191 127.814 83.2967 127.814C85.1946 127.897 87.01 127.814 88.9079 127.649C89.1555 127.649 89.403 127.402 89.403 127.154C89.6506 124.513 90.4757 117.499 86.3499 117.252ZM88.2478 126.411C87.7527 126.411 88.4953 126.411 88.0002 126.494C88.4128 125.834 88.3303 124.926 88.3303 124.183C88.3303 123.111 88.4128 121.955 88.0827 120.965C87.8352 120.057 86.5149 120.223 86.1848 120.965C85.6897 121.955 85.6897 123.111 85.6072 124.266C85.5247 125.091 85.3597 125.916 85.8548 126.576C85.4422 126.576 83.7918 126.576 83.3792 126.494C83.5443 125.421 83.7093 124.431 83.8743 123.358C84.0394 122.368 84.1219 119.067 85.3597 118.737C86.0198 118.902 86.7625 119.067 87.4226 119.232C87.7527 119.727 88.0002 120.223 88.1653 120.718C88.3303 121.295 88.4953 121.873 88.4953 122.533C88.5778 123.771 88.4128 125.091 88.2478 126.411Z" fill="#251C1C"/>
<path d="M101.782 116.839C97.821 116.591 98.0686 123.193 98.3162 126.328C98.0686 126.741 98.1511 127.401 98.7287 127.401C100.627 127.484 102.442 127.401 104.34 127.236C104.587 127.236 104.835 126.988 104.835 126.741C105.165 124.1 105.99 117.086 101.782 116.839ZM103.68 125.998C103.185 125.998 103.927 125.998 103.432 126.081C103.845 125.421 103.762 124.513 103.762 123.77C103.762 122.698 103.845 121.542 103.515 120.552C103.267 119.644 101.947 119.809 101.617 120.552C101.122 121.542 101.122 122.698 101.039 123.853C100.957 124.678 100.792 125.503 101.287 126.163C100.874 126.163 99.2238 126.163 98.8113 126.081C98.9763 125.008 99.1413 124.018 99.3064 122.945C99.4714 121.955 99.5539 118.654 100.792 118.324C101.452 118.489 102.194 118.654 102.855 118.819C103.185 119.314 103.432 119.809 103.597 120.305C103.762 120.882 103.927 121.46 103.927 122.12C104.092 123.358 103.927 124.678 103.68 125.998Z" fill="#251C1C"/>
<path d="M104.589 147.453C100.381 148.526 96.4199 149.351 91.964 148.938C87.4255 148.526 83.1346 147.206 79.2563 144.895C86.5178 149.599 96.5849 151.744 104.837 148.196C105.332 148.031 105.002 147.371 104.589 147.453Z" fill="#251C1C"/>
<path d="M93.2842 151.497C90.3136 151.249 86.1052 150.836 83.5472 148.938C83.5472 148.938 83.4647 148.938 83.5472 148.938C86.3528 151.084 89.8185 151.744 93.2842 152.157C93.7793 152.239 93.7793 151.497 93.2842 151.497Z" fill="#251C1C"/>
<path d="M206.827 107.763C195.935 114.364 175.058 126.824 164.083 133.261C162.846 133.921 163.918 135.654 165.156 135.076C176.543 129.548 197.255 116.51 207.322 108.753C207.157 108.423 206.992 108.093 206.827 107.763Z" fill="#251C1C"/>
<path d="M109.952 224.854C98.8951 231.951 84.5371 231.456 73.8923 223.617C73.8098 223.534 73.6448 223.699 73.7273 223.782C84.4545 232.859 98.7301 233.766 110.613 226.092C111.438 225.597 110.778 224.359 109.952 224.854Z" fill="#251C1C"/>
<path d="M101.45 159.336C96.912 157.85 92.3735 159.253 87.8351 158.428C84.2043 157.768 80.2435 158.015 76.9428 159.748C76.7778 159.831 76.8603 160.078 77.1078 160.078C79.3358 159.583 81.4812 158.923 83.7092 158.923C86.1022 158.841 88.1651 159.666 90.3931 159.996C91.4658 160.161 92.4561 159.996 93.6113 159.831C96.3344 159.501 98.6449 159.666 101.285 160.243C101.781 160.326 101.946 159.501 101.45 159.336Z" fill="#251C1C"/>
<path d="M118.289 115.189C116.226 115.271 114.328 116.261 112.513 117.087C111.275 117.664 109.707 118.159 108.635 119.067C107.975 117.334 106.819 115.766 104.921 115.024C100.218 113.208 96.7523 117.582 94.7719 121.212C93.9467 121.295 93.204 121.377 92.4614 121.708C92.3789 119.81 91.8012 117.994 90.3984 116.674C89.7383 116.096 88.9956 115.684 88.088 115.519C87.4278 115.354 86.1901 115.849 85.6949 115.601C85.3649 115.436 85.0348 115.519 84.8698 115.684C82.5593 116.014 80.5789 117.582 79.6712 119.892C77.7733 117.994 74.5551 116.674 71.9145 116.674C68.8614 116.591 68.1188 119.067 68.4488 121.708C68.6139 123.028 70.5943 122.45 70.4292 121.13C70.1817 119.48 70.8418 118.489 72.7397 118.819C73.5649 118.984 74.3076 119.149 75.0502 119.48C76.453 119.975 77.8558 120.635 79.2586 121.047C79.2586 121.13 79.2586 121.13 79.2586 121.212C78.5985 125.173 81.4866 129.547 85.6124 130.124C90.0684 130.784 92.3788 126.659 92.5439 122.78C93.3691 122.615 94.1117 122.615 94.9369 122.698C93.9467 130.702 107.067 133.508 108.965 124.678C109.295 123.358 109.295 121.873 109.047 120.47C113.338 119.727 119.362 113.868 120.847 120.305C121.012 121.13 122.333 121.13 122.498 120.305C123.075 117.664 121.012 115.106 118.289 115.189ZM85.2824 128.061C82.5593 127.401 80.6614 124.101 81.1565 121.377C81.5691 119.149 83.1369 118.077 84.8698 117.499C84.9523 117.499 84.9523 117.582 85.0348 117.582C85.6124 117.747 85.7775 117.582 86.3551 117.582C88.7481 117.499 89.9858 118.984 90.3159 121.295C90.7285 124.431 89.5733 129.134 85.2824 128.061ZM102.941 128.226C99.5579 128.722 95.7621 125.998 96.6698 122.203C96.6698 122.12 96.6698 122.12 96.6698 122.038C97.66 120.14 98.8152 118.077 100.796 117.169C104.591 115.354 107.232 119.067 107.067 122.45C106.984 125.256 105.994 127.814 102.941 128.226Z" fill="#39B100"/>
<path d="M32.6383 33.1277C31.9384 33.5374 31.4134 34.0057 30.9468 34.0057C30.1302 34.0642 29.1969 34.4154 28.672 33.1862C27.0971 29.5571 28.3803 26.3378 32.1717 25.0501C32.8716 24.816 33.6299 24.933 34.4465 24.933C36.663 20.8357 40.6876 20.9528 44.7123 20.7187C44.7123 20.7187 44.8289 20.6016 44.8289 20.4845C45.4705 15.2165 47.9786 10.651 50.5451 6.14392C52.8782 1.98808 57.0779 0.0564857 61.8024 0.817415C64.6605 1.28568 66.7603 3.04167 68.4519 5.20739C71.31 8.77791 72.7682 12.9338 73.1765 17.4993C73.2348 17.9676 73.2931 18.4359 73.4098 19.1383C75.2763 17.6164 77.0844 17.9676 78.6593 19.0797C79.6509 19.7821 80.6425 20.7772 81.2258 21.8308C82.2173 23.7624 83.0339 25.7525 83.6172 27.8597C83.8505 28.7377 83.5589 29.8498 83.2673 30.7863C83.1506 31.1375 82.334 31.4887 81.8674 31.4887C76.9678 31.5473 72.0682 31.3131 67.1686 31.4887C60.4609 31.7814 53.7531 32.5423 47.0454 32.835C42.0875 33.1862 37.2462 33.0691 32.6383 33.1277ZM31.0051 32.4838C31.1801 31.079 32.1717 31.3131 33.2216 31.3717C36.663 31.6058 40.046 31.957 43.4874 31.8399C48.8536 31.6643 54.2198 31.1961 59.586 30.7278C66.4687 30.1425 73.3514 30.201 80.2925 30.3181C82.1007 30.3766 82.8006 29.6742 82.2757 27.9182C81.7507 25.9281 80.9924 23.9965 80.0009 22.182C79.4759 21.2455 78.426 20.5431 77.4927 19.9577C76.0345 19.0797 74.9846 19.1968 73.8764 20.3675C73.3514 20.9528 73.1765 21.9478 72.8848 22.7088C72.6515 23.4112 72.5932 24.4062 71.6016 24.2306C71.3683 24.1721 71.135 22.9429 71.2516 22.2405C71.3683 21.3625 72.0682 20.6016 72.0682 19.7236C72.3015 13.5776 70.435 8.25111 65.8854 3.91967C62.2691 0.52475 55.0947 1.05155 52.3533 5.73419C50.4284 9.01204 48.7952 12.4655 47.1037 15.9189C46.5788 16.9725 46.5204 18.2017 46.2871 19.3724C45.9955 20.7187 45.9955 21.8893 47.512 22.5917C47.8037 22.7088 48.1536 23.1185 48.1536 23.3526C48.1536 23.9965 48.0953 24.6989 47.8037 25.1672C47.6287 25.3428 46.6954 25.1086 46.2288 24.8745C45.8788 24.6989 45.5872 24.1721 45.4122 23.7624C44.5956 22.1234 44.1873 21.8308 42.3791 22.0064C41.5625 22.0649 40.6876 22.2405 39.871 22.4746C35.9047 23.5282 35.1464 25.2842 37.0129 28.9133C37.1296 29.2059 36.9546 29.6157 36.8963 30.0254C36.5463 29.9083 36.0214 29.9083 35.8464 29.6742C35.3797 28.9718 35.0298 28.2109 34.6215 27.45C34.2132 26.6305 33.6299 26.1622 32.6966 26.3378C31.1801 26.6305 29.3719 28.6791 29.2553 30.201C29.022 31.5473 29.7219 32.4253 31.0051 32.4838Z" fill="#251C1C" stroke="#D1D3D4" stroke-width="0.7074" stroke-miterlimit="10"/>
</svg>
