<svg width="179" height="198" viewBox="0 0 179 198" fill="none" xmlns="http://www.w3.org/2000/svg">
<path d="M108.93 143.151C99.7272 148.033 54.5748 165.55 44.7966 168.278C44.7966 168.421 44.7966 168.565 44.9404 168.708C45.228 168.708 45.6594 168.852 45.947 168.708C49.9733 167.56 89.6614 151.909 93.5439 150.761C98.433 149.325 103.035 147.315 107.636 144.874C109.649 143.869 109.649 144.012 110.943 145.592C115.113 150.617 119.571 155.355 125.035 158.945C128.487 161.242 132.225 162.534 135.964 163.97C137.69 164.545 139.703 164.975 141.572 165.262C146.461 165.98 150.775 164.114 154.945 161.817C156.958 160.668 158.972 159.519 160.841 158.083C164.436 155.355 165.874 151.622 165.73 147.171C165.443 137.12 156.383 131.521 149.337 130.516C146.893 130.229 144.304 130.659 141.716 130.803C137.402 130.803 133.663 132.957 129.925 134.536C123.598 137.12 117.127 139.849 110.8 142.433C110.081 142.72 109.793 142.577 109.362 142.002C106.342 137.551 103.178 133.1 100.159 128.793C98.5768 126.495 96.995 124.055 95.4133 121.757C95.2695 121.614 95.1257 121.326 95.1257 121.183C96.995 119.747 98.7206 118.311 100.59 116.875C102.891 114.865 105.191 112.855 107.492 110.701C109.649 108.548 111.662 106.107 113.819 103.81C116.264 101.081 118.708 98.3534 121.297 95.769C125.179 91.7487 129.637 88.5899 134.814 86.2926C137.546 85.1439 137.546 85.1439 138.984 87.5848C141.86 92.1794 144.736 96.774 148.474 100.794C153.22 106.107 159.115 108.548 166.305 108.261C170.332 108.117 173.495 106.107 176.084 102.948C176.371 102.661 176.515 102.23 176.803 101.943C180.254 97.6355 178.528 93.9024 175.365 90.7436C172.776 88.1591 169.613 86.5797 166.305 85.2875C160.266 82.8466 153.939 81.5544 147.468 82.1287C144.736 82.4159 142.004 82.9902 139.271 83.5645C138.409 83.7081 137.977 83.7081 137.69 82.8466C136.395 79.2571 135.245 75.6675 133.951 72.078C133.951 71.9344 133.951 71.6472 133.951 71.3601C135.964 71.2165 137.833 71.0729 139.703 70.9293C142.147 70.6422 144.448 69.9243 146.605 68.632C149.05 67.0526 150.344 64.6117 151.063 61.8837C151.35 60.5915 151.782 59.2992 152.069 57.8634C153.22 53.6995 151.926 49.8228 149.912 46.2333C146.317 39.9157 141.141 35.7518 134.095 33.5981C126.617 31.3008 118.996 29.5778 111.087 28.5727C107.061 27.9984 103.035 27.5677 99.152 26.1319C96.995 25.414 95.2695 24.1217 93.9753 22.3987C93.5439 21.6808 93.2563 20.8193 93.2563 19.9578C93.4001 17.8041 94.5505 16.0811 95.9884 14.6453C99.152 11.7737 102.459 9.18923 106.198 7.17908C109.649 5.02536 113.676 3.87671 117.989 3.1588C123.166 2.29731 128.343 1.43582 133.52 0.861494C136.252 0.574331 138.984 0.861494 141.716 0.861494C142.291 0.861494 142.866 0.717912 143.298 0.717913C143.298 0.574331 143.298 0.430749 143.298 0.287168C141.86 0.143586 140.278 4.17362e-06 138.84 4.11077e-06C132.944 3.85306e-06 127.192 0.861493 121.441 2.01015C116.839 2.72805 112.238 3.44596 107.924 5.31252C104.329 6.89192 101.021 8.6149 98.0016 11.1994C95.9884 12.9224 93.6877 14.5017 92.3935 17.0862C91.3869 18.9528 91.0993 21.5372 93.1125 23.5474C95.1257 25.5575 97.5702 26.8498 100.302 27.4241C103.178 28.142 105.91 28.5728 108.786 29.0035C117.27 30.1521 125.754 31.7315 133.807 34.4596C138.984 36.1826 143.298 39.1978 146.605 43.7924C148.762 46.8076 150.631 50.11 150.631 53.8431C150.631 57.8634 149.769 61.8837 147.468 65.4732C146.317 67.1962 144.736 68.4884 142.723 68.9192C139.703 69.4935 136.683 69.9243 133.663 70.355C132.944 70.4986 132.513 70.0678 132.225 69.3499C130.931 64.3246 129.493 59.4428 128.343 54.4174C127.624 51.5458 126.617 48.9613 124.173 47.2384C121.153 45.0846 118.133 42.9309 114.394 42.0694C109.505 40.9208 105.479 43.2181 102.603 46.3769C100.59 48.5306 100.302 50.9715 100.878 53.9867C101.884 59.2992 105.479 62.458 109.649 65.1861C114.251 68.0577 119.284 69.3499 124.46 70.2114C126.617 70.4986 128.774 70.7858 131.075 71.0729C131.506 71.0729 132.082 71.6472 132.225 72.078C133.663 76.0983 134.957 80.1186 136.252 84.2824C134.814 85.0003 133.232 85.7182 131.65 86.4362C127.48 88.4463 123.741 91.0308 120.722 94.3331C115.832 99.5021 111.087 104.815 106.198 109.984C102.747 113.573 99.152 116.875 95.1257 119.604C94.4067 120.034 93.9753 120.178 93.4001 119.316C90.668 115.296 87.3606 111.707 83.6219 108.691C78.4452 104.527 74.7065 104.671 69.0984 107.255C68.3794 107.543 67.6604 108.117 67.0852 108.835C64.6406 111.563 63.0589 114.722 62.3399 118.311C61.4771 122.906 62.9151 125.203 67.229 127.357C68.8108 128.075 70.8239 128.362 72.5495 128.362C79.4518 128.075 85.635 125.634 91.8183 122.619C93.8315 121.614 93.8315 121.614 94.9819 123.337C98.7206 128.936 102.459 134.536 106.342 140.136C107.205 140.997 108.067 142.002 108.93 143.151ZM110.368 143.725C111.662 143.151 112.669 142.577 113.819 142.146C120.146 139.561 126.473 136.977 132.801 134.392C135.676 133.1 138.696 131.952 141.86 131.808C143.154 131.808 144.592 131.952 145.742 131.664C148.618 131.09 151.207 131.664 153.651 132.813C157.246 134.392 160.41 136.546 162.567 139.992C164.005 142.289 164.58 144.73 164.724 147.315C165.011 151.766 163.429 155.355 159.834 157.796C157.677 159.376 155.377 160.955 152.932 162.104C150.2 163.396 147.324 164.832 144.161 164.688C141.428 164.545 138.696 164.114 136.252 163.396C132.225 162.104 128.199 160.524 124.748 157.94C120.578 154.925 116.983 151.479 113.532 147.602C112.525 146.31 111.519 145.017 110.368 143.725ZM137.977 84.5696C138.552 84.2824 138.984 84.1388 139.271 83.9953C144.736 82.2723 150.344 81.9851 156.096 82.8466C160.841 83.5645 165.299 85.1439 169.325 87.5848C171.626 89.0206 173.783 90.7436 175.652 92.7537C177.234 94.3331 177.809 96.6305 176.946 98.9278C176.659 99.7893 175.94 100.651 175.508 101.369C173.783 104.097 171.338 106.107 168.175 106.968C162.423 108.404 156.958 106.968 152.357 103.379C148.043 100.076 144.736 95.6254 142.004 91.0308C140.709 88.877 139.415 86.8669 137.977 84.5696ZM131.794 70.0678C131.219 70.0678 130.931 70.0678 130.5 70.0678C128.918 69.9243 127.336 69.7807 125.898 69.4935C120.722 68.632 115.689 67.627 111.087 64.8989C106.342 62.0273 102.459 58.4377 101.884 52.5509C101.74 50.8279 101.597 49.1049 103.322 48.0999C103.61 47.9563 103.754 47.3819 104.041 47.0948C104.472 46.5205 104.904 45.8025 105.623 45.3718C106.198 44.9411 107.061 44.6539 107.78 44.2231C108.786 43.7924 109.649 42.9309 110.656 42.9309C112.525 42.9309 114.394 42.9309 116.12 43.6488C118.708 44.6539 121.009 46.0897 123.31 47.5255C125.611 48.9613 127.192 51.1151 127.768 53.9867C128.487 57.1455 129.206 60.1607 129.925 63.3195C130.356 65.3296 131.075 67.627 131.794 70.0678ZM71.5429 127.788C71.5429 127.644 71.5429 127.644 71.5429 127.501C71.1115 127.501 70.8239 127.5 70.3925 127.357C66.0786 126.639 63.2027 123.767 63.2027 119.891C63.2027 113.573 67.5166 107.973 73.4123 106.394C76.0006 105.676 78.4452 106.107 80.6021 107.543C85.635 110.558 89.23 115.009 92.8249 119.604C93.5439 120.465 93.2563 121.039 92.3935 121.326C88.0796 123.049 83.7657 124.916 79.4518 126.352C76.8634 127.213 74.1313 127.357 71.5429 127.788Z" fill="#251C1C"/>
<path d="M6.11511 161.386C2.95158 164.401 1.36981 168.134 0.65082 172.441C0.363225 174.021 0.363225 175.744 0.0756307 177.323C-0.211964 179.19 0.363225 180.913 1.08221 182.636C2.23259 185.651 3.81436 188.379 6.40271 190.245C7.40929 190.963 7.98448 192.399 8.99106 193.261C11.5794 195.271 14.5991 196.563 17.7627 196.85C21.3576 197.281 24.9525 197.137 28.5475 197.137C31.8548 197.137 34.4432 195.414 36.8877 193.404C41.7768 189.671 43.5024 184.646 43.5024 178.615C43.5024 173.877 42.4958 169.57 39.4761 165.98C36.1687 161.816 31.8548 158.801 26.6781 157.078C21.2138 155.212 15.8933 155.642 10.7166 158.083C9.13486 159.088 7.69688 160.38 6.11511 161.386ZM1.6574 181.774C0.938414 180.769 0.938414 180.051 1.94499 179.477C4.53334 177.754 7.26549 176.031 9.85384 174.308C12.586 172.441 14.7429 170.144 16.0371 166.985C17.1875 163.97 18.1941 160.955 19.3445 157.94C19.4883 157.509 19.9196 156.935 20.351 156.935C21.3576 156.791 22.3642 156.935 23.227 157.078C23.8022 157.078 24.2336 157.509 23.946 158.227C23.6584 159.232 23.6584 160.38 23.227 161.386C22.6518 163.683 22.0766 165.98 21.2138 168.134C19.2007 172.872 16.3247 177.036 11.867 179.908C9.27865 181.487 6.54651 182.779 3.81436 184.071C3.09537 184.359 2.52018 184.502 2.08879 183.497C1.8012 182.492 2.37639 182.348 2.95157 182.061C3.38297 181.918 3.67056 181.774 4.10195 181.631C11.867 178.328 17.6189 173.016 20.7824 165.119C21.6452 163.109 22.0766 160.955 22.6518 158.801C22.6518 158.658 22.6518 158.37 22.508 158.227C22.3642 158.227 22.3642 158.083 22.2204 158.083C20.2072 169.857 13.0174 177.467 1.6574 181.774ZM30.1292 159.663C31.8548 159.95 32.2862 160.668 31.8548 162.678C31.2796 165.262 30.5606 167.847 29.8417 170.575C28.6913 174.451 26.9657 178.041 24.8088 181.487C22.0766 185.651 18.3379 188.379 13.5926 189.958C12.4422 190.389 11.148 190.533 9.99764 190.533C8.84726 190.389 7.69688 189.815 6.40271 189.528C21.2138 184.789 29.4103 175.313 30.1292 159.663ZM5.10853 187.948C5.10853 187.805 5.10853 187.661 5.10853 187.374C11.4356 185.22 16.6123 181.487 20.6386 176.174C24.5212 170.862 27.5409 165.119 27.3971 158.227C28.2599 158.658 29.5541 158.514 29.4103 159.806C29.2665 162.247 28.9789 164.544 28.5475 166.985C27.6847 171.58 25.0963 175.169 22.3642 178.759C21.789 179.477 21.2138 180.338 20.351 180.913C17.4751 182.779 14.7429 184.789 11.7232 186.512C10.1414 187.374 8.12827 187.661 6.40271 188.235C6.11511 188.379 5.53992 188.092 5.10853 187.948ZM3.09537 185.22C5.68372 183.928 8.41587 182.636 10.8604 181.2C14.1678 179.333 16.8999 176.749 18.9131 173.59C21.9328 169.139 23.3708 163.97 24.3774 158.658C24.5212 158.227 24.9525 157.509 25.2401 157.509C25.8153 157.509 26.6781 157.652 26.5343 158.658C26.5343 159.232 26.5343 159.95 26.5343 160.524C26.5343 164.114 24.9526 167.129 23.3708 170.144C19.6321 177.897 13.5926 183.354 5.68372 186.369C4.10195 187.23 3.67056 186.943 3.09537 185.22ZM23.6584 196.132C24.3774 194.984 24.5212 193.548 24.0898 192.256C23.3708 190.389 22.6518 188.666 21.9328 186.8C21.6452 186.082 21.9328 185.507 22.508 185.22C22.7956 185.077 23.3708 185.22 23.6584 185.364C26.2467 188.235 27.6847 191.681 28.1161 195.558C28.2599 196.419 27.8285 196.707 26.9657 196.563C25.3839 196.419 23.6584 196.419 22.0766 196.276C21.3576 196.276 20.6386 196.276 20.2072 196.276C20.0634 194.84 20.0634 193.548 19.7758 192.399C19.4883 191.251 18.9131 190.245 18.6255 189.24C18.4817 188.953 18.4817 188.379 18.6255 188.235C19.3445 187.661 20.2072 187.23 21.2138 186.512C22.3642 189.815 24.665 192.543 23.6584 196.132ZM34.1556 194.84C33.868 194.266 33.868 194.122 33.868 193.979C32.43 189.24 30.273 184.789 26.6781 181.2C26.5343 181.056 26.3905 180.482 26.5343 180.195C27.1095 178.759 27.5409 178.759 28.8351 179.477C31.9986 181.2 33.7242 184.071 35.8811 186.656C36.7439 187.661 37.4629 188.81 38.0381 190.102C38.1819 190.533 38.1819 191.394 37.8943 191.681C36.6001 192.686 35.4497 193.691 34.1556 194.84ZM18.9131 157.078C17.6189 161.96 16.1809 166.985 12.7298 170.718C9.42245 174.308 5.39613 177.036 0.794617 178.903C0.794617 178.041 0.794617 177.036 1.36981 176.605C3.67056 174.739 6.25891 173.159 8.55967 171.149C10.5728 169.426 12.1546 167.129 13.5926 164.832C14.8867 162.678 16.3247 160.524 16.8999 158.083C17.0437 157.078 17.6189 156.791 18.9131 157.078ZM23.3708 184.359C23.946 183.641 24.5212 182.923 25.0963 182.205C25.6715 181.487 26.1029 181.487 26.6781 182.061C29.9855 185.507 31.8548 189.671 33.149 194.122C33.2928 194.84 33.149 195.271 32.43 195.414C31.2796 195.702 30.1292 195.989 28.8351 196.276C28.2599 191.681 26.5343 187.661 23.3708 184.359ZM40.7702 187.23C40.6264 187.23 40.4826 187.087 40.4826 187.087C40.3389 186.943 40.3389 186.8 40.1951 186.656C37.7505 181.918 34.4432 178.185 29.5541 175.744C28.8351 175.457 28.9789 175.026 29.2665 174.451C29.5541 173.734 29.8417 173.016 30.8482 173.446C32.1424 174.021 33.5804 174.595 34.587 175.6C36.7439 177.61 38.7571 179.908 40.6264 182.061C42.352 183.928 42.352 184.789 40.7702 187.23ZM39.1885 190.245C37.1753 187.661 35.0184 185.077 33.149 182.492C31.8548 180.769 30.273 179.477 28.5475 178.472C28.2599 178.328 27.8285 177.897 27.9723 177.754C28.1161 177.323 28.4037 176.605 28.8351 176.462C29.4103 176.318 29.9855 176.605 30.5606 176.892C34.8746 179.477 38.0381 182.923 40.0513 187.517C40.6264 188.81 40.0513 189.528 39.1885 190.245ZM42.352 183.21C39.0447 178.472 35.5935 174.308 29.9855 172.298C30.1292 171.58 30.4168 171.006 30.5606 170.288C30.8482 169.57 31.2796 169.426 31.8548 169.857C35.5935 172.011 39.0447 174.595 41.633 178.041C43.071 179.764 42.7834 181.343 42.352 183.21ZM11.867 166.555C11.4356 167.129 11.0042 167.56 10.5728 167.99C9.85384 168.995 9.27865 169.426 8.12828 168.421C7.40929 167.847 6.40271 167.703 5.53993 167.272C4.82094 166.985 4.10195 166.698 2.80778 166.267C4.38955 164.544 5.68372 163.109 6.9779 161.673C7.1217 161.386 7.69688 161.386 7.98448 161.386C9.27865 161.673 10.5728 161.96 11.7232 162.534C12.4422 162.821 13.4488 162.965 12.7298 164.257C11.867 165.693 11.7232 165.693 10.2852 165.262C9.13486 164.832 7.84068 164.544 6.54651 164.257C6.11511 164.114 5.68372 164.544 5.25233 164.688C5.25233 164.832 5.25233 164.975 5.39613 165.119C7.84068 164.688 9.71004 165.549 11.867 166.555ZM42.6396 177.754C42.4958 177.754 42.352 177.897 42.352 177.897C41.9206 177.467 41.633 176.892 41.2016 176.462C38.6133 173.59 35.5935 171.149 32.1424 169.426C31.1358 168.995 31.1358 168.277 31.5672 167.416C31.9986 166.411 32.5738 167.129 33.149 167.272C36.3125 168.565 38.7571 170.862 41.3454 173.016C42.7834 174.451 42.7834 176.174 42.6396 177.754ZM15.1743 190.676C15.4619 191.825 15.8933 192.974 16.0371 194.266C16.1809 195.127 15.4619 195.414 14.7429 195.414C14.024 195.414 13.7364 194.984 13.8802 194.266C14.024 193.835 14.024 193.404 14.024 192.974C14.024 192.112 13.5926 191.107 14.024 190.533C14.4554 189.958 15.6057 189.815 16.3247 189.384C16.6123 189.24 16.7561 189.097 17.0437 189.097C17.3313 189.097 18.0503 189.24 18.0503 189.384C18.6255 190.963 19.2007 192.686 19.6321 194.266C19.7758 194.984 19.7758 195.989 18.7693 195.989C17.0437 196.132 16.6123 195.702 16.6123 194.266C16.4685 193.117 16.3247 191.681 15.1743 190.676ZM6.40271 171.867C5.25233 173.303 5.25233 173.303 4.24575 172.441C3.95816 172.298 3.67056 172.011 3.38297 171.867C1.5136 170.718 1.5136 170.718 2.37639 168.708C2.52018 168.565 2.52018 168.277 2.66398 168.134C2.95158 167.416 3.38297 166.985 4.24575 167.416C5.25233 167.847 6.40271 168.134 7.40929 168.708C7.98448 168.995 8.41587 169.57 8.84726 170C8.41587 170.431 7.98448 170.862 7.55309 171.293C6.9779 171.867 6.54651 171.58 5.97132 171.149C5.10853 170.431 4.10195 169.713 2.52018 169.713C4.10195 170.575 5.25233 171.149 6.40271 171.867ZM41.9206 172.298C39.0447 170.431 36.1687 168.565 33.2928 166.842C31.711 165.98 31.5672 165.837 32.7176 164.114C33.149 164.257 33.4366 164.401 33.868 164.544C36.4563 165.549 37.7505 168.421 40.6264 168.995C40.6264 168.995 40.7702 169.139 40.7702 169.283C41.2016 170.288 41.633 171.293 41.9206 172.298ZM8.70346 160.668C10.1414 159.088 12.1546 158.658 14.1678 159.519C14.5992 159.663 15.0305 160.38 15.0305 160.668C14.7429 161.386 14.1678 162.103 13.7364 162.821C13.7364 162.821 13.4488 162.821 13.305 162.678C11.7232 162.103 10.1414 161.386 8.70346 160.668ZM7.98448 191.251C9.27865 191.107 10.429 190.963 11.7232 190.82C12.1546 190.82 13.0174 190.82 13.0174 191.107C13.4488 192.256 13.8802 193.404 13.1612 194.553C10.1414 193.548 8.84726 192.686 7.98448 191.251ZM40.0513 168.134C39.9075 168.277 39.9075 168.277 39.7637 168.421C39.3323 168.134 39.0447 167.703 38.6133 167.416C37.0315 166.267 35.4497 164.975 33.7242 163.97C32.2862 163.109 32.1424 162.678 32.5738 160.668C35.5935 162.821 38.0381 165.262 40.0513 168.134ZM1.5136 171.293C2.80778 172.154 3.67056 172.872 4.82094 173.59C3.52676 174.595 2.37639 175.313 1.36981 176.174C1.22601 176.031 1.08221 176.031 0.938414 175.887C1.08221 174.451 1.22601 173.159 1.5136 171.293ZM12.586 158.227C14.024 157.796 15.1743 157.509 16.6123 157.222C16.1809 158.227 15.8933 158.945 15.7495 159.663C14.5992 159.088 13.7364 158.801 12.586 158.227Z" fill="#251C1C"/>
</svg>
