<svg width="303" height="241" viewBox="0 0 303 241" fill="none" xmlns="http://www.w3.org/2000/svg">
<path d="M255.52 232.798C249.909 232.05 244.422 233.983 238.873 233.609C238.873 233.235 238.749 232.798 238.437 232.362C237.502 231.178 235.444 230.803 233.512 230.741C233.574 229.931 233.699 229.12 233.886 228.372C234.946 228.559 236.13 228.684 237.065 227.998C237.876 227.437 238.25 226.439 237.814 225.504C237.003 223.696 234.946 224.32 233.761 225.504C233.574 224.881 233.138 224.382 232.514 224.008C231.704 223.509 230.457 223.384 229.771 224.07C229.085 224.694 229.148 225.816 229.646 226.502C230.395 227.499 231.641 227.749 232.826 227.499C232.639 228.06 232.701 228.621 232.701 229.182C232.639 229.681 232.514 230.242 232.452 230.741C231.704 230.741 230.956 230.803 230.395 230.866C229.085 230.99 227.776 231.24 226.467 231.614C226.654 230.99 226.654 230.367 226.467 229.744C226.467 229.369 226.342 228.995 226.217 228.684C225.656 227.561 223.599 227 222.539 227.686C220.669 228.933 221.167 231.739 222.664 233.11C221.791 233.547 220.793 233.983 219.921 234.232C219.609 234.295 219.235 234.357 218.923 234.482C218.611 234.544 218.362 234.482 218.175 234.419C218.175 234.419 218.175 234.419 218.113 234.419C218.113 234.357 218.113 234.357 218.05 234.295C217.926 234.108 217.801 233.983 217.614 233.858C217.489 233.734 217.302 233.671 217.177 233.671C216.492 233.484 215.681 233.734 215.432 234.544C215.182 235.292 215.556 235.978 216.18 236.227C216.492 236.602 217.053 236.851 217.551 236.976C217.614 236.976 217.614 236.976 217.676 236.976C220.606 238.659 227.402 237.973 229.272 237.911C231.018 237.848 239.31 238.16 238.312 234.606C238.375 234.544 238.375 234.544 238.437 234.482C244.11 234.669 249.784 232.798 255.457 233.11C255.769 233.173 255.769 232.861 255.52 232.798ZM235.195 225.629C236.878 226.315 237.19 226.813 236.193 227.187C235.507 227.624 234.634 227.437 233.886 227.312C233.886 227.25 233.886 227.25 233.886 227.187C234.073 226.502 234.509 225.941 235.195 225.629ZM231.641 226.813C230.332 226.502 230.145 225.816 231.08 224.631C232.327 224.382 232.764 225.941 232.826 226.938C232.452 226.938 232.016 226.876 231.641 226.813Z" class="fill-black"/>
<path d="M216.992 239.158C212.44 239.22 207.827 239.407 203.276 239.594C202.964 239.594 202.964 240.031 203.276 240.031C207.827 239.906 212.44 239.844 216.992 239.656C217.303 239.594 217.303 239.158 216.992 239.158Z" class="fill-black"/>
<path d="M237.69 240.28C235.508 240.093 233.326 240.342 231.144 240.342C230.832 240.342 230.832 240.841 231.144 240.841C233.326 240.841 235.508 241.153 237.69 240.903C238.126 240.841 238.126 240.28 237.69 240.28Z" class="fill-black"/>
<path d="M268.551 234.856C264.623 234.794 260.571 235.293 256.643 235.542C256.082 235.604 256.02 236.415 256.643 236.477C260.633 236.602 264.81 236.602 268.738 235.854C269.237 235.729 269.05 234.856 268.551 234.856Z" class="fill-black"/>
<path d="M192.303 229.494C188.749 229.432 185.133 229.494 181.58 229.307C181.206 229.307 181.206 229.868 181.58 229.93C185.133 230.117 188.749 230.304 192.303 230.18C192.74 230.18 192.74 229.494 192.303 229.494Z" class="fill-black"/>
<path d="M35.6924 217.337C31.1412 217.4 26.5277 217.587 21.9765 217.774C21.6647 217.774 21.6647 218.21 21.9765 218.21C26.5277 218.085 31.1412 218.023 35.6924 217.836C36.0041 217.836 36.0041 217.337 35.6924 217.337Z" class="fill-black"/>
<path d="M116.615 217.773C112.064 217.836 107.451 218.023 102.899 218.21C102.588 218.21 102.588 218.646 102.899 218.646C107.451 218.521 112.064 218.459 116.615 218.272C116.927 218.272 116.927 217.773 116.615 217.773Z" class="fill-black"/>
<path d="M11.0039 207.736C7.45023 207.674 3.83422 207.736 0.280552 207.549C-0.0935175 207.549 -0.0935175 208.11 0.280552 208.172C3.83422 208.359 7.45023 208.546 11.0039 208.422C11.4403 208.359 11.4403 207.736 11.0039 207.736Z" class="fill-black"/>
<path d="M292.242 223.509C288.813 223.447 285.322 223.447 281.893 223.447C281.332 223.447 281.332 224.319 281.893 224.319C285.322 224.319 288.813 224.319 292.242 224.257C292.741 224.257 292.741 223.509 292.242 223.509Z" class="fill-black"/>
<path d="M299.473 32.8584C298.663 28.3696 293.613 29.0554 290.184 29.0554C286.069 29.0554 281.954 29.3048 277.902 29.6788C275.595 29.9282 273.288 30.1776 270.982 30.5517C269.298 30.801 267.553 31.2998 266.306 32.5467C265.994 32.8584 265.745 33.1702 265.558 33.5442C264.872 33.7936 264.311 34.3547 264.248 35.2899C263.189 54.4298 262.503 73.5074 262.066 92.6473C261.942 98.0713 261.879 103.433 261.817 108.857C261.817 109.979 262.69 110.665 263.75 110.79C274.348 112.161 285.072 112.348 295.733 111.413C296.793 111.288 297.603 110.603 297.665 109.48C298.663 92.3355 299.286 75.253 299.536 58.1081C299.598 53.744 299.598 49.3798 299.598 44.9534C299.598 42.9583 299.598 40.9633 299.598 38.9059C299.66 36.9732 299.847 34.8535 299.473 32.8584ZM271.356 34.3547C271.293 34.4794 271.169 34.6664 271.169 34.8535C271.169 34.8535 271.106 34.8535 271.106 34.7911C271.106 34.6041 271.106 34.4794 271.106 34.3547C271.169 34.4171 271.293 34.3547 271.356 34.3547ZM276.53 108.046C276.53 107.922 276.593 107.859 276.593 107.735C276.842 107.797 277.092 107.797 277.279 107.797C277.777 107.984 278.338 107.922 278.837 107.735C278.962 107.922 279.149 108.046 279.336 108.171C278.401 108.109 277.466 108.109 276.53 108.046ZM281.456 108.171C281.58 108.109 281.643 107.984 281.767 107.922C281.767 108.046 281.83 108.109 281.892 108.171C281.767 108.171 281.643 108.171 281.456 108.171ZM281.892 70.0784C281.954 69.2679 281.954 68.3951 282.017 67.5846C282.079 68.3951 282.079 69.2056 282.141 69.9537C282.079 70.016 282.017 70.0784 281.892 70.0784ZM282.079 33.4819C282.079 33.3572 282.079 33.2948 282.079 33.1702C282.329 33.1702 282.64 33.1078 282.89 33.1078C282.578 33.2325 282.329 33.3572 282.079 33.4819ZM284.448 33.4819C284.137 33.2948 283.825 33.1702 283.451 33.1702C283.825 33.1702 284.137 33.1078 284.511 33.1078C284.448 33.2325 284.448 33.3572 284.448 33.4819ZM288.127 93.7071H288.064C288.127 93.146 288.127 92.5849 288.189 92.0238C288.189 92.3355 288.189 92.6473 288.189 93.0213C288.127 93.2707 288.127 93.4577 288.127 93.7071ZM290.683 64.405C290.62 63.7192 290.558 63.0957 290.496 62.4099C290.62 62.2853 290.745 62.0982 290.87 61.9112C290.807 62.7217 290.745 63.5945 290.683 64.405ZM291.119 33.6689C290.932 34.8535 290.807 36.038 290.62 37.1602C290.558 36.4744 290.558 35.7263 290.496 35.0405C290.433 33.6689 289.373 33.1078 288.438 33.1702C288.438 33.1078 288.438 32.9831 288.438 32.9208C289.062 32.9208 289.623 32.9208 290.246 32.9208C290.62 32.9208 291.057 32.9208 291.431 32.9208C291.244 33.1078 291.182 33.3572 291.119 33.6689ZM295.109 83.2955C295.109 83.919 295.047 84.5424 295.047 85.1659C295.047 84.0437 294.985 82.9838 294.922 81.8616L295.795 51.936C295.733 62.3476 295.483 72.8216 295.109 83.2955Z" fill="#39B100"/>
<path d="M248.538 132.797C241.057 132.797 233.575 132.797 226.094 132.797C221.73 132.797 217.365 132.859 213.001 132.797C205.52 132.672 198.039 132.548 190.619 132.236C184.073 131.987 177.527 131.363 170.981 131.238C164.123 131.114 157.265 131.426 150.407 131.55C149.285 131.55 149.035 131.114 148.911 130.116C148.163 124.131 149.16 118.146 148.911 112.223C148.786 109.355 148.848 106.488 148.848 103.62C148.786 99.5672 148.724 95.5772 148.724 91.5247C148.724 86.7865 148.724 82.1106 148.724 77.3724C148.724 73.5694 148.786 69.7663 148.661 66.0256C148.599 63.7812 148.163 61.5991 148.038 59.3547C147.913 57.2973 147.913 55.1776 147.788 53.1202C147.601 49.8783 147.414 46.6364 147.227 43.3944C147.165 42.2099 146.978 41.0253 146.853 39.8408C146.729 38.0327 146.479 36.2247 146.479 34.4167C146.479 32.7958 147.165 32.3594 148.724 32.5464C149.971 32.6711 151.155 32.6711 152.402 32.6087C154.833 32.5464 157.265 32.4217 159.634 32.297C166.804 31.9853 173.973 31.6736 181.205 31.3618C183.325 31.2995 185.445 31.4865 187.502 31.3618C188.25 31.2995 188.999 30.8631 189.622 30.4267C190.931 29.5538 192.116 28.5563 193.363 27.6835C200.158 22.9453 206.954 18.207 213.749 13.4688C215.745 12.0972 217.677 10.601 219.735 9.35406C220.296 8.97999 221.418 8.97999 221.979 9.29172C224.223 10.5386 226.468 11.9726 228.588 13.4065C231.393 15.2768 234.136 17.2719 236.942 19.2046C240.059 21.3866 243.114 23.6311 246.169 25.8131C248.039 27.1847 249.91 28.5563 251.842 29.8032C252.279 30.1149 252.964 30.1773 253.526 30.1773C258.201 30.1149 262.877 29.9902 267.553 29.9902C274.162 29.9902 280.77 30.1149 287.317 30.2396C290.558 30.302 293.8 30.3643 297.042 30.302C298.476 30.302 299.411 30.8007 299.661 32.1723C300.035 33.9803 300.409 35.8507 300.409 37.721C300.409 43.145 300.16 48.6314 300.035 54.0554C299.973 57.235 300.035 60.4769 300.097 63.6565C300.347 73.5694 300.596 83.4199 300.97 93.3327C301.344 102.435 301.905 111.537 302.404 120.64C302.529 123.383 302.84 126.126 302.965 128.869C303.027 130.989 302.591 131.426 300.471 131.55C293.8 131.987 287.13 132.548 280.459 132.735C274.349 132.922 268.177 132.735 262.067 132.672C257.578 132.797 253.027 132.797 248.538 132.797ZM150.781 129.493C151.155 129.555 151.28 129.618 151.404 129.618C158.449 129.555 165.494 129.43 172.539 129.555C177.714 129.68 182.889 130.241 188.063 130.428C196.418 130.74 204.709 130.989 213.064 131.114C223.351 131.238 233.575 131.114 243.862 131.176C250.845 131.176 257.765 131.301 264.748 131.301C272.104 131.301 279.399 131.301 286.755 131.114C290.87 130.989 294.985 130.553 299.1 130.179C301.344 129.992 301.469 129.805 301.407 127.56C301.282 124.006 300.97 120.515 300.845 116.961C300.658 112.597 300.658 108.233 300.409 103.931C300.16 99.8166 299.661 95.7018 299.474 91.5871C299.162 83.3575 298.85 75.0657 298.788 66.8361C298.726 57.6714 299.037 48.5067 299.1 39.342C299.1 37.534 298.913 35.6636 298.601 33.8556C298.352 32.2347 297.728 31.8606 296.107 31.9853C295.234 32.0476 294.362 32.2347 293.489 32.1723C289.249 32.0476 285.01 31.7359 280.708 31.6736C277.902 31.6112 275.035 31.9229 272.167 31.9229C269.174 31.8606 266.119 31.4242 263.127 31.4865C249.535 31.6736 236.007 31.9229 222.415 32.1723C209.697 32.4217 197.041 32.7334 184.323 33.0452C182.515 33.1075 180.644 33.1075 178.836 33.1698C170.607 33.5439 162.377 33.918 154.148 34.2297C152.651 34.2921 151.155 34.3544 149.596 34.4167C148.537 34.4791 148.038 34.8532 148.163 36.1624C148.661 40.8383 149.035 45.5765 149.409 50.2524C149.596 52.6215 149.472 54.9906 149.596 57.3597C149.846 61.8485 150.407 66.275 150.469 70.7639C150.594 77.9959 150.469 85.2279 150.469 92.4599C150.469 98.445 150.532 104.492 150.594 110.478C150.594 113.533 150.719 116.587 150.719 119.705C150.781 123.009 150.781 126.189 150.781 129.493ZM248.85 30.302C248.912 30.1773 248.912 30.0526 248.974 29.9279C248.787 29.7409 248.663 29.4915 248.413 29.3668C246.418 27.9329 244.361 26.5613 242.366 25.1273C237.815 21.8854 233.263 18.6435 228.65 15.4639C226.717 14.0923 224.66 12.8454 222.602 11.6608C221.293 10.9127 219.984 10.8503 218.612 11.8479C214.56 14.7781 210.445 17.5213 206.33 20.3891C202.029 23.444 197.727 26.5613 193.425 29.6785C192.926 30.0526 192.552 30.489 191.866 31.1125C211.131 30.8631 230.021 30.5514 248.85 30.302Z" class="fill-black"/>
<path d="M295.421 39.2801C295.047 48.1331 294.673 56.9238 294.361 65.7768C294.237 68.7693 294.237 71.7619 294.299 74.6921C294.424 81.6747 294.548 88.595 294.798 95.5777C294.985 99.7548 295.546 103.994 295.733 108.171C295.982 113.782 296.045 119.456 296.169 125.067C296.169 126.127 295.733 126.563 294.673 126.438C288.688 125.753 282.765 126.501 276.842 126.875C271.979 127.187 267.054 127.187 262.129 127.311C252.84 127.561 243.55 127.997 234.198 127.935C225.844 127.935 217.552 127.311 209.198 127.062C204.335 126.937 199.472 127.187 194.609 127.124C189.123 127.062 183.637 126.688 178.15 126.75C171.542 126.812 164.871 127.062 158.262 127.311C157.389 127.311 156.579 127.685 155.706 127.748C155.145 127.81 154.397 127.81 154.085 127.498C153.711 127.062 153.586 126.314 153.524 125.628C153.337 121.825 153.275 118.022 153.15 114.219C153.088 113.097 153.025 112.037 152.901 110.915C152.838 109.792 152.713 108.67 152.651 107.548C152.589 106.737 152.589 105.927 152.589 105.116C152.589 104.742 152.713 104.368 152.713 104.057C152.776 99.5054 152.901 94.9542 152.963 90.403C152.963 85.2284 153.025 80.1161 152.901 74.9415C152.776 69.5798 152.402 64.1558 152.277 58.7941C152.215 56.1133 152.402 53.4324 152.464 50.7516C152.526 47.8837 152.464 45.0159 152.464 42.148C152.464 41.0881 152.339 40.0283 152.589 39.0308C152.713 38.532 153.462 37.9085 153.96 37.8462C155.706 37.6592 157.452 37.7839 159.135 37.7215C162.751 37.5968 166.429 37.4721 170.045 37.3474C171.978 37.2851 173.973 37.3474 175.906 37.2227C182.078 36.724 188.188 36.1629 194.36 35.6641C197.041 35.4771 199.784 35.5394 202.465 35.5394C206.081 35.4771 209.697 35.2901 213.313 35.4147C222.727 35.7265 232.079 36.2876 241.493 36.4746C248.849 36.5993 256.269 36.2876 263.625 36.2252C267.74 36.2252 271.855 36.4746 275.97 36.3499C280.458 36.2252 284.947 35.8512 289.436 35.6018C291.057 35.5394 292.74 35.6018 294.361 35.7888C294.735 35.8512 295.172 36.5993 295.296 37.0357C295.421 37.7215 295.234 38.4696 295.234 39.2178C295.296 39.2801 295.359 39.2801 295.421 39.2801ZM293.613 51.3127C293.551 51.3127 293.551 51.3127 293.488 51.3127C293.488 50.6893 293.488 50.0035 293.488 49.38C293.551 45.8887 293.676 42.3974 293.676 38.9061C293.676 38.345 293.177 37.4721 292.803 37.3474C291.68 37.0357 290.434 36.9734 289.249 37.0357C284.448 37.2851 279.648 37.6592 274.847 37.7839C270.67 37.9085 266.431 37.5345 262.191 37.5968C256.393 37.5968 250.533 37.9709 244.735 37.8462C234.572 37.6592 224.41 37.2851 214.248 37.0357C204.834 36.7863 195.482 37.1604 186.13 38.0332C178.524 38.719 170.856 39.0308 163.25 39.4048C161.005 39.5295 158.761 39.4672 156.517 39.5919C154.272 39.7789 154.085 40.0906 154.085 42.3974C154.085 44.9535 154.147 47.5097 154.21 50.0658C154.272 53.9935 154.397 57.9213 154.459 61.849C154.521 66.2132 154.459 70.515 154.521 74.8791C154.584 79.6797 154.646 84.4802 154.709 89.3432C154.771 92.211 154.771 95.1412 154.771 98.0091C154.771 101.189 154.521 104.306 154.646 107.486C154.771 110.478 155.27 113.471 155.519 116.463C155.706 119.082 155.831 121.7 155.893 124.319C155.893 125.192 156.267 125.566 157.14 125.566C158.262 125.566 159.322 125.566 160.444 125.566C167.801 125.379 175.158 125.067 182.577 125.067C188.687 125.067 194.734 125.379 200.844 125.566C209.821 125.815 218.799 126.251 227.777 126.251C239.435 126.251 251.156 126.002 262.815 125.69C272.915 125.441 282.952 125.004 293.052 124.693C294.174 124.63 294.486 124.319 294.486 123.259C294.237 115.84 293.987 108.421 293.738 101.002C293.426 90.3407 292.99 79.742 292.927 69.081C292.803 63.2206 293.364 57.2355 293.613 51.3127Z" class="fill-black"/>
<path d="M174.41 63.4075C172.539 63.2204 170.669 63.3451 168.799 63.3451C168.051 63.3451 166.928 63.5945 166.243 63.3451C164.809 62.9087 165.183 64.1556 165.183 62.2229C165.183 58.1705 165.495 54.0557 165.307 50.0033C165.245 49.2552 164.31 49.3175 164.185 50.0033C163.811 52.9335 163.749 55.9261 163.562 58.9186C163.499 60.4149 162.689 63.0958 163.562 64.4674C164.123 65.4025 165.245 65.2778 166.243 65.2778C168.923 65.3402 171.729 65.4649 174.41 65.1531C175.47 65.0285 175.532 63.5322 174.41 63.4075Z" class="fill-black"/>
<path d="M183.574 56.9859C183.2 56.4871 182.639 55.1779 182.327 54.7414C182.265 54.6168 182.14 54.4921 182.078 54.3674C182.514 53.8686 182.015 52.8088 181.143 52.9334H181.08C180.893 52.6841 180.706 52.4347 180.519 52.1853C179.584 51.0007 177.838 48.2576 176.155 48.2576C174.596 48.3199 174.472 50.1903 174.16 51.3748C173.412 53.9933 172.664 56.6118 172.04 59.2926C171.791 60.2901 173.225 60.6642 173.599 59.729C174.16 58.1081 174.596 56.4871 175.095 54.8038C176.779 54.9285 178.587 54.9908 180.27 54.8038C180.582 55.3026 180.893 55.739 181.205 56.2377C181.704 57.0482 182.078 58.6068 183.138 58.7939C183.574 58.8562 184.135 58.6692 184.198 58.1704C184.198 58.1081 184.198 58.0457 184.198 58.0457C184.26 57.4846 184.073 57.1106 183.574 56.9859ZM175.345 53.7439C175.594 52.8711 175.719 51.4995 176.217 50.7514C176.28 49.7539 176.529 49.7538 176.841 50.689C177.09 50.9384 177.34 51.1878 177.589 51.4995C178.088 52.0606 178.587 52.6841 179.085 53.2452C177.838 53.4945 176.591 53.6816 175.345 53.7439Z" class="fill-black"/>
<path d="M206.08 60.4778C203.399 60.6648 200.843 61.2883 198.1 61.4753C197.664 57.8593 197.726 54.2433 197.726 50.5649C197.726 49.6297 196.417 49.6921 196.355 50.5649C195.918 54.4927 196.167 58.4827 196.417 62.4105C196.479 62.9716 196.791 63.2833 197.352 63.3456C200.22 63.6574 203.961 63.4703 206.517 61.9741C207.14 61.6 206.891 60.4154 206.08 60.4778Z" class="fill-black"/>
<path d="M209.198 56.425C208.886 54.7417 208.574 53.0584 208.2 51.3751C208.076 50.6893 207.016 50.8763 207.016 51.5621C207.078 53.2454 207.265 54.8664 207.514 56.5497C207.764 58.1707 207.764 59.9787 208.637 61.4126C209.011 62.0361 209.821 61.7244 209.946 61.0386C210.133 59.4799 209.51 57.859 209.198 56.425Z" class="fill-black"/>
<path d="M221.231 49.38C221.044 48.3201 219.236 48.5071 219.298 49.6293C219.548 53.1207 219.672 56.4873 219.485 59.9786C218.426 58.6694 217.74 56.8614 216.805 55.5521C215.682 53.8688 214.373 52.3725 213.064 50.8762C212.503 50.2528 211.381 50.8762 211.63 51.6867C212.69 54.804 213.438 58.2329 213.438 61.5372C213.438 62.1607 214.436 62.1607 214.436 61.5372C214.498 59.1681 214.435 56.986 214.061 54.804C214.934 55.9885 215.807 57.2354 216.493 58.5447C217.428 60.228 218.176 61.7866 219.735 62.9088C220.234 63.2205 221.106 62.9088 221.169 62.3477C221.855 58.1083 221.979 53.6194 221.231 49.38Z" class="fill-black"/>
<path d="M231.891 57.1733C231.828 56.7369 231.205 56.5499 230.831 56.7369C229.709 57.3604 229.272 58.6696 227.776 58.5449C226.03 58.4202 224.846 56.4252 224.846 54.8042C224.721 51.687 228.275 50.0037 230.27 52.6221C230.644 53.1209 231.579 52.8715 231.392 52.1857C230.831 50.253 228.586 49.4426 226.716 49.8166C224.409 50.3154 223.1 52.5598 223.1 54.8042C223.162 57.1733 224.721 59.6671 227.09 60.2282C228.96 60.727 232.202 59.4801 231.891 57.1733Z" class="fill-black"/>
<path d="M233.699 55.2402C233.699 54.6167 233.138 54.305 232.577 54.4297C230.956 54.6791 229.273 54.8038 227.652 54.9284C227.028 54.9908 227.028 55.926 227.652 55.926C229.085 55.926 230.519 55.9883 231.953 56.0507C231.891 57.921 231.953 59.729 231.953 61.5994C231.953 62.7839 233.824 62.7839 233.824 61.5994C233.761 59.4796 233.699 57.3599 233.699 55.2402Z" class="fill-black"/>
<path d="M243.238 50.6893C242.989 49.4424 241.119 49.9412 241.306 51.1881C241.617 52.8714 241.617 54.5547 241.306 56.238C241.056 57.4849 240.183 60.6645 238.251 58.4201C236.567 56.4874 236.692 52.8714 236.942 50.5023C237.004 50.0035 236.318 50.0035 236.131 50.3776C235.258 52.622 235.258 55.0535 236.006 57.3602C236.505 58.9188 237.378 60.9762 239.248 61.1633C243.862 61.7867 243.675 53.3078 243.238 50.6893Z" class="fill-black"/>
<path d="M251.718 48.6317C251.344 47.8835 250.284 48.1329 250.035 48.881C248.913 52.3724 247.603 55.8637 246.731 59.4797C246.481 60.4772 247.853 60.7266 248.165 59.8538C248.663 58.6692 249.1 57.4846 249.474 56.3001C250.596 56.3624 251.718 56.4248 252.84 56.3001C253.339 57.7964 253.713 59.2926 254.461 60.6642C254.835 61.35 256.02 61.0383 255.958 60.2278C255.646 56.3624 253.401 52.1853 251.718 48.6317ZM251.406 55.1779C250.908 55.3026 250.347 55.3026 249.848 55.2402C250.284 54.0557 250.658 52.8088 251.032 51.6242C251.469 52.6841 251.968 53.8063 252.342 54.9285C252.092 55.0532 251.781 55.1155 251.406 55.1779Z" class="fill-black"/>
<path d="M185.008 87.161C183.574 87.348 182.14 87.5351 180.643 87.6598C180.456 86.5376 179.958 85.4153 179.708 84.2308C179.521 83.2333 179.396 82.2357 179.272 81.2382C180.768 81.3629 182.264 81.4876 183.449 80.4901C183.761 80.2407 183.823 79.6796 183.574 79.3679C183.511 79.2432 183.449 79.1808 183.387 79.0562C183.137 78.7444 182.701 78.6821 182.451 78.9315C181.641 79.6796 180.269 79.6796 179.022 79.6173C178.898 79.1808 178.337 79.1808 178.15 79.5549C177.838 79.5549 177.464 79.4926 177.214 79.4926C175.219 79.4302 173.224 79.2432 171.229 79.3679C170.731 79.3679 170.668 80.0537 171.105 80.1784C173.287 80.8018 175.593 80.9889 177.9 81.1135C177.838 82.1111 177.963 83.1709 178.087 84.1684C178.212 85.2907 178.399 86.6622 178.898 87.7845C177.277 87.9715 175.593 88.0962 174.035 88.0962C173.474 88.0962 173.474 88.969 174.035 88.969C177.776 89.156 181.267 89.3431 185.008 88.969C186.254 89.0314 186.254 87.0363 185.008 87.161Z" class="fill-black"/>
<path d="M193.799 78.3079C192.49 78.1208 191.243 78.3702 189.934 78.4325C188.5 78.4949 187.066 78.4949 185.632 78.5572C184.759 78.6196 184.822 79.7418 185.632 79.8665C186.505 79.9912 187.44 80.1159 188.438 80.1782C188.5 81.4251 188.625 82.7343 188.749 83.9812C188.874 85.2905 188.812 86.5997 189.31 87.7843C189.56 88.3454 190.495 88.1584 190.557 87.5973C190.807 86.288 190.433 85.0411 190.246 83.7319C190.059 82.5473 189.872 81.3628 189.684 80.1782C191.118 80.2406 192.552 80.1782 193.737 79.8041C194.485 79.6794 194.61 78.4325 193.799 78.3079Z" class="fill-black"/>
<path d="M206.082 86.3501C205.77 84.8538 204.772 83.4822 204.024 82.1107C203.962 81.986 203.9 81.8613 203.775 81.6742C203.775 81.4249 203.65 81.1755 203.463 81.0508C202.84 79.8662 202.154 78.6817 201.53 77.4971C201.219 76.8737 200.221 76.8737 199.847 77.4971C198.289 80.4273 196.73 83.3576 195.296 86.3501C194.86 87.2853 196.106 88.0334 196.668 87.1606C197.478 85.789 198.289 84.4174 199.037 83.0458C200.097 82.9835 201.156 82.9835 202.216 82.7965C202.279 82.8588 202.341 82.9835 202.341 83.0458C203.089 84.4174 203.713 85.976 204.835 87.0359C205.334 87.6594 206.206 87.0983 206.082 86.3501ZM199.785 81.6742C200.097 81.1131 200.346 80.6144 200.658 80.0533C200.845 80.4273 201.094 80.8014 201.281 81.2378C200.782 81.3625 200.284 81.4872 199.785 81.6742Z" class="fill-black"/>
<path d="M217.053 84.6668C215.93 84.9162 214.746 85.1032 213.624 85.3526C213 85.4773 212.252 85.7267 211.566 85.789C210.444 85.9137 210.506 85.6643 210.319 84.6668C209.821 82.1107 209.322 79.5545 208.698 76.9984C208.574 76.562 207.826 76.6243 207.888 77.1231C208.075 79.1181 208.262 81.0508 208.511 83.0459C208.636 84.1681 208.511 86.2254 209.197 87.223C209.883 88.1581 211.13 87.8464 212.065 87.6594C213.873 87.3477 215.743 86.9736 217.551 86.5995C218.861 86.3501 218.3 84.4174 217.053 84.6668Z" class="fill-black"/>
<path d="M221.73 81.2381C221.543 79.7419 221.606 78.2456 221.73 76.7493C221.793 76.1882 220.92 76.0635 220.733 76.6246C219.922 79.4301 219.673 83.3579 221.232 85.9764C221.606 86.5998 222.728 86.3504 222.666 85.6023C222.478 84.106 221.917 82.7344 221.73 81.2381Z" class="fill-black"/>
<path d="M221.791 72.3853C221.729 72.1359 221.729 72.0735 221.791 72.2606C221.853 71.5124 220.918 71.1383 220.357 71.5748C220.045 71.8241 219.983 72.2606 220.108 72.5723C219.609 72.7593 219.609 73.5698 220.17 73.7568C220.606 73.8815 221.043 73.7568 221.354 73.4451C221.479 73.3204 221.542 73.1957 221.666 73.0087C221.729 72.884 221.791 72.697 221.791 72.5099C221.791 72.4476 221.791 72.4476 221.791 72.3853Z" class="fill-black"/>
<path d="M231.955 80.0539C231.02 78.2459 229.836 76.6249 228.526 75.1286C228.09 74.6298 227.155 74.8792 227.03 75.5027C226.656 77.4354 226.344 79.3057 226.032 81.2384C225.783 82.7347 225.409 84.231 225.721 85.7273C225.783 86.039 226.22 86.039 226.344 85.7896C226.968 84.7921 227.217 83.6699 227.466 82.5477C227.716 82.6724 228.028 82.8594 228.339 82.9217C228.776 83.0464 229.274 83.0464 229.773 82.9841C230.272 82.9841 230.708 82.8594 231.145 82.7347C231.519 83.7322 231.831 84.7297 232.392 85.6026C232.828 86.226 233.826 85.9766 233.826 85.2285C233.826 83.4828 232.766 81.6125 231.955 80.0539ZM229.337 81.6125C228.838 81.7372 228.152 81.9242 227.529 81.9242C227.591 81.7372 227.591 81.4878 227.653 81.3008C227.903 80.1786 228.152 78.994 228.339 77.8718C229.087 78.8693 229.711 79.9292 230.272 80.989C230.334 81.1137 230.397 81.1761 230.397 81.3008C230.147 81.4255 229.773 81.5501 229.337 81.6125Z" class="fill-black"/>
<path d="M243.052 74.9414C242.989 77.4352 242.865 79.929 242.678 82.4228C240.558 79.6173 238.5 76.7494 236.381 73.8815C235.882 73.1957 234.51 73.3204 234.635 74.3803C234.947 77.9963 235.321 81.6747 236.069 85.2283C236.256 86.0388 237.565 85.8518 237.503 85.0413C237.316 82.5475 237.067 80.116 236.817 77.6222C238.75 80.2407 240.683 82.9215 242.615 85.54C243.239 86.3505 244.299 86.0388 244.423 85.0413C244.86 81.6747 245.047 78.308 245.047 74.879C245.109 73.6321 243.114 73.6321 243.052 74.9414Z" class="fill-black"/>
<path d="M254.585 76.5004C254.086 75.1911 253.463 72.3856 251.717 72.3233C249.66 72.1986 249.722 75.0665 249.535 76.3757C249.036 79.68 248.101 82.9843 247.727 86.2886C247.665 86.7873 248.537 87.0367 248.724 86.5379C249.473 84.8546 249.971 83.109 250.345 81.301C251.53 81.5503 252.777 81.5503 254.024 81.2386C254.086 81.2386 254.148 81.1763 254.211 81.1763C254.71 82.7972 255.021 84.5429 255.769 86.0392C256.081 86.725 257.203 86.4132 257.203 85.6651C257.203 82.5479 255.707 79.3059 254.585 76.5004ZM250.657 80.0541C250.782 79.3059 250.969 78.5578 251.094 77.8096C251.218 77.1238 251.094 75.6899 251.655 75.1288C251.966 74.1313 252.216 74.5053 252.528 76.1263C252.777 76.6874 252.964 77.3109 253.213 77.872C253.4 78.4331 253.587 78.9318 253.774 79.4929C253.712 79.4929 253.712 79.4929 253.65 79.5553C252.652 79.867 251.655 80.0541 250.657 80.0541Z" class="fill-black"/>
<path d="M260.633 64.5924C260.571 63.8442 259.511 63.8442 259.449 64.5924C259.261 68.9565 259.074 73.6947 259.636 77.9965C259.76 78.994 261.194 79.0564 261.257 77.9965C261.568 73.6324 261.132 68.9565 260.633 64.5924Z" class="fill-black"/>
<path d="M260.819 84.106C260.445 84.106 260.445 84.6676 260.819 84.6676C261.194 84.6676 261.194 84.106 260.819 84.106Z" class="fill-black"/>
<path d="M227.029 94.9542C226.468 95.9517 227.964 96.8245 228.526 95.827C229.523 96.3881 230.521 96.8869 231.518 97.448C231.518 98.4455 231.206 99.256 230.521 99.9418C229.772 100.815 228.775 101.376 227.653 101.75C225.845 102.311 223.725 102.062 221.917 101.687C218.8 101.064 215.807 99.6301 212.939 98.3832C208.637 96.5128 203.338 94.1437 198.538 95.5776C194.859 96.6998 193.363 100.066 195.607 103.371C198.101 106.924 202.528 107.86 206.455 106.488C206.829 106.363 206.642 105.802 206.268 105.927C202.341 107.174 197.104 105.241 196.231 100.939C195.171 95.7023 202.964 96.6375 205.894 97.448C211.879 99.0689 217.179 102.934 223.476 103.682C227.528 104.181 232.765 102.747 233.139 97.8844C233.451 94.4554 229.087 91.2758 227.029 94.9542Z" class="fill-black"/>
<path d="M213.562 104.805C212.377 104.181 211.255 105.116 211.068 106.239C210.694 106.737 210.632 107.548 210.694 108.109C211.006 109.792 213.001 110.291 214.061 108.92C214.996 107.797 214.996 105.553 213.562 104.805Z" class="fill-black"/>
<path d="M211.504 103.87C211.504 103.371 211.005 102.934 210.569 102.934C210.257 102.934 209.945 103.059 209.758 103.246C209.135 103.994 209.571 104.929 210.506 104.992C210.88 105.054 211.254 104.805 211.441 104.493C211.504 104.368 211.566 104.119 211.504 103.87Z" class="fill-black"/>
<path d="M212.44 104.119C212.922 104.119 213.313 103.728 213.313 103.246C213.313 102.764 212.922 102.374 212.44 102.374C211.958 102.374 211.567 102.764 211.567 103.246C211.567 103.728 211.958 104.119 212.44 104.119Z" class="fill-black"/>
<path d="M215.869 103.932C215.744 103.932 215.619 103.932 215.495 103.994C215.744 103.433 215.495 102.56 214.684 102.56C213.437 102.56 213.437 104.493 214.684 104.493C214.809 104.493 214.934 104.493 215.058 104.431C214.809 104.992 215.058 105.865 215.869 105.865C217.116 105.865 217.116 103.932 215.869 103.932Z" class="fill-black"/>
<path d="M215.496 98.1336C215.978 98.1336 216.369 97.7428 216.369 97.2608C216.369 96.7787 215.978 96.3879 215.496 96.3879C215.014 96.3879 214.623 96.7787 214.623 97.2608C214.623 97.7428 215.014 98.1336 215.496 98.1336Z" class="fill-black"/>
<path d="M217.301 99.3809C217.783 99.3809 218.174 98.9901 218.174 98.5081C218.174 98.026 217.783 97.6353 217.301 97.6353C216.819 97.6353 216.428 98.026 216.428 98.5081C216.428 98.9901 216.819 99.3809 217.301 99.3809Z" class="fill-black"/>
<path d="M219.236 98.1335C218.051 98.1335 218.051 100.004 219.236 100.004C220.42 100.004 220.42 98.1335 219.236 98.1335Z" class="fill-black"/>
<path d="M221.231 98.3833C220.109 98.3833 220.109 100.191 221.231 100.191C222.416 100.129 222.416 98.3833 221.231 98.3833Z" class="fill-black"/>
<path d="M220.794 93.0216C220.045 92.4605 218.986 92.5228 218.237 93.1463C217.926 93.458 217.676 93.8944 217.614 94.3308C217.427 94.5179 217.302 94.7049 217.178 94.9543C216.866 95.7024 216.928 96.6376 217.427 97.261C218.799 98.9444 221.355 97.1364 221.666 95.453C221.853 94.5179 221.542 93.5204 220.794 93.0216Z" class="fill-black"/>
<path d="M127.463 26.0623C126.777 26.0623 126.777 27.1845 127.463 27.1845C128.211 27.1845 128.211 26.0623 127.463 26.0623Z" class="fill-black"/>
<path d="M86.4383 81.3001C86.0643 81.0507 85.5032 81.3624 85.1291 81.5495C84.5057 81.8612 83.9445 82.2353 83.4458 82.6717C83.3834 82.734 83.3211 82.7964 83.3211 82.9211C83.1341 82.7964 83.0094 83.0457 83.1341 83.1704C83.8198 83.7315 84.5056 84.2926 85.1914 84.7914C85.3785 84.9161 85.6279 84.8537 85.6902 84.6044C85.8772 83.9186 86.1266 83.2951 86.376 82.6093C86.5007 82.2353 86.8748 81.6742 86.4383 81.3001Z" class="fill-black"/>
<path d="M59.5691 83.5449C58.8833 83.1085 58.2599 82.6098 57.6364 82.0487C57.387 81.8616 56.9506 81.8616 56.9506 82.298C56.9506 82.9838 56.9506 83.6696 56.9506 84.3554C56.9506 84.9165 56.8259 85.4776 57.0753 85.9764C57.1376 86.1011 57.2 86.1634 57.3247 86.1634C57.387 86.2258 57.5117 86.2881 57.5741 86.1634C57.5741 86.1634 57.5741 86.1634 57.6364 86.1011C57.7611 86.0387 57.8234 85.9764 57.8858 85.8517C58.4469 85.2282 59.0703 84.6048 59.6938 84.0437C59.7561 83.9813 59.7561 83.6696 59.5691 83.5449Z" class="fill-black"/>
<path d="M125.593 102.934C125.343 101.999 124.72 101.126 123.972 100.44C123.909 100.378 123.909 100.315 123.785 100.315C121.478 98.3202 117.675 97.8215 116.428 101.126C116.428 101.126 116.428 101.126 116.428 101.188C111.316 101.001 106.391 102.996 101.59 104.617C97.6622 105.989 92.8617 107.173 89.0586 109.168C88.5598 108.295 88.0611 107.485 87.4376 106.674C87.5623 106.55 87.687 106.487 87.7494 106.363C87.9364 106.051 88.1858 105.802 88.3728 105.49C88.8092 104.866 89.0586 104.181 89.3703 103.495C89.5574 103.121 89.6821 102.747 89.8068 102.435C89.8691 102.31 89.8691 102.186 89.9314 102.061C89.9314 101.999 89.9938 101.936 90.0561 101.874C90.0561 101.874 90.0561 101.874 89.9938 101.874C90.5549 100.191 90.8666 98.5073 91.1783 96.7616C91.5524 94.6419 91.0537 92.6468 90.5549 90.5894C90.4302 90.153 90.3055 89.779 90.2432 89.3425C90.1185 89.2802 90.0561 89.1555 89.9938 88.9685C89.6821 87.971 89.308 87.0358 88.9339 86.0383C88.7469 85.7265 88.6222 85.4772 88.4975 85.1654C88.9339 84.2303 89.0586 83.0457 89.2456 82.0482C89.3703 80.926 89.4327 79.8038 89.4327 78.6816C89.4327 78.4945 89.3703 78.3698 89.2456 78.2451C89.2456 78.2451 89.2456 78.2451 89.2456 78.1828H89.1833C89.0586 78.1205 88.9339 78.0581 88.7469 78.0581C88.1234 78.1828 87.5 78.2451 86.8765 78.4322C85.7543 78.6816 84.6321 78.9933 83.6346 79.4297C82.5747 79.9285 81.4525 80.6142 80.8291 81.5494C79.7069 80.6766 78.3976 80.1778 77.026 79.8038C75.2804 79.305 73.41 78.8062 71.602 78.6192C68.4224 78.2451 65.1805 79.0556 62.2503 80.2402C61.8762 80.5519 61.3774 80.7389 60.754 80.6766C59.1954 80.5519 57.6991 80.3649 56.2652 79.8661C56.2028 79.8038 56.2028 79.8038 56.1405 79.8038C55.8911 79.6791 55.6417 79.5544 55.3923 79.3673C55.33 79.305 55.2676 79.305 55.2053 79.3673C55.0806 79.305 54.9559 79.3674 54.8936 79.492C54.7689 79.7414 54.7689 80.1155 54.8312 80.4272C54.5818 83.2951 54.2078 86.2253 54.1454 89.0932C53.709 90.4024 53.2726 91.6493 52.8362 92.9586C52.7738 93.2079 52.7115 93.4573 52.7115 93.7067C52.2751 94.9536 52.2127 96.3252 52.2751 97.6968C52.3998 99.9412 52.7115 102.186 53.2726 104.368C53.2726 104.492 53.3349 104.679 53.3349 104.804C53.3349 104.866 53.3973 104.929 53.3973 104.991C53.4596 105.178 53.522 105.428 53.522 105.615C52.3374 107.797 51.5269 110.353 49.1578 111.35C47.7862 111.974 46.5393 112.286 45.2924 113.283C42.4869 115.527 40.3048 118.894 38.9333 122.198C36.3148 128.745 37.1876 136.039 41.6141 141.588C41.053 143.77 41.3024 146.451 41.3024 148.633C41.3024 151.064 41.3647 153.558 41.6764 155.989C41.6764 157.486 41.7388 158.982 41.8011 160.416C41.9258 165.403 42.5493 170.391 43.5468 175.192C45.3548 183.733 48.7214 191.962 54.0207 198.945C53.0856 199.381 52.3374 200.005 51.7763 201.065C50.5918 203.496 52.1504 205.865 54.3325 206.988C57.138 208.484 60.754 209.045 63.4348 207.175C66.178 205.242 68.9212 201.626 69.5446 198.322C69.5446 198.259 69.5446 198.259 69.5446 198.197C70.4175 197.199 70.9786 195.952 71.3526 194.581C71.5397 193.833 71.7891 193.085 71.9761 192.274C72.2878 193.895 72.7242 195.516 73.2853 197.075C73.9088 198.758 74.5946 200.566 75.6544 202.062C78.3976 207.237 83.6969 212.474 89.495 208.047C91.3654 206.613 92.3006 204.307 91.4901 202.062C90.9913 200.753 90.1185 199.943 88.9963 199.506C89.0586 199.444 89.0586 199.381 89.121 199.257C92.5499 190.528 94.3579 181.239 94.919 171.887C95.1684 167.96 95.2308 164.094 95.2931 160.166V160.104C95.2931 160.042 95.2931 160.042 95.2931 159.979V159.917C95.2931 159.855 95.2931 159.855 95.2931 159.792C95.2931 159.73 95.2931 159.605 95.2931 159.543C95.2931 159.481 95.2931 159.356 95.3555 159.294C95.3555 159.107 95.4178 159.044 95.5425 158.982C102.089 156.114 106.391 150.378 109.009 143.832C110.942 139.032 112.5 134.106 113.934 129.119C114.807 126.188 116.241 122.011 114.62 119.081C113.872 117.71 112.625 117.086 111.253 116.961C113.872 115.34 116.303 113.47 118.111 111.163C118.361 110.914 118.61 110.602 118.735 110.228C118.86 110.041 119.047 109.792 119.171 109.605C119.296 109.418 119.296 109.231 119.234 109.044C119.296 108.981 119.296 108.857 119.358 108.794C119.358 108.732 119.358 108.669 119.421 108.607C120.792 109.106 122.226 109.106 123.535 108.171C125.281 107.111 126.154 104.929 125.593 102.934ZM95.3555 145.765C95.4178 145.765 95.4801 145.702 95.5425 145.64C95.5425 144.081 95.6048 142.523 95.6672 141.027C95.5425 138.907 95.1684 136.787 94.545 134.73C93.7968 132.361 93.4228 129.929 93.2357 127.498C93.2357 127.186 93.1734 126.812 93.111 126.5C93.0487 126.438 93.0487 126.438 92.9863 126.375C97.4128 124.817 101.652 122.51 105.705 120.266C105.767 120.203 105.892 120.203 105.954 120.141C104.894 121.824 104.208 123.819 103.71 125.565C101.029 133.919 100.53 142.46 95.6048 149.692C95.4801 148.383 95.4178 147.074 95.3555 145.765ZM111.815 119.954C113.56 121.014 113.56 120.951 113.56 122.697C113.56 123.944 113.248 125.191 112.937 126.375C112.5 128.121 111.939 129.804 111.378 131.55C110.256 135.166 109.134 138.782 107.7 142.336C105.144 148.82 101.216 153.496 95.3555 156.8C95.3555 155.304 95.4178 153.807 95.4178 152.249C95.4801 152.124 95.5425 151.999 95.6048 151.875C95.7295 151.5 95.6672 151.064 95.4801 150.752C98.5974 147.635 100.405 143.396 101.777 139.156C102.276 137.66 102.65 136.164 103.024 134.667C103.523 134.73 104.021 134.792 104.52 134.979C105.081 135.228 105.892 134.854 106.203 134.293C107.014 132.672 105.705 130.864 104.084 130.553C104.208 129.991 104.333 129.493 104.52 128.932C104.894 129.43 105.58 129.742 106.141 129.867C107.201 130.116 108.261 129.929 108.822 128.932C109.321 127.996 109.009 126.812 108.323 126.064C107.7 125.44 106.64 124.817 105.705 125.066C105.892 124.567 106.079 124.006 106.266 123.508C106.578 122.697 106.952 121.887 107.388 121.138C107.7 120.764 108.011 120.328 108.323 119.954C109.508 118.645 110.692 118.645 111.815 119.954ZM122.351 107.61C120.855 108.482 119.296 107.984 117.8 107.423C117.675 107.36 117.55 107.61 117.675 107.672C117.862 107.797 118.049 107.984 118.236 108.108L118.174 108.171C117.924 108.607 117.613 109.168 117.426 109.667C114.371 114.031 109.071 116.774 104.395 119.268C104.333 118.395 104.021 117.585 103.585 116.837C103.149 116.151 102.463 115.278 101.528 115.465C100.468 115.652 100.53 116.774 100.592 117.585C100.592 118.769 100.655 119.954 100.842 121.138C100.53 121.263 100.281 121.45 99.969 121.575C99.7819 120.203 99.1585 118.956 98.2233 117.897C97.8493 117.46 97.0388 117.71 96.9141 118.271C96.54 119.705 96.4777 121.263 96.9141 122.697C96.54 122.759 96.2283 122.884 95.8542 122.884C95.2931 122.946 94.7943 122.884 94.2332 122.946C93.9215 122.635 93.3604 122.635 93.1734 123.134C92.8617 124.318 91.7394 124.505 90.7419 124.817C89.7444 125.129 88.7469 125.44 87.687 125.316C87.5623 125.316 87.5 125.503 87.687 125.565C88.9963 125.752 90.929 125.939 92.3629 125.44C91.303 126.375 89.9938 127.124 88.6845 127.685C89.4327 127.498 90.1808 127.311 90.929 127.061C90.929 127.124 90.929 127.186 90.9913 127.248C91.116 127.934 91.3654 128.558 91.5524 129.243C90.4925 129.493 89.1833 130.74 88.3728 131.363C87.5623 132.049 86.7519 132.859 86.8142 133.982C87.0636 136.974 90.6796 136.662 92.6746 136.101C92.7993 136.039 92.924 135.914 93.0487 135.79C93.3604 136.974 93.5475 138.221 93.6721 139.406C92.1759 139.593 90.5549 140.154 89.121 140.652C88.0611 141.089 87.0636 141.899 87.0636 143.146C87.1259 144.393 88.1858 145.079 89.2456 145.266C90.7419 145.578 92.3629 145.64 93.9215 145.765C93.7968 146.575 93.7345 147.386 93.6721 148.196C91.6771 148.82 84.5074 150.503 87.3753 153.558C88.7469 155.054 91.4277 155.054 93.3604 154.119C93.3604 154.867 93.2981 155.678 93.2981 156.426C93.2981 156.488 93.2981 156.55 93.2981 156.613C90.929 156.8 85.4426 158.421 87.3753 161.6C88.1234 162.91 89.9314 162.785 91.2407 162.536C91.8641 162.411 92.4876 162.224 93.0487 161.912C93.0487 162.224 92.9863 162.536 92.9863 162.847C93.0487 163.471 92.9863 164.094 92.8617 164.655C92.7993 165.279 92.7993 165.84 92.737 166.463C92.737 166.526 92.737 166.588 92.737 166.588C92.737 166.713 92.6746 166.9 92.6746 167.024C92.6746 167.087 92.6746 167.087 92.6746 167.149C92.6123 167.461 92.6123 167.71 92.5499 168.022C92.5499 168.084 92.5499 168.209 92.5499 168.271H92.6123C92.5499 169.019 92.4876 169.705 92.4252 170.453C92.1135 174.194 91.6771 177.872 91.0537 181.613C90.4925 181.551 89.9314 181.613 89.3703 181.675C88.7469 181.738 88.1234 181.987 88.0611 182.673C87.9364 183.92 89.4327 184.793 90.4302 185.104C90.3055 185.915 90.1185 186.663 89.9314 187.411C88.9339 187.287 87.5623 187.224 87.4376 188.284C87.313 189.282 88.3728 189.718 89.3703 189.905C88.9963 191.401 88.5598 192.835 88.1234 194.269C87.8117 195.267 87.5 196.202 87.1883 197.199C87.1883 197.199 87.1883 197.199 87.1883 197.262C87.1259 197.324 87.1259 197.449 87.0636 197.511L87.0012 197.573C86.9389 197.698 86.9389 197.823 86.8765 197.885C86.6895 198.259 86.5648 198.571 86.5025 198.945C85.879 198.945 85.1932 198.945 84.5698 199.07C84.5074 199.07 84.4451 199.132 84.3827 199.194C86.8765 198.883 89.8068 200.441 90.6796 202.686C91.4277 204.743 89.495 206.676 87.5 206.988C86.1907 207.424 84.5698 207.299 83.1358 206.738C80.642 205.741 79.3951 203.247 77.9612 200.94C76.4026 199.257 75.4051 197.012 74.9063 194.706C74.7816 194.456 74.7193 194.207 74.6569 193.957C74.6569 193.957 74.6569 193.957 74.6569 193.895C73.9088 191.775 73.6594 189.531 73.5347 187.286C73.1606 185.104 73.0983 182.798 72.7866 180.616C72.6619 179.68 72.4125 178.745 72.3502 177.748C71.5397 182.299 70.8539 187.037 69.5446 191.588C69.5446 191.588 69.5446 191.588 69.5446 191.651C69.4823 193.272 68.9835 194.83 68.4848 196.327C68.1107 197.262 67.7366 197.948 67.2379 198.633C66.8638 199.319 66.4897 200.005 65.991 200.691C64.4323 203.247 62.2503 205.741 59.5694 205.865C58.4472 205.928 56.2028 205.678 54.8312 205.055C54.7689 205.055 54.7065 205.055 54.6442 205.055C53.0856 204.556 52.5245 202.436 53.2103 201.065C53.2103 201.002 53.2103 201.002 53.2103 200.94L53.3349 200.815C53.3973 200.753 53.4596 200.628 53.4596 200.566C54.8312 198.758 57.4497 198.633 59.6318 198.509C59.5694 198.446 59.5694 198.446 59.5071 198.446C58.5096 198.259 57.3874 198.197 56.3275 198.259C56.3898 197.947 56.3275 197.636 56.0781 197.324C55.8287 197.012 55.6417 196.763 55.4547 196.451C54.8312 195.703 54.2701 194.955 53.7714 194.082C53.709 194.02 53.709 193.957 53.709 193.895C52.4621 191.962 51.4022 189.967 50.4671 187.91C51.0905 187.661 51.5269 187.162 51.7763 186.538C51.901 186.227 51.714 185.915 51.4646 185.728C50.9035 185.354 50.3424 185.042 49.6566 184.98C49.4696 184.98 49.3449 184.98 49.2202 185.042C48.9708 184.356 48.7214 183.733 48.472 183.047C48.6591 183.047 48.8461 183.109 49.0331 183.047C49.7813 182.985 50.7788 182.735 51.1529 181.987C51.5893 180.99 50.5918 180.366 49.906 179.93C49.1578 179.431 48.2227 178.745 47.2875 178.621C47.2251 178.621 47.1628 178.621 47.1004 178.621C46.664 176.937 46.29 175.316 45.9159 173.633C45.4795 171.326 45.1677 169.019 44.9184 166.65C44.9184 166.588 44.856 166.588 44.856 166.526C44.7313 166.214 44.7313 165.902 44.7937 165.653C44.669 164.468 44.5443 163.284 44.482 162.099V161.85C44.482 161.787 44.482 161.787 44.482 161.725C44.669 161.787 44.9184 161.912 45.1054 161.974C45.6665 162.161 46.29 162.224 46.8511 162.224C47.5992 162.224 48.285 162.161 48.9084 161.663C49.5319 161.164 49.8436 160.416 49.8436 159.605C49.7813 158.358 48.9708 157.673 47.9733 157.174C47.8486 156.8 47.5369 156.488 47.1004 156.363C46.29 156.114 45.5418 155.865 44.7937 155.428C44.6066 155.304 44.3573 155.241 44.1702 155.179C44.1702 154.929 44.1702 154.618 44.1702 154.368C45.0431 154.618 46.0406 154.555 46.9134 154.181C48.098 153.62 48.9084 152.311 48.5967 151.002C48.2227 149.318 46.3523 148.072 44.6066 147.697C44.5443 147.635 44.4196 147.635 44.3573 147.573C44.0455 147.51 43.6715 147.51 43.3597 147.573C43.2974 146.949 43.3597 146.326 43.4221 145.702C44.7313 147.012 48.098 146.762 48.472 144.83C49.0955 143.084 45.9159 140.777 44.2949 140.154C44.2949 139.842 44.3573 139.593 44.3573 139.281C44.4196 138.657 44.482 138.034 44.5443 137.411C45.7912 138.408 47.7239 138.595 49.0331 137.722C52.0257 135.852 48.285 133.358 45.8535 132.174C45.7912 132.049 45.6042 131.987 45.4795 131.987C45.4171 131.924 45.3548 131.924 45.2924 131.924C45.5418 130.615 45.8535 129.306 46.1653 127.996C46.3523 128.059 46.477 128.121 46.664 128.121C46.8511 128.807 47.3498 129.306 48.098 129.43C48.5344 129.493 48.9084 129.181 49.0955 128.745C47.7862 127.685 46.9758 126.375 46.7264 124.817C46.664 125.316 46.6017 125.814 46.6017 126.313H46.5393C46.2276 126.188 45.9159 126.001 45.6665 125.814C45.1054 125.378 44.669 124.942 44.2949 124.38C44.1079 124.006 43.9832 123.57 43.9208 123.134C43.9208 123.134 43.9209 123.134 43.8585 123.134C43.5468 123.508 43.4844 123.944 43.6091 124.443C43.6091 124.443 43.6091 124.443 43.6091 124.505C43.6091 125.253 43.8585 126.001 44.3573 126.625C44.2949 126.874 44.2326 127.124 44.1702 127.311C44.0455 127.685 43.9832 128.059 43.8585 128.433C43.7962 128.994 43.6715 129.493 43.4844 129.991C43.3597 130.802 43.2351 131.55 43.1104 132.361C42.7986 134.543 42.6116 136.787 42.4246 139.031C42.4246 139.219 42.4246 139.406 42.4246 139.593C39.9308 136.101 39.0579 131.987 39.4944 127.934C39.4944 127.872 39.4944 127.872 39.4944 127.809C39.4944 127.747 39.4944 127.747 39.4944 127.685C39.4944 127.622 39.4944 127.622 39.4944 127.56C39.4944 127.435 39.5567 127.248 39.5567 127.124C39.5567 127.061 39.619 126.937 39.619 126.874V126.812C39.6814 126.563 39.6814 126.313 39.7437 126.064V126.001C40.2425 123.57 41.24 121.138 42.6739 118.956C43.7338 117.335 44.9807 115.777 46.477 114.592C47.9109 113.408 49.5942 113.408 51.0282 112.535C51.2152 112.41 51.4022 112.285 51.5893 112.098C51.8387 111.537 52.088 111.039 52.3998 110.602C52.8362 109.916 53.2726 109.231 53.709 108.545C54.0207 108.046 54.3325 107.423 54.3948 106.799C55.0183 107.734 55.8287 108.482 56.8263 108.919C55.5794 107.36 54.9559 105.365 54.6442 103.433C54.5818 103.183 54.5195 102.871 54.5195 102.56C55.2676 102.996 56.2028 102.809 56.7639 102.061C57.6991 100.752 56.4522 98.5073 54.9559 98.1955C55.2053 97.8838 55.4547 97.6344 55.8287 97.3851C55.9534 97.3227 56.1405 97.2604 56.2652 97.3227C56.3275 97.3227 56.3275 97.3227 56.3898 97.2604C56.8886 97.1357 57.325 97.011 57.7614 96.8239C59.7565 95.9511 60.1305 94.0184 58.6343 92.5221C58.0108 91.8987 57.2003 91.3376 56.3898 90.9012C55.6417 90.4648 55.33 89.8413 55.8287 89.0932C56.4522 88.0956 56.3898 86.9734 56.3898 85.9136C56.3898 84.4796 56.2028 83.0457 56.2028 81.6118C56.2028 81.5494 56.2028 81.5494 56.2028 81.4871C56.2652 80.926 56.6392 80.8013 57.2627 81.0507C58.0108 81.3624 58.6343 81.7988 59.3824 81.9858C60.8787 82.3599 62.4373 82.8587 63.9959 81.9235C65.2428 81.1754 66.7391 81.0507 68.1107 80.926C69.7317 80.7389 71.415 80.8636 73.0983 80.8636C73.7217 80.8636 74.3452 80.926 74.9686 81.0507C75.031 81.0507 75.0933 81.0507 75.0933 81.113C76.839 81.6118 78.834 81.9858 80.1433 83.2327C80.3927 83.4198 80.642 83.4821 80.8914 83.4821C82.1383 82.2352 83.5099 81.113 85.1309 80.3025C85.505 80.1155 86.5025 79.5544 87.2506 79.3673C87.5623 79.305 87.8117 79.305 88.0611 79.3673C88.8092 79.7414 88.4352 80.6142 88.2481 81.1754C87.7494 82.921 87.1883 84.542 87.0012 86.2876C87.5623 86.4123 87.9987 86.7241 88.1858 87.3475C88.5599 88.4074 88.9963 89.4049 89.4327 90.4024C89.5574 90.7141 89.6197 91.0259 89.7444 91.2752C89.8691 91.6493 89.6821 91.8363 89.2456 91.8987C87.687 92.1481 86.3154 94.8913 87.0636 96.5746C87.4376 97.3851 88.1858 97.6968 89.0586 97.3851C89.2456 97.3227 89.495 97.2604 89.9314 97.0733C89.7444 97.8838 89.6197 98.5696 89.4327 99.2554C89.308 99.1931 89.1833 99.1307 88.9963 99.1307C88.6845 99.0684 88.3728 99.1307 88.0611 99.2554C87.4376 99.4424 86.8142 99.8788 86.5648 100.565C86.1284 101.687 86.8142 102.934 87.9364 103.308C87.687 103.807 87.4376 104.243 87.1259 104.742C86.6272 106.051 85.9414 107.298 85.0062 108.358C85.5049 108.171 86.0661 107.921 86.5025 107.61C86.6272 107.547 86.6895 107.485 86.8142 107.36C87.1883 108.233 87.6247 109.044 88.0611 109.854C87.687 110.103 87.3753 110.29 87.0012 110.54C86.9389 110.602 86.9389 110.727 87.0636 110.727C87.687 110.665 88.2481 110.54 88.8716 110.478H88.9339C90.2432 110.228 91.5524 109.792 92.8617 109.355C92.9863 110.852 93.6721 112.223 94.7944 113.283C95.2308 113.719 95.9789 113.532 96.1659 112.909C96.6024 111.35 96.4777 109.729 95.8542 108.295C96.8517 107.921 97.7869 107.547 98.7221 107.173C98.7844 108.545 99.0961 109.729 99.6573 110.976C99.9066 111.537 100.779 111.475 101.091 110.976C101.902 109.48 102.089 107.734 101.715 106.113C106.64 104.43 111.815 102.31 117.052 102.684C117.613 102.747 117.8 102.248 117.737 101.812C117.862 101.749 117.924 101.625 117.987 101.5C118.61 99.8165 120.855 100.004 122.164 100.627C123.473 101.25 124.471 102.497 124.595 103.994C124.471 105.428 123.66 106.861 122.351 107.61Z" class="fill-black"/>
<path d="M82.5112 103.121C81.1396 102.622 79.768 102.435 78.3341 102.248V102.186C78.3964 101.376 77.8353 100.69 77.0872 100.191C78.7081 99.8793 80.3914 99.8169 82.0748 100.004C82.2618 100.004 82.3241 99.6922 82.0748 99.6922C80.1421 99.4428 78.3341 99.5052 76.5261 99.8793C76.0273 99.5675 75.4662 99.3805 74.9674 99.2558C74.344 99.0688 73.7829 99.0688 73.2218 99.1311C73.5335 98.4453 73.6582 97.6972 73.4088 97.0737C73.2841 96.762 72.8477 96.6997 72.5983 96.949C72.0996 97.3855 71.6631 97.8842 71.3514 98.4453C70.9774 97.5102 70.4162 96.6997 69.4811 97.3231C69.294 97.4478 69.107 97.6972 69.1693 97.9466C69.3564 98.6324 69.6058 99.2558 69.9175 99.8169C68.1718 98.57 65.491 98.2583 64.4311 100.004C62.9349 99.8793 61.4386 99.8793 60.0046 100.004V100.066C61.4386 100.191 62.8102 100.378 64.2441 100.503C64.2441 100.565 64.1817 100.627 64.1817 100.752C64.0571 101.313 64.1818 101.75 64.4311 102.124C62.9972 102.373 61.6256 102.685 60.1917 102.934C60.067 102.934 60.1293 103.121 60.254 103.121C61.7503 102.872 63.2466 102.685 64.8052 102.498C65.4286 103.059 66.3015 103.433 66.9873 103.62C67.7354 103.869 68.4836 103.932 69.1693 103.869C69.0447 104.867 69.4811 105.553 70.6033 105.802C71.7878 106.051 72.91 105.428 73.2218 104.306C75.2792 105.054 77.8976 104.742 78.2094 102.56C79.581 102.872 80.9525 103.246 82.3241 103.495C82.6359 103.371 82.6359 103.184 82.5112 103.121ZM66.4885 102.435C66.3638 102.373 66.2391 102.311 66.1144 102.248C66.7379 102.186 67.3613 102.124 67.9848 102.061C68.2965 101.999 68.1718 101.563 67.8601 101.563C67.112 101.625 66.3638 101.75 65.6157 101.812C65.3663 101.5 65.1793 101.126 65.1793 100.752C65.1793 100.69 65.1793 100.565 65.2416 100.503C66.4885 100.627 67.7354 100.814 68.9823 101.001C69.2317 101.064 69.294 100.69 69.0447 100.627C67.8601 100.378 66.6755 100.129 65.4286 100.004C65.8651 99.3805 66.8626 99.0688 67.6107 99.3182C67.9224 99.3182 68.2965 99.3805 68.5459 99.5052C68.9823 99.6299 69.5434 99.8793 69.7928 100.378C69.9798 100.565 70.2292 100.814 70.4162 101.126C70.5409 101.251 70.6033 101.376 70.728 101.5C70.728 101.625 70.8527 101.75 70.9774 101.812C70.4786 102.311 69.9175 102.622 69.3564 102.747C69.294 102.934 69.107 103.059 68.8576 102.997C68.1095 102.809 67.2367 102.809 66.4885 102.435ZM70.7903 104.992C70.0422 104.867 69.7305 104.368 69.5434 103.745C70.2292 103.62 70.7903 103.371 71.3514 102.872C71.6631 103.308 72.1619 103.682 72.723 103.932C72.4736 104.805 71.6631 105.179 70.7903 104.992ZM77.4612 102.186C76.6507 102.061 75.9026 101.999 75.1545 101.812C74.9674 101.75 74.9051 102.061 75.0921 102.061C75.9026 102.061 76.6507 102.124 77.4612 102.248C76.9001 103.932 72.8477 104.181 71.9125 101.812C71.8502 101.687 71.7878 101.625 71.7255 101.625C71.9749 101.563 72.0996 101.376 72.0372 101.126C72.2866 100.814 72.536 100.44 72.7854 100.066C73.8452 99.6922 75.0921 99.6299 76.0273 100.004C75.2792 100.191 74.5934 100.378 73.8452 100.627C73.5335 100.752 73.7829 101.189 74.0946 101.064C74.9051 100.752 75.7779 100.503 76.6507 100.316C76.9001 100.503 77.0872 100.69 77.2118 100.939C77.4612 101.376 77.5236 101.812 77.4612 102.186Z" class="fill-black"/>
<path d="M65.2405 89.0937C62.2479 88.9067 62.435 93.8943 62.622 96.2634C62.435 96.5751 62.4973 97.0739 62.9337 97.0739C64.3677 97.1362 65.7392 97.0739 67.1732 96.9492C67.3602 96.9492 67.5473 96.7622 67.5473 96.5751C67.7343 94.5801 68.3577 89.2808 65.2405 89.0937ZM66.6744 96.014C66.3003 96.014 66.8615 96.014 66.4874 96.0764C66.7991 95.5776 66.7368 94.8918 66.7368 94.3307C66.7368 93.5202 66.7991 92.6474 66.5497 91.8993C66.3627 91.2135 65.3652 91.3382 65.1158 91.8993C64.7417 92.6474 64.7417 93.5202 64.6794 94.3931C64.617 95.0165 64.4923 95.64 64.8664 96.1387C64.5547 96.1387 63.3078 96.1387 62.9961 96.0764C63.1208 95.2659 63.2454 94.5177 63.3701 93.7073C63.4948 92.9591 63.5572 90.4653 64.4923 90.216C64.9911 90.3406 65.5522 90.4653 66.051 90.59C66.3003 90.9641 66.4874 91.3382 66.6121 91.7122C66.7368 92.1486 66.8615 92.5851 66.8615 93.0838C66.9238 94.019 66.7991 95.0165 66.6744 96.014Z" class="fill-black"/>
<path d="M76.8999 88.7815C73.9074 88.5944 74.0944 93.582 74.2814 95.9512C74.0944 96.2629 74.1567 96.7616 74.5931 96.7616C76.0271 96.824 77.3987 96.7616 78.8326 96.6369C79.0196 96.6369 79.2067 96.4499 79.2067 96.2629C79.4561 94.2678 80.0795 88.9685 76.8999 88.7815ZM78.3338 95.7018C77.9598 95.7018 78.5209 95.7018 78.1468 95.7641C78.4585 95.2654 78.3962 94.5796 78.3962 94.0185C78.3962 93.208 78.4585 92.3351 78.2092 91.587C78.0221 90.9012 77.0246 91.0259 76.7752 91.587C76.4011 92.3351 76.4012 93.208 76.3388 94.0808C76.2765 94.7043 76.1518 95.3277 76.5258 95.8265C76.2141 95.8265 74.9672 95.8265 74.6555 95.7641C74.7802 94.9536 74.9049 94.2055 75.0296 93.395C75.1543 92.6469 75.2166 90.1531 76.1518 89.9037C76.6505 90.0284 77.2116 90.1531 77.7104 90.2778C77.9598 90.6518 78.1468 91.0259 78.2715 91.4C78.3962 91.8364 78.5209 92.2728 78.5209 92.7716C78.6456 93.7067 78.5209 94.7043 78.3338 95.7018Z" class="fill-black"/>
<path d="M79.0209 111.912C75.8413 112.722 72.8487 113.346 69.4821 113.034C66.0531 112.722 62.8112 111.725 59.881 109.979C65.3673 113.533 72.9734 115.154 79.2079 112.473C79.582 112.348 79.3326 111.849 79.0209 111.912Z" class="fill-black"/>
<path d="M70.4795 114.967C68.2351 114.78 65.0555 114.468 63.1228 113.034C63.1228 113.034 63.0605 113.034 63.1228 113.034C65.2425 114.655 67.861 115.154 70.4795 115.465C70.8536 115.528 70.8536 114.967 70.4795 114.967Z" class="fill-black"/>
<path d="M156.266 81.9243C148.036 86.9119 132.263 96.326 123.971 101.189C123.036 101.688 123.846 102.997 124.782 102.561C133.385 98.3834 149.034 88.5329 156.64 82.6725C156.515 82.4231 156.391 82.1737 156.266 81.9243Z" class="fill-black"/>
<path d="M83.0728 170.391C74.7186 175.753 63.8706 175.379 55.8281 169.456C55.7657 169.394 55.641 169.519 55.7034 169.581C63.8082 176.439 74.5939 177.125 83.5716 171.327C84.1951 170.952 83.6963 170.017 83.0728 170.391Z" class="fill-black"/>
<path d="M76.6496 120.889C73.2206 119.767 69.7916 120.827 66.3626 120.204C63.6195 119.705 60.6269 119.892 58.1331 121.201C58.0084 121.263 58.0708 121.45 58.2578 121.45C59.9411 121.076 61.5621 120.578 63.2454 120.578C65.0534 120.515 66.612 121.139 68.2953 121.388C69.1058 121.513 69.854 121.388 70.7268 121.263C72.7842 121.014 74.5298 121.139 76.5249 121.575C76.8989 121.637 77.0236 121.014 76.6496 120.889Z" class="fill-black"/>
<path d="M89.3722 87.5345C87.8135 87.5969 86.3796 88.345 85.008 88.9685C84.0728 89.4049 82.8883 89.7789 82.0778 90.4647C81.579 89.1555 80.7062 87.9709 79.2723 87.4098C75.7186 86.0382 73.1001 89.3425 71.6038 92.0857C70.9804 92.1481 70.4193 92.2104 69.8582 92.4598C69.7958 91.0258 69.3594 89.6543 68.2995 88.6567C67.8008 88.2203 67.2397 87.9086 66.5539 87.7839C66.0551 87.6592 65.12 88.0333 64.7459 87.8463C64.4965 87.7216 64.2471 87.7839 64.1224 87.9086C62.3768 88.158 60.8805 89.3425 60.1947 91.0882C58.7608 89.6543 56.3293 88.6567 54.3343 88.6567C52.0275 88.5944 51.4664 90.4647 51.7158 92.4598C51.8405 93.4573 53.3368 93.0209 53.2121 92.0234C53.025 90.7765 53.5238 90.0283 54.9577 90.2777C55.5812 90.4024 56.1423 90.5271 56.7034 90.7765C57.7632 91.1505 58.8231 91.6493 59.883 91.961C59.883 92.0234 59.883 92.0234 59.883 92.0857C59.3842 95.0783 61.5663 98.3825 64.6835 98.819C68.0502 99.3177 69.7958 96.2005 69.9205 93.2703C70.544 93.1456 71.1051 93.1456 71.7285 93.2079C70.9804 99.2554 80.8932 101.375 82.3272 94.7042C82.5766 93.7067 82.5765 92.5845 82.3895 91.5246C85.6315 90.9635 90.1826 86.537 91.3048 91.3999C91.4295 92.0234 92.4271 92.0234 92.5517 91.3999C92.9882 89.4049 91.4295 87.4722 89.3722 87.5345ZM64.4342 97.2603C62.3768 96.7616 60.9428 94.2678 61.3169 92.2104C61.6286 90.5271 62.8132 89.7166 64.1224 89.2802C64.1848 89.2802 64.1848 89.3425 64.2471 89.3425C64.6835 89.4672 64.8082 89.3425 65.2446 89.3425C67.0526 89.2802 67.9878 90.4024 68.2372 92.1481C68.5489 94.5172 67.6761 98.0708 64.4342 97.2603ZM77.776 97.385C75.2198 97.7591 72.352 95.7017 73.0378 92.8339C73.0378 92.7715 73.0378 92.7715 73.0378 92.7092C73.7859 91.2752 74.6587 89.7166 76.155 89.0308C79.0229 87.6592 81.0179 90.4647 80.8932 93.0209C80.8309 95.1406 80.0828 97.0733 77.776 97.385Z" fill="#39B100"/>
<path d="M24.6595 25.5345C24.1307 25.8441 23.7341 26.1978 23.3815 26.1978C22.7645 26.2421 22.0594 26.5074 21.6628 25.5787C20.4729 22.8368 21.4425 20.4045 24.307 19.4316C24.8358 19.2547 25.4087 19.3431 26.0257 19.3431C27.7003 16.2475 30.7411 16.3359 33.7818 16.159C33.7818 16.159 33.87 16.0706 33.87 15.9821C34.3547 12.002 36.2497 8.5525 38.1888 5.14725C39.9515 2.00735 43.1245 0.547962 46.6941 1.12287C48.8535 1.47666 50.44 2.80338 51.718 4.43967C53.8774 7.13733 54.9791 10.2772 55.2876 13.7267C55.3317 14.0805 55.3758 14.4343 55.4639 14.965C56.8741 13.8151 58.2403 14.0805 59.4301 14.9207C60.1793 15.4514 60.9285 16.2032 61.3692 16.9993C62.1184 18.4587 62.7353 19.9623 63.176 21.5543C63.3523 22.2177 63.1319 23.0579 62.9116 23.7655C62.8235 24.0309 62.2065 24.2962 61.8539 24.2962C58.1521 24.3404 54.4503 24.1635 50.7485 24.2962C45.6805 24.5173 40.6126 25.0922 35.5446 25.3134C31.7987 25.5787 28.141 25.4903 24.6595 25.5345ZM23.4256 25.048C23.5578 23.9867 24.307 24.1635 25.1002 24.2078C27.7003 24.3847 30.2563 24.65 32.8564 24.5616C36.9108 24.4289 40.9651 24.0751 45.0195 23.7213C50.2197 23.2791 55.4198 23.3233 60.6641 23.4117C62.0302 23.456 62.5591 22.9253 62.1624 21.5986C61.7658 20.0949 61.1929 18.6356 60.4437 17.2646C60.0471 16.557 59.2539 16.0263 58.5487 15.5841C57.447 14.9207 56.6538 15.0092 55.8165 15.8937C55.4198 16.3359 55.2876 17.0877 55.0673 17.6626C54.891 18.1933 54.8469 18.9451 54.0978 18.8125C53.9215 18.7682 53.7452 17.8395 53.8333 17.3088C53.9215 16.6455 54.4503 16.0706 54.4503 15.4072C54.6266 10.7637 53.2164 6.73931 49.779 3.46674C47.0467 0.901753 41.6262 1.29977 39.5549 4.83768C38.1006 7.31422 36.8667 9.92344 35.5887 12.5326C35.1921 13.3287 35.148 14.2574 34.9717 15.1419C34.7514 16.159 34.7514 17.0435 35.8972 17.5742C36.1175 17.6626 36.3819 17.9722 36.3819 18.1491C36.3819 18.6356 36.3379 19.1662 36.1175 19.52C35.9853 19.6527 35.2802 19.4758 34.9276 19.2989C34.6632 19.1662 34.4429 18.7682 34.3107 18.4587C33.6937 17.2204 33.3852 16.9993 32.0191 17.1319C31.4021 17.1762 30.7411 17.3088 30.1241 17.4857C27.1274 18.2818 26.5545 19.6085 27.9647 22.3504C28.0528 22.5715 27.9206 22.8811 27.8766 23.1906C27.6122 23.1022 27.2155 23.1022 27.0833 22.9253C26.7308 22.3946 26.4664 21.8197 26.1579 21.2448C25.8494 20.6256 25.4087 20.2718 24.7036 20.4045C23.5578 20.6256 22.1916 22.1735 22.1035 23.3233C21.9272 24.3404 22.4561 25.0038 23.4256 25.048Z" class="fill-black" stroke="#D1D3D4" stroke-width="0.7074" stroke-miterlimit="10"/>
</svg>
