<svg width="320" height="264" viewBox="0 0 320 264" fill="none" xmlns="http://www.w3.org/2000/svg">
<path d="M51.7077 204.947C51.4723 200.708 49.9024 195.999 45.1143 195.292C40.5616 194.664 37.8929 199.374 36.637 203.063C35.1456 207.38 35.6165 212.012 37.4219 216.172C38.3638 218.37 39.6982 220.41 40.9541 222.53C41.1896 225.512 40.7971 228.574 38.9918 231.007C37.8929 232.42 35.695 233.99 34.5176 231.87C33.2617 229.594 34.4391 226.69 33.8897 224.257C32.7908 219.39 26.5112 221.274 26.1973 225.591C25.4908 233.597 32.8693 243.88 41.7391 241.29C45.5853 240.112 47.7831 236.659 48.254 232.891C48.725 228.731 47.3121 224.806 45.3498 221.274C44.4863 215.544 41.9745 209.578 41.5821 204.084C41.5821 203.927 41.5035 203.691 41.5035 203.534C41.582 203.456 41.5821 203.299 41.6605 203.22C42.053 202.357 42.9165 200.551 43.7799 200.08C46.4487 198.668 47.2336 203.613 47.3121 205.104C47.3121 207.851 51.8647 207.851 51.7077 204.947ZM39.2273 236.973C38.8348 236.973 38.4423 236.973 38.0498 236.973C39.6197 236.345 41.1111 235.246 42.21 233.911C42.7595 233.205 43.2304 232.498 43.6229 231.792C43.3874 234.382 42.21 236.737 39.2273 236.973Z" fill="#EF4036"/>
<path d="M76.6678 198.511C74.7055 196.313 71.4872 195.449 68.8184 197.019C67.641 197.726 66.7776 198.746 66.1496 199.924C65.8357 200.159 65.6002 200.551 65.4432 200.944C63.1668 207.694 61.9894 214.916 62.0679 222.059C62.0679 225.12 61.8325 229.202 63.5593 231.949C64.9722 234.304 67.955 235.324 70.3883 233.833C72.8216 232.263 74.313 228.652 75.4904 226.14C76.8248 223.158 77.9237 220.096 78.7086 216.878C79.9645 211.07 81.0635 203.299 76.6678 198.511ZM71.4872 223.786C70.9377 224.963 70.3883 226.14 69.6818 227.239C69.3679 227.867 68.9754 228.495 68.5829 229.045C68.112 229.673 68.0335 230.222 67.4055 229.594C66.4636 228.809 66.6991 226.14 66.6206 225.12C66.5421 223.55 66.4636 222.059 66.5421 220.489C66.6206 216.25 67.17 212.09 68.112 208.008C69.6034 208.872 72.0367 207.616 71.4872 205.418C71.1732 204.241 70.5453 203.377 69.6034 202.828C70.0743 201.65 70.7808 200.63 71.8012 200.708C74.3915 200.865 75.0194 205.497 75.0979 207.302C75.4119 212.875 73.7635 218.762 71.4872 223.786Z" fill="#EF4036"/>
<path d="M253.83 175.198C253.595 171.98 251.083 171.038 248.257 171.98C245.274 172.922 243.861 174.884 243.94 178.024C244.018 181.792 244.254 185.638 244.254 189.406C244.332 194.822 244.332 200.238 244.175 205.654C239.152 196.784 239.152 185.402 235.306 176.062C235.227 175.905 235.149 175.748 235.07 175.591C235.07 175.277 235.149 174.963 235.149 174.649C235.384 172.137 231.145 171.509 230.674 174.021C230.596 174.413 230.517 174.884 230.439 175.277C229.576 175.512 228.791 176.14 228.712 177.396C228.477 182.263 228.084 187.129 227.456 191.996C226.2 199.139 224.944 206.203 223.689 213.346C223.375 215.073 224.866 216.25 226.279 216.172C226.671 216.329 227.064 216.329 227.456 216.329C228.869 217.114 230.988 216.486 230.831 214.524C230.596 212.169 230.596 209.814 230.753 207.459C232.009 200.552 233.029 193.644 233.893 186.737C236.169 196.313 237.503 206.36 244.646 213.739C245.039 214.131 245.588 214.367 246.059 214.367C247.315 215.622 250.062 215.151 249.984 212.875C249.984 212.247 249.984 211.619 249.905 210.991C251.161 211.462 252.81 210.756 252.967 208.95C253.516 201.494 253.909 193.958 253.909 186.423C253.987 182.734 254.144 178.966 253.83 175.198Z" fill="#EF4036"/>
<path d="M288.68 179.044C287.896 177.631 286.797 176.297 285.305 175.198C282.087 172.765 277.377 172.137 273.924 174.335C273.61 174.492 273.374 174.727 273.139 174.884C272.04 174.099 269.999 174.256 269.371 175.983C267.644 180.771 266.467 185.716 265.917 190.818C265.446 194.9 265.054 199.767 267.016 203.534C267.723 204.869 268.743 205.889 269.92 206.596C270.627 207.773 271.412 208.872 272.275 209.892C274.944 213.032 279.261 215.073 283.421 213.738C287.739 212.326 289.544 207.616 291.035 203.77C294.097 195.842 295.038 185.638 288.68 179.044ZM271.883 199.924C271.098 197.176 270.784 194.194 270.862 191.682C270.941 189.091 271.647 184.853 273.296 181.634C273.688 181.164 274.159 180.771 274.63 180.379C276.906 178.887 279.968 178.887 282.401 179.986C283.343 180.379 284.128 180.928 284.834 181.478C286.247 184.931 285.541 189.876 284.128 193.016C282.793 196.156 280.91 200.002 278.005 202.043C276.828 202.828 275.572 203.22 274.473 203.22C273.296 202.435 272.432 201.258 271.883 199.924ZM279.34 209.029C279.34 209.186 279.418 209.343 279.497 209.5C279.183 209.421 278.79 209.264 278.398 209.107C278.712 209.107 279.026 209.107 279.34 209.029Z" fill="#EF4036"/>
<path d="M191.033 38.4619C189.699 36.9705 187.501 37.363 186.559 39.0113C186.324 39.4823 186.167 39.8748 186.245 40.3457C185.931 40.6597 185.617 40.9737 185.225 41.2877C184.832 41.6801 184.361 41.9941 183.89 42.3081C183.655 42.4651 183.341 42.7005 183.105 42.8575C183.027 42.8575 183.027 42.8575 182.948 42.8575C182.87 42.6221 182.87 42.4651 182.791 42.2296C182.634 41.4447 182.556 40.6597 182.477 39.8748C182.399 38.3049 182.399 36.735 182.634 35.2436C183.027 32.4179 178.945 31.0835 178.239 34.0662C177.532 37.1275 176.669 41.5231 174.471 43.878C171.645 46.8607 172.587 40.5027 172.509 39.3253C172.43 36.8135 168.741 36.1856 168.034 38.6974C167.093 42.3081 165.601 45.6833 163.325 48.7446C163.011 49.137 162.775 49.5295 162.461 49.8435L162.383 49.922C162.383 49.8435 162.304 49.8435 162.304 49.765C162.147 49.3725 161.99 49.0585 161.912 48.6661C161.441 46.9392 161.441 45.1339 161.441 43.407C161.441 40.4242 157.124 40.5027 156.888 43.407C156.731 46.0758 156.025 48.7446 154.926 51.1779C154.691 51.7273 153.749 54.0821 153.042 54.3176C152.022 54.5531 152.022 51.8843 152.022 51.1779C151.865 48.0381 152.022 44.8984 152.493 41.7586C154.141 39.7178 155.711 37.6769 157.281 35.6361C158.772 33.6738 161.676 31.005 160.735 28.1792C159.95 25.8244 157.045 24.804 154.848 25.5889C152.179 26.5308 151.158 29.3566 150.295 31.7899C149.353 34.3802 148.725 37.1275 148.254 39.7963C145.742 42.8575 143.23 45.9188 140.562 48.9801C138.678 51.1779 141.818 54.3961 143.78 52.1983C145.036 50.7854 146.213 49.3725 147.469 47.8811C147.469 49.2155 147.469 50.5499 147.548 51.8058C147.705 54.6316 148.647 57.8499 151.708 58.7133C155.083 59.6552 157.124 56.594 158.458 54.0037C158.615 53.6897 158.772 53.2972 158.929 52.9832C160.028 54.5531 161.755 55.652 163.717 54.6316C165.837 53.5327 167.564 50.3929 168.741 48.3521C168.898 48.0381 169.055 47.8026 169.212 47.4887C170.468 48.7446 172.195 49.2155 174 48.8231C175.962 48.4306 177.532 47.0962 178.71 45.3693C179.024 46.1543 179.495 46.7822 180.201 47.1747C183.655 49.3725 188.835 43.878 190.719 41.4447C191.818 40.6597 191.975 39.4823 191.033 38.4619Z" fill="#EF4036"/>
<path d="M180.359 25.0396C177.454 25.0396 177.454 29.5922 180.359 29.5922C183.263 29.5922 183.263 25.0396 180.359 25.0396Z" fill="#39B100"/>
<path d="M96.685 55.1813C96.528 54.7103 96.214 54.3178 95.8215 54.0823C95.8215 54.0038 95.8215 53.9254 95.743 53.8469C95.5075 52.591 94.4871 52.1985 93.5452 52.277C93.3882 50.6286 91.4259 49.8437 90.0915 50.5501C89.3065 49.0587 87.0302 48.9802 86.0883 50.5501C85.0679 49.8437 83.5765 49.8437 82.9485 50.9426C81.6142 50.1577 79.4163 50.7071 79.4163 52.7479C79.4163 54.0038 79.2593 55.1813 79.0239 56.3587C78.7884 56.2802 78.5529 56.2802 78.3174 56.2017C78.4744 54.5533 78.7099 52.9049 78.8669 51.1781C79.1808 48.7448 75.8056 48.4308 74.6282 50.0007C74.0002 50.8641 73.4508 51.649 72.8228 52.5125C72.0379 51.0996 69.997 50.5501 68.9766 52.3555C68.5841 53.1404 68.1132 53.9254 67.7207 54.6318C67.4068 54.4748 67.0143 54.3178 66.6218 54.3178C66.6218 53.8469 66.7003 53.2974 66.7003 52.8264C66.7788 50.4716 64.0315 50.0792 62.6971 51.492C61.7552 50.2361 59.4789 50.3146 58.6939 51.8845C57.752 50.9426 56.1036 50.7856 55.3972 52.3555C55.2402 52.6694 55.0832 52.9049 54.9262 53.2189C54.1413 52.277 52.6499 51.8845 51.708 52.591C50.6875 51.492 48.4897 51.5705 47.7833 53.4544C47.7833 53.5329 47.7048 53.6114 47.7048 53.6114C46.9199 52.12 44.6435 51.649 43.7801 53.3759C43.5446 53.7684 43.3877 54.1608 43.1522 54.5533C43.1522 54.4748 43.1522 54.3963 43.1522 54.3963C42.9167 52.1985 40.1694 51.2566 38.9135 53.2189C38.7565 53.5329 38.5995 53.7684 38.364 54.0823C37.1866 53.2974 35.3813 53.5329 34.8318 55.2597C34.2823 57.3791 33.9684 59.4984 33.9684 61.6177C33.9684 63.8941 37.0297 64.679 38.2071 62.7952C38.2856 62.7167 38.2855 62.6382 38.364 62.5597C38.2855 64.9145 41.0328 65.9349 42.5242 63.8941C43.0737 63.1876 43.5446 62.4812 44.0156 61.7747C44.722 62.9521 46.4489 63.5801 47.5478 62.3242C47.8618 61.9317 48.1758 61.5393 48.4897 61.0683C48.8037 61.2253 49.1962 61.3038 49.5887 61.3038C49.5887 61.5393 49.5887 61.8532 49.6671 62.0887C49.9811 64.365 52.4929 65.15 53.9058 63.2661C54.3768 62.6382 54.8477 62.0102 55.2402 61.3823C55.8681 62.3242 57.1241 62.6382 58.1445 62.0102C58.9294 63.0306 60.7348 63.1091 61.7552 62.0887C62.5402 62.8736 63.8745 63.1091 64.9734 62.1672C65.0519 62.0887 65.1304 62.0102 65.2089 61.9317C66.0723 62.8736 67.6422 63.1091 68.5841 61.9317C69.0551 62.3242 69.7616 62.5597 70.3895 62.4027C70.1541 65.9349 69.997 69.5456 69.9185 73.0778C69.6046 73.4703 69.3691 73.9413 69.3691 74.5692C68.9766 83.596 68.5057 92.6228 68.1132 101.65C67.9562 104.554 72.4303 104.554 72.6658 101.65C72.7443 100.629 72.8228 99.5303 72.9013 98.5098C73.8432 98.3529 74.7067 97.6464 74.7852 96.312C74.7852 96.0765 74.7852 95.8411 74.7852 95.6056C75.8841 95.6056 76.9045 94.8206 76.9045 93.4077C76.9045 88.9336 76.9045 84.4594 76.7475 79.9853C76.826 76.4531 76.9045 72.9209 77.0615 69.4671C77.9249 68.1327 78.5529 66.7198 79.1023 65.2285C79.7303 65.0715 80.2798 64.7575 80.5937 64.208C80.7507 63.8941 80.9077 63.5801 81.1432 63.2661C81.2216 63.2661 81.3787 63.3446 81.4571 63.3446C81.5356 63.3446 81.6142 63.4231 81.7711 63.4231C85.4604 64.365 89.7775 65.307 93.1527 63.1091C93.8592 62.6382 94.4871 62.0887 94.9581 61.5393C95.4291 61.3038 95.8215 60.8328 95.9 60.2049C96.9204 58.792 97.2344 56.9866 96.685 55.1813Z" fill="#39B100"/>
<path d="M127.061 57.1432L123.843 57.0647C122.666 57.0647 121.567 58.0852 121.567 59.3411C121.724 64.1292 121.331 68.9173 120.154 73.5484C120.154 73.6269 120.154 73.6269 120.154 73.7054C119.291 73.7839 118.506 74.0979 117.878 74.7259C117.171 75.4323 116.857 76.6882 116.072 77.2377C114.816 78.1796 113.482 77.1592 112.697 75.9033C112.619 75.6678 112.54 75.4323 112.54 75.1183C111.912 72.685 111.52 70.2517 111.284 67.8184C110.813 62.7948 110.892 57.7712 111.755 52.8261C112.226 50.0003 107.83 48.7444 107.359 51.6487C107.202 52.6691 107.045 53.611 106.967 54.6314C106.339 54.7884 105.79 55.3379 105.633 56.2013C105.633 56.4368 105.554 56.5938 105.554 56.8293C104.691 63.2658 104.926 69.6238 106.418 75.9818C107.516 80.6914 109.322 87.8343 114.738 89.2472C120.782 90.8171 123.294 84.0666 124.864 79.671C127.218 73.0775 129.102 66.4055 129.416 59.4196C129.416 58.1637 128.239 57.1432 127.061 57.1432Z" fill="#39B100"/>
<path d="M8.61471 117.349H2.1782C-0.726068 117.349 -0.726068 121.901 2.1782 121.901H8.61471C11.519 121.823 11.519 117.349 8.61471 117.349Z" fill="#39B100"/>
<path d="M9.79245 151.728C8.85053 150.786 7.5946 150.943 6.57418 151.728C5.23978 152.749 3.66995 153.534 2.10007 154.083C0.922662 154.476 0.137724 155.653 0.530193 156.909C0.844169 158.008 2.17854 158.871 3.35595 158.479C5.71077 157.615 7.83011 156.438 9.79245 154.946C10.7344 154.162 10.5774 152.513 9.79245 151.728Z" fill="#EF4036"/>
<path d="M315.919 72.8424C314.82 72.2145 313.486 72.607 312.779 73.6274C312.308 74.3338 311.366 74.7263 310.503 74.6478C307.599 74.5693 307.599 79.122 310.503 79.2004C313.015 79.2789 315.291 77.9445 316.704 75.9037C317.41 74.8833 316.939 73.3919 315.919 72.8424Z" fill="#EF4036"/>
<path d="M318.586 107.223C318.272 105.967 317.016 105.417 315.76 105.653C315.525 105.731 314.975 105.653 314.583 105.574C314.034 105.417 313.72 105.26 313.249 104.868C312.307 104.083 310.737 104.711 310.109 105.653C309.402 106.83 309.952 108.008 310.894 108.793C312.621 110.127 314.818 110.441 316.859 110.049C318.194 109.813 318.9 108.322 318.586 107.223Z" fill="#39B100"/>
<path d="M316.546 138.071C315.211 136.972 313.877 135.795 312.543 134.696C311.601 133.911 310.266 133.754 309.324 134.696C308.54 135.481 308.383 137.129 309.324 137.914C310.659 139.013 311.993 140.191 313.328 141.29C314.27 142.074 315.604 142.231 316.546 141.29C317.331 140.505 317.488 138.856 316.546 138.071Z" fill="#EF4036"/>
<path d="M307.126 165.936C306.576 165.073 306.027 164.131 305.556 163.267C304.928 162.247 303.515 161.776 302.416 162.482C301.396 163.11 300.925 164.523 301.631 165.622L303.201 168.291C303.829 169.311 305.242 169.782 306.341 169.076C307.361 168.369 307.832 166.956 307.126 165.936Z" fill="#39B100"/>
<path d="M18.8193 81.6338C18.4269 80.7704 18.1129 79.8284 17.7204 78.965C17.2494 77.8661 16.1505 77.0027 14.8946 77.3951C13.7957 77.7091 12.8538 79.0435 13.3248 80.2209C13.7172 81.0843 14.0312 82.0263 14.4236 82.8897C14.8946 83.9886 15.9935 84.852 17.2494 84.4596C18.2699 84.0671 19.2903 82.8112 18.8193 81.6338Z" fill="#EF4036"/>
<path d="M17.1698 180.536C16.0709 179.908 14.7365 180.3 14.0301 181.321C13.4021 182.262 12.2247 182.89 11.2043 182.969C9.94842 183.047 8.92798 183.911 8.92798 185.245C8.92798 186.423 9.94842 187.6 11.2043 187.522C14.0301 187.286 16.3849 185.952 17.9548 183.597C18.6612 182.655 18.1902 181.164 17.1698 180.536Z" fill="#39B100"/>
<path d="M95.5853 251.886C95.1929 251.494 94.5649 251.18 94.0154 251.258C93.466 251.258 92.838 251.494 92.4456 251.886C92.0531 252.357 91.8176 252.907 91.8176 253.456V254.555C91.8176 255.104 92.0531 255.732 92.4456 256.125C92.838 256.517 93.466 256.831 94.0154 256.753C94.5649 256.753 95.1929 256.517 95.5853 256.125C95.9778 255.654 96.2133 255.104 96.2133 254.555V253.456C96.2133 252.907 95.9778 252.279 95.5853 251.886Z" fill="#39B100"/>
<path d="M123.845 259.186C120.94 259.186 120.94 263.739 123.845 263.739C126.749 263.739 126.749 259.186 123.845 259.186Z" fill="#EF4036"/>
<path d="M163.327 254.948C160.423 254.948 160.423 259.5 163.327 259.5C166.231 259.5 166.231 254.948 163.327 254.948Z" fill="#39B100"/>
<path d="M194.802 245.843C191.897 245.843 191.897 250.395 194.802 250.395C197.706 250.395 197.706 245.843 194.802 245.843Z" fill="#EF4036"/>
<path d="M216.624 234.696C213.719 234.696 213.719 239.249 216.624 239.249C219.528 239.17 219.606 234.696 216.624 234.696Z" fill="#39B100"/>
<path d="M124.943 3.84635L124.394 3.2969C124.001 2.90443 123.374 2.66895 122.824 2.66895C122.275 2.66895 121.568 2.90443 121.254 3.2969C120.862 3.76786 120.548 4.31732 120.626 4.86677C120.626 5.49472 120.862 6.04418 121.254 6.43665L121.804 6.9861C122.196 7.37857 122.824 7.61406 123.374 7.61406C123.923 7.61406 124.629 7.37857 124.943 6.9861C125.336 6.51514 125.65 5.96569 125.571 5.41623C125.571 4.86677 125.336 4.23882 124.943 3.84635Z" fill="#39B100"/>
<path d="M153.67 0C150.765 0 150.765 4.55264 153.67 4.55264C156.652 4.47415 156.652 0 153.67 0Z" fill="#EF4036"/>
<path d="M183.577 5.33716C180.673 5.33716 180.673 9.8898 183.577 9.8898C186.482 9.81131 186.482 5.33716 183.577 5.33716Z" fill="#39B100"/>
<path d="M207.596 12.2451C204.692 12.2451 204.692 16.7978 207.596 16.7978C210.501 16.7978 210.501 12.2451 207.596 12.2451Z" fill="#EF4036"/>
<path d="M187.423 79.5141C187.423 79.7496 187.345 79.9851 187.345 80.2206C187.031 80.4561 186.874 80.8485 186.717 81.3195C184.833 89.5613 184.048 97.9602 184.362 106.359C184.519 109.342 188.6 109.185 188.914 106.359C189.071 105.103 189.228 103.847 189.307 102.591C190.249 102.356 191.034 101.649 191.034 100.472C191.034 95.8409 191.112 91.2097 191.112 86.5786C191.348 84.2238 191.662 81.869 191.897 79.5141C192.29 76.6099 187.737 76.6099 187.423 79.5141Z" fill="#39B100"/>
<path d="M188.601 64.6793C189.072 63.5804 188.915 62.1675 187.816 61.5396C186.795 60.9901 185.225 61.2256 184.676 62.3245C184.519 62.6385 184.362 63.031 184.205 63.3449C183.97 63.5804 183.812 63.8944 183.734 64.2869C183.734 64.4439 183.656 64.5223 183.656 64.6793C183.499 64.9933 183.342 65.3858 183.185 65.6997C182.714 66.7987 182.871 68.2116 183.969 68.8395C184.676 69.232 185.382 69.232 185.932 68.918C186.717 68.761 187.423 68.2116 187.659 67.3481C187.737 67.0341 187.816 66.7202 187.894 66.4847C187.973 66.3277 187.973 66.1707 188.051 66.0137C188.13 65.6213 188.365 65.1503 188.601 64.6793Z" fill="#39B100"/>
<path d="M212.149 48.6658C213.484 49.7647 214.347 50.6281 215.289 51.2561C215.995 51.727 216.78 51.884 217.565 52.2765C219.999 53.6109 220.548 55.0238 219.92 57.6926C219.606 59.1054 219.685 60.6753 219.606 62.1667C219.528 63.1086 219.606 64.1291 219.528 65.071C218.507 73.2343 217.33 81.3977 216.388 89.5611C215.603 96.076 214.975 102.67 214.269 109.185C214.269 109.498 214.269 109.812 214.269 110.126C214.504 110.205 214.74 110.283 214.975 110.362C215.917 107.85 217.094 105.417 217.644 102.827C220.47 89.4826 225.807 76.9235 230.674 64.286C232.087 60.5183 233.971 56.9076 235.933 53.3754C236.953 51.57 238.523 49.6077 240.957 50.1572C243.468 50.7066 243.625 53.2969 243.704 55.1808C243.782 57.5356 243.39 59.9689 242.605 62.1667C239.701 70.1731 236.404 78.0225 233.578 86.0288C231.223 92.7793 229.418 99.6867 227.22 106.516C225.729 111.147 223.845 115.543 220.941 119.467C216.545 125.354 214.583 132.262 213.405 139.326C212.856 143.015 211.364 146.155 209.402 149.138C207.518 152.042 205.006 151.964 203.672 148.824C202.573 146.234 201.867 143.251 201.867 140.504C201.788 133.439 202.259 126.375 202.495 119.31C202.573 116.013 202.73 112.717 202.573 109.42C202.338 105.181 203.279 101.335 205.32 97.8029C206.812 95.2911 207.047 92.6223 206.341 89.875C204.614 82.7321 205.634 75.8246 208.382 69.1527C209.638 66.0914 209.794 63.5011 208.068 60.5968C205.006 54.9453 207.675 50.3141 212.149 48.6658ZM240.564 51.8055C239.23 52.8259 238.052 53.4539 237.346 54.4743C236.247 56.0442 235.226 57.6926 234.52 59.4979C231.694 66.7978 228.947 74.0978 226.278 81.4762C224.237 87.1277 222.04 92.7793 220.548 98.6663C219.214 103.925 217.958 109.028 215.054 113.659C214.583 114.365 213.641 114.758 213.013 115.307C212.62 114.601 212.149 113.894 211.835 113.109C211.678 112.795 211.678 112.324 211.757 111.853C212.149 108.007 212.463 104.239 212.934 100.393C214.347 86.9707 216.702 73.7053 217.408 60.2044C217.408 59.8119 217.565 59.4194 217.644 58.9485C218.429 55.1808 218.35 55.0238 214.661 53.6109C213.876 53.2969 213.17 52.9829 212.385 52.669C210.187 51.884 208.853 52.5905 208.853 55.0238C208.853 56.4367 209.167 58.085 209.873 59.3409C211.678 62.5592 212.071 65.5419 210.422 69.0742C207.675 75.1967 206.89 81.7902 208.225 88.3836C209.01 92.3083 208.931 95.8406 206.89 99.2943C205.242 102.12 204.771 105.103 204.771 108.4C204.771 116.327 204.614 124.334 204.457 132.262C204.378 136.029 204.221 139.797 204.378 143.565C204.457 145.527 205.006 147.489 206.969 148.902C209.01 146.312 210.736 143.722 211.286 140.582C212.777 132.183 215.211 124.177 220.313 117.191C223.295 113.109 224.865 108.478 226.357 103.69C228.241 97.7244 229.732 91.6804 231.773 85.7934C234.677 77.473 237.895 69.3096 241.192 61.1463C242.291 58.085 241.977 55.2593 240.564 51.8055Z" fill="white"/>
<path d="M103.985 214.444C101.866 215.936 100.217 217.113 98.5688 218.133C97.8624 218.526 96.9989 218.683 96.214 218.918C96.057 218.133 95.8215 217.348 95.8215 216.563C95.586 211.54 98.5688 208.086 102.18 205.496C108.145 201.257 111.52 195.213 114.66 188.934C119.762 178.729 126.12 169.389 133.656 160.911C137.816 156.202 142.682 152.199 149.119 150.943C150.924 150.55 152.965 150.707 154.77 151.178C159.245 152.356 161.285 156.123 159.794 160.597C157.753 166.641 154.456 171.979 150.767 177.081C143.703 186.971 134.362 194.585 125.257 202.356C120.076 206.752 116.073 211.697 113.954 218.133C113.561 219.311 113.483 220.724 113.797 221.901C114.346 223.942 115.602 224.413 117.721 224.177C122.352 223.628 125.649 220.488 129.103 217.898C133.185 214.915 137.031 211.618 141.112 208.479C141.662 208.008 142.682 208.086 143.467 207.851C143.389 208.714 143.546 209.578 143.232 210.362C142.368 212.717 141.426 215.072 140.406 217.348C140.014 218.212 139.229 219.075 138.444 219.625C132.635 223.863 127.141 228.495 120.39 231.399C116.387 233.047 112.384 233.126 108.302 232.655C105.947 232.341 102.964 228.573 102.964 225.983C103.043 222.686 103.514 219.468 103.749 216.171C103.671 215.936 103.749 215.543 103.985 214.444ZM98.4903 215.308C99.8247 214.444 100.924 213.973 101.866 213.188C103.121 212.168 104.22 210.912 105.555 209.892C106.026 209.499 106.889 209.499 107.517 209.342C107.596 209.97 107.831 210.598 107.674 211.226C107.439 212.246 107.046 213.188 106.732 214.13C105.398 217.976 104.456 221.901 105.319 226.061C105.79 228.416 107.203 229.986 109.636 230.457C113.247 231.163 116.701 230.535 120.076 229.044C125.571 226.611 130.594 223.471 135.068 219.389C137.109 217.584 138.679 215.857 139.15 213.11C134.205 216.642 129.495 220.331 124.55 223.549C122.352 224.962 119.762 225.904 117.172 226.454C113.718 227.16 110.578 224.02 111.049 220.488C111.756 215.543 113.718 211.069 116.858 207.301C119.213 204.475 122.274 202.278 125.021 199.844C132.321 193.329 140.014 187.207 146.215 179.436C150.846 173.706 154.535 167.505 157.361 160.754C159.088 156.594 157.282 153.533 152.887 152.748C149.904 152.199 147.157 153.062 144.566 154.475C139.935 157.065 135.932 160.597 132.635 164.836C125.571 173.941 119.291 183.439 114.189 193.8C111.834 198.51 109.636 203.691 104.299 206.202C103.121 206.752 102.101 207.851 101.238 208.871C99.8247 210.598 98.4118 212.325 98.4903 215.308Z" fill="white"/>
<path d="M76.9053 87.755C76.9053 90.7378 76.9053 96.2324 76.9053 101.727C76.9053 102.512 76.5913 103.375 76.5128 104.16C76.2773 105.73 75.4139 106.28 73.844 106.437C67.2505 106.829 67.0935 106.829 67.2505 100.314C67.486 90.6593 68.114 81.0046 68.4279 71.2713C68.5849 64.9918 69.7623 65.1488 62.6978 65.1488C54.142 65.2273 45.5862 65.6198 36.9519 65.9338C35.4605 66.0123 34.6756 65.3843 34.5186 64.0499C34.1261 60.2822 33.8121 56.436 33.5767 52.5898C33.5767 52.1973 34.3616 51.4909 34.9111 51.4124C39.4637 51.0199 44.0948 50.706 48.6475 50.392C53.6711 50.078 58.6162 49.764 63.6398 49.607C66.1516 49.5285 68.6634 50.078 71.1752 50.078C78.3967 50.078 85.5396 49.9995 92.761 49.9995C93.546 49.9995 94.4094 49.9995 95.1943 49.9995C96.8427 50.078 97.5491 50.9414 97.3921 52.5898C96.9997 56.2005 96.6857 59.8112 96.2932 63.422C95.9793 66.0907 95.5868 66.4047 92.918 66.3262C88.8363 66.2477 84.6762 66.1692 80.5945 66.0122C78.6321 65.9338 77.8472 66.7972 77.7687 68.6025C77.5332 74.1756 77.2192 79.7487 76.9053 87.755ZM51.7872 63.5789C51.7872 63.5004 51.7872 63.3435 51.7872 63.265C57.4388 63.265 63.0119 63.265 68.6634 63.265C70.3118 63.265 70.8612 63.8929 70.7827 65.4628C70.4688 69.5445 70.2333 73.7046 70.0763 77.7863C69.7623 86.1067 69.5268 94.3485 69.3698 102.669C69.3698 103.14 70.3118 104.082 70.7827 104.082C71.8817 104.082 73.6085 105.024 74.0795 103.14C74.4719 101.491 74.8644 99.7646 74.8644 98.1162C75.1784 87.6765 75.3354 77.2369 75.5709 66.8757C75.6493 64.2069 75.8063 63.9714 78.5536 63.8929C82.9493 63.8929 87.3449 63.9714 91.7406 64.1284C93.2319 64.2069 93.9384 63.6574 94.0954 62.2445C94.4094 59.4973 94.6448 56.75 94.8803 54.0812C94.9588 52.8253 94.4094 52.4328 93.1535 52.4328C87.8159 52.4328 82.4783 52.4328 77.1407 52.3543C72.6666 52.2758 68.1924 51.8049 63.7968 51.8834C57.5958 51.9619 51.4733 52.4328 45.2723 52.7468C43.0744 52.9038 40.8766 52.9823 38.6788 53.2963C38.0508 53.3747 37.0304 53.9242 36.9519 54.3167C36.6379 56.8285 36.4809 59.3403 36.4024 61.8521C36.3239 63.265 37.1874 63.7359 38.5218 63.6574C42.9959 63.5004 47.3916 63.5789 51.7872 63.5789Z" fill="white"/>
<path d="M124.472 119.388C124.472 122.842 124.394 125.982 124.472 129.121C124.629 133.439 124.865 137.756 125.179 142.073C125.336 144.349 124.551 145.605 122.353 146.312C118.507 147.646 118.428 147.724 117.722 143.721C115.681 132.026 113.797 120.33 111.835 108.635C111.756 108.085 111.678 107.536 111.521 107.065C110.657 104.003 110.579 103.846 113.405 102.669C117.565 100.942 121.803 99.4508 126.042 97.9594C127.847 97.3314 128.083 98.5088 128.397 99.8432C129.339 104.317 130.359 108.792 131.38 113.266C131.615 114.208 132.086 115.15 132.4 116.091C132.557 116.013 132.793 116.013 132.95 115.934C132.557 112.245 132.086 108.556 131.694 104.788C131.38 101.884 131.301 99.0583 131.066 96.154C130.987 94.7411 131.615 93.7207 133.028 93.4067C135.775 92.6218 138.601 91.9154 141.427 91.2089C142.526 90.8949 143.232 91.2089 143.389 92.5433C144.41 103.297 145.509 113.972 146.529 124.647C146.686 126.531 146.843 128.493 146.765 130.377C146.765 131.005 146.058 131.869 145.43 132.183C142.212 133.596 138.837 134.773 135.618 136.264C133.97 137.049 133.264 136.814 132.479 135.165C130.281 130.22 127.847 125.354 125.493 120.487C125.179 120.173 124.865 119.938 124.472 119.388ZM140.799 93.7992C139.386 93.9562 138.052 94.1132 136.717 94.3487C133.107 94.9766 132.793 95.4476 133.185 99.1368C133.735 103.925 134.362 108.713 134.912 113.423C135.304 116.641 135.697 119.859 136.011 122.999C136.089 123.705 135.461 124.412 135.147 125.118C134.676 124.804 133.97 124.569 133.813 124.098C132.714 121.743 131.458 119.388 130.752 116.955C129.26 112.167 128.083 107.3 126.827 102.434C126.592 101.413 126.435 100.314 124.943 100.55C121.097 101.335 117.329 102.434 114.111 104.788C113.719 105.102 113.483 105.809 113.562 106.28C115.053 115.934 116.544 125.511 118.193 135.165C118.664 138.148 119.37 141.209 120.077 144.428C121.411 143.878 122.981 144.271 122.902 142.308C122.745 136.657 122.588 131.084 122.431 125.432C122.353 122.057 122.196 118.682 122.196 115.307C122.196 114.757 122.745 114.129 122.981 113.58C123.452 113.815 124.08 113.972 124.472 114.443C125.1 115.228 125.728 116.091 126.199 117.033C128.789 122.135 131.301 127.238 133.813 132.34C134.441 133.596 135.069 133.91 136.403 133.203C138.209 132.261 139.936 131.319 141.898 130.848C144.253 130.22 144.802 128.807 144.567 126.61C143.782 119.781 143.154 112.952 142.369 106.123C141.741 102.12 141.27 98.0379 140.799 93.7992Z" fill="white"/>
<path d="M244.879 187.443C245.272 183.282 245.743 179.122 246.135 175.041C246.528 171.273 247.548 170.174 251.316 170.252C253.278 170.331 255.241 170.566 257.203 170.802C258.38 170.959 258.616 171.665 258.302 172.764C257.046 177.631 256.654 182.576 256.889 187.678C257.125 191.21 256.654 194.821 256.732 198.353C256.811 202.827 257.046 207.302 257.203 211.697C257.282 214.052 256.654 214.444 254.377 214.444C251.237 214.366 248.098 214.601 244.958 214.994C243.231 215.229 242.446 214.837 242.054 213.11C240.876 207.929 239.62 202.827 238.365 197.725C237.894 195.998 237.344 194.272 236.402 192.623C235.931 195.213 235.539 197.804 234.989 200.394C233.812 205.889 232.634 211.383 231.457 216.878C231.065 218.762 230.044 219.625 228.16 219.39C226.433 219.233 224.707 219.076 223.058 219.076C221.567 218.997 221.331 218.055 221.488 216.956C222.116 211.462 222.666 205.889 223.451 200.394C224.785 191.446 226.355 182.497 227.846 173.628C227.925 173 228.71 172.058 229.338 171.901C231.065 171.508 232.791 171.351 234.597 171.351C236.952 171.273 239.228 171.508 241.583 171.508C243.231 171.508 243.781 172.058 243.781 173.863C243.702 178.416 243.938 182.89 244.016 187.443C244.33 187.364 244.566 187.443 244.879 187.443ZM246.135 195.684H246.214C246.214 196.94 246.371 198.196 246.135 199.374C246.057 199.923 245.193 200.394 244.722 200.865C244.33 200.473 243.781 200.08 243.624 199.609C243.31 198.824 243.074 197.882 243.074 197.019C242.603 189.876 242.211 182.811 241.661 175.668C241.583 174.962 241.112 173.785 240.562 173.628C238.208 173.078 235.853 172.607 233.498 172.529C231.536 172.45 230.123 173.314 229.73 175.668C228.396 183.91 226.826 192.152 225.413 200.394C224.628 205.025 224.236 209.656 223.686 214.287C223.529 215.622 223.843 216.799 225.57 216.799C227.061 216.878 228.867 217.898 229.495 215.308C230.28 211.854 231.457 208.4 232.163 204.947C233.184 199.766 233.89 194.507 234.832 189.326C234.989 188.541 235.46 187.757 235.853 187.05C236.402 187.678 237.109 188.149 237.501 188.855C238.129 190.111 238.678 191.524 239.071 192.859C240.641 198.667 242.211 204.554 243.624 210.363C244.016 212.09 244.958 212.796 246.685 212.561C248.569 212.325 250.531 212.09 252.415 212.168C254.534 212.247 255.005 211.305 254.927 209.499C254.848 206.281 254.927 203.063 255.005 199.845C255.241 192.074 255.319 184.381 255.79 176.61C256.026 172.215 256.026 171.901 251.473 172.136C251.237 172.136 251.08 172.215 250.845 172.136C249.118 172.136 248.412 173.078 248.255 174.648C247.47 181.713 246.763 188.698 246.135 195.684Z" fill="white"/>
<path d="M44.1728 207.615C44.8008 208.792 45.5072 209.891 46.1352 211.147C47.7836 214.522 49.6674 217.819 51.0018 221.351C52.4147 224.962 52.0222 228.651 50.0599 232.027C49.1964 233.518 48.4115 235.088 47.6266 236.579C45.4288 240.582 41.818 242.466 37.4224 243.016C36.0095 243.173 34.2041 243.722 33.2622 243.094C31.1428 241.603 29.1805 239.641 27.6891 237.6C24.7849 233.597 24.5494 228.887 24.8634 224.177C24.9419 222.607 25.7268 221.037 26.2763 219.468C26.4332 218.997 27.0612 218.369 27.5321 218.29C29.573 217.819 31.6923 217.427 33.8116 217.113C35.2245 216.877 35.46 217.584 35.303 218.997C35.0676 221.037 34.9891 223.235 35.3815 225.276C35.5385 226.14 36.9514 226.846 37.8149 227.631C38.5213 226.689 39.6202 225.904 39.8557 224.884C40.4836 222.136 39.6987 219.546 38.3643 217.034C36.8729 214.209 35.617 211.226 34.5966 208.243C33.1837 203.926 35.8525 198.117 40.4051 194.899C41.1116 194.35 41.8965 193.879 42.6814 193.408C45.5857 191.681 48.647 191.995 51.0018 194.35C53.6706 197.175 55.0835 200.551 54.7695 204.475C54.6125 206.752 53.9061 207.223 51.6297 207.223C49.3534 207.223 46.9986 207.223 44.7223 207.223C44.4868 207.223 44.3298 207.38 44.1728 207.615ZM48.176 204.554C49.1179 204.554 49.9814 204.711 50.6878 204.475C51.2373 204.318 52.0222 203.533 51.9437 203.062C51.6298 201.1 51.4727 199.059 50.5308 197.332C48.5685 193.565 45.3503 193.015 41.975 195.684C40.8761 196.547 39.8557 197.489 39.0707 198.588C36.7944 201.807 35.8525 205.182 37.8149 209.028C39.2277 211.854 40.4051 214.836 41.5826 217.741C42.8385 220.802 43.0739 223.863 41.661 226.925C40.7976 228.808 39.3062 230.064 37.2654 230.221C35.5385 230.3 33.6547 228.651 33.0267 226.532C32.6342 224.962 32.3203 223.314 32.3203 221.744C32.3203 220.174 31.6923 219.782 30.3579 219.939C29.0236 220.096 28.0031 220.724 27.6891 222.136C26.4332 228.73 27.5321 234.695 32.4772 239.641C33.1052 240.268 34.2826 240.739 35.2245 240.818C41.818 241.289 49.7459 233.518 49.3534 226.846C49.0394 222.372 47.0771 218.29 45.0362 214.366C43.7803 211.854 42.289 209.499 41.1901 206.909C40.0127 204.083 40.6406 201.336 42.5245 198.981C44.0159 197.097 45.6642 197.175 46.6061 199.373C47.3911 200.865 47.6265 202.67 48.176 204.554Z" fill="white"/>
<path d="M236.873 134.538C237.266 132.262 237.894 129.2 238.443 126.061C239.306 121.272 240.013 116.406 240.876 111.618C243.153 99.6867 245.429 87.7556 247.941 75.903C249.511 68.4461 250.531 60.8322 254.063 53.9248C255.398 51.256 258.694 49.4506 261.677 49.8431C268.192 50.7065 273.373 57.2215 271.646 64.443C269.37 74.3332 267.8 84.3804 266.073 94.3491C265.602 97.0964 265.602 100.001 265.837 102.748C266.465 110.754 265.602 118.525 262.698 126.061C260.578 131.477 258.38 136.893 256.026 142.23C255.005 144.428 253.514 146.469 252.022 148.431C250.06 151.022 247.077 151.336 244.566 149.295C242.525 147.568 240.641 145.684 238.757 143.722C238.129 143.094 237.815 142.073 237.658 141.131C237.344 139.326 237.187 137.364 236.873 134.538ZM238.679 135.715C238.522 140.032 240.484 143.172 243.702 145.92C247.941 149.53 249.354 149.609 252.258 144.742C255.869 138.777 258.616 132.262 260.892 125.668C263.169 118.918 264.738 112.01 263.954 104.867C263.326 98.4308 264.189 92.1513 265.445 85.8718C266.936 78.3364 268.349 70.801 269.841 63.2655C271.253 56.3581 266.465 52.5119 260.892 51.6485C259.95 51.4915 258.537 52.0409 257.753 52.7474C254.063 55.8871 253.121 60.5183 252.179 64.8354C250.139 74.8041 248.569 84.8513 246.606 94.7416C244.958 103.219 242.839 111.618 241.19 120.095C240.248 125.276 239.542 130.535 238.679 135.715Z" fill="white"/>
<path d="M27.3726 153.14C27.0586 146.233 26.7447 139.325 26.4307 132.418C26.4307 131.947 26.2737 131.476 26.1952 131.005C25.4102 128.336 25.6457 128.022 28.236 127.708C30.1199 127.473 32.0822 127.394 33.9661 127.237C35.536 127.159 36.3209 127.865 36.0069 129.514C35.6929 131.162 35.536 132.81 35.1435 134.38C33.4951 140.346 32.9456 146.468 33.2596 152.512C33.4166 155.338 34.437 158.321 35.536 160.99C36.9488 164.208 41.109 164.522 43.3069 161.775C46.1326 158.242 47.467 154.239 46.9176 149.687C46.6036 147.096 46.8391 146.782 49.5864 146.547C50.9208 146.39 52.3336 146.154 53.668 145.919C55.7088 145.526 56.1013 145.84 56.1798 147.96C56.4938 154.318 55.0024 160.362 52.6476 166.17C51.6272 168.604 50.3713 171.037 49.0369 173.313C47.0746 176.531 43.0714 177.866 39.3037 176.924C32.1607 175.119 29.7274 171.037 28.393 163.972C27.7651 160.44 27.4511 156.829 26.9801 153.219C27.1371 153.219 27.2941 153.219 27.3726 153.14ZM30.1199 152.041C29.9629 158.792 29.9629 165.621 34.2016 171.429C38.3617 177.002 45.8187 176.139 48.6444 169.859C49.9003 167.112 50.9992 164.129 51.7842 161.225C52.7261 157.614 53.1971 153.847 53.7465 150.158C53.825 149.687 53.3541 148.902 52.9616 148.745C51.2347 148.038 49.5079 149.373 49.4294 151.256C49.2724 155.417 48.0165 159.263 45.6617 162.56C44.7982 163.815 43.3853 164.993 41.8939 165.542C37.9692 166.877 33.3382 164.365 31.9253 160.126C31.2188 157.457 30.7478 154.71 30.1199 152.041ZM29.3349 146.782C29.7274 146.782 30.1199 146.861 30.5123 146.861C30.6693 145.369 30.8263 143.878 31.0618 142.387C31.6898 139.09 32.3962 135.793 32.9457 132.496C33.1027 131.554 33.0241 130.22 32.4747 129.749C32.0037 129.278 30.4339 129.514 29.8059 129.985C29.2565 130.377 29.1779 131.633 29.0995 132.496C29.0995 133.909 29.3349 135.322 29.3349 136.814C29.3349 140.11 29.3349 143.486 29.3349 146.782Z" fill="white"/>
<path d="M272.983 139.797C273.689 134.302 274.71 128.415 275.181 122.606C275.73 115.699 275.809 108.792 276.044 101.806C276.28 95.9971 276.28 90.1101 276.672 84.3015C277.222 77.0801 278.085 69.8587 278.87 62.5587C279.262 58.8695 279.498 55.1803 280.204 51.5696C280.44 50.4707 281.617 48.9793 282.716 48.6653C283.58 48.3513 285.385 49.1363 286.013 49.9997C288.682 53.9244 291.115 57.8491 290.173 63.1082C289.388 67.2684 289.702 71.5855 289.388 75.8242C289.074 79.9059 288.525 83.9875 288.132 88.0692C287.975 89.8746 287.818 91.7584 287.661 93.5638C287.112 98.1164 286.405 102.669 285.856 107.222C285.306 111.46 284.835 115.621 284.365 119.859C283.658 126.139 283.109 132.418 282.324 138.698C282.01 141.445 281.46 144.114 280.832 146.783C280.518 148.117 280.047 149.608 278.242 149.373C276.515 149.137 274.71 148.666 274.317 146.626C273.611 144.585 273.375 142.387 272.983 139.797ZM275.024 139.483C275.338 141.602 275.416 143.564 275.887 145.37C276.044 146.076 276.986 146.547 277.614 147.175C278.085 146.547 278.791 145.998 278.87 145.37C279.969 137.991 281.146 130.613 282.01 123.156C282.638 118.368 282.245 113.423 283.423 108.87C285.699 99.8433 285.463 90.5025 286.955 81.3188C287.897 75.4317 287.19 69.3877 288.054 63.5007C288.682 59.1835 286.955 55.8868 285.228 52.433C284.835 51.7266 283.815 51.2556 283.109 50.7062C282.716 51.4911 282.088 52.3545 282.01 53.1395C280.832 62.6372 279.655 72.2135 278.791 81.7897C278.242 87.9907 277.693 94.2702 277.928 100.471C278.242 107.928 277.85 115.307 277.065 122.685C276.515 128.415 275.73 134.067 275.024 139.483Z" fill="white"/>
<path d="M158.617 225.434C153.122 225.355 148.805 220.332 149.119 214.052C149.668 203.613 153.436 194.507 160.657 186.972C164.111 183.44 168.35 181.006 173.295 179.986C177.848 178.965 182.714 181.242 184.755 185.323C185.618 187.05 185.697 188.699 184.127 190.19C178.319 195.449 172.039 199.923 165.053 203.299C160.971 205.261 159.637 209.264 158.538 213.346C158.146 214.837 159.559 215.465 160.579 215.073C162.227 214.366 163.797 213.346 165.053 212.168C166.231 210.991 167.015 209.343 167.957 207.93C168.978 206.36 170.469 205.653 172.353 205.889C173.687 206.046 175.1 206.046 176.435 206.203C177.926 206.281 178.476 207.066 177.691 208.401C174.001 215.151 169.213 220.881 162.306 224.492C161.285 225.041 159.873 225.12 158.617 225.434ZM175.022 209.107C172.196 207.537 170.469 207.93 168.821 210.52C167.015 213.346 165.053 215.936 161.756 217.113C159.794 217.82 157.989 217.192 156.89 215.936C156.183 215.151 156.105 213.346 156.497 212.168C157.204 209.971 158.617 208.008 159.323 205.81C160.108 203.377 161.992 202.514 163.954 201.572C170.234 198.589 176.042 194.743 181.38 190.269C184.363 187.757 183.264 185.402 180.752 183.518C179.574 182.655 177.848 182.105 176.356 182.027C170.469 181.713 165.838 184.539 162.07 188.542C155.241 195.842 151.317 204.554 151.474 214.602C151.552 220.803 155.398 224.884 161.285 222.608C167.486 220.096 171.49 214.837 175.022 209.107Z" fill="white"/>
<path d="M130.436 60.518C130.044 69.9373 128.238 78.8856 122.43 86.6565C121.959 87.2844 121.488 88.0694 120.938 88.6188C117.563 91.7586 115.365 92.308 111.755 89.7177C107.281 86.578 105.004 82.4178 104.376 77.2372C103.434 69.2308 103.042 61.2245 104.533 53.2181C104.847 51.5697 105.554 50.7848 107.281 50.9418C108.693 51.0203 110.185 50.7848 111.598 50.6278C113.403 50.4708 114.266 51.3342 114.031 53.0611C113.639 56.5148 113.089 59.9686 112.697 63.5008C112.383 66.0911 112.147 68.6814 111.99 71.2717C111.912 71.8996 111.99 72.6061 112.304 73.077C113.168 74.3329 114.266 75.3534 115.287 76.5308C115.993 75.5103 117.092 74.5684 117.406 73.4695C118.191 70.7222 118.741 67.8964 119.212 65.0707C119.683 62.1664 119.918 59.2621 120.311 56.2794C120.546 54.788 121.488 54.474 122.901 54.8665C124.549 55.3374 126.198 55.8869 127.924 56.0439C130.044 56.2794 130.75 57.2998 130.593 59.2621C130.358 59.5761 130.436 60.0471 130.436 60.518ZM105.475 65.6986C105.868 69.3878 106.103 73.391 106.653 77.3942C107.124 80.6124 108.222 83.5952 110.813 85.95C115.365 90.1102 117.406 90.1102 120.938 85.0081C126.119 77.6297 128.395 69.3878 128.474 60.4395C128.474 58.8697 127.846 58.2417 126.433 57.8492C122.116 56.6718 121.802 56.9073 121.566 61.3815C121.566 61.6169 121.566 61.9309 121.566 62.1664C121.252 67.2685 120.703 72.2921 118.034 76.8447C117.092 78.4931 115.679 79.1211 114.109 78.1006C112.854 77.3157 111.362 76.1383 110.97 74.8039C110.263 72.4491 109.949 69.8588 110.106 67.347C110.342 63.5793 111.205 59.8901 111.676 56.1224C112.147 52.9826 110.891 51.8837 107.987 53.2181C107.124 53.6106 106.417 55.102 106.26 56.1224C105.789 59.3406 105.711 62.3234 105.475 65.6986Z" fill="white"/>
<path d="M161.834 50.4705C162.776 49.45 163.875 48.5866 164.503 47.4877C166.151 44.6619 167.642 41.6792 169.134 38.7749C169.369 38.3824 169.448 37.833 169.84 37.519C170.154 37.205 170.704 37.048 171.175 36.891C171.332 37.362 171.724 37.9115 171.646 38.3039C171.41 39.4813 170.861 40.6587 170.704 41.9146C170.547 43.406 170.782 44.9759 170.861 46.4673C171.096 46.5458 171.253 46.6243 171.489 46.7028C172.195 46.1533 173.137 45.7608 173.608 44.9759C175.335 42.2286 176.983 39.4028 178.632 36.5771C179.103 35.7921 179.416 35.0072 180.044 34.3007C180.358 33.9868 180.986 33.9868 181.457 33.8298C181.614 34.3007 181.928 34.8502 181.771 35.2427C181.3 36.734 180.515 38.1469 180.201 39.7168C179.887 41.2867 180.123 42.8566 180.123 44.4264C181.222 43.563 182.478 42.7781 183.498 41.8361C184.205 41.1297 184.676 40.1878 185.304 39.3243C185.618 38.9319 186.088 38.7749 186.481 38.5394C186.716 39.0104 187.109 39.4813 187.109 39.9523C187.109 40.5018 186.795 41.1297 186.402 41.6007C185.225 43.0136 184.048 44.5049 182.792 45.8393C180.437 48.1941 178.946 47.8017 177.219 44.191C176.434 45.1329 175.727 45.9963 174.942 46.8597C172.117 49.921 170.311 49.764 168.27 45.8393C167.642 46.8598 167.093 47.7232 166.465 48.5081C165.759 49.45 165.131 50.392 164.267 51.1769C161.755 53.5317 160.735 53.3747 158.694 50.6275C157.595 51.9618 156.575 53.2962 155.476 54.6306C155.162 55.0231 154.926 55.4156 154.534 55.7296C153.043 57.0639 151.473 58.6338 149.275 57.9274C146.999 57.2209 146.606 54.9446 146.371 52.9038C146.292 52.3543 146.214 51.8834 146.057 51.0984C145.193 51.5694 144.644 52.0403 143.937 52.2758C143.466 52.4328 142.838 52.1973 142.289 52.1188C142.446 51.6479 142.524 51.0984 142.838 50.7059C143.231 50.235 143.78 49.921 144.251 49.5285C145.743 48.0372 146.685 46.4673 146.999 44.191C147.784 38.1469 150.295 32.8878 154.848 28.7277C155.476 28.1782 156.339 27.7073 157.203 27.6288C159.244 27.4718 160.342 29.1201 159.244 31.161C157.046 35.3212 154.612 39.4028 152.179 43.4845C151.394 44.8189 150.217 45.9178 149.196 47.1737C147.862 48.8221 147.783 53.6102 149.196 55.1801C149.589 55.6511 151.002 55.808 151.394 55.4156C155.005 52.6683 157.674 49.1361 159.008 44.7404C159.401 43.4845 159.872 42.1501 160.578 40.9727C160.892 40.4233 161.755 40.2663 162.383 39.9523C162.54 40.6587 163.09 41.4437 162.854 42.1501C162.54 43.406 161.677 44.5049 161.363 45.7608C160.97 47.1737 160.892 48.6651 160.657 50.1565C161.127 50.1565 161.441 50.3135 161.834 50.4705ZM149.432 43.406C152.493 39.3243 155.947 35.3997 157.36 30.1406C153.906 30.847 149.51 38.2254 149.432 43.406Z" fill="white"/>
<path d="M91.7386 146.233C91.7386 156.83 88.2849 164.758 82.0054 171.351C78.7087 174.805 74.313 174.805 70.0744 173.549C65.6787 172.215 62.9314 169.075 61.6755 164.444C59.0852 155.025 58.9282 145.684 61.283 136.186C62.382 131.791 64.0303 127.709 66.7776 124.098C67.5626 123.078 69.054 122.607 70.2314 121.9C70.5453 121.743 70.9378 121.822 71.2518 121.665C77.0603 119.86 83.3398 122.057 86.2441 127.395C89.5408 133.674 91.8171 140.346 91.7386 146.233ZM89.6193 146.783C89.1484 139.561 87.343 131.712 81.299 125.354C78.9442 122.921 75.3334 122.293 72.2722 123.706C71.8797 123.863 71.3302 124.177 70.9378 124.02C69.4464 123.549 68.8185 124.491 68.112 125.433C62.8529 133.046 61.6755 141.681 61.8325 150.551C61.911 154.868 62.8529 159.263 63.7949 163.502C64.7368 167.741 67.4056 170.723 71.6442 171.665C75.1765 172.45 78.7872 171.979 81.299 168.997C86.3226 163.031 89.4624 156.045 89.6193 146.783Z" fill="white"/>
<path d="M89.1486 15.4624C87.7357 18.0527 86.4799 20.172 85.3809 22.3699C83.2616 26.6085 82.8691 26.687 79.5724 23.3903C77.924 21.7419 76.2757 20.0151 74.6273 18.2882C74.5488 18.2097 74.3918 18.2097 73.9209 18.1312C72.5865 20.8785 71.1736 23.7043 69.8392 26.53C69.2112 27.8644 68.5048 29.2773 67.8768 30.6117C67.4059 31.6321 66.6209 31.8676 65.6005 31.3967C63.8736 30.6117 62.1468 29.7483 60.3414 28.8849C59.9489 28.6494 59.5565 28.4139 58.85 28.0214C57.9081 30.9257 56.9662 33.673 56.1812 36.4203C55.0038 40.502 54.8468 40.6589 50.9221 39.0106C49.6662 38.4611 48.4889 37.6762 47.233 37.0482C47.076 37.2052 46.919 37.2837 46.762 37.4407C46.8405 38.8536 46.919 40.2665 47.076 41.6794C47.233 43.2492 47.4684 44.7406 47.5469 46.3105C47.5469 46.7815 46.9975 47.3309 46.762 47.8804C46.448 47.4094 45.8985 46.9384 45.82 46.4675C45.5061 43.1707 45.1921 39.9525 45.0351 36.6558C44.9566 35.3214 45.6631 34.8504 46.8405 35.3214C48.4104 35.9493 49.9803 36.8127 51.5501 37.5192C53.3555 38.3041 53.5909 38.2256 54.2189 36.4203C55.2393 33.516 56.2597 30.6117 57.2802 27.786C57.9866 25.9021 58.5361 25.7451 60.2629 26.7655C61.5973 27.5505 62.9317 28.3354 64.3446 29.1203C65.679 29.8268 66.6209 29.5913 67.2489 28.0214C68.1123 25.9021 69.2112 23.7828 70.2316 21.7419C71.0951 19.9366 72.037 18.2097 72.9004 16.4043C73.5284 15.07 74.4703 15.4624 75.2552 16.1689C76.5896 17.5033 77.8455 18.9946 79.1799 20.4075C79.8864 21.1925 80.5928 21.8989 81.2993 22.6054C82.0842 23.4688 82.7122 23.3903 83.3401 22.3699C84.6745 19.9366 86.0089 17.5818 87.3433 15.2269C88.2852 13.5001 89.0702 13.2646 90.64 14.599C92.1314 15.8549 93.6228 17.1108 94.9572 18.5237C95.2712 18.8377 95.1142 19.7011 95.1142 20.329C94.6432 20.2505 93.9368 20.2505 93.6228 19.9366C92.1314 18.5237 90.797 17.1108 89.1486 15.4624Z" fill="white"/>
<path d="M197.862 205.967C199.118 204.476 200.688 203.142 201.63 201.493C203.749 197.726 207.36 197.019 211.049 196.47C212.619 196.234 212.619 197.569 212.148 198.432C210.814 200.787 209.636 203.377 207.752 205.34C204.377 208.793 200.609 211.933 196.842 215.073C195.978 215.779 194.801 216.172 193.702 216.643C191.74 217.349 190.091 216.8 188.757 215.23C186.481 212.482 186.167 209.421 187.265 206.124C189.856 198.432 193.309 191.132 197.077 183.911C199.746 178.809 203.906 178.416 208.459 177.945C210.421 177.71 211.049 178.73 210.107 180.457C207.438 185.324 204.613 190.112 201.944 194.978C200.374 197.804 198.883 200.63 197.391 203.534C197.077 204.162 197.156 205.026 197.077 205.732C197.234 205.732 197.548 205.811 197.862 205.967ZM207.831 180.457C204.534 179.829 201.08 180.928 199.746 183.361C196.763 188.856 193.937 194.429 191.269 200.08C190.013 202.828 189.306 205.811 188.678 208.715C188.286 210.834 188.914 213.11 190.876 214.366C192.682 215.465 194.408 214.288 195.821 213.267C198.883 210.913 201.944 208.401 204.77 205.732C206.575 204.005 207.988 201.886 209.793 199.688C208.773 199.531 208.38 199.453 208.066 199.453C205.947 199.61 204.613 200.944 203.278 202.435C201.787 204.162 200.217 205.967 198.569 207.616C197.391 208.793 196.292 208.479 195.35 207.145C194.094 205.418 194.644 203.691 195.586 202.121C197.862 198.197 200.295 194.429 202.572 190.426C204.456 187.129 206.104 183.832 207.831 180.457Z" fill="white"/>
<path d="M261.992 195.135C262.934 189.561 263.562 183.988 264.896 178.572C266.074 173.627 270.313 171.429 274.708 169.703C278.476 168.211 282.008 169.232 285.54 170.409C286.168 170.644 286.875 170.958 287.346 171.351C291.506 175.276 295.352 179.436 295.902 185.637C296.765 195.056 294.175 203.219 287.581 210.048C279.653 218.212 268.115 214.052 264.582 205.81C263.17 202.356 262.306 198.902 262.463 195.213C262.306 195.135 262.149 195.135 261.992 195.135ZM264.19 195.449C264.268 199.295 265.367 202.67 267.094 205.967C270.391 212.403 279.025 215.307 285.619 208.949C292.605 202.12 295.352 193.8 293.468 184.067C292.212 177.238 287.267 171.9 280.517 170.566C278.005 170.095 275.258 170.017 273.609 172.685C273.452 172.921 273.06 173.156 272.746 173.235C268.978 173.627 267.408 176.375 266.78 179.436C265.603 184.695 264.975 190.111 264.19 195.449Z" fill="white"/>
<path d="M60.0277 221.587C60.1847 214.209 61.2051 207.066 64.0309 200.237C66.1502 195.213 70.6244 192.701 75.334 193.957C77.6888 194.585 79.1802 196.077 80.3576 198.196C83.9683 204.475 83.8113 211.147 82.3984 217.976C81.221 223.942 78.1598 228.965 73.9211 233.204C70.5459 236.658 66.1502 236.972 62.3825 233.989C61.5191 233.283 60.9696 231.948 60.8126 230.849C60.4202 227.788 60.2632 224.648 60.0277 221.587ZM62.461 222.294C62.5395 223.785 62.6965 225.747 62.8535 227.71C62.932 228.416 63.1675 229.044 63.3245 229.672C64.3449 232.969 66.8567 234.225 70.0749 232.89C71.0953 232.498 72.1157 231.87 72.8222 231.085C76.9824 226.532 79.9651 221.43 80.6716 214.915C81.2995 209.264 80.7501 204.004 78.0813 198.981C76.6684 196.312 74.6276 195.449 71.8018 196.077C68.4265 196.862 66.8567 199.373 65.6793 202.199C63.089 208.557 62.775 215.151 62.461 222.294Z" fill="white"/>
<path d="M151.316 105.102C151.473 98.8226 153.436 92.2291 158.381 86.4991C159.794 84.8507 161.442 84.3013 163.326 85.1647C165.916 86.2636 168.899 87.1271 171.018 88.9324C175.1 92.4646 178.161 96.8603 177.769 102.747C177.376 109.027 175.257 114.914 172.274 120.33C168.428 127.316 159.715 127.394 155.398 120.801C152.494 116.484 151.316 111.539 151.316 105.102ZM175.649 102.512C175.571 101.884 175.571 101.334 175.492 100.785C174.394 94.8194 170.861 90.7378 165.288 88.383C162.149 87.0486 159.637 87.8335 157.674 90.6593C157.125 91.4442 156.654 92.3076 156.262 93.1711C152.258 102.119 152.18 110.989 157.282 119.623C160.265 124.647 166.937 125.04 170.155 119.78C173.373 114.521 175.1 108.634 175.649 102.512Z" fill="white"/>
<path d="M186.717 76.0596C186.874 76.0596 187.031 76.0596 187.11 76.0596C190.72 76.1381 190.485 76.2166 190.406 79.8273C190.328 86.1068 190.72 92.3078 190.799 98.5873C190.799 101.57 190.642 104.631 190.328 107.614C190.171 109.419 189.15 110.283 187.031 110.047C182.557 109.576 182.714 109.655 182.479 105.259C182.086 97.7239 181.38 90.1885 180.83 82.6531C180.752 81.1617 180.516 79.6703 180.595 78.1789C180.595 77.6295 181.38 76.8445 181.929 76.6875C183.42 76.2951 184.99 76.1381 186.56 75.9026C186.717 75.9811 186.717 75.9811 186.717 76.0596ZM188.837 86.6562C188.601 86.6562 188.444 86.6562 188.209 86.6562C188.209 85.7928 188.209 84.8509 188.209 83.9875C188.209 83.124 188.052 82.1821 188.052 81.3187C188.052 78.5714 186.796 77.6295 184.127 78.4929C183.656 78.6499 182.949 79.5133 183.028 80.0628C183.106 83.438 183.42 86.7347 183.656 90.11C183.97 95.2121 184.284 100.393 184.598 105.495C184.676 106.908 185.226 107.614 186.639 107.771C188.209 107.928 188.444 106.829 188.758 105.809C188.915 105.259 188.915 104.553 188.915 104.003C188.837 98.1163 188.837 92.3863 188.837 86.6562Z" fill="white"/>
<path d="M27.9228 120.409C27.9228 120.802 27.9228 120.723 27.9228 120.566C28.1582 119.075 27.8443 116.799 28.7077 116.171C30.1991 115.15 32.3969 115.072 34.3593 114.836C35.6152 114.679 36.3216 115.307 36.0861 116.72C35.9292 117.662 35.9292 118.604 35.8507 119.624C35.3012 123.471 33.3389 124.884 29.4142 124.099C27.5303 123.706 27.7658 122.372 27.9228 120.409ZM33.0249 117.427C30.5131 117.976 30.3561 119.31 30.5916 120.802C30.6701 121.194 31.141 121.744 31.3765 121.744C31.8475 121.744 32.5539 121.351 32.6324 121.037C32.9464 119.938 32.9464 118.839 33.0249 117.427Z" fill="white"/>
<path d="M90.8747 250.158C89.7758 251.964 88.2059 252.435 86.4791 251.571C81.7694 249.138 77.8447 245.684 74.077 241.995C73.606 241.524 73.9985 240.19 73.9985 239.248C74.705 239.483 75.4899 239.562 75.9609 240.033C78.9436 242.466 81.6909 245.213 84.7522 247.411C86.4791 248.667 88.7554 249.217 90.8747 250.158Z" fill="white"/>
<path d="M214.505 166.092C214.584 168.604 210.031 173.784 207.519 174.02C205.243 174.255 204.066 172.842 204.537 170.644C204.694 169.702 204.537 168.682 204.615 167.74C204.615 167.348 204.772 166.72 205.086 166.563C206.891 165.542 208.697 164.443 210.659 163.737C212.543 163.03 214.427 164.365 214.505 166.092ZM212.151 166.249C211.994 166.092 211.994 166.013 211.915 166.013C209.639 165.542 206.185 169.075 206.813 171.194C206.891 171.508 208.069 171.743 208.383 171.586C210.267 170.173 211.758 168.525 212.151 166.249Z" fill="white"/>
<path d="M140.249 258.558C136.716 258.951 133.184 259.343 129.73 259.657C129.259 259.736 128.474 259.422 128.396 259.108C128.239 258.637 128.396 257.695 128.71 257.538C129.495 257.067 130.437 256.753 131.379 256.674C137.187 256.439 142.996 256.282 148.804 256.282C149.275 256.282 149.825 257.067 150.296 257.538C149.746 258.009 149.275 258.872 148.647 258.951C145.822 259.108 142.996 259.029 140.249 259.029C140.327 258.872 140.327 258.715 140.249 258.558Z" fill="white"/>
<path d="M180.202 66.8768C180.202 66.6413 180.202 66.3273 180.202 66.0919C179.966 61.3822 181.065 61.0683 185.775 61.5392C186.324 61.6177 187.266 62.6381 187.266 63.1876C187.109 65.5424 186.874 67.9757 186.403 70.252C185.853 72.7638 183.891 71.9789 182.242 71.8219C180.673 71.6649 179.966 70.8015 180.123 69.2316C180.202 68.4467 180.202 67.6617 180.202 66.8768ZM184.99 65.8564C185.147 65.7779 185.225 65.6209 185.382 65.5424C184.911 64.9144 184.44 63.8155 183.891 63.6585C182.399 63.3446 182.399 64.7575 182.321 65.6994C182.242 66.4843 182.242 67.3478 182.399 68.1327C182.556 68.6822 183.184 69.0746 183.577 69.4671C183.969 68.9961 184.519 68.6037 184.754 68.0542C184.911 67.3478 184.833 66.5628 184.99 65.8564Z" fill="white"/>
<path d="M116.228 259.971C111.283 259.029 106.73 258.166 102.099 257.224C101.471 257.067 100.765 256.674 100.451 256.204C100.215 255.811 100.215 255.026 100.451 254.477C100.529 254.163 101.235 253.927 101.628 254.006C106.416 254.948 111.283 255.968 116.071 256.988C116.62 257.145 117.248 257.381 117.719 257.773C117.955 258.009 117.876 258.794 117.641 259.029C117.248 259.5 116.62 259.736 116.228 259.971Z" fill="white"/>
<path d="M276.828 38.5403C276.828 35.8715 280.439 32.6532 283.108 32.8102C285.463 32.9672 287.268 35.8715 286.248 37.9123C285.149 40.1886 283.422 41.7585 280.753 42.0725C278.32 42.3865 276.75 40.8951 276.828 38.5403ZM280.753 40.6596C282.009 39.5607 283.265 38.7757 284.05 37.7553C284.364 37.2844 284.05 35.8715 283.579 35.479C283.186 35.0865 282.009 35.4005 281.302 35.7145C280.675 35.95 279.968 36.4994 279.576 37.0489C279.183 37.5983 278.712 38.4618 278.869 38.9327C279.026 39.4822 279.89 39.9532 280.753 40.6596Z" fill="white"/>
<path d="M171.096 254.319C170.939 254.162 170.389 253.926 170.311 253.612C170.232 253.141 170.389 252.435 170.703 252.121C171.096 251.728 171.802 251.571 172.351 251.414C176.669 250.158 181.064 248.903 185.381 247.725C185.931 247.568 186.559 247.804 187.187 247.804C187.03 248.432 186.951 249.059 186.637 249.609C186.402 250.001 185.931 250.237 185.46 250.394C180.986 251.65 176.433 252.906 171.959 254.083C171.802 254.24 171.645 254.24 171.096 254.319Z" fill="white"/>
<path d="M210.58 235.245C210.266 235.638 210.109 236.03 209.795 236.266C206.812 238.307 203.829 240.347 200.768 242.31C200.297 242.624 199.434 242.467 198.806 242.545C199.041 241.839 199.12 240.897 199.591 240.504C202.417 238.385 205.321 236.344 208.304 234.382C208.696 234.146 209.324 233.989 209.795 234.146C210.187 234.225 210.344 234.853 210.58 235.245Z" fill="white"/>
<path d="M0.293701 136.736C1.23563 136.265 2.09906 135.637 3.04098 135.244C5.55279 134.381 8.0646 133.674 10.6549 133.046C11.0474 132.968 11.6753 133.674 12.1463 133.988C11.6753 134.459 11.2828 135.087 10.6549 135.323C8.37857 136.108 6.10224 136.736 3.82592 137.363C2.72701 137.677 1.62813 137.677 0.529221 137.834C0.529221 137.442 0.450689 137.05 0.293701 136.736Z" fill="white"/>
<path d="M316.309 158.164C316.074 158.4 315.917 158.792 315.681 158.871C315.289 158.949 314.818 158.792 314.582 158.557C312.385 156.516 310.108 154.554 307.989 152.434C307.596 152.042 307.753 151.257 307.596 150.629C308.067 150.629 308.774 150.394 309.088 150.629C311.364 152.67 313.562 154.868 315.76 156.987C315.995 157.223 316.152 157.694 316.309 158.164Z" fill="white"/>
<path d="M222.903 19.1516C222.432 20.4075 222.196 21.1924 221.804 21.9774C220.627 24.0967 219.449 26.2945 218.193 28.3354C217.879 28.8063 217.251 29.1203 216.78 29.5128C216.623 28.9633 216.074 28.2569 216.231 27.9429C217.879 25.1171 219.685 22.2914 221.49 19.5441C221.569 19.3086 221.961 19.3871 222.903 19.1516Z" fill="white"/>
<path d="M7.9064 98.3513C9.79025 99.5287 11.6741 100.549 13.401 101.805C13.6365 101.962 13.4795 103.218 13.1655 103.532C12.8515 103.846 11.9096 103.846 11.4386 103.61C9.94724 102.825 8.45588 101.805 7.04299 100.863C6.65052 100.628 6.17954 99.8427 6.33653 99.6072C6.49351 99.1362 7.12146 98.9008 7.9064 98.3513Z" fill="white"/>
<path d="M319.763 125.904C319.292 125.904 318.743 125.982 318.35 125.904C316.074 125.354 313.719 124.805 311.443 124.098C311.05 124.02 310.658 123.47 310.501 122.999C310.422 122.842 311.129 122.136 311.364 122.214C314.347 122.842 317.408 123.47 319.999 125.119C319.92 125.433 319.842 125.668 319.763 125.904Z" fill="white"/>
<path d="M264.504 23.5479C264.739 24.1758 265.132 24.7253 265.053 25.2747C264.975 25.7457 264.504 26.3736 264.111 26.6091C262.62 27.3156 260.971 27.865 259.402 28.336C258.931 28.493 258.381 28.2575 257.91 28.2575C257.989 27.708 257.91 26.8446 258.303 26.6876C259.951 25.7457 261.835 24.8822 264.504 23.5479Z" fill="white"/>
<path d="M313.799 93.7209C313.485 93.5639 312.7 93.1715 311.915 92.7005C312.778 92.2295 313.563 91.6016 314.427 91.4446C315.761 91.1306 317.174 91.1306 318.509 91.1306C318.98 91.1306 319.529 91.5231 320 91.7586C319.607 92.2295 319.215 92.936 318.744 93.093C317.41 93.4854 315.918 93.4854 313.799 93.7209Z" fill="white"/>
<path d="M9.55743 167.819C10.1069 168.212 10.6563 168.604 11.2058 168.997C10.7348 169.468 10.4208 170.017 9.87137 170.253C9.00794 170.724 7.98754 171.116 7.04562 171.273C6.57465 171.352 5.94667 170.802 5.39722 170.567C5.6327 170.017 5.78969 169.311 6.18216 169.075C7.12408 168.604 8.22303 168.29 9.55743 167.819Z" fill="white"/>
<path d="M244.016 24.4898C243.702 25.1178 243.624 25.4318 243.467 25.5888C242.289 26.5307 241.112 27.3941 239.935 28.2575C239.699 28.4145 239.15 28.493 238.993 28.336C238.757 28.1006 238.522 27.4726 238.6 27.3156C239.699 26.0597 240.719 24.8038 241.975 23.7049C242.289 23.5479 243.31 24.2544 244.016 24.4898Z" fill="white"/>
<path d="M216.702 231.712C216.545 230.927 216.152 230.221 216.309 229.907C217.016 228.808 217.958 227.709 218.9 226.767C219.214 226.453 220.077 226.846 220.705 226.846C220.548 227.473 220.548 228.18 220.156 228.572C219.449 229.436 218.507 230.142 217.644 230.927C217.565 231.163 217.33 231.32 216.702 231.712Z" fill="white"/>
<path d="M180.751 28.5715C180.28 27.7866 179.809 27.2371 179.966 27.0016C180.201 26.4522 180.672 26.0597 181.143 25.5103C181.536 25.9027 182.242 26.3737 182.164 26.6877C182.007 27.3156 181.379 27.7866 180.751 28.5715Z" fill="white"/>
<path d="M151.55 164.444C150.922 165.621 150.451 166.955 149.588 167.976C144.878 173.313 140.247 178.729 135.302 183.832C131.22 188.07 126.668 191.838 122.272 195.763C121.723 196.234 120.859 196.705 120.153 196.705C119.603 196.705 118.818 196.234 118.504 195.763C118.347 195.449 118.661 194.585 119.054 194.193C125.569 186.029 132.084 177.944 138.677 169.86C140.483 167.662 142.445 165.699 144.407 163.659C145.192 162.874 146.056 162.246 146.998 161.696C149.666 160.205 151.236 161.225 151.55 164.444ZM149.588 163.345C145.899 164.208 127.374 185.244 125.804 190.033C128.473 187.599 130.906 185.558 133.183 183.282C138.442 178.023 143.936 172.921 148.018 166.563C148.567 165.699 148.96 164.758 149.588 163.345Z" fill="white"/>
<path d="M264.19 71.8211C264.739 77.0802 262.62 81.7113 261.599 86.4994C259.559 96.0757 257.596 105.73 256.026 115.385C255.163 120.566 253.515 125.354 251.631 130.142C251.003 131.712 250.532 133.282 249.747 134.695C249.354 135.401 248.569 135.794 247.941 136.343C247.47 135.637 246.764 135.009 246.607 134.302C244.802 125.825 246.058 117.504 248.412 109.263C250.296 102.591 252.259 95.9187 253.593 89.1682C254.77 83.2812 255.006 77.1587 255.869 71.1931C256.262 68.3673 257.047 65.6201 258.146 62.9513C259.009 60.9104 260.343 61.2244 261.835 62.7158C264.504 65.4631 264.504 68.6813 264.19 71.8211ZM248.177 132.026C248.412 132.026 248.648 132.026 248.883 132.026C251.081 126.217 253.75 120.566 254.299 114.208C255.241 103.533 258.146 93.1714 260.814 82.8102C262.07 78.0221 262.62 73.234 262.149 68.3673C261.992 66.7975 261.05 65.3061 260.422 63.8147C260.187 63.8147 259.951 63.8147 259.716 63.8932C259.245 64.8351 258.617 65.7771 258.46 66.7975C257.91 70.4867 257.439 74.2544 257.047 78.0221C256.183 85.636 255.32 93.2499 252.965 100.628C251.003 106.829 249.433 113.187 248.334 119.545C247.627 123.627 248.177 127.866 248.177 132.026Z" fill="white"/>
<path d="M175.886 188.384C175.729 188.698 175.65 189.326 175.258 189.797C173.138 192.623 170.548 194.742 167.173 195.841C166.466 196.077 165.524 195.684 164.661 195.606C164.74 194.821 164.661 193.957 164.975 193.251C165.524 191.838 166.231 190.504 166.78 189.091C168.036 186.187 171.098 185.088 173.452 185.402C175.022 185.716 175.964 186.736 175.886 188.384ZM167.408 193.251C167.565 193.408 167.722 193.565 167.879 193.722C169.449 192.466 171.098 191.289 172.51 189.954C172.981 189.483 173.06 188.62 173.295 187.913C172.432 187.913 171.411 187.678 170.784 187.992C168.9 189.169 167.958 191.132 167.408 193.251Z" fill="white"/>
<path d="M85.0675 145.37C85.6954 152.12 83.5761 158.086 79.4944 163.502C77.9245 165.621 75.9622 167.191 73.2149 166.563C70.3891 165.935 68.5053 163.737 67.7203 161.147C65.9935 155.574 65.444 149.844 66.4645 144.114C67.2494 139.247 69.1332 134.773 72.0375 130.77C74.4708 127.473 80.7503 128.258 82.4772 131.947C84.4395 136.186 85.6169 140.582 85.0675 145.37ZM68.5838 149.53C68.5838 151.1 68.3483 152.748 68.6623 154.239C69.2902 157.458 69.4472 160.833 71.959 163.345C73.5289 164.915 74.9418 165.15 76.4331 163.502C78.16 161.618 80.0439 159.577 80.9073 157.222C83.7331 149.765 83.6546 142.23 81.2213 134.616C80.6718 132.968 80.0439 131.162 77.9245 131.162C75.8052 131.162 73.6074 131.241 72.3515 133.674C69.9182 138.698 68.0343 143.8 68.5838 149.53Z" fill="white"/>
<path d="M288.68 188.541C288.758 192.78 287.738 196.704 285.932 200.472C284.127 204.161 280.202 206.752 276.592 206.516C274.551 206.359 272.667 205.496 271.96 203.533C269.37 196.783 268.585 187.128 274.08 180.378C275.885 178.18 278.004 176.296 281.066 176.767C284.598 177.316 287.188 179.436 288.287 182.811C288.837 184.616 288.601 186.657 288.68 188.541ZM287.345 186.893C287.11 186.814 286.953 186.814 286.717 186.736C286.953 182.575 285.226 180.064 281.458 179.043C278.632 178.258 276.435 179.907 274.472 183.36C271.097 189.326 271.803 195.448 273.373 201.571C274.001 204.004 276.435 205.025 279.025 204.161C281.615 203.298 283.499 201.414 284.284 198.981C285.618 194.977 286.403 190.896 287.345 186.893Z" fill="white"/>
<path d="M66.6224 217.27C66.5439 212.011 67.7999 207.066 71.0181 202.827C72.8235 200.472 75.1783 200.629 76.2772 203.22C77.0622 205.104 77.6901 207.301 77.7686 209.342C77.9256 214.601 76.8266 219.703 74.0793 224.256C73.6084 225.119 72.8235 225.904 71.9601 226.375C70.0762 227.553 68.3493 227.16 67.7214 225.041C66.9364 222.529 66.7009 219.86 66.1515 217.27C66.3085 217.27 66.4654 217.27 66.6224 217.27ZM74.4718 204.005C74.1578 203.926 73.7654 203.926 73.4514 203.848C72.8235 204.476 72.0385 205.104 71.5676 205.888C68.6633 211.226 68.5848 217.035 69.4482 222.843C69.5267 223.393 69.9977 224.256 70.3117 224.256C70.8611 224.256 71.5676 223.785 71.9601 223.393C72.5095 222.765 73.0589 222.058 73.2159 221.273C74.0009 217.82 75.0213 214.366 75.3353 210.912C75.6493 208.636 74.8643 206.281 74.4718 204.005Z" fill="white"/>
<path d="M156.812 107.301C156.969 103.376 157.754 99.6867 159.952 96.4685C161.914 93.6427 164.269 93.5642 166.859 95.919C171.255 99.9222 171.569 104.553 169.842 109.812C169.371 111.304 168.978 112.874 168.35 114.287C167.487 116.563 165.289 118.054 162.934 118.054C160.422 117.976 159.01 116.406 158.382 114.287C157.675 112.01 157.283 109.655 156.812 107.301ZM158.853 106.28C159.324 108.871 159.481 110.911 160.187 112.795C160.658 113.973 161.835 115.464 162.934 115.699C164.661 116.092 165.996 114.601 166.623 112.952C167.408 110.597 168.193 108.243 168.586 105.809C169.135 102.356 167.722 99.4513 164.975 97.4104C164.504 97.0965 163.562 96.7825 163.17 97.0964C162.149 97.8029 160.972 98.5878 160.579 99.6082C159.795 101.885 159.402 104.318 158.853 106.28Z" fill="white"/>
</svg>
