<svg width="320" height="198" viewBox="0 0 320 198" fill="none" xmlns="http://www.w3.org/2000/svg">
<path d="M282.661 47.3662C281.96 45.9093 279.747 44.992 278.398 44.2905C274.675 42.3479 270.574 41.1608 266.581 39.9737C262.156 38.6787 257.732 37.3837 253.361 36.0347C252.66 35.8189 252.12 36.1426 251.85 36.6282C251.688 36.7362 251.526 36.898 251.419 37.1678C249.584 40.999 247.749 44.8301 245.969 48.7152C245.105 50.4958 244.242 52.3304 243.379 54.1111C243.217 54.4348 243.109 54.7586 242.947 55.0284C242.839 55.1903 242.785 55.3522 242.677 55.514C242.569 55.6759 242.515 55.8378 242.515 55.9997L242.084 56.917C241.706 57.7264 241.166 58.5897 241.166 59.4531C241.112 61.0179 242.191 61.8812 243.594 62.259C244.889 62.6367 246.238 62.9065 247.587 63.2302C247.048 64.5253 248.99 65.7124 250.016 64.6871C250.231 64.4713 250.447 64.2555 250.663 64.0396C251.203 64.2015 251.742 64.3634 252.282 64.5252C252.012 65.8203 253.685 66.7915 254.71 65.8203C254.872 65.7124 254.98 65.5505 255.142 65.4426C257.246 66.144 259.297 66.8995 261.347 67.7089C262.102 67.9787 262.804 68.3024 263.559 68.6262C263.613 68.896 263.775 69.1658 263.937 69.3816C264.639 70.3529 265.826 70.3529 267.013 70.137C268.524 70.8925 270.196 71.9716 271.923 71.8098C273.488 71.6479 274.351 70.3529 275.053 69.0578C276.132 67.1693 277.103 65.2267 277.967 63.2842C279.585 59.6689 280.988 55.9457 282.067 52.1686C282.391 50.7117 283.309 48.7691 282.661 47.3662ZM249.206 60.6941H249.152C249.26 60.5862 249.368 60.4783 249.476 60.3164L249.206 60.6941ZM255.789 40.2435C255.897 40.0816 256.005 39.9737 256.059 39.8119C256.221 39.8658 256.437 39.9198 256.599 39.9737C256.437 40.1356 256.275 40.2975 256.221 40.5133C256.113 40.4594 255.951 40.3514 255.789 40.2435ZM254.818 44.6142C255.358 43.8048 255.843 42.9955 256.383 42.1861C256.437 42.1321 256.437 42.0781 256.491 42.0242C256.599 42.1321 256.653 42.1861 256.761 42.24L254.818 44.6142ZM253.577 61.9352C253.361 61.8812 253.145 61.8273 252.929 61.7194C253.577 61.0718 254.224 60.4243 254.872 59.7768C254.44 60.4783 254.009 61.2337 253.577 61.9352ZM260.106 44.5063C259.836 44.2365 259.458 44.1286 259.135 44.1286C259.189 44.0207 259.297 43.9128 259.351 43.8048C259.62 43.9667 259.944 44.1286 260.214 44.3444C260.16 44.3984 260.106 44.4524 260.106 44.5063ZM268.955 65.5505C268.739 65.9822 268.524 66.4138 268.362 66.8455C268.254 66.8455 268.146 66.8455 268.038 66.8455C267.822 66.8995 267.444 66.8995 267.067 66.9534C267.229 66.5217 267.229 66.0361 266.959 65.6584L268.632 63.6619C268.632 63.7159 268.578 63.7159 268.578 63.7698C268.308 64.4173 268.524 65.1188 268.955 65.5505ZM264.261 64.2015C264.045 64.0936 263.775 63.9857 263.559 63.8777C264.531 62.8525 265.502 61.8812 266.419 60.856C265.718 61.9892 264.962 63.0683 264.261 64.2015ZM270.196 45.7474C270.142 45.8013 270.035 45.9093 269.981 45.9632C269.819 45.7474 269.549 45.5315 269.279 45.4236C269.603 45.5855 269.873 45.6395 270.196 45.7474ZM262.858 45.9093C263.29 46.1791 263.667 46.3949 264.099 46.6647C262.318 48.4454 260.538 50.226 258.703 51.9527C260.106 49.9562 261.509 47.9597 262.858 45.9093ZM259.728 63.9857C259.998 63.7159 260.268 63.4461 260.538 63.1763C260.43 63.7159 260.7 64.2015 261.185 64.5252C260.646 64.3634 260.16 64.1475 259.728 63.9857ZM272.193 68.0326C271.707 68.788 271.491 69.0039 270.682 68.6801C272.193 66.7915 273.65 64.849 274.945 62.7986C274.135 64.5792 273.218 66.3599 272.193 68.0326Z" fill="#39B100"/>
<path d="M233.341 100.948C233.826 98.7354 234.312 96.5771 234.744 94.3647C235.067 92.8539 236.039 90.4257 234.905 89.0767C234.366 88.4292 233.502 88.2673 232.693 87.9975C231.614 87.6738 230.535 87.404 229.456 87.0802C227.297 86.4866 225.139 85.8931 222.98 85.3535C218.448 84.2204 213.915 83.1412 209.383 82.2239C208.789 82.1159 208.196 82.3318 207.872 82.8174C208.088 81.3605 205.605 80.8749 205.012 82.4397C202.206 89.7782 199.4 97.1706 196.594 104.509C196.378 105.103 196.756 105.804 197.296 106.128C198.807 106.991 200.371 107.639 201.936 108.232C202.098 109.311 203.501 109.959 204.364 109.042C204.742 109.15 205.066 109.258 205.444 109.365C205.39 110.606 206.847 111.902 207.818 110.606C207.926 110.445 208.088 110.283 208.195 110.121C209.544 110.499 210.84 110.822 212.189 111.146C214.131 111.686 216.074 112.171 218.016 112.711C218.232 112.873 218.556 112.927 218.826 112.927C221.955 113.79 225.085 114.653 228.268 115.463C229.024 115.679 229.833 115.139 229.995 114.438C231.128 110.067 232.315 105.534 233.341 100.948ZM200.21 104.023C200.156 104.131 200.102 104.293 200.102 104.401C199.994 104.347 199.832 104.293 199.724 104.239L200.263 102.89C200.371 102.944 200.533 103.052 200.641 103.052C200.533 103.376 200.371 103.7 200.21 104.023ZM202.854 105.588C202.8 105.588 202.746 105.534 202.692 105.534L202.746 105.48C202.907 105.211 203.069 104.995 203.231 104.725C203.069 104.995 202.961 105.265 202.854 105.588ZM225.57 89.2925C225.57 89.1846 225.57 89.1307 225.57 89.0227C225.678 89.0767 225.786 89.0767 225.948 89.1307C225.786 89.1846 225.678 89.2386 225.57 89.2925ZM210.408 85.4075C210.786 85.5154 211.217 85.5693 211.595 85.6773C211.541 85.7312 211.487 85.7852 211.433 85.8931C211.217 86.2169 211.001 86.5946 210.786 86.9183C211.055 86.3248 210.786 85.7852 210.408 85.4075ZM211.433 106.02L211.595 105.858C211.811 106.182 212.188 106.344 212.566 106.398C212.566 106.398 212.566 106.452 212.512 106.452C212.188 106.29 211.811 106.128 211.433 106.02ZM221.901 110.283C221.685 110.229 221.523 110.121 221.308 110.067C221.955 109.042 222.603 108.07 223.196 107.045C222.818 108.07 222.333 109.204 221.901 110.283ZM229.617 91.5049C229.509 91.6667 229.402 91.8826 229.294 92.0445C229.24 92.0445 229.186 92.0445 229.132 91.9905V91.9365C229.617 90.8574 228.592 89.5623 227.621 89.7242C227.567 89.6702 227.513 89.5623 227.459 89.5084C228.16 89.7242 228.862 89.8861 229.563 90.1019C230.049 90.2638 230.535 90.3717 231.074 90.5336C231.398 90.6415 232.153 91.0192 232.531 90.9653C232.531 91.0192 232.531 91.0732 232.477 91.1272C232.369 91.397 232.315 91.7207 232.261 92.0445C232.046 90.8574 230.481 90.1559 229.617 91.5049ZM227.513 112.441C227.405 112.441 227.351 112.387 227.243 112.387C227.729 111.092 228.107 109.797 228.538 108.502C228.214 109.797 227.837 111.092 227.513 112.441Z" fill="#39B100"/>
<path d="M295.287 99.8683C295.071 100.03 294.855 100.3 294.747 100.624C294.477 101.379 294.207 102.135 293.938 102.836C293.02 104.887 292.103 106.937 291.24 109.041C290.484 110.714 292.912 112.117 293.722 110.444C294.801 108.34 295.772 106.128 296.582 103.915C296.959 103.106 297.283 102.297 297.661 101.487C298.362 99.9763 296.15 98.5733 295.287 99.8683Z" fill="#EF4036"/>
<path d="M177.978 39.0559C177.709 37.6529 175.442 37.7069 175.226 39.1098C175.011 40.4588 174.795 41.8618 174.525 43.2108C174.039 45.3691 173.662 47.5815 173.446 49.7938C173.284 51.4126 176.036 51.7363 176.306 50.1176C176.36 49.7938 176.414 49.4701 176.468 49.1463C177.007 49.0923 177.493 48.7686 177.709 48.1211C178.518 45.1533 178.572 42.0776 177.978 39.0559Z" fill="#EF4036"/>
<path d="M258.216 154.044C258.486 152.965 258.917 151.777 259.025 150.644C259.187 148.486 256.111 147.838 254.547 147.137C253.737 146.759 252.928 146.381 252.065 146.867C251.903 146.975 251.741 147.083 251.633 147.191C250.877 146.759 249.798 146.975 249.528 148.054C247.694 155.77 245.374 163.379 242.676 170.825C242.406 171.527 242.999 172.444 243.701 172.552C245.967 172.983 248.179 173.577 250.5 173.901C252.712 174.278 253.575 172.822 254.007 170.879C255.14 166.346 256.273 161.814 257.406 157.281C257.676 156.256 257.946 155.177 258.216 154.044ZM254.762 150.374C255.086 150.536 255.626 150.698 256.058 150.914C256.058 151.022 256.004 151.13 256.004 151.292C255.734 151.184 255.464 151.184 255.194 151.238C254.655 150.806 253.791 150.752 253.306 151.292C253.36 150.914 253.467 150.59 253.521 150.213C253.521 150.159 253.575 149.997 253.629 149.889C254.061 150.051 254.385 150.213 254.762 150.374ZM250.985 171.257C250.985 171.203 250.769 171.095 250.554 171.041C250.662 170.879 250.769 170.663 250.877 170.501C250.985 170.501 251.093 170.447 251.201 170.447C251.201 170.771 251.093 171.095 250.985 171.257Z" fill="#EF4036"/>
<path d="M254.816 90.0477C258.917 91.4506 262.748 92.8536 266.58 94.0947C268.36 94.6882 270.195 95.0659 272.03 95.4436C272.893 95.6595 273.217 96.0372 272.947 96.9005C271.058 102.62 269.17 108.394 267.227 114.114C266.418 116.488 265.339 118.808 264.421 121.128C263.666 122.963 263.342 122.963 261.453 122.639C257.946 122.046 254.385 121.668 250.823 121.182C250.446 121.128 250.014 121.128 249.636 121.02C247.694 120.589 247.91 120.319 247.316 122.423C245.481 129.492 243.593 136.615 241.704 143.683C241.381 144.87 241.758 145.194 242.784 145.464C246.777 146.489 250.716 147.514 254.655 148.594C255.788 148.917 256.867 149.349 258 149.673C259.025 149.943 259.187 150.644 258.863 151.507C256.381 159.332 253.899 167.102 251.417 174.926C250.985 176.275 250.554 176.437 249.205 176.167C245.212 175.304 241.165 174.548 237.172 173.685C234.42 173.091 234.528 173.091 233.988 175.843C233.503 178.325 232.801 180.753 232.154 183.182C231.236 186.689 230.211 190.25 229.24 193.758C229.024 194.567 228.754 195.376 228.484 196.132C228.107 197.049 227.459 197.427 226.38 197.157C224.275 196.725 222.117 196.402 220.013 195.916C218.394 195.538 216.775 194.891 215.21 194.351C212.296 193.272 209.383 192.247 206.523 191.114C204.31 190.25 202.098 189.279 199.886 188.308C199.022 187.93 199.076 187.175 199.292 186.419C200.102 183.236 200.911 179.998 201.72 176.76C202.584 173.199 203.447 169.638 204.31 166.076C204.526 165.267 204.041 165.051 203.447 164.889C200.857 164.134 198.267 163.432 195.677 162.677C193.734 162.083 191.792 161.436 189.849 160.842C189.094 160.627 188.878 160.141 188.986 159.332C189.58 155.231 190.173 151.076 190.767 146.921C191.306 143.252 191.792 139.582 192.385 135.967C192.493 135.374 192.763 134.834 192.979 134.24C193.357 133.161 194.004 132.73 195.191 133.107C198.699 134.24 202.206 135.374 205.767 136.453C207.278 136.938 208.789 137.262 210.3 137.694C211.217 137.964 211.649 137.532 211.811 136.615C212.782 131.057 213.753 125.553 214.779 120.049C215.264 117.459 215.804 114.869 216.397 112.063C215.426 111.793 214.401 111.524 213.376 111.308C209.922 110.606 206.415 110.013 203.015 109.257C201.774 108.987 200.533 108.394 199.292 107.962C198.375 107.638 198.267 107.099 198.591 106.236C200.803 100.462 202.53 94.5263 203.393 88.375C203.663 86.5403 204.472 84.8136 205.174 83.0869C205.336 82.7092 206.145 82.2775 206.577 82.3315C208.681 82.6553 210.786 82.979 212.836 83.5186C215.966 84.382 219.095 85.1374 222.333 84.9216C222.711 84.9216 223.304 84.4899 223.412 84.1661C225.84 76.2881 228.268 68.41 230.697 60.37C228.7 59.5067 226.758 58.6973 224.869 57.8879C220.93 56.3231 216.937 54.7583 212.998 53.1395C212.674 53.0316 212.35 52.2761 212.404 51.9524C212.728 50.3876 213.16 48.8227 213.645 47.3119C215.426 41.808 217.531 36.3581 218.933 30.7463C219.689 27.7246 220.498 24.8108 221.847 22.0049C224.491 16.3392 228.43 11.6987 233.556 8.19132C236.902 5.92502 240.733 4.52208 244.672 3.38893C250.284 1.82411 256.058 1.28451 261.831 1.01472C264.583 0.906797 267.227 1.39243 269.763 2.47162C272.623 3.65873 275.591 4.79187 278.343 6.19482C281.634 7.92152 283.685 10.7814 284.764 14.3966C286.275 19.4688 287.732 24.541 288.271 29.7751C288.487 31.6636 288.325 33.6062 288.163 35.4948C287.948 38.4625 287.192 41.3763 287.3 44.2901C287.462 48.3911 285.034 51.4667 283.847 55.0281C282.767 58.2117 281.688 61.3413 280.555 64.5249C279.692 66.9531 278.72 69.3813 277.695 71.8094C277.533 72.1871 276.94 72.5109 276.508 72.6728C276.023 72.8347 275.429 72.8886 274.943 72.7807C272.137 72.1332 269.17 72.1332 266.58 70.5144C265.231 69.705 263.612 69.2733 262.101 68.6798C261.184 68.356 260.644 68.5719 260.32 69.6511C259.295 73.1045 258.054 76.5039 257.137 80.0113C256.165 83.4647 255.572 86.8641 254.816 90.0477ZM267.443 2.74142C265.285 2.52558 263.558 2.14786 261.831 2.25578C254.763 2.6335 247.802 3.44289 241.057 5.8171C236.2 7.5438 232.046 10.2418 228.538 13.857C224.761 17.7421 222.495 22.5445 220.714 27.6167C220.39 28.588 220.768 28.8578 221.577 29.0196C224.275 29.5592 226.973 30.0988 229.617 30.7463C236.362 32.3112 243.107 33.9299 249.798 35.5487C250.014 35.6027 250.23 35.6027 250.446 35.6027C253.683 36.1962 256.975 36.574 260.158 37.4373C264.475 38.5704 268.738 40.0813 273.055 41.2684C276.778 42.2936 280.609 42.9951 284.332 44.0743C285.627 44.452 286.005 44.1283 286.167 42.9951C286.383 41.3763 286.653 39.7036 286.76 38.0848C286.976 35.5487 287.354 32.9587 287.138 30.4226C286.652 24.9187 285.142 19.6307 283.469 14.3966C282.498 11.267 280.555 8.78487 277.803 7.32796C274.404 5.43939 270.734 4.14436 267.443 2.74142ZM241.866 62.0967C242.514 62.3126 243.215 62.5824 243.917 62.6903C247.208 63.3378 250.5 63.8774 253.791 64.6328C255.842 65.1185 257.784 65.9818 259.781 66.7373C260.536 67.007 261.238 67.4927 261.939 67.7625C263.72 68.356 265.608 68.6798 267.227 69.5971C269.709 70.9461 272.407 71 274.997 71.6475C275.753 71.8634 276.508 71.7015 276.832 70.7842C277.749 68.41 278.667 66.0358 279.584 63.6076C280.555 60.9636 281.418 58.2656 282.444 55.6216C283.469 52.9236 284.71 50.2257 285.735 47.5277C286.221 46.2327 285.951 45.747 284.548 45.3154C283.577 44.9916 282.606 44.7218 281.634 44.506C273.81 42.6714 265.986 40.6209 258.378 37.9769C256.327 37.2754 254.007 37.1675 251.849 36.8438C251.471 36.7898 250.77 37.1675 250.662 37.4913C249.151 41.2684 247.64 44.9916 246.291 48.8227C244.78 53.1934 243.431 57.5642 241.866 62.0967ZM248.719 119.671C248.719 119.617 248.719 119.617 248.773 119.563C248.935 119.617 249.097 119.671 249.259 119.671C253.467 120.211 257.73 120.751 261.993 121.236C262.317 121.29 262.802 120.912 262.964 120.589C264.637 116.919 266.418 113.25 267.821 109.473C269.278 105.534 270.303 101.487 271.544 97.4941C271.868 96.5768 271.274 96.4149 270.681 96.253C266.094 94.7961 261.507 93.2853 256.867 91.9363C255.95 91.6665 254.924 91.8284 253.953 91.8823C253.414 91.8823 252.874 92.26 252.388 92.1521C248.018 91.4506 243.701 90.6952 239.384 89.9398C238.629 89.8319 238.251 89.9398 238.035 90.6952C237.442 92.6917 236.848 94.6882 236.254 96.6847C234.69 102.189 233.125 107.638 231.56 113.142C231.344 113.844 231.29 114.329 232.207 114.599C237.711 116.272 243.215 117.999 248.719 119.671ZM225.732 143.414C225.517 143.36 225.193 143.252 224.869 143.144C221.685 142.334 218.448 141.579 215.264 140.662C213.861 140.284 212.512 139.528 211.109 139.097C209.059 138.449 206.901 138.018 204.85 137.37C201.99 136.507 199.184 135.428 196.271 134.564C194.652 134.079 194.112 134.348 193.734 136.075C193.141 138.773 192.709 141.471 192.331 144.169C191.738 148.809 191.36 153.45 190.767 158.037C190.659 159.062 190.767 159.601 191.792 159.925C195.245 160.896 198.699 161.976 202.206 162.947C207.872 164.512 213.591 165.969 219.257 167.425C219.635 167.533 219.959 167.587 220.229 167.641C222.117 159.547 223.898 151.561 225.732 143.414ZM245.212 126.254H245.158C245.535 124.744 245.967 123.233 246.291 121.668C246.507 120.643 246.183 120.157 245.104 119.833C240.086 118.43 235.121 116.812 230.049 115.355C226.326 114.275 222.549 113.412 218.826 112.441C218.016 112.225 217.638 112.549 217.423 113.358C217.099 114.869 216.613 116.326 216.343 117.837C215.318 123.61 214.401 129.438 213.322 135.212C212.728 138.611 212.674 138.719 216.128 139.582C216.182 139.582 216.236 139.582 216.236 139.636C223.466 141.255 230.697 142.82 237.927 144.439C239.816 144.87 239.924 144.816 240.463 142.982C242.136 137.316 243.647 131.758 245.212 126.254ZM232.747 170.987C232.747 171.041 232.747 171.095 232.693 171.149C237.873 172.228 243.107 173.253 248.287 174.44C249.528 174.71 250.014 174.278 250.392 173.199C251.417 170.069 252.496 166.994 253.521 163.918C254.816 159.979 256.058 156.04 257.407 152.101C257.676 151.292 257.46 150.86 256.651 150.644C255.14 150.158 253.683 149.619 252.172 149.241C247.208 147.946 242.244 146.705 237.226 145.518C235.175 145.032 233.017 144.87 230.912 144.439C227.243 143.737 227.027 143.791 226.218 147.407C224.707 153.936 223.304 160.519 221.847 167.048C221.631 167.965 222.009 168.289 222.819 168.505C226.164 169.314 229.456 170.177 232.747 170.987ZM236.902 89.5081C235.985 89.2923 235.175 89.0764 234.366 88.8606C232.046 88.375 229.779 87.9433 227.459 87.4037C226.326 87.1339 225.247 86.5943 224.114 86.4324C220.984 85.9468 217.854 85.7309 214.725 85.1914C212.728 84.8676 210.732 84.2201 208.735 83.7884C206.145 83.2488 205.659 83.5726 205.012 86.1626C204.58 87.9433 204.472 89.7779 203.987 91.5586C202.746 96.253 201.451 100.894 200.102 105.534C199.886 106.182 199.616 106.829 200.533 107.099C202.422 107.692 204.31 108.448 206.253 108.826C211.055 109.797 215.912 110.552 220.768 111.524C223.79 112.117 226.758 112.98 229.941 113.79C232.261 105.696 234.528 97.656 236.902 89.5081ZM229.402 86.4324C229.402 86.4864 229.348 86.5403 229.348 86.5943C232.477 87.1879 235.607 87.7274 238.737 88.321C242.784 89.0764 246.83 89.9398 250.931 90.5873C253.252 90.965 253.575 90.5873 254.061 88.267C254.601 85.7849 255.086 83.2488 255.788 80.7667C256.813 77.1514 258 73.5901 259.079 70.0288C259.403 68.8956 258.755 67.3848 257.622 67.061C255.356 66.4135 253.09 65.8199 250.823 65.3343C247.1 64.471 243.377 63.7695 239.654 62.8522C237.442 62.3126 235.229 61.6111 233.017 60.9636C231.884 60.6398 231.506 61.1255 231.236 62.1507C230.319 65.3883 229.348 68.5719 228.376 71.8094C227.189 75.7485 226.002 79.6335 224.761 83.5186C224.383 84.7057 224.815 85.2453 225.84 85.5151C227.027 85.8389 228.214 86.1087 229.402 86.4324ZM229.941 31.8795C229.941 31.8255 229.941 31.7716 229.941 31.7176C227.135 31.232 224.275 30.8003 221.47 30.3147C220.552 30.1528 220.175 30.5305 219.905 31.3939C219.311 33.4443 218.664 35.4948 218.016 37.4913C216.613 41.9159 215.21 46.2866 213.807 50.6574C213.591 51.4128 213.645 52.0063 214.509 52.3841C216.937 53.3553 219.311 54.3266 221.739 55.4058C227.405 57.8879 233.341 59.5607 239.276 61.3413C239.708 61.5032 240.517 61.4492 240.733 61.1255C241.273 60.37 241.65 59.4527 241.974 58.5354C243.593 54.0028 245.158 49.4163 246.777 44.8837C247.478 42.8872 248.395 40.9447 249.097 38.9482C249.906 36.574 249.744 36.3581 247.316 35.7106C247.208 35.7106 247.154 35.6566 247.046 35.6566C241.327 34.4695 235.607 33.1745 229.941 31.8795ZM231.29 181.671C231.722 179.297 232.207 176.599 232.747 173.847C232.963 172.821 232.477 172.444 231.56 172.228C223.682 170.123 215.858 168.019 207.98 165.861C206.847 165.537 205.983 165.429 205.659 166.886C205.444 167.749 205.012 168.505 204.796 169.314C203.501 174.71 202.26 180.16 200.965 185.61C200.695 186.635 201.073 187.121 202.044 187.444C205.444 188.685 208.789 190.088 212.135 191.329C215.048 192.409 218.016 193.488 221.038 194.405C222.549 194.837 224.221 194.783 225.786 195.107C226.758 195.322 227.243 195.161 227.513 194.189C228.646 190.142 229.941 186.149 231.29 181.671Z" fill="black" stroke="#251C1C" stroke-width="0.2425" stroke-miterlimit="10"/>
<path d="M291.779 107.477C292.427 104.833 293.074 102.135 293.776 99.5447C294.207 97.9259 294.855 97.71 296.366 98.3036C298.956 99.3828 298.956 99.3828 298.2 102.189C297.391 105.049 296.581 107.854 295.718 110.714C295.179 112.387 294.963 112.441 293.398 111.739C290.862 110.552 290.862 110.552 291.779 107.477ZM293.56 105.588C293.398 106.613 293.128 107.693 293.02 108.826C292.966 109.203 293.398 109.635 293.614 110.067C293.937 109.797 294.369 109.527 294.477 109.203C295.286 106.937 295.988 104.617 296.743 102.297C296.905 101.865 297.121 101.325 296.959 100.894C296.797 100.462 296.312 100.138 295.988 99.7605C295.718 100.03 295.286 100.246 295.179 100.57C294.639 102.189 294.153 103.861 293.56 105.588Z" fill="black" stroke="#251C1C" stroke-width="0.2425" stroke-miterlimit="10"/>
<path d="M177.709 38.625C179.651 39.1107 179.759 39.2186 179.381 41.2151C178.788 44.6145 178.194 47.96 177.547 51.3594C177.331 52.6545 176.737 52.8703 175.658 52.2228C172.744 50.3342 172.744 50.3342 173.5 46.8808C173.986 44.6685 174.309 42.4561 174.849 40.2438C175.442 38.0854 175.55 38.0315 177.709 38.625ZM175.874 50.5501C176.63 47.5283 177.439 44.5606 178.086 41.5388C178.194 41.0532 177.871 40.028 177.601 39.9201C176.791 39.6503 176.144 40.1359 175.982 41.1072C175.55 43.3195 175.119 45.5318 174.633 47.7442C174.201 49.5788 174.201 49.6327 175.874 50.5501Z" fill="black" stroke="#251C1C" stroke-width="0.2425" stroke-miterlimit="10"/>
<path d="M303.11 70.784C302.193 69.2731 301.384 67.9781 300.682 66.6291C300.628 66.4672 301.114 65.9276 301.438 65.6578C303.65 64.093 305.862 62.5821 308.129 61.0713C308.506 60.8015 308.938 60.5317 309.424 60.4238C310.071 60.2619 310.773 60.2619 310.826 61.2331C310.826 61.3411 310.88 61.5029 310.934 61.6109C311.906 63.8772 311.852 63.8232 309.963 65.3341C308.236 66.683 306.618 68.14 304.945 69.4889C304.405 69.9746 303.866 70.2983 303.11 70.784ZM310.179 63.4994C309.801 62.1505 309.154 62.0425 308.236 62.6901C306.726 63.7692 305.161 64.8484 303.65 65.8737C302.139 66.8989 302.139 67.3845 303.758 68.5177C305.862 66.8449 308.021 65.1722 310.179 63.4994Z" fill="black" stroke="#251C1C" stroke-width="0.2425" stroke-miterlimit="10"/>
<path d="M203.285 24.1091C205.281 24.5948 205.767 25.8898 204.85 27.1848C203.285 29.3432 201.774 31.5016 200.209 33.6599C199.292 35.0089 198.698 35.0089 197.619 33.8218C196.27 32.257 196.324 32.311 197.673 30.7461C199.292 28.8036 200.803 26.8071 202.368 24.8106C202.637 24.4329 203.123 24.217 203.285 24.1091ZM198.968 33.0664C200.641 30.908 202.314 28.7496 203.932 26.5913C204.04 26.4294 203.986 26.0517 203.986 25.7819C203.717 25.8358 203.285 25.8358 203.177 25.9977C201.612 27.8323 200.101 29.6669 198.537 31.5016C197.943 32.1491 198.051 32.5808 198.968 33.0664Z" fill="black" stroke="#251C1C" stroke-width="0.2425" stroke-miterlimit="10"/>
<path d="M286.869 139.582C286.113 140.499 285.466 141.093 285.034 141.794C284.225 143.035 283.523 144.331 282.822 145.626C282.39 146.435 281.905 146.543 281.149 146.057C280.664 145.733 280.07 145.572 279.476 145.302C278.343 144.816 278.181 143.899 279.045 143.035C280.556 141.579 281.581 139.852 282.174 137.855C282.444 136.992 283.361 136.668 284.117 137.046C284.71 137.316 285.304 137.586 285.79 138.017C286.275 138.449 286.491 139.042 286.869 139.582ZM284.171 139.69C283.739 139.906 283.146 139.96 282.876 140.284C282.174 141.147 281.635 142.118 281.041 143.089C280.879 143.305 280.771 143.575 280.664 143.845C281.959 144.223 281.959 144.223 284.171 139.69Z" fill="black" stroke="#251C1C" stroke-width="0.2425" stroke-miterlimit="10"/>
<path d="M268.253 186.204C267.929 187.768 267.443 187.768 265.986 187.067C264.367 186.258 264.475 185.232 264.745 183.775C265.123 181.941 265.285 180.106 265.501 178.218C265.663 176.923 265.932 176.761 267.119 177.3C267.497 177.462 268.037 177.408 268.468 177.354C269.494 177.138 269.871 177.57 269.709 178.541C269.278 181.077 268.738 183.614 268.253 186.204ZM268.037 179.189C266.85 179.567 265.824 183.452 266.418 184.963C267.389 184.423 267.605 183.668 268.037 179.189Z" fill="black" stroke="#251C1C" stroke-width="0.2425" stroke-miterlimit="10"/>
<path d="M270.788 22.976C270.033 25.8359 268.198 27.8863 265.77 29.3972C263.935 30.5843 262.425 30.1526 261.13 28.4259C259.187 25.7819 259.349 21.627 261.507 19.1989C261.885 18.7672 262.101 18.2276 262.371 17.742C263.288 15.9613 264.907 15.4757 266.741 15.3677C268.414 15.2598 269.709 15.9073 270.572 17.3642C271.274 18.5513 271.328 20.7637 270.788 22.976ZM269.763 22.5983C269.871 21.8968 270.033 20.9795 270.087 20.1162C270.141 18.8211 269.817 17.5801 268.468 16.9326C265.932 15.6915 263.558 16.7707 262.748 19.4687C262.586 19.9543 262.263 20.332 261.993 20.7637C261.723 21.1414 261.237 21.4652 261.13 21.8968C260.536 24.2171 260.968 26.4294 262.586 28.2101C262.964 28.6418 263.989 28.9116 264.475 28.6957C267.227 27.6705 268.9 25.62 269.763 22.5983Z" fill="black" stroke="#251C1C" stroke-width="0.2425" stroke-miterlimit="10"/>
<path d="M255.844 15.6919C253.146 16.9869 250.502 18.3359 247.804 19.6309C247.318 19.9007 246.832 20.2785 246.293 20.3324C245.861 20.3864 245.376 20.0626 244.944 19.9547C245.214 19.6309 245.483 19.1993 245.861 19.0374C247.804 18.228 249.8 17.5805 251.635 16.6632C253.685 15.584 255.628 14.235 257.624 13.0479C257.894 12.886 258.272 12.7781 258.973 12.5083C258.65 13.3177 258.488 13.7494 258.326 14.181C257.085 17.2028 255.79 20.2785 254.549 23.3002C254.063 24.4873 253.577 25.6204 252.984 26.7536C252.822 27.0773 252.336 27.2392 251.797 27.2932C253.254 23.4621 254.764 19.6849 256.221 15.8538C256.059 15.7998 255.952 15.7459 255.844 15.6919Z" fill="black" stroke="#251C1C" stroke-width="0.2425" stroke-miterlimit="10"/>
<path d="M263.233 52.9233C264.852 54.1104 265.877 57.24 263.665 58.6969C262.694 59.3444 261.722 60.0999 260.643 60.3157C258.755 60.6934 257.514 59.2905 258.215 57.4559C258.647 56.2687 259.456 55.1896 260.319 54.2183C261.075 53.3549 261.453 52.6535 261.183 51.4664C260.589 48.9842 261.668 47.0956 263.935 46.2323C264.744 45.9085 265.715 45.7467 266.201 46.5561C266.579 47.1496 266.795 48.2828 266.471 48.8223C265.769 50.1174 264.744 51.1426 263.827 52.3297C263.557 52.5995 263.395 52.7614 263.233 52.9233ZM261.56 54.1104C260.859 55.0816 259.942 56.0529 259.294 57.1861C259.024 57.6177 259.132 58.535 259.456 58.9128C259.726 59.2365 260.589 59.2905 261.129 59.1286C263.233 58.4811 263.989 56.9702 263.395 54.9198C262.802 54.65 262.316 54.4881 261.56 54.1104ZM262.748 52.1678C263.773 50.9268 264.636 49.9015 265.446 48.7684C265.661 48.4986 265.607 47.7432 265.338 47.4734C265.122 47.2575 264.42 47.2036 264.043 47.3654C262.316 47.905 261.668 49.9555 262.748 52.1678Z" fill="black" stroke="#251C1C" stroke-width="0.2425" stroke-miterlimit="10"/>
<path d="M249.853 104.67C250.662 104.886 251.094 105.048 251.579 105.102C253.252 105.318 254.277 106.343 254.817 107.8C255.356 109.257 254.925 110.66 253.792 111.793C252.281 113.25 250.554 114.113 248.396 113.897C246.669 113.736 245.806 112.279 246.669 110.984C246.777 111.038 246.939 111.038 246.993 111.146C247.964 112.71 248.935 113.088 250.662 112.441C252.497 111.793 253.9 110.066 253.684 108.609C253.522 107.476 252.82 106.829 251.795 106.505C251.525 106.397 251.31 106.397 251.04 106.343C248.072 105.965 248.018 105.965 249.259 103.16C249.745 102.08 250.23 101.001 250.878 100.03C251.094 99.6522 251.795 99.2745 252.173 99.3284C253.9 99.5442 255.626 99.868 257.299 100.246C257.623 100.3 257.893 100.731 258.216 100.947C257.839 101.055 257.461 101.271 257.083 101.217C255.734 101.109 254.385 100.947 253.036 100.731C252.173 100.569 251.579 100.893 251.202 101.649C250.77 102.566 250.338 103.591 249.853 104.67Z" fill="black" stroke="#251C1C" stroke-width="0.2425" stroke-miterlimit="10"/>
<path d="M207.817 147.46C206.306 147.083 205.011 146.813 203.716 146.381C203.285 146.219 202.961 145.734 202.637 145.41C203.123 145.302 203.609 145.032 203.986 145.14C205.443 145.41 206.9 145.68 208.303 146.112C209.976 146.597 210.084 147.137 208.897 148.486C207.979 149.511 207.062 150.536 206.145 151.507C207.062 152.371 207.979 152.964 208.573 153.828C210.893 157.011 209.922 159.493 205.983 159.925C204.472 160.087 202.853 159.493 201.342 159.062C200.479 158.792 200.371 157.983 200.857 157.281C200.965 157.119 201.72 157.173 201.72 157.281C202.206 158.522 203.339 158.468 204.364 158.576C204.904 158.63 205.497 158.576 206.037 158.468C207.979 158.09 208.573 157.497 208.357 156.256C207.979 154.475 206.091 152.91 204.634 153.234C204.472 153.288 204.31 153.396 204.148 153.396C203.716 153.342 203.231 153.234 202.799 153.18C203.069 152.802 203.231 152.317 203.555 151.993C204.688 150.914 205.875 149.889 207.008 148.809C207.332 148.378 207.548 147.946 207.817 147.46Z" fill="black" stroke="#251C1C" stroke-width="0.2425" stroke-miterlimit="10"/>
<path d="M228.755 130.301C227.028 130.085 225.464 130.031 224.007 129.708C222.712 129.438 222.388 128.412 223.089 127.333C224.438 125.175 225.841 123.017 227.244 120.912C227.352 120.696 227.73 120.588 227.946 120.588C228.054 120.588 228.27 121.02 228.27 121.182C228.162 121.775 228 122.369 227.676 122.855C226.705 124.366 225.572 125.876 224.546 127.333C224.384 127.549 224.277 127.873 224.115 128.197C225.679 129.168 227.19 129.222 228.755 128.52C229.187 128.359 229.457 127.819 229.673 127.387C230.104 126.524 230.374 125.607 230.806 124.743C230.968 124.473 231.399 124.419 231.723 124.258C231.831 124.581 232.101 124.905 232.101 125.229C231.993 125.93 231.723 126.578 231.561 127.225C230.914 129.33 230.266 131.434 229.565 133.539C229.457 133.916 229.133 134.294 228.863 134.618C228.701 134.186 228.324 133.754 228.324 133.377C228.377 132.298 228.593 131.218 228.755 130.301Z" fill="black" stroke="#251C1C" stroke-width="0.2425" stroke-miterlimit="10"/>
<path d="M232.316 164.08C234.097 164.673 235.661 165.105 237.118 165.645C237.928 165.914 238.683 166.4 239.439 166.832C239.601 166.94 239.6 167.371 239.654 167.641C239.439 167.695 239.169 167.857 238.953 167.803C236.417 166.994 233.881 166.238 231.399 165.321C230.05 164.835 230.05 164.026 231.237 163.163C232.64 162.137 234.097 161.166 235.446 160.087C236.741 159.008 237.766 157.767 238.09 156.04C238.305 155.015 238.198 153.989 237.28 153.666C236.579 153.396 235.661 153.828 234.852 153.989C234.798 153.989 234.744 154.097 234.636 154.151C234.151 154.367 233.665 154.583 233.179 154.853C233.395 154.259 233.503 153.612 233.881 153.18C234.96 151.939 236.579 151.669 237.766 152.371C239.169 153.18 239.762 154.799 239.331 156.418C238.521 159.385 236.363 161.22 233.989 162.893C233.449 163.109 233.017 163.486 232.316 164.08Z" fill="black" stroke="#251C1C" stroke-width="0.2425" stroke-miterlimit="10"/>
<path d="M216.182 99.6524C217.207 100.408 218.232 100.893 218.987 101.649C219.689 102.35 219.743 103.322 218.987 104.131C218.502 104.671 218.016 105.264 217.423 105.696C215.966 106.775 214.509 106.235 214.077 104.401C213.646 102.458 214.293 100.678 215.102 99.0049C216.343 96.3609 218.556 94.5802 220.876 92.9075C221.038 92.7996 221.254 92.5837 221.47 92.5837C221.847 92.5837 222.225 92.6917 222.603 92.7456C222.333 93.0694 222.171 93.501 221.847 93.6629C219.311 94.958 217.531 96.9545 216.182 99.3826C216.128 99.5985 216.182 99.8143 216.182 99.6524ZM214.994 102.836C215.318 103.537 215.642 104.239 216.02 104.94C216.721 104.347 217.746 103.861 218.124 103.106C218.556 102.242 217.585 101.757 216.829 101.541C215.804 101.217 215.534 101.919 214.994 102.836Z" fill="black" stroke="#251C1C" stroke-width="0.2425" stroke-miterlimit="10"/>
<path d="M244.025 78.9863C241.867 78.6625 241.597 80.3353 240.896 81.5763C240.788 81.7922 240.68 82.1159 240.518 82.2239C240.248 82.3857 239.87 82.4936 239.547 82.6016C239.547 82.2778 239.493 81.9541 239.601 81.6843C239.924 80.9288 240.356 80.1734 240.842 79.2561C239.763 79.0402 238.953 78.8784 238.09 78.7165C238.252 77.5833 239.061 77.5833 239.655 77.7992C240.95 78.1769 241.543 77.7452 241.975 76.5042C242.407 75.317 243.108 74.1839 243.81 72.8349C242.029 72.4032 240.302 71.9716 238.522 71.4859C238.468 70.4607 238.791 70.029 239.655 70.2988C241.058 70.6765 242.515 71.1082 243.917 71.5399C245.212 71.9176 245.482 72.5651 244.781 73.8062C244.079 75.1012 243.324 76.3423 242.568 77.6913C243.108 78.015 243.486 78.2848 243.917 78.5546C244.025 78.6625 244.025 78.8244 244.025 78.9863Z" fill="black" stroke="#251C1C" stroke-width="0.2425" stroke-miterlimit="10"/>
<path d="M232.91 44.3981C232.047 44.8838 231.508 45.2075 230.968 45.4773C229.457 46.1788 228.108 46.0169 227.191 45.0996C226.381 44.1823 226.166 42.1858 226.813 41.0526C227.784 39.3799 229.349 38.5705 231.238 38.4626C233.072 38.3547 234.529 40.4051 234.313 41.862C233.99 43.8585 233.504 45.855 232.857 47.7976C232.101 50.0099 229.511 51.5208 227.245 51.251C226.813 51.197 226.435 50.7653 226.058 50.4955C226.273 50.2797 226.543 49.7941 226.759 49.848C229.349 50.3337 231.022 49.4703 232.047 47.0961C232.317 46.2867 232.533 45.5313 232.91 44.3981ZM227.568 41.9699C227.137 43.6427 228.162 45.1536 229.565 44.7219C230.752 44.3442 231.885 43.5348 232.695 42.6175C233.504 41.7541 232.857 39.9195 231.777 39.5957C230.536 39.218 227.784 40.1893 227.568 41.9699Z" fill="black" stroke="#251C1C" stroke-width="0.2425" stroke-miterlimit="10"/>
<path d="M215.805 178.163C214.726 178.865 213.647 179.512 212.567 180.214C212.136 180.484 211.704 180.861 211.218 180.969C210.787 181.023 210.355 180.753 209.923 180.645C210.085 180.268 210.193 179.728 210.517 179.512C212.298 178.487 214.078 177.516 215.859 176.545C216.614 176.167 217.37 175.897 218.179 175.573C218.125 176.491 218.233 177.408 217.963 178.271C217.424 180.214 216.668 182.156 216.075 184.099C215.913 184.692 216.021 185.34 215.859 185.879C215.751 186.257 215.373 186.527 215.103 186.851C214.888 186.527 214.51 186.149 214.564 185.826C214.834 184.153 215.211 182.534 215.535 180.861C215.697 180.052 215.913 179.242 216.129 178.433C215.967 178.379 215.913 178.271 215.805 178.163Z" fill="black" stroke="#251C1C" stroke-width="0.2425" stroke-miterlimit="10"/>
<path d="M132.921 34.4156C135.727 34.9551 138.425 35.7645 141.069 36.7898C142.796 37.4912 143.713 34.7393 141.986 34.0378C139.342 33.0126 136.644 32.2032 133.838 31.6636C132.004 31.3399 131.087 34.0378 132.921 34.4156Z" fill="#39B100"/>
<path d="M165.407 73.3209C166.216 72.2417 166.918 71.1626 167.727 70.2452C167.889 70.0834 168.591 70.1373 168.914 70.3532C172.152 72.1338 175.336 74.0224 178.573 75.8031C179.706 76.3966 179.275 77.0981 178.951 77.8535C178.573 78.6629 178.303 79.9579 177.008 79.3644C175.389 78.6629 173.879 77.6916 172.314 76.8283C171.127 76.1808 170.047 75.3714 168.86 74.7778C167.889 74.1843 166.864 73.8605 165.407 73.3209ZM169.4 73.4828C169.94 73.8605 170.749 74.4001 171.558 74.8857C173.177 75.857 174.742 76.8822 176.361 77.7456C176.631 77.9075 177.17 77.6377 177.602 77.5298C177.44 77.206 177.386 76.6664 177.116 76.5045C174.418 74.9397 171.72 73.4828 169.022 71.9719C168.806 71.864 168.483 71.918 168.213 71.918C168.321 72.1878 168.375 72.5115 168.537 72.7813C168.645 73.0511 168.914 73.1591 169.4 73.4828Z" fill="black" stroke="#251C1C" stroke-width="0.2425" stroke-miterlimit="10"/>
<path d="M127.797 84.0042C127.312 82.925 127.042 82.1156 126.556 81.4141C125.747 80.173 124.883 78.9859 123.966 77.7988C123.426 77.0974 123.48 76.6117 124.236 76.0721C124.721 75.7484 125.153 75.2627 125.585 74.885C126.502 74.0756 127.419 74.2915 127.797 75.4246C128.499 77.3672 129.632 79.0399 131.197 80.4428C131.844 81.0364 131.79 82.0077 131.089 82.5473C130.603 82.925 130.117 83.4106 129.524 83.6265C129.092 83.9502 128.445 83.9502 127.797 84.0042ZM128.876 81.576C128.876 81.0904 129.038 80.5508 128.876 80.1191C128.391 79.1478 127.689 78.2305 127.096 77.3132C126.934 77.0974 126.772 76.8815 126.556 76.6657C125.639 77.637 125.639 77.637 128.876 81.576Z" fill="black" stroke="#251C1C" stroke-width="0.2425" stroke-miterlimit="10"/>
<path d="M134.757 35.8187C133.247 35.3871 133.247 34.9014 134.056 33.4985C134.973 31.9337 135.998 32.0955 137.455 32.5272C139.236 33.0668 141.125 33.3366 142.959 33.6604C144.254 33.9302 144.362 34.2 143.769 35.3331C143.553 35.7108 143.553 36.2504 143.607 36.6821C143.715 37.7073 143.283 38.085 142.312 37.8152C139.83 37.2217 137.293 36.5202 134.757 35.8187ZM141.772 36.1425C141.502 34.9014 137.725 33.6064 136.106 34.092C136.592 35.1173 137.347 35.3871 141.772 36.1425Z" fill="black" stroke="#251C1C" stroke-width="0.2425" stroke-miterlimit="10"/>
<path d="M319.191 9.97144C318.166 9.97144 318.166 11.5902 319.191 11.5902C320.27 11.5902 320.27 9.97144 319.191 9.97144Z" fill="black"/>
<path d="M101.294 168.995L101.281 168.987L101.268 168.98C101.232 168.961 101.196 168.943 101.159 168.924C101.212 168.911 101.265 168.897 101.318 168.881C101.325 168.911 101.328 168.947 101.324 168.984C101.323 168.994 101.322 169.003 101.321 169.011C101.312 169.006 101.303 169.001 101.294 168.995ZM101.299 169.075C101.299 169.075 101.299 169.075 101.299 169.075L101.299 169.075Z" fill="#221E1F" stroke="#251C1C"/>
<path d="M125.484 101.699L125.484 101.699L125.487 101.697C125.737 101.472 126.018 101.217 126.298 100.946C126.278 101.026 126.256 101.108 126.235 101.192C126.181 101.398 126.124 101.617 126.069 101.856C125.998 102.141 125.955 102.474 125.915 102.78C125.905 102.859 125.895 102.937 125.884 103.011C125.83 103.402 125.769 103.735 125.662 103.993L125.662 103.993L125.659 104C125.607 104.13 125.555 104.147 125.517 104.155C125.441 104.173 125.304 104.166 125.097 104.092C124.688 103.946 124.244 103.627 124.027 103.434L124.021 103.429L124.015 103.424C123.935 103.356 123.921 103.309 123.917 103.287C123.912 103.255 123.914 103.204 123.944 103.13L123.979 103.041V102.955C124.087 102.767 124.288 102.582 124.578 102.37C124.655 102.313 124.744 102.251 124.837 102.186C125.055 102.034 125.299 101.864 125.484 101.699Z" fill="#221E1F" stroke="#251C1C"/>
<path d="M80.2937 99.561C80.3111 99.5 80.3278 99.4493 80.3441 99.4076C80.446 99.5604 80.5463 99.7146 80.6483 99.8716L80.6504 99.8748C80.8244 100.143 81.0037 100.418 81.1975 100.695L81.2095 100.712L81.223 100.729C81.5019 101.063 81.6425 101.255 81.6466 101.529C81.6264 101.828 81.3693 102.147 80.833 102.5C80.579 102.667 80.2979 102.819 80.0186 102.965C79.9647 102.993 79.91 103.021 79.8553 103.049C79.6382 103.162 79.4207 103.274 79.2454 103.379L79.2454 103.379L79.2442 103.38C79.243 103.38 79.2416 103.379 79.2398 103.379C79.2209 103.376 79.1876 103.363 79.1536 103.334C79.1195 103.305 79.1033 103.275 79.0982 103.259C79.0976 103.258 79.0972 103.256 79.097 103.255C79.5218 102.404 79.9385 101.467 79.9485 100.394L80.0734 100.331L80.1389 100.135C80.1726 100.034 80.2003 99.9257 80.2238 99.8316C80.2281 99.8144 80.2323 99.7977 80.2364 99.7812C80.2561 99.7019 80.2738 99.6307 80.2937 99.561Z" fill="#221E1F" stroke="#251C1C"/>
<path d="M92.6502 124.761C92.9273 124.041 93.4239 123.514 94.0719 123.166C93.6549 123.463 93.3006 123.85 93.0806 124.314L92.7193 125.077L92.8706 125.068V125.283C92.8706 125.309 92.8691 125.319 92.8656 125.342C92.8629 125.361 92.8589 125.388 92.8534 125.437C92.8454 125.509 92.8353 125.637 92.8816 125.782C92.9785 126.48 93.4571 127.049 93.9047 127.44L94.1128 127.623L94.2454 127.583L94.82 127.966C95.0192 128.099 95.2797 128.179 95.4174 128.221C95.4422 128.228 95.463 128.235 95.4788 128.24L95.4788 128.24L95.4853 128.242C96.1523 128.454 96.8203 128.495 97.4568 128.488C97.7515 128.485 98.0469 128.471 98.3328 128.458C98.355 128.457 98.3772 128.456 98.3993 128.455C98.7093 128.44 99.0089 128.427 99.3061 128.427C99.5932 128.427 99.8574 128.344 100.067 128.174C100.192 128.072 100.286 127.949 100.351 127.815C101.173 127.44 101.922 126.819 102.515 126.011L102.671 125.798L102.752 125.839C102.772 125.849 102.792 125.858 102.806 125.865C102.813 125.868 102.82 125.871 102.825 125.874C102.833 125.877 102.839 125.88 102.845 125.883C102.847 125.884 102.85 125.885 102.852 125.886L102.867 125.913C103.954 127.777 106.122 128.263 107.964 127.997C108.895 127.863 109.791 127.534 110.494 127.053C111.125 126.621 111.638 126.038 111.834 125.331L111.848 125.331L111.856 125.243C111.868 125.195 111.878 125.147 111.886 125.098L111.985 124.514H111.894C111.87 124.214 111.784 123.915 111.643 123.616C111.92 123.933 112.107 124.278 112.172 124.651L112.188 125.13V125.365L112.188 125.365C112.146 126.58 111.417 127.414 110.298 127.917C109.089 128.459 107.47 128.582 105.982 128.3L105.495 128.207L105.503 128.109L105.121 127.99C104.322 127.74 103.632 127.343 103.096 126.856L102.702 126.498L102.369 126.914C101.784 127.645 101.055 128.132 100.219 128.427L99.7474 128.594L99.7836 128.696C98.856 128.932 97.8633 128.935 96.7904 128.782C95.7792 128.622 94.4634 128.31 93.5297 127.721L93.3413 127.602L93.2989 127.614L93.0428 127.326C92.6883 126.927 92.4766 126.461 92.5205 125.802L92.5216 125.786V125.769C92.5216 125.745 92.525 125.721 92.5367 125.668C92.5375 125.665 92.5384 125.661 92.5395 125.656C92.5448 125.632 92.553 125.596 92.5591 125.563C92.5671 125.518 92.5756 125.459 92.5756 125.391V124.955L92.6502 124.761ZM102.817 124.917L102.159 125.136L102.132 125.028L102.034 124.93L102.027 124.923C101.874 124.77 101.7 124.596 101.47 124.42C101.047 124.001 100.672 123.726 100.354 123.511C100.248 123.379 100.128 123.265 99.9998 123.166L100.411 122.668C99.8356 121.883 99.3666 121.101 98.9492 120.214L98.9493 120.214L98.944 120.204C98.9319 120.179 98.9248 120.144 98.9441 120.086C98.9651 120.023 99.013 119.953 99.0789 119.9L99.0862 119.894L99.0934 119.888C99.3335 119.681 99.5303 119.604 99.6842 119.586C99.8359 119.567 99.9941 119.6 100.17 119.698C100.546 119.906 100.935 120.373 101.302 121.003L101.846 121.935L102.206 120.917C102.507 120.064 102.959 119.308 103.571 118.594L103.571 118.594L103.575 118.589C103.599 118.56 103.677 118.512 103.785 118.512C103.881 118.512 103.93 118.548 103.954 118.588L103.96 118.597L103.966 118.606C104.44 119.295 104.47 120.197 104.169 121.201L103.93 121.998L104.746 121.835C105.188 121.746 105.617 121.677 106.057 121.651C105.303 121.833 104.572 122.121 103.925 122.469L103.777 122.549L103.707 122.702C103.437 123.298 103.171 123.883 102.906 124.412L102.794 124.636L102.905 124.858C102.901 124.864 102.894 124.873 102.881 124.883C102.865 124.896 102.843 124.908 102.817 124.917ZM102.415 130.963C103.671 131.015 104.889 130.392 105.318 129.213C105.014 130.382 103.85 131.181 102.521 131.098L102.513 131.097L102.506 131.097C101.765 131.073 101.278 130.85 100.971 130.538C100.96 130.526 100.949 130.515 100.938 130.503C101.34 130.782 101.831 130.935 102.412 130.963L102.415 130.963Z" fill="#221E1F" stroke="#251C1C"/>
<path d="M90.3276 109.427L90.3276 109.427L90.3293 109.426C91.2991 109.253 92.0571 109.529 92.6848 110.09C93.3329 110.668 93.8518 111.563 94.2603 112.621C95.0714 114.724 95.3788 117.288 95.5147 118.72C95.5095 118.855 95.4501 118.913 95.4061 118.934C93.4924 119.571 91.5247 120.103 89.5561 120.529C89.489 120.539 89.4577 120.527 89.4475 120.522C89.4356 120.517 89.4207 120.506 89.4058 120.48C89.3702 120.419 89.3562 120.305 89.4033 120.199L89.4815 120.023L89.4773 120.01H89.4774H89.4775H89.4776H89.4777H89.4777H89.4778H89.4779H89.478H89.4781H89.4782H89.4783H89.4784H89.4784H89.4785H89.4786H89.4787H89.4788H89.4789H89.4789H89.479H89.4791H89.4792H89.4793H89.4793H89.4794H89.4795H89.4796H89.4797H89.4797H89.4798H89.4799H89.48H89.48H89.4801H89.4802H89.4802H89.4803H89.4804H89.4805H89.4805H89.4806H89.4807H89.4807H89.4808H89.4809H89.4809H89.481H89.4811H89.4811H89.4812H89.4813H89.4813H89.4814H89.4814H89.4815H89.4816H89.4816H89.4817H89.4817H89.4818H89.4819H89.4819H89.482H89.482H89.4821H89.4821H89.4822H89.4822H89.4823H89.4823H89.4824H89.4825H89.4825H89.4826H89.4826H89.4827H89.4827H89.4828H89.4828H89.4828H89.4829H89.4829H89.483H89.483H89.4831H89.4831H89.4832H89.4832H89.4833H89.4833H89.4833H89.4834H89.4834H89.4835H89.4835H89.4836H89.4836H89.4836H89.4837H89.4837H89.4837H89.4838H89.4838H89.4839H89.4839H89.4839H89.484H89.484H89.484H89.4841H89.4841H89.4841H89.4842H89.4842H89.4842H89.4843H89.4843H89.4843H89.4844H89.4844H89.4844H89.4845H89.4845H89.4845H89.4845H89.4846H89.4846H89.4846H89.4847H89.4847H89.4847H89.4847H89.4848H89.4848H89.4848H89.4848H89.4849H89.4849H89.4849H89.4849H89.485H89.485H89.485H89.485H89.485H89.4851H89.4851H89.4851H89.4851H89.4852H89.4852H89.4852H89.4852H89.4852H89.4853H89.4853H89.4853H89.4853H89.4853H89.4853H89.4854H89.4854H89.4854H89.4854H89.4854H89.4854H89.4855H89.4855H89.4855H89.4855H89.4855H89.4855H89.4855H89.4856H89.4856H89.4856H89.4856H89.4856H89.4856H89.4856H89.4856H89.4857H89.4857H89.4857H89.4857H89.4857H89.4857H89.4857H89.4857H89.4857H89.4857H89.4858H89.4858H89.4858H89.4858H89.4858H89.4858H89.4858H89.4858H89.4858H89.4858H89.4858H89.4858H89.4859H89.4859H89.4859H89.4859H89.4859H89.4859H89.4859H89.4859H89.4859H89.486H89.486H89.486H89.486H89.486H89.486H89.486H89.486H89.5137L89.5412 120.007C89.9814 119.958 90.3836 119.867 90.7814 119.777C90.8535 119.761 90.9254 119.744 90.9974 119.728L91.8866 119.531L91.2425 118.887C91.0318 118.676 90.8878 118.378 90.7849 117.997C90.6852 117.628 90.635 117.225 90.5822 116.802C90.58 116.785 90.5779 116.768 90.5757 116.75L90.5757 116.75L90.575 116.745C90.5465 116.536 90.5159 116.329 90.4856 116.124C90.335 115.107 90.1915 114.137 90.3554 113.234C90.3956 113.023 90.5936 112.811 90.8618 112.732C91.1066 112.66 91.3087 112.721 91.4341 112.919C92.0254 113.907 92.2295 115.001 92.4475 116.2L92.4475 116.2L92.448 116.203C92.4834 116.392 92.5265 116.584 92.5674 116.767C92.5755 116.803 92.5834 116.839 92.5913 116.874C92.64 117.093 92.684 117.3 92.715 117.502C92.7775 117.908 92.7792 118.248 92.6809 118.543L92.3647 119.491L93.3134 119.175C93.5382 119.1 93.7786 119.037 94.0379 118.969L94.0456 118.966C94.2967 118.9 94.5661 118.83 94.8242 118.743L95.1935 118.62L95.1647 118.232C95.0562 116.767 94.8914 115.264 94.4425 113.805L94.4427 113.805L94.439 113.794C94.2145 113.121 93.9319 112.496 93.5368 111.871C93.2373 111.28 92.823 110.752 92.3003 110.287L92.1438 110.148L91.9349 110.162C91.1447 110.215 90.4055 110.215 89.5939 110.215H89.4624L89.3479 110.28C88.8571 110.557 88.6204 111.078 88.5014 111.578C88.3794 112.09 88.3551 112.685 88.3725 113.259C88.3974 114.082 88.5154 114.961 88.5963 115.564C88.6256 115.782 88.6501 115.964 88.6635 116.094C88.6877 116.6 88.7225 117.115 88.7631 117.631C88.4158 116.314 88.1183 114.841 88.0701 113.496C88.031 112.403 88.1593 111.449 88.5133 110.742C88.8529 110.064 89.4099 109.587 90.3276 109.427Z" fill="#221E1F" stroke="#251C1C"/>
<path d="M112.461 116.959C112.461 116.959 112.462 116.959 112.462 116.959C112.472 116.954 112.488 116.944 112.508 116.926C112.527 116.908 112.544 116.886 112.557 116.865C112.567 116.848 112.572 116.834 112.574 116.827C112.79 115.422 113.126 112.849 112.859 110.598C112.725 109.466 112.444 108.467 111.96 107.743C111.491 107.042 110.826 106.588 109.847 106.518L109.845 106.518C108.916 106.45 108.259 106.775 107.763 107.351C107.245 107.951 106.886 108.846 106.654 109.916C106.362 111.267 106.29 112.812 106.303 114.201C106.388 113.664 106.48 113.118 106.583 112.573C106.602 112.443 106.624 112.26 106.65 112.04C106.721 111.43 106.826 110.539 107.006 109.723C107.131 109.156 107.301 108.581 107.542 108.111C107.776 107.655 108.128 107.2 108.668 107.049L108.787 107.016L108.908 107.042C109.294 107.124 109.678 107.221 110.053 107.314L110.057 107.315C110.437 107.41 110.806 107.502 111.174 107.581L111.366 107.622L111.479 107.783C111.875 108.349 112.181 108.944 112.31 109.618C112.535 110.303 112.646 110.983 112.701 111.701L112.701 111.702C112.814 113.228 112.587 114.739 112.316 116.201L112.241 116.61H111.825H111.822H111.818H111.815H111.812H111.809H111.806H111.803H111.799H111.796H111.793H111.79H111.787H111.784H111.78H111.777H111.774H111.771H111.768H111.765H111.761H111.758H111.755H111.752H111.749H111.746H111.743H111.739H111.736H111.733H111.73H111.727H111.724H111.72H111.717H111.714H111.711H111.708H111.705H111.701H111.698H111.695H111.692H111.689H111.686H111.682H111.679H111.676H111.673H111.67H111.667H111.664H111.66H111.657H111.654H111.651H111.648H111.645H111.641H111.638H111.635H111.632H111.629H111.626H111.622H111.619H111.616H111.613H111.61H111.607H111.604H111.6H111.597H111.594H111.591H111.588H111.585H111.581H111.578H111.575H111.572H111.569H111.566H111.563H111.559H111.556H111.553H111.55H111.547H111.544H111.54H111.537H111.534H111.531H111.528H111.525H111.522H111.518H111.515H111.512H111.509H111.506H111.503H111.5H111.496H111.493H111.49H111.487H111.484H111.481H111.477H111.474H111.471H111.468H111.465H111.462H111.459H111.455H111.452H111.449H111.446H111.443H111.44H111.437H111.433H111.43H111.427H111.424H111.421H111.418H111.415H111.411H111.408H111.405H111.402H111.399H111.396H111.393H111.389H111.386H111.383H111.38H111.377H111.374H111.371H111.368H111.364H111.361H111.358H111.355H111.352H111.349H111.346H111.342H111.339H111.336H111.333H111.33H111.327H111.324H111.321H111.317H111.314H111.311H111.308H111.305H111.302H111.299H111.295H111.292H111.289H111.286H111.283H111.28H111.277H111.274H111.27H111.267H111.264H111.261H111.258H111.255H111.252H111.249H111.245H111.242H111.239H111.236H111.233H111.23H111.227H111.224H111.221H111.217H111.214H111.211H111.208H111.205H111.202H111.199H111.196H111.192H111.189H111.186H111.183H111.18H111.177H111.174H111.171H111.168H111.164H111.161H111.158H111.155H111.152H111.149H111.146H111.143H111.14H111.137H111.133H111.13H111.127H111.124H111.121H111.118H111.115H111.112H111.109H111.106H111.102H111.099H111.096H111.093H111.09H111.087H111.084H111.081H111.078H111.075H111.071H111.068H111.065H111.062H111.059H111.056H111.053H111.05H111.047H111.044H111.041H111.037H111.034H111.031H111.028H111.025H111.022H111.019H111.016H111.013H111.01H111.007H111.004H111.001H110.997H110.994H110.991H110.988H110.985H110.982H110.979H110.976H110.973H110.97H110.967H110.964H110.961H110.957H110.954H110.951H110.948H110.945H110.942H110.939H110.936H110.933H110.93H110.927H110.924H110.921H110.918H110.915H110.912H110.908H110.905H110.902H110.899H110.896H110.893H110.89H110.887H110.884H110.881H110.878H110.875H110.872H110.869H110.866H110.863H110.86H110.857H110.854H110.85H110.847H110.844H110.841H110.838H110.835H110.832H110.829H110.826H110.823H110.82H110.817H110.814H110.811H110.808H110.805H110.802H110.799H110.796H110.793H110.79H110.787H110.784H110.781H110.778H110.775H110.772H110.769H110.766H110.763H110.76H110.756H110.753H110.75H110.747H110.744H110.741H110.738H110.735H110.732H110.729H110.726H110.723H110.72H110.717H110.714H110.711H110.708H110.705H110.702H110.699H110.696H110.693H110.69H110.687H110.684H110.681H110.678H110.675H110.672H110.669H110.666H110.663H110.66H110.657H110.654H110.651H110.648H110.645H110.642H110.639H110.636H110.633H110.63H110.627H110.624H110.621H110.618H110.616H110.613H110.61H110.607H110.604H110.601H110.598H110.595H110.592H110.589H110.586H110.583H110.58H110.577H110.574H110.571H110.568H110.565H110.562H110.559H110.556H110.553H110.55H110.547H110.544H110.541H110.538H110.535H110.533H110.53H110.527H110.524H110.521H110.518H110.515H110.512H110.509H110.506H110.503H110.5H110.497H110.494H110.491H110.488H110.485H110.482H110.48H110.477H110.474H110.471H110.468H110.465H110.462H110.459H110.456H110.453H110.45H110.447H110.444H110.442H110.439H110.436H110.433H110.43H110.427H110.424H110.421H110.418H110.415H110.412H110.409H110.407H110.404H110.401H110.398H110.395H110.392H110.389H110.386H110.383H110.38H110.378H110.375H110.372H110.369H110.366H110.363H110.36H110.357H110.354H110.352H110.349H110.346H110.343H110.34H110.337H110.334H110.331H110.329H110.326H110.323H110.32H110.317H110.314H110.311H110.308H110.306H110.303H110.3H110.297H110.294H110.291H110.288H110.286H110.283H110.28H110.277H110.274H110.271H110.268H110.266H110.263H110.26H109.306L109.849 115.826C110.02 115.579 110.102 115.261 110.14 114.851C110.158 114.647 110.165 114.433 110.17 114.202C110.17 114.17 110.171 114.137 110.172 114.104C110.176 113.908 110.18 113.699 110.192 113.494M112.461 116.959L110.692 113.52M112.461 116.959H112.453L112.433 116.961C110.403 117.121 108.378 117.174 106.356 117.068C106.29 117.062 106.262 117.043 106.253 117.035C106.241 117.025 106.229 117.009 106.22 116.981C106.2 116.912 106.219 116.818 106.269 116.759L106.401 116.605L106.394 116.502M112.461 116.959L106.394 116.502M110.192 113.494C110.192 113.493 110.192 113.492 110.192 113.491L110.692 113.52M110.192 113.494C110.192 113.495 110.192 113.496 110.192 113.497L110.692 113.52M110.192 113.494C110.198 113.367 110.204 113.241 110.21 113.116C110.264 112.036 110.314 111.016 110.048 110.038M110.692 113.52C110.697 113.393 110.704 113.266 110.71 113.138C110.764 112.069 110.819 110.965 110.53 109.905M110.048 110.038C110.048 110.038 110.048 110.038 110.048 110.039L110.53 109.905M110.048 110.038C109.991 109.833 109.829 109.722 109.561 109.73C109.266 109.739 109.014 109.899 108.926 110.074C108.496 110.935 108.406 111.993 108.313 113.082C108.301 113.225 108.289 113.368 108.276 113.511L108.275 113.52L108.274 113.528C108.267 113.582 108.26 113.636 108.253 113.69C108.204 114.078 108.158 114.441 108.163 114.794C108.169 115.187 108.24 115.515 108.414 115.786L108.909 116.556H107.994C107.736 116.556 107.494 116.542 107.269 116.529L107.263 116.528C107.032 116.515 106.817 116.502 106.591 116.502H106.591H106.591H106.591H106.591H106.591H106.591H106.591H106.591H106.591H106.591H106.591H106.591H106.591H106.591H106.591H106.591H106.591H106.59H106.59H106.59H106.59H106.59H106.59H106.59H106.59H106.59H106.59H106.59H106.59H106.59H106.59H106.59H106.59H106.59H106.59H106.59H106.59H106.59H106.59H106.59H106.59H106.59H106.59H106.59H106.59H106.59H106.59H106.59H106.59H106.59H106.59H106.59H106.59H106.59H106.59H106.59H106.59H106.59H106.59H106.59H106.59H106.59H106.59H106.59H106.59H106.59H106.59H106.59H106.59H106.59H106.59H106.59H106.59H106.59H106.59H106.59H106.59H106.59H106.59H106.59H106.59H106.59H106.59H106.59H106.589H106.589H106.589H106.589H106.589H106.589H106.589H106.589H106.589H106.589H106.589H106.589H106.589H106.589H106.589H106.589H106.589H106.589H106.589H106.589H106.589H106.589H106.589H106.589H106.589H106.589H106.589H106.589H106.589H106.589H106.589H106.589H106.589H106.588H106.588H106.588H106.588H106.588H106.588H106.588H106.588H106.588H106.588H106.588H106.588H106.588H106.588H106.588H106.588H106.588H106.588H106.588H106.588H106.588H106.588H106.588H106.587H106.587H106.587H106.587H106.587H106.587H106.587H106.587H106.587H106.587H106.587H106.587H106.587H106.587H106.587H106.587H106.587H106.587H106.587H106.586H106.586H106.586H106.586H106.586H106.586H106.586H106.586H106.586H106.586H106.586H106.586H106.586H106.586H106.586H106.586H106.586H106.585H106.585H106.585H106.585H106.585H106.585H106.585H106.585H106.585H106.585H106.585H106.585H106.585H106.585H106.584H106.584H106.584H106.584H106.584H106.584H106.584H106.584H106.584H106.584H106.584H106.584H106.584H106.583H106.583H106.583H106.583H106.583H106.583H106.583H106.583H106.583H106.583H106.583H106.582H106.582H106.582H106.582H106.582H106.582H106.582H106.582H106.582H106.582H106.582H106.581H106.581H106.581H106.581H106.581H106.581H106.581H106.581H106.581H106.581H106.58H106.58H106.58H106.58H106.58H106.58H106.58H106.58H106.58H106.579H106.579H106.579H106.579H106.579H106.579H106.579H106.579H106.579H106.578H106.578H106.578H106.578H106.578H106.578H106.578H106.578H106.577H106.577H106.577H106.577H106.577H106.577H106.577H106.577H106.576H106.576H106.576H106.576H106.576H106.576H106.576H106.576H106.575H106.575H106.575H106.575H106.575H106.575H106.575H106.574H106.574H106.574H106.574H106.574H106.574H106.574H106.573H106.573H106.573H106.573H106.573H106.573H106.573H106.572H106.572H106.572H106.572H106.572H106.572H106.571H106.571H106.571H106.571H106.571H106.571H106.57H106.57H106.57H106.57H106.57H106.57H106.569H106.569H106.569H106.569H106.569H106.569H106.568H106.568H106.568H106.568H106.568H106.568H106.567H106.567H106.567H106.567H106.567H106.566H106.566H106.566H106.566H106.566H106.566H106.565H106.565H106.565H106.565H106.565H106.564H106.564H106.564H106.564H106.564H106.563H106.563H106.563H106.563H106.563H106.562H106.562H106.562H106.562H106.562H106.561H106.561H106.561H106.561H106.56H106.56H106.56H106.56H106.56H106.559H106.559H106.559H106.559H106.558H106.558H106.558H106.558H106.558H106.557H106.557H106.557H106.557H106.556H106.556H106.556H106.556H106.555H106.555H106.555H106.555H106.555H106.554H106.554H106.554H106.554H106.553H106.553H106.553H106.553H106.552H106.552H106.552H106.552H106.551H106.551H106.551H106.55H106.55H106.55H106.55H106.549H106.549H106.549H106.549H106.548H106.548H106.548H106.548H106.547H106.547H106.547H106.546H106.546H106.546H106.546H106.545H106.545H106.545H106.545H106.544H106.544H106.544H106.543H106.543H106.543H106.542H106.542H106.542H106.542H106.541H106.541H106.541H106.54H106.54H106.54H106.539H106.539H106.539H106.539H106.538H106.538H106.538H106.537H106.537H106.537H106.394M110.048 110.038C110.048 110.037 110.047 110.037 110.047 110.036L110.53 109.905M110.53 109.905L106.394 116.502M110.26 116.11V115.61H110.263H110.266H110.268H110.271H110.274H110.277H110.28H110.283H110.286H110.288H110.291H110.294H110.297H110.3H110.303H110.306H110.308H110.311H110.314H110.317H110.32H110.323H110.326H110.329H110.331H110.334H110.337H110.34H110.343H110.346H110.349H110.352H110.354H110.357H110.36H110.363H110.366H110.369H110.372H110.375H110.378H110.38H110.383H110.386H110.389H110.392H110.395H110.398H110.401H110.404H110.407H110.409H110.412H110.415H110.418H110.421H110.424H110.427H110.43H110.433H110.436H110.439H110.442H110.444H110.447H110.45H110.453H110.456H110.459H110.462H110.465H110.468H110.471H110.474H110.477H110.48H110.482H110.485H110.488H110.491H110.494H110.497H110.5H110.503C110.445 115.788 110.367 115.955 110.26 116.11ZM110.26 116.11L110.671 116.395C110.735 116.302 110.79 116.207 110.838 116.11H110.26ZM106.537 116.002C106.555 115.882 106.573 115.762 106.591 115.641C106.594 115.621 106.597 115.6 106.6 115.58C106.604 115.554 106.607 115.528 106.611 115.502C106.604 115.502 106.598 115.502 106.591 115.502H106.591H106.591H106.591H106.591H106.591H106.591H106.591H106.591H106.591H106.591H106.591H106.591H106.591H106.591H106.591H106.591H106.591H106.59H106.59H106.59H106.59H106.59H106.59H106.59H106.59H106.59H106.59H106.59H106.59H106.59H106.59H106.59H106.59H106.59H106.59H106.59H106.59H106.59H106.59H106.59H106.59H106.59H106.59H106.59H106.59H106.59H106.59H106.59H106.59H106.59H106.59H106.59H106.59H106.59H106.59H106.59H106.59H106.59H106.59H106.59H106.59H106.59H106.59H106.59H106.59H106.59H106.59H106.59H106.59H106.59H106.59H106.59H106.59H106.59H106.59H106.59H106.59H106.59H106.59H106.59H106.59H106.59H106.59H106.59H106.589H106.589H106.589H106.589H106.589H106.589H106.589H106.589H106.589H106.589H106.589H106.589H106.589H106.589H106.589H106.589H106.589H106.589H106.589H106.589H106.589H106.589H106.589H106.589H106.589H106.589H106.589H106.589H106.589H106.589H106.589H106.589H106.589H106.588H106.588H106.588H106.588H106.588H106.588H106.588H106.588H106.588H106.588H106.588H106.588H106.588H106.588H106.588H106.588H106.588H106.588H106.588H106.588H106.588H106.588H106.588H106.587H106.587H106.587H106.587H106.587H106.587H106.587H106.587H106.587H106.587H106.587H106.587H106.587H106.587H106.587H106.587H106.587H106.587H106.587H106.586H106.586H106.586H106.586H106.586H106.586H106.586H106.586H106.586H106.586H106.586H106.586H106.586H106.586H106.586H106.586H106.586H106.585H106.585H106.585H106.585H106.585H106.585H106.585H106.585H106.585H106.585H106.585H106.585H106.585H106.585H106.584H106.584H106.584H106.584H106.584H106.584H106.584H106.584H106.584H106.584H106.584H106.584H106.584H106.583H106.583H106.583H106.583H106.583H106.583H106.583H106.583H106.583H106.583H106.583H106.582H106.582H106.582H106.582H106.582H106.582H106.582H106.582H106.582H106.582H106.582H106.581H106.581H106.581H106.581H106.581H106.581H106.581H106.581H106.581H106.581H106.58H106.58H106.58H106.58H106.58H106.58H106.58H106.58H106.58H106.579H106.579H106.579H106.579H106.579H106.579H106.579H106.579H106.579H106.578H106.578H106.578H106.578H106.578H106.578H106.578H106.578H106.577H106.577H106.577H106.577H106.577H106.577H106.577H106.577H106.576H106.576H106.576H106.576H106.576H106.576H106.576H106.576H106.575H106.575H106.575H106.575H106.575H106.575H106.575H106.574H106.574H106.574H106.574H106.574H106.574H106.574H106.573H106.573H106.573H106.573H106.573H106.573H106.573H106.572H106.572H106.572H106.572H106.572H106.572H106.571H106.571H106.571H106.571H106.571H106.571H106.57H106.57H106.57H106.57H106.57H106.57H106.569H106.569H106.569H106.569H106.569H106.569H106.568H106.568H106.568H106.568H106.568H106.568H106.567H106.567H106.567H106.567H106.567H106.566H106.566H106.566H106.566H106.566H106.566H106.565H106.565H106.565H106.565H106.565H106.564H106.564H106.564H106.564H106.564H106.563H106.563H106.563H106.563H106.563H106.562H106.562H106.562H106.562H106.562H106.561H106.561H106.561H106.561H106.56H106.56H106.56H106.56H106.56H106.559H106.559H106.559H106.559H106.558H106.558H106.558H106.558H106.558H106.557H106.557H106.557H106.557H106.556H106.556H106.556H106.556H106.555H106.555H106.555H106.555H106.555H106.554H106.554H106.554H106.554H106.553H106.553H106.553H106.553H106.552H106.552H106.552H106.552H106.551H106.551H106.551H106.55H106.55H106.55H106.55H106.549H106.549H106.549H106.549H106.548H106.548H106.548H106.548H106.547H106.547H106.547H106.546H106.546H106.546H106.546H106.545H106.545H106.545H106.545H106.544H106.544H106.544H106.543H106.543H106.543H106.542H106.542H106.542H106.542H106.541H106.541H106.541H106.54H106.54H106.54H106.539H106.539H106.539H106.539H106.538H106.538H106.538H106.537H106.537H106.537V116.002ZM106.537 116.002L106.591 116.01L107.031 116.076C107.034 116.056 107.037 116.036 107.04 116.015C106.894 116.008 106.745 116.002 106.591 116.002H106.537ZM107.994 116.056L107.573 116.327C107.512 116.232 107.459 116.135 107.414 116.036C107.603 116.047 107.794 116.056 107.994 116.056ZM107.994 116.056V115.556C107.917 115.556 107.841 115.555 107.766 115.552C107.818 115.728 107.891 115.897 107.994 116.056Z" fill="#221E1F" stroke="#251C1C"/>
<mask id="path-35-inside-1" fill="white">
<path d="M156.448 90.2099C148.246 89.7243 144.577 102.135 142.85 107.963C141.07 113.898 139.774 119.995 137.184 125.661C134.486 131.543 130.763 136.777 127.094 142.065C126.393 137.964 125.853 133.809 126.123 129.654C127.903 126.632 128.983 123.287 129.522 119.834C129.63 119.618 129.684 119.348 129.63 119.024V118.97C130.062 115.301 130.386 109.365 128.389 105.804C128.335 105.642 128.281 105.48 128.281 105.265C128.335 105.157 128.389 105.103 128.443 104.941C129.252 101.919 129.63 98.8974 129.846 95.8217C129.9 95.1202 129.144 94.5806 128.497 94.9044C126.662 95.9296 124.882 96.9009 123.047 97.9261C120.673 99.2751 119.432 99.0592 116.896 98.4657C113.28 97.5484 109.611 97.0088 105.942 96.8469C98.7654 96.4692 91.7506 97.5484 84.9517 99.9226C84.7359 99.9765 84.8438 100.354 85.0597 100.3C93.0457 98.1959 101.463 97.5484 109.611 98.7894C111.877 99.1132 114.09 99.5988 116.248 100.192C117.489 100.516 118.838 101.218 120.133 101.218C122.507 101.272 125.475 99.1132 127.796 97.6023C127.634 99.9226 127.256 102.189 126.716 104.455C126.662 104.671 126.716 104.887 126.77 105.103C126.716 105.157 126.662 105.265 126.716 105.372C126.77 105.48 126.77 105.534 126.824 105.642C126.824 105.804 126.824 105.912 126.878 106.074C126.932 106.506 126.878 106.991 127.256 107.261C127.418 108.448 127.688 109.581 127.849 110.822C127.957 111.956 128.065 113.089 128.065 114.222C126.123 114.114 121.698 114.06 121.86 116.812C121.914 117.999 123.371 118.7 124.234 119.186C125.313 119.78 126.5 120.103 127.688 120.265C127.526 121.075 127.364 121.884 127.148 122.693C126.069 122.1 124.936 121.722 123.695 121.776C122.669 121.83 121.374 122.208 120.943 123.233C120.457 124.42 121.536 125.23 122.4 125.877C123.209 126.525 124.234 127.28 125.313 127.604C124.612 129.007 123.749 130.356 122.777 131.651C122.13 132.514 123.479 133.377 124.126 132.568C124.234 132.46 124.288 132.298 124.396 132.19C124.342 132.946 124.45 133.755 123.964 134.511C123.263 135.698 121.968 136.237 120.673 136.399C120.403 136.399 120.403 136.831 120.619 136.885C121.752 137.155 122.939 136.939 123.856 136.345C124.504 142.82 125.259 149.188 124.72 155.663C124.612 156.85 124.45 158.037 124.288 159.224C123.479 159.278 122.561 159.656 121.914 160.087C121.158 160.519 120.079 161.166 120.025 162.138C119.917 163.972 122.184 163.864 123.641 163.217C123.479 164.08 123.263 164.944 123.101 165.807C121.968 166.185 120.889 166.616 119.81 167.156C119.108 167.534 117.813 168.073 117.975 169.045C118.137 170.178 119.594 170.178 120.457 170.124C121.051 170.07 121.644 169.962 122.238 169.8C121.86 171.365 121.536 172.93 121.212 174.494C121.212 174.548 121.212 174.602 121.212 174.656C120.835 174.764 120.511 174.818 120.187 174.98C120.079 175.034 120.025 175.088 119.971 175.142C121.644 174.98 123.803 174.548 124.828 175.789C125.259 176.113 125.637 176.653 125.745 177.354C126.069 178.919 124.828 179.89 123.371 180.106C122.238 180.592 121.051 180.808 119.81 180.808C118.461 180.862 117.004 180.7 115.763 180.322C112.147 179.243 110.475 176.437 109.665 172.876C108.37 167.156 108.208 167.048 108.64 161.166C109.018 161.059 109.341 160.951 109.719 160.843L109.773 160.897C110.421 161.436 111.554 161.598 112.363 161.22C113.28 160.843 113.928 159.925 114.683 159.332C114.953 159.116 114.629 158.738 114.306 158.9C113.712 159.278 112.957 159.71 112.309 160.033C111.824 160.249 111.392 160.195 110.96 160.087C111.554 159.656 112.093 159.17 112.525 158.469C112.849 157.983 112.309 157.227 111.716 157.551C103.568 161.922 94.0169 158.469 86.3007 154.637C86.2468 154.637 86.2468 154.691 86.2468 154.691C87.0022 155.393 87.8116 156.04 88.6749 156.634C88.2972 156.688 87.9735 156.742 87.5958 156.742C86.7324 156.742 85.923 156.472 85.1136 156.202C84.8978 156.148 84.628 156.418 84.8438 156.634C85.4913 157.335 86.3007 157.713 87.218 157.875C88.0814 158.037 89.3225 158.253 89.97 157.551C89.97 157.551 89.97 157.497 90.0239 157.497C91.1571 158.145 92.3442 158.738 93.5313 159.224C92.9917 160.843 92.5061 162.462 91.8586 164.08C91.265 165.483 90.4016 166.724 89.97 168.181C89.7002 168.775 89.3764 169.422 89.0527 170.232C88.0274 172.714 87.0022 176.113 85.2755 178.218C84.0884 179.621 82.5775 180.376 80.8508 180.754C80.0414 180.916 79.2321 180.97 78.4227 180.916C78.0989 180.916 77.7751 180.916 77.4514 180.862C77.1276 180.808 76.8578 180.754 76.588 180.646C75.1311 180.16 73.944 179.027 74.2678 177.408C74.8613 174.602 78.2608 175.196 80.1494 176.383C79.34 175.789 78.4766 174.98 77.5054 174.548C76.9658 172.606 76.4801 170.663 76.1024 168.721C76.2643 168.829 76.3722 168.937 76.5341 168.991C77.3974 169.422 78.4766 169.206 78.9083 168.343C79.4479 167.264 78.5845 166.508 77.6672 166.023C77.0197 165.699 76.2103 165.213 75.4549 165.159C75.347 164.296 75.2391 163.379 75.1311 162.515C75.5628 162.677 76.0484 162.731 76.588 162.839C77.1816 162.947 77.6672 163.217 78.2608 163.055C78.9083 162.893 79.34 162.246 79.34 161.598C79.34 160.411 78.0989 159.764 77.1816 159.386C76.8039 159.224 76.3722 159.116 76.0484 158.9C75.6707 158.684 75.5628 158.253 75.1311 158.091C75.0772 158.091 75.0232 158.037 74.9693 158.037C74.9693 157.659 74.9693 157.335 74.9693 156.958C75.0772 150.86 76.5341 145.248 77.991 139.421C78.0989 139.529 78.2068 139.583 78.3687 139.637C79.0702 140.014 80.0954 139.151 79.3939 138.504C77.7752 137.047 76.696 135.482 76.4801 133.593C76.588 132.838 76.642 132.136 76.642 131.381C76.9118 131.921 77.1816 132.514 77.4514 133.054C77.991 134.133 79.6637 133.323 79.1241 132.244C78.045 130.086 76.9118 127.874 76.2643 125.553C77.2895 125.337 78.3687 124.15 78.9083 123.557C79.7177 122.693 81.0127 121.183 79.5019 120.211C78.9083 119.834 78.2068 119.834 77.5593 119.888C76.8578 119.942 76.1564 119.995 75.5628 120.265C75.5628 119.564 75.6168 118.808 75.6707 118.107C76.588 118.269 77.5593 118.053 78.4227 117.621C79.286 117.19 80.3652 116.434 80.4731 115.409C80.581 114.438 79.8256 113.682 78.9623 113.305C78.4227 113.089 77.8831 112.927 77.3435 112.765C77.0737 112.711 76.7499 112.603 76.4262 112.657H76.3722C76.8578 109.581 77.3435 106.506 77.8831 103.484C78.0989 102.243 78.0449 99.9226 78.6925 98.8434C80.7969 95.2821 82.3617 98.5196 83.7107 100.3C84.1424 100.894 85.0597 100.246 84.7359 99.5988C83.9265 97.7642 81.4444 94.2029 79.0162 94.8504C76.2103 95.5519 76.3722 102.782 76.0484 104.725C75.1851 109.797 73.8901 115.031 73.8361 120.157C73.8361 123.449 74.5915 126.417 75.7786 129.276C75.1851 131.327 75.0772 133.485 74.7534 135.59C74.2138 138.989 73.0807 141.795 71.8396 144.925C71.8396 144.979 71.8396 144.979 71.8396 145.033C71.7317 145.087 71.6777 145.141 71.5698 145.195C69.0877 146.651 67.5229 148.108 66.3897 150.86C63.422 158.145 62.6665 166.778 62.1269 174.548C62.019 174.602 61.9111 174.656 61.8032 174.71C59.1592 175.736 58.026 178.541 60.5081 180.7C63.8536 183.668 69.7352 182.588 73.5124 181.293C73.6203 181.239 73.7282 181.185 73.7822 181.131C76.0484 183.074 79.8796 182.966 82.4696 182.157C85.3834 181.239 87.0562 179.135 88.2972 176.653C89.7541 177.3 91.319 177.678 92.9377 177.678C95.258 177.678 96.3372 176.977 98.5495 177.678C102.704 178.973 106.05 179.782 110.313 178.649C111.716 180.484 113.712 181.671 116.41 182.157C118.946 182.642 123.587 182.588 125.799 180.484C125.853 180.484 125.853 180.538 125.853 180.538C127.742 181.455 130.008 181.401 131.95 180.754C133.407 180.268 135.512 179.243 135.458 177.462C135.404 175.682 133.353 174.117 131.95 173.307C131.033 172.768 130.008 172.498 129.037 172.39C130.062 166.023 129.846 158.9 129.091 152.479C129.037 152.209 128.983 151.939 128.983 151.67C129.198 151.724 129.468 151.67 129.684 151.508C144.199 141.525 154.451 125.769 157.959 108.502C158.876 104.023 159.308 99.4369 159.254 94.9044C159.146 92.6381 159.308 90.3718 156.448 90.2099ZM72.595 179.89C70.2748 180.592 67.9545 181.185 65.5264 181.024C64.2853 180.916 62.5586 180.808 61.5334 179.944C59.2671 178.056 60.67 176.815 61.965 175.897C62.2888 175.789 62.5586 175.682 62.8824 175.574C62.9363 175.574 63.0442 175.52 63.0982 175.466C64.0155 175.088 64.9328 174.71 66.066 174.872C66.2818 174.872 66.3358 174.548 66.1199 174.494C65.2026 174.279 64.2853 174.333 63.368 174.44C63.4759 172.768 63.6378 171.095 63.7997 169.422C65.3105 169.746 68.2243 169.8 68.1704 167.804C68.1704 166.778 67.0372 166.347 66.2278 166.077C65.6343 165.915 64.8789 165.807 64.2313 165.861C64.3932 164.62 64.6091 163.379 64.8249 162.084C66.1199 162.623 68.1704 162.515 68.0085 160.897C67.9545 160.141 67.1451 159.548 66.4976 159.224C66.1739 159.062 65.7962 158.954 65.4184 158.9C66.3897 153.666 67.7927 147.461 73.4044 145.95C73.6203 145.896 73.7822 145.734 73.8361 145.464C73.8901 145.087 73.998 144.709 74.1059 144.331C74.7534 143.144 75.1851 141.795 75.5089 140.446C75.8866 139.691 76.2643 138.935 76.7499 138.18C76.9658 138.504 77.2356 138.773 77.5054 139.043C72.1094 149.457 72.1094 163.325 75.4549 174.44H75.4009C75.1851 174.494 75.0772 174.602 74.9153 174.71C72.4871 175.196 71.4619 177.678 72.595 179.89ZM104.107 177.786C102.812 177.678 101.517 177.408 100.276 176.977C99.3589 176.653 97.848 175.52 97.2005 175.412C96.2293 175.304 95.5278 175.951 94.5026 176.167C92.56 176.599 90.6175 176.059 88.6749 175.789C89.2685 174.387 89.8081 172.93 90.3477 171.527C91.319 168.883 92.1823 166.185 92.8838 163.487L92.9377 163.325C92.9917 163.325 92.9917 163.325 93.0457 163.325C93.4773 163.541 93.909 163.757 94.3407 163.864C95.0422 164.08 96.0134 164.458 96.7149 164.242C97.2005 164.08 97.2545 163.487 96.7689 163.271C96.1213 163.001 95.258 163.109 94.5565 162.947C94.2328 162.893 93.855 162.785 93.5313 162.677C93.5313 162.623 93.5852 162.569 93.5852 162.515C93.7471 162.138 93.909 161.76 94.0709 161.382C94.2867 160.843 94.4486 160.357 94.6105 159.818C96.3911 160.465 98.2797 160.897 100.168 161.166C102.327 161.49 105.348 161.814 107.884 161.274C106.805 167.318 106.805 167.696 107.938 173.739C108.154 174.872 108.478 175.897 108.91 176.815C109.018 176.869 109.126 176.977 109.18 177.138C109.18 177.192 109.233 177.246 109.233 177.246C107.669 177.732 105.942 177.948 104.107 177.786ZM128.065 115.085C128.065 115.139 128.065 115.139 128.065 115.193C128.011 115.193 127.957 115.139 127.903 115.139C127.957 115.139 128.011 115.085 128.065 115.085ZM133.245 176.113C135.134 179.89 129.037 179.567 126.824 179.135C126.932 178.865 126.986 178.595 127.04 178.272C127.418 175.196 124.882 174.333 122.454 174.44C123.155 172.606 123.695 170.663 124.072 168.721C124.288 168.451 124.288 168.181 124.234 167.911C125.098 163.649 125.421 159.17 125.583 155.015C125.745 151.076 125.745 147.083 125.421 143.09C126.015 145.734 126.77 148.216 127.364 150.321C127.418 150.483 127.526 150.59 127.634 150.644C127.688 150.806 127.688 150.968 127.742 151.13C128.227 154.26 128.227 157.443 128.119 160.627C127.849 160.681 127.58 160.735 127.364 160.843C126.932 161.005 126.5 161.274 126.231 161.706C125.907 162.246 126.123 162.947 126.662 163.271C127.04 163.487 127.58 163.595 128.011 163.541C128.011 164.134 127.957 164.728 127.957 165.321C127.796 165.321 127.634 165.267 127.418 165.321C127.202 165.375 126.932 165.483 126.716 165.591C126.177 165.915 125.637 166.455 125.691 167.156C125.745 168.343 126.824 168.505 127.849 168.343C127.796 169.746 127.796 171.203 127.849 172.606C127.148 172.606 126.393 172.606 125.691 172.66C125.367 172.66 125.421 173.199 125.745 173.199C128.335 173.253 131.896 173.361 133.245 176.113ZM157.527 99.383C156.232 119.726 145.332 138.719 128.551 150.213C128.443 149.781 128.281 149.349 128.119 148.918C127.903 147.083 127.58 145.248 127.256 143.36C130.925 138.719 134.54 133.971 137.346 128.737C139.936 123.881 141.555 118.754 143.012 113.466C143.336 112.333 143.606 111.2 143.929 110.013C145.224 111.362 147.221 111.902 149.056 111.902C149.973 111.902 150.458 111.092 150.189 110.283C149.541 108.556 146.951 106.668 144.847 106.883C145.116 105.966 145.386 105.103 145.71 104.185C146.897 105.103 148.3 105.642 149.757 105.858C150.243 105.912 150.782 105.534 150.944 105.103C151.7 102.567 149.379 100.84 147.113 100.57C147.599 99.4909 148.138 98.4117 148.786 97.3865C150.081 95.2821 151.807 93.1777 154.182 92.2604C158.498 90.4797 157.689 96.8469 157.527 99.383Z"/>
</mask>
<path d="M156.448 90.2099C148.246 89.7243 144.577 102.135 142.85 107.963C141.07 113.898 139.774 119.995 137.184 125.661C134.486 131.543 130.763 136.777 127.094 142.065C126.393 137.964 125.853 133.809 126.123 129.654C127.903 126.632 128.983 123.287 129.522 119.834C129.63 119.618 129.684 119.348 129.63 119.024V118.97C130.062 115.301 130.386 109.365 128.389 105.804C128.335 105.642 128.281 105.48 128.281 105.265C128.335 105.157 128.389 105.103 128.443 104.941C129.252 101.919 129.63 98.8974 129.846 95.8217C129.9 95.1202 129.144 94.5806 128.497 94.9044C126.662 95.9296 124.882 96.9009 123.047 97.9261C120.673 99.2751 119.432 99.0592 116.896 98.4657C113.28 97.5484 109.611 97.0088 105.942 96.8469C98.7654 96.4692 91.7506 97.5484 84.9517 99.9226C84.7359 99.9765 84.8438 100.354 85.0597 100.3C93.0457 98.1959 101.463 97.5484 109.611 98.7894C111.877 99.1132 114.09 99.5988 116.248 100.192C117.489 100.516 118.838 101.218 120.133 101.218C122.507 101.272 125.475 99.1132 127.796 97.6023C127.634 99.9226 127.256 102.189 126.716 104.455C126.662 104.671 126.716 104.887 126.77 105.103C126.716 105.157 126.662 105.265 126.716 105.372C126.77 105.48 126.77 105.534 126.824 105.642C126.824 105.804 126.824 105.912 126.878 106.074C126.932 106.506 126.878 106.991 127.256 107.261C127.418 108.448 127.688 109.581 127.849 110.822C127.957 111.956 128.065 113.089 128.065 114.222C126.123 114.114 121.698 114.06 121.86 116.812C121.914 117.999 123.371 118.7 124.234 119.186C125.313 119.78 126.5 120.103 127.688 120.265C127.526 121.075 127.364 121.884 127.148 122.693C126.069 122.1 124.936 121.722 123.695 121.776C122.669 121.83 121.374 122.208 120.943 123.233C120.457 124.42 121.536 125.23 122.4 125.877C123.209 126.525 124.234 127.28 125.313 127.604C124.612 129.007 123.749 130.356 122.777 131.651C122.13 132.514 123.479 133.377 124.126 132.568C124.234 132.46 124.288 132.298 124.396 132.19C124.342 132.946 124.45 133.755 123.964 134.511C123.263 135.698 121.968 136.237 120.673 136.399C120.403 136.399 120.403 136.831 120.619 136.885C121.752 137.155 122.939 136.939 123.856 136.345C124.504 142.82 125.259 149.188 124.72 155.663C124.612 156.85 124.45 158.037 124.288 159.224C123.479 159.278 122.561 159.656 121.914 160.087C121.158 160.519 120.079 161.166 120.025 162.138C119.917 163.972 122.184 163.864 123.641 163.217C123.479 164.08 123.263 164.944 123.101 165.807C121.968 166.185 120.889 166.616 119.81 167.156C119.108 167.534 117.813 168.073 117.975 169.045C118.137 170.178 119.594 170.178 120.457 170.124C121.051 170.07 121.644 169.962 122.238 169.8C121.86 171.365 121.536 172.93 121.212 174.494C121.212 174.548 121.212 174.602 121.212 174.656C120.835 174.764 120.511 174.818 120.187 174.98C120.079 175.034 120.025 175.088 119.971 175.142C121.644 174.98 123.803 174.548 124.828 175.789C125.259 176.113 125.637 176.653 125.745 177.354C126.069 178.919 124.828 179.89 123.371 180.106C122.238 180.592 121.051 180.808 119.81 180.808C118.461 180.862 117.004 180.7 115.763 180.322C112.147 179.243 110.475 176.437 109.665 172.876C108.37 167.156 108.208 167.048 108.64 161.166C109.018 161.059 109.341 160.951 109.719 160.843L109.773 160.897C110.421 161.436 111.554 161.598 112.363 161.22C113.28 160.843 113.928 159.925 114.683 159.332C114.953 159.116 114.629 158.738 114.306 158.9C113.712 159.278 112.957 159.71 112.309 160.033C111.824 160.249 111.392 160.195 110.96 160.087C111.554 159.656 112.093 159.17 112.525 158.469C112.849 157.983 112.309 157.227 111.716 157.551C103.568 161.922 94.0169 158.469 86.3007 154.637C86.2468 154.637 86.2468 154.691 86.2468 154.691C87.0022 155.393 87.8116 156.04 88.6749 156.634C88.2972 156.688 87.9735 156.742 87.5958 156.742C86.7324 156.742 85.923 156.472 85.1136 156.202C84.8978 156.148 84.628 156.418 84.8438 156.634C85.4913 157.335 86.3007 157.713 87.218 157.875C88.0814 158.037 89.3225 158.253 89.97 157.551C89.97 157.551 89.97 157.497 90.0239 157.497C91.1571 158.145 92.3442 158.738 93.5313 159.224C92.9917 160.843 92.5061 162.462 91.8586 164.08C91.265 165.483 90.4016 166.724 89.97 168.181C89.7002 168.775 89.3764 169.422 89.0527 170.232C88.0274 172.714 87.0022 176.113 85.2755 178.218C84.0884 179.621 82.5775 180.376 80.8508 180.754C80.0414 180.916 79.2321 180.97 78.4227 180.916C78.0989 180.916 77.7751 180.916 77.4514 180.862C77.1276 180.808 76.8578 180.754 76.588 180.646C75.1311 180.16 73.944 179.027 74.2678 177.408C74.8613 174.602 78.2608 175.196 80.1494 176.383C79.34 175.789 78.4766 174.98 77.5054 174.548C76.9658 172.606 76.4801 170.663 76.1024 168.721C76.2643 168.829 76.3722 168.937 76.5341 168.991C77.3974 169.422 78.4766 169.206 78.9083 168.343C79.4479 167.264 78.5845 166.508 77.6672 166.023C77.0197 165.699 76.2103 165.213 75.4549 165.159C75.347 164.296 75.2391 163.379 75.1311 162.515C75.5628 162.677 76.0484 162.731 76.588 162.839C77.1816 162.947 77.6672 163.217 78.2608 163.055C78.9083 162.893 79.34 162.246 79.34 161.598C79.34 160.411 78.0989 159.764 77.1816 159.386C76.8039 159.224 76.3722 159.116 76.0484 158.9C75.6707 158.684 75.5628 158.253 75.1311 158.091C75.0772 158.091 75.0232 158.037 74.9693 158.037C74.9693 157.659 74.9693 157.335 74.9693 156.958C75.0772 150.86 76.5341 145.248 77.991 139.421C78.0989 139.529 78.2068 139.583 78.3687 139.637C79.0702 140.014 80.0954 139.151 79.3939 138.504C77.7752 137.047 76.696 135.482 76.4801 133.593C76.588 132.838 76.642 132.136 76.642 131.381C76.9118 131.921 77.1816 132.514 77.4514 133.054C77.991 134.133 79.6637 133.323 79.1241 132.244C78.045 130.086 76.9118 127.874 76.2643 125.553C77.2895 125.337 78.3687 124.15 78.9083 123.557C79.7177 122.693 81.0127 121.183 79.5019 120.211C78.9083 119.834 78.2068 119.834 77.5593 119.888C76.8578 119.942 76.1564 119.995 75.5628 120.265C75.5628 119.564 75.6168 118.808 75.6707 118.107C76.588 118.269 77.5593 118.053 78.4227 117.621C79.286 117.19 80.3652 116.434 80.4731 115.409C80.581 114.438 79.8256 113.682 78.9623 113.305C78.4227 113.089 77.8831 112.927 77.3435 112.765C77.0737 112.711 76.7499 112.603 76.4262 112.657H76.3722C76.8578 109.581 77.3435 106.506 77.8831 103.484C78.0989 102.243 78.0449 99.9226 78.6925 98.8434C80.7969 95.2821 82.3617 98.5196 83.7107 100.3C84.1424 100.894 85.0597 100.246 84.7359 99.5988C83.9265 97.7642 81.4444 94.2029 79.0162 94.8504C76.2103 95.5519 76.3722 102.782 76.0484 104.725C75.1851 109.797 73.8901 115.031 73.8361 120.157C73.8361 123.449 74.5915 126.417 75.7786 129.276C75.1851 131.327 75.0772 133.485 74.7534 135.59C74.2138 138.989 73.0807 141.795 71.8396 144.925C71.8396 144.979 71.8396 144.979 71.8396 145.033C71.7317 145.087 71.6777 145.141 71.5698 145.195C69.0877 146.651 67.5229 148.108 66.3897 150.86C63.422 158.145 62.6665 166.778 62.1269 174.548C62.019 174.602 61.9111 174.656 61.8032 174.71C59.1592 175.736 58.026 178.541 60.5081 180.7C63.8536 183.668 69.7352 182.588 73.5124 181.293C73.6203 181.239 73.7282 181.185 73.7822 181.131C76.0484 183.074 79.8796 182.966 82.4696 182.157C85.3834 181.239 87.0562 179.135 88.2972 176.653C89.7541 177.3 91.319 177.678 92.9377 177.678C95.258 177.678 96.3372 176.977 98.5495 177.678C102.704 178.973 106.05 179.782 110.313 178.649C111.716 180.484 113.712 181.671 116.41 182.157C118.946 182.642 123.587 182.588 125.799 180.484C125.853 180.484 125.853 180.538 125.853 180.538C127.742 181.455 130.008 181.401 131.95 180.754C133.407 180.268 135.512 179.243 135.458 177.462C135.404 175.682 133.353 174.117 131.95 173.307C131.033 172.768 130.008 172.498 129.037 172.39C130.062 166.023 129.846 158.9 129.091 152.479C129.037 152.209 128.983 151.939 128.983 151.67C129.198 151.724 129.468 151.67 129.684 151.508C144.199 141.525 154.451 125.769 157.959 108.502C158.876 104.023 159.308 99.4369 159.254 94.9044C159.146 92.6381 159.308 90.3718 156.448 90.2099ZM72.595 179.89C70.2748 180.592 67.9545 181.185 65.5264 181.024C64.2853 180.916 62.5586 180.808 61.5334 179.944C59.2671 178.056 60.67 176.815 61.965 175.897C62.2888 175.789 62.5586 175.682 62.8824 175.574C62.9363 175.574 63.0442 175.52 63.0982 175.466C64.0155 175.088 64.9328 174.71 66.066 174.872C66.2818 174.872 66.3358 174.548 66.1199 174.494C65.2026 174.279 64.2853 174.333 63.368 174.44C63.4759 172.768 63.6378 171.095 63.7997 169.422C65.3105 169.746 68.2243 169.8 68.1704 167.804C68.1704 166.778 67.0372 166.347 66.2278 166.077C65.6343 165.915 64.8789 165.807 64.2313 165.861C64.3932 164.62 64.6091 163.379 64.8249 162.084C66.1199 162.623 68.1704 162.515 68.0085 160.897C67.9545 160.141 67.1451 159.548 66.4976 159.224C66.1739 159.062 65.7962 158.954 65.4184 158.9C66.3897 153.666 67.7927 147.461 73.4044 145.95C73.6203 145.896 73.7822 145.734 73.8361 145.464C73.8901 145.087 73.998 144.709 74.1059 144.331C74.7534 143.144 75.1851 141.795 75.5089 140.446C75.8866 139.691 76.2643 138.935 76.7499 138.18C76.9658 138.504 77.2356 138.773 77.5054 139.043C72.1094 149.457 72.1094 163.325 75.4549 174.44H75.4009C75.1851 174.494 75.0772 174.602 74.9153 174.71C72.4871 175.196 71.4619 177.678 72.595 179.89ZM104.107 177.786C102.812 177.678 101.517 177.408 100.276 176.977C99.3589 176.653 97.848 175.52 97.2005 175.412C96.2293 175.304 95.5278 175.951 94.5026 176.167C92.56 176.599 90.6175 176.059 88.6749 175.789C89.2685 174.387 89.8081 172.93 90.3477 171.527C91.319 168.883 92.1823 166.185 92.8838 163.487L92.9377 163.325C92.9917 163.325 92.9917 163.325 93.0457 163.325C93.4773 163.541 93.909 163.757 94.3407 163.864C95.0422 164.08 96.0134 164.458 96.7149 164.242C97.2005 164.08 97.2545 163.487 96.7689 163.271C96.1213 163.001 95.258 163.109 94.5565 162.947C94.2328 162.893 93.855 162.785 93.5313 162.677C93.5313 162.623 93.5852 162.569 93.5852 162.515C93.7471 162.138 93.909 161.76 94.0709 161.382C94.2867 160.843 94.4486 160.357 94.6105 159.818C96.3911 160.465 98.2797 160.897 100.168 161.166C102.327 161.49 105.348 161.814 107.884 161.274C106.805 167.318 106.805 167.696 107.938 173.739C108.154 174.872 108.478 175.897 108.91 176.815C109.018 176.869 109.126 176.977 109.18 177.138C109.18 177.192 109.233 177.246 109.233 177.246C107.669 177.732 105.942 177.948 104.107 177.786ZM128.065 115.085C128.065 115.139 128.065 115.139 128.065 115.193C128.011 115.193 127.957 115.139 127.903 115.139C127.957 115.139 128.011 115.085 128.065 115.085ZM133.245 176.113C135.134 179.89 129.037 179.567 126.824 179.135C126.932 178.865 126.986 178.595 127.04 178.272C127.418 175.196 124.882 174.333 122.454 174.44C123.155 172.606 123.695 170.663 124.072 168.721C124.288 168.451 124.288 168.181 124.234 167.911C125.098 163.649 125.421 159.17 125.583 155.015C125.745 151.076 125.745 147.083 125.421 143.09C126.015 145.734 126.77 148.216 127.364 150.321C127.418 150.483 127.526 150.59 127.634 150.644C127.688 150.806 127.688 150.968 127.742 151.13C128.227 154.26 128.227 157.443 128.119 160.627C127.849 160.681 127.58 160.735 127.364 160.843C126.932 161.005 126.5 161.274 126.231 161.706C125.907 162.246 126.123 162.947 126.662 163.271C127.04 163.487 127.58 163.595 128.011 163.541C128.011 164.134 127.957 164.728 127.957 165.321C127.796 165.321 127.634 165.267 127.418 165.321C127.202 165.375 126.932 165.483 126.716 165.591C126.177 165.915 125.637 166.455 125.691 167.156C125.745 168.343 126.824 168.505 127.849 168.343C127.796 169.746 127.796 171.203 127.849 172.606C127.148 172.606 126.393 172.606 125.691 172.66C125.367 172.66 125.421 173.199 125.745 173.199C128.335 173.253 131.896 173.361 133.245 176.113ZM157.527 99.383C156.232 119.726 145.332 138.719 128.551 150.213C128.443 149.781 128.281 149.349 128.119 148.918C127.903 147.083 127.58 145.248 127.256 143.36C130.925 138.719 134.54 133.971 137.346 128.737C139.936 123.881 141.555 118.754 143.012 113.466C143.336 112.333 143.606 111.2 143.929 110.013C145.224 111.362 147.221 111.902 149.056 111.902C149.973 111.902 150.458 111.092 150.189 110.283C149.541 108.556 146.951 106.668 144.847 106.883C145.116 105.966 145.386 105.103 145.71 104.185C146.897 105.103 148.3 105.642 149.757 105.858C150.243 105.912 150.782 105.534 150.944 105.103C151.7 102.567 149.379 100.84 147.113 100.57C147.599 99.4909 148.138 98.4117 148.786 97.3865C150.081 95.2821 151.807 93.1777 154.182 92.2604C158.498 90.4797 157.689 96.8469 157.527 99.383Z" fill="#221E1F" stroke="#251C1C" stroke-width="2" mask="url(#path-35-inside-1)"/>
<path d="M97.7508 137.582C97.5607 137.663 97.3639 137.731 97.1615 137.787L97.1615 137.485C97.3577 137.52 97.5542 137.552 97.7508 137.582Z" fill="#221E1F" stroke="#251C1C"/>
<path d="M159.886 114.598C160.373 113.088 160.818 111.564 161.19 110.033C160.211 116.293 158.015 122.69 155.616 127.991L155.616 127.991L155.612 128C155.596 128.037 155.585 128.039 155.572 128.042L155.57 128.043C155.537 128.051 155.466 128.05 155.379 128.011C155.293 127.972 155.232 127.915 155.204 127.867C155.183 127.831 155.181 127.806 155.193 127.772L155.193 127.772L155.197 127.761C155.85 125.79 156.597 123.776 157.359 121.724C157.411 121.581 157.464 121.439 157.517 121.296C158.332 119.099 159.157 116.859 159.886 114.598Z" fill="#221E1F" stroke="#251C1C"/>
<path d="M162.606 118.23C163.209 116.941 163.807 115.661 164.247 114.271C163.88 116.288 163.281 118.313 162.191 119.87L162.191 119.87L162.189 119.873C162.135 119.952 162.09 119.965 162.074 119.968C162.051 119.973 162.019 119.97 161.984 119.949C161.949 119.928 161.923 119.896 161.911 119.862C161.901 119.834 161.894 119.786 161.926 119.709C162.148 119.21 162.377 118.719 162.606 118.23Z" fill="#221E1F" stroke="#251C1C"/>
<path d="M141.443 97.6992C141.423 97.694 141.41 97.687 141.402 97.6818C141.268 96.8486 141.569 95.878 142.105 94.8774C142.635 93.8883 143.352 92.9478 143.945 92.1932C144.884 91.0196 145.994 89.9992 147.245 89.1856C146.054 90.1917 144.973 91.3254 144.057 92.6799C143.54 93.43 143.198 94.3042 142.884 95.1077C142.846 95.2046 142.808 95.3004 142.771 95.3949C142.412 96.3033 142.062 97.0975 141.512 97.6954L141.505 97.7029C141.493 97.7055 141.47 97.7065 141.443 97.6992Z" fill="#221E1F" stroke="#251C1C"/>
<path d="M142.052 90.2575L142.052 90.2575L142.057 90.2532C142.098 90.2154 142.139 90.1777 142.18 90.1402C142.142 90.1914 142.104 90.2429 142.067 90.295C141.941 90.4694 141.827 90.668 141.726 90.8473C141.715 90.8669 141.704 90.8862 141.693 90.9054C141.599 91.0714 141.513 91.2239 141.42 91.3659C141.212 91.6844 141.042 91.832 140.875 91.875C140.844 91.8778 140.825 91.8751 140.815 91.8727C140.803 91.87 140.799 91.8668 140.797 91.8654L140.797 91.8654C140.796 91.8648 140.768 91.8432 140.756 91.7577C140.737 91.6254 140.813 91.4152 141.111 91.0982C141.302 90.894 141.508 90.7209 141.717 90.5458C141.828 90.4519 141.941 90.3575 142.052 90.2575Z" fill="#221E1F" stroke="#251C1C"/>
<mask id="path-41-inside-2" fill="white">
<path d="M134.703 184.207C129.199 184.585 123.803 185.179 118.299 184.693C117.921 184.639 117.921 185.287 118.299 185.287C123.749 185.718 129.415 185.988 134.811 184.801C135.188 184.747 135.081 184.153 134.703 184.207Z"/>
</mask>
<path d="M134.703 184.207C129.199 184.585 123.803 185.179 118.299 184.693C117.921 184.639 117.921 185.287 118.299 185.287C123.749 185.718 129.415 185.988 134.811 184.801C135.188 184.747 135.081 184.153 134.703 184.207Z" fill="#221E1F"/>
<path d="M134.703 184.207L134.771 185.205L134.808 185.202L134.844 185.197L134.703 184.207ZM118.299 184.693L118.158 185.683L118.184 185.687L118.211 185.689L118.299 184.693ZM118.299 185.287L118.378 184.29L118.339 184.287H118.299V185.287ZM134.811 184.801L134.669 183.811L134.632 183.816L134.596 183.824L134.811 184.801ZM134.634 183.21C129.074 183.591 123.79 184.174 118.387 183.697L118.211 185.689C123.816 186.184 129.324 185.579 134.771 185.205L134.634 183.21ZM118.441 183.703C118.03 183.644 117.62 183.783 117.339 184.099C117.093 184.376 117.016 184.708 117.016 184.969C117.016 185.235 117.094 185.542 117.302 185.805C117.529 186.094 117.884 186.287 118.299 186.287V184.287C118.525 184.287 118.739 184.398 118.872 184.567C118.985 184.71 119.016 184.859 119.016 184.969C119.016 185.076 118.986 185.256 118.834 185.427C118.648 185.637 118.379 185.715 118.158 185.683L118.441 183.703ZM118.22 186.283C123.674 186.715 129.471 187 135.026 185.778L134.596 183.824C129.359 184.976 123.825 184.721 118.378 184.29L118.22 186.283ZM134.952 185.791C135.335 185.736 135.668 185.521 135.866 185.189C136.047 184.885 136.073 184.554 136.024 184.285C135.929 183.762 135.426 183.094 134.561 183.217L134.844 185.197C134.653 185.225 134.443 185.167 134.283 185.031C134.143 184.911 134.078 184.765 134.056 184.643C134.034 184.522 134.04 184.346 134.147 184.167C134.27 183.959 134.476 183.839 134.669 183.811L134.952 185.791Z" fill="#251C1C" mask="url(#path-41-inside-2)"/>
<path d="M162.355 173.749C162.63 173.732 162.905 173.714 163.179 173.697C162.905 173.716 162.63 173.733 162.355 173.749Z" fill="#221E1F" stroke="#251C1C"/>
<path d="M21.1114 171.12C19.6034 171.103 18.1004 171.177 16.6091 171.271C16.173 171.298 15.7386 171.327 15.3053 171.355C14.916 171.381 14.5276 171.407 14.1397 171.432C14.255 171.417 14.3703 171.403 14.4856 171.389C14.6177 171.372 14.7496 171.356 14.8815 171.339C15.5917 171.25 16.2987 171.161 17.0049 171.094C18.4242 170.958 19.8041 170.913 21.1114 171.12Z" fill="#221E1F" stroke="#251C1C"/>
<path d="M62.2657 181.99C59.0635 182.149 55.7985 181.965 52.5207 181.781C50.9099 181.69 49.296 181.599 47.685 181.549C47.3317 181.534 46.978 181.519 46.6239 181.503C46.9673 181.51 47.3107 181.516 47.6538 181.523C49.276 181.574 50.9009 181.583 52.5224 181.592C55.8 181.61 59.064 181.628 62.2657 181.99Z" fill="#221E1F" stroke="#251C1C"/>
<path d="M90.3132 189.989C89.1472 190.158 87.9614 190.269 86.7661 190.344C87.9529 190.211 89.1336 190.085 90.3132 189.989Z" fill="#221E1F" stroke="#251C1C"/>
<path d="M42.3839 148.99C42.6215 149.061 42.9135 149.126 43.2226 149.093C43.2281 149.099 43.235 149.107 43.2429 149.117C43.2623 149.144 43.2769 149.175 43.2845 149.202C43.2859 149.207 43.2869 149.211 43.2876 149.214C43.1155 149.953 42.9584 150.674 42.8031 151.385C42.613 152.257 42.4257 153.115 42.2174 153.979C42.1957 154.066 42.1764 154.147 42.1582 154.225C42.0973 154.483 42.0486 154.69 41.961 154.862C41.9115 154.958 41.8675 155.003 41.8357 155.024C41.8116 155.039 41.7654 155.062 41.6618 155.056C41.6128 155.051 41.525 155.028 41.4017 154.972C41.4097 154.973 41.4171 154.974 41.4239 154.974C41.4314 154.975 41.4383 154.975 41.4446 154.975L41.4536 154.975L41.4578 154.976L41.4599 154.976L41.4609 154.976L41.4614 154.976C41.4616 154.976 41.4618 154.976 41.4619 154.476L41.4618 154.976L41.8223 154.976L41.9362 154.634C41.9731 154.523 41.9917 154.43 42.0051 154.363L42.0061 154.358C42.0196 154.29 42.028 154.25 42.0441 154.202L42.0667 154.134L42.0694 154.063C42.1111 152.981 42.4234 151.868 42.7485 150.711C42.8227 150.446 42.8975 150.18 42.9699 149.911L43.1395 149.281H42.4871C42.3768 149.281 42.3029 149.262 42.1451 149.221C42.1153 149.214 42.0825 149.205 42.0459 149.196C41.9115 149.143 41.8477 149.106 41.8261 149.093C41.8228 149.091 41.8205 149.089 41.8191 149.088L41.8184 149.088C41.8171 149.087 41.8116 149.082 41.8046 149.076C41.8045 149.076 41.8044 149.076 41.8042 149.076C41.8005 149.073 41.7769 149.055 41.7449 149.036L41.7448 149.036C41.7318 149.029 41.683 149 41.6137 148.984C41.5633 148.971 41.3252 148.924 41.134 149.124C40.9715 149.293 40.9946 149.494 40.9981 149.525C40.9982 149.525 40.9982 149.526 40.9983 149.526C41.0021 149.559 41.0088 149.588 41.0147 149.608C41.013 149.613 41.011 149.618 41.0086 149.624C40.7718 150.101 40.6268 150.614 40.495 151.082L40.4917 151.094C40.3833 151.479 40.2825 151.837 40.148 152.174C40.1505 152.167 40.153 152.159 40.1556 152.152L40.1772 152.087L40.1806 152.018C40.2059 151.513 40.2951 150.9 40.448 150.32C40.6023 149.735 40.8106 149.226 41.0526 148.894C41.1578 148.758 41.2416 148.726 41.3071 148.715C41.3969 148.7 41.5225 148.713 41.7195 148.77C41.8153 148.798 41.9146 148.833 42.0277 148.872L42.0392 148.876C42.1453 148.913 42.2639 148.954 42.3839 148.99Z" fill="#221E1F" stroke="#251C1C"/>
<path d="M168.915 179.621C168.105 179.243 166.918 178.649 166.001 178.757C165.299 178.865 164.922 179.621 164.706 180.268C163.734 181.509 162.817 182.75 161.738 183.883C161.522 184.099 161.576 184.423 161.846 184.585C162.763 185.286 163.626 186.15 164.598 185.286C166.217 183.883 167.566 181.995 169.022 180.376C169.238 180.214 169.238 179.783 168.915 179.621ZM163.95 184.639C163.519 184.801 163.087 184.477 162.655 184.153C163.303 183.074 164.058 182.049 164.814 181.078C164.975 181.239 165.245 181.239 165.407 181.078C165.785 180.646 166.001 179.998 166.594 179.944C166.918 179.89 167.404 180.106 167.835 180.268C166.972 181.239 166.163 182.211 165.299 183.128C164.922 183.506 164.328 184.477 163.95 184.639Z" fill="#221E1F"/>
<path d="M5.72785 185.423C5.65812 185.398 5.58846 185.372 5.51891 185.345C6.29003 185.479 7.09922 185.489 7.79732 185.14L7.81449 185.131L7.83096 185.121C8.05612 184.986 8.26163 184.858 8.45741 184.736C8.75841 184.548 9.0364 184.374 9.32739 184.212L10.2885 183.678L9.25439 183.305C7.29831 182.599 5.2903 182.002 3.29848 181.41L3.29153 181.407L3.15272 181.366L3.12504 181.327C3.12413 181.325 3.12094 181.317 3.1212 181.299C3.12159 181.271 3.13029 181.24 3.14611 181.213C3.16138 181.188 3.1754 181.18 3.17908 181.178C3.18083 181.177 3.18368 181.176 3.18948 181.176C3.19539 181.176 3.20944 181.176 3.23332 181.182L3.24209 181.184L3.25093 181.186C5.74516 181.77 8.19508 182.674 10.614 183.641C10.6445 183.656 10.6754 183.682 10.7001 183.717C10.7133 183.735 10.7223 183.753 10.7283 183.768L10.7069 183.771L10.6851 183.777C9.65244 184.047 8.92952 184.542 8.21843 185.029C8.00759 185.173 7.7978 185.317 7.58128 185.454C7.54611 185.475 7.5139 185.495 7.48421 185.513C7.24273 185.659 7.16838 185.703 7.03412 185.703H7.01851L7.00293 185.704C6.68457 185.724 6.24522 185.611 5.72785 185.423ZM10.7747 183.755C10.7747 183.755 10.7742 183.755 10.7731 183.756L10.7747 183.755Z" fill="#221E1F" stroke="#251C1C"/>
<path d="M65.8786 111.535C65.8709 111.461 65.8701 111.377 65.88 111.28C65.8834 111.332 65.8891 111.385 65.8972 111.438L65.8998 111.454L65.9033 111.47C66.0491 112.126 66.4859 112.541 66.8268 112.825L67.3609 113.27L67.6129 112.622C67.9753 111.69 68.4435 110.803 68.9733 109.901C69.0655 109.765 69.1884 109.619 69.336 109.443C69.4228 109.34 69.518 109.226 69.6207 109.099C69.8669 108.793 70.1616 108.395 70.2733 107.986L70.2733 107.986L70.274 107.983C70.3553 107.678 70.3342 107.387 70.2196 107.124C70.1091 106.871 69.9265 106.679 69.7378 106.534C69.3709 106.252 68.89 106.083 68.535 105.974L68.1111 105.843L68.1014 105.865C68.0921 105.86 68.0822 105.854 68.0719 105.849C68.0091 105.818 67.95 105.803 67.9014 105.796C67.8941 105.792 67.8891 105.789 67.8858 105.787C67.8885 105.779 67.8941 105.772 67.9019 105.767C67.9059 105.764 67.9126 105.761 67.924 105.758C67.9349 105.756 67.9544 105.754 67.9844 105.758C68.5763 105.862 69.3347 106.076 69.8861 106.428C70.1597 106.602 70.3541 106.793 70.4642 106.993C70.5676 107.181 70.6116 107.401 70.545 107.687L70.5432 107.695L70.5417 107.702C70.4846 107.988 70.304 108.288 70.0334 108.645C69.9615 108.74 69.8795 108.842 69.7937 108.95C69.592 109.203 69.3693 109.482 69.2065 109.745C68.4908 110.847 67.8869 112.054 67.3932 113.311C67.3607 113.367 67.3228 113.378 67.3045 113.38C67.2925 113.382 67.2817 113.38 67.2718 113.375C67.2628 113.371 67.2473 113.362 67.23 113.337L67.2221 113.326L67.2135 113.316C67.0012 113.05 66.7828 112.824 66.5952 112.63C66.5767 112.611 66.5585 112.592 66.5406 112.574C66.3336 112.359 66.1787 112.192 66.0655 112.022C65.9589 111.862 65.8971 111.71 65.8786 111.535Z" fill="#221E1F" stroke="#251C1C"/>
<path d="M41.8934 150.051C41.8395 150.159 41.7855 150.321 41.7315 150.429C41.5157 150.213 41.138 150.213 41.0301 150.591C40.7603 151.562 40.4905 152.533 40.1667 153.559C40.0588 153.936 40.4365 154.152 40.7063 154.044C40.9222 154.152 41.138 154.044 41.2459 153.774C41.5697 152.641 42.0013 151.508 42.487 150.429C42.7028 149.997 42.1093 149.674 41.8934 150.051Z" fill="#2AB673"/>
<path d="M166.109 180.16C165.839 180.376 165.569 180.538 165.353 180.808C164.274 181.455 163.303 182.318 162.494 183.29C162.224 183.613 162.386 184.045 162.709 184.153C162.656 184.315 162.709 184.477 162.763 184.639C162.494 185.07 163.033 185.61 163.465 185.232C163.843 184.855 164.274 184.423 164.652 183.991C165.623 183.128 166.379 182.049 166.918 180.862C167.08 180.376 166.487 179.89 166.109 180.16Z" fill="#2AB673"/>
<path d="M68.658 107.045C68.658 107.099 68.6041 107.099 68.6041 107.153C67.6328 108.394 66.7695 109.689 66.068 111.092C65.7982 111.578 66.4457 112.117 66.8774 111.685C67.0393 111.524 67.2011 111.362 67.3091 111.2C67.363 111.2 67.417 111.146 67.4709 111.146C67.6328 110.984 67.7407 110.822 67.8487 110.66C67.9026 110.66 67.9566 110.66 68.0645 110.606C68.766 110.121 69.0897 109.311 69.2516 108.502C69.2516 108.394 69.2516 108.286 69.1976 108.178C69.3056 108.016 69.3595 107.8 69.4674 107.639C69.6293 107.153 68.9818 106.613 68.658 107.045Z" fill="#39B100"/>
</svg>
