<svg width="53" height="27" viewBox="0 0 53 27" fill="none" xmlns="http://www.w3.org/2000/svg">
<path d="M28.2736 11.2286C28.2736 10.8418 28.2885 10.455 28.2885 10.0533C28.2885 9.85992 28.3928 9.63676 28.6015 9.53262C28.8847 9.39873 29.153 9.26483 29.4361 9.14581C29.3616 9.07143 29.2871 9.01192 29.2275 8.93753C29.0784 8.78876 28.9294 8.63999 28.7654 8.49121C28.6164 8.34244 28.4524 8.17879 28.3034 8.03002C28.1245 7.85149 27.9606 7.68784 27.8265 7.55394L27.8116 7.53907C27.7668 7.49443 27.737 7.46468 27.7072 7.43492C27.6327 7.36054 27.5433 7.27127 27.4688 7.18201L27.3942 7.10762L27.3197 7.03324L25.561 5.38186C25.5461 5.21821 25.5312 5.06944 25.5312 4.92066C25.5163 4.65287 25.5163 4.3702 25.5312 4.11729C25.5461 3.83462 25.561 3.58171 25.6057 3.32879C25.6802 2.74858 25.874 2.09398 26.5894 1.7518C26.7235 1.69229 26.8577 1.63278 26.9918 1.57327H27.0067C26.813 1.43938 26.6043 1.32036 26.4105 1.24597C26.3807 1.2311 26.336 1.2311 26.2913 1.21622C26.2019 1.20134 26.0827 1.21622 25.9783 1.2311C25.9038 1.24597 25.8293 1.26085 25.7548 1.2906C25.71 1.30548 25.6653 1.32036 25.6057 1.33524C25.5461 1.35011 25.4716 1.36499 25.412 1.39475C25.0692 1.48401 24.7264 1.57327 24.3836 1.67741C23.6085 1.90057 22.8633 2.12373 22.1628 2.34689H22.1479L22.0287 2.39152C21.7306 2.48079 21.4325 2.58493 21.1493 2.68907C21.1046 2.70395 21.0748 2.71882 21.045 2.7337C21.0152 2.74858 20.9854 2.76346 20.9556 2.77833C20.9257 2.79321 20.8959 2.80809 20.881 2.82297C20.8661 2.83784 20.8363 2.85272 20.8214 2.8676C20.7916 2.89735 20.7618 2.91223 20.732 2.94198C20.7022 2.98662 20.6724 3.01637 20.6575 3.07588C20.6575 3.07588 20.6575 3.09076 20.6426 3.09076C20.419 3.55195 20.4041 4.05778 20.4935 4.54873C20.5382 4.87603 20.7022 5.06944 20.8959 5.26284C20.8959 5.26284 20.8959 5.27772 20.9108 5.27772C20.9407 5.30747 20.9705 5.33723 21.0003 5.36698C21.0897 5.45625 21.1791 5.56039 21.2835 5.66453C21.358 5.72404 21.4176 5.79842 21.4772 5.85793C22.3119 6.70594 23.1465 7.53907 23.9811 8.32756C25.3672 9.65164 26.8279 10.9757 28.3183 12.2552V12.2403C28.3183 12.2403 28.3332 12.2403 28.3332 12.2552C28.2736 11.8832 28.2736 11.5559 28.2736 11.2286ZM34.5632 10.8269C34.5632 10.6038 34.5632 10.3806 34.5781 10.1426C34.5781 9.91943 34.6974 9.71115 34.8911 9.62189C35.5469 9.30946 36.2027 8.99704 36.8585 8.68462C37.2013 8.52097 37.559 8.35732 37.9018 8.19367C38.1701 8.07465 38.4235 7.95563 38.6917 7.82173C38.7961 7.7771 38.9004 7.73247 38.9898 7.68784C39.1836 7.59857 39.3773 7.50931 39.5711 7.42005C39.7947 7.30103 39.8543 7.22664 39.9288 6.95885C39.9884 6.73569 40.048 6.49766 40.0927 6.2745C40.1375 6.08109 40.1822 5.88769 40.2269 5.69428L40.3014 5.41161C40.0629 5.30747 39.8394 5.18845 39.6009 5.06944C38.6023 4.59336 37.559 4.07266 36.5604 3.53708C36.0984 3.29904 35.6065 3.01637 35.07 2.71882C35.0551 2.71882 35.0551 2.70395 35.0402 2.70395C34.8762 2.61468 34.6974 2.51054 34.5185 2.4064C34.2949 2.27251 34.0714 2.13861 33.8478 2.01959C33.7584 1.96008 33.669 1.91545 33.5795 1.85594C33.4752 1.79643 33.3709 1.72205 33.2666 1.66254C33.1175 1.5584 32.9536 1.45425 32.8045 1.37987C32.7598 1.35011 32.7002 1.33524 32.6555 1.32036C32.4319 1.24597 32.1487 1.32036 31.8655 1.40962C31.8059 1.4245 31.7314 1.43938 31.6718 1.46913C31.329 1.5584 30.9713 1.64766 30.6285 1.7518C30.2559 1.85594 29.8684 1.97496 29.4957 2.0791C29.1679 2.18324 28.8251 2.28738 28.4972 2.39152C28.4823 2.39152 28.4673 2.4064 28.4524 2.4064L28.2736 2.46591C27.9755 2.55517 27.6774 2.65932 27.3793 2.76346C27.275 2.80809 27.1856 2.83784 27.1111 2.88247C26.9769 2.95686 26.9173 3.01637 26.8726 3.13539C26.8726 3.15027 26.8726 3.16514 26.8726 3.16514C26.649 3.62634 26.6341 4.13217 26.7235 4.62312C26.7683 4.89091 26.8875 5.08431 27.0365 5.26284C27.0663 5.2926 27.0961 5.32235 27.1111 5.3521C27.1409 5.38186 27.1707 5.42649 27.2005 5.45625C27.2303 5.50088 27.275 5.54551 27.3197 5.57526C27.3644 5.6199 27.4091 5.66453 27.4539 5.70916C27.5284 5.78355 27.6029 5.84306 27.6625 5.91744L28.3928 6.64643C28.9741 7.22664 29.5703 7.80686 30.1515 8.37219C30.241 8.46146 30.3453 8.55072 30.4347 8.63999C30.4794 8.68462 30.5241 8.72925 30.5689 8.759C30.7477 8.93753 30.9266 9.10118 31.1203 9.26483C31.2098 9.3541 31.3141 9.44336 31.4035 9.53262C32.4021 10.455 33.4305 11.3774 34.4887 12.2849V12.2403C34.4887 11.9874 34.4887 11.7345 34.5036 11.4815C34.5632 11.2733 34.5632 11.0501 34.5632 10.8269ZM20.0166 0.680636C20.3892 0.903795 20.7618 1.11208 21.1344 1.32036C21.2238 1.2906 21.3282 1.26085 21.4176 1.2311C21.507 1.20134 21.5964 1.17159 21.6859 1.15671C21.8349 1.11208 21.9989 1.06745 22.1479 1.02281H22.1628C22.4758 0.93355 22.8037 0.829409 23.1167 0.740145C23.1316 0.740145 23.1316 0.725268 23.1465 0.725268C23.4744 0.636004 23.7874 0.54674 24.1153 0.457477C24.2643 0.412845 24.4283 0.368213 24.5922 0.323581C24.6518 0.308704 24.7115 0.293826 24.7711 0.264072H24.786C24.9052 0.234317 25.0244 0.204563 25.1437 0.174808C25.2629 0.145054 25.3821 0.115299 25.5014 0.0855444C25.561 0.0706671 25.6206 0.0557898 25.6951 0.0557898C25.7697 0.0557898 25.8144 0.0409125 25.874 0.0260353C25.9336 0.011158 25.9932 0.011158 26.0528 0.011158C26.1423 -0.00371932 26.2317 -0.00371932 26.3211 0.011158C26.8428 0.0409125 27.275 0.293826 27.7072 0.54674L28.6313 1.08232C29.1977 0.918673 29.764 0.755022 30.39 0.576495C30.554 0.531863 30.7179 0.487231 30.8968 0.427722C31.3737 0.293826 31.8506 0.145054 32.3425 0.100422C32.5213 0.0855444 32.7002 0.100422 32.8492 0.130176C33.2666 0.204563 33.6243 0.427722 33.982 0.636004L34.1012 0.710391C34.4887 0.93355 34.8613 1.15671 35.2488 1.36499C35.7556 1.64766 36.2325 1.93033 36.7095 2.18324C36.7244 2.18324 36.7244 2.19812 36.7393 2.19812C37.7379 2.74858 38.6917 3.26928 39.6307 3.73048C40.1375 3.98339 40.6293 4.23631 41.1211 4.45947C41.1808 4.48922 41.2553 4.51898 41.3149 4.54873C41.5832 4.68263 41.6726 4.99505 41.613 5.23309C41.5832 5.36698 41.5534 5.51575 41.5236 5.64965C41.4937 5.75379 41.4788 5.87281 41.449 5.97695C41.3894 6.30425 41.3149 6.63155 41.2255 6.95885C41.1659 7.15226 41.1211 7.36054 41.0466 7.55394C40.8231 8.22342 40.2716 8.47633 39.7499 8.71437L39.7201 8.72925C39.4369 8.86314 39.1538 8.99704 38.8706 9.11606C37.9614 9.53262 37.0224 9.96406 36.0835 10.4104C35.9791 10.455 35.8748 10.4996 35.7705 10.5592C35.7556 10.8418 35.7407 11.1394 35.7258 11.422C35.7109 11.5559 35.7109 11.6898 35.7109 11.8237C35.6811 12.2849 35.6662 12.7312 35.6512 13.1924C35.6363 13.2817 35.6363 13.371 35.6363 13.4602C35.6214 13.6685 35.5022 13.847 35.3234 13.9363C35.1296 14.0256 34.8911 13.9958 34.7272 13.847C34.5185 13.6685 34.3099 13.5049 34.1161 13.3263C34.0565 13.2817 34.0118 13.2371 33.9522 13.1924C33.6541 12.9395 33.3709 12.6866 33.0728 12.4337C32.1636 11.6452 31.2694 10.8418 30.4198 10.0385C30.1217 10.1723 29.8087 10.3211 29.5107 10.455C29.4958 10.7377 29.4808 11.0352 29.4659 11.3179C29.451 11.5262 29.4361 11.7493 29.4361 11.9576V11.9725C29.4212 12.151 29.4212 12.3296 29.4063 12.523C29.3914 12.8056 29.3765 13.0883 29.3765 13.371C29.3616 13.5792 29.2424 13.7578 29.0635 13.847C29.0337 13.8619 28.989 13.8768 28.9592 13.8768C28.9443 13.8768 28.9145 13.8917 28.8996 13.8917C28.7505 13.9065 28.6015 13.8619 28.4674 13.7578C28.2587 13.5792 28.05 13.4007 27.8265 13.2222C26.4404 12.0469 25.0841 10.8269 23.7874 9.59213C23.1018 9.90455 22.4162 10.2319 21.7306 10.5443L21.7008 11.2286C21.6561 11.9725 21.6263 12.7164 21.5964 13.4602C21.5815 13.6685 21.4772 13.847 21.2835 13.9363C21.2089 13.9661 21.1344 13.9809 21.0599 13.9809C20.9257 13.9809 20.8065 13.9363 20.6873 13.847C20.5084 13.6983 20.3445 13.5495 20.1656 13.4156L11.5211 5.3521C11.4466 4.66775 11.4615 3.99827 11.5509 3.32879C11.6254 2.77833 11.8043 2.09398 12.5346 1.73692C12.9817 1.51376 13.4736 1.37987 13.9654 1.24597C14.1145 1.20134 14.2784 1.15671 14.4275 1.11208C15.0534 0.918673 15.7092 0.725268 16.365 0.54674C16.529 0.502108 16.6929 0.457477 16.8718 0.397967C17.3487 0.264072 17.8256 0.115299 18.3175 0.0706671C18.9733 0.011158 19.4949 0.323581 19.957 0.606249L20.0166 0.680636ZM20.4786 11.3477C20.4786 10.946 20.4935 10.5443 20.4935 10.1575C20.4935 10.1277 20.4935 10.098 20.5084 10.0682C20.5084 10.0533 20.5233 10.0236 20.5233 9.99382C20.5233 9.97894 20.5382 9.96406 20.5382 9.94919C20.5382 9.93431 20.5531 9.90455 20.568 9.88968C20.6128 9.81529 20.6575 9.7409 20.732 9.68139C20.7618 9.66652 20.7916 9.63676 20.8214 9.62189C21.4772 9.30946 22.133 8.99704 22.8037 8.68462C22.5801 8.47633 22.3566 8.25318 22.133 8.03002C21.9243 7.82173 21.7157 7.61345 21.507 7.39029C21.4772 7.36054 21.4474 7.31591 21.4027 7.28615C21.2685 7.15226 21.0599 6.97373 21.0599 6.97373L20.9705 6.89934L19.2714 5.30747C19.2714 5.29259 19.2714 5.29259 19.2714 5.27772V5.26284C19.2565 5.17358 19.2565 5.06944 19.2416 4.98017C19.2267 4.89091 19.2267 4.80164 19.2267 4.71238C19.2267 4.6975 19.2267 4.66775 19.2267 4.63799C19.2267 4.54873 19.2267 4.44459 19.2267 4.35533C19.2267 3.96852 19.2565 3.59658 19.3012 3.20977C19.3608 2.79321 19.4651 2.34689 19.7781 1.98984C19.6887 1.94521 19.5993 1.8857 19.5098 1.82619C19.4055 1.76668 19.3012 1.69229 19.1968 1.63278C18.9882 1.49889 18.7795 1.36499 18.5858 1.2906C18.3622 1.21622 18.0641 1.2906 17.7958 1.37987C17.7362 1.39475 17.6617 1.40962 17.6021 1.43938C17.2444 1.52864 16.9016 1.61791 16.5588 1.72205C15.7987 1.93033 15.0534 2.15349 14.3529 2.39152L14.2188 2.43616C13.9207 2.52542 13.6226 2.62956 13.3394 2.7337C13.2947 2.74858 13.2649 2.76346 13.2351 2.77833C13.2053 2.79321 13.1755 2.80809 13.1457 2.82297C13.1159 2.83784 13.0861 2.85272 13.0712 2.8676C13.0413 2.88247 13.0264 2.89735 13.0115 2.91223C12.9817 2.94198 12.9519 2.95686 12.9221 2.98662C12.8923 3.03125 12.8625 3.061 12.8476 3.12051C12.624 3.58171 12.6091 4.10241 12.6836 4.59336C12.7284 4.92066 12.8923 5.11407 13.0861 5.30747C13.0861 5.30747 13.0861 5.32235 13.101 5.32235C13.2053 5.45625 13.3394 5.57526 13.4736 5.70916C13.5481 5.76867 13.6077 5.84305 13.6673 5.90256C14.502 6.75057 15.3366 7.5837 16.1713 8.37219C17.5574 9.69627 19.018 11.0204 20.5084 12.2998C20.4786 11.9874 20.4786 11.6601 20.4786 11.3477Z" class="fill-black"/>
<path d="M20.4935 10.1575C20.4935 10.5592 20.4786 10.946 20.4786 11.3477C20.4786 11.6601 20.4637 11.9874 20.4637 12.2998C18.9584 11.0204 17.5127 9.69627 16.1266 8.37219C15.3068 7.5837 14.4573 6.75057 13.6226 5.90256C13.563 5.84305 13.4885 5.76867 13.4289 5.70916C13.2947 5.57526 13.1606 5.45624 13.0563 5.32235C13.0563 5.32235 13.0563 5.30747 13.0414 5.30747C12.8476 5.11407 12.6986 4.90578 12.639 4.59336C12.5644 4.08753 12.5644 3.56683 12.8029 3.12051C12.8178 3.07588 12.8476 3.03125 12.8774 2.98661C12.9072 2.95686 12.9221 2.9271 12.9669 2.91223C12.9818 2.89735 13.0116 2.88247 13.0265 2.86759C13.0563 2.85272 13.0712 2.83784 13.101 2.82296C13.1308 2.80809 13.1606 2.79321 13.1904 2.77833C13.2202 2.76345 13.2649 2.74858 13.2947 2.7337C13.5779 2.62956 13.8909 2.52542 14.1741 2.43615L14.3082 2.39152C15.0237 2.16836 15.7689 1.9452 16.5141 1.72204C16.8569 1.63278 17.1997 1.52864 17.5574 1.43937C17.617 1.4245 17.6766 1.40962 17.7511 1.37987C18.0641 1.32036 18.3622 1.23109 18.5858 1.32036C18.7945 1.39474 19.0031 1.52864 19.1969 1.66253C19.3012 1.73692 19.4055 1.79643 19.5099 1.85594C19.5993 1.91545 19.6887 1.96008 19.7781 2.01959C19.4651 2.37664 19.3459 2.82296 19.3012 3.23953C19.2416 3.61146 19.2267 3.99827 19.2267 4.38508C19.2267 4.47434 19.2267 4.57848 19.2267 4.66775C19.2267 4.6975 19.2267 4.71238 19.2267 4.74213C19.2267 4.8314 19.2416 4.92066 19.2416 5.00993C19.2565 5.09919 19.2565 5.20333 19.2714 5.29259V5.30747C19.2714 5.32235 19.2714 5.32235 19.2714 5.33723L20.9705 6.9291L21.0599 7.00348C21.0599 7.00348 21.2537 7.18201 21.4027 7.31591C21.4325 7.34566 21.4623 7.39029 21.507 7.42005C21.7157 7.64321 21.9244 7.85149 22.133 8.05977C22.3566 8.28293 22.5802 8.50609 22.8037 8.71437C22.1479 9.02679 21.4772 9.33922 20.8214 9.65164C20.7916 9.66652 20.7618 9.68139 20.732 9.71115C20.6575 9.77066 20.6128 9.83017 20.5681 9.91943C20.5532 9.93431 20.5532 9.94919 20.5383 9.97894C20.5234 9.99382 20.5234 10.0087 20.5234 10.0236C20.5085 10.0533 20.5085 10.0682 20.5085 10.098C20.5085 10.0831 20.4935 10.1128 20.4935 10.1575Z" fill="#00AB2E"/>
<path d="M34.5781 10.1426C34.5781 10.3657 34.5632 10.5889 34.5632 10.8269C34.5632 11.0501 34.5632 11.2733 34.5483 11.4964C34.5483 11.7493 34.5483 12.0023 34.5334 12.2552V12.2998C33.4752 11.3923 32.4319 10.4699 31.4482 9.5475C31.3587 9.45823 31.2544 9.36897 31.165 9.27971C30.9861 9.11606 30.8073 8.95241 30.6135 8.77388C30.5688 8.72925 30.5241 8.68462 30.4794 8.65486C30.39 8.5656 30.2856 8.47633 30.1962 8.38707C29.6149 7.82173 29.0188 7.24152 28.4375 6.6613L27.7072 5.93232C27.6327 5.85793 27.573 5.78354 27.4985 5.72403C27.4538 5.6794 27.4091 5.63477 27.3644 5.59014C27.3197 5.54551 27.275 5.51575 27.2451 5.47112C27.2153 5.44137 27.1855 5.39673 27.1557 5.36698C27.1259 5.33723 27.0961 5.30747 27.0812 5.27772C26.9172 5.11407 26.8129 4.92066 26.7682 4.63799C26.6937 4.14704 26.6937 3.62634 26.9172 3.18002C26.9172 3.16514 26.9172 3.15026 26.9172 3.15026C26.962 3.03124 27.0365 2.97174 27.1557 2.89735C27.2302 2.85272 27.3197 2.82296 27.424 2.77833C27.7072 2.67419 28.0202 2.57005 28.3183 2.48079L28.4971 2.42128C28.512 2.42128 28.5418 2.4064 28.5418 2.4064C28.8697 2.30226 29.2125 2.19812 29.5404 2.09398C29.913 1.97496 30.2856 1.87082 30.6731 1.76668C31.0159 1.67741 31.3736 1.57327 31.7164 1.48401C31.7761 1.46913 31.8357 1.45425 31.9102 1.4245C32.1934 1.35011 32.4766 1.26085 32.7001 1.33523C32.7448 1.35011 32.8045 1.37987 32.8492 1.39474C32.9982 1.46913 33.1622 1.57327 33.3112 1.67741C33.4155 1.7518 33.5199 1.81131 33.6242 1.87082C33.7136 1.93033 33.8031 1.97496 33.8925 2.03447C34.116 2.16836 34.3396 2.30226 34.5632 2.42128C34.742 2.52542 34.9209 2.62956 35.0848 2.71882C35.0997 2.71882 35.0997 2.7337 35.1146 2.7337C35.6512 3.03124 36.143 3.29904 36.6051 3.55195C37.6186 4.08753 38.647 4.60824 39.6456 5.08431C39.884 5.20333 40.1225 5.30747 40.3461 5.42649L40.2715 5.70916C40.2268 5.90256 40.1821 6.09597 40.1374 6.28937C40.0778 6.51253 40.0182 6.75057 39.9735 6.97373C39.8989 7.24152 39.8393 7.33078 39.6158 7.43492C39.422 7.52419 39.2282 7.61345 39.0345 7.70271C38.9302 7.74735 38.8258 7.79198 38.7364 7.83661C38.4681 7.95563 38.2147 8.07465 37.9465 8.20854C37.6037 8.37219 37.246 8.53584 36.9032 8.69949C36.2474 9.01192 35.5916 9.32434 34.9358 9.63676C34.6973 9.71115 34.5781 9.93431 34.5781 10.1426Z" fill="#ED1B23"/>
<path d="M5.79779 23.4253C5.64875 23.2616 5.33576 23.0831 4.88863 22.9194L1.65438 21.8632C1.53515 21.8185 1.47553 21.7293 1.47553 21.5954C1.47553 21.4615 1.50534 21.3722 1.57986 21.2978C1.98228 20.8961 2.50393 20.6878 3.15972 20.6878C3.83042 20.6878 4.39678 20.9259 4.87372 21.3871C4.96315 21.4763 5.06748 21.5656 5.17181 21.6549C5.27614 21.7441 5.39537 21.7739 5.54442 21.7739C5.75308 21.7739 5.91703 21.6995 6.05117 21.5656C6.18531 21.4317 6.25983 21.2532 6.25983 21.0598C6.25983 20.8961 6.21511 20.7474 6.11078 20.6283C5.29104 19.7059 4.30736 19.2448 3.15972 19.2448C2.78711 19.2448 2.3996 19.3043 2.02699 19.4084C1.65438 19.5125 1.31158 19.6762 1.0135 19.8696C0.715409 20.063 0.476939 20.301 0.283183 20.5837C0.10433 20.8664 0 21.1788 0 21.5359C0 22.0119 0.178852 22.4285 0.521652 22.7855C0.700504 22.9641 0.998591 23.1277 1.43082 23.2914L4.65016 24.3477C4.76939 24.3923 4.82901 24.4816 4.82901 24.6155C4.82901 24.7196 4.7992 24.8237 4.72468 24.8981C4.32226 25.3147 3.80061 25.523 3.14482 25.523C2.47412 25.523 1.89285 25.2849 1.43082 24.8237C1.34139 24.7345 1.25197 24.6601 1.14763 24.5708C1.05821 24.4667 0.938974 24.422 0.775026 24.422C0.566365 24.422 0.402417 24.4964 0.268278 24.6303C0.134139 24.7642 0.0596174 24.9428 0.0596174 25.1362C0.0596174 25.2998 0.10433 25.4486 0.208661 25.5825C1.0284 26.49 2.01209 26.9512 3.15972 26.9512C3.53233 26.9512 3.90494 26.8917 4.27755 26.7875C4.65016 26.6834 4.97805 26.5346 5.29104 26.3263C5.58913 26.1329 5.8276 25.88 6.02136 25.6122C6.20021 25.3296 6.30454 25.0171 6.30454 24.6601C6.30454 24.1989 6.14059 23.7823 5.79779 23.4253Z" class="fill-black"/>
<path d="M11.1782 25.5231C10.2542 25.5231 9.79212 25.0619 9.79212 24.1544V20.688H10.6566C10.8503 20.688 11.0292 20.6136 11.1633 20.4797C11.2975 20.3458 11.372 20.1673 11.372 19.9739C11.372 19.7805 11.2975 19.602 11.1633 19.4681C11.0292 19.3342 10.8503 19.2598 10.6566 19.2598H9.79212V16.6711C9.79212 16.4777 9.71759 16.2992 9.58345 16.1653C9.44932 16.0314 9.27046 15.957 9.07671 15.957C8.86805 15.957 8.7041 16.0314 8.56996 16.1653C8.43582 16.2992 8.3613 16.4777 8.3613 16.6711V19.2598H8.0334C7.83965 19.2598 7.6757 19.3342 7.52665 19.4681C7.39251 19.602 7.31799 19.7805 7.31799 19.9739C7.31799 20.1822 7.39251 20.3458 7.52665 20.4797C7.66079 20.6136 7.83965 20.688 8.0334 20.688H8.3613V24.1544C8.3613 26.029 9.30027 26.9662 11.1782 26.9662C11.372 26.9662 11.5508 26.8918 11.685 26.7579C11.8191 26.6241 11.8936 26.4455 11.8936 26.2521C11.8936 26.0587 11.8191 25.8802 11.685 25.7463C11.5508 25.5975 11.372 25.5231 11.1782 25.5231Z" class="fill-black"/>
<path d="M19.3457 19.2599C19.137 19.2599 18.9731 19.3343 18.8389 19.4682C18.7048 19.6021 18.6303 19.7806 18.6303 19.974V23.3809C18.6303 23.6784 18.5706 23.9611 18.4663 24.214C18.3471 24.4669 18.198 24.705 18.0043 24.8984C17.8105 25.0918 17.572 25.2554 17.3187 25.3596C17.0504 25.4786 16.7821 25.5232 16.484 25.5232C16.1859 25.5232 15.9028 25.4637 15.6494 25.3596C15.3811 25.2406 15.1575 25.0918 14.9638 24.8984C14.77 24.705 14.621 24.4818 14.5017 24.214C14.3825 23.9462 14.3378 23.6784 14.3378 23.3809V19.974C14.3378 19.7806 14.2633 19.6021 14.1291 19.4682C13.995 19.3343 13.8161 19.2599 13.6224 19.2599C13.4137 19.2599 13.2498 19.3343 13.1156 19.4682C12.9815 19.6021 12.907 19.7806 12.907 19.974V23.3809C12.907 23.8718 12.9964 24.333 13.1902 24.7645C13.3839 25.1959 13.6373 25.5827 13.9652 25.91C14.2931 26.2373 14.6657 26.4902 15.1128 26.6837C15.5451 26.8771 16.0071 26.9663 16.4989 26.9663C16.9163 26.9663 17.3038 26.9068 17.6466 26.8027C18.0043 26.6837 18.3322 26.5051 18.6601 26.2671C18.6601 26.4605 18.7346 26.639 18.8687 26.7729C19.0029 26.9068 19.1668 26.9812 19.3755 26.9812C19.5841 26.9812 19.7481 26.9068 19.8971 26.7729C20.0313 26.639 20.1058 26.4456 20.1058 26.2522V19.9889C20.1058 19.7955 20.0313 19.6169 19.8971 19.483C19.7183 19.3194 19.5394 19.2599 19.3457 19.2599Z" class="fill-black"/>
<path d="M28.1544 15.957C27.9458 15.957 27.7818 16.0314 27.6477 16.1653C27.5136 16.2992 27.439 16.4777 27.439 16.6711C27.439 16.6711 27.439 19.6317 27.439 19.9441C27.439 19.959 27.439 19.9739 27.439 19.9739V20.1078C26.664 19.4829 25.7698 19.2152 24.7414 19.2747C23.9067 19.3193 23.1019 19.6615 22.4908 20.2119C21.6114 21.0004 21.1643 21.9675 21.1643 23.113C21.1643 24.1842 21.5369 25.0917 22.297 25.8356C23.0572 26.5943 23.9663 26.9662 25.0245 26.9662C25.9486 26.9662 26.7534 26.6836 27.439 26.1182V26.2372C27.439 26.4455 27.5136 26.6092 27.6477 26.7431C27.7818 26.877 27.9607 26.9514 28.1544 26.9514C28.3482 26.9514 28.5271 26.877 28.6612 26.7431C28.7953 26.6092 28.8699 26.4306 28.8848 26.2372V23.1874C28.8848 23.1576 28.8848 23.1428 28.8848 23.113V16.6711C28.8848 16.4629 28.8102 16.2992 28.6761 16.1653C28.5271 16.0165 28.3482 15.957 28.1544 15.957ZM27.4241 23.1725C27.4092 23.4849 27.3496 23.7676 27.2304 24.0354C27.1111 24.3329 26.9323 24.5859 26.7087 24.809C26.4852 25.0322 26.2318 25.2107 25.9337 25.3297C25.6356 25.4636 25.3226 25.5231 24.9947 25.5231C24.6519 25.5231 24.3389 25.4636 24.0408 25.3297C23.7428 25.1958 23.4894 25.0322 23.2807 24.809C23.0721 24.5859 22.8932 24.3329 22.774 24.0354C22.6547 23.7379 22.5802 23.4254 22.5802 23.0981C22.5802 22.7708 22.6398 22.4584 22.774 22.1609C22.8932 21.8633 23.0721 21.6104 23.2807 21.3872C23.4894 21.1641 23.7577 21.0004 24.0408 20.8665C24.3389 20.7326 24.6519 20.6731 24.9947 20.6731C25.3375 20.6731 25.6505 20.7326 25.9337 20.8665C26.2318 21.0004 26.4852 21.1641 26.7087 21.3872C26.9323 21.6104 27.0962 21.8633 27.2304 22.1609C27.3496 22.4287 27.4092 22.7262 27.4241 23.0237V23.1725Z" class="fill-black"/>
<path d="M31.1501 17.043C30.8818 17.0281 30.5986 17.1323 30.4198 17.3406C30.3005 17.4745 30.2409 17.6381 30.226 17.8166C30.2111 18.0844 30.3154 18.3671 30.5241 18.5456C30.6582 18.6646 30.8222 18.7242 31.001 18.739C31.2693 18.7539 31.5525 18.6498 31.7313 18.4415C31.8506 18.3076 31.9102 18.1439 31.9251 17.9654C31.94 17.6976 31.8357 17.415 31.627 17.2364C31.4929 17.1174 31.3289 17.0579 31.1501 17.043Z" class="fill-black"/>
<path d="M31.0755 19.2599C30.8818 19.2599 30.7029 19.3343 30.5688 19.4682C30.4346 19.6021 30.3601 19.7806 30.3601 19.974V26.2373C30.3601 26.4456 30.4346 26.6093 30.5688 26.7432C30.7029 26.8771 30.8818 26.9514 31.0755 26.9514C31.2693 26.9514 31.4481 26.8771 31.5823 26.7432C31.7164 26.6093 31.7909 26.4307 31.8058 26.2373V19.974C31.8058 19.7657 31.7313 19.6021 31.5823 19.4682C31.4481 19.3194 31.2693 19.2599 31.0755 19.2599Z" class="fill-black"/>
<path d="M39.9884 19.23C39.7798 19.23 39.6158 19.3044 39.4668 19.4383C39.3327 19.5722 39.2581 19.7507 39.2581 19.9441V19.9738C39.2581 20.0185 39.2134 20.0334 39.1836 20.0185C38.6321 19.587 38.0211 19.3341 37.3355 19.2449H37.3206C37.2759 19.2449 37.2311 19.23 37.1864 19.23C37.1566 19.23 37.1417 19.23 37.1119 19.23C37.0821 19.23 37.0523 19.23 37.0225 19.23C36.9629 19.23 36.9032 19.23 36.8436 19.23C36.7691 19.23 36.7095 19.23 36.635 19.23C36.6052 19.23 36.5903 19.23 36.5604 19.23C36.5157 19.23 36.471 19.23 36.4263 19.2449C36.3965 19.2449 36.3816 19.2449 36.3518 19.2597C36.3071 19.2597 36.2773 19.2746 36.2325 19.2746C36.2027 19.2746 36.1729 19.2895 36.158 19.2895C36.1133 19.2895 36.0835 19.3044 36.0388 19.3044C36.009 19.3044 35.9792 19.3192 35.9643 19.3192C35.9345 19.3341 35.8897 19.3341 35.8599 19.349C35.8301 19.349 35.8003 19.3639 35.7854 19.3639C35.7556 19.3788 35.7109 19.3788 35.6811 19.3936C35.6513 19.4085 35.6215 19.4085 35.6066 19.4234C35.5768 19.4383 35.532 19.4531 35.5022 19.468C35.4724 19.4829 35.4575 19.4829 35.4277 19.4978C35.3979 19.5126 35.3532 19.5275 35.3234 19.5424C35.2936 19.5573 35.2787 19.5573 35.2489 19.5722C35.2191 19.587 35.1743 19.6019 35.1445 19.6168C35.1147 19.6317 35.0998 19.6465 35.07 19.6465C35.0402 19.6614 34.9955 19.6912 34.9657 19.7061C34.9508 19.7209 34.921 19.7358 34.9061 19.7358C34.8613 19.7656 34.8315 19.7804 34.7868 19.8102C34.7719 19.8251 34.757 19.8251 34.7421 19.8399C34.6378 19.9143 34.5185 19.9887 34.4142 20.078C34.3993 20.0929 34.3844 20.1077 34.3695 20.1077C34.3248 20.1375 34.295 20.1672 34.2503 20.2119C34.2354 20.2268 34.2205 20.2416 34.1906 20.2565C34.1608 20.2863 34.1459 20.3011 34.1161 20.3309L34.1012 20.3458C34.0714 20.3755 34.0565 20.4053 34.0267 20.4202C33.9969 20.4499 33.982 20.4648 33.9522 20.4945C33.9373 20.5094 33.9373 20.5094 33.9224 20.5243C33.8478 20.6136 33.7733 20.7028 33.6988 20.7921C33.6839 20.807 33.6839 20.8218 33.669 20.8367C33.6541 20.8665 33.6243 20.8962 33.6094 20.926C33.356 21.3128 33.1772 21.7145 33.0728 22.1608C33.0728 22.1757 33.0728 22.1757 33.0728 22.1906C33.0579 22.2352 33.0579 22.2649 33.043 22.3096C33.0132 22.4286 32.9983 22.5625 32.9983 22.6815C32.9983 22.7261 32.9983 22.7559 32.9834 22.8005C32.9834 22.8154 32.9834 22.8452 32.9834 22.86C32.9834 22.8898 32.9834 22.9195 32.9834 22.9642C32.9834 22.9939 32.9834 23.0386 32.9834 23.0683C32.9834 23.0981 32.9834 23.1427 32.9834 23.1725C32.9834 23.2022 32.9834 23.232 32.9834 23.2766C32.9834 23.2915 32.9834 23.3212 32.9834 23.3361C32.9834 23.3807 32.9834 23.4105 32.9983 23.4551C33.0132 23.5741 33.0281 23.708 33.043 23.8271C33.043 23.8717 33.0579 23.9014 33.0728 23.9461C33.0728 23.961 33.0728 23.961 33.0728 23.9758C33.1772 24.4222 33.356 24.8387 33.6094 25.2106C33.6243 25.2404 33.6541 25.2702 33.669 25.2999C33.6839 25.3148 33.6839 25.3297 33.6988 25.3445C33.7733 25.4338 33.8478 25.5231 33.9224 25.6123C33.9224 25.6272 33.9373 25.6272 33.9522 25.6421C33.9671 25.6718 33.9969 25.6867 34.0267 25.7165C34.0565 25.7462 34.0714 25.776 34.1012 25.7909L34.1161 25.8057C34.1459 25.8355 34.1608 25.8504 34.1906 25.8801C34.2056 25.895 34.2205 25.9099 34.2503 25.9248C34.295 25.9545 34.3248 25.9991 34.3695 26.0289C34.3844 26.0438 34.3993 26.0587 34.4142 26.0587C34.5185 26.1479 34.6229 26.2223 34.7421 26.2967C34.757 26.3116 34.7719 26.3116 34.7868 26.3264C34.8315 26.3562 34.8613 26.3711 34.9061 26.4008C34.921 26.4157 34.9508 26.4306 34.9657 26.4306C34.9955 26.4455 35.0402 26.4752 35.07 26.4901C35.0998 26.505 35.1147 26.5199 35.1445 26.5199C35.1743 26.5347 35.2191 26.5496 35.2489 26.5645C35.2787 26.5794 35.2936 26.5794 35.3234 26.5942C35.3532 26.6091 35.3979 26.624 35.4277 26.6389C35.4575 26.6537 35.4724 26.6537 35.5022 26.6686C35.532 26.6835 35.5768 26.6984 35.6066 26.7133C35.6364 26.7281 35.6662 26.7281 35.6811 26.743C35.7109 26.7579 35.7556 26.7579 35.7854 26.7728C35.8152 26.7876 35.845 26.7876 35.8599 26.7876C35.8897 26.8025 35.9345 26.8025 35.9643 26.8174C35.9941 26.8174 36.0239 26.8323 36.0388 26.8323C36.0835 26.8471 36.1133 26.8472 36.158 26.8472C36.1878 26.8472 36.2176 26.862 36.2325 26.862C36.2773 26.862 36.3071 26.8769 36.3518 26.8769C36.3816 26.8769 36.3965 26.8769 36.4263 26.8918C36.471 26.8918 36.5157 26.8918 36.5604 26.9067C36.5903 26.9067 36.6052 26.9067 36.635 26.9067C36.7095 26.9067 36.7691 26.9067 36.8436 26.9067C36.9032 26.9067 36.9629 26.9067 37.0225 26.9067C37.0523 26.9067 37.0821 26.9067 37.1119 26.9067C37.1417 26.9067 37.1566 26.9067 37.1864 26.9067C37.2311 26.9067 37.2759 26.8918 37.3206 26.8918H37.3355C38.0211 26.8025 38.6321 26.5496 39.1836 26.1182C39.2134 26.1033 39.2581 26.133 39.2581 26.1628V26.1925C39.2581 26.386 39.3327 26.5645 39.4668 26.6984C39.6009 26.8323 39.7798 26.9067 39.9884 26.9067C40.1822 26.9067 40.3611 26.8323 40.4952 26.6984C40.6293 26.5645 40.7039 26.386 40.7039 26.1925V23.0386V19.8846C40.7039 19.6912 40.6293 19.5126 40.4952 19.3788C40.3611 19.3044 40.1822 19.23 39.9884 19.23ZM39.0644 24.0353C38.9302 24.3329 38.7663 24.5858 38.5427 24.809C38.3192 25.0321 38.0658 25.2106 37.7677 25.3297C37.4696 25.4636 37.1566 25.5231 36.8138 25.5231C36.471 25.5231 36.158 25.4636 35.8599 25.3297C35.5618 25.1958 35.3085 25.0321 35.0849 24.809C34.8613 24.5858 34.6974 24.3329 34.5633 24.0353C34.4291 23.7378 34.3695 23.4254 34.3695 23.0981C34.3695 22.7708 34.4291 22.4584 34.5633 22.1608C34.6974 21.8633 34.8613 21.6103 35.0849 21.3872C35.3085 21.164 35.5618 21.0004 35.8599 20.8665C36.158 20.7326 36.471 20.6731 36.8138 20.6731C37.1566 20.6731 37.4696 20.7326 37.7677 20.8665C38.0658 21.0004 38.3192 21.164 38.5427 21.3872C38.7663 21.6103 38.9302 21.8633 39.0644 22.1608C39.1985 22.4584 39.2581 22.7708 39.2581 23.0981C39.2581 23.4254 39.1985 23.7378 39.0644 24.0353Z" class="fill-black"/>
<path d="M43.2226 25.0024C42.9543 25.0024 42.7158 25.0917 42.5221 25.2851C42.3283 25.4785 42.2389 25.7017 42.2389 25.9843C42.2389 26.2521 42.3283 26.4902 42.5221 26.6836C42.7158 26.877 42.9394 26.9662 43.2226 26.9662C43.4909 26.9662 43.7293 26.877 43.9231 26.6836C44.1168 26.4902 44.2063 26.267 44.2063 25.9843C44.2063 25.7166 44.1168 25.4785 43.9231 25.2851C43.7293 25.1066 43.4909 25.0024 43.2226 25.0024Z" class="fill-black"/>
<path d="M46.2631 17.0133C46.0247 17.0133 45.8309 17.1026 45.6669 17.2662C45.503 17.4299 45.4136 17.6382 45.4136 17.8613C45.4136 18.0993 45.503 18.2928 45.6669 18.4564C45.8309 18.6201 46.0396 18.7093 46.2631 18.7093C46.5016 18.7093 46.6953 18.6201 46.8593 18.4564C47.0232 18.2928 47.1127 18.0845 47.1127 17.8613C47.1127 17.6233 47.0232 17.4299 46.8593 17.2662C46.6953 17.1026 46.4867 17.0133 46.2631 17.0133Z" class="fill-black"/>
<path d="M46.2631 19.2448C46.0694 19.2448 45.8905 19.3191 45.7564 19.453C45.6223 19.5869 45.5477 19.7655 45.5477 19.9737V26.252C45.5477 26.4602 45.6223 26.6239 45.7564 26.7727C45.8905 26.9066 46.0694 26.9809 46.2631 26.9809C46.4569 26.9809 46.6358 26.9066 46.7699 26.7727C46.904 26.6388 46.9786 26.4602 46.9935 26.252V19.9589C46.9935 19.7506 46.9189 19.5869 46.7699 19.4382C46.6208 19.3043 46.4569 19.2448 46.2631 19.2448Z" class="fill-black"/>
<path d="M52.7913 25.7314C52.6572 25.5975 52.4783 25.5231 52.2846 25.5231C51.3605 25.5231 50.8984 25.0619 50.8984 24.1544V20.688H51.7629C51.9567 20.688 52.1355 20.6136 52.2696 20.4797C52.4038 20.3458 52.4783 20.1673 52.4783 19.959C52.4783 19.7656 52.4038 19.5871 52.2696 19.4532C52.1355 19.3193 51.9567 19.2449 51.7629 19.2449H50.8984V16.6562C50.8984 16.4628 50.8239 16.2843 50.6898 16.1504C50.5556 16.0165 50.3768 15.9421 50.183 15.9421C49.9744 15.9421 49.8104 16.0165 49.6614 16.1504C49.5272 16.2843 49.4527 16.4628 49.4527 16.6562V19.2449H49.1248C48.9311 19.2449 48.7671 19.3193 48.6181 19.4532C48.4839 19.5871 48.4094 19.7656 48.4094 19.959C48.4094 20.1673 48.4839 20.3309 48.6181 20.4797C48.7522 20.6136 48.9311 20.688 49.1248 20.688H49.4527V24.1544C49.4527 26.0289 50.3917 26.9662 52.2846 26.9662C52.4783 26.9662 52.6572 26.8918 52.7913 26.7579C52.9254 26.624 53 26.4455 53 26.2372C53 26.0438 52.9403 25.8653 52.7913 25.7314Z" class="fill-black"/>
</svg>
