<svg width="91" height="46" viewBox="0 0 91 46" fill="none" xmlns="http://www.w3.org/2000/svg">
<path d="M48.0435 19.0801C48.0435 18.4228 48.0689 17.7656 48.0689 17.083C48.0689 16.7544 48.2461 16.3752 48.6007 16.1982C49.0819 15.9707 49.5378 15.7432 50.019 15.5409C49.8923 15.4145 49.7657 15.3134 49.6644 15.187C49.4111 14.9342 49.1579 14.6814 48.8793 14.4286C48.626 14.1758 48.3474 13.8977 48.0942 13.6449C47.7903 13.3416 47.5117 13.0635 47.2837 12.836L47.2584 12.8107C47.1824 12.7348 47.1318 12.6843 47.0811 12.6337C46.9545 12.5073 46.8026 12.3556 46.6759 12.204L46.5493 12.0776L46.4227 11.9512L43.4342 9.14506C43.4089 8.86698 43.3835 8.61418 43.3835 8.36138C43.3582 7.90634 43.3582 7.42602 43.3835 6.99626C43.4089 6.51594 43.4342 6.08618 43.5102 5.65641C43.6368 4.67049 43.966 3.55817 45.1817 2.97673C45.4096 2.87561 45.6376 2.77449 45.8655 2.67337H45.8908C45.5616 2.44585 45.207 2.24361 44.8778 2.11721C44.8271 2.09193 44.7511 2.09193 44.6752 2.06665C44.5232 2.04137 44.3206 2.06665 44.1433 2.09193C44.0167 2.11721 43.8901 2.14249 43.7634 2.19305C43.6875 2.21833 43.6115 2.24361 43.5102 2.26889C43.4089 2.29417 43.2822 2.31945 43.1809 2.37001C42.5984 2.52169 42.0159 2.67337 41.4334 2.85033C40.1165 3.22953 38.8502 3.60873 37.6598 3.98793H37.6345L37.4319 4.06377C36.9254 4.21545 36.4189 4.39241 35.9377 4.56937C35.8617 4.59465 35.811 4.61993 35.7604 4.64521C35.7097 4.67049 35.6591 4.69577 35.6084 4.72105C35.5578 4.74633 35.5071 4.77161 35.4818 4.79689C35.4565 4.82217 35.4058 4.84745 35.3805 4.87273C35.3299 4.92329 35.2792 4.94857 35.2285 4.99913C35.1779 5.07497 35.1272 5.12553 35.1019 5.22665C35.1019 5.22665 35.1019 5.25193 35.0766 5.25193C34.6967 6.03562 34.6714 6.89514 34.8233 7.72938C34.8993 8.28554 35.1779 8.61418 35.5071 8.94282C35.5071 8.94282 35.5071 8.9681 35.5325 8.9681C35.5831 9.01866 35.6338 9.06922 35.6844 9.11978C35.8364 9.27147 35.9883 9.44843 36.1656 9.62539C36.2922 9.72651 36.3935 9.85291 36.4949 9.95403C37.9131 11.395 39.3314 12.8107 40.7496 14.1505C43.1049 16.4004 45.5869 18.6504 48.1195 20.8245V20.7992C48.1195 20.7992 48.1448 20.7992 48.1448 20.8245C48.0435 20.1925 48.0435 19.6363 48.0435 19.0801ZM58.7311 18.3976C58.7311 18.0184 58.7311 17.6392 58.7565 17.2347C58.7565 16.8555 58.9591 16.5016 59.2883 16.3499C60.4026 15.819 61.517 15.2881 62.6313 14.7572C63.2138 14.4792 63.8217 14.2011 64.4042 13.923C64.86 13.7208 65.2906 13.5185 65.7464 13.291C65.9237 13.2152 66.101 13.1393 66.253 13.0635C66.5822 12.9118 66.9114 12.7601 67.2407 12.6084C67.6206 12.4062 67.7219 12.2798 67.8485 11.8248C67.9498 11.4456 68.0511 11.0411 68.1271 10.6619C68.2031 10.3332 68.279 10.0046 68.355 9.67595L68.4817 9.19562C68.0764 9.01866 67.6965 8.81642 67.2913 8.61418C65.5945 7.80522 63.8217 6.92042 62.1248 6.01034C61.3397 5.60585 60.5039 5.12553 59.5922 4.61993C59.5669 4.61993 59.5669 4.59465 59.5416 4.59465C59.263 4.44297 58.9591 4.26601 58.6551 4.08905C58.2753 3.86153 57.8954 3.63401 57.5155 3.43177C57.3635 3.33065 57.2116 3.25481 57.0596 3.15369C56.8823 3.05257 56.705 2.92617 56.5278 2.82505C56.2745 2.64809 55.9959 2.47113 55.7426 2.34473C55.6667 2.29417 55.5654 2.26889 55.4894 2.24361C55.1095 2.11721 54.6283 2.24361 54.1471 2.39529C54.0458 2.42057 53.9192 2.44585 53.8179 2.49641C53.2354 2.64809 52.6275 2.79977 52.045 2.97673C51.4119 3.15369 50.7534 3.35593 50.1203 3.53289C49.5631 3.70985 48.9806 3.88681 48.4234 4.06377C48.3981 4.06377 48.3728 4.08905 48.3474 4.08905L48.0435 4.19017C47.537 4.34185 47.0305 4.51881 46.524 4.69577C46.3467 4.77161 46.1947 4.82217 46.0681 4.89801C45.8402 5.02441 45.7389 5.12553 45.6629 5.32777C45.6629 5.35305 45.6629 5.37833 45.6629 5.37833C45.283 6.16202 45.2577 7.02154 45.4096 7.85578C45.4856 8.31082 45.6882 8.63946 45.9415 8.94282C45.9921 8.99338 46.0428 9.04394 46.0681 9.0945C46.1187 9.14506 46.1694 9.2209 46.2201 9.27146C46.2707 9.3473 46.3467 9.42314 46.4227 9.47371C46.4986 9.54955 46.5746 9.62539 46.6506 9.70123C46.7772 9.82763 46.9039 9.92875 47.0052 10.0551L48.2461 11.2939C49.2339 12.2798 50.2469 13.2657 51.2346 14.2264C51.3866 14.378 51.5639 14.5297 51.7158 14.6814C51.7918 14.7572 51.8678 14.8331 51.9437 14.8836C52.2477 15.187 52.5516 15.4651 52.8808 15.7432C53.0328 15.8948 53.21 16.0465 53.362 16.1982C55.0588 17.7656 56.8063 19.3329 58.6045 20.875V20.7992C58.6045 20.3694 58.6045 19.9397 58.6298 19.5099C58.7311 19.156 58.7311 18.7768 58.7311 18.3976ZM34.0129 1.15656C34.6461 1.53576 35.2792 1.88969 35.9124 2.24361C36.0643 2.19305 36.2416 2.14249 36.3935 2.09193C36.5455 2.04137 36.6975 1.99081 36.8494 1.96553C37.1027 1.88969 37.3813 1.81384 37.6345 1.738H37.6598C38.1917 1.58632 38.7489 1.40936 39.2807 1.25768C39.306 1.25768 39.306 1.2324 39.3314 1.2324C39.8885 1.08072 40.4204 0.929043 40.9776 0.777362C41.2308 0.701522 41.5094 0.625682 41.788 0.549841C41.8893 0.524561 41.9906 0.499281 42.0919 0.448721H42.1172C42.3198 0.398161 42.5225 0.347601 42.7251 0.297041C42.9277 0.246481 43.1303 0.195921 43.3329 0.14536C43.4342 0.12008 43.5355 0.0948002 43.6621 0.0948002C43.7888 0.0948002 43.8647 0.0695202 43.966 0.0442401C44.0673 0.0189601 44.1686 0.0189601 44.2699 0.0189601C44.4219 -0.00632002 44.5739 -0.00632002 44.7258 0.0189601C45.6122 0.0695202 46.3467 0.499281 47.0811 0.929042L48.6514 1.83912C49.6137 1.56104 50.5761 1.28296 51.6398 0.979603C51.9184 0.903762 52.197 0.827922 52.5009 0.726802C53.3113 0.499281 54.1218 0.246481 54.9575 0.17064C55.2615 0.14536 55.5654 0.17064 55.8186 0.221201C56.5278 0.347601 57.1356 0.726802 57.7434 1.08072L57.946 1.20712C58.6045 1.58632 59.2376 1.96553 59.8961 2.31945C60.7572 2.79977 61.5676 3.28009 62.3781 3.70985C62.4034 3.70985 62.4034 3.73513 62.4287 3.73513C64.1256 4.67049 65.7464 5.55529 67.342 6.33898C68.2031 6.76874 69.0388 7.1985 69.8746 7.5777C69.9759 7.62826 70.1025 7.67882 70.2038 7.72938C70.6597 7.9569 70.8116 8.48778 70.7103 8.89226C70.6597 9.11978 70.609 9.37258 70.5584 9.60011C70.5077 9.77707 70.4824 9.97931 70.4318 10.1563C70.3305 10.7124 70.2038 11.2686 70.0519 11.8248C69.9506 12.1534 69.8746 12.5073 69.748 12.836C69.3681 13.9736 68.431 14.4033 67.5446 14.8078L67.4939 14.8331C67.0127 15.0606 66.5315 15.2881 66.0504 15.4904C64.5055 16.1982 62.9099 16.9313 61.3144 17.6897C61.1371 17.7656 60.9598 17.8414 60.7825 17.9425C60.7572 18.4228 60.7319 18.9285 60.7066 19.4088C60.6812 19.6363 60.6812 19.8638 60.6812 20.0913C60.6306 20.875 60.6053 21.6334 60.5799 22.4171C60.5546 22.5688 60.5546 22.7205 60.5546 22.8721C60.5293 23.2261 60.3267 23.5294 60.0228 23.6811C59.6935 23.8328 59.2883 23.7822 59.0097 23.5294C58.6551 23.2261 58.3006 22.948 57.9713 22.6446C57.87 22.5688 57.7941 22.4929 57.6928 22.4171C57.1862 21.9873 56.705 21.5576 56.1985 21.1278C54.6536 19.788 53.1341 18.4228 51.6905 17.0577C51.184 17.2852 50.6521 17.538 50.1456 17.7656C50.1203 18.2459 50.0949 18.7515 50.0696 19.2318C50.0443 19.5857 50.019 19.9649 50.019 20.3189V20.3441C49.9936 20.6475 49.9936 20.9509 49.9683 21.2795C49.943 21.7598 49.9177 22.2401 49.9177 22.7205C49.8923 23.0744 49.6897 23.3777 49.3858 23.5294C49.3352 23.5547 49.2592 23.58 49.2085 23.58C49.1832 23.58 49.1325 23.6053 49.1072 23.6053C48.854 23.6305 48.6007 23.5547 48.3728 23.3777C48.0182 23.0744 47.6636 22.771 47.2837 22.4677C44.9284 20.4705 42.6238 18.3976 40.4204 16.2993C39.2554 16.8302 38.0904 17.3864 36.9254 17.9172L36.8747 19.0801C36.7988 20.3441 36.7481 21.6081 36.6975 22.8721C36.6721 23.2261 36.4949 23.5294 36.1656 23.6811C36.039 23.7317 35.9124 23.7569 35.7857 23.7569C35.5578 23.7569 35.3552 23.6811 35.1526 23.5294C34.8487 23.2766 34.5701 23.0238 34.2662 22.7963L19.577 9.0945C19.4504 7.93162 19.4757 6.79402 19.6277 5.65641C19.7543 4.72105 20.0582 3.55817 21.2992 2.95145C22.059 2.57225 22.8948 2.34473 23.7305 2.11721C23.9838 2.04137 24.2624 1.96553 24.5156 1.88969C25.5793 1.56104 26.6937 1.2324 27.808 0.929042C28.0866 0.853202 28.3652 0.777362 28.6691 0.676242C29.4795 0.448721 30.29 0.195921 31.1257 0.12008C32.2401 0.0189601 33.1265 0.549841 33.9116 1.03016L34.0129 1.15656ZM34.798 19.2824C34.798 18.5998 34.8233 17.9172 34.8233 17.26C34.8233 17.2094 34.8233 17.1588 34.8487 17.1083C34.8487 17.083 34.874 17.0324 34.874 16.9819C34.874 16.9566 34.8993 16.9313 34.8993 16.906C34.8993 16.8808 34.9246 16.8302 34.95 16.8049C35.0259 16.6785 35.1019 16.5521 35.2285 16.451C35.2792 16.4257 35.3299 16.3752 35.3805 16.3499C36.4949 15.819 37.6092 15.2881 38.7489 14.7572C38.369 14.4033 37.9891 14.0241 37.6092 13.6449C37.2546 13.291 36.9001 12.9371 36.5455 12.5579C36.4949 12.5073 36.4442 12.4315 36.3682 12.3809C36.1403 12.1534 35.7857 11.85 35.7857 11.85L35.6338 11.7236L32.7466 9.01866C32.7466 8.99338 32.7466 8.99338 32.7466 8.9681V8.94282C32.7213 8.79114 32.7213 8.61418 32.6959 8.4625C32.6706 8.31082 32.6706 8.15914 32.6706 8.00746C32.6706 7.98218 32.6706 7.93162 32.6706 7.88106C32.6706 7.72938 32.6706 7.55242 32.6706 7.40074C32.6706 6.74346 32.7213 6.11146 32.7972 5.45417C32.8986 4.74633 33.0758 3.98793 33.6077 3.38121C33.4557 3.30537 33.3038 3.20425 33.1518 3.10313C32.9745 3.00201 32.7972 2.87561 32.62 2.77449C32.2654 2.54697 31.9108 2.31945 31.5816 2.19305C31.2017 2.06665 30.6952 2.19305 30.2393 2.34473C30.138 2.37001 30.0114 2.39529 29.9101 2.44585C29.3023 2.59753 28.7198 2.74921 28.1373 2.92617C26.8456 3.28009 25.5793 3.65929 24.389 4.06377L24.1611 4.13961C23.6545 4.29129 23.148 4.46825 22.6668 4.64521C22.5909 4.67049 22.5402 4.69577 22.4895 4.72105C22.4389 4.74633 22.3882 4.77161 22.3376 4.79689C22.2869 4.82217 22.2363 4.84745 22.211 4.87273C22.1603 4.89801 22.135 4.92329 22.1097 4.94857C22.059 4.99913 22.0084 5.02441 21.9577 5.07497C21.907 5.15081 21.8564 5.20137 21.8311 5.30249C21.4512 6.08618 21.4259 6.97098 21.5525 7.80522C21.6285 8.36138 21.907 8.69002 22.2363 9.01866C22.2363 9.01866 22.2363 9.04394 22.2616 9.04394C22.4389 9.27147 22.6668 9.47371 22.8948 9.70123C23.0214 9.80235 23.1227 9.92875 23.224 10.0299C24.6423 11.4708 26.0605 12.8865 27.4788 14.2264C29.8341 16.4763 32.3161 18.7262 34.8487 20.9003C34.798 20.3694 34.798 19.8133 34.798 19.2824Z" fill="white"/>
<path d="M34.8233 17.2597C34.8233 17.9423 34.798 18.5996 34.798 19.2821C34.798 19.813 34.7727 20.3692 34.7727 20.9001C32.2148 18.726 29.7581 16.4761 27.4028 14.2261C26.0099 12.8863 24.5663 11.4706 23.148 10.0296C23.0467 9.92851 22.9201 9.80211 22.8188 9.70099C22.5909 9.47347 22.3629 9.27123 22.1856 9.04371C22.1856 9.04371 22.1856 9.01843 22.1603 9.01843C21.8311 8.68979 21.5778 8.33587 21.4765 7.80499C21.3499 6.94546 21.3499 6.06066 21.7551 5.30226C21.7804 5.22642 21.8311 5.15058 21.8817 5.07474C21.9324 5.02418 21.9577 4.97362 22.0337 4.94834C22.059 4.92306 22.1097 4.89778 22.135 4.8725C22.1856 4.84722 22.211 4.82194 22.2616 4.79666C22.3123 4.77138 22.3629 4.7461 22.4136 4.72082C22.4642 4.69554 22.5402 4.67026 22.5909 4.64498C23.072 4.46802 23.6039 4.29105 24.0851 4.13937L24.313 4.06353C25.5287 3.68433 26.795 3.30513 28.0613 2.92593C28.6438 2.77425 29.2263 2.59729 29.8341 2.44561C29.9354 2.42033 30.0367 2.39505 30.1633 2.34449C30.6952 2.24337 31.2017 2.09169 31.5816 2.24337C31.9362 2.36977 32.2907 2.59729 32.62 2.82481C32.7973 2.95121 32.9745 3.05233 33.1518 3.15345C33.3038 3.25457 33.4557 3.33041 33.6077 3.43153C33.0758 4.03825 32.8732 4.79666 32.7973 5.5045C32.696 6.1365 32.6706 6.79378 32.6706 7.45106C32.6706 7.60274 32.6706 7.77971 32.6706 7.93139C32.6706 7.98195 32.6706 8.00723 32.6706 8.05779C32.6706 8.20947 32.6959 8.36115 32.6959 8.51283C32.7213 8.66451 32.7213 8.84147 32.7466 8.99315V9.01843C32.7466 9.04371 32.7466 9.04371 32.7466 9.06899L35.6338 11.774L35.7857 11.9004C35.7857 11.9004 36.115 12.2037 36.3682 12.4312C36.4189 12.4818 36.4695 12.5576 36.5455 12.6082C36.9001 12.9874 37.2546 13.3413 37.6092 13.6952C37.9891 14.0744 38.369 14.4536 38.7489 14.8076C37.6345 15.3384 36.4949 15.8693 35.3805 16.4002C35.3299 16.4255 35.2792 16.4508 35.2286 16.5013C35.1019 16.6025 35.0259 16.7036 34.95 16.8553C34.9246 16.8805 34.9246 16.9058 34.8993 16.9564C34.874 16.9817 34.874 17.0069 34.874 17.0322C34.8487 17.0828 34.8487 17.1081 34.8487 17.1586C34.8487 17.1333 34.8233 17.1839 34.8233 17.2597Z" fill="#00AB2E"/>
<path d="M58.7563 17.2345C58.7563 17.6137 58.731 17.9929 58.731 18.3974C58.731 18.7766 58.731 19.1558 58.7056 19.535C58.7056 19.9648 58.7056 20.3946 58.6803 20.8243V20.9002C56.8822 19.3581 55.1093 17.7907 53.4378 16.2233C53.2859 16.0717 53.1086 15.92 52.9566 15.7683C52.6527 15.4902 52.3488 15.2121 52.0196 14.9088C51.9436 14.8329 51.8676 14.7571 51.7916 14.7065C51.6397 14.5549 51.4624 14.4032 51.3104 14.2515C50.3227 13.2909 49.3097 12.3049 48.322 11.319L47.081 10.0803C46.9543 9.95388 46.853 9.82748 46.7264 9.72636C46.6504 9.65052 46.5745 9.57468 46.4985 9.49884C46.4225 9.423 46.3465 9.37244 46.2959 9.2966C46.2452 9.24604 46.1946 9.1702 46.1439 9.11964C46.0933 9.06908 46.0426 9.01852 46.0173 8.96796C45.7387 8.68988 45.5614 8.36124 45.4854 7.88092C45.3588 7.04667 45.3588 6.16187 45.7387 5.40347C45.7387 5.37819 45.7387 5.35291 45.7387 5.35291C45.8147 5.15067 45.9413 5.04955 46.1439 4.92315C46.2705 4.84731 46.4225 4.79675 46.5998 4.72091C47.081 4.54395 47.6128 4.36699 48.1193 4.21531L48.4233 4.11419C48.4486 4.11419 48.4992 4.08891 48.4992 4.08891C49.0564 3.91195 49.6389 3.73498 50.1961 3.55802C50.8292 3.35578 51.4624 3.17882 52.1209 3.00186C52.7034 2.85018 53.3112 2.67322 53.8937 2.52154C53.995 2.49626 54.0963 2.47098 54.2229 2.42042C54.7041 2.29402 55.1853 2.14234 55.5652 2.26874C55.6412 2.29402 55.7425 2.34458 55.8185 2.36986C56.0717 2.49626 56.3503 2.67322 56.6036 2.85018C56.7809 2.97658 56.9581 3.0777 57.1354 3.17882C57.2874 3.27994 57.4393 3.35578 57.5913 3.4569C57.9712 3.68442 58.3511 3.91195 58.731 4.11419C59.0349 4.29115 59.3388 4.46811 59.6174 4.61979C59.6427 4.61979 59.6427 4.64507 59.668 4.64507C60.5798 5.15067 61.4155 5.60571 62.2006 6.03547C63.9228 6.94555 65.6703 7.83036 67.3671 8.63932C67.7724 8.84156 68.1776 9.01852 68.5575 9.22076L68.4308 9.70108C68.3549 10.0297 68.2789 10.3584 68.2029 10.687C68.1016 11.0662 68.0003 11.4707 67.9243 11.8499C67.7977 12.3049 67.6964 12.4566 67.3165 12.6336C66.9873 12.7852 66.658 12.9369 66.3288 13.0886C66.1515 13.1645 65.9742 13.2403 65.8223 13.3161C65.3664 13.5184 64.9358 13.7206 64.48 13.9481C63.8975 14.2262 63.2896 14.5043 62.7071 14.7824C61.5928 15.3133 60.4785 15.8441 59.3641 16.375C58.9589 16.5014 58.7563 16.8806 58.7563 17.2345Z" fill="#ED1B23"/>
<path d="M9.85183 39.8051C9.59857 39.527 9.06673 39.2237 8.30694 38.9456L2.81119 37.1507C2.60858 37.0749 2.50728 36.9232 2.50728 36.6957C2.50728 36.4681 2.55793 36.3165 2.68456 36.1901C3.36836 35.5075 4.25478 35.1536 5.36912 35.1536C6.50879 35.1536 7.47118 35.5581 8.28162 36.3417C8.43357 36.4934 8.61086 36.6451 8.78814 36.7968C8.96542 36.9485 9.16803 36.999 9.42129 36.999C9.77586 36.999 10.0544 36.8726 10.2824 36.6451C10.5103 36.4176 10.6369 36.1142 10.6369 35.7856C10.6369 35.5075 10.561 35.2547 10.3837 35.0525C8.99075 33.4851 7.31923 32.7014 5.36912 32.7014C4.73597 32.7014 4.07749 32.8025 3.44434 32.9795C2.81119 33.1565 2.22869 33.4345 1.72217 33.7632C1.21565 34.0918 0.810434 34.4963 0.481195 34.9766C0.177282 35.4569 0 35.9878 0 36.5946C0 37.4035 0.303913 38.1114 0.886412 38.7181C1.19032 39.0214 1.69685 39.2995 2.4313 39.5776L7.90173 41.3725C8.10434 41.4483 8.20564 41.6 8.20564 41.8275C8.20564 42.0045 8.15499 42.1814 8.02836 42.3078C7.34455 43.0157 6.45814 43.3696 5.3438 43.3696C4.20412 43.3696 3.21641 42.9651 2.4313 42.1814C2.27934 42.0298 2.12739 41.9034 1.95011 41.7517C1.79815 41.5747 1.59554 41.4989 1.31695 41.4989C0.96239 41.4989 0.683803 41.6253 0.455869 41.8528C0.227934 42.0803 0.101304 42.3837 0.101304 42.7123C0.101304 42.9904 0.177282 43.2432 0.354565 43.4707C1.7475 45.0128 3.41902 45.7965 5.36912 45.7965C6.00227 45.7965 6.63543 45.6954 7.26858 45.5184C7.90173 45.3415 8.4589 45.0887 8.99075 44.7347C9.49727 44.4061 9.90249 43.9763 10.2317 43.5213C10.5356 43.041 10.7129 42.5101 10.7129 41.9034C10.7129 41.1197 10.4343 40.4118 9.85183 39.8051Z" fill="white"/>
<path d="M18.9946 43.3698C17.4243 43.3698 16.6392 42.5862 16.6392 41.0441V35.1538H18.1081C18.4374 35.1538 18.7413 35.0274 18.9692 34.7999C19.1972 34.5724 19.3238 34.269 19.3238 33.9404C19.3238 33.6117 19.1972 33.3084 18.9692 33.0808C18.7413 32.8533 18.4374 32.7269 18.1081 32.7269H16.6392V28.3282C16.6392 27.9995 16.5126 27.6962 16.2847 27.4687C16.0567 27.2411 15.7528 27.1147 15.4236 27.1147C15.069 27.1147 14.7904 27.2411 14.5625 27.4687C14.3346 27.6962 14.2079 27.9995 14.2079 28.3282V32.7269H13.6508C13.3215 32.7269 13.0429 32.8533 12.7897 33.0808C12.5617 33.3084 12.4351 33.6117 12.4351 33.9404C12.4351 34.2943 12.5617 34.5724 12.7897 34.7999C13.0176 35.0274 13.3215 35.1538 13.6508 35.1538H14.2079V41.0441C14.2079 44.2294 15.8035 45.822 18.9946 45.822C19.3238 45.822 19.6277 45.6956 19.8556 45.4681C20.0836 45.2406 20.2102 44.9372 20.2102 44.6086C20.2102 44.2799 20.0836 43.9766 19.8556 43.749C19.6277 43.4962 19.3238 43.3698 18.9946 43.3698Z" fill="white"/>
<path d="M32.8731 32.7273C32.5185 32.7273 32.24 32.8537 32.012 33.0812C31.7841 33.3087 31.6575 33.6121 31.6575 33.9407V39.7299C31.6575 40.2355 31.5562 40.7158 31.3789 41.1456C31.1763 41.5753 30.923 41.9798 30.5938 42.3084C30.2645 42.6371 29.8593 42.9152 29.4288 43.0921C28.9729 43.2944 28.517 43.3702 28.0105 43.3702C27.504 43.3702 27.0228 43.2691 26.5922 43.0921C26.1364 42.8899 25.7565 42.6371 25.4272 42.3084C25.098 41.9798 24.8447 41.6006 24.6421 41.1456C24.4395 40.6905 24.3636 40.2355 24.3636 39.7299V33.9407C24.3636 33.6121 24.2369 33.3087 24.009 33.0812C23.7811 32.8537 23.4771 32.7273 23.1479 32.7273C22.7933 32.7273 22.5148 32.8537 22.2868 33.0812C22.0589 33.3087 21.9323 33.6121 21.9323 33.9407V39.7299C21.9323 40.5641 22.0842 41.3478 22.4134 42.0809C22.7427 42.814 23.1732 43.4713 23.7304 44.0275C24.2876 44.5836 24.9207 45.0134 25.6805 45.342C26.415 45.6707 27.2001 45.8224 28.0358 45.8224C28.745 45.8224 29.4034 45.7212 29.9859 45.5443C30.5938 45.342 31.1509 45.0387 31.7081 44.6342C31.7081 44.9628 31.8347 45.2662 32.0627 45.4937C32.2906 45.7212 32.5692 45.8476 32.9238 45.8476C33.2783 45.8476 33.5569 45.7212 33.8102 45.4937C34.0381 45.2662 34.1647 44.9376 34.1647 44.6089V33.966C34.1647 33.6374 34.0381 33.334 33.8102 33.1065C33.5063 32.8284 33.2024 32.7273 32.8731 32.7273Z" fill="white"/>
<path d="M47.841 27.1147C47.4864 27.1147 47.2078 27.2411 46.9799 27.4687C46.752 27.6962 46.6253 27.9995 46.6253 28.3282C46.6253 28.3282 46.6253 33.3589 46.6253 33.8898C46.6253 33.9151 46.6253 33.9404 46.6253 33.9404V34.1679C45.3084 33.1061 43.7888 32.6511 42.0413 32.7522C40.6231 32.828 39.2555 33.4095 38.2171 34.3448C36.7229 35.6847 35.9631 37.3279 35.9631 39.2745C35.9631 41.0946 36.5962 42.6367 37.8879 43.9007C39.1795 45.19 40.7244 45.822 42.5225 45.822C44.0927 45.822 45.4603 45.3417 46.6253 44.381V44.5833C46.6253 44.9372 46.752 45.2153 46.9799 45.4428C47.2078 45.6703 47.5118 45.7967 47.841 45.7967C48.1702 45.7967 48.4741 45.6703 48.7021 45.4428C48.93 45.2153 49.0566 44.9119 49.082 44.5833V39.4009C49.082 39.3503 49.082 39.325 49.082 39.2745V28.3282C49.082 27.9743 48.9553 27.6962 48.7274 27.4687C48.4741 27.2159 48.1702 27.1147 47.841 27.1147ZM46.6 39.3756C46.5747 39.9065 46.4734 40.3868 46.2708 40.8418C46.0682 41.3474 45.7643 41.7772 45.3844 42.1564C45.0045 42.5356 44.5739 42.839 44.0674 43.0412C43.5609 43.2687 43.029 43.3698 42.4719 43.3698C41.8894 43.3698 41.3575 43.2687 40.851 43.0412C40.3445 42.8137 39.9139 42.5356 39.5594 42.1564C39.2048 41.7772 38.9009 41.3474 38.6983 40.8418C38.4957 40.3362 38.369 39.8053 38.369 39.2492C38.369 38.693 38.4704 38.1621 38.6983 37.6565C38.9009 37.1509 39.2048 36.7212 39.5594 36.342C39.9139 35.9628 40.3698 35.6847 40.851 35.4572C41.3575 35.2297 41.8894 35.1285 42.4719 35.1285C43.0544 35.1285 43.5862 35.2297 44.0674 35.4572C44.5739 35.6847 45.0045 35.9628 45.3844 36.342C45.7643 36.7212 46.0428 37.1509 46.2708 37.6565C46.4734 38.1116 46.5747 38.6172 46.6 39.1228V39.3756Z" fill="white"/>
<path d="M52.9314 28.9601C52.4756 28.9349 51.9944 29.1118 51.6904 29.4657C51.4878 29.6933 51.3865 29.9713 51.3612 30.2747C51.3359 30.7297 51.5132 31.2101 51.8677 31.5134C52.0957 31.7157 52.3742 31.8168 52.6782 31.8421C53.134 31.8673 53.6152 31.6904 53.9191 31.3365C54.1217 31.1089 54.223 30.8309 54.2484 30.5275C54.2737 30.0725 54.0964 29.5921 53.7419 29.2888C53.5139 29.0865 53.2353 28.9854 52.9314 28.9601Z" fill="white"/>
<path d="M52.8049 32.7273C52.4756 32.7273 52.1717 32.8537 51.9438 33.0812C51.7158 33.3087 51.5892 33.6121 51.5892 33.9407V44.5836C51.5892 44.9376 51.7158 45.2157 51.9438 45.4432C52.1717 45.6707 52.4756 45.7971 52.8049 45.7971C53.1341 45.7971 53.438 45.6707 53.6659 45.4432C53.8939 45.2157 54.0205 44.9123 54.0458 44.5836V33.9407C54.0458 33.5868 53.9192 33.3087 53.6659 33.0812C53.438 32.8284 53.1341 32.7273 52.8049 32.7273Z" fill="white"/>
<path d="M67.9498 32.6763C67.5953 32.6763 67.3167 32.8027 67.0634 33.0302C66.8355 33.2577 66.7088 33.5611 66.7088 33.8897V33.9403C66.7088 34.0161 66.6329 34.0414 66.5822 34.0161C65.6451 33.283 64.6068 32.8532 63.4418 32.7015H63.4164C63.3405 32.7015 63.2645 32.6763 63.1885 32.6763C63.1379 32.6763 63.1125 32.6763 63.0619 32.6763C63.0112 32.6763 62.9606 32.6763 62.9099 32.6763C62.8086 32.6763 62.7073 32.6763 62.606 32.6763C62.4794 32.6763 62.3781 32.6763 62.2515 32.6763C62.2008 32.6763 62.1755 32.6763 62.1248 32.6763C62.0488 32.6763 61.9729 32.6763 61.8969 32.7015C61.8462 32.7015 61.8209 32.7015 61.7703 32.7268C61.6943 32.7268 61.6436 32.7521 61.5676 32.7521C61.517 32.7521 61.4663 32.7774 61.441 32.7774C61.365 32.7774 61.3144 32.8027 61.2384 32.8027C61.1878 32.8027 61.1371 32.8279 61.1118 32.8279C61.0611 32.8532 60.9851 32.8532 60.9345 32.8785C60.8838 32.8785 60.8332 32.9038 60.8079 32.9038C60.7572 32.9291 60.6812 32.9291 60.6306 32.9543C60.5799 32.9796 60.5293 32.9796 60.504 33.0049C60.4533 33.0302 60.3773 33.0555 60.3267 33.0807C60.276 33.106 60.2507 33.106 60.2 33.1313C60.1494 33.1566 60.0734 33.1819 60.0228 33.2071C59.9721 33.2324 59.9468 33.2324 59.8961 33.2577C59.8455 33.283 59.7695 33.3083 59.7188 33.3335C59.6682 33.3588 59.6429 33.3841 59.5922 33.3841C59.5416 33.4094 59.4656 33.46 59.4149 33.4852C59.3896 33.5105 59.339 33.5358 59.3136 33.5358C59.2377 33.5864 59.187 33.6116 59.111 33.6622C59.0857 33.6875 59.0604 33.6875 59.035 33.7127C58.8578 33.8392 58.6552 33.9656 58.4779 34.1172C58.4525 34.1425 58.4272 34.1678 58.4019 34.1678C58.3259 34.2184 58.2753 34.2689 58.1993 34.3448C58.174 34.37 58.1486 34.3953 58.098 34.4206C58.0473 34.4712 58.022 34.4964 57.9713 34.547L57.946 34.5723C57.8954 34.6228 57.87 34.6734 57.8194 34.6987C57.7687 34.7492 57.7434 34.7745 57.6928 34.8251C57.6674 34.8504 57.6674 34.8504 57.6421 34.8756C57.5155 35.0273 57.3888 35.179 57.2622 35.3307C57.2369 35.356 57.2369 35.3812 57.2116 35.4065C57.1862 35.4571 57.1356 35.5076 57.1103 35.5582C56.6797 36.2155 56.3758 36.898 56.1985 37.6564C56.1985 37.6817 56.1985 37.6817 56.1985 37.707C56.1732 37.7828 56.1732 37.8334 56.1479 37.9092C56.0972 38.1115 56.0719 38.339 56.0719 38.5412C56.0719 38.6171 56.0719 38.6676 56.0466 38.7435C56.0466 38.7688 56.0466 38.8193 56.0466 38.8446C56.0466 38.8952 56.0466 38.9457 56.0466 39.0216C56.0466 39.0721 56.0466 39.148 56.0466 39.1985C56.0466 39.2491 56.0466 39.3249 56.0466 39.3755C56.0466 39.426 56.0466 39.4766 56.0466 39.5524C56.0466 39.5777 56.0466 39.6283 56.0466 39.6536C56.0466 39.7294 56.0466 39.78 56.0719 39.8558C56.0972 40.058 56.1225 40.2856 56.1479 40.4878C56.1479 40.5636 56.1732 40.6142 56.1985 40.69C56.1985 40.7153 56.1985 40.7153 56.1985 40.7406C56.3758 41.499 56.6797 42.2069 57.1103 42.8389C57.1356 42.8894 57.1862 42.94 57.2116 42.9905C57.2369 43.0158 57.2369 43.0411 57.2622 43.0664C57.3888 43.2181 57.5155 43.3697 57.6421 43.5214C57.6421 43.5467 57.6674 43.5467 57.6928 43.572C57.7181 43.6225 57.7687 43.6478 57.8194 43.6984C57.87 43.7489 57.8954 43.7995 57.946 43.8248L57.9713 43.8501C58.022 43.9006 58.0473 43.9259 58.098 43.9765C58.1233 44.0017 58.1486 44.027 58.1993 44.0523C58.2753 44.1029 58.3259 44.1787 58.4019 44.2293C58.4272 44.2545 58.4525 44.2798 58.4779 44.2798C58.6552 44.4315 58.8324 44.5579 59.035 44.6843C59.0604 44.7096 59.0857 44.7096 59.111 44.7349C59.187 44.7854 59.2377 44.8107 59.3136 44.8613C59.339 44.8865 59.3896 44.9118 59.4149 44.9118C59.4656 44.9371 59.5416 44.9877 59.5922 45.0129C59.6429 45.0382 59.6682 45.0635 59.7188 45.0635C59.7695 45.0888 59.8455 45.1141 59.8961 45.1393C59.9468 45.1646 59.9721 45.1646 60.0228 45.1899C60.0734 45.2152 60.1494 45.2405 60.2 45.2657C60.2507 45.291 60.276 45.291 60.3267 45.3163C60.3773 45.3416 60.4533 45.3669 60.504 45.3921C60.5546 45.4174 60.6053 45.4174 60.6306 45.4427C60.6812 45.468 60.7572 45.468 60.8079 45.4933C60.8585 45.5185 60.9092 45.5185 60.9345 45.5185C60.9851 45.5438 61.0611 45.5438 61.1118 45.5691C61.1624 45.5691 61.2131 45.5944 61.2384 45.5944C61.3144 45.6197 61.365 45.6197 61.441 45.6197C61.4917 45.6197 61.5423 45.6449 61.5676 45.6449C61.6436 45.6449 61.6943 45.6702 61.7703 45.6702C61.8209 45.6702 61.8462 45.6702 61.8969 45.6955C61.9729 45.6955 62.0488 45.6955 62.1248 45.7208C62.1755 45.7208 62.2008 45.7208 62.2515 45.7208C62.3781 45.7208 62.4794 45.7208 62.606 45.7208C62.7073 45.7208 62.8086 45.7208 62.9099 45.7208C62.9606 45.7208 63.0112 45.7208 63.0619 45.7208C63.1125 45.7208 63.1379 45.7208 63.1885 45.7208C63.2645 45.7208 63.3405 45.6955 63.4164 45.6955H63.4418C64.6068 45.5438 65.6451 45.1141 66.5822 44.3809C66.6329 44.3557 66.7088 44.4062 66.7088 44.4568V44.5073C66.7088 44.836 66.8355 45.1393 67.0634 45.3669C67.2913 45.5944 67.5953 45.7208 67.9498 45.7208C68.2791 45.7208 68.583 45.5944 68.8109 45.3669C69.0388 45.1393 69.1655 44.836 69.1655 44.5073V39.148V33.7886C69.1655 33.4599 69.0388 33.1566 68.8109 32.9291C68.583 32.8027 68.2791 32.6763 67.9498 32.6763ZM66.3796 40.8417C66.1517 41.3473 65.8731 41.7771 65.4932 42.1563C65.1133 42.5355 64.6828 42.8389 64.1762 43.0411C63.6697 43.2686 63.1379 43.3697 62.5554 43.3697C61.9729 43.3697 61.441 43.2686 60.9345 43.0411C60.428 42.8136 59.9974 42.5355 59.6175 42.1563C59.2377 41.7771 58.9591 41.3473 58.7311 40.8417C58.5032 40.3361 58.4019 39.8052 58.4019 39.2491C58.4019 38.6929 58.5032 38.162 58.7311 37.6564C58.9591 37.1508 59.2377 36.7211 59.6175 36.3419C59.9974 35.9627 60.428 35.6846 60.9345 35.4571C61.441 35.2296 61.9729 35.1284 62.5554 35.1284C63.1379 35.1284 63.6697 35.2296 64.1762 35.4571C64.6828 35.6846 65.1133 35.9627 65.4932 36.3419C65.8731 36.7211 66.1517 37.1508 66.3796 37.6564C66.6075 38.162 66.7088 38.6929 66.7088 39.2491C66.7088 39.8052 66.6075 40.3361 66.3796 40.8417Z" fill="white"/>
<path d="M73.4455 42.4854C72.9896 42.4854 72.5844 42.637 72.2552 42.9657C71.9259 43.2943 71.774 43.6735 71.774 44.1538C71.774 44.6089 71.9259 45.0134 72.2552 45.342C72.5844 45.6706 72.9643 45.8223 73.4455 45.8223C73.9014 45.8223 74.3066 45.6706 74.6358 45.342C74.9651 45.0134 75.117 44.6342 75.117 44.1538C75.117 43.6988 74.9651 43.2943 74.6358 42.9657C74.3066 42.6623 73.9014 42.4854 73.4455 42.4854Z" fill="white"/>
<path d="M78.6119 28.9097C78.2067 28.9097 77.8775 29.0613 77.5989 29.3394C77.3203 29.6175 77.1683 29.9714 77.1683 30.3506C77.1683 30.7551 77.3203 31.0838 77.5989 31.3618C77.8775 31.6399 78.232 31.7916 78.6119 31.7916C79.0171 31.7916 79.3464 31.6399 79.625 31.3618C79.9035 31.0838 80.0555 30.7298 80.0555 30.3506C80.0555 29.9462 79.9035 29.6175 79.625 29.3394C79.3464 29.0613 78.9918 28.9097 78.6119 28.9097Z" fill="white"/>
<path d="M78.6121 32.7014C78.2828 32.7014 77.9789 32.8278 77.751 33.0553C77.523 33.2829 77.3964 33.5862 77.3964 33.9401V44.6083C77.3964 44.9623 77.523 45.2403 77.751 45.4931C77.9789 45.7207 78.2828 45.8471 78.6121 45.8471C78.9413 45.8471 79.2452 45.7207 79.4731 45.4931C79.7011 45.2656 79.8277 44.9623 79.853 44.6083V33.9149C79.853 33.5609 79.7264 33.2829 79.4731 33.0301C79.2199 32.8025 78.9413 32.7014 78.6121 32.7014Z" fill="white"/>
<path d="M89.7051 43.7239C89.4772 43.4964 89.1733 43.37 88.844 43.37C87.2738 43.37 86.4887 42.5863 86.4887 41.0442V35.1539H87.9576C88.2868 35.1539 88.5908 35.0275 88.8187 34.8C89.0466 34.5725 89.1733 34.2691 89.1733 33.9152C89.1733 33.5866 89.0466 33.2832 88.8187 33.0557C88.5908 32.8282 88.2868 32.7018 87.9576 32.7018H86.4887V28.303C86.4887 27.9744 86.3621 27.671 86.1341 27.4435C85.9062 27.216 85.6023 27.0896 85.273 27.0896C84.9185 27.0896 84.6399 27.216 84.3866 27.4435C84.1587 27.671 84.0321 27.9744 84.0321 28.303V32.7018H83.4749C83.1457 32.7018 82.8671 32.8282 82.6138 33.0557C82.3859 33.2832 82.2592 33.5866 82.2592 33.9152C82.2592 34.2691 82.3859 34.5472 82.6138 34.8C82.8417 35.0275 83.1457 35.1539 83.4749 35.1539H84.0321V41.0442C84.0321 44.2295 85.6276 45.8221 88.844 45.8221C89.1733 45.8221 89.4772 45.6957 89.7051 45.4682C89.933 45.2407 90.0597 44.9373 90.0597 44.5834C90.0597 44.2548 89.9584 43.9514 89.7051 43.7239Z" fill="white"/>
</svg>
