<svg width="26" height="33" viewBox="0 0 26 33" fill="none" xmlns="http://www.w3.org/2000/svg">
<path d="M14.9371 14.8355C14.9661 14.8744 15.0025 14.9075 15.0474 14.9313C15.0276 14.9848 15.0137 15.0409 15.0064 15.099C14.9886 15.235 15.0672 15.3586 15.1782 15.4372C15.1782 15.4391 15.1775 15.4411 15.1768 15.4431C15.1405 15.6961 15.1537 15.9457 15.2046 16.1875C15.122 16.3942 15.2165 16.6432 15.3968 16.7476C15.5275 17.023 15.7046 17.2799 15.9106 17.5084C15.9212 17.5428 15.9311 17.5778 15.943 17.6121C16.0084 17.801 16.0955 17.9767 16.2006 18.1372C16.1761 18.2072 16.1524 18.2779 16.1299 18.3492C16.0064 18.7349 16.5599 19.0962 16.8373 18.7785C17.0896 18.943 17.3802 19.0546 17.6992 19.1002C17.9449 19.1352 18.1926 19.1345 18.437 19.1048C18.4865 19.4165 18.9079 19.5651 19.1681 19.3353C19.538 19.0083 19.9072 18.6814 20.2771 18.3545C20.6601 18.1821 21.0161 17.9549 21.3404 17.6874C21.1819 17.9787 20.9983 18.258 20.7889 18.5209C20.5089 18.8723 20.8649 19.4826 21.3094 19.1953C22.9573 18.1312 23.9915 16.2984 24.0437 14.3368C24.0463 14.2496 24.0239 14.1743 23.9849 14.1122C23.9816 13.9108 23.8456 13.7166 23.5715 13.7041C23.1964 13.6876 22.8212 13.679 22.4467 13.6777C22.3985 13.6579 22.345 13.6479 22.2849 13.6499C20.8563 13.6922 19.4303 13.7899 18.0096 13.9465C17.8584 13.963 17.6972 13.9782 17.5314 13.9947C16.7217 13.9987 15.9119 14.0026 15.1022 14.0072C14.6101 14.0092 14.5553 14.6842 14.9371 14.8355ZM22.6838 15.3612C22.8218 15.2714 22.9625 15.1842 23.1052 15.1003C23.0418 15.4444 22.9427 15.7806 22.8112 16.1036C22.8179 16.0706 22.8245 16.0375 22.8304 16.0038C22.8727 15.7634 22.7419 15.566 22.5603 15.4946C22.6012 15.4504 22.6428 15.4061 22.6838 15.3612ZM21.594 14.8209C21.6165 14.7938 21.635 14.7661 21.6502 14.7377C21.7288 14.7305 21.8074 14.7232 21.8853 14.7166C21.7525 14.8494 21.627 14.9894 21.5088 15.1353C21.3609 15.2476 21.2149 15.3639 21.0723 15.4834C21.2387 15.2569 21.4117 15.0356 21.594 14.8209ZM19.8252 15.0765C19.8536 15.0263 19.8702 14.9755 19.8761 14.9246C20.0525 14.9095 20.2295 14.8949 20.4058 14.8797C20.0439 15.2786 19.6687 15.665 19.2764 16.0342L19.8252 15.0765ZM17.0612 15.1624C17.3366 15.1393 17.6127 15.1155 17.8881 15.0924C17.5922 15.4372 17.2719 15.7575 16.9291 16.0514C16.9264 16.0448 16.9231 16.0375 16.9205 16.0309C16.9885 15.9616 17.0539 15.8889 17.1146 15.811C17.2837 15.5977 17.2283 15.3077 17.0612 15.1624Z" fill="#EF4036"/>
<path d="M6.68261 0.531764C6.36096 0.502703 6.04855 0.566758 5.76917 0.701495C5.55518 0.524487 5.31083 0.418138 5.11005 0.572689C4.46609 1.06937 4.49119 1.82627 4.71641 2.54025C4.86568 3.01381 5.31151 3.49531 5.81677 3.54418C6.01689 3.564 6.21765 3.55011 6.41249 3.50784C6.66215 3.56794 6.92897 3.56334 7.2057 3.47549C7.38073 3.42001 7.42436 3.10298 7.42436 2.9623C7.57627 2.81502 7.70635 2.64526 7.80542 2.45637C8.17661 1.749 7.4382 0.599793 6.68261 0.531764Z" fill="#39B100"/>
<path d="M8.4569 10.736C8.16828 13.4849 8.3327 16.2622 8.94562 18.9576C9.04139 19.3784 9.79303 19.3896 10.1226 19.3678C10.3241 19.3546 11.3458 19.2469 11.2547 18.8467C10.6424 16.1513 10.4773 13.374 10.7659 10.6251C10.8267 10.0452 8.5322 10.0168 8.4569 10.736Z" fill="#39B100"/>
<path d="M9.50033 24.0439C9.74999 24.1879 10.0499 24.3048 10.3299 24.3708C10.5182 24.4151 11.3087 24.6066 11.2387 24.2149C11.108 23.4838 10.9765 22.752 10.8457 22.0209C10.8193 21.8736 10.5135 21.6985 10.4151 21.6417C10.1654 21.4977 9.86558 21.3809 9.58554 21.3148C9.3973 21.2706 8.60673 21.079 8.67674 21.4707C8.80751 22.2018 8.93896 22.9336 9.06973 23.6648C9.09615 23.8121 9.40126 23.9871 9.50033 24.0439Z" fill="#39B100"/>
<path d="M22.9661 10.294C22.4377 10.3099 21.9099 10.3542 21.3816 10.3727C19.2092 10.4473 17.037 10.5199 14.864 10.5853C14.3118 10.6018 13.759 10.588 13.0483 10.588C13.1104 11.2002 13.158 11.7174 13.2161 12.2325C13.4294 14.1208 13.9321 15.9365 14.8785 17.5791C15.2755 18.2686 15.8547 19.0315 16.5389 19.332C17.3744 19.6992 17.6552 20.0242 17.6274 20.9521C17.568 22.9441 17.6968 24.9421 17.7318 26.9374C17.747 27.7801 17.6043 27.9149 16.7602 27.8667C16.144 27.831 15.5324 27.7214 14.9168 27.6936C14.7695 27.687 14.5126 27.8521 14.4809 27.9809C14.4082 28.2748 14.6302 28.3865 14.9082 28.3766C14.9373 28.3752 14.9677 28.3693 14.9961 28.3733C16.0093 28.5225 17.0211 28.6784 18.0356 28.8184C18.3202 28.858 18.6129 28.8785 18.8988 28.8587C20.2938 28.7623 21.6345 28.1309 23.075 28.4439C23.32 28.4974 23.5644 28.3977 23.5796 28.0926C23.5948 27.7775 23.3524 27.7068 23.1034 27.7108C22.4284 27.7214 21.7541 27.7511 21.0791 27.7676C20.7713 27.7748 20.4635 27.7689 20.0923 27.7689C20.0474 27.2167 19.9793 26.7525 19.9767 26.2875C19.9694 24.8199 19.9767 23.3523 19.9952 21.8854C20.0183 20.1014 20.1022 19.935 21.4688 18.7019C21.7528 18.4463 22.0453 18.1999 22.328 17.943C22.4575 17.8254 22.6067 17.7112 22.6899 17.5632C23.8008 15.6023 24.4792 13.5469 24.075 11.2484C23.9502 10.5345 23.684 10.2716 22.9661 10.294ZM19.2878 27.3865C19.2654 27.7458 19.2476 27.7445 18.7833 28.2603C18.6393 27.8396 18.4728 27.5543 18.453 27.259C18.3361 25.5643 18.2363 23.8675 18.1716 22.1701C18.1511 21.6476 18.2661 21.1212 18.3031 20.5955C18.3374 20.1067 18.5851 19.8525 19.161 19.8082C19.2185 20.0169 19.3228 20.2269 19.3268 20.4389C19.3539 22.0802 19.3717 23.7222 19.3717 25.3641C19.3717 26.0385 19.3288 26.7135 19.2878 27.3865ZM23.4389 14.1975C23.0433 15.7912 22.4595 17.2541 21.0044 18.2343C20.2766 18.725 19.5659 19.1345 18.6617 19.081C17.0858 18.9872 15.9531 18.1834 15.2689 16.809C14.8594 15.9867 14.294 15.1855 14.4102 14.0766C17.4148 13.6744 20.3975 13.7411 23.398 13.8078C23.4178 13.9716 23.4647 14.0931 23.4389 14.1975ZM23.3881 12.8263C22.7798 12.8811 22.1477 12.9604 21.5123 12.9914C19.3743 13.0945 17.2357 13.181 15.0965 13.2715C14.8627 13.2807 14.6156 13.3157 14.3977 13.2563C14.2286 13.2094 13.9994 13.0562 13.9631 12.9095C13.8554 12.4683 13.8297 12.0073 13.7636 11.4902C14.2299 11.4235 14.5714 11.3449 14.9155 11.3304C16.9372 11.2485 18.9596 11.1758 20.982 11.115C21.4503 11.1012 21.9271 11.1005 22.3874 11.1725C23.3088 11.3171 23.5664 11.7431 23.3881 12.8263Z" class="fill-black"/>
<path d="M25.0842 26.7697C25.3656 26.6647 25.5466 26.5973 25.7275 26.5299C25.7024 26.4639 25.6767 26.3972 25.6516 26.3305C25.4125 26.3001 25.1741 26.2697 25.0842 26.7697Z" class="fill-black"/>
<path d="M10.7974 16.395C10.7043 14.6962 10.5293 13.0014 10.3588 11.308C10.2987 10.7116 9.92757 10.3087 9.39522 10.0227C8.98375 9.80143 8.59074 9.53327 8.22681 9.24002C8.06037 9.10595 7.88935 8.86422 7.88142 8.66475C7.83056 7.4039 7.80415 6.14175 7.82331 4.88024C7.82727 4.63256 8.01089 4.31752 8.21101 4.15768C8.55842 3.8783 8.64824 3.55267 8.61852 3.1511C8.57625 2.56526 8.53266 1.97943 8.48642 1.39359C8.44217 0.828881 8.15681 0.439189 7.59343 0.341438C6.78567 0.201417 5.97266 0.0706561 5.15631 0.00791097C4.18145 -0.0673832 3.70586 0.395595 3.65567 1.36253C3.63849 1.68616 3.64443 2.01313 3.59555 2.33148C3.47733 3.10225 3.69731 3.7125 4.33665 4.18606C4.50573 4.31155 4.69527 4.55199 4.69527 4.73957C4.69461 5.85181 4.82669 6.96537 4.56118 8.07761C4.41389 8.6945 4.15634 9.11784 3.59362 9.44213C1.74759 10.5042 0.770049 12.1197 0.683527 14.261C0.635972 15.434 0.526367 16.6063 0.536274 17.778C0.554767 20.0097 0.606287 22.2415 0.704037 24.4706C0.801127 26.6733 0.975501 28.872 1.10826 31.0727C1.15515 31.8514 1.50185 32.3428 2.27725 32.5191C2.93376 32.6684 3.61146 32.8104 4.27854 32.8065C5.83396 32.7965 7.38935 32.7041 8.94411 32.6308C9.63101 32.5978 10.0002 32.1083 10.197 31.5469C10.7353 30.0127 11.0233 28.4156 11.022 26.7928C11.0206 24.5902 10.9308 22.3881 10.8793 20.1854C10.8562 20.1861 10.8337 20.1861 10.8106 20.1861C10.8106 18.9219 10.8667 17.6551 10.7974 16.395ZM4.18211 2.33609C4.22967 1.02372 4.62859 0.65583 5.98191 0.676965C7.37419 0.645262 8.04258 1.29979 7.95276 2.83606C7.93492 3.14252 7.82331 3.38427 7.53138 3.41994C6.75268 3.51703 5.96209 3.65768 5.18669 3.60815C4.41261 3.55927 4.15371 3.12469 4.18211 2.33609ZM1.27866 14.364C1.69476 14.1758 2.09298 14.2597 2.48332 14.37C3.70916 14.7147 4.95285 14.8726 6.22823 14.8118C7.02476 14.7735 7.11987 14.8627 7.10072 15.6341C7.06175 17.1875 6.98121 18.7396 6.9396 20.2931C6.9178 21.1141 6.93823 21.937 6.94418 22.7586C6.95474 24.3114 6.98119 25.8642 6.97591 27.417C6.97393 28.0788 6.9006 28.1818 6.23616 28.2551C4.84124 28.409 3.47606 28.3753 2.33278 27.3674C2.09567 27.1594 1.80236 27.0148 1.50119 26.8186C1.39485 22.6946 0.680273 18.5593 1.27866 14.364ZM10.2228 28.9856C10.164 29.7286 9.86877 30.4598 9.62704 31.1791C9.48768 31.5938 9.131 31.8474 8.6865 31.8765C7.33913 31.9663 5.99046 32.0648 4.64045 32.0918C4.06055 32.1037 3.47404 31.9657 2.89612 31.8626C2.39284 31.7728 2.02298 31.4849 1.93514 30.9578C1.8004 30.1553 1.69934 29.3469 1.55866 28.3648C2.01438 28.4552 2.2918 28.4546 2.5157 28.5642C3.55859 29.0748 4.67548 29.0748 5.79234 29.0906C6.2626 29.0972 6.73414 29.1144 7.20308 29.0926C7.79222 29.0662 7.98248 28.8344 7.93889 28.2479C7.8167 26.5802 7.62644 24.9138 7.5855 23.2434C7.53992 21.3961 7.61588 19.5448 7.66805 17.6954C7.69646 16.6981 7.79752 15.7028 7.84375 14.7055C7.87678 13.9849 7.65021 13.7306 6.96662 13.903C5.35044 14.3098 3.81489 13.9235 2.27202 13.5536C1.59768 13.3918 1.47878 13.1131 1.71391 12.4579C2.17228 11.1845 3.12997 10.3615 4.29241 9.81201C5.05724 9.45073 5.30288 8.92896 5.31543 8.15356C5.33393 6.98254 5.40065 5.81217 5.44953 4.56122C5.84779 4.50178 6.2368 4.44367 6.72688 4.37102C6.79557 4.90336 6.8735 5.35844 6.90851 5.81681C6.97191 6.66618 7.06108 7.51883 7.04589 8.36886C7.03004 9.29815 7.51355 9.83842 8.2579 10.2413C8.43887 10.3391 8.63037 10.4183 8.80473 10.5266C9.27169 10.8179 9.56036 11.2195 9.71095 11.7683C10.1515 13.374 10.1937 15.0172 10.238 16.6611C10.3034 19.097 10.3899 21.5321 10.4004 23.9686C10.4084 25.641 10.3556 27.3186 10.2228 28.9856Z" class="fill-black"/>
</svg>
