<svg width="342" height="196" viewBox="0 0 342 196" fill="none" xmlns="http://www.w3.org/2000/svg">
<path d="M78.291 175.054C76.5272 171.233 74.8614 167.117 72.5097 163.59C72.1178 163.002 71.3339 163.002 70.8439 163.296C69.3741 161.532 67.1204 159.964 65.6506 159.18C64.9646 158.886 64.3767 159.18 64.0828 159.67C60.5552 159.474 57.0276 159.18 53.4021 159.18C53.3041 159.082 53.3041 159.082 53.2061 158.984C51.4423 157.319 49.7766 155.653 47.1309 156.339C45.2691 156.829 43.4073 158.2 41.8395 159.572C38.8999 159.866 36.0583 160.356 33.2166 161.14C31.0609 161.728 27.0434 162.414 26.0635 164.962C25.7695 165.06 25.5736 165.158 25.3776 165.452L17.7346 177.896C17.4406 178.386 17.6366 179.17 18.1265 179.464C30.8649 187.107 45.6611 192.496 60.6532 189.459C66.9244 188.185 73.1956 185.441 77.899 180.934C80.1528 178.876 79.5648 177.798 78.291 175.054ZM66.0425 162.12C67.5123 163.002 69.2761 164.374 69.4721 165.648C69.962 168.587 65.7486 168.881 64.0828 169.175C63.6908 169.273 63.3969 169.273 63.0049 169.371C63.2009 168.979 63.1029 168.587 62.7109 168.195C60.3592 165.942 58.1055 163.688 55.7538 161.532C59.2814 161.63 62.6129 161.826 66.0425 162.12ZM38.41 167.215C38.508 167.215 38.508 167.215 38.41 167.215C38.8999 166.823 39.4878 166.431 39.9778 166.039C39.7818 166.235 39.6838 166.529 39.4878 166.725C39.3898 166.921 39.2919 167.117 39.2919 167.313C39.0959 167.313 38.8999 167.215 38.7039 167.215C38.6059 167.215 38.508 167.215 38.41 167.215ZM49.7766 162.512C49.3846 162.806 48.9926 163.198 48.6987 163.492C49.2866 162.806 49.7766 162.12 50.3645 161.336C50.5605 161.336 50.7564 161.336 50.8544 161.336C50.4625 161.826 50.0705 162.12 49.7766 162.512ZM37.6261 169.273C37.7241 169.273 37.92 169.371 38.116 169.469C38.6059 169.567 39.0959 169.665 39.5858 169.861C38.8999 169.763 38.214 169.665 37.5281 169.469C37.6261 169.371 37.6261 169.371 37.6261 169.273ZM59.6733 169.665C59.9673 169.371 60.0653 169.077 60.0653 168.685C60.4572 169.077 60.7512 169.371 61.1431 169.763C60.4572 169.861 59.8693 169.959 59.1834 170.057C59.2814 169.861 59.4773 169.763 59.6733 169.665ZM30.081 164.57C30.9629 163.688 34.0985 163.296 35.2744 163.002C36.5482 162.708 37.822 162.512 39.0959 162.218C38.116 163.198 37.3321 164.276 36.6462 165.55C36.4502 165.746 36.2542 165.941 36.0583 166.137C35.6663 166.529 35.6663 166.921 35.8623 167.313C35.6663 167.705 35.5683 168.195 35.4703 168.685C35.4703 168.783 35.4703 168.881 35.4703 168.979C34.5884 168.783 33.7066 168.587 32.7267 168.293C30.9629 167.901 27.2394 167.509 30.081 164.57ZM76.3312 179.366C75.7433 180.542 73.8815 181.424 72.9017 182.109C67.8063 185.539 61.829 187.401 55.7538 187.989C43.2114 189.165 31.0609 184.461 20.3802 178.19C22.438 174.76 24.5937 171.429 26.6514 167.999C27.8273 169.469 30.375 170.155 32.0408 170.645C42.2315 173.389 53.0101 173.781 63.2989 171.723C65.8465 171.233 71.3339 170.841 72.1178 167.705C72.9997 169.469 73.7836 171.233 74.6654 172.997C75.6453 174.76 77.4091 177.112 76.3312 179.366Z" fill="#251C1C"/>
<path d="M30.0806 171.036C28.3168 170.546 26.1611 171.134 24.9852 172.604C23.8094 173.976 23.5154 176.132 24.3973 177.7C25.3772 179.267 27.043 180.051 28.7088 179.561C29.0027 179.561 29.1987 179.463 29.4927 179.267C30.2766 178.875 30.0806 177.798 29.3947 177.308C29.1007 177.112 28.5128 177.112 28.2188 177.308C27.3369 177.7 26.357 176.818 26.1611 176.034C25.9651 175.348 26.2591 174.466 26.749 173.976C27.2389 173.486 28.0228 173.192 28.7088 173.192C29.0027 173.192 30.5705 173.584 30.3745 174.074C29.8846 175.446 32.1383 176.034 32.6283 174.662C33.3142 172.898 31.6484 171.428 30.0806 171.036Z" fill="#251C1C"/>
<path d="M37.5264 176.427C38.8982 177.014 39.9761 175.055 38.7022 174.467C37.9183 174.075 37.1344 173.781 36.3505 173.389C35.7626 173.193 35.0767 173.193 34.7827 173.781C34.1948 174.957 33.6069 176.133 33.1169 177.308C32.725 178.288 32.0391 179.268 31.7451 180.248C31.3531 182.208 33.9008 182.502 35.2727 182.992C36.6445 183.482 37.2324 181.228 35.8606 180.738C35.2727 180.542 34.6847 180.444 34.1948 180.15C34.3908 179.856 34.5867 179.366 34.5867 179.366C34.6847 179.17 34.7827 179.072 34.7827 178.876C35.3706 179.17 36.0566 179.464 36.7425 179.66C37.3304 179.856 38.0163 179.464 38.1143 178.876C38.3103 178.288 37.9183 177.602 37.3304 177.504C36.7425 177.308 36.2525 177.112 35.7626 176.819C35.9586 176.427 36.1545 176.133 36.2525 175.741C36.7425 176.035 37.1344 176.231 37.5264 176.427Z" fill="#251C1C"/>
<path d="M70.1569 173.682C71.3327 172.899 70.3528 170.841 69.177 171.625C68.4911 172.115 67.7072 172.605 67.0213 173.094C66.5313 173.388 66.1394 174.074 66.5313 174.662C67.2172 175.838 67.9031 176.916 68.5891 177.994C69.177 178.876 69.6669 179.954 70.3528 180.738C71.8227 182.207 73.3905 180.248 74.5663 179.268C75.7422 178.386 74.1744 176.622 73.0965 177.602C72.6066 177.994 72.2146 178.386 71.7247 178.778C71.5287 178.484 71.3327 177.994 71.3327 177.994C71.2347 177.798 71.1367 177.7 71.0388 177.504C71.6267 177.21 72.2146 176.72 72.8025 176.328C73.2925 175.936 73.2925 175.152 72.9005 174.76C72.5086 174.27 71.7247 174.27 71.3327 174.662C70.8428 175.054 70.4508 175.348 69.8629 175.642C69.6669 175.25 69.471 174.956 69.275 174.564C69.373 174.172 69.7649 173.878 70.1569 173.682Z" fill="#251C1C"/>
<path d="M47.8157 175.74C45.9539 173.78 42.0344 173.682 40.8586 176.524C40.2706 177.896 40.9565 179.268 42.0344 180.15C42.5243 180.542 43.8962 181.031 43.9942 181.717C44.0921 182.991 41.5445 182.403 41.0545 181.717C40.1726 180.542 38.2129 181.717 39.0948 182.893C40.6626 185.049 45.072 185.833 46.1499 182.795C46.5418 181.521 46.1499 180.248 45.072 179.464C44.3861 178.876 42.0344 178.092 43.4062 176.916C44.1901 176.23 45.464 176.72 46.1499 177.406C47.3257 178.484 48.8935 176.818 47.8157 175.74Z" fill="#251C1C"/>
<path d="M58.3007 183.775C57.8108 182.109 57.1248 180.541 56.145 179.071C55.4591 177.994 54.3812 176.23 53.1074 175.74C51.5395 175.152 51.0496 176.72 50.6577 177.896C49.9717 179.855 49.2858 181.815 48.6979 183.775C48.208 185.147 50.4617 185.735 50.9516 184.363L51.4416 182.795C52.7154 182.795 53.9892 182.795 55.2631 182.697C55.3611 182.697 55.4591 182.697 55.557 182.599C55.753 183.187 55.949 183.677 56.145 184.265C56.4389 185.735 58.6927 185.147 58.3007 183.775ZM52.8134 178.386C53.1073 178.68 53.4013 179.169 53.4993 179.267C53.7933 179.659 54.0872 180.051 54.3812 180.443C53.6953 180.443 52.9114 180.541 52.2255 180.541C52.3234 179.855 52.5194 179.071 52.8134 178.386Z" fill="#251C1C"/>
<path d="M67.3157 179.954C65.8459 179.758 64.2781 179.562 62.8083 179.464C63.2982 178.876 63.6902 178.092 63.6902 177.21C63.6902 175.447 62.3184 174.271 60.6526 174.271C59.0848 174.271 56.929 175.251 57.125 177.014C57.419 179.464 59.0848 182.11 59.9667 184.265C60.5546 185.637 62.5143 184.461 61.9264 183.09C61.7304 182.502 61.4365 182.012 61.2405 181.424C63.2982 181.62 65.356 181.914 67.3157 182.11C68.7856 182.404 68.7856 180.052 67.3157 179.954ZM61.3385 177.21C61.4365 177.896 60.7506 178.484 60.0647 178.876C59.9667 178.68 59.8687 178.386 59.7707 178.19C59.6727 177.896 59.4767 177.504 59.3787 177.21C59.7707 176.328 60.3586 176.426 61.3385 177.21Z" fill="#251C1C"/>
<path d="M95.4383 183.089C94.8504 182.697 94.3605 182.893 93.9685 183.285C93.1846 183.579 92.0088 183.481 91.3228 183.579C90.049 183.775 88.7752 183.873 87.5013 184.069C85.1496 184.363 82.6999 184.657 80.3482 184.951C78.8784 185.147 78.8784 187.4 80.3482 187.204C83.2878 186.812 86.2275 186.42 89.1671 186.127C91.0289 185.931 93.8705 186.127 95.5363 185.147C96.2222 184.559 96.1242 183.579 95.4383 183.089Z" fill="#251C1C"/>
<path d="M8.91561 178.582C6.66189 178.876 4.31018 179.072 2.05646 179.366C0.586647 179.562 0.586647 181.815 2.05646 181.619C4.31018 181.326 6.66189 181.13 8.91561 180.836C10.3854 180.738 10.3854 178.484 8.91561 178.582Z" fill="#251C1C"/>
<path d="M26.749 193.28C25.5731 193.182 24.3973 193.28 23.1235 193.476C22.5355 193.574 22.1436 194.358 22.3396 194.848C22.5355 195.534 23.1235 195.73 23.7114 195.632C24.6913 195.436 25.6711 195.436 26.651 195.534C28.2188 195.632 28.2188 193.378 26.749 193.28Z" fill="#251C1C"/>
<path d="M85.6386 159.964C84.7567 159.474 83.7768 159.278 82.7969 159.18C82.209 159.18 81.6211 159.768 81.6211 160.356C81.6211 161.042 82.111 161.434 82.7969 161.532C83.3849 161.532 83.9728 161.728 84.4627 162.022C85.0507 162.316 85.7366 162.12 86.0305 161.63C86.3245 160.944 86.1285 160.16 85.6386 159.964Z" fill="#251C1C"/>
<path d="M50.7548 159.964C49.285 160.454 48.1092 161.336 47.2273 162.61C46.7374 163.198 47.1293 163.884 47.7172 164.177C47.7172 164.373 47.6192 164.569 47.6192 164.765C47.5213 165.353 48.2072 165.941 48.7951 165.941C49.481 165.941 49.873 165.451 49.9709 164.765C50.0689 164.177 50.3629 163.59 50.7548 163.1C50.9508 162.806 51.0488 162.512 51.0488 162.316C51.1468 162.218 51.2448 162.218 51.4408 162.12C52.7146 161.63 52.1267 159.474 50.7548 159.964Z" fill="#251C1C"/>
<path d="M61.8273 168.979C61.3374 167.901 61.0434 167.803 59.9655 167.411C59.2796 167.117 58.6917 167.705 58.5937 168.391C52.3225 168.293 46.2472 169.469 39.976 168.881C39.976 168.783 39.976 168.783 39.976 168.685C40.368 168.391 40.6619 167.999 41.0539 167.411C41.2499 167.117 41.2499 166.823 41.1519 166.529C41.6418 166.039 42.2297 165.745 42.9157 165.451C44.2875 164.864 43.1116 162.904 41.7398 163.492C39.78 164.374 38.6042 165.451 37.6243 167.313C37.5263 167.411 37.4283 167.607 37.4283 167.705C37.4283 167.705 37.4283 167.705 37.4283 167.803V167.901C37.4283 167.901 37.4283 167.901 37.4283 167.999C37.4283 168.097 37.4283 168.195 37.4283 168.195C37.4283 168.391 37.4283 168.685 37.5263 168.881C37.4283 168.979 37.3304 169.077 37.2324 169.273C36.8404 169.861 37.2324 170.841 37.9183 170.939C45.3654 172.017 52.5185 170.351 59.9655 170.743C60.4555 171.233 61.1414 171.135 61.6313 170.743C61.8273 170.449 62.1213 169.567 61.8273 168.979Z" fill="#251C1C"/>
<path d="M135.124 145.658C99.5546 146.05 63.9851 147.128 28.5135 149.088C27.2396 149.186 27.2396 151.146 28.5135 151.048C63.9851 149.088 99.5546 147.912 135.124 147.618C136.398 147.618 136.398 145.658 135.124 145.658Z" fill="#251C1C"/>
<path d="M325.711 144.482C310.131 144.678 294.551 145.168 278.97 146.05C278.383 146.05 278.383 146.932 278.97 146.932C294.551 146.05 310.131 145.56 325.711 145.364C326.201 145.364 326.201 144.482 325.711 144.482Z" fill="#251C1C"/>
<path d="M257.314 176.621C241.734 176.817 226.154 177.307 210.574 178.189C209.986 178.189 209.986 179.071 210.574 179.071C226.154 178.189 241.734 177.699 257.314 177.503C257.902 177.503 257.902 176.621 257.314 176.621Z" fill="#251C1C"/>
<path d="M340.409 7.39722C338.351 2.59582 332.472 0.636062 327.965 0.440087C314.246 -0.343816 304.741 11.7087 299.45 23.7612C295.433 32.972 293.179 42.8688 288.671 51.7857C285.046 59.0368 280.146 65.504 274.463 71.0893C274.463 71.0893 274.365 71.0893 274.365 70.9913C262.313 63.3482 248.202 61.4865 234.484 60.2126C227.625 59.6247 220.766 59.2327 214.005 59.7227C208.419 60.1146 201.658 60.8985 196.563 63.7402C196.563 63.3482 196.367 62.9563 196.171 62.6623C194.799 54.7253 192.251 46.2984 187.45 40.0271C187.45 39.8312 187.45 39.6352 187.254 39.4392C184.51 34.0499 180.591 29.9344 175.594 26.7988C174.908 26.4068 174.026 26.8968 173.83 27.6807C173.144 31.4042 172.36 36.1076 170.4 39.4392C168.049 43.3587 163.933 42.6728 160.112 43.5547C153.84 45.1225 149.333 48.6501 143.846 51.8837C140.416 53.9414 138.946 53.5495 135.615 51.3937C134.635 50.8058 134.243 50.1199 133.165 49.8259C131.793 49.434 130.421 49.532 129.343 50.6098C128.07 51.9817 128.363 54.1374 128.265 55.9012C128.168 60.4086 128.265 64.916 128.461 69.4235C128.461 69.7174 128.657 69.9134 128.951 70.0114C128.265 80.79 133.851 93.8224 142.572 100.682C142.082 103.229 143.062 105.777 144.825 107.639C145.903 108.717 147.177 109.5 148.647 110.088C148.255 117.242 150.019 124.493 151.489 131.45C153.154 138.995 154.134 146.736 155.702 154.281C153.35 154.379 151.195 155.849 151.489 159.082C151.979 164.57 159.524 165.549 163.247 163.492C168.44 160.65 172.262 151.341 174.418 145.952C177.063 139.387 179.121 131.744 178.729 124.493C180.493 125.179 182.355 125.57 184.119 125.962C184.314 132.724 185.392 139.485 186.47 146.148C187.548 152.223 188.92 158.298 193.819 162.12C194.113 162.414 194.603 162.218 194.799 161.924C196.269 162.512 198.131 162.708 199.405 162.708C201.266 162.708 203.52 161.238 204.5 159.572C205.578 157.808 205.382 155.555 203.814 154.183C203.03 153.497 202.05 153.203 201.07 153.105C204.598 148.304 206.754 142.13 208.615 136.447C209.791 133.018 210.575 129.588 211.261 126.158C216.258 127.432 221.452 127.334 226.449 126.648C227.527 127.726 228.899 128.51 230.271 129.098C229.683 132.626 229.781 136.251 229.683 139.877C229.487 144.58 228.997 146.54 228.899 151.243C227.821 151.047 226.743 151.243 225.861 152.321C224.587 153.791 224.783 155.849 226.057 157.318C230.075 161.826 235.366 158.788 238.502 154.869C242.715 166.039 256.335 154.673 260.451 150.361C274.855 135.271 283.184 113.812 280.44 92.2546C280.44 92.0586 280.342 91.8627 280.245 91.7647C280.147 90.6868 279.951 89.7069 279.755 88.6291C279.559 87.2572 279.265 85.9834 278.775 84.8075C289.651 80.6921 296.216 68.3456 301.998 58.3509C306.113 51.0998 310.229 43.7507 315.324 37.2835C320.615 30.5223 327.181 25.329 333.648 20.0376C337.077 16.902 342.957 13.2765 340.409 7.39722ZM238.11 152.419C236.738 154.183 235.17 155.947 233.014 156.731C232.035 157.123 230.859 157.416 229.683 157.318C229.389 157.318 229.193 157.318 228.899 157.318C228.311 157.318 227.723 157.123 227.135 156.731C227.037 156.731 227.037 156.633 226.939 156.633C226.939 156.633 226.939 156.633 226.939 156.535C226.743 156.437 226.547 156.241 226.449 156.045C225.665 155.065 225.861 153.791 226.743 153.007C227.625 152.223 229.193 151.831 230.565 152.125C230.271 151.929 229.977 151.733 229.585 151.537C229.683 151.439 229.683 151.341 229.781 151.243C230.663 146.834 230.957 144.972 231.055 140.367C231.251 140.367 231.349 140.367 231.545 140.367C233.112 139.975 236.64 138.309 235.758 136.055C235.464 135.173 234.484 134.781 233.602 134.781C232.818 134.781 231.839 134.977 231.055 135.271C231.055 133.311 230.957 131.352 230.859 129.49C235.072 130.96 240.07 130.96 244.087 130.666C243.597 133.899 242.911 137.133 242.323 140.269C242.323 140.269 242.225 140.269 242.225 140.367C241.833 140.955 241.735 141.64 241.931 142.228C241.343 145.266 240.853 148.206 240.461 151.243C239.188 151.439 237.718 150.361 238.11 152.419ZM335.51 15.6282C333.844 17.098 332.08 18.4698 330.316 19.9397C327.279 22.3893 324.241 24.839 321.301 27.4847C315.716 32.5801 311.111 38.6553 306.995 45.1225C302.782 51.7857 299.058 58.8408 294.747 65.504C290.239 72.5591 284.85 80.1041 277.011 82.7498C277.011 83.0438 277.109 83.3377 277.109 83.6317C277.697 85.8854 277.893 88.1391 278.089 90.4908C278.285 92.5486 278.481 94.6063 278.383 96.5661C278.677 100.192 278.579 103.817 278.187 107.443C277.697 107.933 277.207 108.521 276.717 109.011C275.835 109.794 274.855 110.48 273.875 110.97C273.385 111.166 273.679 112.048 274.169 111.754C275.345 111.264 276.423 110.774 277.501 110.088C277.697 109.99 277.795 109.892 277.991 109.794C277.991 110.088 277.893 110.382 277.893 110.676C277.697 110.676 277.501 110.774 277.305 110.97C276.717 111.558 276.325 112.048 275.737 112.44C275.051 112.832 275.639 113.91 276.325 113.714C276.717 113.616 277.109 113.42 277.501 113.224C276.325 119.005 274.463 124.689 271.916 130.078C269.074 135.957 265.546 141.346 261.333 146.148C259.373 148.402 257.315 150.557 255.062 152.517C253.494 153.889 251.828 155.163 249.966 156.143C248.692 156.927 247.321 157.416 245.851 157.514C244.871 157.808 244.185 157.808 243.695 157.71C242.127 157.71 240.559 157.123 240.07 155.555C240.07 155.457 239.972 155.359 239.972 155.163C239.874 154.869 239.874 154.673 239.874 154.379C239.874 153.987 239.972 153.693 240.07 153.399C240.168 153.399 240.168 153.301 240.265 153.301C241.049 152.615 241.637 152.517 242.715 152.811C243.597 153.007 244.185 153.105 245.067 153.105C245.165 153.105 245.263 152.909 245.165 152.909C244.381 152.223 243.597 151.635 242.617 151.341C243.401 148.696 243.989 145.952 244.479 143.306C245.361 143.306 246.243 143.11 246.929 143.11C248.496 142.914 250.358 142.718 251.73 142.032C253.788 140.955 254.768 138.015 252.71 136.251C251.044 134.781 248.105 134.781 245.851 135.369C246.145 133.507 246.439 131.548 246.733 129.686C246.831 129 246.341 128.314 245.753 128.412C244.087 128.608 242.225 128.706 240.363 128.608C242.519 127.334 244.773 125.276 242.421 123.219C241.147 122.141 239.678 123.023 238.502 123.807C236.64 124.983 234.778 126.158 233.112 127.628C232.035 127.334 230.957 126.942 229.977 126.452C223.804 123.415 223.412 114.008 224.196 107.639C224.196 107.639 224.098 107.541 224.098 107.639C223.706 109.794 223.314 112.244 223.118 114.694C221.942 112.342 221.648 109.892 222.432 107.149C222.432 107.051 222.236 106.953 222.236 107.051C221.158 110.088 221.256 113.616 222.628 116.556C222.726 116.752 222.922 116.85 223.02 116.85C223.02 119.887 223.608 122.827 225.371 125.179C220.668 125.766 216.063 125.57 211.359 125.374C211.751 122.827 212.045 120.377 212.143 117.731C212.143 117.242 211.261 117.144 211.261 117.633C210.869 122.141 209.889 126.55 208.517 130.764C207.244 130.764 205.578 130.96 204.794 132.038C203.618 133.605 205.382 134.977 206.362 135.957C206.46 136.055 206.558 136.153 206.656 136.153C206.068 137.525 205.578 138.897 204.99 140.269C204.206 139.877 203.226 139.975 202.638 140.759C201.854 141.738 202.246 143.502 203.324 144.09C202.05 146.736 200.776 149.479 199.503 152.125C199.405 152.419 199.405 152.713 199.503 153.007C198.621 153.105 197.739 153.399 196.955 153.693C196.563 153.889 196.661 154.575 197.151 154.575C198.523 154.477 200.091 154.379 201.462 154.771C204.5 155.555 204.304 158.788 201.854 160.258C199.601 161.532 196.367 160.552 194.211 159.572C194.015 159.474 193.819 159.474 193.623 159.572C190.684 155.065 189.508 149.773 188.626 144.482C189.9 144.188 191.762 142.816 191.37 141.249C191.174 140.465 190.586 139.975 189.802 139.681C189.214 139.387 188.43 139.093 187.744 138.995C187.646 138.113 187.45 137.133 187.352 136.251C187.45 136.251 187.45 136.349 187.548 136.349C189.312 137.329 191.86 136.839 193.035 135.075C194.309 133.116 192.839 131.156 191.272 129.98C189.802 128.902 188.038 128.314 186.274 128.412C185.784 125.081 185.294 121.749 184.51 118.515C184.51 118.417 184.412 118.417 184.412 118.515C184.314 120.181 184.216 121.945 184.216 123.611C178.533 122.631 173.144 120.573 167.559 118.319C167.363 118.221 167.167 118.515 167.363 118.711C168.636 119.495 169.812 120.279 171.184 121.063C170.4 121.259 169.616 121.259 168.832 121.161C167.853 121.063 166.971 120.475 165.893 120.377C165.697 120.377 165.501 120.573 165.599 120.769C166.873 122.827 170.4 122.729 172.36 122.141C172.458 122.141 172.556 122.043 172.654 121.945C174.026 122.631 175.398 123.317 176.769 123.905C176.475 125.962 176.279 127.922 175.986 129.882C175.202 129.686 174.418 129.784 173.634 130.274C172.85 130.764 172.262 131.744 172.164 132.724C171.968 134.683 173.438 135.663 175.006 136.251C174.81 137.231 174.614 138.113 174.418 139.093C173.732 138.701 172.948 138.603 172.262 138.701C171.772 138.701 171.282 139.093 171.282 139.583C170.988 141.151 171.87 142.62 173.242 143.208C172.85 144.384 172.458 145.462 171.968 146.638C170.4 150.459 168.342 154.085 165.991 157.514C164.423 159.768 163.051 161.924 159.818 162.414C158.838 162.61 158.054 162.61 157.466 162.414C155.604 162.218 153.84 161.336 153.546 159.376C153.056 155.261 157.27 155.163 160.014 156.045C160.014 155.849 159.916 155.653 159.72 155.555C159.034 155.163 158.25 154.869 157.466 154.673C157.564 154.575 157.564 154.379 157.564 154.183C157.662 149.871 156.878 145.364 155.898 140.955C156.29 140.955 156.682 140.759 157.074 140.563C157.76 140.269 158.544 139.975 159.034 139.387C160.993 136.937 155.8 134.095 154.036 133.116C154.036 132.92 153.938 132.724 153.938 132.528C153.546 130.96 153.252 129.392 152.958 127.824C154.232 128.02 155.702 128.02 156.976 127.628C158.348 127.236 158.838 125.668 158.054 124.395C156.78 122.337 154.134 120.965 151.783 121.357C151.097 117.731 150.509 114.106 149.823 110.48C151.685 111.068 153.742 111.264 155.604 111.264C156.976 111.264 157.172 108.913 155.8 108.717C153.056 108.423 150.215 108.325 147.667 106.855C145.805 105.777 144.335 103.817 143.944 101.661C145.903 102.935 147.863 104.013 150.117 104.601C151.293 104.993 151.685 103.229 150.803 102.543C145.609 98.8198 140.906 95.8802 137.084 90.5888C137.966 89.511 138.75 88.4331 139.632 87.2572C140.22 86.3754 140.612 85.1995 139.73 84.4156C138.162 83.1418 135.321 83.7297 133.557 84.3176C132.969 83.0438 132.479 81.7699 131.989 80.4961C132.185 80.5941 132.381 80.6921 132.577 80.79C133.459 80.986 134.243 80.4961 135.027 80.1041C135.811 79.7122 136.692 79.1243 137.378 78.4383C138.554 77.1645 138.26 75.2047 136.692 74.5188C135.909 74.1269 134.831 74.1269 133.949 74.0289C133.361 73.9309 132.871 73.9309 132.283 73.8329C131.989 73.8329 131.793 73.8329 131.499 73.8329C131.107 73.8329 131.009 73.8329 131.107 73.9309C130.813 73.8329 130.519 73.9309 130.225 74.1269C129.931 72.6571 129.637 71.1872 129.539 69.6194C129.637 69.5215 129.637 69.4235 129.735 69.3255C129.931 66.4838 129.931 63.3482 130.225 60.4086C130.127 60.3106 130.127 60.2126 130.127 60.1146C130.029 58.1549 130.029 56.0971 130.127 54.1374C130.127 53.2555 130.225 52.0796 131.009 51.6877C132.479 50.9038 134.537 52.9615 135.615 53.9414C135.713 54.0394 135.713 54.1374 135.713 54.1374C136.594 54.5293 137.28 55.3132 138.26 55.5092C143.552 56.7831 148.353 51.2957 152.664 49.042C156.094 47.1803 159.916 45.9064 163.737 45.3185C165.893 45.0245 168.832 45.4165 170.694 43.8487C173.928 41.301 175.3 34.4418 176.084 29.8364C180.101 32.4821 183.237 36.1076 185.49 40.6151C185.784 41.301 186.372 41.301 186.862 41.007C187.45 42.5748 188.136 44.1426 188.724 45.7104C188.626 45.7104 188.43 45.7104 188.332 45.7104C187.45 46.2004 186.666 47.0823 185.98 47.8662C185.294 48.5521 184.706 49.238 184.51 50.1199C184.412 50.7078 184.804 51.3937 185.294 51.4917C186.274 51.6877 187.254 51.6877 188.234 51.6877C189.018 51.6877 190.096 51.5897 190.782 51.1978C190.978 51.7857 191.174 52.4716 191.37 53.0595C189.9 54.0394 188.724 55.6072 188.038 57.273C187.646 58.1549 187.254 59.3307 187.94 60.1146C188.626 60.9965 190.096 60.6046 190.978 60.4086C191.762 60.2126 192.545 59.8207 193.231 59.2327C193.623 60.8985 194.015 62.5643 194.309 64.3281C194.309 64.5241 194.407 64.6221 194.407 64.7201C194.407 64.818 194.407 64.916 194.505 65.112C194.505 65.21 194.505 65.21 194.505 65.308C194.505 65.504 194.505 65.6999 194.603 65.8959C194.701 66.5818 194.995 67.2677 194.995 68.0516C194.995 68.7376 194.995 69.5215 194.995 70.2074C194.995 70.4034 195.387 70.5013 195.387 70.2074C195.485 69.4235 195.583 68.6396 195.779 67.8557C195.975 66.9738 196.367 66.1899 196.563 65.308V65.21C199.895 64.6221 203.226 63.7402 206.558 62.9563C210.575 71.6772 208.615 82.0639 207.244 91.1768C207.146 91.9607 207.636 92.5486 208.321 92.5486C213.613 92.4506 216.846 84.0237 218.218 79.5162C219.59 75.0088 221.06 65.21 216.748 61.5845C219.688 61.4865 222.628 61.5844 225.567 61.6824C226.351 71.0893 226.743 80.7901 222.628 89.511C222.334 90.1969 222.628 91.2747 223.51 91.3727C228.703 92.0586 231.937 84.7096 233.504 80.3981C235.072 76.0866 237.522 67.0718 235.072 62.5643C235.072 62.5643 235.072 62.4663 234.974 62.4663C235.268 62.4663 235.562 62.5643 235.856 62.5643C238.404 62.8583 240.951 63.0543 243.401 63.4462C243.303 63.6422 243.303 63.7402 243.303 64.0341C244.577 70.6973 243.303 76.8705 241.637 83.2397C241.049 85.4935 238.6 90.2949 240.657 92.2546C245.067 96.4681 251.24 79.1243 252.22 76.4786C253.298 73.245 254.082 68.1496 252.612 65.112C254.572 65.504 256.629 66.0919 258.589 66.5818C258.001 71.1872 257.119 75.7927 255.748 80.3001C254.964 82.8478 252.122 87.0613 253.102 89.8049C253.298 90.4908 253.886 90.7848 254.474 90.7848C260.157 91.0788 263.195 80.3981 264.566 76.1846C265.35 73.7349 266.232 71.1872 265.938 69.3255C268.29 70.3054 270.544 71.4812 272.699 72.7551C272.405 73.049 272.112 73.343 271.72 73.6369C271.622 73.7349 271.622 73.8329 271.622 73.8329C273.189 72.951 274.561 71.7752 276.129 70.7953C276.521 70.5993 276.815 70.4034 277.207 70.2074C287.104 60.4086 292.591 47.9641 297.392 34.2459C297.588 33.56 297.882 32.874 298.176 32.1881C299.254 32.5801 300.528 32.776 301.704 32.972C302.978 33.168 304.741 32.972 305.427 31.6002C306.799 28.9545 302.586 27.5827 299.744 27.9746C300.234 26.7008 300.724 25.525 301.312 24.2511C302.292 25.329 304.251 25.7209 305.427 25.8189C306.995 26.0149 309.641 26.2109 310.425 24.3491C311.405 22.1934 308.955 21.3115 307.387 20.9195C306.113 20.6256 304.349 20.2336 302.978 20.6256C304.937 16.804 307.191 13.2765 310.131 10.1409C316.402 3.5757 326.691 -0.539791 335.02 4.26161C339.527 7.10325 339.625 12.0026 335.51 15.6282Z" fill="#251C1C"/>
<path d="M180.296 38.3614C179.61 37.4795 178.924 36.6956 178.14 36.0097C177.552 35.5197 176.572 35.7157 176.376 36.5976C176.082 38.6553 175.396 41.007 175.69 43.0648C175.788 43.6527 176.376 43.7507 176.67 43.2608C176.768 43.1628 176.768 43.0648 176.768 42.9668C176.866 42.9668 176.964 42.9668 177.062 42.9668C178.434 42.6728 181.373 42.8688 181.471 40.7131C181.471 39.8312 180.785 39.0473 180.296 38.3614Z" fill="#251C1C"/>
<path d="M133.948 55.9985C133.165 55.0186 131.793 55.5085 131.793 56.7824C131.695 58.8401 131.597 60.7999 131.499 62.8576C131.499 63.1516 131.597 63.4456 131.695 63.6415C131.401 64.2295 132.087 65.1113 132.675 64.6214C133.361 64.0335 133.948 63.2496 134.634 62.4657C135.124 61.8778 135.908 61.1918 136.202 60.4079C136.79 58.9381 134.732 57.0764 133.948 55.9985Z" fill="#251C1C"/>
<path d="M192.838 76.5764C192.74 75.8905 191.761 75.4985 191.467 76.2824C190.487 78.9281 190.193 81.6718 188.723 84.1214C187.253 86.5711 184.999 88.2369 182.452 89.2168C183.334 88.1389 184.216 87.0611 184.901 85.8852C185.391 85.0033 184.216 84.2194 183.53 84.9053C178.336 90.4907 173.535 95.292 166.284 97.8397C165.794 98.0357 166.088 98.8196 166.578 98.6236C171.673 97.1538 176.964 94.6061 180.982 90.7846C187.547 90.9806 194.014 83.6315 192.838 76.5764Z" fill="#251C1C"/>
<path d="M276.717 89.1185C276.521 88.3346 275.737 87.8447 274.953 88.0407C274.659 88.1386 274.365 88.4326 274.365 88.8246V88.9225C274.169 89.2165 274.071 89.6085 274.169 90.0004C274.365 90.6863 275.051 91.0783 275.639 90.8823C276.423 90.6863 277.011 89.9024 276.717 89.1185Z" fill="#251C1C"/>
<path d="M146.98 78.8306C149.43 78.3406 151.879 77.9487 154.329 77.4587C154.329 77.5567 154.329 77.7527 154.329 77.8507C154.329 78.8306 154.819 79.5165 155.407 80.0064C153.153 81.0843 150.899 82.3581 148.744 83.534C148.548 83.632 148.744 83.8279 148.842 83.8279C151.291 82.6521 153.741 81.5742 156.191 80.4964C157.465 81.0843 159.228 81.2803 160.502 81.2803C161.874 81.2803 163.148 81.0843 164.324 80.5944C164.618 82.2601 165.695 83.24 167.753 83.142C169.811 82.9461 171.477 81.3783 171.379 79.3205C175.2 79.6145 179.512 77.6547 178.924 73.9312C181.374 73.7352 183.921 73.7352 186.371 73.4412C186.567 73.4412 186.567 73.0493 186.371 73.0493C183.823 72.9513 181.374 73.2453 178.924 73.6372V73.5392C178.63 72.1674 177.258 71.2855 175.788 70.7956C178.434 69.4238 181.178 68.5419 184.117 67.9539C184.509 67.8559 184.313 67.366 184.019 67.366C180.688 67.8559 177.65 68.9338 174.808 70.5016C173.828 70.3056 172.751 70.2077 171.967 70.2077C170.889 70.2077 169.909 70.4036 169.027 70.7956C169.223 69.4238 169.125 68.1499 168.243 67.17C167.851 66.6801 167.067 66.8761 166.773 67.268C166.087 68.2479 165.695 69.3258 165.402 70.4036C164.324 69.0318 162.952 67.9539 161.678 69.4237C161.384 69.7177 161.286 70.2076 161.482 70.5996C162.168 71.5795 162.854 72.5594 163.638 73.3433C160.012 72.1674 155.407 72.9513 154.525 76.3809C151.879 77.0668 149.332 77.7527 146.98 78.8306C146.882 78.8306 146.98 78.8306 146.98 78.8306ZM167.263 75.8909C167.655 75.695 167.851 75.303 167.557 74.9111C167.753 74.2251 168.047 73.4412 168.243 72.7553C169.811 71.6775 171.869 70.8936 173.632 70.9916C172.457 71.6775 171.379 72.3634 170.301 73.1473C169.909 73.4413 170.497 74.1272 170.889 73.7352C172.163 72.7553 173.437 71.9714 174.808 71.1875C175.298 71.3835 175.69 71.5795 176.082 71.8734C176.866 72.5594 177.16 73.2453 177.16 73.8332C175.788 74.0292 174.416 74.3231 173.045 74.4211C172.653 74.4211 172.751 75.009 173.045 74.9111C174.416 74.5191 175.69 74.2252 177.062 74.1272C176.964 77.2628 170.301 79.7125 167.557 76.0869C167.655 75.9889 167.459 75.8909 167.263 75.8909ZM167.361 78.1447C168.145 78.7326 169.125 79.1245 170.203 79.3205C170.301 80.8883 169.027 81.9662 167.459 82.0642C166.087 82.1622 165.304 81.5742 164.716 80.4964C165.793 80.0064 166.675 79.2225 167.361 78.1447ZM155.799 77.2628C157.954 76.8708 160.11 76.5769 162.364 76.2829C162.756 76.2829 162.658 75.597 162.266 75.597C160.11 75.695 157.954 75.9889 155.799 76.2829C156.191 75.0091 157.758 74.0292 159.13 74.0292C159.718 73.8332 160.306 73.8332 160.796 73.8332C161.678 73.8332 162.658 74.0292 163.344 74.6171C163.834 74.8131 164.226 75.107 164.814 75.499C165.108 75.695 165.304 75.8909 165.598 75.9889C165.695 76.1849 165.989 76.3809 166.185 76.3809C165.598 77.4587 164.814 78.2426 163.932 78.7326C163.932 79.0265 163.638 79.4185 163.246 79.4185C161.776 79.6145 160.306 80.0064 158.836 79.8104C158.64 79.8104 158.346 79.7125 158.15 79.6145C159.13 79.2225 160.11 78.8306 161.188 78.3406C161.678 78.1447 161.286 77.3608 160.796 77.5567C159.62 78.0467 158.346 78.5366 157.171 79.1245C156.583 78.7326 156.093 78.2427 155.897 77.5567C155.799 77.5567 155.799 77.3608 155.799 77.2628Z" fill="#251C1C"/>
<path d="M150.801 72.6571C153.153 71.8732 155.407 70.8933 157.66 69.8154C157.954 69.6194 158.15 69.2275 158.052 68.9335C157.268 65.6019 155.015 56.4891 149.723 58.1549C144.726 59.7227 148.058 67.7577 149.821 71.5792C149.625 72.1671 150.017 72.951 150.801 72.6571ZM149.135 60.4086C150.115 60.3106 150.997 60.1146 151.977 60.0166C152.663 60.4086 153.153 60.8985 153.545 61.5844C154.035 62.2704 154.427 62.9563 154.819 63.6422C155.603 65.21 155.995 66.9738 156.289 68.6396C155.701 68.9335 155.113 69.1295 154.525 69.3255C154.721 68.3456 154.231 67.2677 153.839 66.2879C153.349 64.916 152.957 63.5442 152.075 62.3683C151.291 61.3885 149.821 62.1724 149.723 63.2502C149.625 64.72 150.115 66.1899 150.507 67.5617C150.801 68.5416 150.997 69.7174 151.879 70.3053C151.389 70.5013 150.801 70.6973 150.311 70.8933C150.017 69.5214 149.723 68.1496 149.429 66.7778C149.135 65.6019 147.764 61.4864 149.135 60.4086Z" fill="#251C1C"/>
<path d="M170.105 66.0917C172.555 65.8957 175.005 65.5038 177.454 65.0139C177.748 64.9159 178.042 64.6219 178.042 64.23C178.14 60.8004 178.14 51.3936 172.653 51.6875C167.362 51.9815 168.635 60.6044 169.517 64.7199C169.125 65.3078 169.321 66.0917 170.105 66.0917ZM170.301 60.1145C170.399 58.7426 170.007 54.4312 171.575 53.7453C172.555 53.8433 173.437 53.9412 174.417 54.0392C174.907 54.6272 175.299 55.2151 175.593 55.901C175.985 56.6849 176.181 57.4688 176.279 58.2527C176.572 60.0165 176.572 61.7803 176.474 63.544C175.887 63.642 175.201 63.74 174.613 63.838C175.103 62.8581 174.809 61.7803 174.711 60.7024C174.613 59.2326 174.515 57.7628 173.927 56.4889C173.437 55.4111 171.771 55.705 171.477 56.7829C170.987 58.1547 171.183 59.7225 171.183 61.1923C171.183 62.2702 171.183 63.446 171.771 64.23C171.183 64.23 170.693 64.3279 170.105 64.3279C170.203 62.8581 170.203 61.4863 170.301 60.1145Z" fill="#251C1C"/>
</svg>
