<svg width="49" height="36" viewBox="0 0 49 36" fill="none" xmlns="http://www.w3.org/2000/svg">
<path d="M0.922476 6.77942C0.946615 7.74445 0.982823 8.72125 1.01903 9.68628C1.05524 10.7808 1.09145 11.8635 1.16386 12.9462C1.35698 17.3712 1.59836 21.7962 1.79147 26.233C2.02079 31.0699 1.13973 31.7054 4.8571 32.6469C4.89331 32.9176 4.92952 33.1765 4.96573 33.4472C4.96573 33.459 4.96573 33.4707 4.96573 33.4707C4.9778 33.6002 4.98987 33.7297 5.01401 33.8591C5.24332 35.5303 7.86239 35.0242 7.92273 33.4707C7.9348 33.3178 7.9348 33.1648 7.9348 33.0235C7.97101 33.0118 8.00722 32.9882 8.04343 32.9765C8.01929 32.6587 7.99515 32.3292 7.97101 32.0114C8.2124 23.0202 7.57272 14.1231 6.11232 5.23773C6.07611 5.00235 5.99163 4.81405 5.883 4.66106C5.83473 3.96671 5.77438 3.28413 5.7261 2.60155C5.52092 2.58978 5.32781 2.58978 5.14677 2.58978C4.66399 1.14223 2.18976 1.23638 2.26218 2.96637C2.26218 3.07229 2.27425 3.18998 2.27425 3.2959C1.32077 3.93141 0.874199 5.08473 0.922476 6.77942Z" fill="#E6332A"/>
<path d="M47.6308 30.1285C47.4377 27.7041 47.1601 25.3033 46.8221 22.9025C46.8825 22.2082 46.9307 21.5138 46.967 20.8195C47.0394 19.6073 46.5325 18.3716 46.448 17.1359C46.2549 14.4056 46.2066 11.6635 46.0135 8.93314C45.9169 7.59151 45.5066 6.50879 44.7824 5.67322L44.6255 3.93146C44.4565 2.11909 41.584 2.06024 41.6685 3.90792C41.2943 3.81377 40.896 3.73139 40.4736 3.67255C40.4736 4.33159 40.4495 4.9671 40.4736 5.60261C40.4978 6.04982 40.5219 6.49702 40.546 6.94423C40.546 7.01485 40.534 7.08546 40.546 7.15607C40.5581 7.40321 40.5822 7.66212 40.5943 7.90926C40.7874 11.4046 40.9685 14.8998 41.1616 18.3951C41.1736 22.3259 41.1857 26.2684 41.1978 30.1991C41.1978 31.6231 42.7909 31.9291 43.6358 31.2112C43.7927 31.1994 43.9375 31.1759 44.0944 31.1406C44.1306 31.2936 44.1548 31.4583 44.191 31.6113C44.5651 33.1648 47.2446 32.8706 47.0997 31.223C47.0997 31.2112 47.0997 31.2112 47.0997 31.1994C47.4377 30.9641 47.667 30.611 47.6308 30.1285Z" fill="#48AE4C"/>
<path d="M0.680396 30.3523C0.716605 31.1996 1.38042 32.5059 2.08045 32.7648C4.71158 33.7416 7.47547 35.0362 10.179 35.0009C18.531 34.8832 26.8831 34.2124 35.2351 33.7534C35.5972 33.7299 35.9593 33.6239 36.3093 33.5533C38.6869 33.1297 41.0525 32.553 43.4543 32.3412C46.17 32.1058 47.389 31.3997 47.5821 28.6811C47.8114 25.5977 47.6304 22.479 47.6304 19.3839C47.7511 19.3839 47.8838 19.3721 48.0045 19.3721C47.739 15.6297 47.6666 11.8519 47.0993 8.14479C46.87 6.66194 45.9044 4.84957 44.6734 4.0493C42.7302 2.75474 40.3525 1.74264 38.0352 1.41312C32.7971 0.671691 27.4865 0.353937 22.2001 0.0126458C20.7156 -0.0815035 19.1949 0.377474 17.6862 0.483392C13.2205 0.777609 8.73069 0.812915 4.30122 1.31897C0.704535 1.73087 -0.0679062 2.71944 0.00451021 5.6263C0.233829 13.8761 0.378662 22.1142 0.680396 30.3523ZM40.4853 3.66093C43.9854 4.14345 45.8079 5.89698 46.0131 8.92152C46.2062 11.6519 46.2544 14.3939 46.4476 17.1243C46.532 18.36 47.0269 19.5957 46.9665 20.8079C46.8096 23.5735 46.5079 26.3509 46.0975 29.1048C45.8562 30.7524 43.8285 31.6939 42.3078 30.9525C41.9577 30.7877 41.7405 30.1051 41.7043 29.6461C41.5836 27.7396 41.5715 25.8331 41.475 23.9266C41.1612 17.8069 40.8232 11.6989 40.4973 5.57922C40.4611 4.95548 40.4853 4.31998 40.4853 3.66093ZM7.36684 2.11924C14.9585 1.88386 22.1398 1.50727 29.3331 1.4955C32.2298 1.4955 35.1265 2.22515 37.999 2.75474C38.4214 2.82536 38.9766 3.60209 39.0007 4.0846C39.4473 11.5812 39.8094 19.0896 40.1835 26.5863C40.2439 27.7161 40.2801 28.8576 40.3525 29.9874C40.4129 31.0231 39.8939 31.1996 38.8921 31.5174C34.5109 32.9178 29.9004 32.2823 25.5313 33.0826C20.6432 33.977 15.8154 33.7887 10.9394 33.8946C9.829 33.9182 9.33416 33.6357 9.24967 32.4118C8.67034 24.1502 7.98238 15.8886 7.37891 7.6152C7.25822 5.96759 7.36684 4.30821 7.36684 2.11924ZM5.71334 2.58998C6.49785 12.8405 7.27029 22.9615 8.03066 32.9649C7.65651 33.1414 7.53582 33.2473 7.45133 33.2238C0.764882 31.788 2.04424 31.9646 1.77871 26.2215C1.47698 19.7369 1.10283 13.2524 0.909715 6.76786C0.837299 3.66093 2.40632 2.40168 5.71334 2.58998Z" fill="black"/>
<path d="M16.117 19.4425C16.2981 19.4542 16.4912 19.4307 16.6722 19.466C17.6378 19.6425 18.2654 19.4425 18.6033 18.3833C19.0378 16.9946 19.6775 15.6647 20.4137 13.8288C20.5224 14.6291 20.5827 14.9115 20.5827 15.194C20.6672 18.8893 20.7637 22.5965 20.7999 26.2918C20.812 27.5864 21.2827 28.1866 22.6707 27.963C23.0207 27.9041 23.4069 27.963 23.769 27.9748C25.9898 28.0571 26.5088 27.6452 26.5208 25.5033C26.5691 18.8187 26.5691 12.1341 26.557 5.44954C26.557 5.0141 26.4605 4.42566 26.1708 4.17852C24.7828 3.02519 20.4861 3.95492 19.6051 5.53192C17.7464 8.82714 15.8756 12.1224 14.0049 15.4058C12.3393 18.3362 12.8462 19.3013 16.117 19.4425ZM16.6722 13.2757C18.0602 10.8749 19.3758 8.40347 21.0775 6.22627C21.6448 5.49661 23.2983 5.46131 24.469 5.39069C24.6863 5.37892 25.2173 6.67348 25.2173 7.36783C25.2294 13.3934 25.1449 19.4307 25.0967 25.4563C25.0967 25.8093 25.0122 26.1624 24.976 26.4919C22.5379 27.045 22.1638 26.7273 22.0672 24.4206C21.9586 21.9374 21.6327 19.4542 21.6086 16.9593C21.5845 15.0057 21.9345 13.0403 22.0069 11.075C22.019 10.5336 21.6086 9.9687 21.3913 9.41558C21.1862 9.45088 20.9689 9.47442 20.7637 9.50973C19.9068 11.7575 19.0137 13.9818 18.205 16.2414C17.4205 18.4421 17.324 18.5245 14.3911 17.8184C15.1756 16.2414 15.8394 14.7115 16.6722 13.2757Z" fill="black"/>
</svg>
