<svg width="46" height="33" viewBox="0 0 46 33" fill="none" xmlns="http://www.w3.org/2000/svg">
<path d="M44.6863 15.4589C44.3982 13.2504 43.9179 11.0888 43.2456 8.97429C42.6692 7.0947 42.189 5.02715 40.364 3.94639C40.364 3.94639 40.316 3.94639 40.316 3.8994C39.2114 1.87884 35.4174 3.14756 35.9457 5.82597C37.4345 13.2504 38.539 20.7687 39.2594 28.3341C39.4996 30.8245 43.2936 31.7173 43.9659 28.9449C45.0705 24.5279 45.3107 20.0169 44.6863 15.4589Z" fill="#47AD4B"/>
<path d="M12.2694 28.3811C11.549 19.735 8.57138 11.4178 7.94705 2.77171C7.75494 0.0932959 3.96092 -0.235632 3.24054 1.87891C1.79977 1.31503 -0.169284 1.97288 0.0228189 3.89946C0.599126 9.58522 1.31951 15.271 2.28002 20.9097C2.95238 24.9978 4.15302 31.4824 9.86807 30.7306C11.0687 30.5896 12.4134 29.7908 12.2694 28.3811Z" fill="#E5332A"/>
<path d="M43.9659 8.17545C43.9179 7.23566 43.3416 6.01393 42.6212 5.40306C40.0758 3.24153 36.9062 2.16077 33.6884 1.54991C30.0865 0.84506 26.4366 0.469142 22.7866 0.140214C20.8656 -0.0477448 18.9446 0.140214 17.0235 0.0462346C12.6532 -0.141724 8.33091 0.234193 4.05663 1.31496C2.75994 1.64388 1.89548 2.34873 1.84745 3.80541C1.51127 11.2298 2.27968 18.5602 3.57638 25.7966C3.76848 27.0183 4.58491 28.381 5.54543 29.1329C8.76314 31.5293 12.6052 32.0932 16.5433 31.9992C24.0353 31.8113 31.5753 31.9053 39.0193 30.5895C43.1975 29.8377 44.5422 28.0991 44.4462 24.5279C44.3981 22.1314 44.4462 19.7349 44.4462 17.2915C44.3021 17.2915 44.158 17.2915 44.0139 17.2915C44.062 14.2371 44.158 11.1828 43.9659 8.17545ZM4.72899 25.6086C3.28822 18.9831 2.90402 12.3105 2.95204 5.54403C2.95204 3.61745 3.4323 2.4897 5.54543 2.30174C6.07371 2.25475 6.55396 1.87883 7.27435 1.59689C8.37894 11.1828 9.48353 20.5337 10.5401 29.9317C7.32237 29.7907 5.25727 28.0521 4.72899 25.6086ZM35.4654 29.9787C28.7418 30.4016 21.9702 30.9655 15.2466 31.0594C11.8848 31.1064 11.5967 30.3076 11.3565 27.4412C11.0203 22.8832 10.396 18.3722 9.86773 13.8612C9.38747 9.86708 8.90722 5.87296 8.37894 1.78485C17.888 0.939039 26.8688 1.08001 36.1377 3.3825C36.57 8.73933 36.9542 14.0962 37.4344 19.5C37.7226 22.8362 38.0588 26.1725 38.3949 29.6028C37.1943 29.7437 36.3298 29.9317 35.4654 29.9787ZM39.6436 28.8509C38.8272 20.6277 37.9627 12.4045 37.0983 3.8524C42.1409 5.54403 42.9574 6.38985 43.0534 10.102C43.1495 14.942 43.5337 19.7819 43.6297 24.6688C43.6778 27.2533 41.9969 28.8509 39.6436 28.8509Z" fill="black"/>
<path d="M21.3461 11.1828C21.1059 9.9611 20.9138 8.69238 20.6737 7.47064C20.5777 6.85978 20.5777 5.63805 20.0494 5.12116C19.1849 4.27534 17.2159 4.83922 16.2554 5.12116C15.8712 5.26213 15.8712 5.73202 16.0633 5.91998C16.0152 5.96697 16.0152 6.01396 15.9672 6.06095C14.6225 10.29 13.5659 14.5191 12.7495 18.8422C12.7015 19.1241 12.8936 19.453 13.2297 19.453C14.3343 19.453 15.2948 19.5 16.3994 19.735C16.6396 19.782 16.9277 19.688 16.9757 19.406C17.36 17.6204 17.7442 15.8348 18.0803 14.0022C18.6566 18.2783 19.377 22.6013 20.1454 26.8304C20.1935 27.0654 20.4336 27.1593 20.6257 27.1593C21.2981 27.2063 21.9704 27.2533 22.6428 27.3473C22.8829 27.3473 23.123 27.1123 23.123 26.8774C23.2191 21.5676 22.2586 16.3987 21.3461 11.1828ZM21.3461 26.3135C20.5777 26.0316 20.4336 22.7423 20.3375 22.0375C19.7132 18.4193 19.1849 14.801 18.7527 11.1828C18.7047 10.7129 17.9363 10.478 17.7922 11.0419C17.2639 13.5793 16.7356 16.1637 16.2073 18.7012C15.4389 18.6072 14.6225 18.5132 13.8541 18.5132C14.6705 14.3781 15.6791 10.337 16.9277 6.2959C16.9757 6.10794 16.9277 5.96697 16.8317 5.87299C17.9843 5.49708 18.9448 5.35611 19.6172 6.85978C19.8093 7.32968 19.8093 8.03452 19.9053 8.50442C20.1935 10.0551 20.4336 11.5588 20.7217 13.1094C21.298 16.4927 21.9224 19.8759 22.1145 23.2592C22.1625 24.011 22.7388 26.8304 21.3461 26.3135Z" fill="black"/>
<path d="M34.4085 14.0962C33.8322 10.0081 31.8631 4.74523 26.8685 4.69824C26.5323 4.69824 26.3882 4.93319 26.3882 5.16814C23.1705 8.78635 22.8343 14.7071 23.6508 19.2181C24.131 21.9435 26.4363 29.7438 30.9507 27.1123C32.6316 26.1256 33.448 23.5411 33.9282 21.8025C34.6486 19.2651 34.7447 16.6336 34.4085 14.0962ZM31.2388 25.4207C26.8685 30.3076 24.4672 19.1241 24.3231 16.6336C24.131 13.0154 24.6113 8.50441 27.2047 5.68503L27.2527 5.63804C34.8888 6.20191 35.2249 21.0037 31.2388 25.4207Z" fill="black"/>
<path d="M30.7588 11.6996C30.2786 10.5719 28.6457 9.11519 27.7813 10.6189C27.6372 10.6189 27.4931 10.6658 27.397 10.8538C25.8122 13.7672 25.428 17.1974 26.7247 20.2987C27.4451 21.9904 29.126 23.4001 30.5187 21.4265C32.2476 18.983 31.9115 14.331 30.7588 11.6996ZM30.4707 18.5601C30.2786 19.7349 30.3266 20.0168 28.9819 20.2987C28.1655 20.8626 27.7332 20.7217 27.6372 19.9228C27.4451 19.4999 27.301 19.077 27.1569 18.6071C26.9648 17.8553 26.8688 17.0095 26.8688 16.2106C26.8688 14.519 27.301 12.9683 28.0694 11.5117C28.2135 11.5117 28.4056 11.4647 28.4536 11.2767C29.3181 11.0888 29.7503 11.3707 29.8464 12.0755C30.0385 12.4984 30.1825 12.9214 30.2786 13.3913C30.4707 14.0961 30.5667 14.8479 30.6148 15.5528C30.7108 16.5866 30.6628 17.6203 30.4707 18.5601Z" fill="black"/>
</svg>
