<svg width="48" height="37" viewBox="0 0 48 37" fill="none" xmlns="http://www.w3.org/2000/svg">
<path d="M47.4188 18.6609C47.102 15.8591 46.6796 13.0573 46.0459 10.3084C45.6235 8.45821 45.0426 6.39654 43.1944 5.60359C42.0855 3.06614 37.7027 3.2776 38.1251 6.39654C38.1779 6.97804 38.2835 7.6124 38.3363 8.19389C37.7555 10.5199 38.0195 13.586 38.1779 15.2247C38.6532 21.0926 39.5508 26.8547 40.9238 32.5639C41.6631 35.6829 46.1515 34.6256 46.0987 31.771C49.003 28.8106 47.7885 22.3613 47.4188 18.6609Z" fill="#47AD4B"/>
<path d="M8.13168 14.9075C7.65644 11.8943 7.55083 8.82819 7.55083 5.76211C7.55083 3.70044 7.07558 1.21586 4.54092 1.11013C-0.739604 0.845813 0.263697 8.72247 0.738944 11.7885C1.63663 18.0793 2.53432 24.4229 3.43201 30.7137C3.59043 31.8238 4.2769 32.4053 5.06898 32.5639C5.333 33.1982 5.70264 33.7797 6.2835 34.3084C7.92046 35.8943 10.8248 34.7841 10.7719 32.4581C10.7191 26.4846 9.08218 20.7753 8.13168 14.9075Z" fill="#E5332A"/>
<path d="M46.4146 9.19826C46.3618 8.14099 45.7281 6.76654 44.936 6.07931C42.1373 3.6476 38.6522 2.43174 35.1142 1.74451C31.1538 0.951562 27.1406 0.528655 23.1274 0.158611C21.0152 -0.0528432 18.903 0.158611 16.7908 0.0528837C11.9855 -0.15857 7.18024 0.264337 2.53337 1.4802C1.10763 1.85024 0.157135 2.64319 0.104329 4.28196C-0.265308 12.6344 0.579577 20.8811 2.00532 29.022C2.21654 30.3965 3.11423 31.9295 4.17034 32.7753C7.70829 35.4714 11.9327 36.1057 16.2627 36C24.5004 35.7886 32.7908 35.8943 40.9756 34.4141C45.5697 33.5683 47.0482 31.6123 46.9426 27.5947C46.8898 24.8987 46.9426 22.2027 46.9426 19.4538C46.7842 19.4538 46.6258 19.4538 46.4674 19.4538C46.4674 16.0176 46.6258 12.5815 46.4146 9.19826ZM3.27265 28.8106C1.68849 21.3568 1.31885 13.8502 1.37166 6.2379C1.37166 4.0705 1.89971 2.80178 4.22314 2.59033C4.75119 2.53746 5.27925 2.11456 6.07133 1.79738C7.28585 12.5815 8.50037 23.1013 9.66208 33.674C6.12413 33.5154 3.8007 31.5595 3.27265 28.8106ZM37.068 33.7269C29.6753 34.2027 22.2297 34.837 14.837 34.9427C11.1406 34.9956 10.8238 34.0969 10.5598 30.8723C10.1901 25.7445 9.50367 20.6696 8.92281 15.5947C8.39476 11.1013 7.86671 6.60795 7.28585 2.00883C17.7413 1.05729 27.6159 1.21588 37.8073 3.80619C38.2825 9.83262 38.705 15.859 39.233 21.9383C39.5499 25.6916 39.9195 29.4449 40.2892 33.304C38.9162 33.4626 38.0185 33.674 37.068 33.7269ZM41.6621 32.4582C40.7644 23.2071 39.8139 13.956 38.8634 4.33482C44.408 6.2379 45.3056 7.18945 45.4113 11.3657C45.5169 16.8106 45.9393 22.2555 46.0449 27.7533C46.0449 30.6608 44.2495 32.4582 41.6621 32.4582Z" fill="black"/>
<path d="M27.5643 26.1675C26.1386 25.2688 21.4917 27.4362 21.0693 25.5331C20.8052 24.1586 23.3399 21.8326 24.0792 20.934C24.8712 19.9824 25.6105 19.0309 26.1386 17.8679C26.9834 16.0705 27.2475 13.956 26.7722 12.0001C25.9273 8.51106 22.7062 5.81503 19.0627 6.44939C14.6798 7.18948 13.5709 11.4186 14.0462 15.2776C14.099 15.8062 14.7326 15.9119 14.9967 15.6476C16 15.5948 17.0032 15.5419 18.0066 15.489C18.429 15.489 18.7458 14.9075 18.3762 14.5904C19.0099 11.63 20.1716 10.8899 21.8613 12.5287C22.8118 13.4274 23.0759 14.4846 22.8118 15.7534C22.495 16.9692 21.3861 17.815 20.4884 18.608C19.3795 19.5595 18.2178 20.4582 17.4785 21.7798C15.8415 24.6873 16.5808 28.3349 17.2673 31.4009C17.3201 31.6124 17.5313 31.8238 17.7953 31.771C21.3333 31.3481 24.8712 31.1895 28.4092 31.3481C28.6732 31.3481 28.9372 31.0837 28.9372 30.8194C28.8844 29.5507 28.8844 26.9604 27.5643 26.1675ZM26.9306 30.2908C25.8745 30.7137 23.8151 30.2379 22.6006 30.3437C21.6501 30.3965 18.8514 31.0837 18.1122 30.3965C17.4257 29.7622 17.5313 27.119 17.5313 26.1675C17.5313 24.1586 18.0066 22.5199 19.3795 21.0397C20.6996 19.6124 22.6534 18.608 23.5511 16.8106C24.8712 14.1675 22.8646 10.7842 19.9075 10.6256C17.6897 10.5199 15.9999 12.7401 16.9504 14.5375C16.3168 14.5904 15.6831 14.5904 15.0495 14.6432C14.8382 11.7886 15.4719 8.56393 18.693 7.66525C22.5478 6.60798 25.9801 10.1498 25.9801 13.8503C25.9801 19.2423 19.9603 21.6741 19.9603 26.9075C19.9603 27.1719 20.2244 27.4362 20.4884 27.4362C22.0726 27.3304 23.9207 26.9075 25.5049 27.0661C26.4554 27.1719 27.1419 27.119 27.5643 28.3349C27.8811 29.3921 27.7227 29.9736 26.9306 30.2908Z" fill="black"/>
</svg>
