<svg width="50" height="37" viewBox="0 0 50 37" fill="none" xmlns="http://www.w3.org/2000/svg">
<path d="M49.4944 19.2423C49.0619 16.3876 48.4133 13.533 47.7106 10.6784C47.1701 8.45813 46.7376 5.55064 43.9268 5.07487C43.8728 5.07487 43.8187 5.07487 43.7106 5.07487C42.7376 2.37883 38.089 3.80614 38.6295 6.97795C40.0349 15.0132 41.0619 23.1013 41.7647 31.2423C41.9809 33.674 44.5214 34.5198 46.3592 33.0925C50.7917 29.815 50.1971 24 49.4944 19.2423Z" fill="#47AD4B"/>
<path d="M9.11622 22.3613C7.65676 16.4934 7.22433 10.5727 6.73784 4.54628C6.73784 4.33483 6.73784 4.17624 6.73784 3.96479C6.7919 2.69606 6.03514 1.85025 5.11622 1.58593C3.44055 0.792979 1.06217 1.53307 1.22433 3.8062C1.22433 4.07051 1.27838 4.33483 1.27838 4.54628C1.00811 10.6784 0.845951 16.8635 0.900005 22.9956C0.954059 26.7489 1.22433 34.8899 7.11622 34.6784C12.7919 34.5198 9.87298 25.4273 9.11622 22.3613Z" fill="#E5332A"/>
<path d="M47.4942 9.19826C47.4402 8.14099 46.7915 6.76654 45.9807 6.07931C43.1158 3.6476 39.5483 2.43174 35.9266 1.74451C31.8726 0.951562 27.7645 0.528655 23.6564 0.158611C21.4942 -0.0528432 19.332 0.158611 17.1699 0.0528837C12.251 -0.15857 7.33205 0.264337 2.57529 1.4802C1.11583 1.85024 0.142857 2.64319 0.0888028 4.28196C-0.289576 12.6344 0.575289 20.8811 2.03475 29.022C2.25097 30.3965 3.16988 31.9295 4.25097 32.7753C7.87259 35.4714 12.1969 36.1057 16.6293 36C25.0618 35.7886 33.5483 35.8943 41.9266 34.4141C46.6293 33.5683 48.1429 31.6124 48.0348 27.5947C47.9807 24.8987 48.0348 22.2027 48.0348 19.4538C47.8726 19.4538 47.7104 19.4538 47.5483 19.4538C47.5483 16.0176 47.7104 12.5815 47.4942 9.19826ZM3.33205 28.8106C1.71042 21.3568 1.33205 13.8502 1.3861 6.23791C1.3861 4.0705 1.92664 2.80178 4.30502 2.59033C4.84556 2.53747 5.3861 2.11456 6.19691 1.79738C7.44015 12.5815 8.6834 23.1013 9.87259 33.674C6.25097 33.5154 3.87259 31.5595 3.33205 28.8106ZM37.9266 33.7269C30.3591 34.2027 22.7375 34.837 15.1699 34.9427C11.3861 34.9956 11.0618 34.0969 10.7915 30.8723C10.4131 25.7445 9.71042 20.6696 9.11583 15.5947C8.57529 11.1013 8.03475 6.60795 7.44015 2.00883C18.1429 1.05729 28.251 1.21588 38.6834 3.80619C39.1699 9.83262 39.6023 15.859 40.1429 21.9383C40.4672 25.6916 40.8456 29.445 41.2239 33.304C39.8185 33.4626 38.8996 33.674 37.9266 33.7269ZM42.6293 32.4582C41.7104 23.2071 40.7375 13.956 39.7645 4.33482C45.4402 6.2379 46.3591 7.18945 46.4672 11.3657C46.5753 16.8106 47.0077 22.2555 47.1158 27.7533C47.1158 30.6608 45.278 32.4582 42.6293 32.4582Z" fill="black"/>
<path d="M25.927 16.8635C25.0081 16.3877 24.7919 15.7534 25.5486 15.0662C26.4675 14.2732 27.3324 13.2688 28.4135 12.8459C30.7378 11.8415 30.0351 9.9384 29.6027 8.56396C29.3324 7.66528 27.7648 6.66087 26.6837 6.50228C23.3864 6.07937 19.981 5.92078 16.6297 5.86792C16.0351 5.86792 14.9 6.60801 14.954 6.92519C15.0621 8.3525 15.3864 9.83268 15.8729 11.2071C16.0351 11.5772 16.9 11.8415 17.4946 11.9472C18.5216 12.0529 19.5486 12.0001 21.1162 12.0001C19.7108 13.4803 18.2513 14.4318 17.7108 15.7005C17.1702 16.9692 17.4405 18.6609 17.3324 20.2468C18.7378 20.1939 19.7108 20.141 20.6837 20.0882C22.0891 19.9825 23.6027 20.0882 23.8729 21.6212C24.0891 22.9957 24.0351 24.6873 23.3324 25.7974C22.954 26.3261 20.954 25.9032 19.6567 25.8503C19.3324 25.8503 19.0081 25.4803 18.3594 25.1631C17.6027 26.2203 16.8459 27.1719 16.3054 28.2292C16.1973 28.3877 16.4675 29.075 16.7378 29.3921C19.1162 31.7181 24.9 31.5595 26.954 30.4494C27.5486 30.1322 28.2513 29.6565 28.5756 29.075C30.6837 25.0573 31.7648 20.0353 25.927 16.8635ZM27.3324 28.2292C26.4135 29.6565 23.4946 30.2908 21.8729 29.8151C21.1702 29.6036 20.4135 29.7093 19.7108 29.4979C19.1162 29.3393 18.5216 28.9692 17.927 28.6521C18.2513 27.2247 18.7919 26.749 20.3594 27.2247C21.8729 27.6477 24.0351 28.0706 24.7378 26.2732C25.3864 24.6344 25.6027 22.4142 25.0621 20.7754C24.6297 19.3481 22.8459 18.3437 20.9 18.6609C20.3054 18.7666 19.7108 18.6609 19.1702 18.6609C18.7378 16.2292 20.1432 14.1675 23.1702 12.6344C23.5486 12.423 23.8189 12.0001 24.1432 11.6829C23.7648 11.4186 23.3864 11.0485 22.954 10.9957C21.7108 10.7842 20.4675 10.6256 19.2243 10.5728C16.5756 10.467 16.4135 10.3084 16.6297 7.24237C20.1432 7.40096 23.5486 7.55955 26.954 7.82387C27.4405 7.87673 28.1432 8.56396 28.1973 8.98686C28.2513 9.88554 28.2513 11.1014 27.7108 11.63C26.3054 13.0045 24.5756 14.0089 23.0081 15.2247C22.6837 15.4891 22.5216 16.0177 22.2513 16.3877C22.6297 16.5992 22.954 16.8635 23.3324 16.9692C28.954 18.6609 30.3054 23.5243 27.3324 28.2292Z" fill="black"/>
</svg>
