<svg width="46" height="35" viewBox="0 0 46 35" fill="none" xmlns="http://www.w3.org/2000/svg">
<path d="M45.9501 22.9164C45.5497 17.6242 44.0481 12.2821 42.8968 7.13963C42.5965 5.84154 41.6455 5.34227 40.5943 5.34227C40.4441 2.29675 35.5889 2.34668 35.5889 5.49205C35.5889 10.8841 36.8402 16.1264 37.1906 21.5185C37.3408 24.0647 37.0404 26.6609 37.2907 29.1573C37.4909 30.9546 38.7924 32.3026 40.6944 32.1029C44.8489 31.6536 46.2505 26.3114 45.9501 22.9164Z" fill="#47AD4B"/>
<path d="M8.55901 20.42C7.40776 14.9281 6.55683 9.33628 5.95618 3.74451C5.6058 0.798838 1.20101 0.549206 0.950739 3.19531C0.650413 3.5448 0.50025 4.04407 0.50025 4.64319C0.50025 10.4347 0.450195 16.2761 0.450195 22.0676C0.450195 26.3113 1.25107 31.5536 5.70591 33.351C6.50678 33.7005 7.55792 33.301 8.15857 32.7019C11.312 29.6564 9.30983 24.1146 8.55901 20.42Z" fill="#E5332A"/>
<path d="M43.9975 8.68728C43.9475 7.68875 43.3468 6.39066 42.596 5.74161C39.9431 3.44499 36.6395 2.29668 33.2859 1.64764C29.5318 0.898738 25.7277 0.499325 21.9235 0.14984C19.9214 -0.0498668 17.9192 0.14984 15.917 0.0499864C11.3621 -0.14972 6.8071 0.249693 2.40231 1.398C1.05084 1.74749 0.149864 2.49639 0.0998101 4.04411C-0.250571 11.9325 0.5503 19.7211 1.90177 27.4097C2.10199 28.7078 2.95291 30.1557 3.954 30.9545C7.30764 33.5008 11.312 34.0999 15.4165 34C23.2249 33.8003 31.0835 33.9002 38.8419 32.5023C43.1967 31.7034 44.5982 29.8561 44.4981 26.0617C44.448 23.5155 44.4981 20.9692 44.4981 18.373C44.3479 18.373 44.1977 18.373 44.0476 18.373C44.0476 15.1278 44.1977 11.8826 43.9975 8.68728ZM3.10307 27.21C1.60144 20.1704 1.25106 13.0808 1.30112 5.89139C1.30112 3.84441 1.80166 2.64617 4.00405 2.44646C4.5046 2.39654 5.00514 1.99712 5.75596 1.69756C6.90721 11.8826 8.05846 21.818 9.15966 31.8033C5.80601 31.6535 3.60362 29.8062 3.10307 27.21ZM35.1379 31.8532C28.1303 32.3025 21.0726 32.9017 14.065 33.0015C10.5612 33.0514 10.2609 32.2027 10.0106 29.1572C9.6602 24.3143 9.00949 19.5213 8.4589 14.7284C7.95835 10.4846 7.45781 6.24088 6.90721 1.89727C16.818 0.998591 26.1782 1.14837 35.8387 3.59477C36.2891 9.2864 36.6896 14.978 37.1901 20.7196C37.4905 24.2644 37.8408 27.8092 38.1912 31.4538C36.8898 31.6036 36.0389 31.8033 35.1379 31.8532ZM39.4926 30.655C38.6417 21.9178 37.7407 13.1807 36.8397 4.09404C42.0955 5.89139 42.9464 6.79007 43.0465 10.7343C43.1466 15.8767 43.547 21.0191 43.6471 26.2115C43.6471 28.9575 41.9453 30.655 39.4926 30.655Z" fill="black"/>
<path d="M29.081 15.5272C29.031 15.2776 28.8808 15.028 28.5805 15.028C28.0299 15.028 27.4292 15.028 26.8786 15.028C25.8775 15.1777 25.4771 14.7783 25.6273 13.8297C25.2769 13.0808 25.327 11.8826 25.1768 11.0838C24.8264 8.98684 24.476 6.84 24.1757 4.74309C24.1256 4.54338 23.8754 4.3936 23.6752 4.3936C22.1235 4.34367 20.8221 4.59331 19.3204 5.09257C19.0701 5.19242 18.97 5.44206 18.97 5.64176C18.92 5.69169 18.92 5.74162 18.8699 5.79154C17.068 10.9839 12.513 15.3774 13.8144 21.2688C13.8645 21.4685 14.0647 21.6682 14.315 21.6183C15.8166 21.4685 17.3182 21.3187 18.8199 21.2189C19.2203 21.1689 21.2225 20.7695 21.5228 20.9692C22.1735 21.3187 21.9733 22.0177 21.9733 22.7167C22.1235 25.7122 22.4738 28.6579 22.9243 31.5537C22.9744 31.9031 23.3748 31.9531 23.6752 31.8532C24.6262 31.4538 25.4271 31.2042 26.4281 31.0544C26.6284 31.0045 26.8286 30.7548 26.7785 30.5551C26.4782 28.1087 26.1278 25.6124 25.8275 23.166C25.7274 22.4171 25.0767 20.5698 25.7274 19.9707C26.0778 19.6212 28.3302 19.8708 28.8308 19.8209C29.081 19.8209 29.3313 19.6212 29.3313 19.3216C29.3814 18.0735 29.2312 16.8253 29.081 15.5272ZM27.7296 18.9222C26.9287 19.2218 25.5272 18.5727 24.8765 19.2717C24.2758 19.8708 24.5261 20.5698 24.6262 21.3686C24.8765 23.5155 25.1768 25.6623 25.4771 27.8092C25.5772 28.4582 25.9276 29.6065 25.4771 30.2056C25.327 30.3554 24.5261 30.6051 23.8754 30.7548C23.3248 27.3099 23.0244 23.865 22.9243 20.3701C22.9243 20.1205 22.6741 19.8209 22.4238 19.8708C20.4717 20.0705 18.5196 20.2203 16.5674 20.42C15.0658 20.5698 14.6654 20.3701 14.5653 18.7225C14.5152 17.724 14.9156 16.5757 15.216 15.6271C16.4173 12.2321 18.7198 9.38626 19.871 5.99125C19.871 5.94132 19.871 5.8914 19.871 5.8914C20.9722 5.49198 22.574 4.79301 23.3248 5.8914C23.6251 6.34074 23.6752 8.03824 23.7753 8.63736C24.0756 10.4846 24.0255 13.3305 24.7764 14.978C25.1267 15.7769 25.0767 15.8268 26.0277 15.9766C26.8786 16.1263 27.5293 15.6271 28.1801 16.4259C28.8308 17.1748 28.3803 18.6726 27.7296 18.9222Z" fill="black"/>
<path d="M21.2731 13.8797C21.0729 12.8811 20.9227 11.9325 20.7225 10.934C20.6224 10.3349 19.7214 10.5346 19.7715 11.1337C19.6213 11.1836 19.5212 11.2835 19.4711 11.4333C18.9706 12.9311 18.2698 14.6785 18.2198 16.2762C18.1697 17.3246 19.0707 17.2248 19.9216 17.2248C20.8727 17.2248 21.7736 17.3246 21.7236 16.1264C21.6735 15.3775 21.4232 14.5787 21.2731 13.8797ZM19.8716 16.1763C19.5712 16.1763 19.2709 16.1763 18.9706 16.1763C19.0707 16.1264 19.1207 16.0765 19.2209 16.0265C19.1708 15.5772 19.4711 14.8782 19.5712 14.4289C19.7214 13.8797 19.8716 13.3305 20.0217 12.7813C20.1218 13.2306 20.1719 13.68 20.272 14.1293C20.3721 14.6286 20.4222 15.1278 20.5723 15.5772C20.6224 15.7769 20.6724 15.9766 20.7225 16.1763H19.8716Z" fill="black"/>
</svg>
