<svg width="47" height="35" viewBox="0 0 47 35" fill="none" xmlns="http://www.w3.org/2000/svg">
<path d="M45.8388 28.9575C48.212 21.6182 46.5457 13.9795 44.122 6.8899C43.819 6.04115 43.2636 5.54189 42.5567 5.29225C41.9002 2.49637 37.3558 3.89431 37.7597 6.93983C38.2647 10.6344 38.7696 14.329 39.2746 18.0235C39.527 22.3172 39.9815 26.6109 40.6379 30.8547C41.0418 33.5008 45.3843 33.0015 45.5863 30.5052C45.8893 29.956 45.9398 29.4068 45.8388 28.9575Z" fill="#47AD4B"/>
<path d="M11.0481 28.4582C10.3412 22.3172 9.63428 16.2262 8.92737 10.0852C8.6749 7.93835 8.97786 4.04408 7.36205 2.34658C6.45316 1.39797 5.14032 1.19826 3.97896 1.59768C2.46414 1.4479 0.646358 2.74599 1.05031 4.69313C1.1513 5.09254 1.20179 5.49195 1.30278 5.84144C1.30278 7.38916 1.65624 9.08667 1.75722 10.3348C2.00969 13.4802 2.26216 16.5757 2.46414 19.6711C2.86809 25.0132 2.8176 30.5551 8.72539 32.652C11.4016 33.6006 12.7144 30.1557 11.0481 28.4582Z" fill="#E5332A"/>
<path d="M45.7379 8.68728C45.6874 7.68875 45.0815 6.39066 44.3241 5.74162C41.6479 3.44499 38.3153 2.29668 34.9322 1.64764C31.1452 0.898738 27.3076 0.499326 23.4701 0.14984C21.4503 -0.0498668 19.4306 0.14984 17.4108 0.0499864C12.7654 -0.14972 8.22093 0.249693 3.72697 1.398C2.41412 1.74749 1.50523 2.49639 1.40424 4.04411C1.05079 11.9325 1.85869 19.7211 3.22203 27.4097C3.424 28.7078 4.2824 30.1557 5.29228 30.9545C8.67537 33.5008 12.7149 34.0999 16.8554 34.0001C24.7325 33.8003 32.66 33.9002 40.4866 32.5023C44.8795 31.7034 46.2934 29.8562 46.1924 26.0617C46.1419 23.5155 46.1924 20.9692 46.1924 18.373C46.0409 18.373 45.8894 18.373 45.7379 18.373C45.7884 15.1278 45.8894 11.8826 45.7379 8.68728ZM4.43388 27.21C2.91906 20.1704 2.5656 13.0808 2.6161 5.8914C2.6161 3.84441 3.12104 2.64617 5.34277 2.44646C5.89821 2.39654 6.40315 1.99712 7.16055 1.69756C8.32192 11.8826 9.48328 21.818 10.5941 31.8033C7.21105 31.6535 4.98931 29.8062 4.43388 27.21ZM36.8005 31.8532C29.7314 32.3026 22.6117 32.9017 15.5426 33.0015C12.008 33.0514 11.705 32.2027 11.4525 29.1572C11.0991 24.3143 10.4427 19.5214 9.88723 14.7284C9.38229 10.4846 8.87735 6.24088 8.32192 1.89727C18.3197 0.948665 27.7621 1.09844 37.4569 3.54485C37.9114 9.23648 38.3153 14.9281 38.8203 20.6697C39.1232 24.2144 39.4767 27.7592 39.8302 31.4039C38.5678 31.6036 37.7094 31.8033 36.8005 31.8532ZM41.143 30.655C40.2846 21.9178 39.3757 13.1807 38.4668 4.09404C43.7687 5.8914 44.6271 6.79007 44.7281 10.7343C44.8291 15.8767 45.233 21.0191 45.334 26.2115C45.3845 28.9575 43.6677 30.655 41.143 30.655Z" fill="black"/>
<path d="M26.6511 14.5787C25.7927 13.7799 24.6819 13.2806 23.571 13.031C23.0661 12.9311 22.5106 12.981 21.9552 12.8312C20.8443 12.5816 20.7938 12.2821 20.5414 11.4333C21.9552 11.4333 23.369 11.4333 24.7829 11.4333C25.0353 11.4333 25.2878 11.1837 25.2878 10.934C25.2878 9.38631 25.2878 7.83859 25.2878 6.24094C25.2878 5.94138 25.0353 5.74167 24.7829 5.74167C22.0057 5.64182 19.4305 6.19101 16.9058 7.28939C16.6533 7.38925 16.6028 7.58895 16.6533 7.78866C16.6533 7.83859 16.6533 7.93844 16.6533 7.98837C16.7038 10.8841 16.9563 13.7798 17.4612 16.6257C17.5117 16.8753 17.8652 17.075 18.0672 16.9752C21.6017 15.7769 25.1363 18.8224 23.5205 22.3672C22.5611 24.5141 20.1374 25.4127 18.0167 25.9619C17.8147 26.0119 17.6127 26.2116 17.6632 26.4612C17.8147 27.5097 17.9662 28.5581 18.0672 29.6565C18.1177 29.8562 18.2187 30.1058 18.4206 30.1558C24.2274 31.2042 27.9135 26.8107 28.5699 21.4685C28.9234 19.0221 28.5699 16.3261 26.6511 14.5787ZM26.2472 25.7622C25.2373 27.5596 21.7027 30.5053 19.481 29.1073C18.6731 28.608 18.5216 27.26 19.279 26.7108C19.8345 26.3114 20.9958 26.1117 21.6017 25.7622C23.9245 24.4641 25.5403 22.0177 24.7829 19.3217C23.975 16.4759 21.0968 15.2277 18.3701 15.8768C17.9662 13.2806 17.7137 10.7343 17.6632 8.08822C18.8751 7.58895 20.1374 7.18954 21.5008 6.93991C22.8641 6.7402 24.0255 6.24094 24.3284 7.68881C24.5304 8.53756 24.5304 9.9355 23.8235 10.4847C23.268 10.8841 20.5919 10.4847 19.885 10.4847C19.582 10.4847 19.279 10.7843 19.38 11.1337C19.683 11.9825 19.885 12.7314 20.0364 13.6301C20.0869 13.8298 20.3394 14.0295 20.5414 13.9796C23.571 13.68 26.6006 14.6785 27.5095 17.8239C28.1155 20.3202 27.5095 23.5155 26.2472 25.7622Z" fill="black"/>
</svg>
