<svg width="46" height="35" viewBox="0 0 46 35" fill="none" xmlns="http://www.w3.org/2000/svg">
<path d="M42.7083 6.93905C42.4621 6.19015 42.019 5.64096 41.4282 5.39133L41.379 4.94199C41.0836 1.74668 36.2586 2.79514 36.554 5.99044C37.2926 14.0286 38.0311 22.0668 38.7696 30.105C39.0157 32.6512 42.7575 32.5514 43.4961 30.4045C46.1547 22.6659 44.9238 14.5778 42.7083 6.93905Z" fill="#47AD4B"/>
<path d="M12.1838 29.0067C10.6083 20.1198 9.08204 11.2328 7.50654 2.29597C7.11267 -0.100501 4.30632 0.0992055 3.17394 1.64693C1.49998 1.24752 -0.518622 2.49568 0.121422 4.64252C1.94309 10.4839 1.30304 16.525 1.99232 22.4663C2.48466 27.0596 4.45403 32.2519 9.82055 32.202C11.5437 32.1521 12.4792 30.6043 12.1838 29.0067Z" fill="#E5332A"/>
<path d="M44.284 8.68655C44.2348 7.68802 43.644 6.38993 42.9055 5.74088C40.2961 3.44426 37.0466 2.29595 33.7479 1.6469C30.0554 0.898006 26.3136 0.498593 22.5718 0.149107C20.6024 -0.0505992 18.6331 0.149107 16.6637 0.049254C12.1342 -0.150452 7.70308 0.24896 3.32124 1.39727C2.04115 1.74676 1.15494 2.49566 1.05647 4.04338C0.711831 11.9318 1.49958 19.7203 2.8289 27.409C3.02584 28.7071 3.86282 30.155 4.8475 30.9538C8.14619 33.5001 12.0849 34.0992 16.1221 33.9993C23.8026 33.7996 31.5324 33.8995 39.1637 32.5015C43.4471 31.7027 44.8256 29.8554 44.7271 26.061C44.6779 23.5147 44.7271 20.9685 44.7271 18.3723C44.5794 18.3723 44.4317 18.3723 44.284 18.3723C44.3333 15.1271 44.4317 11.8819 44.284 8.68655ZM4.01052 27.2093C2.53349 20.1697 2.18886 13.0801 2.23809 5.89066C2.23809 3.84367 2.73043 2.64544 4.89673 2.44573C5.43831 2.3958 5.93065 1.99639 6.61993 1.69683C7.75231 11.8819 8.8847 21.8172 9.96785 31.8026C6.7184 31.6528 4.55209 29.8055 4.01052 27.2093ZM35.5696 31.8525C28.6768 32.3018 21.7348 32.9009 14.842 33.0008C11.3956 33.0507 11.1002 32.202 10.8541 29.1564C10.5094 24.3136 9.86938 19.5206 9.3278 14.7277C8.83546 10.4839 8.34312 6.24015 7.80155 1.89654C17.5499 0.997859 26.7567 1.14764 36.2589 3.59404C36.702 9.28567 37.0959 14.9773 37.5882 20.7189C37.8836 24.2636 38.2282 27.8084 38.5729 31.4531C37.2928 31.6028 36.4558 31.8026 35.5696 31.8525ZM39.8037 30.6542C38.9668 21.9171 38.0805 13.1799 37.1943 4.09331C42.3639 5.89066 43.2009 6.78934 43.2994 10.7335C43.3978 15.876 43.7917 21.0184 43.8902 26.2108C43.9394 28.9567 42.2654 30.6542 39.8037 30.6542Z" fill="black"/>
<path d="M30.5478 21.6176C29.8585 17.3738 24.7381 12.3313 21.0948 15.9759C20.6517 12.2813 24.1966 9.93478 27.6922 9.93478C27.9384 9.93478 28.2338 9.68515 28.1845 9.43551C28.0861 8.43698 27.9384 7.43845 27.8399 6.43992C27.7907 6.19029 27.6429 6.04051 27.446 5.99058C27.3968 5.99058 27.3968 5.94065 27.3475 5.94065C14.7928 2.44579 9.62325 24.4634 21.0948 28.9568C23.3103 29.8056 26.5598 30.1051 28.5784 28.5574C30.597 27.0097 30.8924 23.9142 30.5478 21.6176ZM29.3661 25.6617C27.5937 31.1536 19.864 28.2079 17.5499 24.9627C12.7742 18.3224 17.5992 4.39293 26.9537 6.83933C27.1014 7.53831 27.2983 8.48691 26.9537 8.88632C26.9044 8.93625 25.3289 9.13596 25.3289 9.13596C24.1473 9.43551 23.0149 9.98471 22.1287 10.7835C20.3071 12.4311 19.667 14.8276 20.3563 17.1741C20.504 17.6235 20.9963 17.6235 21.2425 17.274C23.4088 14.1785 27.1014 16.2755 28.5292 18.7718C29.6615 20.8188 30.0554 23.4649 29.3661 25.6617Z" fill="black"/>
<path d="M25.8218 21.5177C25.2803 19.8701 23.7048 18.9215 22.0308 19.271C21.7846 19.3209 21.6862 19.5206 21.6862 19.6704C20.7507 20.7688 20.4553 22.2666 20.8984 23.6146C21.3415 25.0125 22.917 26.4604 24.4433 25.7614C26.0188 25.1623 26.3142 22.9655 25.8218 21.5177ZM23.3601 24.9127C21.2431 24.4633 21.44 21.4677 22.6216 20.2196C25.6249 19.8701 25.7234 25.4119 23.3601 24.9127Z" fill="black"/>
</svg>
