<svg width="47" height="35" viewBox="0 0 47 35" fill="none" xmlns="http://www.w3.org/2000/svg">
<path d="M45.9224 19.9201C45.5716 15.3767 44.3189 11.0331 43.0161 6.68952C42.6653 5.59114 41.8636 5.04194 40.9616 4.94209C40.9115 4.74238 40.9115 4.59261 40.8614 4.3929C40.2601 1.24753 35.4496 2.59554 36.0509 5.74092C37.5542 13.6293 38.6065 21.5676 39.2078 29.6058C39.3581 31.503 42.0139 33.2005 43.467 31.3532C45.9224 28.2578 46.223 23.7145 45.9224 19.9201Z" fill="#47AD4B"/>
<path d="M10.9967 22.616C9.74395 16.2254 8.04024 9.88473 7.63937 3.34435C7.43894 0.548462 3.63066 0.198976 2.7788 2.24597C1.42586 2.04626 -0.127514 2.84508 0.0228133 4.64244C0.523903 11.083 0.974883 17.5235 1.52608 23.964C1.87684 27.8084 2.97924 33.5999 7.88992 33.9493C14.1535 34.3987 11.6982 26.011 10.9967 22.616Z" fill="#E5332A"/>
<path d="M44.1691 8.68655C44.119 7.68802 43.5177 6.38993 42.766 5.74088C40.1103 3.44426 36.8031 2.29595 33.4458 1.6469C29.6876 0.898006 25.8793 0.498593 22.0711 0.149107C20.0667 -0.0505992 18.0623 0.149107 16.058 0.049254C11.4981 -0.150452 6.93815 0.24896 2.52857 1.39727C1.17563 1.74676 0.273666 2.49566 0.223557 4.04338C-0.177315 11.9318 0.674537 19.7203 2.02748 27.409C2.22791 28.7071 3.07977 30.155 4.08194 30.9538C7.43924 33.5001 11.448 34.0992 15.5569 33.9993C23.3739 33.7996 31.241 33.8995 39.0079 32.5015C43.3674 31.7027 44.7704 29.8554 44.6702 26.061C44.6201 23.5147 44.6702 20.9685 44.6702 18.3723C44.5199 18.3723 44.3695 18.3723 44.2192 18.3723C44.2192 15.1271 44.3695 11.8819 44.1691 8.68655ZM3.17998 27.2093C1.67672 20.1697 1.32595 13.0801 1.37606 5.89066C1.37606 3.84367 1.87715 2.64544 4.08194 2.44573C4.63314 2.3958 5.13423 1.99639 5.88587 1.69683C7.03837 11.8819 8.19088 21.8172 9.29327 31.8026C5.93598 31.6528 3.73118 29.8055 3.17998 27.2093ZM35.2998 31.8525C28.2846 32.3018 21.2192 32.9009 14.2039 33.0008C10.6963 33.0507 10.3957 32.202 10.1451 29.1564C9.79436 24.3136 9.14295 19.5206 8.59175 14.7277C8.09066 10.4839 7.58957 6.24015 7.03837 1.89654C16.9599 0.997859 26.3303 1.14764 36.0013 3.59404C36.4523 9.28567 36.8532 14.9773 37.3543 20.7189C37.6549 24.2636 38.0057 27.8084 38.3565 31.4531C37.0536 31.6028 36.2018 31.8026 35.2998 31.8525ZM39.6593 30.6542C38.8074 21.9171 37.9055 13.1799 37.0035 4.09331C42.265 5.89066 43.1168 6.78934 43.217 10.7335C43.3172 15.876 43.7181 21.0184 43.8183 26.2108C43.8183 28.9567 42.1146 30.6542 39.6593 30.6542Z" fill="black"/>
<path d="M27.1815 5.69092C25.6782 5.19165 23.4734 5.59107 21.9702 5.79077C20.0159 5.99048 18.1118 6.43982 16.2577 7.03894C16.0573 6.63953 15.3057 6.68945 15.3057 7.23864C15.3558 8.88622 15.5061 10.4839 15.7566 12.1314C15.8068 12.3811 16.1575 12.5309 16.358 12.4809C18.663 11.8319 20.968 11.4824 23.3231 11.4325C21.6194 17.3238 20.0159 23.2651 18.5627 29.2563C18.5126 29.5059 18.663 29.8055 18.9135 29.8554C21.5693 30.3546 22.2708 27.7585 22.9222 25.7115C24.2752 21.0683 25.578 16.4251 26.9309 11.8319C27.2817 10.2342 29.5366 6.43982 27.1815 5.69092ZM26.8808 8.0874C26.7806 9.43541 26.029 11.083 25.6281 12.3811C24.8765 14.9273 24.1749 17.4736 23.4233 20.0698C22.9723 21.5676 21.8699 28.2577 19.6651 28.8069C21.1183 22.8157 22.7218 16.8745 24.4756 10.9831C24.5758 10.6836 24.3253 10.3341 23.9745 10.3341C21.4691 10.384 19.0638 10.6836 16.6586 11.3326C16.5083 10.2342 16.4081 9.08593 16.358 7.98754C16.4081 7.98754 16.4582 7.98754 16.5083 7.98754C19.0137 7.18872 21.5693 6.68945 24.1749 6.63953C24.7261 6.63953 25.4277 6.53967 25.9288 6.63953C27.2817 6.88916 26.9309 7.13879 26.8808 8.0874Z" fill="black"/>
</svg>
