<svg width="45" height="35" viewBox="0 0 45 35" fill="none" xmlns="http://www.w3.org/2000/svg">
<path d="M44.7085 20.2303C44.2151 15.7069 42.9816 11.3327 42.1427 6.90868C41.8467 5.51687 40.7612 5.01979 39.6756 5.16892C39.6263 4.97009 39.6263 4.77126 39.577 4.57243C39.0342 1.44085 34.2973 2.78295 34.8401 5.91453C36.271 14.2654 37.5046 22.666 38.5901 31.0666C38.8862 33.5023 41.6987 34.4467 43.1789 32.3093C45.35 29.0783 45.1526 23.9584 44.7085 20.2303Z" fill="#47AD4B"/>
<path d="M9.67594 29.6747C9.67594 29.625 9.6266 29.625 9.6266 29.5753C9.77463 29.1777 9.82397 28.6806 9.72528 28.1338C9.47857 26.8911 7.99831 19.2859 7.06081 13.1221C6.76476 10.587 6.61673 8.00223 6.61673 5.41743C6.61673 5.31801 6.61673 5.2186 6.56739 5.11918C9.6266 4.47299 8.29436 -0.249238 5.23515 0.347254C1.7812 1.04316 1.1891 4.02562 1.38647 7.1572C0.843705 11.78 1.23844 16.4525 1.73186 21.125C2.22528 25.549 3.16278 29.7245 6.12331 33.1543C8.29436 35.6397 11.7483 32.1104 9.67594 29.6747Z" fill="#E5332A"/>
<path d="M43.3765 8.64845C43.3272 7.6543 42.7351 6.3619 41.995 5.7157C39.3798 3.42915 36.1233 2.28588 32.8173 1.63968C29.1167 0.894067 25.3667 0.496406 21.6167 0.148453C19.643 -0.0503773 17.6693 0.148453 15.6956 0.0490379C11.2055 -0.149792 6.71536 0.247868 2.37326 1.39114C1.04102 1.7391 0.152865 2.48471 0.103523 4.02565C-0.241872 11.8794 0.547602 19.6338 1.87984 27.2888C2.07721 28.5812 2.91602 30.0227 3.90286 30.818C7.20879 33.3531 11.1562 33.9496 15.2022 33.8502C22.8996 33.6514 30.6463 33.7508 38.2943 32.359C42.5871 31.5637 43.9687 29.7245 43.87 25.9467C43.8206 23.4116 43.87 20.8765 43.87 18.2917C43.7219 18.2917 43.5739 18.2917 43.4259 18.2917C43.4259 15.0607 43.5739 11.8297 43.3765 8.64845ZM3.06405 27.09C1.58379 20.0812 1.23839 13.0227 1.28773 5.86483C1.28773 3.82682 1.78115 2.63383 3.95221 2.435C4.44563 2.3853 4.93905 1.98763 5.67918 1.68939C6.81405 11.8297 7.94892 21.7216 9.03444 31.6631C5.72852 31.514 3.55747 29.6748 3.06405 27.09ZM34.643 31.7128C27.7351 32.1601 20.7779 32.7566 13.87 32.8561C10.416 32.9058 10.12 32.0607 9.87326 29.0286C9.52786 24.2069 8.88642 19.435 8.34365 14.6631C7.85023 10.4379 7.35681 6.21278 6.81405 1.88822C16.5838 0.993482 25.8108 1.14261 35.3338 3.57828C35.7779 9.24494 36.1726 14.9116 36.666 20.628C36.9621 24.1572 37.3075 27.6865 37.6529 31.3151C36.37 31.4642 35.5312 31.6631 34.643 31.7128ZM38.9358 30.5198C38.0969 21.821 37.2088 13.1221 36.3206 4.07535C41.5015 5.86483 42.3404 6.75956 42.439 10.6865C42.5377 15.8063 42.9325 20.9262 43.0312 26.0958C43.0312 28.8297 41.3535 30.5198 38.9358 30.5198Z" fill="black"/>
<path d="M25.9584 14.514C28.0307 13.4204 30.0044 11.78 29.1162 9.19524C27.9814 5.91454 23.3926 4.9701 20.6294 3.82682C20.432 3.72741 20.284 3.82682 20.136 3.92624C20.136 3.92624 20.136 3.92624 20.0866 3.92624C17.3728 4.47302 14.807 6.51103 14.6097 9.49349C14.4616 11.6806 15.6952 13.7186 17.5702 14.6631C15.2018 16.204 15.1524 20.628 15.4978 23.0637C16.0406 26.5929 18.6557 29.128 22.307 29.0286C25.761 28.9292 28.6722 26.1952 29.659 22.9643C30.7939 19.2362 29.0669 16.3034 25.9584 14.514ZM28.9189 21.7713C28.4748 24.5549 26.4024 27.1894 23.5899 27.935C20.432 28.7303 17.4222 26.8414 16.6327 23.7099C16.0406 21.3736 16.0406 15.6572 19.1985 15.1602C19.6919 15.0607 19.6426 14.3151 19.1985 14.2157C16.9287 13.7683 15.3498 11.6806 15.7445 9.29466C16.0899 6.85899 18.2116 5.41747 20.432 4.9701C20.4814 4.9701 20.5307 4.92039 20.5307 4.92039C22.4551 5.666 24.5768 6.2625 26.3037 7.40577C28.0801 8.54905 29.1656 10.8853 27.3399 12.5754C26.5998 13.2713 25.613 13.7186 24.6755 14.1163C24.3301 14.2654 24.3794 14.8122 24.6755 14.9613C27.4386 16.2537 29.4616 18.3912 28.9189 21.7713Z" fill="black"/>
<path d="M22.0601 8.3004C22.0601 8.05186 21.9121 7.85303 21.5667 7.85303C20.3331 7.90273 19.0502 8.69806 18.9515 10.0402C18.8529 11.4817 19.9384 12.3764 21.32 12.3764C22.7015 12.3764 24.0831 11.4817 24.0831 9.99045C24.0831 8.89689 23.0963 8.15127 22.0601 8.3004ZM22.8989 10.7361C22.4548 11.3823 21.468 11.5811 20.7772 11.3823C20.1358 11.1834 19.7904 10.5372 20.0371 9.89104C20.2344 9.29455 20.7772 8.9963 21.3693 8.89689C21.4187 9.19513 21.7147 9.49338 22.1094 9.34425C22.9976 8.89689 23.2937 10.1396 22.8989 10.7361Z" fill="black"/>
<path d="M21.913 17.3473C21.765 17.1982 21.5676 17.1485 21.3209 17.2479C19.6433 18.3415 18.6071 20.4292 19.1992 22.4672C19.742 24.4555 21.7157 25.897 23.788 25.3502C28.2288 24.207 26.4032 16.0052 21.913 17.3473ZM22.8505 24.5052C19.4459 24.5052 19.4459 20.0812 21.5183 18.3415C21.617 18.3912 21.765 18.4409 21.913 18.3912C25.7617 16.9496 26.8472 24.5052 22.8505 24.5052Z" fill="black"/>
</svg>
