<svg width="44" height="34" viewBox="0 0 44 34" fill="none" xmlns="http://www.w3.org/2000/svg">
<path d="M42.6845 15.3605C42.3463 12.4046 42.298 6.6865 39.3991 4.99047C39.3508 4.79663 39.3025 4.55434 39.2541 4.36051C38.5777 1.30765 33.8912 2.61602 34.6159 5.66888C36.307 13.083 37.2732 20.5455 37.5148 28.1535C37.6115 30.7702 41.8148 31.594 42.2497 28.7834C42.9744 24.2768 43.1676 19.8187 42.6845 15.3605Z" fill="#47AD4B"/>
<path d="M9.54044 24.7615C9.15392 22.2901 8.81572 19.8188 8.4292 17.299C7.65617 12.3562 6.93145 7.4135 6.20673 2.42231C5.91684 0.532437 4.03257 0.290146 2.72808 1.11394C1.42358 0.968561 0.0224609 1.74389 0.0224609 3.43993C0.0707755 9.30336 0.457292 15.1668 1.18201 20.9818C1.76179 25.2946 2.24493 29.8496 6.15842 32.4664C7.60785 33.4355 9.15392 32.3694 9.68538 31.0126C10.5067 29.0743 9.83033 26.7968 9.54044 24.7615Z" fill="#E5332A"/>
<path d="M42.5396 8.43106C42.4913 7.4619 41.9115 6.20199 41.1868 5.57203C38.6261 3.34296 35.4374 2.22842 32.2003 1.59847C28.5767 0.871594 24.9048 0.483929 21.2329 0.144722C19.3003 -0.049111 17.3677 0.144722 15.4351 0.0478053C10.9902 -0.146027 6.64188 0.241638 2.34188 1.35617C1.0857 1.69538 0.216042 2.42225 0.119413 3.92446C-0.218789 11.5808 0.554244 19.1403 1.85874 26.6029C2.10031 27.8628 2.87334 29.2681 3.88795 30.0434C7.12503 32.5148 10.9902 33.0963 14.952 32.9993C22.4891 32.8055 30.0745 32.9024 37.5632 31.5456C41.7666 30.7703 43.1194 28.9773 43.0228 25.2945C42.9745 22.8231 43.0228 20.3518 43.0228 17.8319C42.8778 17.8319 42.7329 17.8319 42.5879 17.8319C42.5879 14.6822 42.6846 11.5324 42.5396 8.43106ZM3.01829 26.409C1.56885 19.5764 1.23065 12.6954 1.27896 5.71741C1.27896 3.73062 1.76211 2.56763 3.88795 2.3738C4.41941 2.32534 4.90256 1.93767 5.62728 1.64692C6.73851 11.5324 7.84975 21.1756 8.91267 30.8672C5.67559 30.7218 3.54975 28.9289 3.01829 26.409ZM33.9879 30.9156C27.2239 31.3518 20.4115 31.9333 13.6475 32.0302C10.2655 32.0786 9.97559 31.2548 9.73402 28.2989C9.39582 23.5985 8.76773 18.9465 8.23627 14.2945C7.75312 10.1756 7.26997 6.05661 6.73851 1.84076C16.3048 0.96851 25.3396 1.11388 34.6644 3.48833C35.0992 9.01256 35.4857 14.5368 35.9688 20.1095C36.2587 23.55 36.5969 26.9905 36.9351 30.528C35.679 30.6733 34.8576 30.8672 33.9879 30.9156ZM38.143 29.7526C37.3217 21.2725 36.452 12.7923 35.5823 3.97291C40.6554 5.71741 41.4767 6.58965 41.5733 10.4178C41.67 15.409 42.0565 20.4002 42.1531 25.4399C42.2014 28.1051 40.5587 29.7526 38.143 29.7526Z" fill="black"/>
<path d="M28.4796 14.4883C28.2864 11.0478 26.8369 6.29885 23.165 5.18432C23.0201 5.13586 22.8751 5.18432 22.7785 5.23278C16.9324 3.48828 12.0527 9.59401 13.5504 15.2152C14.6617 19.2856 19.5897 21.4178 22.7785 18.8495C22.5369 20.2063 22.1987 21.6116 21.3291 22.7262C19.9279 24.5191 16.9808 25.4398 15.7246 22.8231C15.6279 22.6292 15.3864 22.5808 15.1931 22.5808C11.6178 23.2107 12.6324 27.3781 14.9515 28.8804C18.6234 31.2548 22.4403 29.0742 24.8077 25.9729C27.3201 22.7746 28.7212 18.5588 28.4796 14.4883ZM27.0785 19.2372C26.0639 23.4046 22.1987 30.3826 16.9324 28.7834C16.2077 28.5411 15.3864 28.105 14.8066 27.572L14.0819 26.6997C14.4201 25.7306 14.8066 24.8099 15.1448 23.8407C15.3381 23.8407 15.8695 24.6645 16.1111 24.8099C17.1257 25.4883 18.4302 25.6337 19.5414 25.246C22.8268 24.1799 23.5515 20.3517 23.9864 17.3958C24.0347 16.8627 23.31 16.8143 23.0684 17.1535C20.1695 21.3693 14.6617 17.9773 14.2751 13.8099C13.8403 9.10943 17.8987 4.65128 22.7302 6.20194C22.8751 6.2504 23.0201 6.20194 23.1167 6.15348C27.7066 7.80106 28.0448 15.3121 27.0785 19.2372Z" fill="black"/>
<path d="M22.6338 11.7746C22.1024 9.69091 20.2664 9.30325 18.3822 9.35171C18.1889 9.30325 17.9956 9.35171 17.8507 9.54554C16.6911 11.0962 15.8215 13.1799 16.7878 15.0698C17.6091 16.6204 19.5417 17.4927 21.1361 16.4266C22.4889 15.4574 23.0204 13.3737 22.6338 11.7746ZM20.7013 15.4574C19.2035 16.6689 17.4159 15.1182 17.3192 13.4706C17.2226 12.3077 17.8024 11.1931 18.4788 10.2724C19.8799 10.224 21.3294 10.3693 21.7159 11.9684C22.0058 13.1799 21.6676 14.6821 20.7013 15.4574Z" fill="black"/>
</svg>
