<svg width="80" height="134" viewBox="0 0 80 134" fill="none" xmlns="http://www.w3.org/2000/svg">
<path d="M65.3401 22.0211C65.3401 21.8591 65.3401 21.6971 65.2861 21.4812C65.0161 19.1053 62.9102 17.2693 60.4803 17.3773C59.8324 17.4313 59.2384 17.5933 58.7524 17.8633C58.2664 17.8093 57.7804 17.8633 57.3485 17.9173C57.1865 17.4313 56.9705 16.9994 56.6465 16.5674C56.4305 15.9734 56.1065 15.4334 55.6205 14.9474C54.2706 13.5975 52.2727 13.6515 50.9228 14.6775C50.8148 14.7315 50.6528 14.7855 50.5448 14.8395C50.2208 15.0014 49.9508 15.2174 49.7348 15.4334C49.3568 15.3794 48.9249 15.3794 48.5469 15.4874C48.4929 14.9474 48.3849 14.4075 48.0609 13.8675C47.0889 12.0316 44.767 11.3296 42.8231 11.8156C41.9052 12.0856 41.1492 12.5716 40.6092 13.2195C40.1232 13.2195 39.6373 13.3275 39.1513 13.4895C39.0973 13.4355 38.9893 13.3275 38.9353 13.2735C37.8554 12.2476 36.4514 11.8696 35.0475 12.1396C34.2375 12.0316 33.4276 12.1936 32.7256 12.5716C30.9977 13.4895 30.2957 15.6494 30.8357 17.4313C30.4577 17.4853 30.1337 17.6473 29.8097 17.8093C28.4598 16.4594 26.1379 16.1894 24.464 17.3233C24.086 17.5933 23.762 17.9173 23.492 18.2953C23.276 18.4033 23.06 18.5653 22.898 18.6733C22.3581 19.1053 21.8721 19.6452 21.6021 20.2392C20.7381 21.1032 20.2521 22.3451 20.3601 23.5871C19.8742 23.749 19.4422 24.127 19.1182 24.721C19.0642 24.775 19.0642 24.829 19.0642 24.883C17.8223 25.315 16.9043 26.3949 16.6883 27.5829C16.1483 28.1769 15.7703 28.9328 15.7703 29.7428C15.7703 30.8227 16.4183 31.7407 17.2823 32.3347C16.6883 32.3887 16.0943 32.6046 15.5544 33.0366C15.0684 33.4686 14.7444 33.9546 14.6364 34.4406C14.0964 34.8725 13.7184 35.4125 13.5564 36.0065C12.7465 36.8705 12.6385 38.2744 13.2325 39.3003C13.2325 39.3003 13.2325 39.3543 13.2865 39.3543C13.1245 39.5703 13.0165 39.7323 12.9625 39.9483C12.6925 39.7863 12.4225 39.6783 12.0985 39.6243C10.5866 39.3003 9.07465 40.1103 8.42668 41.4063C6.75276 42.9722 7.34673 45.5641 9.18265 46.698C10.8566 47.778 12.9085 47.184 13.9884 45.6721C15.1224 45.0241 15.7703 43.8901 16.0403 42.5942C16.4723 42.4862 16.8503 42.2702 17.1743 42.0002C17.9843 41.3523 18.4702 40.3803 18.5782 39.3543C18.7942 39.1384 18.9562 38.8684 19.1182 38.5984C19.7122 38.1124 20.1981 37.4644 20.4681 36.7625C21.9261 35.4665 22.844 33.2526 23.006 31.5247C23.546 30.9307 23.978 30.1748 24.086 29.3108C24.086 29.2568 24.086 29.1488 24.086 29.0948C24.9499 28.7708 25.8139 28.2308 26.5159 27.5289C26.8938 27.4209 27.2718 27.2589 27.5958 27.0429C28.0818 26.7729 28.5138 26.3409 28.9458 25.909C29.8637 25.423 30.6197 24.721 31.2676 23.857C31.4296 23.911 31.6456 23.965 31.8076 23.965C33.2656 24.127 34.8315 23.5331 36.0734 22.5611C37.0994 22.1291 38.0173 21.4272 38.7193 20.6172C39.5833 21.1572 40.6632 21.3192 41.6352 21.1032C42.3911 21.5352 43.2551 21.8051 44.1731 21.8591C45.307 21.9131 46.387 21.6431 47.4129 21.2652C47.6289 21.5351 47.8989 21.7511 48.2229 21.9671C49.4108 22.7231 50.8688 23.0471 52.2727 22.9391C52.9747 23.749 54.0546 24.289 55.1346 24.505C55.7285 25.315 56.5385 25.855 57.5105 26.1249C58.4824 27.3129 60.2103 27.7449 61.8303 27.1509C63.4502 26.5569 64.6381 25.153 65.1241 23.5331C65.2861 23.1551 65.3941 22.5611 65.3401 22.0211ZM45.037 16.0814C44.983 15.9734 44.983 15.8654 44.929 15.7574C44.983 15.8114 45.037 15.9194 45.037 16.0814Z" fill="#39B100"/>
<path d="M62.424 98.1577C61.506 97.2937 60.4801 97.4557 59.5081 98.1037C59.1301 98.0497 58.6982 98.1577 58.3202 98.5357C58.2662 98.6437 58.1582 98.6977 58.0502 98.8057C57.1322 99.1296 56.3223 99.7776 55.7283 100.642C55.6203 100.858 55.4583 101.02 55.3503 101.29C54.5404 101.884 53.6764 102.423 52.7584 102.909C52.5424 102.909 52.3805 102.909 52.1645 102.963C50.9225 103.125 49.7886 103.665 48.8706 104.421C42.4449 106.203 35.1552 105.231 28.7835 103.287C28.1355 103.071 27.5956 103.341 27.2716 103.773C24.0317 101.722 20.9539 105.393 20.7379 108.417C20.6299 110.037 21.3319 111.711 22.7358 112.575C24.2477 113.493 26.1376 113.115 27.5956 112.197C28.5675 111.603 29.3235 110.739 29.8095 109.821C29.8095 110.253 29.8635 110.631 29.9715 111.009C29.9715 111.009 29.9715 111.009 29.9715 111.063C29.8095 112.143 30.0795 113.277 30.8354 114.195C32.6173 116.355 35.9112 115.977 37.9091 114.357C38.2871 114.087 38.6111 113.709 38.8811 113.385C39.853 115.113 41.7429 116.247 43.7408 115.815C44.6588 115.653 45.4688 115.167 46.0627 114.519C46.1707 114.465 46.2787 114.411 46.3867 114.357C46.3867 114.357 46.4407 114.357 46.4407 114.303C47.0887 113.925 47.6827 113.331 48.0607 112.683C49.7886 114.573 52.8664 115.167 55.1343 113.547C56.7543 112.359 57.5102 110.577 57.4022 108.795C57.4562 108.687 57.4562 108.525 57.5102 108.417C58.8062 108.417 60.0481 107.661 60.9121 106.743C62.046 105.609 62.802 104.097 63.126 102.531C63.342 100.966 63.504 99.1836 62.424 98.1577Z" fill="#39B100"/>
<path d="M16.5801 32.6051C16.4721 32.4971 16.3641 32.2811 16.2021 32.1191C15.6082 31.4172 15.1762 30.6072 15.0142 29.6892C14.8522 28.4473 15.5542 27.4753 16.3101 26.6114C17.3361 25.4234 18.632 24.8295 20.09 24.5055C20.6299 24.3975 21.1699 24.1815 21.7099 24.0195C22.1959 23.8575 22.1959 23.6415 21.8719 23.2635C21.6019 22.9935 21.3859 22.7236 21.1699 22.3996C20.9539 22.0216 20.9539 21.5356 21.2239 21.1576C21.6559 20.5097 21.9799 19.7537 22.5198 19.2137C23.7618 18.1338 25.1657 17.3778 26.8936 17.3778C27.7576 17.3778 28.3516 17.1078 28.8916 16.3518C29.5935 15.4339 30.5115 14.6239 31.3214 13.76C32.9954 11.924 34.6693 10.0881 36.2892 8.25221C37.9091 6.47029 39.4751 4.68837 41.041 2.90645C41.635 2.20448 42.175 1.50252 42.7149 0.800548C43.0389 0.368567 43.3089 0.368567 43.5789 0.800548C44.0109 1.39452 44.3889 2.04249 44.7668 2.69046C44.8748 2.85246 44.9828 3.06845 45.0908 3.17644C46.2248 4.20239 47.3047 5.33634 48.5467 6.2543C49.5186 7.01027 50.2746 8.09022 51.0306 9.11617C51.7865 10.0881 52.4885 11.0601 53.1905 12.086C53.5144 12.518 53.6764 13.112 54.2164 13.382C54.2704 13.436 54.3244 13.544 54.3244 13.598C54.3244 14.3539 54.8104 14.4079 55.4044 14.5699C55.9983 14.7319 56.5923 15.0019 57.1323 15.3259C57.7802 15.7039 58.0502 16.3518 58.1042 17.1078C58.1582 17.8638 58.2662 17.9178 58.9142 17.4858C60.3181 16.5678 61.7761 16.4058 63.234 17.3238C64.098 17.8638 64.5299 18.7817 64.8539 19.6997C65.3399 21.0496 65.4479 22.3996 65.4479 23.8035C65.4479 23.9115 65.4479 24.0195 65.5019 24.1275C65.5019 24.1815 65.5559 24.2355 65.5559 24.2355C66.2039 24.1275 66.8518 23.9115 67.4998 23.9115C68.7418 23.9115 69.8757 24.3435 70.7397 25.3154C71.9816 26.7194 72.0356 28.3933 71.6576 30.1212C71.5496 30.5532 71.4956 31.0392 71.3876 31.6332C71.6576 31.5252 71.8196 31.4712 71.9816 31.3632C73.1695 30.7152 74.3575 31.2552 74.8975 32.4971C75.5454 34.063 75.4914 35.683 75.0595 37.3029C74.8435 38.1129 74.5195 38.9228 74.2495 39.7868C74.3575 39.7868 74.5735 39.7868 74.7355 39.7868C75.4374 39.8408 76.1934 39.8408 76.8954 40.0028C77.5434 40.1108 77.8133 40.5967 77.9213 41.2447C78.0833 42.3247 77.8133 43.2966 77.4893 44.2686C77.1114 45.3485 76.6254 46.4285 76.1934 47.5084C76.0314 47.9404 76.1394 48.2644 76.5174 48.4804C77.3814 48.9124 77.8673 49.6683 78.4073 50.4243C78.5153 50.5323 78.5153 50.6943 78.5693 50.8563C79.0013 52.9082 78.4073 54.7441 77.2734 56.472C77.1114 56.688 76.8954 56.85 76.7334 57.066C76.4094 57.444 76.4634 57.66 76.9494 57.768C77.5434 57.93 78.0293 58.146 78.3533 58.6859C78.7313 59.3339 79.1633 59.9279 79.0553 60.6838C79.0013 61.2238 78.7313 61.7098 78.4613 62.1958C78.0293 63.0597 77.4894 63.9237 76.7874 64.6257C76.4634 64.9496 76.2474 65.3276 75.9774 65.7596C75.9234 65.8136 75.9774 66.0296 76.0854 66.0836C76.2474 66.2456 76.4094 66.4076 76.6254 66.5696C77.2734 67.0016 77.4354 67.5955 77.3274 68.2975C77.2194 69.5394 76.5714 70.5654 75.8694 71.5374C75.7074 71.7533 75.5454 71.9693 75.3834 72.1853C74.7895 72.9953 74.1955 73.8052 73.6015 74.5612C73.3315 74.9392 73.3315 75.1552 73.8175 75.4792C74.6275 76.0731 75.1675 76.8291 75.4914 77.7471C75.7074 78.503 75.4374 79.097 75.2215 79.745C75.0055 80.339 74.6815 80.9329 74.3575 81.5269C73.8715 82.4449 73.3315 83.3088 72.7916 84.1728C72.6836 84.3888 72.5216 84.6048 72.3056 84.7668C71.6576 85.4687 71.0097 86.1707 70.3077 86.8727C70.0917 87.0886 70.0917 87.3046 70.3077 87.4666C71.4416 88.5466 71.6036 89.7885 71.2796 91.2465C70.8476 93.0824 69.6057 94.2703 68.2558 95.4043C67.2838 96.2142 66.2579 96.9702 65.2319 97.6722C64.8539 97.9422 64.7459 98.2661 64.8539 98.6981C64.9079 98.9141 64.9619 99.1301 65.0699 99.3461C65.6099 100.858 65.2859 102.316 64.4219 103.612C63.612 104.854 62.37 105.664 61.0201 106.258C60.5341 106.474 59.9941 106.69 59.5082 106.906C59.1842 107.014 59.0762 107.176 59.1302 107.554C59.2382 108.04 59.2922 108.526 59.2382 109.012C59.1842 109.444 59.1302 109.93 58.8602 110.254C57.8342 111.55 56.5383 112.413 54.7564 112.252C53.5684 112.144 52.3805 112.144 51.1385 112.09C50.5986 112.036 50.1126 111.874 49.5726 111.82C49.0326 111.766 48.9246 111.874 49.0866 112.414C49.1946 112.791 49.2486 113.223 49.2486 113.601C49.2486 114.141 49.0326 114.519 48.5467 114.843C46.2788 116.517 44.0649 115.815 41.905 114.735C41.419 114.465 40.933 114.141 40.447 113.871C40.069 113.655 39.8531 113.763 39.5831 114.033C39.1511 114.465 38.7191 114.897 38.2331 115.275C37.2612 116.085 36.0732 116.193 34.8853 116.139C34.1293 116.085 33.2654 115.923 32.5634 115.599C31.2135 115.005 29.9715 114.195 29.3235 112.791C29.2695 112.683 29.1615 112.521 28.9996 112.36C28.5676 112.575 28.1356 112.737 27.7576 113.007C26.2457 113.925 24.1938 113.547 22.9518 112.306C22.0339 111.442 21.7639 110.362 21.3319 109.228C21.2779 109.12 21.2779 109.012 21.2779 108.958C21.1699 108.634 21.0619 108.31 20.8999 108.04C20.5759 107.608 20.3059 108.148 20.036 108.256C18.902 108.688 17.7681 108.742 16.6341 108.58C16.3641 108.526 16.1481 108.418 15.9321 108.31C14.7442 107.554 13.9882 106.474 13.6642 105.124C13.3943 103.882 13.2323 102.64 13.0163 101.398C12.9623 101.02 12.8003 100.912 12.4223 101.02C11.5583 101.29 10.7484 101.182 9.88442 101.02C9.56043 100.966 9.23645 100.912 8.91246 100.858C8.69647 100.804 8.48048 100.75 8.31849 100.696C7.45453 100.156 6.59057 99.5081 6.26658 98.5361C5.9426 97.5642 5.61861 96.5382 5.61861 95.5663C5.56461 94.2703 5.8886 92.9204 5.99659 91.6244C6.05059 90.9225 6.05059 90.9225 5.29463 90.8145C4.86265 90.7605 4.37667 90.6525 3.94469 90.6525C3.02673 90.5985 2.48675 89.9505 2.05477 89.3025C1.29881 88.1146 1.4608 86.9267 2.05477 85.7387C2.59475 84.6048 3.08073 83.4708 3.5667 82.2829C3.7287 81.9589 3.7287 81.6349 3.24272 81.5269C2.91873 81.4729 2.59475 81.3649 2.32476 81.2029C1.35281 80.7709 0.974823 79.853 0.704835 78.881C0.59684 78.449 0.542842 77.9631 0.488845 77.4771C0.380849 76.3431 0.704835 75.2632 0.974823 74.2372C1.19081 73.5353 1.67679 72.8873 2.10877 72.2393C2.48675 71.6993 2.91873 71.1594 3.29672 70.6194C3.35071 70.5114 3.24272 70.2954 3.24272 70.1334C3.24272 70.1334 3.24272 70.1334 3.18872 70.0794C1.78479 69.3774 1.4068 68.1895 1.5148 66.7316C1.62279 65.5976 2.00078 64.5177 2.97273 63.7617C3.6747 63.1677 3.6207 63.2217 3.02673 62.5738C2.48675 61.9798 2.05477 61.2778 1.62279 60.6298C1.4068 60.3059 1.24481 59.9819 1.24481 59.6039C1.13682 58.4699 1.78479 57.66 2.59475 57.012C3.35071 56.418 4.16068 55.9861 4.97064 55.5001C5.51062 55.1761 5.51062 55.0141 5.07864 54.5821C4.75465 54.2041 4.48466 53.7182 4.32267 53.2322C3.94469 52.1522 4.21468 51.2343 4.80865 50.3163C5.61861 49.0744 6.69856 48.1024 7.88651 47.2384C8.31849 46.9145 8.37249 46.7525 7.94051 46.4285C7.23854 45.7265 6.91455 44.9166 7.23854 43.9446C7.40053 43.5126 7.45453 43.0266 7.61652 42.6487C8.26449 41.1367 9.45244 40.2188 11.0184 39.7868C11.4503 39.6788 11.9363 39.5168 12.3683 39.3548C12.7463 39.1928 12.5303 39.0308 12.3683 38.8148C11.9363 38.3288 11.6663 37.7349 11.7743 37.0869C11.9903 35.845 12.4763 34.765 13.6103 34.117C14.6902 33.4151 15.6082 33.0371 16.5801 32.6051ZM64.9079 22.8855C64.8539 22.8855 64.7999 22.8855 64.7459 22.8855C64.7999 21.5356 64.4759 20.2397 63.882 19.0517C63.504 18.3498 62.964 17.8098 62.154 17.5938C60.7501 17.2158 58.9142 17.9178 58.0502 19.1057C57.9422 19.2677 57.6723 19.3217 57.4563 19.4297C57.4023 19.2137 57.3483 18.9437 57.3483 18.7277C57.3483 18.1338 57.4563 17.5398 57.4563 16.9458C57.4023 16.2978 57.0243 15.8659 56.3763 15.6499C55.7283 15.4339 55.0264 15.2179 54.3784 15.0559C52.3805 14.4619 50.2746 15.3799 49.3026 17.1618C49.2486 17.2698 49.0326 17.3778 48.9246 17.4318C48.8167 17.4318 48.6547 17.2698 48.6007 17.1618C48.4387 16.8918 48.3847 16.5678 48.2767 16.2978C47.1427 13.922 45.6848 12.788 43.0389 12.95C42.2829 13.004 41.797 13.328 41.527 14.03C41.365 14.5159 41.203 15.0559 40.987 15.4879C40.933 15.6499 40.717 15.7579 40.555 15.9199C40.447 15.8119 40.285 15.6499 40.231 15.5419C40.069 14.9479 39.6911 14.6239 39.2051 14.2999C38.9891 14.1379 38.7191 14.0299 38.5031 13.922C37.6932 13.598 36.8292 13.274 35.9112 13.544C33.5893 14.1379 32.1314 15.7039 31.2675 17.8638C31.2135 17.9718 31.1595 18.1878 31.2135 18.2958C31.4834 18.8357 31.8074 19.3757 32.0234 19.9157C32.0774 20.0777 32.0234 20.2397 32.0234 20.4017C31.8614 20.3477 31.6454 20.4017 31.4834 20.2937C31.3214 20.1857 31.2135 19.8617 30.9975 19.8617C30.3495 19.6997 30.0255 19.2137 29.6475 18.7817C29.4315 18.5117 28.8916 18.4038 28.5136 18.2958C27.5416 18.0258 26.5697 18.1878 25.6517 18.4577C23.9238 18.8897 22.6278 19.8077 21.9799 21.5356C21.8179 21.9676 21.8719 22.3456 22.2499 22.6156C22.6278 22.8855 23.1138 23.1555 23.4918 23.4255C23.6538 23.5875 23.8698 23.8575 23.8698 24.0735C23.8698 24.2355 23.5458 24.4515 23.3838 24.5595C22.4119 24.8295 21.4399 25.0994 20.4679 25.3154C18.848 25.6934 17.4981 26.4494 16.5261 27.7993C15.7702 28.8253 15.6622 29.9052 16.3101 30.9852C16.7421 31.7411 17.3901 32.2811 18.146 32.7131C18.362 32.8211 18.578 33.1451 18.578 33.3611C18.578 33.7391 18.2 33.7931 17.8761 33.8471C17.1201 33.955 16.3101 33.7931 15.5542 34.171C14.5822 34.657 13.6103 35.197 13.1243 36.2769C12.8543 36.9789 12.9623 38.1129 13.4483 38.4368C13.8802 38.7608 14.3662 39.0848 14.7982 39.4088C15.0142 39.5708 15.3382 39.6788 15.2302 40.0028C15.0682 40.3268 14.7982 40.3808 14.4202 40.3268C13.6642 40.1648 12.9623 40.0568 12.1523 40.2728C10.3704 40.7587 9.02046 41.7307 8.48048 43.6206C8.0485 45.0785 8.53448 45.9965 9.99241 46.4285C10.4244 46.5365 10.9104 46.5905 11.3424 46.6985C11.5043 46.7525 11.6663 46.9685 11.8283 47.0765C11.6663 47.2384 11.5043 47.5084 11.2884 47.5084C10.8564 47.5624 10.4244 47.4544 10.0464 47.5624C9.61443 47.6164 9.07446 47.7244 8.69647 47.9944C7.50853 48.7504 6.48257 49.7223 5.72661 50.9643C5.07864 51.9902 5.40262 53.8801 6.80656 54.2041C7.02255 54.2581 7.29254 54.3121 7.45453 54.4201C7.77851 54.5821 7.88651 54.8521 7.56252 55.0681C7.18454 55.3381 6.80656 55.6081 6.42858 55.7701C5.18663 56.31 4.05268 57.012 3.08073 57.93C2.48675 58.4699 2.37876 59.3339 2.75674 59.9819C2.86474 60.1979 2.97273 60.4139 3.13472 60.6298C3.6747 61.4938 4.32267 62.1418 5.34862 62.4118C5.56461 62.4658 5.72661 62.6278 5.8886 62.7897C5.72661 63.0057 5.61861 63.2757 5.40262 63.3837C3.29672 64.1397 2.81074 65.6516 2.86474 67.4875C2.86474 68.1355 3.29672 68.9995 4.21468 69.1075C4.64666 69.1615 5.07864 69.1615 5.51062 69.2695C5.72661 69.3234 5.8886 69.4854 6.10459 69.5934C5.99659 69.8094 5.8886 70.0254 5.7806 70.1874C5.67261 70.2954 5.51062 70.3494 5.40262 70.4034C4.91664 70.6734 4.37667 70.9434 3.99869 71.3754C2.27076 73.3193 1.4068 75.5872 1.78479 78.287C1.94678 79.205 2.64875 80.015 3.5667 80.231C4.05268 80.339 4.59266 80.285 5.13263 80.285C5.29463 80.285 5.56461 80.285 5.61861 80.393C5.67261 80.5009 5.61861 80.7169 5.56461 80.8789C5.51062 81.0409 5.34862 81.2029 5.24063 81.3649C3.99869 82.9848 3.29672 84.8747 2.75674 86.8187C2.37876 88.1686 3.24272 89.2486 4.64666 89.4105C5.45662 89.5185 6.26658 89.5725 7.07655 89.6265C7.61652 89.6805 7.72452 89.8965 7.50853 90.4365C6.64457 92.3804 6.37458 94.3783 6.80656 96.4842C6.96855 97.3482 7.23854 98.1581 7.88651 98.8061C9.18245 100.048 11.3424 100.372 12.9083 99.5621C13.1243 99.4541 13.3403 99.2921 13.5563 99.1841C13.7182 99.1301 13.9342 99.0761 14.0422 99.1841C14.1502 99.2381 14.1502 99.5081 14.1502 99.6701C14.0962 100.426 13.9342 101.182 13.9882 101.938C14.0962 103.396 14.3122 104.8 15.1222 106.042C15.8242 107.068 16.6881 107.716 17.9841 107.554C19.064 107.446 20.036 106.96 20.8999 106.312C21.0619 106.204 21.3319 106.042 21.4399 106.096C21.6019 106.204 21.7099 106.474 21.7639 106.69C21.8179 106.906 21.7639 107.122 21.8179 107.284C21.9799 108.418 22.1959 109.552 22.7898 110.578C23.4918 111.712 24.4638 112.414 25.8137 112.414C27.0016 112.414 27.9196 111.766 28.7296 111.01C29.1075 110.632 29.3775 110.686 29.5395 111.226C30.0795 112.899 31.3754 113.925 32.8874 114.735C33.2654 114.951 33.7513 114.951 34.1833 115.059C35.6952 115.437 36.9912 115.113 38.1791 114.141C38.7191 113.709 39.1511 113.115 39.3131 112.36C39.3671 112.144 39.5291 111.982 39.5831 111.82C39.7451 111.928 39.9611 112.036 40.123 112.198C40.447 112.521 40.663 112.953 40.987 113.223C41.851 114.033 42.9309 114.411 44.1189 114.627C44.8748 114.789 45.6848 114.951 46.4408 114.789C48.0607 114.411 48.6547 113.817 48.1687 112.306C48.0067 111.874 48.0607 111.442 48.0067 111.01C47.9527 110.632 48.1147 110.524 48.4927 110.578C48.9246 110.686 49.3566 110.794 49.7886 110.848C50.9766 111.01 52.2185 111.172 53.4064 111.226C54.9184 111.334 56.4303 111.334 57.6183 110.092C58.1042 109.606 58.5362 109.12 58.3742 108.364C58.2662 107.878 58.1042 107.338 57.9962 106.852C57.8882 106.474 57.9422 106.258 58.3742 106.15C59.5082 105.88 60.5881 105.394 61.6141 104.854C62.856 104.206 63.72 103.234 64.206 101.884C64.5839 100.75 64.5299 99.6701 63.936 98.6441C63.504 97.8882 63.504 97.8882 64.098 97.3482C64.26 97.1862 64.3679 97.0782 64.5839 96.9702C65.7179 96.1602 66.9058 95.4043 67.9858 94.5403C69.2277 93.5684 70.2537 92.3804 70.5777 90.7605C70.8477 89.1945 70.7397 88.1686 68.7957 87.6826C68.5258 87.6286 68.2558 87.5206 67.9858 87.3586C67.8238 87.2506 67.7698 87.0346 67.6618 86.8727C67.8238 86.7647 67.9858 86.6027 68.1478 86.6567C68.6878 86.6567 69.1737 86.4947 69.5517 86.1167C70.2537 85.4687 71.0636 84.8747 71.6036 84.1188C72.5756 82.7148 73.4395 81.2569 74.2495 79.799C74.6815 79.043 74.8975 78.233 74.4115 77.4231C73.9255 76.6131 73.3855 75.8032 72.3056 75.6952C72.1436 75.6952 71.9816 75.6412 71.8736 75.5332C71.6576 75.3712 71.5496 75.1012 71.8736 74.8852C73.0076 74.1292 73.7095 72.9953 74.5195 71.9693C75.2755 70.9434 75.9774 69.8634 76.3554 68.5675C76.5714 67.7575 76.3554 67.1636 75.6534 66.7856C75.3295 66.6236 75.0595 66.5156 74.7355 66.3536C74.3575 66.1916 74.3035 65.9216 74.5735 65.6516C74.7895 65.4356 75.0055 65.2196 75.2215 65.0036C76.3014 63.8697 77.2734 62.6818 77.8673 61.2238C78.4073 59.8739 77.4894 58.3619 76.0854 58.3079C75.7074 58.3079 75.3295 58.254 74.9515 58.2C74.7895 58.146 74.6275 57.984 74.5195 57.876C74.5195 57.822 74.6815 57.606 74.7895 57.498C75.0595 57.228 75.3834 56.958 75.6534 56.688C77.0574 55.2301 77.9213 53.5562 77.7053 51.4503C77.5974 50.2083 76.5714 49.0744 75.3294 48.9124C74.9515 48.8584 74.8435 48.5884 75.0055 48.2104C75.4914 47.0225 76.0314 45.8345 76.4634 44.6466C76.7874 43.7286 77.2734 42.8106 77.2194 41.7307C77.1654 40.9207 77.0034 40.6507 76.1934 40.4888C76.0314 40.4348 75.8154 40.4348 75.6534 40.4348C74.7895 40.4888 73.9795 40.4348 73.1695 40.7587C73.0076 40.8127 72.7916 40.7047 72.6296 40.6507C72.6836 40.4888 72.6836 40.3268 72.7916 40.2188C73.9795 39.0848 74.3035 37.6269 74.5735 36.115C74.7355 34.927 74.6815 33.7931 74.1955 32.7131C73.7635 31.7411 72.8996 31.5252 72.0896 32.1731C71.6036 32.5511 71.1716 33.0371 70.6317 33.4151C70.4697 33.5231 70.1997 33.5231 70.0377 33.6311C70.0377 33.4151 69.9837 33.1991 70.0917 33.0371C70.7937 31.5252 71.1716 29.9592 71.2256 28.3393C71.2256 26.4494 69.7137 24.8295 67.8238 24.7215C66.7438 24.6135 65.8799 25.1534 65.0159 25.7474C64.9079 25.8554 64.6919 25.8014 64.5299 25.8554C64.4759 25.6934 64.4219 25.5314 64.4219 25.3694C64.5299 24.3975 64.6919 23.6415 64.9079 22.8855ZM53.1905 13.922C52.9745 13.49 52.8125 13.112 52.5425 12.734C51.7865 11.6001 51.0845 10.4121 50.2746 9.27816C49.5726 8.25221 48.8167 7.33425 47.7907 6.57829C46.1708 5.39034 44.6588 4.1484 43.7949 2.25848C43.7409 2.15049 43.6329 2.04249 43.5789 1.9345C43.2009 1.39452 43.0389 1.39452 42.6069 1.9345C41.095 3.71642 39.5291 5.55233 37.9631 7.38825C36.9372 8.5762 35.7492 9.65615 34.7233 10.8441C33.4274 12.302 32.1854 13.76 30.9435 15.2179C30.4575 15.8119 29.9175 16.3518 29.4315 16.9998C29.3235 17.1078 29.2695 17.4858 29.3235 17.5398C29.5395 17.7018 29.8635 17.9178 30.1335 17.9178C30.2955 17.9178 30.5115 17.6478 30.6195 17.4858C31.3754 15.9199 32.4014 14.5159 33.9133 13.598C34.2913 13.382 34.6693 13.166 35.0473 13.058C36.9372 12.41 38.5571 13.058 40.123 14.0839C40.663 14.4619 40.771 14.4619 40.987 13.868C41.257 12.95 41.797 12.41 42.8229 12.356C44.1189 12.248 45.4148 12.41 46.4948 13.166C47.4667 13.814 48.3307 14.6239 48.8167 15.7579C48.9786 16.1359 49.1946 16.1359 49.4646 15.8119C50.1126 15.1099 50.9766 14.6779 51.9485 14.5159C52.2725 14.4619 52.6505 14.4619 52.9745 14.3539C52.9205 14.1919 53.0285 14.0299 53.1905 13.922Z" fill="#251C1C"/>
<path d="M72.0897 52.7464C71.8197 51.2344 71.5497 49.7225 71.2797 48.2106C71.1177 47.3466 71.1177 46.4286 70.8478 45.5647C70.4698 44.1068 69.9298 42.6488 69.4978 41.1909C69.3358 40.6509 69.2278 40.0569 68.9578 39.517C68.4719 38.545 67.9319 37.573 67.3919 36.6011C66.9599 35.7911 66.582 34.9272 66.096 34.1712C65.34 33.0373 64.53 31.9033 63.7741 30.8234C63.5041 30.3914 63.2341 29.9594 62.9101 29.5814C62.2081 28.8794 61.4522 28.2315 60.7502 27.5835C59.4543 26.3416 57.8343 25.5856 56.2144 24.7756C55.5125 24.4516 54.7565 24.3436 54.0545 24.0197C52.9206 23.4257 51.8406 22.7237 50.7067 22.1297C49.0327 21.1578 47.2508 20.6178 45.4149 20.1318C45.3069 20.1318 45.1989 20.1858 45.0909 20.2398C44.9829 20.2938 44.8209 20.3478 44.7129 20.3478C43.309 20.3478 41.9051 20.2938 40.5011 20.2938C40.1231 20.2938 39.7452 20.2938 39.3672 20.4018C38.0712 20.8338 36.7213 21.2118 35.4794 21.8058C34.1834 22.3997 32.9415 23.1017 31.7535 23.8577C30.5656 24.6136 29.4316 25.5316 28.3517 26.3956C27.7037 26.9355 27.1097 27.5835 26.5158 28.1775C25.5438 29.1494 24.4639 30.0674 23.5459 31.1473C22.196 32.6593 20.9 34.2252 19.6581 35.7911C18.9021 36.7631 18.1461 37.843 17.4982 38.923C16.9042 39.9489 16.3642 40.9749 15.8242 42.0548C15.1223 43.4588 14.4203 44.8627 13.7723 46.3207C13.3404 47.2926 13.0164 48.3186 12.6384 49.2905C11.9904 50.9104 11.2345 52.5304 10.8025 54.2043C10.1005 56.9042 9.56053 59.604 8.96656 62.3039C8.85856 62.6819 8.91256 63.1139 8.85856 63.4919C8.69657 64.5718 8.48058 65.5978 8.37258 66.6237C8.26459 67.8117 8.26459 69.0536 8.1026 70.2956C7.88661 72.0775 7.9946 73.8054 8.21059 75.5873C8.37258 77.3693 8.69657 79.1512 9.07455 80.8791C9.39854 82.391 9.93851 83.903 10.3705 85.4149C10.6945 86.3868 11.0185 87.3048 11.4504 88.2228C11.8284 89.0867 12.3144 89.8427 12.7464 90.6526C13.2324 91.6246 13.6643 92.6506 14.4203 93.4605C15.0683 94.2705 15.6623 95.1884 16.3642 95.9444C17.1742 96.8084 18.0921 97.6183 18.9561 98.4283C19.2801 98.7523 19.7661 98.9143 20.0901 99.2923C21.224 100.588 22.7899 101.236 24.2479 102.1C24.5719 102.316 24.9498 102.532 25.2738 102.694C25.4898 102.802 25.6518 102.964 25.8678 103.072C26.9477 103.504 28.0817 103.774 29.0536 104.476C29.1616 104.53 29.3236 104.584 29.4316 104.638C30.5656 105.016 31.6995 105.448 32.8335 105.772C33.8054 106.096 34.8314 106.366 35.8033 106.582C36.7753 106.744 37.7473 106.798 38.7192 106.852C40.3931 106.96 42.0131 107.554 43.687 107.176C45.1449 106.852 46.6569 106.69 48.1148 106.42C48.9787 106.258 49.7347 105.988 50.4367 105.61C50.7067 105.772 51.0847 105.718 51.1386 105.34C51.1386 105.286 51.1386 105.286 51.1386 105.232C51.5166 105.016 51.8946 104.746 52.2186 104.53C53.3525 103.72 54.5405 103.018 55.5665 102.046C57.4564 100.372 58.5903 98.1043 59.9942 96.0524C60.3722 95.4584 60.5882 94.7565 60.9122 94.1085C61.5602 92.8125 62.3161 91.5166 62.9101 90.1667C63.6661 88.5467 64.3141 86.8728 64.962 85.2529C65.448 84.0649 65.88 82.877 66.366 81.689C66.7979 80.5551 67.2839 79.4752 67.7159 78.3412C68.1479 77.2073 68.4179 76.0733 68.9038 74.9934C69.4438 73.8594 69.7138 72.6175 69.9298 71.3755C70.2538 69.8636 70.5238 68.2977 70.8478 66.7857C71.0098 66.0838 71.2797 65.3818 71.4417 64.6258C71.6037 63.7619 71.8197 62.9519 71.8737 62.0879C72.0357 59.4961 72.0897 56.9042 72.1437 54.0423C72.1977 53.8263 72.1977 53.2863 72.0897 52.7464ZM49.0327 105.124C46.8728 105.772 44.6589 106.15 42.391 106.204C41.2571 106.204 40.1231 105.934 38.9352 105.826C38.4492 105.772 37.9092 105.664 37.4233 105.61C36.1813 105.664 34.9934 105.61 33.8054 105.394C32.0775 105.07 30.4036 104.368 28.8917 103.504L28.9457 103.45C29.7556 101.074 29.8636 98.8063 31.8075 96.9164C34.0214 94.8105 37.2613 94.6485 39.4752 96.7544C39.9612 97.2403 40.7171 96.4844 40.2311 95.9984C40.1231 95.8904 39.9612 95.7824 39.8532 95.6204C45.6309 93.0285 49.7887 99.5082 50.2207 104.584C49.7887 104.854 49.4107 105.016 49.0327 105.124ZM71.2797 55.3922C71.1717 57.6601 71.1717 59.928 71.0097 62.1419C70.9557 63.2219 70.6318 64.2478 70.4158 65.3278C69.9838 67.3257 69.4978 69.3236 69.1198 71.2675C68.7959 72.9415 68.1479 74.5074 67.5539 76.0733C66.6899 78.2872 65.88 80.5551 65.016 82.769C64.746 83.525 64.422 84.2809 64.0981 85.0369C63.6121 86.2249 63.1261 87.4128 62.5861 88.6007C62.2081 89.5187 61.7222 90.4367 61.2902 91.3006C61.2362 91.4086 61.1282 91.5166 60.9662 91.7326C60.8042 92.1646 60.5882 92.5966 60.3722 92.9745C60.3722 93.0825 60.3722 93.1365 60.3182 93.2445C59.8323 94.3785 59.2923 95.5124 58.5363 96.5384C57.8883 97.3483 57.4564 98.3203 56.8084 99.1303C56.0524 100.048 55.1885 100.858 54.3785 101.722C54.2165 101.884 54.1085 101.884 54.0005 101.776C53.7305 101.992 53.5145 102.208 53.1906 102.37C53.1366 102.37 53.1366 102.424 53.0826 102.424C53.0286 102.586 52.9206 102.802 52.8126 102.856C52.2726 103.18 51.7326 103.558 51.1926 103.936C51.1926 103.018 51.0307 102.1 50.7067 101.182C50.2747 99.6162 49.7347 98.1043 49.8427 96.4304C49.8427 96.2684 49.6267 96.2684 49.5727 96.3764C49.4107 97.0244 49.3027 97.6723 49.2487 98.3743C46.9808 95.0804 42.985 93.0285 39.3672 95.3504C34.4534 91.8946 27.2177 97.5643 28.5137 103.342C27.8117 102.964 27.1637 102.532 26.5158 102.1C26.8937 101.776 27.1097 101.236 27.3257 100.75C27.5957 100.048 27.7037 99.2923 27.9737 98.5903C28.0277 98.4823 27.8657 98.4283 27.8117 98.5363C27.5417 99.1843 27.1637 99.8322 26.7858 100.372C26.5158 100.804 26.0298 101.074 25.7598 101.506C25.7058 101.452 25.6518 101.452 25.6518 101.398C25.5438 101.452 25.4358 101.452 25.2198 101.344C24.4099 100.858 23.5999 100.372 22.7899 99.8862C22.6819 99.8322 22.5739 99.7242 22.5199 99.5622C22.358 99.6162 22.196 99.6162 22.088 99.4542C21.818 99.1843 21.602 98.8603 21.332 98.5903C21.224 98.6443 21.062 98.5363 20.846 98.3743C18.2541 96.4304 16.1482 94.1085 14.4203 91.3546C13.0704 89.1407 12.1524 86.7648 11.2345 84.3349C10.3705 82.121 9.93851 79.8531 9.56053 77.5852C9.07455 74.3994 9.02055 71.2135 9.39854 68.0277C9.66853 65.7058 9.93851 63.3839 10.2625 61.062C10.5325 59.3881 10.8565 57.6601 11.3424 56.0402C11.8824 54.1503 12.5304 52.3144 13.1244 50.4785C13.6103 49.0745 14.1503 47.6706 14.7443 46.3207C15.3923 44.8627 16.0942 43.4588 16.8502 42.0548C17.6602 40.4889 18.5241 38.923 19.4961 37.4111C20.1441 36.3311 20.954 35.3051 21.764 34.3332C23.0059 32.8213 24.3559 31.3633 25.6518 29.9054C26.5698 28.9334 27.5957 28.0155 28.5137 27.0975C29.9716 25.6396 31.6995 24.6136 33.3735 23.5337C34.5614 22.7777 35.8573 22.2917 37.1533 21.6438C38.5032 20.9418 39.9072 20.7258 41.4191 20.7798C42.769 20.8338 44.119 20.8878 45.4149 20.8878C45.5229 20.8878 45.5769 20.8878 45.6849 20.9418C46.6569 21.2658 47.6828 21.6978 48.6548 21.9678C49.8967 22.2917 51.0307 22.9397 52.0026 23.6957C53.2446 24.6136 54.7565 24.7756 56.1064 25.4776C57.9423 26.4495 59.8323 27.2595 61.1282 28.9874C61.2362 29.0954 61.3442 29.2034 61.4522 29.3114C62.2081 29.7974 62.7481 30.5534 63.2341 31.3093C64.0981 32.6593 65.016 33.9552 65.934 35.2512C66.204 35.6291 66.366 36.0611 66.5819 36.4931C67.1759 37.573 67.7159 38.707 68.2559 39.7869C68.4179 40.1109 68.4719 40.4889 68.5799 40.8669C69.0118 42.1628 69.4978 43.4588 69.8758 44.7547C70.1998 45.8887 70.3078 47.1306 70.5238 48.3186C70.6318 49.0745 70.7398 49.7765 70.9018 50.5325C71.2257 52.2604 71.3337 53.8263 71.2797 55.3922Z" fill="#251C1C"/>
<path d="M41.959 5.8756C42.013 5.38962 42.175 5.06564 42.607 5.11964C42.8769 5.17363 43.1469 5.44362 43.3089 5.71361C43.4169 5.8756 42.715 6.36158 42.391 6.30758C42.229 6.30758 42.121 6.03759 41.959 5.8756Z" fill="#251C1C"/>
<path d="M51.8408 61.9797C44.3351 62.5197 36.5595 62.6277 29.2698 64.5176C27.4879 65.0036 28.2439 67.7574 30.0258 67.2714C30.1878 67.2175 30.4038 67.1635 30.5658 67.1635C30.7818 67.4874 31.1597 67.7034 31.6997 67.6494C35.3716 67.3794 38.9894 67.0555 42.6612 66.6775C44.4431 66.4615 46.2251 66.2455 48.007 66.0295C49.6269 65.8135 51.1928 65.5435 52.5968 64.6796C53.6767 63.9236 53.2987 61.8717 51.8408 61.9797Z" fill="#EF4036"/>
<path d="M54.2702 125.751C53.4063 126.831 52.4343 127.857 51.5163 128.883C52.0563 127.695 52.6503 126.561 53.3523 125.427C53.8382 124.617 52.7043 123.699 52.0563 124.401C51.7863 124.671 51.5703 124.941 51.3004 125.211C51.4624 124.563 50.5984 124.023 50.0044 124.347C50.4904 123.375 49.0865 122.565 48.5465 123.483C47.5745 125.265 46.3326 126.885 44.8746 128.289C45.3066 127.479 45.8466 126.723 46.3326 125.967C46.6026 125.589 46.8726 125.211 47.1425 124.833C47.6825 124.077 46.3866 123.051 45.8466 123.807C45.7926 123.861 45.7386 123.915 45.7386 123.969C45.7386 123.969 45.7386 123.969 45.6846 124.023C45.4686 124.293 45.2526 124.563 45.0906 124.833C44.8207 125.211 44.4967 125.589 44.1727 125.967L45.1986 123.969C45.6306 123.159 44.6047 122.241 43.9027 122.943C43.3627 123.483 42.8767 124.023 42.3368 124.563C42.2288 123.969 41.4188 123.537 40.9328 124.077C40.0149 125.103 39.0969 126.075 38.179 127.101C38.6109 126.345 38.9889 125.589 39.3669 124.779C39.7449 123.969 38.6649 122.997 38.071 123.753C37.369 124.617 36.613 125.535 35.8571 126.399C36.127 125.967 36.451 125.535 36.721 125.103C36.991 124.725 36.775 124.185 36.397 123.969C35.9651 123.699 35.5331 123.915 35.2631 124.293C35.2091 124.401 35.1551 124.455 35.0471 124.563C35.5331 123.753 34.3451 122.943 33.6972 123.591C33.3732 123.861 33.1032 124.185 32.7792 124.455L32.9952 124.131C33.4812 123.321 32.2932 122.403 31.6992 123.105C30.4573 124.563 29.0534 125.967 27.5954 127.263C27.9194 126.669 28.2974 126.075 28.6214 125.481C29.1614 124.563 27.7034 123.699 27.1635 124.617C26.0835 126.453 25.0575 128.289 23.9776 130.179C23.5996 130.881 24.4096 131.799 25.1115 131.313C25.9215 130.719 26.7315 130.125 27.4874 129.477C27.4334 129.585 27.3254 129.693 27.2714 129.801C26.7315 130.611 27.9194 131.475 28.5674 130.827C28.7294 130.665 28.8914 130.503 29.0534 130.395C28.8374 130.719 28.6214 131.043 28.4054 131.367C27.8654 132.177 29.0534 132.933 29.7013 132.393C29.9173 132.231 30.1333 132.069 30.2953 131.853C30.3493 132.393 30.9973 132.933 31.5373 132.555C32.4552 131.961 33.2652 131.259 34.0751 130.557C33.8052 131.043 33.4812 131.475 33.2112 131.907C32.6712 132.717 33.8591 133.527 34.5071 132.933C35.4251 132.069 36.343 131.205 37.261 130.287C37.477 130.773 38.179 131.043 38.6109 130.611C39.4209 129.747 40.2849 128.937 41.0948 128.073C40.7708 128.721 40.4468 129.369 40.1229 129.963C39.6909 130.827 40.7168 131.583 41.4188 130.989C41.4728 130.989 41.4728 130.935 41.5268 130.935C41.5268 130.935 41.5268 130.935 41.5268 130.989C41.3648 131.313 41.3648 131.691 41.6348 132.015C41.9048 132.285 42.3368 132.339 42.6607 132.123C43.3087 131.691 43.9567 131.205 44.5507 130.719C44.4967 130.827 44.4427 130.935 44.3887 131.043C43.9567 131.853 45.0366 132.717 45.6846 132.069C46.1166 131.637 46.5486 131.205 46.9806 130.719C47.3045 131.097 47.8985 131.205 48.2765 130.827C48.5465 130.503 48.8165 130.233 49.0865 129.909C48.8165 130.611 48.5465 131.313 48.3305 132.015C48.0605 132.825 49.1405 133.365 49.7344 132.825C50.7064 131.907 51.6783 130.935 52.6503 129.963L52.4343 130.665C52.1103 131.691 53.6763 132.123 54.0542 131.097C54.5402 129.585 55.0802 128.073 55.5662 126.561C55.9441 125.805 54.8102 125.157 54.2702 125.751Z" fill="#39B100"/>
<path d="M52.1641 132.555C50.9762 132.501 49.8422 132.393 48.6543 132.393C47.3043 132.393 45.9004 132.393 44.5505 132.447C42.3906 132.555 40.2847 132.177 38.1787 131.907C37.6388 131.853 37.0988 131.853 36.5588 131.853C35.1549 131.799 33.6969 131.745 32.293 131.799C31.537 131.799 30.7811 132.015 30.0251 132.069C28.8372 132.123 27.6492 132.069 26.5153 132.069C26.1373 132.069 25.7593 132.177 25.3813 132.123C25.1653 132.123 25.0033 131.961 24.7874 131.907C24.9493 131.745 25.0573 131.583 25.2193 131.475C25.2733 131.421 25.3813 131.421 25.4893 131.421C25.9753 131.421 25.9753 131.151 25.9213 130.827C25.5973 129.045 25.3273 127.263 24.9493 125.481C24.7874 124.833 25.1113 124.401 25.3813 123.915C25.4353 123.807 25.5973 123.753 25.7593 123.753C26.0833 123.699 26.4613 123.699 26.7853 123.699C28.6212 123.591 30.5111 123.429 32.347 123.375C34.1289 123.321 35.9108 123.321 37.6388 123.375C41.4186 123.375 45.1984 123.429 48.9243 123.483C50.1122 123.483 51.3002 123.537 52.4881 123.591C52.9741 123.591 53.4601 123.591 53.946 123.591C54.432 123.591 54.54 123.861 54.486 124.347C54.216 126.183 54.108 127.965 54.486 129.801C54.648 130.503 54.81 131.205 55.026 131.907C55.188 132.501 55.026 132.771 54.378 132.771C53.568 132.501 52.8661 132.555 52.1641 132.555ZM54.27 131.799C54.27 131.745 54.27 131.691 54.27 131.637C53.622 129.477 53.5141 127.317 53.568 125.103C53.568 124.401 53.2981 124.185 52.5961 124.131C51.6241 124.077 50.6522 124.023 49.6802 124.023C46.0084 123.969 42.3366 124.023 38.6107 123.915C34.3989 123.753 30.2411 124.239 26.0293 124.347C25.5973 124.347 25.3813 124.563 25.4893 124.995C25.7053 126.129 25.9213 127.317 26.1373 128.505C26.2993 129.423 26.4613 130.341 26.6233 131.205C26.6773 131.529 26.8393 131.637 27.2172 131.637C28.4592 131.529 29.6471 131.367 30.8891 131.259C31.483 131.205 32.077 131.151 32.671 131.151C33.8049 131.151 34.9389 131.205 36.1268 131.259C37.1528 131.313 38.1248 131.313 39.1507 131.475C41.2026 131.745 43.2545 132.015 45.3604 131.907C46.7104 131.853 48.0063 131.853 49.3562 131.853C50.9762 131.853 52.5961 131.907 54.27 131.907C54.216 131.853 54.216 131.799 54.27 131.799Z" fill="#251C1C"/>
<path d="M33.1034 128.666C33.3733 128.774 33.5353 128.828 33.6973 128.936C33.6973 128.342 33.7513 127.748 33.6973 127.208C33.5893 126.668 33.0494 126.938 32.6714 126.83C32.6174 126.83 32.5094 126.884 32.4014 126.884C32.1854 126.884 31.9694 126.83 31.7534 126.776C31.9154 126.614 32.0234 126.344 32.2394 126.236C32.4014 126.128 32.6174 126.236 32.7794 126.182C33.1034 126.128 33.4813 126.074 33.8053 126.02C33.9133 126.02 34.0213 125.966 34.0753 126.02C34.7773 126.398 35.5332 126.29 36.2892 126.182C36.7212 126.128 36.7752 126.344 36.6672 126.614C36.3972 127.424 36.6672 128.18 36.8832 128.936C36.9372 129.044 37.0452 129.152 37.0992 129.26C37.2072 129.152 37.3692 129.098 37.4232 128.99C37.5312 128.45 37.5852 127.964 37.7471 127.424C37.8011 127.262 37.9091 127.046 37.9631 126.884C38.1251 127.046 38.3411 127.208 38.3411 127.37C38.3411 128.18 38.2871 128.936 37.8551 129.638C37.6931 129.854 37.4232 130.124 37.1532 130.124C36.9372 130.124 36.6132 129.854 36.5592 129.638C36.2892 128.882 36.0732 128.072 35.9112 127.316C35.8032 126.884 35.6412 126.776 35.2633 126.83C34.3993 126.884 34.3453 126.992 34.2913 127.856C34.2913 128.342 34.2913 128.774 34.2373 129.26C34.1833 129.476 34.0213 129.692 33.9133 129.908C33.6973 129.746 33.4813 129.638 33.3193 129.476C33.2114 129.206 33.2114 128.99 33.1034 128.666Z" fill="#251C1C"/>
<path d="M28.6756 126.776C29.1616 126.992 29.5396 127.208 29.9176 127.37C30.2415 127.532 30.6195 127.64 30.9435 127.856C31.4835 128.18 31.5915 128.882 31.1055 129.314C30.2955 130.07 29.3236 130.448 28.2436 130.394C28.0276 130.394 27.8117 130.178 27.6497 130.124C27.7577 129.962 27.8117 129.746 27.9736 129.638C28.2976 129.368 28.6756 129.152 28.9996 128.99C29.1076 128.936 29.3236 128.99 29.4856 129.044C29.4316 129.152 29.3236 129.314 29.2696 129.422C29.2156 129.476 29.1076 129.53 28.9996 129.584C29.7556 129.638 30.1875 129.206 30.6195 128.774C30.6735 128.72 30.5655 128.342 30.4575 128.288C29.9176 128.018 29.3776 127.802 28.7836 127.532C28.6756 127.478 28.5676 127.478 28.5136 127.424C27.9196 127.154 27.8117 126.722 28.2976 126.236C28.9996 125.589 29.8096 125.265 30.7815 125.427C31.0515 125.481 31.2675 125.751 31.4835 125.967C31.5375 126.021 31.3755 126.344 31.2675 126.506C31.0515 126.722 30.8355 126.722 30.7815 126.345C30.7815 126.183 30.5655 126.021 30.4035 125.967C29.7556 126.075 29.2156 126.344 28.6756 126.776Z" fill="#251C1C"/>
<path d="M47.8987 129.152C47.2507 129.152 47.0887 129.314 46.9268 129.908C46.8188 130.286 46.8188 130.664 46.6568 131.042C46.6028 131.15 46.3868 131.204 46.2248 131.312C46.1708 131.15 46.0088 130.988 46.0088 130.88C46.3328 129.638 46.6568 128.342 46.9807 127.1C47.0887 126.777 47.3587 126.561 47.5207 126.291C47.7907 126.507 48.1147 126.669 48.2767 126.885C49.0867 128.018 49.4106 129.368 49.5186 130.718C49.5186 130.826 49.3566 130.934 49.2486 131.042C49.0327 130.718 48.6547 130.394 48.7087 130.07C48.8707 129.476 48.6547 129.152 47.8987 129.152ZM47.8987 127.262C47.8447 127.262 47.7367 127.262 47.6827 127.262C47.5747 127.64 47.4667 128.018 47.4127 128.396C47.7367 128.45 48.0607 128.504 48.4387 128.558C48.4927 128.504 48.4927 128.45 48.5467 128.396C48.2767 128.018 48.0607 127.64 47.8987 127.262Z" fill="#251C1C"/>
<path d="M41.9592 128.18C41.7433 128.882 41.6353 129.638 40.8793 130.07C40.4473 130.286 40.2853 130.232 40.1233 129.746C40.0693 129.53 39.9073 129.368 39.7993 129.152C39.4214 128.342 39.1514 127.478 39.4754 126.56C39.7454 125.75 40.5013 125.642 41.1493 126.236C41.6353 126.776 41.9053 127.424 41.9592 128.18ZM40.6093 129.422C41.5813 128.72 41.4733 127.316 40.6633 126.668C40.3933 126.452 40.2313 126.614 40.0693 126.83C39.6374 127.478 39.9613 128.774 40.6093 129.422Z" fill="#251C1C"/>
<path d="M44.3885 129.368C44.3885 129.638 44.3885 129.962 44.3885 130.232C44.3885 130.34 44.2805 130.448 44.2265 130.556C44.1185 130.502 44.0105 130.394 43.9025 130.34C43.8485 130.286 43.8485 130.124 43.8485 130.016C43.7945 129.044 43.7405 128.018 43.6865 127.046C43.6865 126.83 43.8485 126.614 43.9025 126.452C44.0645 126.668 44.2805 126.83 44.3345 127.046C44.3885 127.748 44.3885 128.45 44.4425 129.152C44.4425 129.206 44.4425 129.26 44.3885 129.368C44.4425 129.368 44.3885 129.368 44.3885 129.368Z" fill="#251C1C"/>
<path d="M52.435 18.2959C52.3808 18.3502 52.3265 18.3502 52.3265 18.4044C52.3265 18.3502 52.2722 18.3502 52.2722 18.2959H52.3265C52.3808 18.2959 52.435 18.2959 52.435 18.2959Z" fill="#38B549"/>
<path d="M24.2473 28.9327C22.7894 30.1206 21.4934 31.3625 20.2515 32.7665C20.0355 33.0365 20.4135 33.4145 20.6295 33.1445C21.8714 31.7405 23.1674 30.4446 24.6253 29.3106C24.8953 29.0946 24.5173 28.7167 24.2473 28.9327Z" fill="#251C1C"/>
<path d="M73.2239 33.3611C72.5219 32.5512 71.604 33.5231 71.226 34.1171C71.064 34.4411 71.496 34.7111 71.7119 34.3871C71.9279 34.0091 72.4679 33.0912 72.8999 34.0631C73.0079 34.2251 72.8999 34.6571 72.8999 34.8731C72.8999 35.575 72.7919 36.223 72.7379 36.871C72.6839 37.195 73.2239 37.357 73.2779 37.033C73.3859 36.331 73.4399 35.683 73.4939 34.9811C73.4399 34.4951 73.5479 33.7931 73.2239 33.3611Z" fill="#251C1C"/>
<path d="M16.9045 74.1294H11.7747C11.4507 74.1294 11.4507 74.6694 11.7747 74.6694H16.9045C17.2285 74.6694 17.2825 74.1294 16.9045 74.1294Z" fill="#251C1C"/>
<path d="M17.6057 68.2437C16.3637 67.6498 15.1758 67.0558 13.9338 66.4618C13.6098 66.2998 13.3398 66.7858 13.6638 66.9478C14.9058 67.5418 16.0937 68.1357 17.3357 68.7297C17.6057 68.8377 17.8756 68.4057 17.6057 68.2437Z" fill="#251C1C"/>
<path d="M20.5759 62.0335C19.496 60.4136 18.524 58.7397 17.6601 56.9578C17.4981 56.6338 17.0661 56.9038 17.1741 57.2278C18.0381 59.0097 18.956 60.6836 20.09 62.3035C20.306 62.5735 20.7379 62.3035 20.5759 62.0335Z" fill="#251C1C"/>
<path d="M67.824 60.4682C66.906 60.9541 65.9341 61.4401 65.0161 61.8721C64.6921 62.0341 64.9621 62.5201 65.2861 62.3581C66.2041 61.8721 67.176 61.3861 68.094 60.9541C68.364 60.7921 68.094 60.3062 67.824 60.4682Z" fill="#251C1C"/>
<path d="M66.0958 67.487C65.0159 67.217 63.9899 67.163 62.91 67.325C62.586 67.379 62.586 67.919 62.91 67.865C63.9359 67.703 64.9619 67.757 65.9878 68.027C66.2578 68.081 66.4198 67.595 66.0958 67.487Z" fill="#251C1C"/>
<path d="M64.0978 75.1006C62.9638 74.0747 61.8299 72.9947 60.7499 71.9688C60.4799 71.7528 60.1019 72.1308 60.3719 72.3468C61.5059 73.3727 62.6398 74.4527 63.7198 75.4786C63.9898 75.7486 64.3678 75.3706 64.0978 75.1006Z" fill="#251C1C"/>
<path d="M63.2335 62.0338C62.9635 61.7098 62.5855 61.4938 62.2075 61.2238C61.8295 60.9538 61.4516 60.6838 61.0736 60.5218C60.9656 60.4678 60.8576 60.4678 60.8036 60.5218C60.8036 60.5218 60.8036 60.5218 60.7496 60.5218C60.6956 60.4138 60.6956 60.3058 60.6416 60.1978C60.6416 56.148 60.7496 52.1522 61.2356 48.1024C61.2896 47.6704 60.7496 47.5624 60.4796 47.7784C60.4256 47.7244 60.3176 47.7244 60.2096 47.7244C58.1577 47.7784 56.1598 47.7784 54.1079 47.8324C53.8919 47.6704 53.5139 47.6704 53.2979 47.8324C42.9844 47.9404 32.5629 47.8864 22.3033 48.8044C21.9793 48.8584 21.9253 49.3443 22.3033 49.3443C32.5089 49.8303 42.7684 49.3443 53.0279 48.9664C52.7579 53.5021 52.542 58.0919 52.272 62.6277C52.272 62.6817 52.272 62.7357 52.272 62.7897C44.3343 63.0057 36.1807 62.6817 28.3511 63.5457C28.1891 61.3318 28.729 59.0099 28.567 56.742C28.459 54.4741 27.7571 52.2602 27.8111 49.9923C27.8111 49.8843 27.7031 49.9383 27.7031 49.9923C27.3791 53.0702 28.1351 56.148 27.9731 59.2259C27.8651 61.4398 27.0011 64.8416 27.9191 66.8935C27.9191 66.9475 27.9731 66.9475 27.9731 67.0015C27.4331 66.8395 26.8391 66.7316 26.2991 66.6236C25.5972 66.4616 24.8412 66.1916 24.5172 67.0015C23.7073 68.7835 24.7332 71.2673 25.8132 72.6713C25.8672 72.7253 25.9212 72.7793 25.9752 72.7793C23.4373 77.5851 24.0312 82.5528 26.8931 86.9266C26.5691 87.4666 26.5151 88.2226 26.6231 88.7626C26.6771 88.9245 26.7311 89.0325 26.7851 89.1945C25.0032 89.5725 23.3293 91.0844 22.1413 92.3804C20.7914 93.8923 19.8734 95.6202 19.4955 97.6181C19.3875 98.1041 19.9274 98.4281 20.3054 98.2661C20.4674 98.4821 20.6294 98.6441 20.7374 98.8601C20.9534 99.1841 21.1694 99.5621 21.3314 99.94C21.7094 100.804 22.8433 100.642 22.9513 99.7241C23.1133 98.4821 22.4113 96.6462 21.0074 96.4302C22.1413 93.5143 24.5712 91.5164 27.0551 89.5725C27.3791 90.0045 27.8651 90.3825 28.3511 90.6525C28.999 90.9765 29.539 90.0045 28.891 89.6805C28.4051 89.4105 27.8651 89.1945 27.4871 88.7085C27.2171 88.3306 27.1091 87.8446 27.1631 87.3046C27.4331 87.6826 27.7031 88.0606 28.0271 88.4386C28.3511 88.8705 29.161 88.2766 28.837 87.8446C28.1351 86.8726 27.4871 85.9007 26.9471 84.8747C27.7031 84.6587 28.459 83.9568 28.1891 83.2008C27.8651 82.4448 26.7311 82.3908 25.9752 82.6068C25.8132 82.1749 25.6512 81.7429 25.5432 81.3109C25.7052 81.3109 25.8672 81.3109 26.0292 81.2029C26.7851 80.8249 27.4331 80.2309 27.3791 79.367C27.3251 78.557 26.5151 77.8011 25.9752 77.2071C25.7592 76.9911 25.5972 76.9371 25.3812 76.9371C25.5972 75.5872 26.0832 74.2372 26.5151 72.7793C26.5151 72.7253 26.5151 72.6713 26.5151 72.6173C26.7311 72.4553 26.8391 72.1853 26.6231 71.9153C25.8672 70.9434 24.8952 68.9994 25.3812 67.7035C25.8132 66.6236 28.513 67.9735 29.431 67.9735C29.971 68.1355 30.565 68.1895 31.1049 68.2975C34.1828 68.6215 37.4226 68.2435 40.5005 68.0815C43.5784 67.9195 46.7102 67.7035 49.7881 67.5955C50.706 67.5415 51.678 67.7035 52.38 67.3795H52.434C53.5139 67.0555 54.5939 66.6236 55.6198 66.1916C55.1878 67.5955 54.3779 69.2154 54.3779 70.5114C54.4319 71.8613 55.7278 73.2113 56.1058 74.5072C56.2138 74.9392 56.2678 75.3172 56.3218 75.7491C55.5658 75.4252 54.3779 75.9651 53.7299 76.2891C52.434 76.9371 52.542 78.287 53.3519 79.313C53.8919 79.961 54.9179 80.7709 55.8358 80.7709C55.6738 81.3109 55.4578 81.7969 55.2418 82.3368C54.9179 81.9589 54.4859 81.7429 53.9459 81.7969C53.1899 81.9049 52.7579 82.6068 52.9199 83.3088C53.0279 83.8488 53.5679 84.4967 54.1079 84.5507C53.5679 85.5767 52.9199 86.5487 52.272 87.4666C51.894 88.0066 52.7579 88.5466 53.1899 88.0066C53.4599 87.6286 53.7299 87.1966 53.9999 86.8186C54.0539 87.0346 54.1079 87.0346 54.2699 87.3046C54.8639 88.2766 55.6738 89.0325 56.1598 90.1125C57.0238 91.8944 57.2397 93.7843 57.6177 95.7282C56.5378 96.6462 55.8898 97.6182 55.8358 99.0761C55.8358 99.1301 55.8358 99.2381 55.8898 99.2921C54.4319 100.912 52.596 102.262 50.976 103.666C50.706 103.882 51.03 104.314 51.3 104.098C52.488 103.342 53.6219 102.532 54.7019 101.668C55.6738 100.912 56.7538 100.156 57.4017 99.1301C57.4557 99.0761 57.4557 98.9681 57.4557 98.9141C57.6717 98.5901 57.8337 98.2661 58.0497 97.9421C58.4817 97.7261 58.6977 97.3482 58.8057 96.9162C58.9137 96.8082 59.0217 96.7002 59.0217 96.4842C58.9137 94.2703 58.4817 91.7864 57.4017 89.7885C56.8618 88.7625 55.5118 86.7106 54.1619 86.7646C55.9978 84.0108 57.4017 80.9329 57.4557 77.5851C57.4557 76.0731 57.2397 74.5072 56.6458 73.1033C55.9978 71.5913 55.5118 70.8354 55.8358 69.1074C56.0518 67.9735 56.4838 66.9475 56.6458 65.8136C56.6998 65.4356 56.3758 65.1656 55.9978 65.3276C55.0798 65.7056 54.1619 66.0836 53.2979 66.5156C53.6219 65.6516 53.5679 64.5177 53.5679 63.5997C53.7839 63.4377 53.8379 63.0597 53.6219 62.8437C53.7299 61.3858 53.7839 59.9279 53.8919 58.5239C54.0539 55.3381 54.2699 52.0982 54.4319 48.9124C56.4298 48.8584 58.3737 48.8044 60.3716 48.7504C59.9396 52.4222 59.7776 56.202 60.2096 59.8739C60.2096 59.9279 60.1556 59.9279 60.1556 59.9819C60.1556 60.0898 60.1556 60.1438 60.1556 60.2518C59.7236 60.3598 59.2917 60.5758 58.8597 60.7918C58.3197 61.0078 57.8337 61.1698 57.3477 61.5478C57.0778 61.7638 57.4017 62.0878 57.6717 62.0878C58.2117 61.9798 58.6437 61.7098 59.1297 61.4938C59.5076 61.3318 59.8856 61.1698 60.2096 60.9538C60.2096 60.9538 60.2096 60.9538 60.2096 61.0078C59.9936 61.3318 59.8316 61.6558 59.6696 61.9798C59.3456 62.5197 59.0757 63.0057 58.7517 63.5457C58.5357 63.8697 59.0217 64.1937 59.2377 63.9237C59.6156 63.4377 59.9936 63.0057 60.3176 62.4657C60.3716 62.4117 60.4256 62.3038 60.4796 62.1958C60.5876 62.7897 60.6956 63.3837 60.8036 63.9777C60.8576 64.2477 61.3436 64.1937 61.3436 63.9237C61.2896 63.3837 61.2356 62.7897 61.1816 62.1958C61.4516 62.5737 61.7215 63.0057 62.0455 63.3297C62.2615 63.5457 62.5855 63.2757 62.4775 63.0057C62.1535 62.3577 61.6135 61.7098 61.1276 61.1698V61.1158C61.3976 61.3858 61.7215 61.6018 61.9915 61.8718C62.3155 62.1418 62.6395 62.4117 63.0715 62.5737C63.2335 62.7897 63.4495 62.2498 63.2335 62.0338ZM52.164 65.7596C51.354 67.2175 49.5181 67.0015 48.1682 67.1095C45.7383 67.2715 43.3624 67.3795 40.9325 67.4875C38.7726 67.5955 36.5587 67.7575 34.3988 67.8115C33.2648 67.8115 31.2129 68.0815 30.187 67.5955C28.891 67.0015 28.513 65.3816 28.4051 63.9237C36.2887 64.5176 44.4423 63.8157 52.38 63.7077C52.38 64.4637 52.38 65.3276 52.164 65.7596Z" fill="#251C1C"/>
<path d="M50.0585 83.3083C48.8706 82.9843 47.6286 82.8763 46.4407 82.7683V82.7143C46.4407 82.0124 45.9007 81.4184 45.2527 81.0404C46.6567 80.7164 48.1146 80.5544 49.5725 80.6084C49.7345 80.6084 49.7345 80.3384 49.5725 80.3384C47.8986 80.2304 46.3327 80.3924 44.7667 80.7704C44.2808 80.5544 43.7948 80.3924 43.4168 80.3384C42.8768 80.2304 42.3909 80.2305 41.9049 80.2844C42.1749 79.6905 42.2289 79.0425 41.9589 78.4485C41.7969 78.1785 41.4729 78.1785 41.2569 78.3405C40.8249 78.7725 40.5009 79.2045 40.2849 79.6905C39.907 78.8805 39.367 78.2325 38.611 78.7725C38.449 78.8805 38.341 79.0965 38.395 79.3125C38.611 79.8525 38.827 80.3924 39.151 80.8784C37.5311 79.9065 35.2632 79.7985 34.4532 81.3104C33.1573 81.2564 31.8613 81.3104 30.6194 81.5264V81.5804C31.8613 81.6344 33.0493 81.6884 34.2912 81.7424C34.2912 81.7964 34.2372 81.8504 34.2372 81.9584C34.1292 82.4443 34.2912 82.8223 34.5072 83.1463C33.3193 83.4163 32.0773 83.7403 30.8894 84.0643C30.7814 84.0643 30.8354 84.2263 30.9434 84.2263C32.2393 83.9023 33.5353 83.6863 34.8312 83.4703C35.3712 83.9023 36.1811 84.1723 36.7751 84.3343C37.4231 84.4963 38.071 84.5503 38.665 84.4423C38.611 85.3062 38.989 85.9002 40.015 86.0622C41.0409 86.2242 42.0129 85.6302 42.2289 84.6043C44.0648 85.1442 46.3327 84.7122 46.4947 82.8223C47.6826 82.9843 48.9246 83.2543 50.1125 83.4163C50.1665 83.5243 50.1665 83.3623 50.0585 83.3083ZM36.1271 83.5243C36.0191 83.4703 35.9111 83.4163 35.8032 83.3623C36.3431 83.2543 36.8831 83.2003 37.3691 83.0923C37.6391 83.0383 37.5311 82.6063 37.2611 82.6603C36.6131 82.7683 35.9651 82.8763 35.3172 82.9843C35.1012 82.7143 34.8852 82.4443 34.8852 82.1204C34.8852 82.0664 34.8852 81.9584 34.8852 81.9044C35.9651 81.9584 37.0451 82.0664 38.179 82.1744C38.395 82.1744 38.395 81.8504 38.233 81.8504C37.2071 81.6884 36.1271 81.5264 35.0472 81.4724C35.4252 80.8784 36.2351 80.6084 36.9371 80.7704C37.2071 80.7704 37.5311 80.7704 37.8011 80.8784C38.179 80.9864 38.719 81.1484 38.935 81.5264C39.151 81.6884 39.313 81.8504 39.529 82.1204C39.637 82.2284 39.745 82.3364 39.853 82.4444C39.907 82.5523 39.961 82.6603 40.069 82.7143C39.637 83.1463 39.205 83.4703 38.719 83.5783C38.665 83.7403 38.503 83.8483 38.287 83.8483C37.5851 83.7403 36.8291 83.7943 36.1271 83.5243ZM40.015 85.5222C39.367 85.4142 39.043 85.0362 38.881 84.4963C39.421 84.3343 39.961 84.0643 40.3929 83.6323C40.7169 84.0103 41.1489 84.2803 41.6349 84.4963C41.4729 85.2522 40.7709 85.6302 40.015 85.5222ZM45.6307 82.7143C44.9287 82.6603 44.2808 82.6063 43.5788 82.5523C43.4168 82.5523 43.3628 82.7683 43.5248 82.7683C44.2268 82.7143 44.8747 82.7683 45.5767 82.8223C45.1987 84.2803 41.6889 84.7122 40.7709 82.7143C40.7169 82.6063 40.6629 82.6063 40.5549 82.5523C40.7709 82.4983 40.8789 82.3364 40.8249 82.1204C40.9869 81.7964 41.2029 81.4724 41.4189 81.1484C42.2829 80.7704 43.3628 80.6624 44.2268 80.9324C43.6328 81.0944 42.9848 81.3644 42.3909 81.5804C42.1209 81.6884 42.3369 82.0664 42.6068 81.9584C43.3088 81.6344 44.0108 81.3644 44.7667 81.2024C44.9827 81.3104 45.1447 81.4724 45.3067 81.6884C45.6307 82.0664 45.6847 82.3904 45.6307 82.7143Z" fill="#251C1C"/>
<path d="M34.1294 72.0776C31.5375 72.2396 32.2395 76.5054 32.6715 78.5033C32.5095 78.7733 32.6175 79.2053 32.9955 79.1513C34.1834 79.0433 35.4254 78.8273 36.6133 78.5573C36.7753 78.5033 36.8833 78.3413 36.8833 78.1793C36.9373 76.5054 36.8833 71.8616 34.1294 72.0776ZM36.1813 77.8553C35.8573 77.9093 35.5874 77.9633 35.2634 78.0173C35.4794 77.5314 35.3714 76.9914 35.3174 76.4514C35.2634 75.7494 35.2094 74.9935 34.8854 74.3455C34.6154 73.8055 33.8054 74.0215 33.6974 74.5075C33.4814 75.2095 33.5894 75.9654 33.5894 76.6674C33.5894 77.2074 33.5894 77.8013 33.9134 78.1793C33.6434 78.2333 33.3735 78.2333 33.1035 78.2873C33.1035 77.5854 33.1035 76.9374 33.1575 76.2354C33.1575 75.5874 32.9415 73.4275 33.7514 73.1036C34.2374 73.1575 34.6694 73.2115 35.1554 73.2115C35.4254 73.4815 35.6414 73.8055 35.7493 74.1295C35.9113 74.5075 36.0193 74.8855 36.1273 75.2635C36.1813 76.1274 36.1813 76.9914 36.1813 77.8553Z" fill="#251C1C"/>
<path d="M45.9005 71.5373C43.3626 71.0514 42.9846 75.3712 42.9306 77.4231C42.7146 77.6391 42.7146 78.071 43.0926 78.125C44.2805 78.287 45.5225 78.395 46.7104 78.449C46.8724 78.449 47.0344 78.341 47.0884 78.179C47.5204 76.5051 48.6004 72.0233 45.9005 71.5373ZM46.4404 77.6391C46.1165 77.6391 45.7925 77.5851 45.5225 77.5311C45.8465 77.1531 45.8465 76.5591 45.9545 76.0191C46.0625 75.3172 46.2245 74.6152 46.0625 73.9132C45.9545 73.3193 45.1445 73.3193 44.8745 73.7512C44.4965 74.3452 44.3885 75.1552 44.2265 75.8571C44.1186 76.3431 43.9566 76.9371 44.1725 77.3691C43.9026 77.3151 43.6326 77.3151 43.3626 77.2611C43.5246 76.6131 43.7406 75.9651 43.9026 75.2632C44.0646 74.6152 44.3885 72.5093 45.2525 72.3473C45.6845 72.5093 46.1165 72.6713 46.5484 72.8333C46.7104 73.1573 46.8724 73.4812 46.8724 73.8592C46.9264 74.2372 46.9804 74.6692 46.9804 75.0472C46.8724 75.9651 46.6564 76.8291 46.4404 77.6391Z" fill="#251C1C"/>
<path d="M28.405 69.2148C27.757 68.7288 27.0551 68.3508 26.2991 68.1348C26.2991 68.1348 26.2991 68.1348 26.2991 68.0808C26.1911 67.9728 26.0291 68.0268 26.0291 68.1348C25.9211 68.6748 26.0291 69.2148 26.1371 69.7548C26.2451 70.2407 26.3531 70.7807 26.7311 71.1587C26.8931 71.3207 27.1631 71.3747 27.379 71.2667C27.811 70.9967 28.459 70.5107 28.405 69.9168C28.567 69.8088 28.675 69.4308 28.405 69.2148Z" fill="#251C1C"/>
<path d="M54.2706 67.5417H54.2166C53.8927 67.5957 53.5687 67.7577 53.2447 67.9197C52.9747 68.0277 52.6507 68.1357 52.4347 68.2977C52.2727 68.4597 52.2727 68.6217 52.3267 68.8376C52.4347 69.1076 52.5967 69.5396 52.8127 69.7016C52.8667 69.7556 52.9207 69.7556 52.9747 69.7556C53.0287 69.8636 53.1907 69.9176 53.3527 69.8636C53.7307 69.7556 53.7307 69.3236 53.7847 68.9996C53.9467 68.5677 54.1626 68.0817 54.3786 67.7037C54.4866 67.5957 54.3786 67.4877 54.2706 67.5417Z" fill="#251C1C"/>
<path d="M47.6822 88.1688C44.0643 88.9788 40.8245 89.7347 37.1527 88.7088C37.1527 88.7088 37.0987 88.7088 37.1527 88.7628C40.5005 90.0047 44.6583 90.5447 47.8982 88.7088C48.1682 88.4928 47.9522 88.1148 47.6822 88.1688Z" fill="#251C1C"/>
<path d="M48.4928 89.6806C47.7368 89.9506 47.0889 90.3286 46.2789 90.4906C45.2529 90.7066 44.227 90.6526 43.147 90.5446C42.877 90.4906 42.823 90.9226 43.093 90.9766C44.281 91.3545 45.5229 91.4625 46.8189 91.3005C47.6288 91.1925 48.6008 91.0845 49.0328 90.3286C49.2488 90.0046 48.8708 89.5186 48.4928 89.6806Z" fill="#251C1C"/>
<path d="M49.9506 50.748C46.8727 50.748 43.7409 51.072 40.663 51.234C40.501 51.234 40.501 51.45 40.663 51.45C43.7409 51.612 46.8727 51.828 49.9506 51.558C50.4366 51.504 50.4366 50.748 49.9506 50.748Z" fill="black"/>
<path d="M50.437 52.0435C49.4111 52.1515 48.4391 52.3675 47.4132 52.2595C47.0892 52.2595 47.0892 52.7455 47.4132 52.7995C48.3851 52.9075 49.4111 53.0155 50.437 52.9075C50.977 52.7995 50.977 51.9355 50.437 52.0435Z" fill="black"/>
<path d="M46.8185 33.631C46.9265 29.9592 44.1727 26.4493 40.0689 26.8273C36.451 27.1513 34.9391 31.4171 35.857 34.657C35.2631 34.387 34.5071 34.387 33.8051 34.657C33.3192 34.819 32.8332 35.1429 32.5632 35.5749C32.1312 36.3849 32.8332 36.4929 32.1312 36.1149C32.0232 36.0609 31.8612 36.1149 31.8072 36.2229C31.5372 37.0869 31.5372 37.5188 32.0772 38.3288C32.2932 38.6528 32.7792 38.3288 32.5092 38.0048C32.3472 37.9508 32.2392 37.8968 32.1852 37.7348C32.1312 37.6268 32.0772 37.5188 32.0232 37.3568C31.9692 37.1949 31.9692 37.0329 32.0232 36.8709C32.0772 36.6009 32.4552 36.4389 32.6712 36.6009C32.7792 36.6549 32.8332 36.7629 32.8872 36.8169C32.8332 35.8989 33.5351 35.1429 34.4531 34.927C35.2631 34.765 36.073 35.1429 36.613 35.6829C36.667 35.6289 36.775 35.5209 36.829 35.4669C35.2631 32.4431 36.775 27.3673 40.7168 27.5293C44.8206 27.6913 46.8725 31.7951 45.7926 35.3589C46.0086 35.4129 46.2246 35.5209 46.3866 35.6289C46.4406 35.5209 46.4406 35.3589 46.4946 35.2509C47.6825 31.7951 50.2744 34.819 50.9764 36.1149C51.7323 37.4648 51.3003 38.0588 49.7884 38.3288C48.0605 38.6528 45.8466 38.2748 44.0647 38.2208C40.2308 38.1668 36.451 38.1128 32.6172 38.0588C32.5092 38.0588 32.5632 38.1668 32.6172 38.1668C36.073 38.3288 39.5289 38.5448 43.0387 38.6528C45.7386 38.7608 49.3024 39.4628 51.8943 38.7608C52.0023 38.7608 52.0563 38.6528 52.1103 38.5448C52.9203 35.3589 48.9784 31.6331 46.8185 33.631Z" fill="#251C1C"/>
<path d="M39.9612 39.6785C36.5593 39.2466 32.9955 39.5166 29.5937 39.7865C29.4317 39.7865 29.4317 40.0565 29.5937 40.0565C33.0495 39.8945 36.5054 40.1645 39.9612 40.1105C40.2852 40.1105 40.2312 39.6785 39.9612 39.6785Z" fill="#251C1C"/>
<path d="M30.5658 40.4886C29.0539 40.4346 27.542 40.8126 26.03 41.0826C25.7601 41.1366 25.8141 41.5686 26.084 41.5146C27.596 41.3526 29.1619 41.3526 30.6198 40.9206C30.8898 40.8666 30.8358 40.4886 30.5658 40.4886Z" fill="#251C1C"/>
<path d="M28.8916 48.8046C28.2436 48.3186 27.4337 49.3445 27.9196 49.9385C27.9196 49.9925 27.8656 50.1545 27.8656 50.3705C27.8117 50.5865 27.8117 50.8025 27.7577 51.0185C27.7037 51.5584 27.6497 52.0984 27.6497 52.6384C27.6497 53.6643 27.7577 54.7443 28.0276 55.7702C28.0816 56.0402 28.4596 55.9862 28.5136 55.7162C28.7296 54.0963 28.8916 52.5304 29.2696 50.9645C29.4856 50.0465 29.7016 49.3985 28.8916 48.8046Z" fill="black"/>
</svg>
