<svg width="132" height="223" viewBox="0 0 132 223" fill="none" xmlns="http://www.w3.org/2000/svg">
<path d="M108.601 36.6649C108.601 36.3937 108.601 36.1226 108.51 35.761C108.058 31.7836 104.533 28.7102 100.465 28.891C99.3803 28.9814 98.386 29.2525 97.5724 29.7045C96.7589 29.6141 95.9453 29.7045 95.2221 29.7949C94.951 28.9814 94.5894 28.2582 94.047 27.535C93.6854 26.5407 93.1431 25.6367 92.3295 24.8232C90.0696 22.5633 86.725 22.6537 84.4651 24.3712C84.2843 24.4616 84.0132 24.552 83.8324 24.6424C83.29 24.9136 82.838 25.2752 82.4765 25.6367C81.8437 25.5464 81.1205 25.5464 80.4878 25.7271C80.3974 24.8232 80.2166 23.9192 79.6742 23.0153C78.0471 19.9419 74.1601 18.7667 70.9059 19.5803C69.3692 20.0323 68.1037 20.8458 67.1997 21.9306C66.3862 21.9306 65.5726 22.1113 64.7591 22.3825C64.6687 22.2921 64.4879 22.1113 64.3975 22.021C62.5896 20.3034 60.2393 19.6707 57.889 20.1227C56.5331 19.9419 55.1772 20.2131 54.0021 20.8458C51.1094 22.3825 49.9343 25.9983 50.8382 28.9814C50.2055 29.0718 49.6631 29.3429 49.1207 29.6141C46.8609 27.3542 42.9739 26.9023 40.1716 28.8006C39.5389 29.2525 38.9965 29.7949 38.5445 30.4277C38.1829 30.6085 37.8214 30.8797 37.5502 31.0604C36.6462 31.7836 35.8327 32.6876 35.3807 33.6819C33.9344 35.1282 33.1208 37.2073 33.3016 39.2864C32.4881 39.5576 31.7649 40.1903 31.2225 41.1847C31.1321 41.2751 31.1321 41.3655 31.1321 41.4559C29.0531 42.179 27.5163 43.9869 27.1548 45.9756C26.2508 46.97 25.618 48.2355 25.618 49.5914C25.618 51.3993 26.7028 52.936 28.1491 53.9304C27.1548 54.0208 26.1604 54.3823 25.2565 55.1055C24.4429 55.8287 23.9005 56.6422 23.7198 57.4558C22.8158 58.1789 22.183 59.0829 21.9119 60.0772C20.5559 61.5235 20.3751 63.8738 21.3695 65.5913C21.3695 65.5913 21.3695 65.6817 21.4599 65.6817C21.1887 66.0433 21.0079 66.3145 20.9175 66.676C20.4655 66.4049 20.0136 66.2241 19.4712 66.1337C16.9401 65.5913 14.4091 66.9472 13.3243 69.1167C10.5221 71.7382 11.5164 76.0771 14.5899 77.9754C17.3921 79.7833 20.8271 78.789 22.635 76.2579C24.5333 75.1732 25.618 73.2749 26.07 71.1054C26.7932 70.9246 27.4259 70.563 27.9683 70.111C29.3242 69.0263 30.1378 67.3992 30.3186 65.6817C30.6802 65.3201 30.9513 64.8681 31.2225 64.4162C32.2169 63.6026 33.0304 62.5179 33.4824 61.3427C35.9231 59.1733 37.4598 55.4671 37.731 52.5744C38.6349 51.5801 39.3581 50.3146 39.5389 48.8682C39.5389 48.7778 39.5389 48.5971 39.5389 48.5067C40.9852 47.9643 42.4315 47.0603 43.6066 45.8852C44.2394 45.7044 44.8722 45.4332 45.4145 45.0717C46.2281 44.6197 46.9513 43.8965 47.6744 43.1734C49.2111 42.3598 50.4767 41.1847 51.5614 39.7384C51.8326 39.8288 52.1942 39.9191 52.4653 39.9191C54.906 40.1903 57.5275 39.196 59.6065 37.5689C61.324 36.8457 62.8608 35.6706 64.0359 34.3147C65.4822 35.2186 67.2901 35.4898 68.9172 35.1282C70.1827 35.8514 71.6291 36.3033 73.1658 36.3937C75.0641 36.4841 76.872 36.0322 78.5895 35.3994C78.951 35.8514 79.403 36.213 79.9454 36.5745C81.9341 37.8401 84.3747 38.3824 86.725 38.2016C87.9001 39.5576 89.708 40.4615 91.5159 40.8231C92.5103 42.179 93.8662 43.083 95.4933 43.5349C97.1204 45.5236 100.013 46.2468 102.725 45.2524C105.437 44.2581 107.425 41.9078 108.239 39.196C108.51 38.5632 108.691 37.5689 108.601 36.6649ZM74.6121 26.7215C74.5217 26.5407 74.5217 26.3599 74.4313 26.1791C74.5217 26.2695 74.6121 26.4503 74.6121 26.7215Z" fill="#39B100"/>
<path d="M103.719 164.122C102.182 162.676 100.465 162.947 98.8375 164.032C98.2047 163.941 97.4815 164.122 96.8488 164.755C96.7584 164.936 96.5776 165.026 96.3968 165.207C94.8601 165.749 93.5042 166.834 92.5098 168.28C92.329 168.642 92.0578 168.913 91.8771 169.365C90.5211 170.36 89.0748 171.263 87.5381 172.077C87.1765 172.077 86.9053 172.077 86.5438 172.167C84.4647 172.439 82.5664 173.343 81.0297 174.608C70.2727 177.591 58.0694 175.964 47.4028 172.71C46.318 172.348 45.4141 172.8 44.8717 173.523C39.448 170.088 34.2955 176.235 33.9339 181.297C33.7531 184.009 34.9282 186.811 37.2785 188.258C39.8096 189.794 42.9734 189.162 45.4141 187.625C47.0412 186.631 48.3067 185.184 49.1203 183.648C49.1203 184.371 49.2106 185.003 49.3914 185.636C49.3914 185.636 49.3914 185.636 49.3914 185.727C49.1203 187.535 49.5722 189.433 50.8378 190.97C53.8208 194.585 59.3349 193.953 62.6795 191.241C63.3123 190.789 63.8546 190.156 64.3066 189.614C65.9337 192.506 69.0975 194.405 72.4422 193.681C73.9789 193.41 75.3348 192.597 76.3291 191.512C76.5099 191.422 76.6907 191.331 76.8715 191.241C76.8715 191.241 76.9619 191.241 76.9619 191.15C78.0466 190.518 79.041 189.523 79.6737 188.438C82.5664 191.602 87.7189 192.597 91.5155 189.885C94.2273 187.896 95.4929 184.913 95.3121 181.93C95.4025 181.749 95.4025 181.478 95.4929 181.297C97.6623 181.297 99.7414 180.032 101.188 178.495C103.086 176.597 104.352 174.066 104.894 171.444C105.256 168.823 105.527 165.84 103.719 164.122Z" fill="#39B100"/>
<path d="M26.9734 54.3826C26.7926 54.2018 26.6118 53.8403 26.3406 53.5691C25.3463 52.3939 24.6231 51.038 24.3519 49.5013C24.0807 47.4222 25.2559 45.7951 26.5214 44.3488C28.2389 42.3601 30.4084 41.3658 32.849 40.8234C33.753 40.6426 34.6569 40.281 35.5609 40.0098C36.3744 39.7387 36.3744 39.3771 35.8321 38.7443C35.3801 38.2923 35.0185 37.8404 34.6569 37.298C34.2954 36.6652 34.2954 35.8517 34.7473 35.2189C35.4705 34.1342 36.0129 32.8686 36.9168 31.9647C38.9959 30.1568 41.3462 28.8913 44.2388 28.8913C45.6851 28.8913 46.6795 28.4393 47.5834 27.1738C48.7585 25.6371 50.2953 24.2811 51.6512 22.8348C54.4534 19.7614 57.2557 16.688 59.9675 13.6145C62.6794 10.6315 65.3008 7.64846 67.9223 4.66543C68.9166 3.49029 69.8206 2.31516 70.7245 1.14003C71.2669 0.416866 71.7188 0.416866 72.1708 1.14003C72.894 2.13437 73.5268 3.21911 74.1595 4.30385C74.3403 4.57503 74.5211 4.93661 74.7019 5.1174C76.6002 6.83491 78.4081 8.7332 80.4872 10.2699C82.1143 11.5354 83.3798 13.3433 84.6453 15.0608C85.9109 16.688 87.086 18.3151 88.2611 20.0326C88.8035 20.7557 89.0747 21.7501 89.9786 22.202C90.069 22.2924 90.1594 22.4732 90.1594 22.5636C90.1594 23.8292 90.973 23.9195 91.9673 24.1907C92.9617 24.4619 93.956 24.9139 94.8599 25.4563C95.9447 26.089 96.3967 27.1738 96.4871 28.4393C96.5775 29.7048 96.7582 29.7952 97.843 29.0721C100.193 27.5353 102.634 27.2642 105.075 28.8009C106.521 29.7048 107.244 31.2415 107.786 32.7782C108.6 35.0381 108.781 37.298 108.781 39.6483C108.781 39.8291 108.781 40.0098 108.871 40.1906C108.871 40.281 108.962 40.3714 108.962 40.3714C110.046 40.1906 111.131 39.8291 112.216 39.8291C114.295 39.8291 116.193 40.5522 117.639 42.1793C119.719 44.5296 119.809 47.3318 119.176 50.2245C118.995 50.9476 118.905 51.7612 118.724 52.7555C119.176 52.5747 119.447 52.4843 119.719 52.3036C121.707 51.2188 123.696 52.1228 124.6 54.2018C125.685 56.8233 125.594 59.5351 124.871 62.247C124.509 63.6029 123.967 64.9588 123.515 66.4052C123.696 66.4052 124.058 66.4052 124.329 66.4052C125.504 66.4956 126.769 66.4956 127.944 66.7667C129.029 66.9475 129.481 67.7611 129.662 68.8458C129.933 70.6537 129.481 72.2808 128.939 73.9079C128.306 75.7158 127.493 77.5237 126.769 79.3316C126.498 80.0548 126.679 80.5972 127.312 80.9587C128.758 81.6819 129.572 82.9474 130.476 84.213C130.656 84.3938 130.656 84.6649 130.747 84.9361C131.47 88.3711 130.476 91.4446 128.577 94.3372C128.306 94.6988 127.944 94.97 127.673 95.3315C127.131 95.9643 127.221 96.3259 128.035 96.5067C129.029 96.7779 129.843 97.1394 130.385 98.0434C131.018 99.1281 131.741 100.122 131.56 101.388C131.47 102.292 131.018 103.106 130.566 103.919C129.843 105.365 128.939 106.812 127.764 107.987C127.221 108.529 126.86 109.162 126.408 109.885C126.317 109.976 126.408 110.337 126.589 110.427C126.86 110.699 127.131 110.97 127.493 111.241C128.577 111.964 128.848 112.959 128.668 114.134C128.487 116.213 127.402 117.93 126.227 119.557C125.956 119.919 125.685 120.281 125.413 120.642C124.419 121.998 123.425 123.354 122.43 124.619C121.978 125.252 121.978 125.614 122.792 126.156C124.148 127.151 125.052 128.416 125.594 129.953C125.956 131.218 125.504 132.213 125.142 133.297C124.781 134.292 124.238 135.286 123.696 136.28C122.882 137.817 121.978 139.263 121.074 140.71C120.894 141.071 120.623 141.433 120.261 141.704C119.176 142.879 118.091 144.054 116.916 145.23C116.555 145.591 116.555 145.953 116.916 146.224C118.815 148.032 119.086 150.111 118.543 152.552C117.82 155.625 115.741 157.614 113.481 159.512C111.854 160.868 110.137 162.133 108.419 163.309C107.786 163.76 107.606 164.303 107.786 165.026C107.877 165.388 107.967 165.749 108.148 166.111C109.052 168.642 108.51 171.082 107.063 173.252C105.707 175.331 103.628 176.687 101.368 177.681C100.555 178.043 99.6509 178.404 98.8373 178.766C98.295 178.947 98.1142 179.218 98.2046 179.851C98.3854 180.664 98.4757 181.478 98.3854 182.291C98.295 183.015 98.2046 183.828 97.7526 184.371C96.0351 186.54 93.8656 187.986 90.8826 187.715C88.8939 187.534 86.9052 187.534 84.8261 187.444C83.9222 187.354 83.1086 187.082 82.2047 186.992C81.3007 186.902 81.1199 187.082 81.3911 187.986C81.5719 188.619 81.6623 189.342 81.6623 189.975C81.6623 190.879 81.3007 191.512 80.4872 192.054C76.6906 194.856 72.9844 193.681 69.3686 191.873C68.555 191.421 67.7415 190.879 66.9279 190.427C66.2952 190.065 65.9336 190.246 65.4816 190.698C64.7584 191.421 64.0353 192.145 63.2217 192.777C61.5946 194.133 59.6059 194.314 57.6172 194.224C56.3517 194.133 54.9054 193.862 53.7303 193.32C51.4704 192.325 49.3913 190.969 48.3066 188.619C48.2162 188.438 48.0354 188.167 47.7642 187.896C47.041 188.258 46.3179 188.529 45.6851 188.981C43.1541 190.517 39.7191 189.885 37.64 187.806C36.1033 186.359 35.6513 184.551 34.9281 182.653C34.8377 182.472 34.8377 182.291 34.8377 182.201C34.6569 181.659 34.4761 181.116 34.205 180.664C33.6626 179.941 33.2106 180.845 32.7586 181.026C30.8604 181.749 28.9621 181.839 27.0638 181.568C26.6118 181.478 26.2502 181.297 25.8886 181.116C23.8999 179.851 22.6344 178.043 22.092 175.783C21.6401 173.704 21.3689 171.625 21.0073 169.546C20.9169 168.913 20.6457 168.732 20.013 168.913C18.5666 169.365 17.2107 169.184 15.7644 168.913C15.222 168.823 14.6797 168.732 14.1373 168.642C13.7757 168.551 13.4141 168.461 13.1429 168.371C11.6966 167.467 10.2503 166.382 9.70794 164.755C9.16557 163.128 8.6232 161.41 8.6232 159.783C8.53281 157.614 9.07517 155.354 9.25596 153.184C9.34636 152.009 9.34636 152.009 8.08083 151.828C7.35767 151.738 6.54412 151.557 5.82096 151.557C4.28424 151.467 3.3803 150.382 2.65714 149.297C1.39161 147.309 1.66279 145.32 2.65714 143.331C3.56108 141.433 4.37464 139.535 5.18819 137.546C5.45938 137.004 5.45938 136.461 4.64582 136.28C4.10345 136.19 3.56108 136.009 3.10911 135.738C1.482 135.015 0.849237 133.478 0.397263 131.851C0.216473 131.128 0.126078 130.314 0.035683 129.501C-0.145107 127.603 0.397263 125.795 0.849237 124.077C1.21082 122.902 2.02437 121.817 2.74753 120.733C3.3803 119.829 4.10345 118.925 4.73622 118.021C4.82661 117.84 4.64582 117.478 4.64582 117.207C4.64582 117.207 4.64582 117.207 4.55543 117.117C2.20516 115.942 1.5724 113.953 1.75319 111.512C1.93398 109.614 2.56674 107.806 4.19385 106.541C5.36898 105.546 5.27859 105.637 4.28424 104.552C3.38029 103.557 2.65714 102.382 1.93398 101.298C1.5724 100.755 1.30121 100.213 1.30121 99.5801C1.12042 97.6818 2.20516 96.3259 3.56108 95.2411C4.82661 94.2468 6.18254 93.5236 7.53846 92.7101C8.44241 92.1677 8.44241 91.8965 7.71925 91.1734C7.17688 90.5406 6.72491 89.7271 6.45372 88.9135C5.82096 87.1056 6.27293 85.5689 7.26728 84.0322C8.6232 81.9531 10.4311 80.326 12.4198 78.8797C13.1429 78.3373 13.2333 78.0661 12.5102 77.5237C11.335 76.3486 10.7927 74.9927 11.335 73.3656C11.6062 72.6424 11.6966 71.8289 11.9678 71.1961C13.0526 68.665 15.0412 67.1283 17.6627 66.4052C18.3859 66.2244 19.1994 65.9532 19.9226 65.682C20.5553 65.4108 20.1938 65.1396 19.9226 64.7781C19.1994 63.9645 18.7474 62.9702 18.9282 61.8854C19.2898 59.8063 20.1034 57.9984 22.0016 56.9137C23.8095 55.7386 25.3463 55.1058 26.9734 54.3826ZM107.877 38.1115C107.786 38.1115 107.696 38.1115 107.606 38.1115C107.696 35.8517 107.154 33.6822 106.159 31.6935C105.527 30.5184 104.623 29.6144 103.267 29.2528C100.916 28.6201 97.843 29.7952 96.3967 31.7839C96.2159 32.0551 95.7639 32.1455 95.4023 32.3263C95.3119 31.9647 95.2215 31.5127 95.2215 31.1511C95.2215 30.1568 95.4023 29.1625 95.4023 28.1681C95.3119 27.0834 94.6792 26.3602 93.5944 25.9986C92.5097 25.6371 91.3345 25.2755 90.2498 25.0043C86.9052 24.0099 83.3798 25.5467 81.7527 28.5297C81.6623 28.7105 81.3007 28.8913 81.1199 28.9817C80.9391 28.9817 80.668 28.7105 80.5776 28.5297C80.3064 28.0777 80.216 27.5353 80.0352 27.0834C78.1369 23.106 75.6962 21.2077 71.2669 21.4789C70.0014 21.5693 69.1878 22.1116 68.7358 23.2868C68.4646 24.1003 68.1935 25.0043 67.8319 25.7274C67.7415 25.9986 67.3799 26.1794 67.1087 26.4506C66.9279 26.2698 66.6567 25.9986 66.5663 25.8178C66.2952 24.8235 65.6624 24.2811 64.8488 23.7388C64.4873 23.4676 64.0353 23.2868 63.6737 23.106C62.3178 22.5636 60.8715 22.0213 59.3347 22.4732C55.4478 23.4676 53.0071 26.089 51.5608 29.7048C51.4704 29.8856 51.38 30.2472 51.4704 30.428C51.9224 31.3319 52.4647 32.2359 52.8263 33.1398C52.9167 33.411 52.8263 33.6822 52.8263 33.9534C52.5551 33.863 52.1936 33.9534 51.9224 33.7726C51.6512 33.5918 51.4704 33.0494 51.1088 33.0494C50.0241 32.7783 49.4817 31.9647 48.8489 31.2415C48.4874 30.7896 47.5834 30.6088 46.9506 30.428C45.3235 29.976 43.6964 30.2472 42.1597 30.6992C39.2671 31.4223 37.0976 32.959 36.0129 35.8517C35.7417 36.5748 35.8321 37.2076 36.4648 37.6596C37.0976 38.1115 37.9112 38.5635 38.5439 39.0155C38.8151 39.2867 39.1767 39.7387 39.1767 40.1002C39.1767 40.3714 38.6343 40.733 38.3631 40.9138C36.736 41.3658 35.1089 41.8177 33.4818 42.1793C30.77 42.8121 28.5101 44.0776 26.883 46.3375C25.6174 48.055 25.4367 49.8629 26.5214 51.6708C27.2446 52.9363 28.3293 53.8403 29.5948 54.5634C29.9564 54.7442 30.318 55.2866 30.318 55.6482C30.318 56.2809 29.6852 56.3713 29.1428 56.4617C27.8773 56.6425 26.5214 56.3713 25.2559 57.0041C23.6288 57.8176 22.0016 58.7216 21.1881 60.5295C20.7361 61.7046 20.9169 63.6029 21.7305 64.1453C22.4536 64.6877 23.2672 65.23 23.9903 65.7724C24.3519 66.0436 24.8943 66.2244 24.7135 66.7667C24.4423 67.3091 23.9903 67.3995 23.3576 67.3091C22.092 67.0379 20.9169 66.8571 19.561 67.2187C16.578 68.0323 14.3181 69.6594 13.4141 72.8232C12.691 75.2639 13.5045 76.8006 15.9452 77.5237C16.6683 77.7045 17.4819 77.7949 18.2051 77.9757C18.4762 78.0661 18.7474 78.4277 19.0186 78.6085C18.7474 78.8797 18.4762 79.3316 18.1147 79.3316C17.3915 79.422 16.6683 79.2412 16.0356 79.422C15.3124 79.5124 14.4085 79.6932 13.7757 80.1452C11.787 81.4107 10.0695 83.0378 8.80399 85.1169C7.71925 86.8344 8.26162 89.9982 10.6119 90.5406C10.9735 90.631 11.4254 90.7214 11.6966 90.9022C12.239 91.1734 12.4198 91.6253 11.8774 91.9869C11.2447 92.4389 10.6119 92.8909 9.97912 93.1621C7.90004 94.066 6.00175 95.2411 4.37464 96.7779C3.38029 97.6818 3.19951 99.1281 3.83227 100.213C4.01306 100.574 4.19385 100.936 4.46503 101.298C5.36898 102.744 6.45372 103.829 8.17123 104.281C8.53281 104.371 8.80399 104.642 9.07518 104.913C8.80399 105.275 8.6232 105.727 8.26162 105.908C4.73622 107.173 3.92266 109.704 4.01306 112.778C4.01306 113.862 4.73622 115.309 6.27293 115.49C6.99609 115.58 7.71925 115.58 8.44241 115.761C8.80399 115.851 9.07517 116.122 9.43675 116.303C9.25596 116.665 9.07518 117.026 8.89439 117.298C8.7136 117.478 8.44241 117.569 8.26162 117.659C7.44807 118.111 6.54412 118.563 5.91135 119.286C3.01872 122.54 1.5724 126.337 2.20516 130.857C2.47635 132.393 3.65148 133.749 5.18819 134.111C6.00175 134.292 6.9057 134.201 7.80965 134.201C8.08083 134.201 8.53281 134.201 8.6232 134.382C8.7136 134.563 8.6232 134.925 8.53281 135.196C8.44241 135.467 8.17123 135.738 7.99044 136.009C5.91135 138.721 4.73622 141.885 3.83227 145.139C3.19951 147.399 4.64582 149.207 6.99609 149.478C8.35202 149.659 9.70794 149.749 11.0639 149.84C11.9678 149.93 12.1486 150.292 11.787 151.196C10.3407 154.45 9.88873 157.794 10.6119 161.32C10.8831 162.766 11.335 164.122 12.4198 165.207C14.5893 167.286 18.2051 167.828 20.8265 166.472C21.1881 166.292 21.5497 166.02 21.9113 165.84C22.1824 165.749 22.544 165.659 22.7248 165.84C22.9056 165.93 22.9056 166.382 22.9056 166.653C22.8152 167.919 22.544 169.184 22.6344 170.45C22.8152 172.89 23.1768 175.241 24.5327 177.32C25.7078 179.037 27.1542 180.122 29.3236 179.851C31.1315 179.67 32.7586 178.856 34.205 177.772C34.4761 177.591 34.9281 177.32 35.1089 177.41C35.3801 177.591 35.5609 178.043 35.6513 178.404C35.7417 178.766 35.6513 179.128 35.7417 179.399C36.0129 181.297 36.3744 183.195 37.3688 184.913C38.5439 186.811 40.171 187.986 42.4309 187.986C44.4196 187.986 45.9563 186.902 47.3122 185.636C47.945 185.003 48.397 185.094 48.6681 185.998C49.5721 188.8 51.7416 190.517 54.2726 191.873C54.9054 192.235 55.719 192.235 56.4421 192.416C58.9732 193.048 61.1426 192.506 63.1313 190.879C64.0353 190.156 64.7584 189.161 65.0296 187.896C65.12 187.534 65.3912 187.263 65.4816 186.992C65.7528 187.173 66.1144 187.354 66.3856 187.625C66.9279 188.167 67.2895 188.89 67.8319 189.342C69.2782 190.698 71.0861 191.331 73.0748 191.693C74.3403 191.964 75.6962 192.235 76.9618 191.964C79.6736 191.331 80.6679 190.337 79.8544 187.806C79.5832 187.082 79.6736 186.359 79.5832 185.636C79.4928 185.003 79.764 184.823 80.3968 184.913C81.1199 185.094 81.8431 185.274 82.5662 185.365C84.5549 185.636 86.634 185.907 88.6227 185.998C91.1538 186.178 93.6848 186.178 95.6735 184.099C96.4871 183.286 97.2102 182.472 96.939 181.207C96.7582 180.393 96.4871 179.489 96.3063 178.676C96.1255 178.043 96.2159 177.681 96.939 177.501C98.8373 177.049 100.645 176.235 102.363 175.331C104.442 174.246 105.888 172.619 106.702 170.359C107.334 168.461 107.244 166.653 106.25 164.936C105.527 163.67 105.527 163.67 106.521 162.766C106.792 162.495 106.973 162.314 107.334 162.133C109.233 160.777 111.221 159.512 113.029 158.066C115.108 156.439 116.826 154.45 117.368 151.738C117.82 149.117 117.639 147.399 114.385 146.585C113.933 146.495 113.481 146.314 113.029 146.043C112.758 145.862 112.668 145.501 112.487 145.23C112.758 145.049 113.029 144.778 113.301 144.868C114.204 144.868 115.018 144.597 115.651 143.964C116.826 142.879 118.182 141.885 119.086 140.619C120.713 138.269 122.159 135.828 123.515 133.388C124.238 132.122 124.6 130.766 123.786 129.41C122.973 128.055 122.069 126.699 120.261 126.518C119.99 126.518 119.719 126.427 119.538 126.247C119.176 125.975 118.995 125.523 119.538 125.162C121.436 123.896 122.611 121.998 123.967 120.281C125.233 118.563 126.408 116.755 127.041 114.586C127.402 113.23 127.041 112.235 125.865 111.603C125.323 111.331 124.871 111.151 124.329 110.879C123.696 110.608 123.606 110.156 124.058 109.704C124.419 109.343 124.781 108.981 125.142 108.62C126.95 106.721 128.577 104.733 129.572 102.292C130.476 100.032 128.939 97.501 126.589 97.4106C125.956 97.4106 125.323 97.3202 124.69 97.2298C124.419 97.1394 124.148 96.8683 123.967 96.6875C123.967 96.5971 124.238 96.2355 124.419 96.0547C124.871 95.6027 125.413 95.1507 125.865 94.6988C128.216 92.2581 129.662 89.4559 129.3 85.9305C129.12 83.8514 127.402 81.9531 125.323 81.6819C124.69 81.5915 124.509 81.1395 124.781 80.5068C125.594 78.5181 126.498 76.5294 127.221 74.5407C127.764 73.004 128.577 71.4673 128.487 69.6594C128.396 68.3035 128.125 67.8515 126.769 67.5803C126.498 67.4899 126.137 67.4899 125.865 67.4899C124.419 67.5803 123.063 67.4899 121.707 68.0323C121.436 68.1227 121.074 67.9419 120.803 67.8515C120.894 67.5803 120.894 67.3091 121.074 67.1283C123.063 65.23 123.606 62.7894 124.058 60.2583C124.329 58.2696 124.238 56.3713 123.425 54.5634C122.702 52.9363 121.255 52.5747 119.899 53.6595C119.086 54.2922 118.363 55.1058 117.459 55.7386C117.187 55.9193 116.736 55.9194 116.464 56.1001C116.464 55.7386 116.374 55.377 116.555 55.1058C117.73 52.5747 118.363 49.9533 118.453 47.2414C118.453 44.0776 115.922 41.3658 112.758 41.185C110.95 41.0042 109.504 41.9081 108.058 42.9025C107.877 43.0833 107.515 42.9929 107.244 43.0833C107.154 42.8121 107.063 42.5409 107.063 42.2697C107.244 40.6426 107.515 39.3771 107.877 38.1115ZM88.2611 23.106C87.8995 22.3828 87.6284 21.7501 87.1764 21.1173C85.9109 19.219 84.7357 17.2303 83.3798 15.332C82.2047 13.6145 80.9391 12.0778 79.2216 10.8123C76.5098 8.8236 73.9787 6.74451 72.5324 3.58069C72.442 3.3999 72.2612 3.21911 72.1708 3.03832C71.5381 2.13437 71.2669 2.13437 70.5437 3.03832C68.0127 6.02135 65.3912 9.09478 62.7698 12.1682C61.0522 14.1569 59.0636 15.9648 57.3461 17.9535C55.1766 20.3941 53.0975 22.8348 51.0184 25.2755C50.2049 26.2698 49.3009 27.1738 48.4874 28.2585C48.3066 28.4393 48.2162 29.0721 48.3066 29.1625C48.6682 29.4336 49.2105 29.7952 49.6625 29.7952C49.9337 29.7952 50.2953 29.3432 50.476 29.0721C51.7416 26.4506 53.4591 24.1003 55.9901 22.5636C56.6229 22.202 57.2557 21.8405 57.8884 21.6597C61.0523 20.5749 63.7641 21.6597 66.3856 23.3772C67.2895 24.0099 67.4703 24.0099 67.8319 23.0156C68.2838 21.4789 69.1878 20.5749 70.9053 20.4845C73.0748 20.3038 75.2443 20.5749 77.0522 21.8405C78.6793 22.9252 80.1256 24.2811 80.9391 26.1794C81.2103 26.8122 81.5719 26.8122 82.0239 26.2698C83.1086 25.0947 84.5549 24.3715 86.182 24.1003C86.7244 24.0099 87.3572 24.0099 87.8995 23.8292C87.8092 23.558 87.9899 23.2868 88.2611 23.106Z" fill="white"/>
<path d="M119.9 88.1003C119.448 85.5692 118.996 83.0382 118.544 80.5071C118.273 79.0608 118.273 77.5241 117.821 76.0778C117.188 73.6371 116.284 71.1965 115.561 68.7558C115.29 67.8518 115.109 66.8575 114.657 65.9535C113.843 64.3264 112.939 62.6993 112.035 61.0722C111.312 59.7163 110.68 58.27 109.866 57.0044C108.6 55.1062 107.245 53.2079 105.979 51.4C105.527 50.6768 105.075 49.9536 104.533 49.3209C103.358 48.1457 102.092 47.061 100.917 45.9763C98.7474 43.8972 96.0355 42.6317 93.3237 41.2757C92.1486 40.7334 90.883 40.5526 89.7079 40.0102C87.8096 39.0159 86.0017 37.8407 84.1034 36.8464C81.3012 35.2193 78.3181 34.3153 75.2447 33.5018C75.0639 33.5018 74.8831 33.5922 74.7023 33.6826C74.5215 33.773 74.2504 33.8633 74.0696 33.8633C71.7193 33.8633 69.369 33.773 67.0188 33.773C66.386 33.773 65.7532 33.773 65.1205 33.9537C62.951 34.6769 60.6911 35.3097 58.612 36.304C56.4426 37.2984 54.3635 38.4735 52.3748 39.739C50.3861 41.0045 48.4878 42.5413 46.6799 43.9876C45.5952 44.8915 44.6008 45.9763 43.6065 46.9706C41.9794 48.5977 40.1715 50.1344 38.6348 51.9423C36.3749 54.4734 34.2054 57.0948 32.1263 59.7163C30.8608 61.3434 29.5953 63.1513 28.5105 64.9592C27.5162 66.6767 26.6122 68.3942 25.7083 70.2021C24.5331 72.5524 23.358 74.9026 22.2733 77.3433C21.5501 78.9704 21.0077 80.6879 20.375 82.315C19.2902 85.0269 18.0247 87.7387 17.3016 90.541C16.1264 95.0607 15.2225 99.5805 14.2281 104.1C14.0473 104.733 14.1377 105.456 14.0473 106.089C13.7762 107.897 13.4146 109.614 13.2338 111.332C13.053 113.32 13.053 115.4 12.7818 117.479C12.4202 120.462 12.601 123.354 12.9626 126.337C13.2338 129.32 13.7762 132.303 14.4089 135.196C14.9513 137.727 15.8552 140.258 16.5784 142.789C17.1208 144.416 17.6631 145.953 18.3863 147.49C19.0191 148.936 19.8326 150.202 20.5558 151.558C21.3693 153.185 22.0925 154.902 23.358 156.258C24.4428 157.614 25.4371 159.151 26.6122 160.416C27.9682 161.863 29.5049 163.218 30.9512 164.574C31.4936 165.117 32.3071 165.388 32.8495 166.021C34.7478 168.19 37.3692 169.275 39.8099 170.721C40.3523 171.083 40.985 171.444 41.5274 171.716C41.889 171.896 42.1602 172.168 42.5217 172.348C44.3296 173.072 46.2279 173.524 47.855 174.699C48.0358 174.789 48.307 174.879 48.4878 174.97C50.3861 175.603 52.2844 176.326 54.1827 176.868C55.8098 177.41 57.5273 177.862 59.1544 178.224C60.7815 178.495 62.4086 178.586 64.0357 178.676C66.838 178.857 69.5498 179.851 72.3521 179.218C74.7927 178.676 77.3238 178.405 79.7644 177.953C81.2108 177.682 82.4763 177.23 83.6514 176.597C84.1034 176.868 84.7362 176.778 84.8266 176.145C84.8266 176.055 84.8266 176.055 84.8266 175.964C85.4593 175.603 86.0921 175.151 86.6345 174.789C88.5328 173.433 90.5214 172.258 92.2389 170.631C95.4028 167.829 97.3011 164.032 99.6513 160.597C100.284 159.603 100.646 158.428 101.188 157.343C102.273 155.173 103.538 153.004 104.533 150.744C105.798 148.032 106.883 145.23 107.968 142.518C108.781 140.529 109.504 138.541 110.318 136.552C111.041 134.654 111.855 132.846 112.578 130.947C113.301 129.049 113.753 127.151 114.566 125.343C115.47 123.445 115.922 121.366 116.284 119.287C116.826 116.755 117.278 114.134 117.821 111.603C118.092 110.428 118.544 109.253 118.815 107.987C119.086 106.541 119.448 105.185 119.538 103.739C119.809 99.3997 119.9 95.0607 119.99 90.2698C120.081 89.9082 120.081 89.0043 119.9 88.1003ZM81.3012 175.783C77.6854 176.868 73.9792 177.501 70.1826 177.591C68.2843 177.591 66.386 177.139 64.3973 176.959C63.5838 176.868 62.6798 176.687 61.8663 176.597C59.7872 176.687 57.7985 176.597 55.8098 176.235C52.9172 175.693 50.1149 174.518 47.5839 173.072L47.6743 172.981C49.0302 169.004 49.211 165.207 52.4652 162.043C56.1714 158.518 61.5951 158.247 65.3013 161.772C66.1148 162.586 67.3803 161.32 66.5668 160.507C66.386 160.326 66.1148 160.145 65.934 159.874C75.6063 155.535 82.5667 166.382 83.2898 174.879C82.5667 175.331 81.9339 175.603 81.3012 175.783ZM118.544 92.5296C118.363 96.3262 118.363 100.123 118.092 103.829C118.001 105.637 117.459 107.354 117.098 109.162C116.374 112.507 115.561 115.852 114.928 119.106C114.386 121.908 113.301 124.529 112.307 127.151C110.86 130.857 109.504 134.654 108.058 138.36C107.606 139.625 107.064 140.891 106.521 142.156C105.708 144.145 104.894 146.134 103.99 148.123C103.358 149.659 102.544 151.196 101.821 152.642C101.73 152.823 101.55 153.004 101.278 153.365C101.007 154.089 100.646 154.812 100.284 155.445C100.284 155.625 100.284 155.716 100.194 155.896C99.3801 157.795 98.4762 159.693 97.2107 161.411C96.1259 162.767 95.4028 164.394 94.318 165.75C93.0525 167.286 91.6062 168.642 90.2503 170.089C89.9791 170.36 89.7983 170.36 89.6175 170.179C89.1655 170.54 88.8039 170.902 88.2616 171.173C88.1712 171.173 88.1712 171.264 88.0808 171.264C87.9904 171.535 87.8096 171.896 87.6288 171.987C86.7249 172.529 85.8209 173.162 84.917 173.795C84.917 172.258 84.6458 170.721 84.1034 169.185C83.3802 166.563 82.4763 164.032 82.6571 161.23C82.6571 160.959 82.2955 160.959 82.2051 161.139C81.9339 162.224 81.7531 163.309 81.6627 164.484C77.8661 158.97 71.1769 155.535 65.1205 159.422C56.8945 153.637 44.7816 163.128 46.9511 172.8C45.776 172.168 44.6912 171.444 43.6065 170.721C44.2392 170.179 44.6008 169.275 44.9624 168.461C45.4144 167.286 45.5952 166.021 46.0471 164.846C46.1375 164.665 45.8664 164.574 45.776 164.755C45.324 165.84 44.6912 166.925 44.0585 167.829C43.6065 168.552 42.7929 169.004 42.3409 169.727C42.2506 169.637 42.1602 169.637 42.1602 169.546C41.9794 169.637 41.7986 169.637 41.437 169.456C40.0811 168.642 38.7252 167.829 37.3692 167.015C37.1884 166.925 37.0076 166.744 36.9173 166.473C36.6461 166.563 36.3749 166.563 36.1941 166.292C35.7421 165.84 35.3805 165.298 34.9286 164.846C34.7478 164.936 34.4766 164.755 34.115 164.484C29.7761 161.23 26.2507 157.343 23.358 152.733C21.0981 149.026 19.5614 145.049 18.0247 140.981C16.5784 137.275 15.8552 133.479 15.2225 129.682C14.4089 124.349 14.3185 119.015 14.9513 113.682C15.4033 109.795 15.8552 105.908 16.3976 102.021C16.8496 99.2189 17.3919 96.3262 18.2055 93.6144C19.1095 90.4506 20.1942 87.3771 21.1885 84.3037C22.0021 81.9534 22.906 79.6032 23.9004 77.3433C24.9851 74.9026 26.1603 72.5524 27.4258 70.2021C28.7817 67.5807 30.228 64.9592 31.8551 62.4281C32.9399 60.6202 34.2958 58.9027 35.6517 57.2756C37.7308 54.7446 39.9907 52.3039 42.1602 49.8632C43.6969 48.2361 45.4144 46.6994 46.9511 45.1627C49.3918 42.722 52.2844 41.0045 55.0866 39.1966C57.0753 37.9311 59.2448 37.1176 61.4143 36.0328C63.6741 34.8577 66.0244 34.4961 68.5555 34.5865C70.8153 34.6769 73.0752 34.7673 75.2447 34.7673C75.4255 34.7673 75.5159 34.7673 75.6967 34.8577C77.3238 35.4001 79.0413 36.1232 80.6684 36.5752C82.7475 37.1176 84.6458 38.2023 86.2729 39.4678C88.352 41.0045 90.883 41.2757 93.1429 42.4509C96.2163 44.078 99.3801 45.4339 101.55 48.3265C101.73 48.5073 101.911 48.6881 102.092 48.8689C103.358 49.6825 104.261 50.948 105.075 52.2135C106.521 54.4734 108.058 56.6429 109.595 58.8123C110.047 59.4451 110.318 60.1683 110.68 60.8914C111.674 62.6993 112.578 64.5976 113.482 66.4055C113.753 66.9479 113.843 67.5807 114.024 68.2134C114.747 70.3829 115.561 72.5524 116.194 74.7219C116.736 76.6201 116.917 78.6992 117.278 80.6879C117.459 81.9534 117.64 83.1286 117.911 84.3941C118.453 87.2867 118.634 89.9082 118.544 92.5296Z" fill="white"/>
<path d="M69.4594 9.63692C69.5497 8.82337 69.8209 8.281 70.5441 8.37139C70.9961 8.46179 71.448 8.91376 71.7192 9.36574C71.9 9.63692 70.7249 10.4505 70.1825 10.3601C69.9113 10.3601 69.7305 9.90811 69.4594 9.63692Z" fill="white"/>
<path d="M86.0019 103.558C73.4371 104.462 60.4202 104.642 48.2169 107.806C45.2338 108.62 46.4994 113.23 49.4824 112.416C49.7536 112.326 50.1152 112.236 50.3864 112.236C50.7479 112.778 51.3807 113.14 52.2846 113.049C58.4315 112.597 64.488 112.055 70.6348 111.422C73.6178 111.06 76.6009 110.699 79.5839 110.337C82.2958 109.976 84.9172 109.524 87.2675 108.077C89.0754 106.812 88.4426 103.377 86.0019 103.558Z" fill="#EF4036"/>
<path d="M90.0691 210.314C88.6228 212.122 86.9957 213.84 85.459 215.557C86.3629 213.568 87.3572 211.67 88.5324 209.772C89.3459 208.416 87.4476 206.879 86.3629 208.054C85.9109 208.506 85.5493 208.958 85.0974 209.41C85.3686 208.326 83.9222 207.422 82.9279 207.964C83.7414 206.337 81.3912 204.981 80.4872 206.518C78.8601 209.501 76.781 212.213 74.3404 214.563C75.0635 213.207 75.9675 211.941 76.781 210.676C77.233 210.043 77.685 209.41 78.137 208.778C79.0409 207.512 76.8714 205.794 75.9675 207.06C75.8771 207.15 75.7867 207.241 75.7867 207.331C75.7867 207.331 75.7867 207.331 75.6963 207.422C75.3347 207.874 74.9731 208.326 74.702 208.778C74.25 209.41 73.7076 210.043 73.1652 210.676L74.8827 207.331C75.6059 205.975 73.8884 204.439 72.7133 205.614C71.8093 206.518 70.9958 207.422 70.0918 208.326C69.911 207.331 68.5551 206.608 67.7415 207.512C66.2048 209.229 64.6681 210.857 63.1314 212.574C63.8546 211.309 64.4873 210.043 65.1201 208.687C65.7529 207.331 63.945 205.704 62.9506 206.97C61.7755 208.416 60.5099 209.953 59.2444 211.399C59.6964 210.676 60.2388 209.953 60.6907 209.229C61.1427 208.597 60.7811 207.693 60.1484 207.331C59.4252 206.879 58.702 207.241 58.2501 207.874C58.1597 208.054 58.0693 208.145 57.8885 208.326C58.702 206.97 56.7134 205.614 55.6286 206.698C55.0862 207.15 54.6343 207.693 54.0919 208.145L54.4535 207.602C55.267 206.246 53.2784 204.71 52.284 205.885C50.2049 208.326 47.8547 210.676 45.414 212.845C45.9564 211.851 46.5891 210.857 47.1315 209.862C48.0354 208.326 45.5948 206.879 44.6908 208.416C42.8829 211.489 41.1654 214.563 39.3575 217.727C38.7248 218.902 40.0807 220.438 41.2558 219.625C42.6118 218.631 43.9677 217.636 45.2332 216.551C45.1428 216.732 44.962 216.913 44.8716 217.094C43.9677 218.45 45.9564 219.896 47.0411 218.811C47.3123 218.54 47.5835 218.269 47.8547 218.088C47.4931 218.631 47.1315 219.173 46.7699 219.715C45.866 221.071 47.8547 222.337 48.9394 221.433C49.301 221.162 49.6626 220.89 49.9337 220.529C50.0241 221.433 51.1089 222.337 52.0128 221.704C53.5495 220.71 54.9055 219.535 56.2614 218.359C55.8094 219.173 55.267 219.896 54.8151 220.619C53.9111 221.975 55.8998 223.331 56.9845 222.337C58.5213 220.89 60.058 219.444 61.5947 217.907C61.9563 218.721 63.1314 219.173 63.8546 218.45C65.2105 217.003 66.6568 215.648 68.0127 214.201C67.4704 215.286 66.928 216.371 66.3856 217.365C65.6625 218.811 67.38 220.077 68.5551 219.083C68.6455 219.083 68.6455 218.992 68.7359 218.992C68.7359 218.992 68.7359 218.992 68.7359 219.083C68.4647 219.625 68.4647 220.258 68.9167 220.8C69.3686 221.252 70.0918 221.342 70.6342 220.981C71.7189 220.258 72.8037 219.444 73.798 218.631C73.7076 218.811 73.6172 218.992 73.5268 219.173C72.8037 220.529 74.6116 221.975 75.6963 220.89C76.4195 220.167 77.1426 219.444 77.8658 218.631C78.4081 219.263 79.4025 219.444 80.0353 218.811C80.4872 218.269 80.9392 217.817 81.3912 217.275C80.9392 218.45 80.4872 219.625 80.1256 220.8C79.6737 222.156 81.4816 223.06 82.4759 222.156C84.103 220.619 85.7301 218.992 87.3572 217.365L86.9957 218.54C86.4533 220.258 89.0747 220.981 89.7075 219.263C90.5211 216.732 91.425 214.201 92.2386 211.67C92.8713 210.405 90.973 209.32 90.0691 210.314Z" fill="#39B100"/>
<path d="M86.5432 221.704C84.5546 221.614 82.6563 221.433 80.6676 221.433C78.4077 221.433 76.0574 221.433 73.7976 221.523C70.1818 221.704 66.6564 221.071 63.131 220.619C62.227 220.529 61.3231 220.529 60.4191 220.529C58.0688 220.438 55.6282 220.348 53.2779 220.438C52.0124 220.438 50.7469 220.8 49.4813 220.89C47.4926 220.981 45.5039 220.89 43.6057 220.89C42.9729 220.89 42.3401 221.071 41.7074 220.981C41.3458 220.981 41.0746 220.71 40.713 220.619C40.9842 220.348 41.165 220.077 41.4362 219.896C41.5266 219.806 41.7074 219.806 41.8881 219.806C42.7017 219.806 42.7017 219.354 42.6113 218.811C42.0689 215.828 41.617 212.845 40.9842 209.862C40.713 208.777 41.2554 208.054 41.7074 207.241C41.7978 207.06 42.0689 206.97 42.3401 206.97C42.8825 206.879 43.5153 206.879 44.0576 206.879C47.1311 206.698 50.2949 206.427 53.3683 206.337C56.3513 206.246 59.3344 206.246 62.227 206.337C68.5546 206.337 74.8823 206.427 81.1195 206.518C83.1082 206.518 85.0969 206.608 87.0856 206.698C87.8992 206.698 88.7127 206.698 89.5263 206.698C90.3398 206.698 90.5206 207.15 90.4302 207.964C89.9783 211.037 89.7975 214.02 90.4302 217.094C90.7014 218.269 90.9726 219.444 91.3342 220.619C91.6054 221.614 91.3342 222.066 90.2494 222.066C88.8935 221.614 87.7184 221.704 86.5432 221.704ZM90.0686 220.438C90.0686 220.348 90.0686 220.258 90.0686 220.167C88.9839 216.551 88.8031 212.936 88.8935 209.229C88.8935 208.054 88.4415 207.693 87.2664 207.602C85.6393 207.512 84.0122 207.422 82.3851 207.422C76.2382 207.331 70.0914 207.422 63.8541 207.241C56.8033 206.97 49.8429 207.783 42.7921 207.964C42.0689 207.964 41.7074 208.326 41.8881 209.049C42.2497 210.947 42.6113 212.936 42.9729 214.924C43.2441 216.461 43.5153 217.998 43.7864 219.444C43.8768 219.986 44.148 220.167 44.7808 220.167C46.8599 219.986 48.8486 219.715 50.9276 219.534C51.922 219.444 52.9163 219.354 53.9107 219.354C55.809 219.354 57.7073 219.444 59.696 219.534C61.4135 219.625 63.0406 219.625 64.7581 219.896C68.1931 220.348 71.6281 220.8 75.1535 220.619C77.4134 220.529 79.5828 220.529 81.8427 220.529C84.5546 220.529 87.2664 220.619 90.0686 220.619C89.9782 220.529 89.9782 220.438 90.0686 220.438Z" fill="white"/>
<path d="M54.6341 215.195C55.0861 215.376 55.3573 215.466 55.6285 215.647C55.6285 214.652 55.7189 213.658 55.6285 212.754C55.4477 211.85 54.5437 212.302 53.911 212.121C53.8206 212.121 53.6398 212.212 53.459 212.212C53.0974 212.212 52.7358 212.121 52.3743 212.031C52.6455 211.76 52.8262 211.308 53.1878 211.127C53.459 210.946 53.8206 211.127 54.0918 211.037C54.6341 210.946 55.2669 210.856 55.8093 210.765C55.9901 210.765 56.1709 210.675 56.2612 210.765C57.4364 211.398 58.7019 211.217 59.9674 211.037C60.6906 210.946 60.781 211.308 60.6002 211.76C60.1482 213.116 60.6002 214.381 60.9618 215.647C61.0522 215.828 61.233 216.008 61.3234 216.189C61.5042 216.008 61.7753 215.918 61.8657 215.737C62.0465 214.833 62.1369 214.02 62.4081 213.116C62.4985 212.844 62.6793 212.483 62.7697 212.212C63.0409 212.483 63.4024 212.754 63.4024 213.025C63.4024 214.381 63.3121 215.647 62.5889 216.822C62.3177 217.183 61.8657 217.635 61.4138 217.635C61.0522 217.635 60.5098 217.183 60.4194 216.822C59.9674 215.556 59.6059 214.2 59.3347 212.935C59.1539 212.212 58.8827 212.031 58.2499 212.121C56.8036 212.212 56.7132 212.392 56.6228 213.839C56.6228 214.652 56.6228 215.376 56.5324 216.189C56.442 216.551 56.1709 216.912 55.9901 217.274C55.6285 217.003 55.2669 216.822 54.9957 216.551C54.8149 216.099 54.8149 215.737 54.6341 215.195Z" fill="white"/>
<path d="M47.2221 212.031C48.0357 212.393 48.6685 212.754 49.3012 213.025C49.8436 213.297 50.4764 213.477 51.0187 213.839C51.9227 214.381 52.1035 215.557 51.2899 216.28C49.934 217.545 48.3069 218.178 46.499 218.088C46.1374 218.088 45.7758 217.726 45.5046 217.636C45.6854 217.364 45.7758 217.003 46.047 216.822C46.5894 216.37 47.2221 216.009 47.7645 215.737C47.9453 215.647 48.3069 215.737 48.5781 215.828C48.4877 216.009 48.3069 216.28 48.2165 216.46C48.1261 216.551 47.9453 216.641 47.7645 216.732C49.03 216.822 49.7532 216.099 50.4764 215.376C50.5668 215.285 50.386 214.653 50.2052 214.562C49.3012 214.11 48.3973 213.749 47.4029 213.297C47.2221 213.206 47.0414 213.206 46.951 213.116C45.9566 212.664 45.7758 211.941 46.5894 211.127C47.7645 210.042 49.1204 209.5 50.7475 209.771C51.1995 209.862 51.5611 210.314 51.9227 210.675C52.0131 210.766 51.7419 211.308 51.5611 211.579C51.1995 211.941 50.8379 211.941 50.7475 211.308C50.7475 211.037 50.386 210.766 50.1148 210.675C49.03 210.856 48.1261 211.308 47.2221 212.031Z" fill="white"/>
<path d="M79.4027 216.009C78.318 216.009 78.0468 216.28 77.7756 217.274C77.5948 217.907 77.5948 218.54 77.3236 219.173C77.2332 219.353 76.8717 219.444 76.6005 219.625C76.5101 219.353 76.2389 219.082 76.2389 218.901C76.7813 216.822 77.3236 214.653 77.866 212.574C78.0468 212.031 78.4988 211.67 78.77 211.218C79.2219 211.579 79.7643 211.851 80.0355 212.212C81.3914 214.11 81.9338 216.37 82.1146 218.63C82.1146 218.811 81.8434 218.992 81.6626 219.173C81.301 218.63 80.6682 218.088 80.7586 217.545C81.0298 216.551 80.6682 216.009 79.4027 216.009ZM79.4027 212.845C79.3123 212.845 79.1315 212.845 79.0411 212.845C78.8603 213.478 78.6796 214.11 78.5892 214.743C79.1315 214.834 79.6739 214.924 80.3067 215.014C80.3971 214.924 80.3971 214.834 80.4875 214.743C80.0355 214.11 79.6739 213.478 79.4027 212.845Z" fill="white"/>
<path d="M69.4597 214.382C69.0981 215.557 68.9174 216.822 67.6518 217.546C66.9287 217.907 66.6575 217.817 66.3863 217.003C66.2959 216.642 66.0247 216.371 65.8439 216.009C65.2112 214.653 64.7592 213.207 65.3016 211.67C65.7535 210.314 67.0191 210.133 68.1038 211.128C68.9174 212.032 69.3693 213.116 69.4597 214.382ZM67.1999 216.461C68.827 215.286 68.6462 212.936 67.2902 211.851C66.8383 211.489 66.5671 211.76 66.2959 212.122C65.5727 213.207 66.1151 215.376 67.1999 216.461Z" fill="white"/>
<path d="M73.5263 216.37C73.5263 216.822 73.5263 217.365 73.5263 217.816C73.5263 217.997 73.3455 218.178 73.2551 218.359C73.0744 218.268 72.8936 218.088 72.7128 217.997C72.6224 217.907 72.6224 217.636 72.6224 217.455C72.532 215.828 72.4416 214.11 72.3512 212.483C72.3512 212.122 72.6224 211.76 72.7128 211.489C72.984 211.85 73.3455 212.122 73.4359 212.483C73.5263 213.658 73.5263 214.833 73.6167 216.009C73.6167 216.099 73.6167 216.189 73.5263 216.37C73.6167 216.37 73.5263 216.37 73.5263 216.37Z" fill="white"/>
<path d="M86.9956 30.428C86.9052 30.5184 86.8148 30.5184 86.8148 30.6088C86.8148 30.5184 86.7244 30.5184 86.7244 30.428H86.8148C86.9052 30.428 86.9956 30.428 86.9956 30.428Z" fill="#38B549"/>
<path d="M39.809 48.2353C37.3684 50.224 35.1989 52.3031 33.1198 54.6534C32.7582 55.1054 33.391 55.7381 33.7526 55.2861C35.8316 52.9359 38.0011 50.7664 40.4418 48.8681C40.8938 48.5065 40.261 47.8738 39.809 48.2353Z" fill="white"/>
<path d="M121.799 55.6483C120.623 54.2924 119.087 55.9195 118.454 56.9139C118.183 57.4562 118.906 57.9082 119.267 57.3658C119.629 56.7331 120.533 55.1964 121.256 56.8235C121.437 57.0947 121.256 57.8178 121.256 58.1794C121.256 59.3545 121.075 60.4393 120.985 61.524C120.895 62.0664 121.799 62.3376 121.889 61.7952C122.07 60.62 122.16 59.5353 122.25 58.3602C122.16 57.5466 122.341 56.3715 121.799 55.6483Z" fill="white"/>
<path d="M27.5164 123.897H18.9289C18.3865 123.897 18.3865 124.801 18.9289 124.801H27.5164C28.0588 124.801 28.1492 123.897 27.5164 123.897Z" fill="white"/>
<path d="M28.6902 114.043C26.6111 113.049 24.6225 112.055 22.5434 111.06C22.001 110.789 21.549 111.603 22.0914 111.874C24.1705 112.868 26.1592 113.863 28.2382 114.857C28.6902 115.038 29.1422 114.314 28.6902 114.043Z" fill="white"/>
<path d="M33.663 103.648C31.8551 100.936 30.228 98.1338 28.7817 95.1507C28.5105 94.6083 27.7873 95.0603 27.9681 95.6027C29.4144 98.5857 30.9511 101.388 32.8494 104.1C33.211 104.552 33.9342 104.1 33.663 103.648Z" fill="white"/>
<path d="M112.759 101.027C111.222 101.84 109.595 102.654 108.058 103.377C107.516 103.648 107.968 104.462 108.51 104.191C110.047 103.377 111.674 102.564 113.211 101.84C113.663 101.569 113.211 100.756 112.759 101.027Z" fill="white"/>
<path d="M109.865 112.777C108.058 112.325 106.34 112.235 104.532 112.506C103.99 112.597 103.99 113.501 104.532 113.41C106.25 113.139 107.967 113.229 109.685 113.681C110.137 113.772 110.408 112.958 109.865 112.777Z" fill="white"/>
<path d="M106.521 125.523C104.623 123.806 102.724 121.998 100.917 120.28C100.465 119.919 99.8318 120.551 100.284 120.913C102.182 122.631 104.08 124.438 105.888 126.156C106.34 126.608 106.973 125.975 106.521 125.523Z" fill="white"/>
<path d="M105.074 103.648C104.622 103.106 103.989 102.744 103.357 102.292C102.724 101.84 102.091 101.388 101.458 101.117C101.277 101.027 101.097 101.027 101.006 101.117C101.006 101.117 101.006 101.117 100.916 101.117C100.825 100.936 100.825 100.756 100.735 100.575C100.735 93.7952 100.916 87.1059 101.729 80.3263C101.82 79.6031 100.916 79.4224 100.464 79.7839C100.373 79.6935 100.193 79.6935 100.012 79.6935C96.5769 79.7839 93.2323 79.7839 89.7973 79.8743C89.4357 79.6031 88.8029 79.6031 88.4414 79.8743C71.1759 80.0551 53.7297 79.9647 36.5547 81.5014C36.0123 81.5918 35.9219 82.4054 36.5547 82.4054C53.6393 83.2189 70.8144 82.4054 87.9894 81.7726C87.5374 89.3658 87.1758 97.0494 86.7239 104.643C86.7239 104.733 86.7239 104.823 86.7239 104.914C73.4358 105.275 59.7862 104.733 46.6789 106.179C46.4077 102.473 47.3117 98.5861 47.0405 94.7895C46.8597 90.9929 45.6846 87.2867 45.775 83.4901C45.775 83.3093 45.5942 83.3997 45.5942 83.4901C45.0518 88.6426 46.3173 93.7952 46.0461 98.9477C45.8654 102.654 44.419 108.349 45.9557 111.784C45.9557 111.874 46.0461 111.874 46.0461 111.965C45.1422 111.693 44.1478 111.513 43.2439 111.332C42.0688 111.061 40.8032 110.609 40.2609 111.965C38.9049 114.948 40.6224 119.106 42.4303 121.456C42.5207 121.546 42.6111 121.637 42.7015 121.637C38.453 129.682 39.4473 137.998 44.2382 145.32C43.6959 146.224 43.6055 147.49 43.7863 148.394C43.8767 148.665 43.9671 148.846 44.0575 149.117C41.0744 149.75 38.2722 152.281 36.2835 154.45C34.0236 156.981 32.4869 159.874 31.8541 163.218C31.6734 164.032 32.5773 164.574 33.2101 164.303C33.4812 164.665 33.7524 164.936 33.9332 165.298C34.2948 165.84 34.6564 166.473 34.9276 167.105C35.5603 168.552 37.4586 168.281 37.6394 166.744C37.9106 164.665 36.7355 161.591 34.3852 161.23C36.2835 156.348 40.3513 153.004 44.5094 149.75C45.0518 150.473 45.8654 151.106 46.6789 151.558C47.7636 152.1 48.6676 150.473 47.5829 149.93C46.7693 149.478 45.8654 149.117 45.2326 148.303C44.7806 147.671 44.5998 146.857 44.6902 145.953C45.1422 146.586 45.5942 147.219 46.1365 147.851C46.6789 148.574 48.0348 147.58 47.4925 146.857C46.3173 145.23 45.2326 143.603 44.3286 141.885C45.5942 141.524 46.8597 140.349 46.4077 139.083C45.8654 137.817 43.9671 137.727 42.7015 138.089C42.4303 137.366 42.1592 136.642 41.9784 135.919C42.2496 135.919 42.5207 135.919 42.7919 135.738C44.0575 135.106 45.1422 134.111 45.0518 132.665C44.9614 131.309 43.6055 130.044 42.7015 129.049C42.34 128.688 42.0688 128.597 41.7072 128.597C42.0688 126.337 42.8823 124.077 43.6055 121.637C43.6055 121.546 43.6055 121.456 43.6055 121.366C43.9671 121.094 44.1479 120.642 43.7863 120.19C42.5207 118.563 40.8936 115.309 41.7072 113.14C42.4303 111.332 46.9501 113.592 48.4868 113.592C49.3908 113.863 50.3851 113.953 51.289 114.134C56.4416 114.676 61.8653 114.044 67.0178 113.772C72.1703 113.501 77.4132 113.14 82.5657 112.959C84.1024 112.868 85.7295 113.14 86.9047 112.597H86.995C88.8029 112.055 90.6108 111.332 92.3284 110.609C91.6052 112.959 90.2493 115.671 90.2493 117.84C90.3397 120.1 92.5091 122.36 93.1419 124.529C93.3227 125.253 93.4131 125.885 93.5035 126.609C92.238 126.066 90.2493 126.97 89.1645 127.512C86.995 128.597 87.1758 130.857 88.5318 132.575C89.4357 133.659 91.1532 135.015 92.6899 135.015C92.4187 135.919 92.0572 136.733 91.6956 137.637C91.1532 137.004 90.4301 136.642 89.5261 136.733C88.2606 136.914 87.5374 138.089 87.8086 139.264C87.9894 140.168 88.8933 141.252 89.7973 141.343C88.8933 143.06 87.8086 144.688 86.7239 146.224C86.0911 147.128 87.5374 148.032 88.2606 147.128C88.7126 146.495 89.1645 145.772 89.6165 145.139C89.7069 145.501 89.7973 145.501 90.0685 145.953C91.0628 147.58 92.4187 148.846 93.2323 150.654C94.6786 153.637 95.0402 156.8 95.673 160.055C93.8651 161.591 92.7803 163.218 92.6899 165.659C92.6899 165.75 92.6899 165.93 92.7803 166.021C90.3397 168.733 87.2662 170.992 84.5544 173.343C84.1024 173.704 84.6448 174.427 85.0968 174.066C87.0854 172.8 88.9837 171.444 90.7916 169.998C92.4187 168.733 94.2266 167.467 95.3114 165.75C95.4018 165.659 95.4018 165.478 95.4018 165.388C95.7634 164.846 96.0345 164.303 96.3961 163.761C97.1193 163.399 97.4809 162.766 97.6617 162.043C97.8424 161.863 98.0232 161.682 98.0232 161.32C97.8424 157.614 97.1193 153.456 95.3114 150.111C94.4074 148.394 92.1476 144.959 89.8877 145.049C92.9611 140.439 95.3114 135.286 95.4018 129.682C95.4018 127.151 95.0402 124.529 94.0459 122.179C92.9611 119.648 92.1476 118.383 92.6899 115.49C93.0515 113.592 93.7747 111.874 94.0459 109.976C94.1362 109.343 93.5939 108.891 92.9611 109.162C91.4244 109.795 89.8877 110.428 88.4414 111.151C88.9837 109.705 88.8933 107.806 88.8933 106.27C89.2549 105.998 89.3453 105.366 88.9837 105.004C89.1645 102.563 89.2549 100.123 89.4357 97.7725C89.7069 92.4392 90.0685 87.0155 90.3397 81.6822C93.6843 81.5918 96.9385 81.5014 100.283 81.4111C99.5599 87.5579 99.2888 93.8855 100.012 100.032C100.012 100.123 99.9215 100.123 99.9215 100.213C99.9215 100.394 99.9215 100.484 99.9215 100.665C99.1984 100.846 98.4752 101.208 97.752 101.569C96.8481 101.931 96.0345 102.202 95.221 102.835C94.769 103.196 95.3114 103.739 95.7634 103.739C96.6673 103.558 97.3905 103.106 98.204 102.744C98.8368 102.473 99.4696 102.202 100.012 101.84C100.012 101.84 100.012 101.84 100.012 101.931C99.6503 102.473 99.3792 103.015 99.108 103.558C98.5656 104.462 98.1136 105.275 97.5713 106.179C97.2097 106.722 98.0232 107.264 98.3848 106.812C99.0176 105.998 99.6503 105.275 100.193 104.371C100.283 104.281 100.373 104.1 100.464 103.919C100.645 104.914 100.825 105.908 101.006 106.902C101.097 107.354 101.91 107.264 101.91 106.812C101.82 105.908 101.729 104.914 101.639 103.919C102.091 104.552 102.543 105.275 103.085 105.818C103.447 106.179 103.989 105.727 103.809 105.275C103.266 104.191 102.362 103.106 101.549 102.202V102.111C102.001 102.563 102.543 102.925 102.995 103.377C103.537 103.829 104.08 104.281 104.803 104.552C105.074 104.914 105.436 104.01 105.074 103.648ZM86.5431 109.885C85.1871 112.326 82.1137 111.965 79.8538 112.145C75.7861 112.417 71.8087 112.597 67.7409 112.778C64.1251 112.959 60.4189 113.23 56.8031 113.32C54.9048 113.32 51.4698 113.772 49.7523 112.959C47.5829 111.965 46.9501 109.253 46.7693 106.812C59.967 107.806 73.6166 106.631 86.9047 106.45C86.9047 107.716 86.9047 109.162 86.5431 109.885Z" fill="white"/>
<path d="M83.0186 139.263C81.0299 138.721 78.9508 138.54 76.9622 138.359V138.269C76.9622 137.094 76.0582 136.1 74.9735 135.467C77.3237 134.924 79.7644 134.653 82.2051 134.744C82.4762 134.744 82.4762 134.292 82.2051 134.292C79.4028 134.111 76.7814 134.382 74.1599 135.015C73.3464 134.653 72.5328 134.382 71.9 134.292C70.9961 134.111 70.1825 134.111 69.369 134.201C69.821 133.207 69.9114 132.122 69.4594 131.128C69.1882 130.676 68.6458 130.676 68.2842 130.947C67.5611 131.67 67.0187 132.393 66.6571 133.207C66.0244 131.851 65.1204 130.766 63.8549 131.67C63.5837 131.851 63.4029 132.213 63.4933 132.574C63.8549 133.478 64.2165 134.382 64.7588 135.196C62.047 133.568 58.2504 133.388 56.8945 135.919C54.725 135.828 52.5555 135.919 50.4764 136.28V136.371C52.5555 136.461 54.5442 136.552 56.6233 136.642C56.6233 136.732 56.5329 136.823 56.5329 137.003C56.3521 137.817 56.6233 138.45 56.9849 138.992C54.9962 139.444 52.9171 139.987 50.9284 140.529C50.7476 140.529 50.838 140.8 51.0188 140.8C53.1883 140.258 55.3578 139.896 57.5272 139.535C58.4312 140.258 59.7871 140.71 60.7815 140.981C61.8662 141.252 62.9509 141.342 63.9453 141.162C63.8549 142.608 64.4877 143.602 66.2052 143.874C67.9227 144.145 69.5498 143.15 69.9114 141.433C72.9848 142.337 76.7814 141.614 77.0525 138.45C79.0412 138.721 81.1203 139.173 83.109 139.444C83.1994 139.625 83.1994 139.354 83.0186 139.263ZM59.6967 139.625C59.5159 139.535 59.3351 139.444 59.1544 139.354C60.0583 139.173 60.9623 139.083 61.7758 138.902C62.2278 138.811 62.047 138.088 61.595 138.179C60.5103 138.359 59.4255 138.54 58.3408 138.721C57.9792 138.269 57.6176 137.817 57.6176 137.275C57.6176 137.184 57.6176 137.004 57.6176 136.913C59.4255 137.004 61.2334 137.184 63.1317 137.365C63.4933 137.365 63.4933 136.823 63.2221 136.823C61.5046 136.552 59.6967 136.28 57.8888 136.19C58.5216 135.196 59.8775 134.744 61.0527 135.015C61.5046 135.015 62.047 135.015 62.499 135.196C63.1317 135.376 64.0357 135.648 64.3973 136.28C64.7588 136.552 65.03 136.823 65.3916 137.275C65.5724 137.455 65.7532 137.636 65.934 137.817C66.0244 137.998 66.1148 138.179 66.2956 138.269C65.5724 138.992 64.8492 139.535 64.0357 139.715C63.9453 139.987 63.6741 140.167 63.3125 140.167C62.1374 139.987 60.8719 140.077 59.6967 139.625ZM66.2052 142.97C65.1204 142.789 64.5781 142.156 64.3069 141.252C65.2108 140.981 66.1148 140.529 66.8379 139.806C67.3803 140.439 68.1035 140.89 68.917 141.252C68.6458 142.518 67.4707 143.15 66.2052 142.97ZM75.6062 138.269C74.4311 138.179 73.3464 138.088 72.1712 137.998C71.9 137.998 71.8096 138.359 72.0808 138.359C73.256 138.269 74.3407 138.359 75.5158 138.45C74.8831 140.89 69.0074 141.614 67.4707 138.269C67.3803 138.088 67.2899 138.088 67.1091 137.998C67.4707 137.907 67.6515 137.636 67.5611 137.275C67.8323 136.732 68.1938 136.19 68.5554 135.648C70.0017 135.015 71.8096 134.834 73.256 135.286C72.2616 135.557 71.1769 136.009 70.1825 136.371C69.7306 136.552 70.0921 137.184 70.5441 137.003C71.7193 136.461 72.8944 136.009 74.1599 135.738C74.5215 135.919 74.7927 136.19 75.0639 136.552C75.6062 137.184 75.6966 137.727 75.6062 138.269Z" fill="white"/>
<path d="M56.3523 120.462C52.0134 120.733 53.1885 127.874 53.9117 131.219C53.6405 131.671 53.8213 132.394 54.454 132.303C56.4427 132.123 58.5218 131.761 60.5105 131.309C60.7817 131.219 60.9625 130.948 60.9625 130.676C61.0529 127.874 60.9625 120.1 56.3523 120.462ZM59.7873 130.134C59.245 130.224 58.793 130.315 58.2506 130.405C58.6122 129.592 58.4314 128.688 58.341 127.784C58.2506 126.609 58.1602 125.343 57.6179 124.258C57.1659 123.354 55.81 123.716 55.6292 124.529C55.2676 125.705 55.4484 126.97 55.4484 128.145C55.4484 129.049 55.4484 130.044 55.9907 130.676C55.5388 130.767 55.0868 130.767 54.6348 130.857C54.6348 129.682 54.6348 128.597 54.7252 127.422C54.7252 126.337 54.3636 122.722 55.7196 122.179C56.5331 122.27 57.2563 122.36 58.0698 122.36C58.5218 122.812 58.8834 123.354 59.0642 123.897C59.3354 124.529 59.5161 125.162 59.6969 125.795C59.7873 127.241 59.7873 128.688 59.7873 130.134Z" fill="white"/>
<path d="M76.0577 119.558C71.8091 118.744 71.1764 125.976 71.086 129.411C70.7244 129.772 70.7244 130.495 71.3572 130.586C73.3459 130.857 75.4249 131.038 77.4136 131.128C77.6848 131.128 77.956 130.947 78.0464 130.676C78.7696 127.874 80.5775 120.371 76.0577 119.558ZM76.9617 129.772C76.4193 129.772 75.8769 129.682 75.4249 129.591C75.9673 128.959 75.9673 127.964 76.1481 127.06C76.3289 125.885 76.6001 124.71 76.3289 123.535C76.1481 122.541 74.7922 122.541 74.3402 123.264C73.7074 124.258 73.5266 125.614 73.2555 126.789C73.0747 127.603 72.8035 128.597 73.1651 129.32C72.7131 129.23 72.2611 129.23 71.8091 129.14C72.0803 128.055 72.4419 126.97 72.7131 125.795C72.9843 124.71 73.5266 121.185 74.973 120.914C75.6961 121.185 76.4193 121.456 77.1424 121.727C77.4136 122.269 77.6848 122.812 77.6848 123.445C77.7752 124.077 77.8656 124.801 77.8656 125.433C77.6848 126.97 77.3232 128.416 76.9617 129.772Z" fill="white"/>
<path d="M46.7692 115.67C45.6844 114.857 44.5093 114.224 43.2438 113.862C43.2438 113.862 43.2438 113.862 43.2438 113.772C43.063 113.591 42.7918 113.682 42.7918 113.862C42.611 114.766 42.7918 115.67 42.9726 116.574C43.1534 117.388 43.3342 118.292 43.9669 118.924C44.2381 119.196 44.6901 119.286 45.0517 119.105C45.7748 118.653 46.8596 117.84 46.7692 116.845C47.0404 116.665 47.2212 116.032 46.7692 115.67Z" fill="white"/>
<path d="M90.0698 112.869H89.9794C89.437 112.959 88.8946 113.23 88.3522 113.501C87.9003 113.682 87.3579 113.863 86.9963 114.134C86.7251 114.405 86.7251 114.676 86.8155 115.038C86.9963 115.49 87.2675 116.213 87.6291 116.484C87.7195 116.575 87.8099 116.575 87.9003 116.575C87.9907 116.756 88.2619 116.846 88.533 116.756C89.1658 116.575 89.1658 115.852 89.2562 115.309C89.5274 114.586 89.889 113.772 90.2505 113.14C90.4313 112.959 90.2505 112.778 90.0698 112.869Z" fill="white"/>
<path d="M79.0404 147.399C72.9839 148.755 67.5602 150.021 61.4133 148.303C61.4133 148.303 61.3229 148.303 61.4133 148.394C67.0178 150.473 73.9782 151.377 79.4019 148.303C79.8539 147.942 79.4923 147.309 79.0404 147.399Z" fill="white"/>
<path d="M80.3973 149.93C79.1318 150.382 78.047 151.015 76.6911 151.286C74.9736 151.648 73.2561 151.557 71.4482 151.377C70.9962 151.286 70.9058 152.009 71.3578 152.1C73.3465 152.733 75.4256 152.913 77.5951 152.642C78.951 152.461 80.5781 152.281 81.3013 151.015C81.6628 150.473 81.0301 149.659 80.3973 149.93Z" fill="white"/>
<path d="M82.8377 84.755C77.6852 84.755 72.4423 85.2974 67.2898 85.5686C67.0186 85.5686 67.0186 85.9301 67.2898 85.9301C72.4423 86.2013 77.6852 86.5629 82.8377 86.1109C83.6513 86.0205 83.6513 84.755 82.8377 84.755Z" fill="black"/>
<path d="M83.6516 86.9245C81.9341 87.1053 80.307 87.4669 78.5895 87.2861C78.0471 87.2861 78.0471 88.0997 78.5895 88.1901C80.2166 88.3709 81.9341 88.5516 83.6516 88.3709C84.5556 88.1901 84.5556 86.7437 83.6516 86.9245Z" fill="black"/>
<path d="M77.5944 56.1C77.7752 49.9532 73.165 44.0775 66.295 44.7103C60.2386 45.2526 57.7075 52.3938 59.2442 57.8175C58.2499 57.3656 56.9844 57.3656 55.8092 57.8175C54.9957 58.0887 54.1821 58.6311 53.7301 59.3542C53.007 60.7102 54.1821 60.891 53.007 60.2582C52.8262 60.1678 52.555 60.2582 52.4646 60.439C52.0126 61.8853 52.0126 62.6085 52.9166 63.9644C53.2782 64.5068 54.0917 63.9644 53.6397 63.422C53.3686 63.3316 53.1878 63.2412 53.0974 62.97C53.007 62.7893 52.9166 62.6085 52.8262 62.3373C52.7358 62.0661 52.7358 61.7949 52.8262 61.5237C52.9166 61.0718 53.5493 60.8006 53.9109 61.0718C54.0917 61.1621 54.1821 61.3429 54.2725 61.4333C54.1821 59.8966 55.3572 58.6311 56.894 58.2695C58.2499 57.9983 59.6058 58.6311 60.5098 59.535C60.6001 59.4446 60.7809 59.2639 60.8713 59.1735C58.2499 54.1113 60.7809 45.6142 67.3798 45.8854C74.2498 46.1566 77.6848 53.0266 75.8769 58.9927C76.2385 59.0831 76.6001 59.2639 76.8712 59.4446C76.9616 59.2639 76.9616 58.9927 77.052 58.8119C79.0407 53.0266 83.3797 58.0887 84.5548 60.2582C85.8203 62.5181 85.0972 63.5124 82.5661 63.9644C79.6735 64.5068 75.9673 63.874 72.9843 63.7836C66.5662 63.6932 60.2386 63.6028 53.8205 63.5124C53.6397 63.5124 53.7301 63.6932 53.8205 63.6932C59.6058 63.9644 65.3911 64.326 71.2667 64.5068C75.7865 64.6875 81.7526 65.8627 86.0915 64.6876C86.2723 64.6876 86.3627 64.5068 86.4531 64.326C87.809 58.9927 81.2102 52.7554 77.5944 56.1Z" fill="white"/>
<path d="M66.1148 66.2242C60.4199 65.5011 54.4538 65.9531 48.7589 66.405C48.4877 66.405 48.4877 66.857 48.7589 66.857C54.5442 66.5858 60.3295 67.0378 66.1148 66.9474C66.6571 66.9474 66.5667 66.2242 66.1148 66.2242Z" fill="white"/>
<path d="M50.3865 67.5807C47.8555 67.4903 45.3244 68.1231 42.7934 68.5751C42.3414 68.6655 42.4318 69.3886 42.8838 69.2982C45.4148 69.0271 48.0363 69.0271 50.4769 68.3039C50.9289 68.2135 50.8385 67.5807 50.3865 67.5807Z" fill="white"/>
<path d="M47.5837 81.5015C46.499 80.688 45.1431 82.4055 45.9566 83.3998C45.9566 83.4902 45.8662 83.7614 45.8662 84.123C45.7758 84.4846 45.7758 84.8462 45.6854 85.2077C45.595 86.1117 45.5046 87.0156 45.5046 87.9196C45.5046 89.6371 45.6854 91.445 46.1374 93.1625C46.2278 93.6145 46.8606 93.5241 46.951 93.0721C47.3125 90.3603 47.5837 87.7388 48.2165 85.1173C48.5781 83.5806 48.9396 82.4959 47.5837 81.5015Z" fill="black"/>
</svg>
