<svg width="76" height="131" viewBox="0 0 76 131" fill="none" xmlns="http://www.w3.org/2000/svg">
<path d="M32.9676 47.0426C32.7585 46.3105 31.9218 46.2059 31.4512 46.5197C31.2943 46.4674 31.1375 46.4674 30.9283 46.5197C30.4054 45.8399 29.1504 45.9968 29.2027 47.0426C29.2027 47.3041 29.2027 47.5132 29.2027 47.7747C29.0981 47.7747 29.0458 47.827 28.9412 47.827C28.6798 47.7747 28.3137 47.827 28.1045 47.9839C28 47.6701 27.8954 47.3564 27.8431 47.0426C27.5293 46.0491 25.856 46.1537 25.9083 47.3041C26.2743 54.6249 26.4312 61.9457 26.3789 69.2665C26.3789 69.8417 26.8496 70.2077 27.3725 70.26C27.8954 70.3123 28.366 70.3123 28.8889 70.3646C28.8889 70.4169 28.8889 70.5215 28.9412 70.5738C29.0981 71.8288 30.7191 71.8288 30.876 70.5738V70.5215C31.7127 70.5738 32.5493 70.6261 33.386 70.7306C33.9089 70.7829 34.3272 70.26 34.3795 69.7371C34.4841 67.8546 34.4841 65.9721 34.4318 64.1419C35.2162 58.4421 34.7456 52.5855 32.9676 47.0426ZM28.3137 68.4298C28.3137 67.75 28.3137 67.1225 28.3137 66.4427C28.4183 67.1225 28.4706 67.75 28.5752 68.4298C28.5229 68.4298 28.4183 68.4298 28.3137 68.4298ZM31.1374 67.9069C31.4512 68.0638 31.8695 68.0115 32.131 67.75C32.2356 67.8546 32.3402 67.9069 32.4447 67.9592C32.4447 68.2206 32.4447 68.4821 32.4447 68.7436C31.9741 68.6913 31.5035 68.6913 31.0852 68.639C31.0852 68.4298 31.0852 68.1684 31.1374 67.9069Z" fill="#39B100"/>
<path d="M51.27 66.5471C51.0609 62.5206 50.5902 58.4942 49.9627 54.4677C49.7013 51.7486 49.3875 48.9771 48.9169 46.258C48.76 45.369 47.505 45.369 47.0867 46.0488C47.0344 46.0488 46.9821 46.1011 46.9821 46.1011C46.8776 46.1011 46.8253 46.0488 46.7207 46.0488C46.3023 46.0488 45.884 46.3626 45.7794 46.7286H45.7271C45.5703 46.7286 45.4134 46.7286 45.2565 46.8332C44.6813 46.5717 43.7924 46.8855 43.7924 47.6699C44.0538 55.0429 44.5767 62.3638 45.3611 69.6846C45.4134 70.1552 45.6748 70.5735 46.1978 70.6258C46.6161 70.6781 47.1913 70.4166 47.2436 69.946C47.4005 69.0571 47.505 68.1681 47.6096 67.2791C47.7665 68.1681 47.9757 69.1093 48.1325 69.9983C48.3417 71.0441 50.1719 70.835 50.0673 69.7368C50.015 69.0048 49.9105 68.2727 49.8582 67.5406C49.9105 67.5406 49.9627 67.4883 50.015 67.436C50.5902 67.5929 51.3223 67.2269 51.27 66.5471Z" fill="#EF4036"/>
<path d="M72.8664 60.0109C73.1279 60.4293 73.3893 60.743 73.5985 61.1091C74.9581 63.2007 74.226 65.8676 71.9252 67.018C71.5068 67.2272 71.35 67.4363 71.5068 67.9069C71.716 68.4822 71.7683 69.0574 71.9252 69.6326C72.3958 71.9857 71.35 73.7636 69.6243 75.28C69.5198 75.3846 69.3629 75.6461 69.4152 75.7507C70.3041 77.8946 69.4152 79.7248 68.4216 81.5027C67.5327 83.1238 66.1208 84.1696 64.4998 84.9017C64.0814 85.0585 63.9246 85.2677 64.1337 85.7383C64.2906 86.1044 64.4475 86.5227 64.6044 86.941C65.2319 88.6144 64.6567 90.0262 63.7154 91.3858C63.1925 92.1179 62.5127 92.7977 61.8329 93.4252C61.1531 94.0004 60.3688 94.4187 59.6367 94.8893C59.0092 95.2554 58.5386 95.5691 58.4863 96.4581C58.3817 97.87 57.4927 98.9681 56.5515 99.9093C54.9827 101.53 52.9957 102.262 50.7471 102.524C50.2242 102.576 49.649 102.419 49.0738 102.315C48.7078 102.262 48.5509 102.367 48.4463 102.733C48.028 104.825 46.8253 106.237 44.7859 107.021C43.4786 107.492 42.2236 107.544 40.9686 107.126C40.1843 106.864 39.4522 106.289 38.7724 105.766C38.2495 105.348 38.3018 105.348 37.988 105.871C37.2559 107.021 36.6807 108.381 35.3211 109.06C34.3276 109.583 33.3341 109.792 32.3405 109.479C31.2947 109.165 30.1443 108.851 29.4122 107.91C29.1508 107.596 28.8893 107.23 28.6801 106.864C28.5233 106.603 28.3664 106.341 28.4187 106.341C27.9481 106.655 27.4774 107.021 26.9545 107.335C26.2747 107.753 25.5949 108.276 24.8106 108.381C23.9739 108.485 22.9804 108.328 22.196 108.014C21.0979 107.544 20.052 106.864 19.0585 106.184C18.7448 105.975 18.5356 105.505 18.3264 105.086C18.2218 104.877 18.1696 104.616 18.065 104.406C17.6989 103.413 17.4898 103.308 16.4962 103.622C16.3916 103.674 16.2871 103.727 16.1825 103.674C15.1889 103.517 14.1431 103.727 13.2019 103.151C12.2083 102.524 11.2148 101.896 10.4304 101.007C9.43688 99.9093 9.28001 98.602 9.3323 97.2425C9.3323 96.981 9.38459 96.6673 9.43688 96.3535C8.86167 96.5104 8.39105 96.7718 7.92043 96.7718C7.29293 96.7718 6.56085 96.7718 5.98564 96.5104C5.30586 96.1966 4.67836 95.8306 4.20774 95.1508C3.73711 94.471 3.7894 93.6866 3.63253 92.9546C3.26649 90.9675 3.37107 88.9804 3.63253 86.9933C3.73711 85.9998 4.26003 85.0585 4.57378 84.1173C4.62607 84.1173 4.67836 84.1173 4.78294 84.1173C4.57378 84.0127 4.4169 83.8558 4.20774 83.8036C3.05732 83.6467 2.5867 82.7054 2.06379 81.8688C1.48858 80.9275 1.33171 79.8817 1.48858 78.7313C1.59316 77.9992 1.43629 77.2148 1.43629 76.4305C1.43629 75.9075 1.48858 75.4369 1.64545 74.914C2.01149 73.659 2.42983 72.3517 2.84816 71.0967C2.95274 70.783 3.00503 70.5738 2.63899 70.4169C1.07025 69.6326 0.338168 68.3253 0.495042 66.5997C0.599625 65.1878 0.808791 63.7759 1.54087 62.5209C2.11608 61.5274 2.74357 60.5861 3.37107 59.5926C3.52795 59.3834 3.73711 59.2266 3.94628 59.0697C4.36461 58.7037 4.36461 58.4945 3.94628 58.1284C3.52795 57.7624 2.95274 57.5009 2.74357 57.0303C2.53441 56.5074 2.48212 55.8276 2.63899 55.3047C3.00503 53.4745 3.73711 51.8012 4.83523 50.2324C5.0444 49.9187 5.09669 49.5526 5.30586 49.2389C6.14252 48.0885 7.08377 46.9381 8.33876 46.1537C9.17542 45.6308 9.22771 45.5785 8.49563 44.8987C7.60668 44.062 7.5021 43.0685 7.92043 41.9704C8.02501 41.7612 8.02501 41.4998 8.12959 41.2906C8.96626 39.1466 10.3258 37.3164 12.156 35.9046C13.0973 35.1725 14.0908 34.4404 15.2935 34.179C15.3981 34.179 15.5027 34.0221 15.6596 33.9175C15.0844 33.2377 14.9798 32.4533 15.2412 31.6167C15.4504 30.8846 15.6073 30.1525 16.3394 29.6819C16.8623 29.3158 17.2283 28.7929 17.6989 28.4269C18.3787 27.904 19.0585 27.3288 19.8429 26.9627C20.9933 26.3875 22.2483 25.9692 23.451 25.4463C24.1308 25.1848 24.1308 25.1325 23.817 24.4527C23.451 23.6161 23.5556 22.7794 24.0262 22.0996C24.706 21.0015 25.3858 19.8511 26.4839 19.119C27.0068 18.753 27.6343 18.3869 28.2095 18.1255C28.5233 17.9686 28.7324 17.864 28.7847 17.4457C28.8893 16.8705 29.1508 16.3476 29.4645 15.8247C30.0397 14.7265 30.6149 13.6284 31.2424 12.5303C32.602 10.1249 33.9616 7.77177 35.3211 5.41865C36.1055 4.00678 36.8899 2.59492 37.6743 1.18305C37.988 0.660132 38.3541 0.60784 38.7201 1.07846C39.7136 2.43804 40.7595 3.84991 41.7007 5.26178C42.7988 6.9874 43.8969 8.71302 44.9428 10.4386C45.1519 10.7524 45.2565 11.1184 45.4657 11.4845C45.884 12.1643 46.4069 12.7918 46.773 13.5238C47.1913 14.3605 47.5573 15.3017 47.9234 16.1384C48.2894 16.9751 48.6032 17.7594 48.9692 18.5438C49.0215 18.7007 49.3353 18.753 49.5444 18.753C50.6948 18.8576 51.8452 18.9621 53.048 19.0667C54.669 19.2759 55.8717 20.5832 55.7671 22.0996C55.7148 22.7794 55.4534 23.4069 55.2442 24.0867C55.1919 24.2436 55.1396 24.4527 55.0873 24.6619C55.3488 24.6619 55.5579 24.7142 55.7148 24.6619C57.8588 24.2959 59.9504 24.7142 61.9375 25.4463C64.3952 26.3875 65.2841 27.6948 64.186 30.414C64.0814 30.6754 63.9246 30.9369 63.7677 31.1983C63.4017 31.8258 63.0356 32.401 62.6696 33.0285C62.3558 33.5515 62.4604 33.7606 63.0356 33.8652C63.7677 33.9698 64.4998 33.9698 65.2319 34.0221C66.2777 34.1267 67.2189 34.3881 67.8987 35.2771C68.1079 35.5385 68.4216 35.7477 68.5785 36.0092C69.1537 36.8981 69.0491 37.8917 68.7877 38.7806C68.5262 39.7219 68.0033 40.6108 67.5327 41.4998C67.2712 42.0227 67.2712 42.1796 67.8464 42.3887C68.9446 42.807 69.8858 43.4868 70.7225 44.3235C71.1931 44.7941 71.35 45.3693 71.4023 45.9968C71.6637 48.2454 70.6702 50.0233 69.1014 51.5397C68.84 51.8012 68.5262 51.8012 68.2648 51.4874C68.0033 51.1737 68.1079 50.9645 68.4216 50.7031C69.5721 49.8141 70.1996 48.6114 70.3041 47.1472C70.4087 45.6308 69.8335 44.5327 68.5785 43.8529C68.0556 43.5391 67.4804 43.2777 66.9052 43.0685C65.8071 42.5979 65.7548 42.1796 66.4346 41.186C67.0098 40.4016 67.4281 39.5127 67.7419 38.6237C68.3171 36.6889 67.1143 34.911 64.8135 34.8587C64.0292 34.8587 63.1925 34.8065 62.4081 34.7019C62.0944 34.6496 61.7806 34.5973 61.5715 34.4404C61.1531 34.179 60.9963 33.8652 61.31 33.3946C61.7283 32.7671 62.199 32.0873 62.6173 31.4075C62.9833 30.8323 63.2448 30.2048 63.5585 29.5773C64.0292 28.5315 63.4539 27.2765 62.5127 26.8059C60.2642 25.7077 58.0156 25.3417 55.5579 25.7077C55.0873 25.76 54.6167 25.8123 54.1461 25.8646C53.6232 25.9169 53.3617 25.4986 53.5709 25.028C53.8846 24.4005 54.2507 23.773 54.5121 23.1455C55.1396 21.7336 54.5644 20.8446 53.2048 20.2694C52.0544 19.7465 50.8517 19.7465 49.649 19.7988C49.4921 19.7988 49.3353 19.8511 49.283 19.9557C49.0215 20.2694 48.7601 20.374 48.394 20.1126C48.2894 20.008 48.028 20.1126 47.8188 20.1648C47.3482 20.3217 46.8776 20.5309 46.4069 20.6878C46.1978 20.7401 45.884 20.7923 45.8317 20.6878C45.7271 20.4786 45.6749 20.2171 45.7271 19.9557C45.8317 19.5896 46.0409 19.2236 46.1455 18.8053C46.3024 18.1778 46.4592 17.5503 46.5115 16.9228C46.5638 16.1384 46.1455 15.6678 45.3611 15.4063C44.4722 15.1449 43.6878 15.4063 42.9034 15.7201C41.8576 16.1384 40.9163 16.7136 40.1843 17.5503C40.0274 17.7071 39.7136 17.9163 39.6091 17.864C39.3999 17.7071 39.243 17.4457 39.1384 17.1842C38.9293 16.609 38.8247 16.0338 38.5632 15.4586C38.1449 14.4128 37.5697 14.2036 36.733 14.9357C35.2689 16.0861 34.0139 17.4457 33.4387 19.2759C33.3341 19.6942 32.7066 19.9557 32.2882 20.2171C32.1837 20.2694 31.8699 20.1126 31.8176 19.9557C31.0855 18.5961 29.3076 18.6484 28.2618 19.119C26.5362 19.8511 25.4381 21.1584 24.8106 22.9363C24.5491 23.7207 25.0197 24.505 25.8564 24.6619C26.0656 24.7142 26.327 24.7142 26.4839 24.8188C26.6931 24.9757 27.0068 25.2894 27.0068 25.3417C26.9022 25.6032 26.6408 25.9169 26.3793 25.9692C25.5949 26.4921 24.8106 26.4921 24.1308 26.7013C22.3006 27.1719 20.4704 27.7471 19.0062 28.8975C18.065 29.6819 17.3329 30.7277 16.5485 31.669C16.2348 32.0873 16.1825 32.6102 16.4962 33.0285C16.8623 33.4992 17.176 34.0221 17.9604 33.8652C18.431 33.7606 18.9016 33.9175 19.3723 34.0221C19.5291 34.0744 19.8429 34.3881 19.7906 34.545C19.7383 34.7542 19.4768 35.0679 19.2677 35.1202C18.7448 35.2248 18.1696 35.3294 17.6466 35.2771C14.7183 35.1725 12.7835 36.7935 11.1625 38.8852C10.4304 39.7219 9.9075 40.6631 9.38459 41.6043C9.17542 42.0227 9.07084 42.5456 8.96626 43.0685C8.80938 44.0098 9.17542 44.585 10.0644 45.0033C10.3781 45.1602 10.7442 45.2125 11.0579 45.3693C11.2671 45.4739 11.6331 45.7354 11.5808 45.7877C11.4762 46.0491 11.3194 46.3629 11.0579 46.5197C10.535 46.7812 9.95979 46.9381 9.43688 47.1472C8.0773 47.7224 7.18835 48.8729 6.35168 50.0233C5.51502 51.1737 4.93982 52.481 4.36461 53.736C4.10315 54.3635 3.94628 55.0433 3.89399 55.723C3.73711 56.8735 4.46919 57.6578 5.6196 57.7624C6.09023 57.8147 6.56085 57.6578 7.08377 57.6578C7.5021 57.6578 8.0773 57.4487 8.18189 57.9716C8.28647 58.4945 7.81585 58.7037 7.34522 58.8082C4.52148 59.488 3.16191 61.5274 2.27295 64.0374C1.9592 64.9263 1.85462 65.8676 1.80233 66.8088C1.69775 68.4822 2.69128 69.528 4.36461 69.7371C4.93982 69.7894 5.0444 69.9463 4.78294 70.4692C4.36461 71.3059 3.89399 72.0903 3.47565 72.9269C3.2142 73.5021 3.05732 74.1296 2.95274 74.7048C2.5867 76.9011 2.42983 79.0973 3.37107 81.189C3.94628 82.444 5.0444 83.0715 6.29939 82.1302C6.45627 82.0256 6.61314 81.8688 6.82231 81.8165C7.03147 81.7642 7.29293 81.8165 7.55439 81.7642C7.5021 82.0256 7.5021 82.2348 7.44981 82.4963C7.39751 82.6009 7.29293 82.7054 7.18835 82.81C7.55439 83.4898 7.18835 84.4833 6.50856 84.5356C5.41044 84.5879 5.09669 85.3723 4.99211 86.1044C4.52148 88.5098 4.57378 90.9675 4.99211 93.4252C5.20127 94.4187 5.82877 94.9416 6.71772 95.2031C7.81585 95.5168 8.80938 95.2031 9.75063 94.7325C10.169 94.5233 10.5873 94.1573 11.0056 93.8958C11.1625 93.7912 11.3717 93.6343 11.5808 93.6343C11.79 93.6343 12.0515 93.6866 12.156 93.8435C12.2606 94.0004 12.2083 94.2618 12.1037 94.471C11.9992 94.6802 11.79 94.8893 11.5808 95.0462C10.4827 96.1443 10.1167 97.9222 10.7442 99.3341C10.901 99.7002 11.2148 100.014 11.5285 100.275C12.8881 101.53 14.4046 102.576 16.3916 102.21C17.0191 102.106 17.5421 101.74 18.1173 101.478C18.3264 101.373 18.6402 101.269 18.7448 101.373C18.9016 101.478 19.0062 101.792 19.0062 102.053C18.8493 103.57 19.2154 104.877 20.4704 105.714C21.6731 106.55 22.9804 107.23 24.5491 107.021C25.6995 106.916 26.5362 106.184 27.216 105.295C27.5297 104.877 27.7389 104.354 28.0526 103.883C28.1572 103.727 28.471 103.57 28.6278 103.57C28.7847 103.622 28.9939 103.883 28.9939 104.093C28.9416 105.609 29.6737 106.759 30.8764 107.492C32.8635 108.694 34.7982 108.642 36.2101 106.55C36.7853 105.714 37.1513 104.772 37.622 103.883C37.8834 103.413 38.1972 103.57 38.4586 103.779C38.8247 104.093 39.1384 104.459 39.4522 104.825C40.2888 105.766 41.387 106.08 42.5897 106.08C43.7924 106.132 44.8905 105.766 45.7794 104.929C46.9299 103.883 47.6096 102.628 47.3482 101.007C47.3482 100.903 47.2436 100.746 47.2959 100.641C47.3482 100.432 47.4005 100.171 47.5051 100.118C47.6619 100.066 47.9757 100.118 48.0803 100.223C49.1261 101.373 50.4334 101.269 51.793 100.955C53.048 100.641 54.1984 100.223 55.1919 99.3341C56.1331 98.5497 56.8129 97.6085 57.3358 96.5104C57.545 95.9875 57.4404 95.5168 57.1267 95.0985C57.0221 94.9416 56.9175 94.6802 56.9698 94.471C56.9698 94.3664 57.3358 94.3664 57.545 94.3141C58.434 93.9481 59.3752 93.6866 60.1073 93.216C61.5192 92.2748 62.6696 91.0721 63.4539 89.5556C64.2383 87.9869 63.6631 86.209 62.7219 85.1631C62.565 84.954 62.5127 84.6925 62.4081 84.4311C62.6173 84.3788 62.8265 84.2742 63.0356 84.2219C64.4998 83.9604 65.6502 83.1238 66.5914 82.0779C67.8464 80.6661 68.6831 78.9927 68.6831 77.058C68.6831 76.3259 68.5262 75.6461 67.8987 75.1755C67.7419 75.0709 67.7419 74.7571 67.6373 74.548C67.8464 74.4434 68.1079 74.2865 68.3171 74.3388C68.8923 74.4434 69.3106 74.1819 69.6243 73.7636C71.35 71.4628 71.4023 70.1032 70.2518 67.4886C70.095 67.1749 69.7289 66.9657 69.5198 66.7042C69.4152 66.5474 69.4152 66.2859 69.4675 66.129C69.5198 66.0245 69.8335 66.0245 69.9904 66.0767C71.1408 66.4428 71.6637 66.2859 72.3958 65.3447C73.3893 64.0897 73.3893 62.3118 72.3958 61.0568C71.9775 60.4816 71.5068 59.9586 70.827 59.6449C70.6179 59.5403 70.5133 59.2266 70.4087 59.0174C70.6702 58.9651 70.8793 58.8082 71.1408 58.8082C71.8206 58.8082 72.4481 59.0174 73.1279 58.9128C74.3306 58.7559 74.7489 57.9193 74.226 56.7689C73.6508 55.4616 72.6572 54.5203 71.4023 53.8405C70.9839 53.6314 70.461 53.6314 69.9904 53.5268C69.7289 53.4745 69.4675 53.4745 69.1537 53.4222C69.3629 52.7424 69.8335 52.4287 70.5656 52.6901C71.35 52.9516 72.1866 53.213 72.8141 53.736C73.9645 54.6249 75.0104 55.6185 75.3241 57.1872C75.5333 58.2853 75.1672 59.0697 74.1214 59.5403C73.86 59.6972 73.3893 59.8541 72.8664 60.0109ZM45.6226 14.5174C43.5832 10.1772 41.1255 6.15073 38.1449 2.22888C37.5697 3.22241 37.0991 4.00679 36.6284 4.79116C35.2166 7.24886 33.8047 9.65426 32.4451 12.112C31.5562 13.733 30.8241 15.4586 30.0397 17.1319C29.7783 17.6026 29.8828 17.9163 30.458 18.1255C30.9287 18.2824 31.347 18.6484 31.7653 18.9621C32.1314 19.2236 32.2882 19.1713 32.5497 18.753C32.8635 18.0732 33.1772 17.3411 33.6478 16.8182C34.5368 15.8247 35.478 14.988 36.4716 14.099C37.3082 13.367 38.3018 13.5761 38.877 14.5174C39.0861 14.8311 39.243 15.1449 39.3999 15.4586C39.8182 16.3476 39.9228 16.3999 40.8117 15.8769C40.864 15.8247 40.9163 15.7724 41.0209 15.7201C42.0145 15.3017 43.008 14.8311 44.0538 14.5174C44.5244 14.4128 45.0997 14.5174 45.6226 14.5174ZM47.5573 18.4392C47.4528 18.4392 47.3482 18.4392 47.2436 18.4392C47.2436 18.7007 47.2436 19.0144 47.2436 19.2759C47.3482 19.2759 47.4528 19.2759 47.5573 19.2759C47.5573 19.0144 47.5573 18.7007 47.5573 18.4392Z" fill="#251C1C"/>
<path d="M41.1253 22.6753C42.6941 22.7799 43.6876 22.989 44.5243 23.8257C44.838 24.1395 45.3609 24.1917 45.7793 24.3486C46.5114 24.6101 47.2434 24.767 47.8186 25.4467C48.237 25.9174 48.8645 26.1265 49.4397 26.4403C50.6947 27.1201 51.4268 28.2182 52.2111 29.3163C52.8386 30.2053 53.5707 30.9896 54.3028 31.8263C55.1917 32.8198 56.0807 33.7611 56.9697 34.7023C57.2834 35.0161 57.4403 35.4344 57.6494 35.8527C58.0678 36.4802 58.4338 37.16 58.8521 37.7875C59.7411 39.1471 60.5778 40.559 61.519 41.8663C62.8263 43.7488 63.4015 45.8927 64.0813 47.9844C64.7088 49.9714 65.1794 51.9585 65.3886 53.9979C65.4932 55.2529 65.3886 56.5079 65.5977 57.7629C65.8592 59.8022 65.5454 61.737 65.3363 63.7241C65.2317 64.6653 65.0225 65.6066 64.8657 66.6001C64.7088 67.5937 64.6565 68.6395 64.4473 69.5807C64.1859 70.8357 63.9767 72.0907 63.5061 73.3457C63.0878 74.5484 62.408 75.6465 61.9373 76.797C61.3098 78.3657 60.7346 79.9344 60.0548 81.5032C59.7411 82.2353 59.3228 82.9673 58.9044 83.6994C58.3292 84.7453 57.754 85.7911 57.1265 86.7846C56.3944 87.8827 55.7147 88.9809 54.8257 89.9744C53.623 91.3863 52.3157 92.6936 51.0084 94.0008C50.6424 94.3669 50.1718 94.6806 49.7011 94.9944C48.9691 95.5173 48.2893 96.0402 47.5572 96.5108C46.4068 97.2429 45.2041 97.9227 44.0014 98.5502C43.6353 98.7594 43.217 98.8117 42.7987 98.9162C41.9097 99.1254 41.0208 99.3346 40.0795 99.4914C38.7199 99.7006 37.3604 99.9621 35.9485 99.8052C34.9027 99.7006 33.8568 99.6483 32.811 99.5437C31.9743 99.4392 31.0854 99.3346 30.2487 99.0731C28.4708 98.6025 26.6406 98.1319 24.9673 97.4521C23.5554 96.8769 22.3004 95.9879 20.9931 95.1513C19.4244 94.21 18.2217 92.8504 16.9667 91.5431C15.3979 89.8698 14.0384 88.0396 12.7311 86.2094C12.3127 85.5819 12.1559 84.7453 11.8944 84.0655C11.5284 83.1242 11.11 82.183 10.7963 81.2417C10.4303 80.1436 10.1165 78.9932 9.75046 77.8951C9.5413 77.2153 9.27984 76.5878 9.12296 75.908C8.9138 75.019 8.80922 74.0778 8.65234 73.1888C8.54776 72.2999 8.39088 71.4632 8.33859 70.5743C8.2863 69.8422 8.49547 69.1101 8.49547 68.3257C8.44318 66.0772 8.86151 63.881 9.33213 61.737C9.59359 60.5866 10.1165 59.4362 10.4825 58.2858C10.6394 57.7629 10.6394 57.24 10.7963 56.717C11.11 55.5143 11.4238 54.3639 11.7375 53.1612C11.8421 52.7429 11.8944 52.2723 11.999 51.8539C12.2082 50.4421 12.8357 49.1871 13.4109 47.9321C13.9861 46.6248 14.5613 45.3175 15.2411 44.0625C16.2346 42.2846 17.4373 40.6113 18.4308 38.8334C19.0583 37.7352 19.9473 36.9509 20.7317 36.0619C22.3004 34.3363 23.8692 32.5584 25.5948 30.9896C28.0525 28.6888 30.7193 26.6494 33.8045 25.1853C35.2164 24.5055 36.576 23.8257 38.0401 23.3028C39.1906 22.8845 40.3933 22.7799 41.1253 22.6753ZM33.8045 71.3064C33.8045 71.2541 33.8045 71.1495 33.8045 71.0972C31.6083 71.2018 29.412 71.3586 27.2158 71.4109C26.6929 71.4109 26.536 71.6724 26.4837 72.143C26.4314 73.7118 26.3791 75.2282 26.3269 76.797C26.2223 78.9932 26.1177 81.1894 26.0654 83.3857C25.9085 87.5167 25.8039 91.6477 25.6471 95.7265C25.6471 96.1971 25.7516 96.4062 26.17 96.5108C28.68 97.2952 31.19 98.2365 33.8568 98.341C35.6347 98.4456 37.4126 98.4979 39.1906 98.341C40.3933 98.2887 41.5437 97.8704 42.7464 97.609C42.9555 97.5567 43.1124 97.5044 43.3216 97.3998C45.2564 96.6154 46.982 95.4127 48.7076 94.1577C49.7011 93.4256 50.6947 92.6413 51.5313 91.8046C52.6295 90.7065 53.6753 89.5561 54.7211 88.4057C54.8257 88.3011 54.878 88.1965 54.9303 88.0919C55.9761 86.4186 57.0219 84.7453 57.9632 83.0196C58.4861 82.1307 58.9044 81.1894 59.3228 80.2482C60.0026 78.7317 60.5255 77.1107 61.2575 75.5942C62.408 73.3457 63.1923 70.9926 63.4538 68.4826C63.5584 67.2276 63.7675 65.9726 63.9767 64.7176C64.1336 63.4626 64.4473 62.2076 64.4473 60.9526C64.4996 59.1224 64.4473 57.2922 64.2905 55.462C64.1336 53.6841 63.9244 51.9062 63.5584 50.1806C63.2969 48.821 62.8263 47.4614 62.3034 46.1019C61.9373 45.0037 61.4667 43.9579 60.8915 42.9644C59.6888 40.9773 58.3815 39.0425 57.0742 37.0554C56.7082 36.5325 56.4467 35.905 56.0807 35.3821C54.4074 33.1336 52.734 30.9373 51.0084 28.7411C50.6424 28.3228 50.2763 27.8521 49.8057 27.5384C49.1259 27.0678 48.3938 26.7017 47.6618 26.3357C46.2499 25.6036 44.7857 25.133 43.1647 24.9761C42.9555 24.9761 42.6418 24.6624 42.6418 24.5578C42.7464 23.9303 42.328 23.7734 41.9097 23.7734C41.073 23.7734 40.2364 23.7734 39.452 23.878C37.5172 24.1395 35.8439 25.0284 34.1706 25.9174C31.922 27.1201 29.7781 28.4796 27.8956 30.2053C26.17 31.774 24.4967 33.4473 22.8233 35.0684C22.5619 35.3298 22.405 35.6436 22.1958 35.9573C21.2546 37.0032 20.2088 37.9444 19.4244 39.0425C18.4308 40.3498 17.5942 41.7617 16.8098 43.1735C15.9731 44.6377 15.2411 46.1542 14.5613 47.6706C14.0384 48.9256 13.62 50.2329 13.2017 51.4879C12.7834 52.7952 12.4173 54.1548 12.0513 55.5143C11.7375 56.6647 11.5284 57.8674 11.2146 58.9656C10.5348 61.1618 9.85504 63.358 9.64588 65.6589C9.489 67.8551 9.38442 69.9991 9.69817 72.1953C10.0119 74.653 10.6394 77.0061 11.3715 79.3069C11.7898 80.6665 12.4696 82.0261 12.8357 83.3857C13.254 84.9021 14.0907 86.1571 15.0319 87.3075C15.7117 88.1442 16.4961 88.8763 17.1758 89.7129C19.0583 91.8569 20.9408 93.9486 23.5554 95.2558C24.2875 95.6219 24.4444 95.5696 24.4967 94.7329C24.6012 93.6348 24.6535 92.5367 24.7058 91.3863C24.7581 89.6084 24.8627 87.8827 24.915 86.1048C24.9673 84.3792 25.0196 82.6536 25.1241 80.8757C25.1764 79.2547 25.281 77.5813 25.3856 75.9603C25.4379 74.3916 25.4379 72.8228 25.4902 71.2541C25.5948 68.8487 25.9085 66.4432 25.9608 64.0901C26.0131 61.2664 25.9608 58.4426 25.9085 55.6189C25.8562 53.1089 25.8039 50.5466 25.6994 48.0366C25.6994 47.4614 25.4902 46.9385 25.281 46.4156C25.0196 45.7358 25.2287 45.1606 25.9085 44.9515C26.536 44.7946 27.1635 44.5854 27.791 44.4808C29.8304 44.0625 31.922 44.1671 34.0137 44.3762C34.6935 44.4285 35.4256 44.5331 36.1054 44.5854C37.3604 44.6377 38.6153 44.6377 39.9226 44.5854C40.8116 44.5331 41.7528 44.9515 42.5895 44.2194C42.6941 44.1148 43.217 44.2717 43.217 44.3762C43.3216 44.8469 43.6353 44.8469 44.0014 44.8469C45.727 44.9515 47.4003 45.1083 49.1259 45.2652C49.3351 45.2652 49.7011 45.579 49.7534 45.7881C49.858 46.5202 49.858 47.2523 49.9103 47.9321C50.0672 49.8146 50.2241 51.6971 50.3809 53.5795C50.4855 54.73 50.5901 55.8281 50.747 56.9262C50.8516 57.606 50.9561 58.3381 51.0607 59.0179C51.3745 60.7435 51.6882 62.4168 51.9497 64.1424C52.2111 65.7635 52.4726 67.3845 52.734 69.0055C52.8386 69.5807 52.5249 70.1036 51.9497 70.1036C50.4332 70.1036 48.8645 70.0514 47.348 70.1036C45.1518 70.1559 42.9555 70.3128 40.7593 70.4697C38.5108 70.8357 36.1576 71.0972 33.8045 71.3064ZM35.5302 70.1036C35.4779 70.1036 35.5301 70.1036 35.5824 70.1036C38.197 69.8945 40.7593 69.6853 43.3739 69.4762C43.4785 69.4762 43.6353 69.3193 43.6353 69.2147C43.6353 68.2734 43.6353 67.3845 43.583 66.4432C43.583 65.9726 43.3739 65.5543 43.3739 65.0837C43.3216 63.5672 43.3216 61.9985 43.2693 60.482C43.217 59.227 43.217 57.972 43.1124 56.7693C43.0601 55.7758 42.851 54.8345 42.7464 53.841C42.5372 51.6448 42.328 49.4485 42.1189 47.2523C42.0666 46.9385 42.0143 46.5725 41.8574 46.2587C41.7528 46.1019 41.5437 45.8927 41.3345 45.8927C40.707 45.7881 40.0272 45.7358 39.3997 45.7358C38.1447 45.7358 36.8897 45.7358 35.6347 45.7358C35.2164 45.7358 35.0595 45.945 35.0072 46.2587C34.9027 46.9385 34.6935 47.6706 34.6935 48.3504C34.7458 49.9714 34.9549 51.6448 35.0595 53.2658C35.1118 53.9979 35.1118 54.7822 35.2164 55.5143C35.4256 57.3968 35.5301 59.227 35.321 61.1095C35.1641 62.626 35.1641 64.1947 35.2164 65.7635C35.321 67.1753 35.4256 68.6395 35.5302 70.1036ZM34.5366 70.2605C34.432 69.7376 34.2752 69.4239 34.2752 69.1101C34.2752 68.2734 34.3274 67.4891 34.3274 66.6524C34.3274 65.0837 34.1706 63.5149 34.3274 61.9985C34.5366 59.9591 34.4843 57.9197 34.3797 55.8804C34.1706 53.2135 34.0137 50.5466 33.8568 47.8275C33.8045 47.0954 33.9614 46.3633 34.0137 45.579C33.6999 45.579 33.4908 45.5267 33.2293 45.5267C31.1377 45.4744 29.046 45.2129 27.0066 45.945C26.536 46.1019 26.3269 46.2587 26.4837 46.7817C26.5883 47.0954 26.6406 47.4614 26.6929 47.7752C26.7452 49.6577 26.7452 51.5925 26.7975 53.475C26.8498 55.3575 27.2158 57.2399 27.1112 59.1747C27.0066 60.6912 27.0589 62.1553 27.0066 63.6718C26.9021 65.7112 26.7452 67.6982 26.6406 69.7376C26.6406 69.8945 26.6929 69.9991 26.6929 70.2605C29.3075 70.2605 31.8697 70.2605 34.5366 70.2605ZM44.838 67.8028C44.7857 67.8028 44.7857 67.8028 44.7334 67.8028C44.7334 68.1166 44.7334 68.4303 44.7334 68.6918C44.7334 69.1624 44.8903 69.4239 45.4132 69.3716C45.9362 69.3193 46.4068 69.3716 46.9297 69.3716C48.237 69.3193 49.5966 69.267 50.9038 69.2147C51.4268 69.2147 51.5836 68.9532 51.5313 68.4303C51.3222 67.1753 51.2176 65.868 51.0084 64.613C50.6947 62.626 50.3809 60.6389 50.0672 58.6518C49.7534 56.5079 49.492 54.3116 49.2305 52.1677C49.0213 50.4421 48.8645 48.7164 48.6553 46.9908C48.603 46.5725 48.3939 46.3633 47.9755 46.3633C46.5637 46.2587 45.0995 46.1542 43.6876 46.0496C43.217 45.9973 42.9555 46.2064 43.0601 46.7294C43.217 47.6706 43.3216 48.6641 43.4262 49.6054C43.5307 50.8081 43.5307 52.0108 43.6353 53.2135C43.8968 56.6647 44.2105 60.116 44.472 63.6195C44.5243 64.247 44.472 64.8745 44.5243 65.502C44.6289 66.2341 44.7335 67.0185 44.838 67.8028Z" fill="#251C1C"/>
<path d="M38.1454 4.16357C38.5637 4.79107 38.5637 5.41857 38.0931 5.57544C37.9362 5.62773 37.5702 5.57544 37.4656 5.41857C37.2041 5.05253 37.5702 4.42503 38.1454 4.16357Z" fill="black"/>
<path d="M50.6944 119.676C50.6421 118.839 49.3349 118.473 48.8642 119.31C47.9753 120.878 46.9817 122.342 45.8836 123.754C45.9359 123.597 46.0405 123.441 46.0928 123.336C46.8772 122.342 47.5569 121.244 48.1322 120.094C48.5505 119.257 47.8707 118.578 47.1909 118.682C47.4524 117.689 46.0405 116.904 45.413 117.898C45.2561 118.159 45.0993 118.421 44.9424 118.734C44.8378 118.63 44.7332 118.577 44.6286 118.525C44.7332 117.741 43.5828 116.956 42.9553 117.689C42.903 117.741 42.8507 117.845 42.7984 117.898C42.537 118.264 42.2232 118.63 41.9618 118.996C41.7003 118.421 40.7591 118.107 40.2884 118.734C40.1839 118.055 39.138 117.479 38.6151 118.159C38.4059 118.421 38.1968 118.734 37.9353 118.996C37.6739 118.421 36.9941 118.107 36.4189 118.682C36.0005 119.1 35.5822 119.571 35.1639 120.042C35.7391 119.1 34.4841 117.898 33.6997 118.787C32.131 120.617 30.5622 122.447 28.8889 124.173C29.2549 123.597 29.621 123.075 30.0393 122.552C30.6145 121.872 31.1374 121.14 31.6603 120.46C32.2878 119.571 30.8237 118.421 30.1439 119.257C29.8301 119.623 29.5687 119.989 29.2549 120.355C29.0981 119.623 27.9999 119.257 27.477 120.042C26.7449 121.087 26.0129 122.081 25.1762 123.022C25.4377 122.604 25.6991 122.186 25.9606 121.767C26.222 121.297 26.0652 120.721 25.5945 120.46C25.1239 120.199 24.7056 120.355 24.3918 120.669C24.8625 119.676 23.346 118.839 22.6662 119.832C22.1433 120.565 21.6727 121.297 21.2021 122.029C21.0452 122.29 20.836 122.552 20.6268 122.761C20.5223 121.976 19.3719 121.506 18.7966 122.342C18.4306 122.918 18.0646 123.493 17.6462 124.068C17.8554 123.441 18.0123 122.813 18.2214 122.186C18.4306 121.506 17.6985 120.721 17.0187 120.983C15.9206 121.401 15.1362 122.238 14.8748 123.388C14.7702 123.911 15.084 124.33 15.45 124.486C15.084 125.637 14.7179 126.787 14.4042 127.938C14.2473 128.513 14.6133 128.931 15.084 129.088C15.084 129.872 16.0775 130.395 16.7573 129.82C17.4894 129.14 18.2214 128.461 18.9012 127.729C19.215 127.938 19.7379 127.99 20.1562 127.676C20.2085 127.676 20.2085 127.624 20.2608 127.624C19.7902 128.408 20.7837 129.559 21.5681 128.931C22.1433 128.513 22.7185 128.042 23.2937 127.572C23.4506 128.147 24.235 128.513 24.8102 128.147C24.8102 128.199 24.8102 128.199 24.7579 128.251C24.4441 129.245 25.6991 129.768 26.3789 129.193C26.7449 128.879 27.111 128.565 27.477 128.251C27.477 128.67 27.7385 129.14 28.1568 129.193C29.8301 129.454 30.9806 128.408 32.0264 127.206C32.1833 127.206 32.2878 127.153 32.4447 127.101C32.7062 126.996 32.9153 126.84 33.1245 126.683C33.0199 126.892 32.9153 127.049 32.8108 127.258C32.3924 128.095 33.2814 129.088 34.118 128.565C34.5887 128.304 35.0593 127.99 35.5299 127.676C35.6868 127.99 36.0005 128.199 36.3666 128.199C36.9941 128.199 37.5693 127.99 38.0399 127.676C38.4059 127.833 38.8766 127.833 39.138 127.467C39.2949 127.258 39.5041 126.996 39.6609 126.787C39.9747 127.258 40.7591 127.415 41.1774 126.944C41.5957 126.526 41.9618 126.055 42.3801 125.585C42.4847 125.741 42.6938 125.846 42.8507 125.898C42.6416 126.526 42.4324 127.153 42.2755 127.833C42.0141 128.774 43.2168 129.454 43.8965 128.774C44.9947 127.729 46.0405 126.63 46.9817 125.48C47.2432 126.055 48.0799 126.317 48.6028 125.794C48.8642 125.532 49.1257 125.271 49.3349 125.009C49.2826 125.166 49.2826 125.375 49.2303 125.532C49.1257 126.055 49.3871 126.578 49.9101 126.735C50.3807 126.84 51.0082 126.578 51.1128 126.055C51.3742 124.33 51.6357 122.552 51.8971 120.826C52.0017 119.989 51.2696 119.519 50.6944 119.676ZM38.6151 121.297C38.3014 121.715 38.0399 122.186 37.7262 122.604C37.9876 122.238 38.2491 121.82 38.5105 121.454C38.5628 121.401 38.6151 121.349 38.6151 121.297Z" fill="#39B100"/>
<path d="M21.1503 128.407C21.5686 128.355 21.9347 128.303 22.353 128.251C22.9282 128.146 23.5034 128.094 24.0786 127.989C25.0722 127.832 26.0657 127.675 27.0592 127.518C28.3142 127.257 29.6215 126.996 30.8242 127.309C31.9746 127.623 32.9682 127.309 34.0663 127.309C35.3736 127.309 36.7331 127.571 38.0404 127.623C39.6615 127.623 41.2825 127.518 42.9558 127.362C44.8383 127.205 46.6685 127.048 48.551 126.891C48.7602 126.891 49.0216 126.891 49.1785 126.786C49.3354 126.682 49.5968 126.42 49.5446 126.316C49.0739 124.172 49.44 122.028 49.4923 119.884C49.5445 118.838 49.2308 118.524 48.185 118.577C44.0539 118.734 39.9229 118.838 35.7919 118.995C32.1315 119.152 28.4188 119.204 24.7584 119.466C22.9805 119.57 21.2026 120.093 19.3724 120.355C18.3266 120.511 17.2807 120.511 16.2349 120.511C15.7643 120.511 15.5551 120.668 15.6597 121.139C15.8689 122.342 16.0257 123.597 16.1826 124.799C16.1826 124.956 16.2349 125.165 16.3395 125.27C16.9147 125.845 16.8101 126.525 16.6009 127.152C16.3395 128.094 16.4441 128.303 17.4376 128.303C18.2743 128.355 19.1632 128.407 19.9999 128.512C20.1568 128.512 20.3136 128.721 20.5751 128.826C19.7907 129.349 19.0063 129.349 18.222 129.349C17.8036 129.349 17.3853 129.401 17.333 129.976C17.1761 129.872 17.0716 129.872 17.0193 129.767C16.8101 129.349 16.6009 128.93 15.9734 129.192C15.9211 129.192 15.5551 128.773 15.5551 128.564C15.8166 125.793 15.0845 123.126 14.7184 120.407C14.6139 119.466 14.823 119.204 15.7643 119.518C17.1761 119.936 18.6403 119.675 19.9999 119.309C22.5099 118.681 25.0722 118.42 27.6344 118.315C31.5563 118.106 35.4259 118.054 39.3477 117.897C41.91 117.792 44.42 117.688 46.9823 117.583C47.7666 117.531 48.551 117.374 49.2831 117.479C50.4858 117.583 50.7473 118.263 50.4858 119.466C50.2243 120.721 50.1198 121.976 50.1198 123.283C50.1198 124.433 50.3289 125.584 50.4335 126.734C50.4858 127.414 50.3812 127.675 49.7014 127.832C49.1262 127.989 48.551 127.989 47.9758 128.041C46.1979 128.146 44.42 128.198 42.6421 128.303C41.3348 128.355 40.0275 128.512 38.7202 128.512C37.8313 128.512 36.89 128.407 36.0011 128.303C33.2296 127.989 30.4582 127.728 27.6867 128.198C25.9088 128.512 24.1309 128.617 22.3007 128.773C21.8824 128.826 21.464 128.564 21.0457 128.512C21.1503 128.512 21.1503 128.46 21.1503 128.407Z" fill="#251C1C"/>
<path d="M41.3351 124.016C40.603 124.068 40.1847 124.172 40.0801 124.8C40.0278 125.218 39.7664 125.689 39.348 125.584C38.8251 125.427 38.982 124.905 39.1389 124.539C39.5572 123.493 39.9755 122.395 40.4462 121.349C40.603 120.93 41.0214 120.93 41.2828 121.244C41.5443 121.506 41.7012 121.819 41.858 122.185C42.1718 122.917 42.4332 123.65 42.747 124.382C42.9039 124.748 43.2699 125.218 42.7993 125.48C42.3287 125.741 42.1718 125.166 41.9103 124.852C41.6489 124.486 41.492 124.172 41.3351 124.016Z" fill="#251C1C"/>
<path d="M29.2034 123.074C29.0989 123.179 28.9943 123.284 28.8374 123.388C29.0466 123.807 29.2557 124.173 29.3603 124.591C29.4126 124.8 29.308 125.062 29.2557 125.271C29.0466 125.166 28.7328 125.166 28.5759 124.957C28.3668 124.695 28.3145 124.382 28.1576 124.068C28.0007 123.807 27.7916 123.44 27.5824 123.44C27.1641 123.44 26.6412 123.545 26.4843 124.068C26.3797 124.382 26.3797 124.695 26.2228 125.009C26.066 125.218 25.8045 125.375 25.5953 125.532C25.4908 125.271 25.2816 124.957 25.3862 124.748C25.7522 123.65 26.1705 122.604 26.6412 121.558C26.9549 120.826 27.3732 120.826 27.8439 121.453C28.2622 122.029 28.7328 122.499 29.2034 123.074Z" fill="#251C1C"/>
<path d="M21.778 122.029C22.3009 121.924 22.8238 121.819 23.3467 121.715C23.399 121.715 23.4513 121.663 23.5036 121.663C23.8696 121.715 24.2357 121.819 24.6017 121.924C24.288 122.081 24.0265 122.342 23.7128 122.395C22.1963 122.865 22.1963 122.813 22.3532 124.382C22.4055 124.8 22.5623 125.218 22.7715 125.637C22.9807 126.055 22.8761 126.369 22.5101 126.473C22.3532 126.526 21.9348 126.264 21.9348 126.107C21.7257 125.271 21.5165 124.382 21.4119 123.493C21.3596 123.074 21.3073 122.813 20.7844 122.813C20.5753 122.813 20.4184 122.499 20.2092 122.342C20.3661 122.186 20.5753 121.976 20.7321 121.924C20.9936 121.872 21.3073 121.924 21.6211 121.924C21.778 121.924 21.778 121.976 21.778 122.029Z" fill="#251C1C"/>
<path d="M30.8237 122.97C30.9806 122.5 31.0329 122.029 31.2421 121.558C31.2944 121.401 31.6604 121.401 31.8696 121.349C31.9219 121.558 32.0264 121.767 32.0264 121.977C32.0264 122.133 31.9219 122.29 31.8696 122.447C31.5558 123.545 31.8696 124.173 32.9677 124.382C33.5429 124.487 34.1181 124.487 34.6933 124.539C34.7979 124.539 34.9548 124.643 35.0593 124.696C34.9548 124.8 34.9025 124.957 34.7979 125.01C33.9612 125.376 33.0723 125.428 32.1833 125.219C31.4512 125.062 30.9806 124.434 30.9806 123.65C30.9806 123.441 30.9806 123.232 30.9806 123.022C30.876 122.97 30.876 122.97 30.8237 122.97Z" fill="#251C1C"/>
<path d="M36.9941 121.244C37.0463 121.401 37.1509 121.557 37.1509 121.714C37.2032 122.551 37.2032 123.388 37.2555 124.224C37.2555 124.381 37.3601 124.538 37.3078 124.695C37.2555 124.852 37.0986 125.009 36.9941 125.061C36.8895 125.113 36.6803 124.956 36.628 124.852C36.4711 124.59 36.3666 124.277 36.3143 123.963C36.2097 123.388 36.2097 122.76 36.1574 122.133C36.0528 121.662 36.3666 121.244 36.9941 121.244Z" fill="#251C1C"/>
<path d="M35.8961 119.885C36.1576 120.199 36.3667 120.355 36.3667 120.512C36.3144 120.669 36.1053 120.878 35.8961 120.878C35.7915 120.878 35.4778 120.669 35.4778 120.512C35.4778 120.408 35.6869 120.199 35.8961 119.885Z" fill="#251C1C"/>
<path d="M18.6406 126.42C18.3269 125.165 18.2223 123.858 18.2746 122.551C18.2746 122.185 17.6994 122.185 17.6994 122.551C17.6471 123.91 17.7517 125.218 18.0654 126.577C18.17 126.943 18.7452 126.787 18.6406 126.42Z" fill="#251C1C"/>
</svg>
