<svg width="126" height="218" viewBox="0 0 126 218" fill="none" xmlns="http://www.w3.org/2000/svg">
<path d="M54.3958 78.0845C54.0456 76.8589 52.645 76.6838 51.8571 77.2091C51.5945 77.1215 51.3319 77.1215 50.9818 77.2091C50.1064 76.0711 48.0054 76.3337 48.093 78.0845C48.093 78.5222 48.093 78.8723 48.093 79.31C47.9179 79.31 47.8304 79.3975 47.6553 79.3975C47.2176 79.31 46.6048 79.3975 46.2547 79.6602C46.0796 79.1349 45.9045 78.6097 45.817 78.0845C45.2917 76.4212 42.4905 76.5963 42.578 78.5222C43.1908 90.7776 43.4534 103.033 43.3659 115.288C43.3659 116.251 44.1537 116.864 45.0291 116.952C45.9045 117.039 46.6924 117.039 47.5677 117.127C47.5677 117.214 47.5677 117.389 47.6553 117.477C47.9179 119.578 50.6316 119.578 50.8942 117.477V117.389C52.2948 117.477 53.6955 117.564 55.0961 117.74C55.9715 117.827 56.6718 116.952 56.7593 116.076C56.9344 112.925 56.9344 109.774 56.8469 106.71C58.1599 97.1679 57.3721 87.3636 54.3958 78.0845ZM46.6048 113.888C46.6048 112.75 46.6048 111.699 46.6048 110.561C46.7799 111.699 46.8674 112.75 47.0425 113.888C46.955 113.888 46.7799 113.888 46.6048 113.888ZM51.3319 113.012C51.8571 113.275 52.5575 113.188 52.9951 112.75C53.1702 112.925 53.3453 113.012 53.5204 113.1C53.5204 113.538 53.5204 113.975 53.5204 114.413C52.7325 114.326 51.9447 114.326 51.2444 114.238C51.2444 113.888 51.2444 113.45 51.3319 113.012Z" fill="#39B100"/>
<path d="M85.0351 110.736C84.6849 103.995 83.8971 97.255 82.8466 90.5145C82.4089 85.9625 81.8837 81.3229 81.0958 76.7709C80.8332 75.2827 78.7323 75.2827 78.032 76.4208C77.9444 76.4208 77.8569 76.5083 77.8569 76.5083C77.6818 76.5083 77.5943 76.4208 77.4192 76.4208C76.7189 76.4208 76.0186 76.946 75.8435 77.5588H75.756C75.4933 77.5588 75.2307 77.5588 74.9681 77.7338C74.0052 77.2961 72.517 77.8214 72.517 79.1345C72.9547 91.4774 73.8301 103.733 75.1432 115.988C75.2307 116.776 75.6684 117.476 76.5438 117.564C77.2441 117.652 78.2071 117.214 78.2946 116.426C78.5572 114.938 78.7323 113.45 78.9074 111.962C79.17 113.45 79.5201 115.025 79.7827 116.514C80.1329 118.264 83.1968 117.914 83.0217 116.076C82.9341 114.85 82.7591 113.625 82.6715 112.399C82.7591 112.399 82.8466 112.312 82.9341 112.224C83.8971 112.487 85.1226 111.874 85.0351 110.736Z" fill="#EF4036"/>
<path d="M121.189 99.794C121.626 100.494 122.064 101.02 122.414 101.632C124.69 105.134 123.465 109.598 119.613 111.524C118.913 111.874 118.65 112.224 118.913 113.012C119.263 113.975 119.35 114.938 119.613 115.901C120.401 119.84 118.65 122.817 115.761 125.355C115.586 125.53 115.323 125.968 115.411 126.143C116.899 129.732 115.411 132.796 113.748 135.772C112.26 138.486 109.896 140.237 107.182 141.462C106.482 141.725 106.219 142.075 106.57 142.863C106.832 143.476 107.095 144.176 107.357 144.876C108.408 147.678 107.445 150.041 105.869 152.317C104.994 153.543 103.856 154.681 102.718 155.731C101.58 156.694 100.267 157.395 99.0412 158.182C97.9907 158.795 97.2029 159.32 97.1154 160.809C96.9403 163.172 95.4521 165.01 93.8764 166.586C91.2503 169.3 87.9238 170.525 84.1596 170.963C83.2842 171.051 82.3213 170.788 81.3584 170.613C80.7456 170.525 80.483 170.7 80.3079 171.313C79.6076 174.815 77.5942 177.178 74.1802 178.491C71.9917 179.279 69.8908 179.367 67.7899 178.666C66.4768 178.229 65.2512 177.266 64.1132 176.39C63.2378 175.69 63.3254 175.69 62.8001 176.566C61.5746 178.491 60.6117 180.767 58.3357 181.905C56.6724 182.781 55.0092 183.131 53.346 182.606C51.5952 182.08 49.6693 181.555 48.4438 179.98C48.0061 179.454 47.5684 178.842 47.2182 178.229C46.9556 177.791 46.693 177.353 46.7805 177.353C45.9927 177.879 45.2048 178.491 44.3295 179.017C43.1915 179.717 42.0535 180.592 40.7404 180.767C39.3397 180.942 37.6765 180.68 36.3634 180.155C34.5251 179.367 32.7743 178.229 31.1111 177.091C30.5859 176.741 30.2357 175.953 29.8856 175.252C29.7105 174.902 29.6229 174.465 29.4479 174.114C28.8351 172.451 28.4849 172.276 26.8217 172.801C26.6466 172.889 26.4715 172.976 26.2965 172.889C24.6332 172.626 22.8824 172.976 21.3067 172.013C19.6435 170.963 17.9803 169.913 16.6672 168.424C15.004 166.586 14.7413 164.398 14.8289 162.122C14.8289 161.684 14.9164 161.159 15.004 160.633C14.041 160.896 13.2532 161.334 12.4653 161.334C11.4149 161.334 10.1893 161.334 9.22639 160.896C8.08839 160.371 7.03792 159.758 6.25007 158.62C5.46222 157.482 5.54976 156.169 5.28715 154.943C4.67438 151.617 4.84945 148.29 5.28715 144.964C5.46222 143.301 6.33761 141.725 6.86285 140.149C6.95039 140.149 7.03792 140.149 7.213 140.149C6.86285 139.974 6.60023 139.712 6.25007 139.624C4.32422 139.362 3.53637 137.786 2.66098 136.385C1.69806 134.809 1.43544 133.059 1.69806 131.133C1.87313 129.907 1.61052 128.594 1.61052 127.281C1.61052 126.406 1.69806 125.618 1.96067 124.743C2.57344 122.642 3.27375 120.453 3.97407 118.352C4.14914 117.827 4.23668 117.477 3.62391 117.214C0.997745 115.901 -0.227798 113.713 0.0348184 110.824C0.209896 108.46 0.560051 106.097 1.78559 103.996C2.74852 102.333 3.79899 100.757 4.84945 99.0937C5.11207 98.7435 5.46222 98.4809 5.81238 98.2183C6.51269 97.6055 6.51269 97.2553 5.81238 96.6426C5.11207 96.0298 4.14914 95.5921 3.79899 94.8042C3.44883 93.9289 3.36129 92.7908 3.62391 91.9155C4.23668 88.8516 5.46223 86.0504 7.30054 83.4242C7.6507 82.899 7.73823 82.2862 8.08839 81.761C9.48901 79.8351 11.0647 77.9092 13.1656 76.5962C14.5663 75.7208 14.6538 75.6332 13.4283 74.4952C11.9401 73.0946 11.765 71.4314 12.4653 69.5931C12.6404 69.2429 12.6404 68.8052 12.8155 68.4551C14.2161 64.866 16.4921 61.8021 19.556 59.4386C21.1317 58.213 22.7949 56.9875 24.8083 56.5498C24.9834 56.5498 25.1585 56.2872 25.4211 56.1121C24.4581 54.9741 24.2831 53.661 24.7208 52.2604C25.0709 51.0348 25.3335 49.8093 26.5591 49.0214C27.4345 48.4087 28.0472 47.5333 28.8351 46.9205C29.9731 46.0451 31.1111 45.0822 32.4242 44.4694C34.35 43.5065 36.451 42.8062 38.4644 41.9308C39.6024 41.4931 39.6024 41.4056 39.0771 40.2676C38.4644 38.8669 38.6394 37.4663 39.4273 36.3283C40.5653 34.49 41.7033 32.5641 43.5416 31.3386C44.417 30.7258 45.4675 30.1131 46.4304 29.6754C46.9556 29.4128 47.3058 29.2377 47.3933 28.5374C47.5684 27.5744 48.0061 26.699 48.5313 25.8237C49.4943 23.9853 50.4572 22.147 51.5076 20.3087C53.7836 16.2819 56.0597 12.3427 58.3357 8.40343C59.6487 6.03989 60.9618 3.67634 62.2749 1.31279C62.8001 0.437403 63.4129 0.349864 64.0257 1.13771C65.6889 3.41372 67.4397 5.77727 69.0154 8.14082C70.8537 11.0296 72.692 13.9184 74.4428 16.8072C74.793 17.3324 74.968 17.9452 75.3182 18.5579C76.0185 19.6959 76.8939 20.7464 77.5067 21.972C78.207 23.3726 78.8197 24.9483 79.4325 26.3489C80.0453 27.7495 80.5705 29.0626 81.1833 30.3757C81.2708 30.6383 81.7961 30.7258 82.1462 30.7258C84.0721 30.9009 85.9979 31.076 88.0113 31.2511C90.725 31.6012 92.7384 33.7897 92.5633 36.3283C92.4758 37.4663 92.0381 38.5168 91.688 39.6548C91.6004 39.9174 91.5129 40.2676 91.4253 40.6177C91.863 40.6177 92.2132 40.7053 92.4758 40.6177C96.0649 40.0049 99.5664 40.7053 102.893 41.9308C107.007 43.5065 108.495 45.695 106.657 50.247C106.482 50.6847 106.219 51.1224 105.957 51.5601C105.344 52.6105 104.731 53.5735 104.118 54.6239C103.593 55.4993 103.768 55.8495 104.731 56.0245C105.957 56.1996 107.182 56.1996 108.408 56.2872C110.159 56.4622 111.734 56.8999 112.872 58.3881C113.223 58.8258 113.748 59.1759 114.01 59.6136C114.973 61.1018 114.798 62.765 114.361 64.2532C113.923 65.8289 113.047 67.3171 112.26 68.8052C111.822 69.6806 111.822 69.9432 112.785 70.2934C114.623 70.9937 116.199 72.1317 117.599 73.5323C118.387 74.3202 118.65 75.2831 118.737 76.3336C119.175 80.0977 117.512 83.074 114.886 85.6127C114.448 86.0504 113.923 86.0504 113.485 85.5251C113.047 84.9999 113.223 84.6497 113.748 84.2121C115.674 82.7239 116.724 80.7105 116.899 78.2594C117.074 75.7208 116.111 73.8825 114.01 72.7445C113.135 72.2192 112.172 71.7815 111.209 71.4314C109.371 70.6435 109.283 69.9432 110.421 68.28C111.384 66.9669 112.085 65.4787 112.61 63.9906C113.573 60.7516 111.559 57.7753 107.708 57.6878C106.394 57.6878 104.994 57.6002 103.681 57.4252C103.156 57.3376 102.63 57.2501 102.28 56.9875C101.58 56.5498 101.317 56.0246 101.842 55.2367C102.543 54.1862 103.331 53.0482 104.031 51.9102C104.644 50.9473 105.081 49.8968 105.607 48.8464C106.394 47.0956 105.432 44.9947 103.856 44.2068C100.092 42.3685 96.3275 41.7557 92.2132 42.3685C91.4253 42.456 90.6375 42.5436 89.8496 42.6311C88.9743 42.7187 88.5366 42.0183 88.8867 41.2305C89.4119 40.18 90.0247 39.1296 90.4624 38.0791C91.5129 35.7155 90.5499 34.2274 88.2739 33.2645C86.3481 32.3891 84.3347 32.3891 82.3213 32.4766C82.0587 32.4766 81.7961 32.5641 81.7085 32.7392C81.2708 33.2645 80.8331 33.4395 80.2204 33.0018C80.0453 32.8268 79.6076 33.0018 79.2574 33.0894C78.4696 33.352 77.6817 33.7022 76.8939 33.9648C76.5437 34.0523 76.0185 34.1398 75.931 33.9648C75.7559 33.6146 75.6684 33.1769 75.7559 32.7392C75.931 32.1265 76.2811 31.5137 76.4562 30.8134C76.7188 29.7629 76.9814 28.7124 77.069 27.662C77.1565 26.3489 76.4562 25.561 75.1431 25.1233C73.655 24.6857 72.3419 25.1233 71.0288 25.6486C69.278 26.3489 67.7023 27.3118 66.4768 28.7124C66.2142 28.9751 65.6889 29.3252 65.5139 29.2377C65.1637 28.9751 64.9011 28.5374 64.726 28.0997C64.3758 27.1367 64.2008 26.1738 63.7631 25.2109C63.0628 23.4601 62.0998 23.11 60.6992 24.3355C58.2481 26.2614 56.1472 28.5374 55.1843 31.6012C55.0092 32.3015 53.9587 32.7392 53.2584 33.1769C53.0833 33.2645 52.5581 33.0018 52.4706 32.7392C51.245 30.4632 48.2687 30.5508 46.5179 31.3386C43.6291 32.5641 41.7908 34.7526 40.7404 37.7289C40.3027 39.042 41.0905 40.3551 42.4911 40.6177C42.8413 40.7053 43.279 40.7053 43.5416 40.8803C43.8918 41.143 44.417 41.6682 44.417 41.7557C44.2419 42.1934 43.8042 42.7187 43.3665 42.8062C42.0535 43.6816 40.7404 43.6816 39.6024 44.0317C36.5385 44.8196 33.4746 45.7825 31.0236 47.7084C29.4479 49.0214 28.2223 50.7722 26.9092 52.3479C26.384 53.0482 26.2965 53.9236 26.8217 54.6239C27.4345 55.4118 27.9597 56.2872 29.2728 56.0245C30.0606 55.8495 30.8485 56.1121 31.6363 56.2872C31.8989 56.3747 32.4242 56.8999 32.3366 57.1626C32.2491 57.5127 31.8114 58.0379 31.4613 58.1255C30.5859 58.3006 29.6229 58.4756 28.7475 58.3881C23.8454 58.213 20.6064 60.9267 17.8927 64.4283C16.6672 65.8289 15.7918 67.4046 14.9164 68.9803C14.5663 69.6806 14.3912 70.556 14.2161 71.4314C13.9535 73.0071 14.5663 73.97 16.0544 74.6703C16.5797 74.9329 17.1924 75.0205 17.7177 75.2831C18.0678 75.4582 18.6806 75.8959 18.593 75.9834C18.418 76.4211 18.1554 76.9463 17.7177 77.2089C16.8423 77.6466 15.8793 77.9093 15.004 78.2594C12.7279 79.2223 11.2398 81.1482 9.83917 83.074C8.43854 84.9999 7.47562 87.1884 6.51269 89.2893C6.075 90.3398 5.81238 91.4778 5.72484 92.6158C5.46222 94.5416 6.68777 95.8547 8.61362 96.0298C9.40147 96.1173 10.1893 95.8547 11.0647 95.8547C11.765 95.8547 12.7279 95.5046 12.903 96.3799C13.0781 97.2553 12.2903 97.6055 11.5024 97.7806C6.77531 98.9186 4.4993 102.333 3.01114 106.534C2.48591 108.023 2.31083 109.598 2.22329 111.174C2.04821 113.975 3.71145 115.726 6.51269 116.076C7.47562 116.164 7.6507 116.426 7.213 117.302C6.51269 118.702 5.72484 120.015 5.02453 121.416C4.58684 122.379 4.32422 123.429 4.14914 124.392C3.53637 128.069 3.27375 131.746 4.84945 135.247C5.81238 137.348 7.6507 138.399 9.75163 136.823C10.0142 136.648 10.2769 136.385 10.627 136.298C10.9772 136.21 11.4149 136.298 11.8526 136.21C11.765 136.648 11.765 136.998 11.6775 137.436C11.5899 137.611 11.4149 137.786 11.2398 137.961C11.8526 139.099 11.2398 140.762 10.1018 140.85C8.26347 140.937 7.73823 142.25 7.56316 143.476C6.77531 147.503 6.86285 151.617 7.56316 155.731C7.91331 157.395 8.96378 158.27 10.4519 158.708C12.2903 159.233 13.9535 158.708 15.5292 157.92C16.2295 157.57 16.9298 156.957 17.6301 156.519C17.8927 156.344 18.2429 156.081 18.593 156.081C18.9432 156.081 19.3809 156.169 19.556 156.432C19.7311 156.694 19.6435 157.132 19.4684 157.482C19.2934 157.832 18.9432 158.182 18.593 158.445C16.7547 160.283 16.142 163.26 17.1924 165.623C17.455 166.236 17.9803 166.761 18.5055 167.199C20.7815 169.3 23.3201 171.051 26.6466 170.438C27.6971 170.263 28.5725 169.65 29.5354 169.212C29.8856 169.037 30.4108 168.862 30.5859 169.037C30.8485 169.212 31.0236 169.737 31.0236 170.175C30.7609 172.714 31.3737 174.902 33.4746 176.303C35.488 177.704 37.6765 178.842 40.3027 178.491C42.2285 178.316 43.6291 177.091 44.7672 175.603C45.2924 174.902 45.6425 174.027 46.1678 173.239C46.3429 172.976 46.8681 172.714 47.1307 172.714C47.3933 172.801 47.7435 173.239 47.7435 173.589C47.6559 176.128 48.8815 178.054 50.8949 179.279C54.2213 181.293 57.4603 181.205 59.8238 177.704C60.7868 176.303 61.3995 174.727 62.1874 173.239C62.6251 172.451 63.1503 172.714 63.588 173.064C64.2008 173.589 64.726 174.202 65.2512 174.815C66.6519 176.39 68.4902 176.916 70.5036 176.916C72.517 177.003 74.3553 176.39 75.8434 174.99C77.7693 173.239 78.9073 171.138 78.4696 168.424C78.4696 168.249 78.2945 167.987 78.3821 167.812C78.4696 167.461 78.5571 167.024 78.7322 166.936C78.9948 166.849 79.5201 166.936 79.6951 167.111C81.4459 169.037 83.6344 168.862 85.9104 168.337C88.0113 167.812 89.9372 167.111 91.6004 165.623C93.1761 164.31 94.3141 162.734 95.1895 160.896C95.5397 160.021 95.3646 159.233 94.8394 158.533C94.6643 158.27 94.4892 157.832 94.5767 157.482C94.5767 157.307 95.1895 157.307 95.5397 157.219C97.0278 156.607 98.6035 156.169 99.8291 155.381C102.193 153.805 104.118 151.792 105.432 149.253C106.745 146.627 105.782 143.651 104.206 141.9C103.943 141.55 103.856 141.112 103.681 140.675C104.031 140.587 104.381 140.412 104.731 140.324C107.182 139.887 109.108 138.486 110.684 136.735C112.785 134.372 114.185 131.571 114.185 128.332C114.185 127.106 113.923 125.968 112.872 125.18C112.61 125.005 112.61 124.48 112.435 124.13C112.785 123.955 113.223 123.692 113.573 123.78C114.536 123.955 115.236 123.517 115.761 122.817C118.65 118.965 118.737 116.689 116.812 112.312C116.549 111.787 115.936 111.437 115.586 110.999C115.411 110.736 115.411 110.299 115.499 110.036C115.586 109.861 116.111 109.861 116.374 109.948C118.3 110.561 119.175 110.299 120.401 108.723C122.064 106.622 122.064 103.646 120.401 101.545C119.7 100.582 118.913 99.7064 117.775 99.1812C117.424 99.0061 117.249 98.4809 117.074 98.1307C117.512 98.0432 117.862 97.7806 118.3 97.7806C119.438 97.7806 120.488 98.1307 121.626 97.9556C123.64 97.693 124.34 96.2924 123.465 94.3666C122.502 92.1781 120.838 90.6024 118.737 89.4644C118.037 89.1142 117.162 89.1142 116.374 88.9391C115.936 88.8516 115.499 88.8516 114.973 88.7641C115.323 87.6261 116.111 87.1008 117.337 87.5385C118.65 87.9762 120.051 88.4139 121.101 89.2893C123.027 90.7775 124.778 92.4407 125.303 95.0669C125.653 96.9052 125.04 98.2183 123.289 99.0061C122.852 99.2687 122.064 99.5313 121.189 99.794ZM75.5808 23.6352C72.1668 16.3695 68.0525 9.62898 63.0628 3.06357C62.0998 4.7268 61.312 6.03989 60.5241 7.35297C58.1606 11.4673 55.797 15.4941 53.521 19.6084C52.0329 22.3221 50.8073 25.2109 49.4943 28.0121C49.0566 28.8 49.2316 29.3252 50.1946 29.6754C50.9824 29.938 51.6827 30.5508 52.383 31.076C52.9958 31.5137 53.2584 31.4261 53.6961 30.7258C54.2213 29.5878 54.7466 28.3623 55.5344 27.4869C57.0226 25.8237 58.5983 24.423 60.2615 22.9349C61.6621 21.7093 63.3254 22.0595 64.2883 23.6352C64.6385 24.1604 64.9011 24.6857 65.1637 25.2109C65.864 26.699 66.0391 26.7866 67.5272 25.9112C67.6148 25.8237 67.7023 25.7361 67.8774 25.6486C69.5406 24.9483 71.2039 24.1604 72.9547 23.6352C73.7425 23.4601 74.7054 23.6352 75.5808 23.6352ZM78.8197 30.2006C78.6447 30.2006 78.4696 30.2006 78.2945 30.2006C78.2945 30.6383 78.2945 31.1635 78.2945 31.6012C78.4696 31.6012 78.6447 31.6012 78.8197 31.6012C78.8197 31.1635 78.8197 30.6383 78.8197 30.2006Z" fill="#251C1C"/>
<path d="M68.0522 37.2913C70.6784 37.4664 72.3416 37.8166 73.7422 39.2172C74.2675 39.7424 75.1429 39.8299 75.8432 40.0926C77.0687 40.5303 78.2943 40.7929 79.2572 41.9309C79.9575 42.7187 81.008 43.0689 81.9709 43.5941C84.0718 44.7321 85.2974 46.5704 86.6105 48.4088C87.6609 49.8969 88.8865 51.21 90.112 52.6106C91.6002 54.2739 93.0883 55.8495 94.5765 57.4252C95.1017 57.9505 95.3643 58.6508 95.7145 59.3511C96.4148 60.4016 97.0276 61.5396 97.7279 62.59C99.216 64.866 100.617 67.2296 102.192 69.4181C104.381 72.5695 105.344 76.1586 106.482 79.6601C107.532 82.9866 108.32 86.3131 108.67 89.7271C108.845 91.828 108.67 93.9289 109.02 96.0299C109.458 99.4439 108.933 102.683 108.583 106.009C108.408 107.585 108.057 109.161 107.795 110.824C107.532 112.487 107.445 114.238 107.095 115.814C106.657 117.915 106.307 120.016 105.519 122.116C104.819 124.13 103.681 125.968 102.893 127.894C101.842 130.52 100.879 133.146 99.7413 135.772C99.216 136.998 98.5157 138.224 97.8154 139.449C96.8525 141.2 95.8896 142.951 94.8391 144.614C93.6136 146.452 92.4756 148.291 90.9874 149.954C88.974 152.317 86.7855 154.506 84.5971 156.694C83.9843 157.307 83.1964 157.832 82.4086 158.358C81.183 159.233 80.045 160.108 78.8195 160.896C76.8936 162.122 74.8802 163.26 72.8669 164.31C72.2541 164.66 71.5538 164.748 70.8535 164.923C69.3653 165.273 67.8771 165.623 66.3014 165.886C64.0254 166.236 61.7494 166.674 59.3859 166.411C57.6351 166.236 55.8843 166.148 54.1335 165.973C52.7329 165.798 51.2448 165.623 49.8442 165.186C46.8678 164.398 43.804 163.61 41.0027 162.472C38.6392 161.509 36.5382 160.021 34.3498 158.62C31.7236 157.044 29.7102 154.768 27.6093 152.58C24.9831 149.779 22.7071 146.715 20.5186 143.651C19.8183 142.601 19.5557 141.2 19.118 140.062C18.5053 138.486 17.8049 136.91 17.2797 135.335C16.6669 133.496 16.1417 131.571 15.5289 129.732C15.1788 128.594 14.7411 127.544 14.4785 126.406C14.1283 124.918 13.9532 123.342 13.6906 121.854C13.5155 120.366 13.2529 118.965 13.1654 117.477C13.0778 116.251 13.428 115.026 13.428 113.713C13.3405 109.949 14.0408 106.272 14.8286 102.683C15.2663 100.757 16.1417 98.8311 16.7545 96.9053C17.0171 96.0299 17.0171 95.1545 17.2797 94.2791C17.8049 92.2657 18.3302 90.3398 18.8554 88.3265C19.0305 87.6261 19.118 86.8383 19.2931 86.138C19.6433 83.7744 20.6937 81.6735 21.6567 79.5726C22.6196 77.3841 23.5825 75.1956 24.7205 73.0947C26.3837 70.1184 28.3971 67.3171 30.0604 64.3408C31.1108 62.5025 32.599 61.1894 33.9121 59.7013C36.5382 56.8125 39.1644 53.8362 42.0532 51.21C46.1675 47.3583 50.632 43.9443 55.7968 41.4932C58.1603 40.3552 60.4363 39.2172 62.8874 38.3418C64.8133 37.6415 66.8267 37.4664 68.0522 37.2913ZM55.7968 118.702C55.7968 118.615 55.7968 118.44 55.7968 118.352C52.1202 118.527 48.4435 118.79 44.7669 118.877C43.8915 118.877 43.6289 119.315 43.5414 120.103C43.4538 122.729 43.3663 125.268 43.2787 127.894C43.1037 131.571 42.9286 135.247 42.841 138.924C42.5784 145.839 42.4033 152.755 42.1407 159.583C42.1407 160.371 42.3158 160.721 43.0161 160.896C47.218 162.209 51.4198 163.785 55.8843 163.96C58.8606 164.135 61.837 164.223 64.8133 163.96C66.8267 163.872 68.7525 163.172 70.7659 162.734C71.1161 162.647 71.3787 162.559 71.7289 162.384C74.9678 161.071 77.8566 159.058 80.7454 156.957C82.4086 155.731 84.0718 154.418 85.4725 153.018C87.3108 151.179 89.0615 149.253 90.8123 147.328C90.9874 147.153 91.0749 146.977 91.1625 146.802C92.9132 144.001 94.664 141.2 96.2397 138.311C97.1151 136.823 97.8154 135.247 98.5157 133.672C99.6537 131.133 100.529 128.419 101.755 125.881C103.681 122.116 104.994 118.177 105.431 113.975C105.606 111.874 105.957 109.773 106.307 107.673C106.569 105.572 107.095 103.471 107.095 101.37C107.182 98.3059 107.095 95.242 106.832 92.1782C106.569 89.2018 106.219 86.2255 105.606 83.3367C105.169 81.0607 104.381 78.7847 103.505 76.5087C102.893 74.6704 102.105 72.9196 101.142 71.2564C99.1285 67.9299 96.94 64.691 94.7516 61.3645C94.1388 60.4891 93.7011 59.4386 93.0883 58.5633C90.2871 54.7991 87.4858 51.1225 84.5971 47.4458C83.9843 46.7455 83.3715 45.9577 82.5837 45.4324C81.4457 44.6446 80.2201 44.0318 78.9946 43.419C76.631 42.1935 74.1799 41.4056 71.4662 41.143C71.1161 41.143 70.5909 40.6178 70.5909 40.4427C70.7659 39.3923 70.0656 39.1296 69.3653 39.1296C67.9647 39.1296 66.5641 39.1296 65.251 39.3047C62.012 39.7424 59.2108 41.2306 56.4096 42.7187C52.6454 44.7321 49.0563 47.0081 45.9049 49.8969C43.0161 52.5231 40.2149 55.3243 37.4136 58.038C36.9759 58.4757 36.7133 59.0009 36.3632 59.5262C34.7875 61.277 33.0367 62.8527 31.7236 64.691C30.0604 66.8794 28.6598 69.243 27.3467 71.6065C25.9461 74.0576 24.7205 76.5962 23.5825 79.1349C22.7071 81.2358 22.0068 83.4243 21.3065 85.5252C20.6062 87.7137 19.9934 89.9897 19.3806 92.2657C18.8554 94.1916 18.5053 96.2049 17.98 98.0433C16.842 101.72 15.704 105.397 15.3539 109.248C15.0912 112.925 14.9162 116.514 15.4414 120.191C15.9666 124.305 17.0171 128.244 18.2426 132.096C18.9429 134.372 20.081 136.648 20.6937 138.924C21.394 141.463 22.7947 143.563 24.3704 145.489C25.5084 146.89 26.8214 148.115 27.9594 149.516C31.1108 153.105 34.2622 156.607 38.6392 158.795C39.8647 159.408 40.1273 159.32 40.2149 157.92C40.39 156.081 40.4775 154.243 40.565 152.317C40.6526 149.341 40.8277 146.452 40.9152 143.476C41.0027 140.587 41.0903 137.698 41.2653 134.722C41.3529 132.008 41.528 129.207 41.703 126.493C41.7906 123.867 41.7906 121.241 41.8781 118.615C42.0532 114.588 42.5784 110.561 42.666 106.622C42.7535 101.895 42.666 97.1679 42.5784 92.4408C42.4909 88.2389 42.4034 83.9495 42.2283 79.7476C42.2283 78.7847 41.8781 77.9093 41.528 77.0339C41.0903 75.8959 41.4404 74.933 42.5784 74.5829C43.6289 74.3202 44.6794 73.9701 45.7298 73.795C49.1438 73.0947 52.6454 73.2698 56.1469 73.6199C57.2849 73.7075 58.5105 73.8825 59.6485 73.9701C61.7494 74.0576 63.8504 74.0576 66.0388 73.9701C67.527 73.8825 69.1027 74.5829 70.5033 73.3573C70.6784 73.1822 71.5538 73.4448 71.5538 73.6199C71.7289 74.4078 72.2541 74.4078 72.8669 74.4078C75.7556 74.5829 78.5569 74.8455 81.4457 75.1081C81.7958 75.1081 82.4086 75.6333 82.4961 75.9835C82.6712 77.209 82.6712 78.4346 82.7587 79.5726C83.0214 82.724 83.284 85.8754 83.5466 89.0268C83.7217 90.9526 83.8968 92.7909 84.1594 94.6292C84.3344 95.7673 84.5095 96.9928 84.6846 98.1308C85.2098 101.02 85.7351 103.821 86.1728 106.71C86.6105 109.423 87.0481 112.137 87.4858 114.851C87.6609 115.814 87.1357 116.689 86.1728 116.689C83.6341 116.689 81.008 116.601 78.4693 116.689C74.7927 116.777 71.1161 117.039 67.4394 117.302C63.6753 117.915 59.736 118.352 55.7968 118.702ZM58.6856 116.689C58.598 116.689 58.6856 116.689 58.7731 116.689C63.15 116.339 67.4395 115.989 71.8164 115.639C71.9915 115.639 72.2541 115.376 72.2541 115.201C72.2541 113.625 72.2541 112.137 72.1665 110.561C72.1665 109.773 71.8164 109.073 71.8164 108.285C71.7289 105.747 71.7289 103.121 71.6413 100.582C71.5538 98.481 71.5538 96.38 71.3787 94.3666C71.2912 92.7034 70.941 91.1277 70.7659 89.4645C70.4158 85.7878 70.0656 82.1112 69.7155 78.4346C69.6279 77.9093 69.5404 77.2966 69.2778 76.7713C69.1027 76.5087 68.7525 76.1586 68.4024 76.1586C67.3519 75.9835 66.2139 75.8959 65.1634 75.8959C63.0625 75.8959 60.9616 75.8959 58.8606 75.8959C58.1603 75.8959 57.8977 76.2461 57.8102 76.7713C57.6351 77.9093 57.285 79.1349 57.285 80.2729C57.3725 82.9866 57.7226 85.7878 57.8977 88.5015C57.9853 89.7271 57.9853 91.0402 58.1603 92.2657C58.5105 95.4171 58.6856 98.481 58.3354 101.632C58.0728 104.171 58.0728 106.797 58.1603 109.423C58.3354 111.787 58.5105 114.238 58.6856 116.689ZM57.0223 116.952C56.8473 116.076 56.5846 115.551 56.5846 115.026C56.5846 113.625 56.6722 112.312 56.6722 110.911C56.6722 108.285 56.4096 105.659 56.6722 103.121C57.0223 99.7065 56.9348 96.2925 56.7597 92.8785C56.4096 88.414 56.1469 83.9495 55.8843 79.3975C55.7968 78.1719 56.0594 76.9464 56.1469 75.6333C55.6217 75.6333 55.2716 75.5458 54.8339 75.5458C51.3323 75.4582 47.8308 75.0205 44.4167 76.2461C43.6289 76.5087 43.2787 76.7713 43.5414 77.6467C43.7164 78.1719 43.804 78.7847 43.8915 79.3099C43.979 82.4613 43.979 85.7003 44.0666 88.8517C44.1541 92.0031 44.7669 95.1545 44.5918 98.3934C44.4167 100.932 44.5043 103.383 44.4167 105.922C44.2417 109.336 43.979 112.662 43.804 116.076C43.804 116.339 43.8915 116.514 43.8915 116.952C48.2684 116.952 52.5578 116.952 57.0223 116.952ZM74.2675 112.837C74.1799 112.837 74.1799 112.837 74.0924 112.837C74.0924 113.363 74.0924 113.888 74.0924 114.325C74.0924 115.113 74.355 115.551 75.2304 115.463C76.1058 115.376 76.8937 115.463 77.769 115.463C79.9575 115.376 82.2335 115.288 84.422 115.201C85.2974 115.201 85.56 114.763 85.4725 113.888C85.1223 111.787 84.9472 109.598 84.5971 107.497C84.0718 104.171 83.5466 100.845 83.0214 97.518C82.4961 93.9289 82.0584 90.2523 81.6207 86.6632C81.2706 83.7744 81.008 80.8856 80.6578 77.9969C80.5703 77.2966 80.2201 76.9464 79.5198 76.9464C77.1563 76.7713 74.7052 76.5962 72.3416 76.4212C71.5538 76.3336 71.1161 76.6838 71.2912 77.5592C71.5538 79.1349 71.7289 80.7981 71.9039 82.3738C72.079 84.3872 72.079 86.4006 72.2541 88.414C72.6918 94.1915 73.217 99.9691 73.6547 105.834C73.7422 106.885 73.6547 107.935 73.7422 108.986C73.9173 110.211 74.0924 111.524 74.2675 112.837Z" fill="#251C1C"/>
<path d="M63.0634 6.30219C63.7638 7.35265 63.7638 8.40312 62.9759 8.66573C62.7133 8.75327 62.1005 8.66573 61.9254 8.40312C61.4877 7.79034 62.1005 6.73988 63.0634 6.30219Z" fill="black"/>
<path d="M84.0713 199.676C83.9837 198.275 81.7952 197.663 81.0074 199.063C79.5192 201.689 77.856 204.14 76.0177 206.504C76.1052 206.241 76.2803 205.979 76.3678 205.804C77.6809 204.14 78.8189 202.302 79.7819 200.376C80.4822 198.976 79.3442 197.838 78.2062 198.013C78.6439 196.349 76.2803 195.036 75.2298 196.7C74.9672 197.137 74.7046 197.575 74.442 198.1C74.2669 197.925 74.0918 197.838 73.9168 197.75C74.0918 196.437 72.166 195.124 71.1155 196.349C71.028 196.437 70.9404 196.612 70.8529 196.7C70.4152 197.312 69.89 197.925 69.4523 198.538C69.0146 197.575 67.4389 197.05 66.651 198.1C66.476 196.962 64.7252 195.999 63.8498 197.137C63.4996 197.575 63.1495 198.1 62.7118 198.538C62.2741 197.575 61.1361 197.05 60.1732 198.013C59.4729 198.713 58.7725 199.501 58.0722 200.289C59.0352 198.713 56.9342 196.7 55.6211 198.188C52.995 201.252 50.3688 204.315 47.5676 207.204C48.1803 206.241 48.7931 205.366 49.4934 204.491C50.4564 203.353 51.3317 202.127 52.2071 200.989C53.2576 199.501 50.8065 197.575 49.6685 198.976C49.1433 199.588 48.7056 200.201 48.1803 200.814C47.9177 199.588 46.0794 198.976 45.204 200.289C43.9785 202.039 42.7529 203.703 41.3523 205.278C41.79 204.578 42.2277 203.878 42.6654 203.177C43.1031 202.39 42.8405 201.427 42.0526 200.989C41.2648 200.551 40.5645 200.814 40.0392 201.339C40.8271 199.676 38.2885 198.275 37.1505 199.939C36.2751 201.164 35.4872 202.39 34.6994 203.615C34.4368 204.053 34.0866 204.491 33.7364 204.841C33.5614 203.528 31.6355 202.74 30.6726 204.14C30.0598 205.103 29.447 206.066 28.7467 207.029C29.0969 205.979 29.3595 204.928 29.7097 203.878C30.0598 202.74 28.8343 201.427 27.6963 201.864C25.8579 202.565 24.5449 203.965 24.1072 205.891C23.9321 206.767 24.4573 207.467 25.0701 207.729C24.4573 209.655 23.8446 211.581 23.3193 213.507C23.0567 214.47 23.6695 215.17 24.4573 215.433C24.4573 216.746 26.1206 217.621 27.2586 216.658C28.4841 215.52 29.7097 214.382 30.8477 213.157C31.3729 213.507 32.2483 213.595 32.9486 213.069C33.0361 213.069 33.0361 212.982 33.1237 212.982C32.3358 214.295 33.9991 216.221 35.3121 215.17C36.2751 214.47 37.238 213.682 38.2009 212.894C38.4635 213.857 39.7766 214.47 40.7395 213.857C40.7395 213.945 40.7395 213.945 40.652 214.032C40.1268 215.696 42.2277 216.571 43.3657 215.608C43.9785 215.083 44.5913 214.558 45.204 214.032C45.204 214.733 45.6417 215.52 46.342 215.608C49.1433 216.046 51.0691 214.295 52.8199 212.282C53.0825 212.282 53.2576 212.194 53.5202 212.106C53.9579 211.931 54.3081 211.669 54.6582 211.406C54.4831 211.756 54.3081 212.019 54.133 212.369C53.4327 213.77 54.9208 215.433 56.3215 214.558C57.1093 214.12 57.8972 213.595 58.685 213.069C58.9476 213.595 59.4729 213.945 60.0856 213.945C61.1361 213.945 62.099 213.595 62.8869 213.069C63.4996 213.332 64.2875 213.332 64.7252 212.719C64.9878 212.369 65.338 211.931 65.6006 211.581C66.1258 212.369 67.4389 212.632 68.1392 211.844C68.8395 211.144 69.4523 210.356 70.1526 209.568C70.3277 209.83 70.6778 210.005 70.9404 210.093C70.5903 211.144 70.2401 212.194 69.9775 213.332C69.5398 214.908 71.5532 216.046 72.6912 214.908C74.5295 213.157 76.2803 211.319 77.856 209.393C78.2937 210.356 79.6943 210.793 80.5697 209.918C81.0074 209.48 81.4451 209.043 81.7952 208.605C81.7077 208.867 81.7077 209.218 81.6202 209.48C81.4451 210.356 81.8828 211.231 82.7582 211.494C83.546 211.669 84.5965 211.231 84.7716 210.356C85.2093 207.467 85.647 204.491 86.0847 201.602C86.2597 200.201 85.0342 199.413 84.0713 199.676ZM63.8498 202.39C63.3246 203.09 62.8869 203.878 62.3616 204.578C62.7993 203.965 63.237 203.265 63.6747 202.652C63.7623 202.565 63.8498 202.477 63.8498 202.39Z" fill="#39B100"/>
<path d="M34.613 214.295C35.3133 214.207 35.9261 214.119 36.6264 214.032C37.5893 213.857 38.5522 213.769 39.5152 213.594C41.1784 213.332 42.8416 213.069 44.5049 212.806C46.6058 212.369 48.7943 211.931 50.8077 212.456C52.7335 212.981 54.3968 212.456 56.2351 212.456C58.4235 212.456 60.6996 212.894 62.888 212.981C65.6017 212.981 68.3154 212.806 71.1167 212.544C74.2681 212.281 77.3319 212.018 80.4833 211.756C80.8335 211.756 81.2712 211.756 81.5338 211.581C81.7964 211.406 82.2341 210.968 82.1466 210.793C81.3587 207.204 81.9715 203.615 82.059 200.026C82.1466 198.275 81.6213 197.75 79.8706 197.837C72.955 198.1 66.0394 198.275 59.1239 198.538C52.9961 198.8 46.7809 198.888 40.6532 199.325C37.6769 199.5 34.7005 200.376 31.6367 200.814C29.8859 201.076 28.1351 201.076 26.3843 201.076C25.5965 201.076 25.2463 201.339 25.4214 202.127C25.7716 204.14 26.0342 206.241 26.2968 208.254C26.2968 208.517 26.3843 208.867 26.5594 209.042C27.5223 210.005 27.3473 211.143 26.9971 212.194C26.5594 213.769 26.7345 214.119 28.3977 214.119C29.7984 214.207 31.2865 214.295 32.6871 214.47C32.9498 214.47 33.2124 214.82 33.6501 214.995C32.337 215.87 31.0239 215.87 29.7108 215.87C29.0105 215.87 28.3102 215.958 28.2227 216.921C27.96 216.746 27.785 216.746 27.6974 216.571C27.3473 215.87 26.9971 215.17 25.9467 215.608C25.8591 215.608 25.2463 214.907 25.2463 214.557C25.684 209.918 24.4585 205.453 23.8457 200.901C23.6706 199.325 24.0208 198.888 25.5965 199.413C27.96 200.113 30.4111 199.676 32.6871 199.063C36.889 198.012 41.1784 197.575 45.4678 197.4C52.0332 197.049 58.5111 196.962 65.0765 196.699C69.3659 196.524 73.5678 196.349 77.8572 196.174C79.1702 196.086 80.4833 195.824 81.7089 195.999C83.7223 196.174 84.16 197.312 83.7223 199.325C83.2846 201.426 83.1095 203.527 83.1095 205.716C83.1095 207.642 83.4597 209.567 83.6347 211.493C83.7223 212.631 83.5472 213.069 82.4092 213.332C81.4463 213.594 80.4833 213.594 79.5204 213.682C76.5441 213.857 73.5678 213.944 70.5914 214.119C68.403 214.207 66.2145 214.47 64.026 214.47C62.5379 214.47 60.9622 214.295 59.474 214.119C54.8345 213.594 50.1949 213.157 45.5553 213.944C42.579 214.47 39.6027 214.645 36.5388 214.907C35.8385 214.995 35.1382 214.557 34.4379 214.47C34.613 214.47 34.613 214.382 34.613 214.295Z" fill="#251C1C"/>
<path d="M68.4033 206.941C67.1778 207.029 66.4775 207.204 66.3024 208.255C66.2149 208.955 65.7772 209.743 65.0769 209.568C64.2015 209.305 64.4641 208.43 64.7267 207.817C65.427 206.066 66.1273 204.228 66.9152 202.477C67.1778 201.777 67.8781 201.777 68.3158 202.302C68.7535 202.74 69.0161 203.265 69.2787 203.878C69.804 205.103 70.2417 206.329 70.7669 207.554C71.0295 208.167 71.6423 208.955 70.8544 209.393C70.0666 209.83 69.804 208.867 69.3663 208.342C68.9286 207.729 68.666 207.204 68.4033 206.941Z" fill="#251C1C"/>
<path d="M48.0942 205.366C47.9191 205.541 47.7441 205.716 47.4814 205.891C47.8316 206.591 48.1817 207.204 48.3568 207.904C48.4444 208.254 48.2693 208.692 48.1817 209.042C47.8316 208.867 47.3064 208.867 47.0437 208.517C46.6936 208.079 46.6061 207.554 46.3434 207.029C46.0808 206.591 45.7307 205.978 45.3805 205.978C44.6802 205.978 43.8048 206.154 43.5422 207.029C43.3671 207.554 43.3671 208.079 43.1045 208.605C42.8419 208.955 42.4042 209.217 42.054 209.48C41.879 209.042 41.5288 208.517 41.7039 208.167C42.3166 206.329 43.017 204.578 43.8048 202.827C44.33 201.602 45.0303 201.602 45.8182 202.652C46.5185 203.615 47.3064 204.403 48.0942 205.366Z" fill="#251C1C"/>
<path d="M35.6635 203.615C36.5389 203.44 37.4143 203.265 38.2897 203.09C38.3772 203.09 38.4648 203.002 38.5523 203.002C39.1651 203.09 39.7778 203.265 40.3906 203.44C39.8654 203.702 39.4277 204.14 38.9025 204.228C36.3638 205.015 36.3638 204.928 36.6264 207.554C36.714 208.254 36.9766 208.955 37.3268 209.655C37.6769 210.355 37.5018 210.881 36.8891 211.056C36.6264 211.143 35.9261 210.705 35.9261 210.443C35.576 209.042 35.2258 207.554 35.0507 206.066C34.9632 205.366 34.8757 204.928 34.0003 204.928C33.6501 204.928 33.3875 204.403 33.0374 204.14C33.3 203.877 33.6501 203.527 33.9127 203.44C34.3504 203.352 34.8757 203.44 35.4009 203.44C35.6635 203.44 35.6635 203.527 35.6635 203.615Z" fill="#251C1C"/>
<path d="M50.8067 205.191C51.0693 204.403 51.1569 203.615 51.507 202.827C51.5946 202.565 52.2073 202.565 52.5575 202.477C52.645 202.827 52.8201 203.177 52.8201 203.528C52.8201 203.79 52.645 204.053 52.5575 204.315C52.0322 206.154 52.5575 207.204 54.3958 207.554C55.3587 207.73 56.3216 207.73 57.2846 207.817C57.4597 207.817 57.7223 207.992 57.8973 208.08C57.7223 208.255 57.6347 208.517 57.4597 208.605C56.059 209.218 54.5709 209.305 53.0827 208.955C51.8572 208.692 51.0693 207.642 51.0693 206.329C51.0693 205.979 51.0693 205.629 51.0693 205.278C50.8942 205.191 50.8942 205.191 50.8067 205.191Z" fill="#251C1C"/>
<path d="M61.1363 202.302C61.2238 202.565 61.3989 202.827 61.3989 203.09C61.4864 204.49 61.4864 205.891 61.574 207.292C61.574 207.554 61.7491 207.817 61.6615 208.08C61.574 208.342 61.3114 208.605 61.1363 208.692C60.9612 208.78 60.6111 208.517 60.5235 208.342C60.2609 207.904 60.0858 207.379 59.9983 206.854C59.8232 205.891 59.8232 204.841 59.7357 203.79C59.5606 203.002 60.0858 202.302 61.1363 202.302Z" fill="#251C1C"/>
<path d="M59.2983 200.026C59.736 200.552 60.0861 200.814 60.0861 201.077C59.9986 201.339 59.6485 201.69 59.2983 201.69C59.1232 201.69 58.598 201.339 58.598 201.077C58.598 200.902 58.9481 200.552 59.2983 200.026Z" fill="#251C1C"/>
<path d="M30.4115 210.968C29.8863 208.867 29.7112 206.679 29.7987 204.49C29.7987 203.877 28.8358 203.877 28.8358 204.49C28.7483 206.766 28.9233 208.955 29.4486 211.231C29.6236 211.843 30.5866 211.581 30.4115 210.968Z" fill="#251C1C"/>
</svg>
