<svg width="118" height="209" viewBox="0 0 118 209" fill="none" xmlns="http://www.w3.org/2000/svg">
<path d="M40.5917 25.317C40.6788 24.7945 40.6788 24.1848 40.6788 23.6623C40.7659 21.7463 38.7628 20.9625 37.3693 21.5721C36.5855 21.1366 35.5404 21.2237 34.8436 21.7463C33.8856 20.1786 31.2729 20.2657 30.4891 22.3559C29.1827 26.1008 27.9634 29.8458 27.0054 33.5907C26.1345 33.2423 25.0894 33.3294 24.3056 34.0262C17.9479 39.1645 13.245 45.9577 10.4581 53.6217C10.1097 54.5797 10.4581 55.3635 10.9806 55.8861C10.4581 55.8861 9.93553 56.1473 9.50008 56.4957C5.40678 60.3277 3.66496 65.7274 4.2746 71.1271C4.01332 71.8238 3.66496 72.5205 3.40368 73.2172C2.70695 74.872 3.57787 76.2654 4.88424 76.7009C3.05532 79.3136 2.44568 82.6231 3.14241 85.7584C3.2295 86.1938 3.49077 86.5422 3.75205 86.8035C3.31659 88.6324 4.71005 89.7646 6.10351 89.6775C6.01642 90.2871 5.84224 90.8968 5.75515 91.5064C2.70695 95.861 0.790944 100.651 0.094214 105.964C-0.0799687 107.183 0.703853 107.88 1.57477 108.141C1.40058 109.709 1.40058 111.189 1.40058 112.757C1.40058 113.715 2.01022 114.499 2.88114 114.847C2.53277 117.198 2.35859 119.55 2.2715 121.901C2.2715 123.033 3.05532 123.817 4.01332 124.166C3.83914 125.995 3.66496 127.911 3.57787 129.74C3.49077 130.959 4.18751 131.656 5.05842 131.917C5.05842 132.526 5.05842 133.223 5.14551 133.833C5.14551 134.53 5.49388 135.052 5.92933 135.488C5.92933 135.575 5.92933 135.575 5.92933 135.662C6.01642 136.968 7.14861 137.926 8.2808 138.013C8.2808 138.536 8.19371 139.058 8.19371 139.581C8.01952 142.629 12.8095 142.629 12.9837 139.581C13.1579 135.575 13.3321 131.481 13.5063 127.475C13.5934 126.43 12.8966 125.646 12.1128 125.385C12.287 124.601 12.4612 123.904 12.6354 123.121C12.9837 121.727 12.287 120.769 11.329 120.334C11.2419 119.376 10.5452 118.766 9.67426 118.505C10.2839 115.282 10.9806 112.147 11.9386 109.012C12.4612 107.27 11.0677 106.138 9.67426 106.051C10.0226 105.006 10.2839 104.048 10.6323 103.09C10.9806 102.132 10.5452 101.261 9.84844 100.738C10.6323 98.1254 11.2419 95.5126 11.8515 92.8999C12.287 91.4193 12.8095 90.0259 13.3321 88.5453C13.8546 87.0648 12.8966 86.0197 11.6774 85.6713C11.9386 84.3649 12.1128 83.0586 12.3741 81.8393C12.4612 81.4038 12.3741 80.9684 12.287 80.62C12.4612 80.4458 12.6354 80.1846 12.7225 79.8362C13.245 78.3556 13.7675 76.9622 14.2901 75.4816C15.2481 73.0431 16.2932 70.6045 17.4254 68.166C19.6898 64.6823 21.6058 61.0245 23.3476 57.1924C23.6089 56.5828 23.696 55.9732 23.5218 55.4506C27.528 49.8768 31.5342 44.39 35.5404 38.8162C36.2371 38.8162 36.9338 38.4678 37.2822 37.684C37.4564 37.2485 37.6306 36.9002 37.8048 36.4647C38.9369 33.852 40.2433 31.2392 41.6368 28.8007C42.5077 27.233 41.7239 25.9267 40.5917 25.317Z" fill="#39B100"/>
<path d="M117.495 94.3803C118.017 90.7225 117.843 87.0647 116.972 83.4939C116.711 82.3617 116.362 81.2296 115.927 80.1845C116.014 79.4006 116.101 78.7039 116.188 77.9201C116.45 76.1783 114.534 75.3073 113.14 75.6557C112.705 75.1332 112.182 74.6977 111.66 74.2623C113.576 74.6106 114.969 72.3462 114.011 70.6915C113.227 69.211 112.705 67.6433 112.617 65.9886C112.53 64.2468 113.053 62.5049 113.053 60.7631C113.053 57.6278 111.05 54.3183 107.566 54.4054C105.128 54.4054 103.908 56.1473 103.299 58.1504C101.644 61.0244 101.296 65.466 103.125 67.9917C103.473 68.4271 103.821 68.8626 104.257 69.1239C104.431 69.4722 104.605 69.9077 104.866 70.2561C104.953 70.4302 105.128 70.6044 105.215 70.7786C105.215 71.0399 105.128 71.3011 105.128 71.6495C104.344 72.4333 103.734 73.4784 103.299 74.6106C102.95 75.5686 103.473 76.7879 104.344 77.3104C104.17 79.1394 103.995 81.0554 103.821 82.8843C103.734 83.9294 104.257 84.7132 105.041 84.9745V85.0616C103.734 88.4581 102.776 92.0289 102.167 95.6867C101.992 96.906 102.602 97.864 103.386 98.2994C102.079 104.918 100.599 111.624 99.0313 118.156C98.8571 119.027 99.0313 119.637 99.3796 120.159C98.9442 120.421 98.5958 120.856 98.3345 121.466C97.4636 123.817 96.7669 126.256 96.1572 128.694C95.4605 128.868 94.7638 129.391 94.4154 130.262C93.4574 132.526 92.7607 134.965 92.151 137.316C91.4543 137.403 90.8447 137.839 90.5834 138.449C89.9738 139.755 89.3641 141.061 88.8416 142.455C88.319 143.587 87.8836 144.719 87.361 145.851C86.3159 145.242 84.8354 145.329 84.1386 146.635C83.0935 148.638 82.0484 150.554 81.0034 152.557C80.0453 152.557 79.1744 153.08 78.8261 154.212C77.781 157.522 76.823 160.831 75.7779 164.14C74.8199 167.189 79.2615 168.147 80.3937 165.447C80.4808 165.273 80.5679 165.098 80.5679 164.924C81.613 165.534 83.1806 165.534 83.7903 164.14C84.9225 161.876 86.1417 159.525 87.1868 157.173C88.1448 157.434 89.1028 157.26 89.7125 156.041C90.6705 154.125 91.5414 152.122 92.4123 150.119C93.1961 150.119 93.8929 149.77 94.2412 148.9C94.3283 148.725 94.4154 148.551 94.5025 148.29C95.3734 146.2 96.2443 144.022 97.0282 141.845C97.8991 141.932 98.77 141.671 99.2054 140.713C100.163 138.361 101.121 136.01 101.992 133.571C102.95 133.571 103.995 132.962 104.344 131.917C107.305 122.424 109.482 112.67 110.789 102.741C111.311 103.351 112.182 103.699 112.966 103.699C114.185 104.483 116.275 104.135 116.885 102.48C117.495 100.651 117.582 98.822 117.233 96.906C117.495 96.1222 117.495 95.2513 117.495 94.3803Z" fill="#39B100"/>
<path d="M60.9724 48.1354C60.7982 48.0483 60.624 47.9612 60.4498 47.787C59.0564 43.955 54.7889 42.3003 50.7827 42.3003C48.6925 42.3003 46.6023 42.9099 45.1218 44.3905C43.2929 46.2194 42.9445 49.0063 42.4219 51.4449L38.3286 70.2566C37.6319 73.3048 42.2478 74.5241 42.9445 71.563C43.7283 67.9051 44.5992 64.1602 45.383 60.5024C48.5183 62.07 52.2633 62.1571 55.3985 60.4153C56.2695 59.9798 57.0533 59.3702 57.75 58.6735C59.3176 57.9767 60.7982 57.0187 61.8433 55.7124C64.0206 53.2738 63.6722 49.8772 60.9724 48.1354ZM46.8636 54.0576C46.7765 54.4931 46.8636 54.9285 46.9507 55.2769C46.7765 55.2769 46.6894 55.1898 46.5152 55.1898C46.7765 54.0576 46.9507 52.9254 47.212 51.8803C47.1249 52.5771 47.0378 53.3609 46.8636 54.0576ZM51.4794 55.4511V55.364C52.002 53.448 52.3503 51.532 52.5245 49.5289V49.4418C53.8309 49.8772 55.0502 50.3998 56.2695 50.9223C56.2695 51.9674 55.9211 53.0125 55.4856 53.7963C55.3115 54.0576 55.1373 54.3189 54.9631 54.5802C53.8309 55.0156 52.6987 55.364 51.4794 55.4511Z" fill="#EF4036"/>
<path d="M77.3447 138.884C76.9964 137.49 75.69 136.968 74.3836 137.229C71.6838 137.665 69.0711 138.1 66.3712 138.536C65.6745 138.623 65.0649 138.71 64.3681 138.884C64.281 138.884 64.1068 138.884 63.8456 138.971C63.8456 138.884 63.8456 138.884 63.8456 138.797C63.8456 138.187 63.9327 137.49 63.9327 136.881C64.0198 134.791 63.9327 132.7 63.8456 130.61C66.0229 130.523 68.2001 130.697 70.2903 131.046C71.5967 131.22 72.816 130.697 73.2514 129.391C73.5998 128.259 72.816 126.604 71.5967 126.43C68.8969 125.994 66.197 125.82 63.4101 125.907C63.323 125.385 63.323 124.862 63.2359 124.34C66.11 124.253 68.984 123.817 71.7709 123.295C74.8191 122.685 73.5127 118.069 70.4645 118.679C67.155 119.375 63.8456 119.637 60.449 119.637C58.7943 119.637 57.9234 121.204 58.0975 122.685C58.6201 125.907 58.9685 129.13 59.0556 132.439C59.1426 133.92 59.1426 135.487 59.0556 136.968C58.9685 138.361 58.7072 139.929 58.9685 141.322C59.5781 144.719 63.0618 144.109 65.5874 143.674C68.8969 143.151 72.2934 142.629 75.6029 142.106C76.9093 141.584 77.606 140.016 77.3447 138.884Z" fill="#EF4036"/>
<path d="M72.9908 79.7488C73.6004 76.6135 74.123 73.5653 74.7326 70.43C75.081 68.6882 74.9068 68.4269 73.2521 68.1656C72.3812 67.9914 71.4232 67.7302 70.5523 67.556C70.0297 67.4689 69.7684 67.6431 69.5943 68.0785C68.5492 70.5171 67.5041 73.0427 66.459 75.4813C65.9364 76.7006 65.4139 77.8328 64.8042 78.9649C64.3688 79.7488 63.7591 79.9229 62.8011 79.6617C61.4077 79.3133 60.0142 78.9649 58.6207 78.7037C57.7498 78.5295 57.4015 78.094 57.7498 77.3102C58.3595 75.5684 59.0562 73.8266 59.84 72.1718C60.9722 69.7333 62.1915 67.3818 63.4108 64.9432C64.63 62.5047 65.8493 60.1532 67.0686 57.7147C68.2879 55.189 69.5072 52.6634 70.8135 50.2248C71.4232 49.0926 71.9457 47.8733 73.165 47.0895C74.0359 46.567 74.7326 46.6541 75.6035 46.9153C77.6066 47.525 79.1743 48.8313 81.0032 49.8764C82.3967 50.6603 83.7901 51.2699 85.2707 51.8795C86.3158 52.315 86.4029 52.4021 86.1416 53.5343C85.7932 55.2761 85.2707 57.0179 84.9223 58.7598C84.3998 61.3725 83.9643 63.9852 83.4418 66.598C82.9192 69.1236 82.4838 71.5622 81.9612 74.0878C81.6129 75.9167 81.3516 77.8328 81.0032 79.6617C80.829 80.4455 80.7419 81.2293 80.5678 82.0131C80.3065 82.9711 79.6097 83.4066 78.6517 83.0582C77.8679 82.7099 77.0841 82.3615 76.2132 82.1873C75.6035 82.0131 74.9068 82.1002 74.2101 82.1873C73.2521 82.2744 72.9908 82.0131 73.0779 81.0551C73.0779 80.6197 73.165 80.1842 73.2521 79.8359C73.0779 79.7488 72.9908 79.7488 72.9908 79.7488ZM74.8197 77.3973C74.8197 77.3973 74.9068 77.3973 74.8197 77.3973C74.8197 78.1811 74.7326 78.8778 74.6455 79.6617C74.5585 80.0971 74.8197 80.2713 75.2552 80.4455C76.1261 80.6197 76.997 80.7939 77.8679 81.0551C78.5647 81.3164 78.913 81.0551 79.0001 80.4455C79.2614 79.2262 79.5227 78.094 79.7839 76.8748C80.1323 75.3071 80.4807 73.7395 80.7419 72.0847C81.2645 69.6462 81.6999 67.2947 82.2225 64.8561C82.5709 63.0272 82.9192 61.2854 83.2676 59.4565C83.6159 57.6276 84.0514 55.8857 84.4869 54.0568C84.661 53.4472 84.3998 53.0117 83.8772 52.7505C83.0934 52.4021 82.2225 52.0537 81.4387 51.6183C79.5227 50.5732 77.6937 49.5281 75.7777 48.483C75.4294 48.3088 74.9068 48.0475 74.6455 48.2217C73.8617 48.5701 72.9037 48.9184 72.4683 49.8764C71.4232 51.8795 70.3781 53.7956 69.333 55.7987C67.9395 58.4114 66.5461 61.1112 65.2397 63.8111C63.9333 66.4238 62.714 69.0365 61.4948 71.7364C60.798 73.2169 60.2755 74.7846 59.6658 76.3522C59.4046 76.9618 59.6658 77.3102 60.2755 77.4844C60.9722 77.6586 61.6689 77.7457 62.3657 78.0069C62.9753 78.1811 63.3237 78.0069 63.5849 77.4844C64.2817 76.0909 65.1526 74.7846 65.8493 73.3911C66.9815 71.3009 68.1137 69.1236 68.4621 66.6851C68.5492 66.0754 68.9846 65.8142 69.5943 65.9012C70.2039 65.9883 70.9006 66.0754 71.5103 66.2496C72.6424 66.5109 73.6875 66.9463 74.7326 67.1205C76.6486 67.3818 76.7357 67.3818 76.4745 69.3849C76.4745 69.6462 76.3874 69.8204 76.3874 69.9945C75.7777 72.4331 75.3423 74.9587 74.8197 77.3973Z" fill="#251C1C"/>
<path d="M58.3592 140.277C58.5334 136.445 58.7947 132.613 58.8818 128.781C58.9689 126.343 58.7076 123.904 58.5334 121.553C58.5334 121.117 58.185 120.682 58.0979 120.246C58.0108 119.811 57.9238 119.201 58.0979 118.766C58.5334 117.459 59.2301 116.85 60.6236 117.111C61.7558 117.285 62.888 117.198 64.0202 117.198C65.1523 117.285 66.1974 117.372 67.3296 117.459C68.5489 117.546 69.8553 117.634 71.0745 117.721C71.8584 117.808 72.6422 117.895 73.3389 118.069C73.8615 118.156 74.0357 118.592 73.9486 119.114C73.6873 120.42 73.5131 121.64 73.2518 122.946C73.0776 123.817 72.5551 123.991 71.7713 123.904C70.7262 123.817 69.6811 123.817 68.7231 123.817C68.0264 123.817 67.3296 123.817 66.6329 123.817C65.8491 123.817 65.0652 124.862 65.4136 125.559C65.5007 125.733 65.8491 125.907 66.0232 125.907C67.4167 125.994 68.8102 125.994 70.1165 126.081C70.9004 126.169 71.7713 126.343 72.5551 126.604C73.0776 126.778 73.2518 127.127 73.1647 127.736C72.9906 129.043 72.9035 130.436 72.8164 131.742C72.7293 132.526 72.2067 132.875 71.4229 132.875C69.8553 132.787 68.2876 132.7 66.6329 132.613C66.0233 132.613 65.762 132.875 65.762 133.397C65.762 134.268 65.8491 135.052 65.9362 135.923C65.9362 136.097 66.3716 136.358 66.6329 136.445C69.594 136.794 72.5551 137.142 75.5162 137.49C76.3 137.577 77.0839 137.665 77.8677 137.839C78.5644 137.926 78.9128 138.361 78.7386 139.058C78.5644 140.19 78.3031 141.322 77.9548 142.455C77.6935 143.413 76.9968 143.674 75.9517 143.5C74.8195 143.413 73.6002 143.5 72.468 143.413C71.3358 143.413 70.2907 143.238 69.1585 143.238C67.5038 143.238 65.8491 143.326 64.2814 143.413C62.6267 143.5 60.8849 143.674 59.2301 143.674C58.3592 143.674 58.0979 143.413 58.185 142.542C58.0979 141.758 58.2721 140.974 58.3592 140.277ZM66.1974 127.127C66.1974 127.214 66.1974 127.301 66.1974 127.301C65.6749 127.214 65.0652 127.127 64.5427 127.127C64.0202 127.127 63.7589 126.778 63.7589 126.343C63.7589 125.559 63.846 124.775 64.0202 123.991C64.2814 122.772 64.5427 122.511 65.762 122.337C66.9813 122.249 68.1134 122.249 69.3327 122.337C71.1616 122.511 71.51 122.336 72.0325 120.856C72.3809 119.724 72.2938 119.462 71.0745 119.288C69.7682 119.114 68.4618 119.027 67.1554 118.94C64.9782 118.853 62.8009 118.766 60.5365 118.679C60.1881 118.679 59.8398 118.766 59.9269 119.288C60.101 121.117 60.2752 122.946 60.2752 124.775C60.3623 126.865 60.3623 128.868 60.3623 130.959C60.2752 134.094 59.9269 137.316 59.7527 140.451C59.6656 142.106 59.8398 142.106 61.4945 142.106C64.2814 142.019 67.1554 141.845 69.9424 141.845C71.7713 141.758 73.5131 141.845 75.342 141.845C76.2129 141.845 77.1709 140.626 76.9968 139.755C76.9968 139.581 76.8226 139.406 76.7355 139.406C76.2129 139.232 75.6904 139.058 75.1678 138.971C73.6873 138.71 72.2067 138.535 70.7262 138.361C69.0714 138.187 67.4167 137.665 65.6749 137.926C65.1523 138.013 64.804 137.752 64.7169 137.229C64.2814 135.661 64.4556 134.094 64.6298 132.526C64.7169 131.22 64.9782 131.046 66.2845 131.22C67.678 131.307 69.0714 131.481 70.4649 131.568C70.9004 131.568 71.1616 131.481 71.1616 131.046C71.2487 130.349 71.3358 129.652 71.51 128.955C71.6842 128.346 71.4229 127.997 70.8133 127.91C69.0714 127.475 67.5909 127.301 66.1974 127.127Z" fill="#251C1C"/>
<path d="M48.3436 96.2094C48.779 96.9062 49.1274 97.5158 49.5628 98.1255C49.9112 98.648 50.3467 99.0835 50.695 99.606C51.7401 101.174 52.6981 102.741 53.7432 104.309C54.0045 104.744 54.2658 105.267 54.527 105.702C54.7883 106.225 54.3528 106.922 53.7432 107.183C52.3498 107.88 50.9563 108.576 49.5628 109.273C48.5177 109.796 48.3435 109.796 47.821 108.751C46.9501 107.009 46.1663 105.18 45.2083 103.438C44.4244 102.045 43.4664 100.738 42.5084 99.4318C42.4213 99.2576 42.1601 99.1705 41.8988 98.9093C41.8117 99.2576 41.7246 99.4318 41.6375 99.6931C41.3762 101.522 41.2021 103.264 40.9408 105.093C40.6795 106.835 40.5053 108.576 40.0699 110.318C39.8086 111.363 39.2861 111.625 38.1539 111.625C37.4571 111.625 36.7604 111.886 35.9766 111.538C35.1057 111.102 34.7573 110.667 34.8444 109.709C35.1928 107.096 35.5411 104.57 35.8024 101.957C36.0637 99.606 36.1508 97.1674 36.3249 94.816C36.412 92.5516 36.4991 90.2872 36.5862 88.0229C36.6733 86.8907 36.8475 85.7585 36.9346 84.6263C37.0217 83.2328 38.1539 82.7974 39.199 82.5361C41.9859 81.8394 44.7728 81.9265 47.4726 82.9716C48.6048 83.407 49.737 83.8425 50.8692 84.365C52.3498 85.1488 53.3948 86.3681 54.1787 87.8487C54.4399 88.2841 54.6141 88.7196 54.7883 89.2421C55.485 91.4194 53.9174 93.3354 52.3498 94.2063C51.3047 94.816 50.1725 95.2514 49.0403 95.774C48.9532 95.8611 48.6919 96.0353 48.3436 96.2094ZM40.4182 98.2996C40.4182 98.1254 40.4182 97.8642 40.4182 97.69C40.4182 97.4287 40.5053 97.2545 40.5053 96.9933C40.6795 96.2965 41.115 95.9482 41.8117 96.2965C42.1601 96.4707 42.5084 96.8191 42.7697 97.1674C43.3793 97.9513 43.989 98.648 44.5115 99.4318C45.3824 100.825 46.5146 102.045 47.0372 103.612C47.4726 104.744 47.9952 105.702 48.5177 106.835C48.779 107.357 49.2145 107.618 49.8241 107.357C50.6079 106.922 51.3047 106.573 52.0885 106.138C52.2627 105.964 52.4368 105.528 52.3498 105.354C52.0014 104.657 51.653 103.873 51.2176 103.264C50.7821 102.48 50.1725 101.783 49.737 100.999C48.779 99.2576 47.4726 97.8642 46.0792 96.4707C45.8179 96.2094 45.5566 95.5998 45.6437 95.3385C45.7308 95.0773 46.3404 94.816 46.7759 94.7289C48.6919 94.3805 50.4337 93.858 52.0014 92.7258C53.0465 91.942 53.569 90.984 53.2207 89.6776C52.8723 88.4583 52.1756 87.3261 51.2176 86.5423C50.5208 85.9327 49.5628 85.5843 48.6919 85.1488C47.1243 84.365 45.3824 83.5812 43.5535 83.5812C42.3343 83.5812 41.2021 83.7554 39.9828 83.9296C39.1119 84.1037 38.8506 84.5392 38.8506 85.4972C38.8506 85.6714 38.8506 85.8456 38.7635 85.9327C37.9797 86.8907 38.1539 88.1099 38.0668 89.2421C37.9797 90.7227 38.1539 92.2032 38.1539 93.5967C38.1539 94.7289 37.8926 95.9482 37.8055 97.0804C37.5442 99.9544 37.37 102.828 37.1088 105.615C37.0217 106.747 36.8475 107.88 36.7604 108.925C36.6733 109.534 37.1088 109.796 37.6313 109.883C38.1539 109.97 38.5893 109.796 38.6764 109.186C38.9377 107.793 39.199 106.312 39.4602 104.919C39.5473 104.222 39.5473 103.438 39.6344 102.741C39.8086 101.348 40.157 99.7802 40.4182 98.2996Z" fill="#251C1C"/>
<path d="M52.4361 61.3728C51.2169 61.1116 50.346 60.8503 49.475 60.6761C49.1267 60.589 48.6912 60.5019 48.3429 60.4148C47.8203 60.3277 47.6461 60.5019 47.559 61.0245C46.9494 63.7243 46.2527 66.4241 45.7301 69.124C45.2947 71.04 45.0334 72.956 44.3367 74.7849C43.8141 76.0042 42.9432 76.5267 41.811 75.9171C40.6788 75.3945 39.5466 74.9591 38.2403 75.3074C37.4564 75.4816 37.1081 75.1333 37.1081 74.3494C36.9339 69.9078 38.0661 65.6403 39.4595 61.4599C40.5046 58.4117 41.2885 55.2764 42.2465 52.1412C42.5077 51.1832 42.9432 50.3122 43.2045 49.3542C43.3786 48.8317 43.2916 48.2221 43.2916 47.6124C43.2916 47.177 43.1174 46.6544 43.2045 46.219C43.727 44.5642 43.9012 42.7353 45.0334 41.2547C45.2947 40.8193 45.5559 40.7322 46.0785 40.8193C47.1236 40.9064 48.2558 40.9935 49.3879 40.9935C51.6523 40.9935 53.9167 41.2547 55.9198 42.474C57.8358 43.6062 59.7518 44.6513 61.6678 45.8706C63.0613 46.7415 63.9322 48.0479 64.2806 49.7026C64.3676 50.3122 64.716 50.8348 64.8031 51.4444C64.9773 52.6637 64.3677 53.6217 63.758 54.5797C62.8871 55.8861 62.0162 57.1054 61.0582 58.3246C59.7518 59.9794 57.9229 60.8503 55.8327 61.1116C54.5263 61.3728 53.3071 61.3728 52.4361 61.3728ZM51.391 42.5611C49.7363 42.6482 47.9945 42.6482 46.3398 42.7353C45.8172 42.7353 45.5559 43.1708 45.5559 43.6062C45.4688 44.5642 45.3817 45.5222 45.2076 46.3931C44.7721 48.3091 44.2496 50.3122 43.727 52.2283C43.2916 53.6217 42.769 55.0152 42.3336 56.4086C41.5497 58.9343 40.9401 61.4599 40.0692 63.8985C39.1112 66.6854 38.6757 69.5594 38.8499 72.4334C38.8499 72.6947 39.1112 73.1302 39.3724 73.2173C40.0692 73.4785 40.7659 73.6527 41.4626 73.8269C42.5948 74.1753 42.8561 74.0882 43.1174 72.956C43.6399 70.8658 44.1625 68.7756 44.685 66.5983C44.8592 65.9016 45.1205 65.2049 45.2947 64.5081C45.643 62.7663 45.9914 60.9374 46.2527 59.1956C46.3398 58.2376 46.9494 57.8021 47.8203 58.2376C47.9945 58.3246 48.1687 58.4988 48.4299 58.4988C49.8234 58.8472 51.304 59.1956 52.6974 59.631C54.2651 60.1536 55.8327 59.7181 57.3133 59.2826C58.01 59.0214 58.7067 58.673 59.2293 58.1505C60.7969 56.6699 62.0162 54.9281 62.9742 53.0121C63.1484 52.7508 63.3226 52.3153 63.2355 52.0541C62.9742 51.009 62.7129 49.9639 62.3646 48.9188C61.842 47.5253 60.6227 46.9157 59.4905 46.219C58.4454 45.5222 57.1391 45.0868 56.094 44.39C54.4392 43.5191 53.0458 42.8224 51.391 42.5611Z" fill="#251C1C"/>
<path d="M38.9379 140.451C37.5445 140.277 36.151 140.103 34.7576 139.929C34.235 139.842 33.7995 139.406 33.8866 138.884C34.1479 136.445 34.3221 134.007 34.5834 131.481C34.7576 130 35.1059 128.607 35.2801 127.126C35.3672 126.691 35.2801 126.168 35.2801 125.646C35.2801 125.472 35.193 125.385 35.2801 125.21C35.5414 124.078 35.8897 122.946 36.0639 121.814C36.2381 120.769 36.3252 119.636 36.4994 118.591C36.5865 118.156 36.5865 117.633 36.8477 117.285C37.0219 117.024 37.3703 116.675 37.7187 116.588C38.5896 116.414 39.4605 116.24 40.1572 116.937C40.3314 117.111 40.7669 117.111 41.0281 117.198C43.0312 117.72 43.4667 118.591 42.6829 120.594C41.4636 123.73 40.5056 126.952 40.1572 130.349C40.0701 130.871 40.2443 131.394 40.3314 131.829C40.4185 132.091 40.6798 132.352 40.941 132.352C42.6829 132.526 44.4247 132.613 46.0794 132.7C47.4729 132.7 48.7793 132.613 50.1727 132.7C51.1307 132.7 51.392 133.136 51.1307 134.094C50.5211 135.923 50.6082 137.839 50.6082 139.755C50.6082 140.538 50.5211 141.235 49.7373 141.583C49.476 141.671 49.1276 141.845 48.9534 141.758C47.2116 140.974 45.2956 141.235 43.4667 141.061C42.6829 140.974 41.899 140.713 41.1152 140.538C40.4185 140.625 39.7218 140.538 38.9379 140.451ZM38.2412 128.259C39.025 128.171 39.1992 127.649 39.3734 127.039C39.8959 124.949 40.5056 122.859 41.1152 120.769C41.5507 119.288 41.2023 118.766 39.6347 118.504C39.4605 118.504 39.2863 118.504 39.1121 118.417C38.6767 118.243 38.5025 118.33 38.4154 118.853C38.2412 119.724 37.9799 120.682 37.8057 121.552C37.6316 122.685 37.5445 123.904 37.3703 125.036C37.0219 127.301 36.5865 129.565 36.2381 131.916C36.0639 133.223 36.0639 134.529 35.9768 135.748C35.8897 136.358 35.8897 136.968 35.8027 137.664C35.7156 138.187 36.0639 138.448 36.4994 138.535C39.1992 138.971 41.9861 139.406 44.686 139.842C45.9052 140.016 47.1245 140.103 48.3438 140.19C48.518 140.19 48.7793 140.19 49.1276 140.19C49.3018 138.622 49.476 137.142 49.6502 135.748C49.8244 134.442 49.7373 134.355 48.4309 134.355C48.3438 134.355 48.1696 134.355 48.0825 134.355C47.0374 134.355 45.9923 134.529 44.9472 134.442C43.3796 134.355 41.899 134.094 40.3314 133.919C40.0701 133.919 39.8089 133.919 39.6347 133.919C39.025 134.007 38.7638 133.832 38.7638 133.223C38.8508 131.916 38.8508 130.697 38.9379 129.391C38.9379 128.868 38.9379 128.433 38.2412 128.259Z" fill="#251C1C"/>
<path d="M83.8764 100.738C83.3539 103.786 82.2217 106.486 80.3928 108.925C79.0864 110.667 77.78 112.321 75.864 113.366C72.6416 115.108 69.3322 115.892 65.8485 113.628C64.6292 112.844 63.8454 111.799 63.0616 110.667C61.581 108.751 60.8843 106.486 60.5359 104.135C60.2747 102.654 60.3618 101.174 60.4488 99.6931C60.5359 98.1254 60.623 96.6449 60.8843 95.0772C61.4069 92.2032 63.2358 90.3743 65.6743 89.0679C68.0258 87.8486 70.5514 87.7615 73.0771 88.0228C74.2093 88.1099 75.3415 88.6325 76.3866 89.2421C77.6929 90.0259 79.0864 90.8097 80.1315 91.8548C82.2217 93.945 83.6151 96.4707 83.8764 99.4318C83.9635 99.8672 83.8764 100.303 83.8764 100.738ZM69.9418 113.366C69.9418 113.453 69.9418 113.453 69.9418 113.541C70.8998 113.366 71.8578 113.279 72.8158 113.018C73.6867 112.757 74.5576 112.495 75.3415 111.973C78.9122 109.534 81.0024 106.138 81.9604 102.045C82.1346 101.348 82.3959 100.564 82.3088 99.8672C82.3088 98.1254 81.612 96.5578 80.7411 95.0772C79.9573 93.6838 78.738 92.6387 77.4317 91.7678C75.6898 90.6356 73.8609 89.5905 71.5965 89.5905C71.2482 89.5905 70.9869 89.7647 70.6385 89.8517C70.2902 89.9388 69.9418 90.0259 69.5934 90.0259C68.7225 90.0259 67.6774 89.6776 66.8936 90.0259C64.2809 91.1581 62.4519 93.1612 62.2778 96.2094C62.1036 97.9512 61.9294 99.7801 62.0165 101.522C62.0165 102.915 62.2778 104.396 62.6261 105.702C63.0616 107.444 63.9325 109.012 65.0647 110.492C66.3711 112.321 67.8516 113.192 69.9418 113.366Z" fill="#251C1C"/>
<path d="M23.6965 99.5187C23.6094 98.822 23.4352 98.1253 23.3481 97.5156C23.261 97.2544 23.3481 96.906 23.3481 96.6447C23.261 96.2964 23.261 95.8609 22.9998 95.5996C22.303 94.6416 22.303 93.9449 23.261 93.3353C23.8707 92.9869 24.5674 92.7256 25.2641 92.5514C26.135 92.3773 26.9189 92.2902 27.7898 92.2902C28.8349 92.3773 29.0961 92.7256 29.1832 93.7707C29.2703 94.9029 29.2703 95.948 29.1832 97.0802C29.0961 98.3866 28.5736 98.9091 27.2672 99.0833C26.3092 99.1704 25.3512 99.2575 24.3932 99.3446C24.1319 99.3446 23.8707 99.5187 23.6965 99.5187ZM24.9158 95.5996C24.9158 95.7738 25.0029 96.1222 25.0029 96.4705C25.0899 97.7769 25.0899 97.7769 26.3963 97.4285H26.4834C27.2672 97.3415 27.6156 96.906 27.5285 96.1222C27.4414 95.5996 27.4414 95.0771 27.3543 94.5545C27.3543 94.3804 27.093 94.1191 26.9189 94.032C25.6996 93.5965 25.177 93.9449 24.9158 95.5996Z" fill="#251C1C"/>
<path d="M99.204 62.3308C98.8556 63.2888 98.5943 64.2468 98.1589 65.2049C97.8105 65.9887 97.2009 66.5983 96.1558 66.5983C94.7623 66.5983 93.2818 66.7725 91.8883 66.7725C91.1045 66.7725 90.7561 66.337 90.8432 65.5532C90.9303 64.3339 90.9303 63.2018 91.0174 61.9825C91.0174 61.4599 91.3658 61.1116 91.9754 61.0245C92.1496 61.0245 92.3238 60.9374 92.4979 60.8503C94.3269 59.7181 96.2429 60.0665 98.1589 60.589C99.204 60.7632 99.3782 61.1986 99.204 62.3308ZM92.0625 63.1147C92.0625 63.6372 92.1496 64.0727 92.1496 64.5952C92.1496 65.2919 92.585 65.5532 93.1947 65.5532C94.2398 65.4661 95.2849 65.2919 96.33 65.1178C96.5041 65.1178 96.7654 64.8565 96.8525 64.6823C97.2009 63.9856 97.4621 63.2888 97.7234 62.5921C97.8976 62.1567 97.7234 61.8083 97.288 61.7212C95.8945 61.3728 94.501 61.0245 93.2818 62.0696C93.1947 62.1567 93.1076 62.2437 93.0205 62.2437C92.1496 62.0696 92.1496 62.5921 92.0625 63.1147Z" fill="#251C1C"/>
<path d="M31.7088 63.8113C31.0991 63.6371 30.3153 63.3758 29.4444 63.0275C28.8348 62.7662 28.6606 62.1566 28.8348 61.634C29.2702 60.0664 29.8799 58.5858 30.4024 57.0182C30.4895 56.7569 30.7508 56.5827 31.0121 56.4956C31.5346 56.1473 31.883 56.2344 31.9701 56.844C32.0571 57.3665 32.4055 57.5407 32.841 57.6278C33.5377 57.7149 34.2344 57.8891 34.9312 58.0633C35.5408 58.2375 35.6279 58.6729 35.4537 59.1955C35.1053 60.2405 34.757 61.1986 34.4957 62.2436C34.0602 63.55 33.1893 64.0726 31.7088 63.8113ZM31.883 62.2436C32.4055 62.4178 32.7539 62.2437 32.9281 61.5469C33.1022 61.0244 33.2764 60.5018 33.4506 60.0664C33.6248 59.5438 33.5377 59.2825 33.0152 59.1955C32.841 59.1955 32.6668 59.1084 32.4926 59.1084C31.0121 58.6729 31.0121 58.6729 30.4895 60.0664C30.054 61.634 30.3153 61.9824 31.883 62.2436Z" fill="#251C1C"/>
<path d="M27.5278 129.914C25.5247 129.479 24.5667 129.043 25.1764 126.866C25.3505 126.169 25.3505 125.385 25.9602 124.863C26.3085 124.514 26.6569 124.166 27.0924 124.079C27.9633 123.905 28.8342 123.556 29.618 124.079C30.4889 124.689 31.0115 126.082 30.8373 127.127C30.576 128.608 29.8793 129.479 28.3987 129.827C28.1375 129.914 27.7891 129.914 27.5278 129.914ZM27.7891 128.259C28.5729 128.346 29.1826 128.085 29.1826 127.563C29.0955 126.866 28.7471 126.256 28.4858 125.56C28.4858 125.56 28.2246 125.56 28.1375 125.647C27.5278 125.995 27.0924 126.256 27.1795 127.214C27.0924 128.085 27.3536 128.172 27.7891 128.259Z" fill="#251C1C"/>
<path d="M84.0514 124.949C84.574 125.124 85.0094 125.211 85.4449 125.385C85.7062 125.559 86.0545 125.82 86.1416 126.082C86.49 127.736 86.7513 129.391 85.7062 130.872C85.0094 131.83 84.0514 132.004 82.9192 132.004C82.3967 132.004 81.9612 132.004 81.4387 132.091C80.6549 132.178 80.0452 131.655 80.1323 130.872C80.3065 129.652 80.6549 128.433 81.0032 127.214C81.0903 126.952 81.5258 126.865 81.7871 126.691C81.9612 126.953 82.2225 127.301 82.1354 127.562C82.0483 128.259 81.8741 128.956 81.7871 129.652C81.7871 129.827 81.8741 130.175 82.0483 130.349C82.9192 130.959 84.4869 130.523 84.7482 129.478C84.9223 128.694 85.0094 127.823 84.9223 127.04C84.9223 126.43 84.3998 126.169 83.7902 126.169C83.4418 126.169 83.0934 126.256 82.7451 126.256C82.4838 126.169 82.2225 125.994 81.9612 125.82C82.1354 125.559 82.3096 125.124 82.4838 125.036C83.0063 124.949 83.616 124.949 84.0514 124.949Z" fill="#251C1C"/>
<path d="M86.0535 103.177C85.8793 103.003 85.6181 102.741 85.4439 102.393C84.9213 101.087 84.9213 99.6933 85.1826 98.2998C85.3568 97.3418 85.7922 97.2547 86.6632 97.6902C86.8373 97.7773 87.1857 97.7773 87.447 97.6902C88.9275 97.2547 90.1468 98.0386 91.279 98.7353C91.4532 98.8224 91.5403 99.3449 91.4532 99.6062C90.4081 101.609 88.5792 102.654 86.489 103.177C86.4019 103.264 86.3148 103.177 86.0535 103.177ZM86.489 99.9546C86.489 100.303 86.489 100.738 86.5761 101C86.6632 101.174 87.0115 101.435 87.0986 101.348C87.7953 101 88.4921 100.738 89.0146 100.303C89.4501 99.9546 89.363 99.6062 88.8404 99.432C88.3179 99.3449 87.7083 99.3449 87.0986 99.3449C86.6632 99.2578 86.489 99.432 86.489 99.9546Z" fill="#251C1C"/>
<path d="M77.2582 58.3249C76.7357 59.8926 76.3873 61.5473 75.2552 62.8537C74.8197 63.3762 74.3842 63.7246 73.6004 63.1149C72.9908 62.6795 72.294 62.4182 71.5973 62.0698C71.0748 61.8086 70.8135 61.286 71.1619 60.7635C71.9457 59.1958 72.8166 57.6282 73.6875 56.1476C74.0359 55.538 74.4713 55.538 75.081 55.9734C75.6035 56.3218 76.1261 56.496 76.6486 56.8444C77.1712 57.1927 77.4324 57.6282 77.2582 58.3249ZM75.7777 58.5862C75.7777 57.9765 75.6035 57.7153 74.9939 57.8895C74.7326 57.9765 74.3842 58.0636 74.2101 58.2378C73.6875 59.0216 73.252 59.8055 72.9037 60.6764C72.8166 60.8506 73.4262 61.286 73.6875 61.5473C73.8617 61.6344 74.2971 61.5473 74.3842 61.3731C74.9068 60.4151 75.3422 59.5442 75.7777 58.5862Z" fill="#251C1C"/>
<path d="M41.6371 89.7649C41.8984 88.5456 42.5081 87.5876 43.2919 86.8909C43.4661 86.7167 43.8144 86.7167 44.0757 86.6296C45.5563 86.5425 47.3852 88.4585 47.2981 89.852C47.2981 90.1132 47.211 90.4616 47.0368 90.6358C46.0788 91.2454 45.2079 92.0292 44.1628 92.4647C43.2919 92.8131 42.3339 92.2034 41.9855 91.2454C41.8113 90.7229 41.7242 90.2003 41.6371 89.7649ZM44.4241 88.3714C44.0757 88.7198 43.8144 88.981 43.6402 89.3294C43.4661 89.6778 43.379 90.1132 43.5532 90.4616C43.7273 90.8971 44.1628 90.9841 44.5112 90.7229C44.7724 90.5487 45.1208 90.4616 45.3821 90.2874C45.5563 90.1132 45.7304 89.852 45.7304 89.6778C45.6433 89.2423 44.7724 88.4585 44.4241 88.3714Z" fill="#251C1C"/>
<path d="M51.478 52.3155C51.478 52.1413 51.478 51.9671 51.478 51.7929C51.5651 50.5736 52.1747 49.7898 53.3069 49.5285C54.1778 49.2673 55.1358 49.7027 55.7455 50.6607C56.0939 51.2704 56.4422 51.9671 56.5293 52.6638C56.7035 53.8831 55.9197 54.754 54.9617 55.2766C54.0037 55.7991 52.9586 55.5378 52.0006 55.0153C51.6522 54.8411 51.478 54.2315 51.3038 53.7089C51.2167 53.2735 51.3909 52.838 51.478 52.3155C51.3909 52.3155 51.3909 52.3155 51.478 52.3155ZM52.8715 52.6638C52.8715 52.7509 52.8715 52.838 52.8715 52.9251C52.7844 53.7089 53.1327 54.1444 53.9166 54.1444C54.4391 54.1444 54.8746 53.7089 54.9617 53.0993C54.9617 52.838 55.0488 52.4896 54.8746 52.3155C54.6133 51.88 54.1778 51.4445 53.8295 51.0091C53.5682 51.4445 53.3069 51.88 53.0457 52.3155C52.8715 52.4025 52.8715 52.4896 52.8715 52.6638Z" fill="#251C1C"/>
<path d="M67.2423 105.441C67.6778 103.612 68.4616 102.045 70.0292 101C71.1614 100.216 71.7711 100.216 72.7291 101.174C73.5129 101.958 74.3838 102.742 74.8193 103.787C75.6031 105.354 74.9934 106.922 73.8612 108.141C72.9032 109.099 71.7711 109.622 70.4647 109.883C69.4196 110.057 68.1132 109.361 67.6778 108.141C67.5036 107.27 67.4165 106.312 67.2423 105.441ZM73.8612 105.354C73.7742 104.919 73.7742 104.483 73.5129 104.222C73.0774 103.612 72.4678 103.177 71.9452 102.654C71.2485 102.045 70.8131 102.045 70.1163 102.829C68.9841 104.048 68.81 105.528 68.897 107.009C68.897 108.054 69.6809 108.577 70.726 108.49C72.1194 108.228 73.6 106.748 73.8612 105.354Z" fill="#251C1C"/>
<path d="M74.3828 96.9931C74.6441 96.2092 74.7312 95.3383 75.515 94.8158C76.5601 94.032 77.5181 93.9449 78.389 94.7287C79.2599 95.5125 79.4341 96.2963 78.6503 97.4285C78.1277 98.2123 77.3439 98.9091 76.5601 99.3445C75.515 99.9542 74.4699 99.2574 74.4699 98.0382C74.2957 97.6898 74.3828 97.3414 74.3828 96.9931ZM75.8633 97.864C76.3859 97.6898 77.431 96.8189 77.431 96.3834C77.431 96.2092 77.0826 95.7738 76.9955 95.7738C76.1246 95.8609 75.6021 96.906 75.8633 97.864Z" fill="#251C1C"/>
<path d="M66.5456 95.7743C67.5907 95.9485 68.81 97.6033 68.6358 98.7354C68.4616 99.8676 66.8069 101.087 65.5876 100.913C64.1941 100.651 63.7587 99.1709 63.7587 97.5162C63.7587 96.6452 65.5005 95.6001 66.5456 95.7743ZM67.1552 98.6483C67.0681 97.9516 66.6327 97.2549 66.1972 97.2549C65.6747 97.2549 65.2392 97.4291 65.4134 97.9516C65.5005 98.4742 65.8489 98.9096 66.1101 99.3451C66.4585 99.0838 66.8069 98.9096 67.1552 98.6483Z" fill="#251C1C"/>
<path d="M70.4653 93.2479C71.6845 93.422 72.7296 94.38 72.9038 95.251C72.9909 96.2961 72.3813 97.3412 71.2491 97.6895C70.9007 97.7766 70.2911 97.7766 70.0298 97.5153C69.0718 96.8186 68.5493 95.8606 68.6363 94.6413C68.8105 93.6833 69.4202 93.1608 70.4653 93.2479ZM70.6395 96.2961C70.7265 96.2961 70.8136 96.2961 70.9007 96.2961C71.0749 96.1219 71.3362 95.7735 71.2491 95.6864C71.162 95.3381 70.8136 95.0768 70.6395 94.8155C70.6395 94.8155 70.1169 95.0768 70.1169 95.251C70.2911 95.5993 70.4653 95.9477 70.6395 96.2961Z" fill="#251C1C"/>
<path d="M110.875 89.5905C111.224 89.7647 111.398 89.9389 111.659 90.026C113.662 90.984 115.404 92.2033 116.797 93.9451C117.146 94.4676 117.494 95.1644 117.494 95.774C117.581 97.1675 117.581 98.648 117.32 99.9544C117.059 101.174 116.275 102.306 115.578 103.351C114.272 105.354 112.356 106.748 110.44 108.141C109.656 108.751 108.872 109.447 108.001 110.144C108.524 110.492 109.046 110.754 109.569 111.102C112.094 112.757 112.443 114.847 111.485 117.198C111.136 118.069 110.527 118.766 109.917 119.55C109.046 120.682 108.262 121.814 107.392 122.946C106.956 123.469 106.259 123.904 105.737 124.427C105.04 125.037 104.256 125.646 103.559 126.256C104.082 127.127 104.692 127.911 105.04 128.869C105.824 130.785 106.434 132.788 105.824 134.965C105.65 135.749 105.65 136.533 105.388 137.317C105.214 137.926 104.779 138.449 104.43 138.971C103.385 140.365 102.427 141.758 101.208 143.065C100.25 144.023 99.2049 144.458 98.0727 144.981C97.2018 145.416 97.1147 145.764 97.1147 146.722C97.2018 147.942 97.2889 149.161 96.3309 150.206C95.9826 150.554 95.8084 151.077 95.5471 151.425C94.6762 152.819 93.3698 153.864 92.0634 154.735C90.8442 155.519 89.6249 156.128 88.4056 156.825C88.2314 156.912 88.1443 157.26 88.2314 157.435C89.2765 159.002 88.4927 160.222 87.4476 161.528C86.4896 162.747 85.0961 163.444 83.7027 164.141C82.9189 164.489 82.0479 164.576 81.177 164.837C79.6965 165.186 79.6094 165.447 79.7836 166.928C79.9577 168.147 80.0448 169.279 79.9577 170.498C79.8707 171.369 79.4352 172.414 78.9997 173.111C76.9095 176.246 73.6001 177.901 69.681 176.072C68.4617 175.463 67.2424 174.853 66.0231 174.243C65.849 174.156 65.5006 174.243 65.3264 174.33C64.7168 174.94 64.02 175.55 63.4975 176.246C62.0169 178.424 59.8396 179.207 57.314 179.295C55.6593 179.382 54.0045 179.295 52.4369 179.033C50.5209 178.685 48.8661 177.814 47.4727 176.333C46.6018 175.463 46.0792 174.505 45.3825 173.634C45.0341 173.198 44.7729 173.198 44.4245 173.547C43.4665 174.592 42.4214 175.55 41.3763 176.508C39.8957 177.901 38.1539 177.553 36.4992 177.03C34.8444 176.508 33.9735 175.114 33.1897 173.808C32.493 172.676 31.8833 171.369 31.3608 170.15C31.0995 169.54 31.0124 168.844 30.7512 168.234C30.4899 167.537 30.0544 167.363 29.4448 167.711C28.9222 167.973 28.4868 168.234 27.9642 168.495C26.3966 169.453 24.916 169.105 23.4355 168.321C22.042 167.624 21.2582 166.405 20.3873 165.099C18.4713 162.486 18.1229 159.525 18.1229 156.39C18.1229 156.128 18.1229 155.78 18.1229 155.519C18.0358 154.909 17.6875 154.735 17.0778 154.822C16.1198 154.996 15.1618 155.257 14.2038 155.344C13.8554 155.432 13.5942 155.257 13.2458 155.17C11.2427 154.735 9.84924 153.428 8.89123 151.774C7.75904 150.032 7.2365 148.029 7.67195 146.026C7.84614 145.242 8.36868 144.632 8.80414 143.935C9.32669 143.065 9.84924 142.281 10.2847 141.41C10.546 140.887 10.3718 140.452 9.76215 140.278C9.32669 140.103 8.89123 139.929 8.45578 139.929C7.75904 139.842 7.14941 139.494 6.53977 139.145C4.79794 138.187 4.10121 136.533 3.57866 134.791C3.31739 133.746 2.88193 132.701 2.88193 131.743C2.88193 130.698 3.2303 129.565 3.66575 128.52C4.10121 127.475 4.79794 126.517 5.40758 125.559C5.84304 124.95 5.84304 124.514 5.14631 124.079C4.79794 123.904 4.36248 123.556 4.01412 123.469C2.70775 123.208 1.92393 122.337 1.2272 121.379C0.965922 120.769 0.965922 120.072 0.704648 119.637C0.0950087 118.418 0.269191 117.111 0.1821 115.892C0.0950087 114.499 0.704648 113.366 1.1401 112.147C1.57556 110.928 2.53357 109.796 3.2303 108.664C3.49157 108.141 3.83994 107.706 3.92703 107.183C4.01412 107.009 3.75284 106.573 3.49157 106.399C2.96902 106.051 2.44647 105.877 1.92393 105.528C0.356283 104.396 -0.253357 102.828 0.0950087 100.999C0.269191 100.041 0.269191 99.0835 0.443374 98.1255C0.530465 97.69 0.791739 97.2545 0.965922 96.8191C1.66265 95.3385 2.53357 93.858 3.75284 92.7258C4.1883 92.2903 4.62376 91.942 5.14631 91.5936C5.49467 91.3323 5.49467 91.0711 5.14631 90.8098C4.71085 90.4614 4.1883 90.2001 3.75284 89.7647C2.35938 88.3712 1.83683 86.6294 2.09811 84.7134C2.1852 84.0167 2.09811 83.3199 2.09811 82.5361C2.1852 80.6201 2.88193 78.9654 3.92703 77.3977C4.53667 76.2655 5.49467 75.6559 6.36558 74.785C6.45267 74.6979 6.53977 74.6108 6.62686 74.5237C7.32359 73.827 7.41068 73.5657 6.62686 73.0432C5.40758 72.2593 4.79794 71.0401 4.10121 69.9079C3.49157 68.8628 3.75284 67.8177 3.40448 66.7726C3.31739 66.3371 3.66575 65.7275 3.75284 65.2049C4.01412 63.9857 4.44957 62.8535 5.40758 61.9826C5.93013 61.5471 6.27849 60.8504 6.71395 60.3278C8.02032 58.6731 9.50087 57.2796 11.504 56.4087C12.0265 56.1474 12.6362 55.8862 13.1587 55.5378C13.3329 55.4507 13.5071 55.0153 13.42 54.754C13.0716 53.4476 12.5491 52.2283 12.462 50.922C12.2878 49.1801 12.2007 47.4383 13.0716 45.8707C13.2458 45.6094 13.2458 45.261 13.3329 44.9998C13.5942 44.4772 13.8554 43.9547 14.2038 43.4321C14.4651 42.9967 14.7263 42.4741 15.0747 42.0387C15.7714 41.2548 16.5553 40.5581 17.3391 39.8614C18.5584 38.9034 19.7776 37.8583 21.084 37.0745C22.5646 36.2906 24.1322 35.681 25.6999 35.0714C26.1353 34.8972 26.5708 35.0714 27.0062 34.9843C27.3546 34.9843 27.6159 34.8101 27.9642 34.723C27.6159 34.0263 27.2675 33.4166 26.9191 32.8941C26.3095 31.849 25.9611 30.8039 26.2224 29.5846C26.4837 28.017 26.9191 26.6235 28.0513 25.4042C29.4448 24.0107 30.6641 22.4431 31.9704 21.0496C32.4059 20.6142 33.0155 20.3529 33.6252 20.1787C35.6283 19.6562 37.5443 19.7433 39.4603 20.3529C40.0699 20.5271 40.4183 20.5271 40.8537 19.9175C41.9859 18.2627 43.2052 16.6951 44.4245 15.1274C46.6889 12.2534 48.9532 9.29232 51.2176 6.4183C52.4369 4.93775 53.7433 3.71847 55.0496 2.32501C55.398 1.97665 55.6593 1.54119 56.0076 1.10573C56.356 0.583187 56.8786 0.409004 57.4011 0.844461C59.3171 2.4121 61.2331 3.89266 62.9749 5.54739C65.0651 7.55049 67.0682 9.72777 69.0713 11.9921C69.7681 12.776 70.2906 13.6469 70.8132 14.5178C71.1615 15.1274 71.5099 15.5629 72.2066 15.9113C73.513 16.5209 74.8194 17.1305 75.9515 18.0014C76.9095 18.6982 77.5192 19.7433 77.6934 20.9626C77.7805 21.6593 78.0417 22.2689 78.2159 22.9657C79.1739 22.356 79.8707 21.7464 80.7416 21.398C82.4834 20.7013 84.3123 20.5271 86.1412 20.7884C87.4476 20.9626 88.4927 21.398 89.3636 22.2689C90.2345 23.2269 90.67 24.3591 90.67 25.5784C90.67 26.9719 90.4958 28.3653 90.4087 29.7588C90.4087 30.1071 90.4087 30.4555 90.4087 30.9781C90.8442 30.7168 91.2796 30.5426 91.5409 30.3684C92.4989 29.6717 93.544 28.975 94.7633 29.062C96.7664 29.1491 98.5953 29.5846 99.8146 31.3264C101.556 33.765 101.905 36.3777 101.208 39.2517C100.947 40.1226 100.86 40.9936 100.685 42.0387C101.121 41.9516 101.295 41.8645 101.556 41.7774C103.385 40.9065 105.824 41.6032 106.956 43.6063C107.914 45.1739 108.088 46.7416 107.74 48.3963C107.479 49.7027 106.869 51.0091 106.346 52.3154C105.998 53.0993 106.085 53.3605 106.869 53.3605C108.698 53.4476 110.266 54.2314 111.398 55.712C111.746 56.1474 111.92 56.67 112.094 57.1925C112.443 58.2376 112.878 59.1956 113.052 60.3278C113.14 61.3729 113.052 62.5922 112.791 63.6373C112.443 65.3791 112.094 67.0339 111.049 68.5144C110.788 68.8628 110.701 69.4724 110.701 69.9079C110.701 70.1692 110.962 70.6046 111.311 70.7788C112.182 71.3884 113.052 71.911 113.923 72.5206C115.665 73.7399 115.752 75.4817 115.752 77.3977C115.752 79.7492 114.707 81.8394 114.01 84.0167C113.836 84.6263 113.401 85.0618 113.14 85.6714C112.617 86.7165 112.094 87.7616 111.485 88.8067C111.485 88.9809 111.136 89.2421 110.875 89.5905ZM46.776 20.3529C45.8179 20.5271 44.5987 21.3109 44.7729 21.6593C45.2954 22.7915 44.5116 23.4882 44.0761 24.272V24.3591C43.989 24.5333 43.8148 24.7075 43.7278 24.8817C43.5536 24.7075 43.3794 24.6204 43.2052 24.4462C42.6827 23.9237 42.2472 23.314 41.6376 22.9657C40.9408 22.6173 40.2441 22.2689 39.5474 22.0077C37.6314 21.3109 35.5412 21.2238 33.5381 21.8335C33.1897 21.9206 32.7543 22.1818 32.5801 22.4431C31.3608 23.8366 30.1415 25.23 28.9222 26.6235C27.3546 28.5395 27.0062 30.9781 28.3126 32.8941C28.9222 33.8521 29.7931 34.6359 30.4899 35.5939C30.6641 35.8552 30.9253 36.2906 30.8382 36.5519C30.6641 36.9874 30.2286 37.1615 29.7061 36.9874C27.5288 36.5519 25.4386 36.7261 23.4355 37.8583C21.6937 38.9034 19.9518 39.9485 18.3842 41.2548C15.1618 43.8676 13.7683 47.177 14.1167 51.2703C14.2909 52.9251 14.7263 54.3185 16.0327 55.4507C16.6424 55.9733 16.4682 56.67 15.6844 56.9313C14.9005 57.1925 14.1167 57.3667 13.3329 57.628C11.8523 58.1506 10.3718 58.8473 9.32669 60.0666C8.10741 61.5471 6.97522 63.1148 6.10431 64.7695C5.58176 65.7275 5.32049 66.9468 5.40758 67.9919C5.49467 70.1691 6.80104 71.6497 8.62996 72.7819C10.2847 73.827 10.2847 74.1753 8.62996 75.2204C6.88813 76.4397 5.2334 77.7461 4.62376 79.9234C4.27539 81.4039 4.10121 82.8845 3.92703 84.365C3.66575 86.8907 4.79794 89.068 7.49777 89.8518C7.75904 89.9389 8.02032 90.026 8.1945 90.1131C8.62996 90.3743 8.80414 90.7227 8.45578 91.0711C8.02032 91.5065 7.58486 91.942 7.06231 92.1162C5.40758 92.9 4.27539 94.0322 3.31739 95.5127C2.35938 97.0804 2.01102 98.8222 1.92393 100.651C1.83683 102.654 2.44647 103.873 4.36248 104.57C4.71085 104.744 5.05921 104.831 5.32049 105.006C5.93013 105.354 6.27849 105.877 6.01722 106.486C5.58176 107.444 5.1463 108.402 4.53667 109.273C3.2303 111.015 2.1852 112.931 1.92393 115.108C1.57556 117.982 2.53357 120.508 5.58176 121.814C6.36558 122.163 7.2365 122.511 8.02032 122.772C8.54287 122.946 8.71705 123.295 8.36868 123.73C8.10741 124.166 7.67195 124.514 7.41068 124.95C6.62686 126.169 5.75594 127.301 5.05921 128.52C4.27539 130.088 4.53667 131.656 4.97212 133.31C5.58176 135.749 7.14941 137.317 9.58796 137.839C10.2847 138.013 10.9814 137.926 11.6782 138.1C12.5491 138.275 12.8103 138.623 12.462 139.407C11.9394 140.539 11.3298 141.584 10.7201 142.629C9.93633 144.023 8.71705 145.329 9.06541 147.071C9.2396 148.203 9.67505 149.248 10.1105 150.293C11.1556 152.645 13.7683 153.777 16.2069 152.993C16.9036 152.732 17.5133 152.558 18.21 152.296C19.168 152.035 19.5164 152.296 19.5164 153.254C19.5164 154.474 19.4293 155.693 19.5164 156.912C19.6035 160.309 20.6486 163.357 23.1742 165.795C24.5677 167.102 26.2224 167.45 27.79 166.318C28.661 165.621 29.3577 164.75 30.2286 164.054C30.4899 163.879 30.8382 163.618 31.0995 163.705C31.2737 163.792 31.4479 164.228 31.535 164.489C31.7962 165.621 31.8833 166.84 32.2317 167.886C32.7543 169.366 33.451 170.847 34.1477 172.24C34.4961 172.937 34.9315 173.634 35.4541 174.243C36.4121 175.375 37.7185 175.985 39.1119 175.463C40.2441 175.027 41.2892 174.243 42.1601 173.459C42.9439 172.676 43.5536 171.631 44.2503 170.76C44.5116 170.498 44.8599 170.063 45.2083 170.15C45.4696 170.15 45.8179 170.673 45.905 171.021C46.3405 173.024 47.6469 174.505 49.1274 175.811C49.3887 176.072 49.65 176.333 49.9983 176.421C51.3918 176.856 52.7853 177.291 54.1787 177.466C55.5722 177.64 57.0527 177.553 58.5333 177.379C60.6235 177.03 62.0169 175.724 63.2362 173.982C63.5846 173.459 63.7588 172.763 64.1071 172.066C64.2813 171.718 64.3684 171.282 64.5426 171.195C64.8039 171.108 65.1522 171.369 65.5006 171.543C66.5457 172.24 67.5908 173.024 68.723 173.721C69.5068 174.243 70.3777 174.766 71.3357 174.853C74.7323 175.375 77.345 173.285 78.3901 170.15C78.9127 168.495 78.4772 166.84 77.9546 165.186C77.7805 164.576 77.6934 164.054 78.3901 163.792C79.6965 163.357 81.0028 162.834 82.3963 162.486C84.4865 162.05 85.7929 160.744 86.925 159.089C87.2734 158.567 87.1863 158.131 86.7509 157.696C86.4025 157.26 86.0541 156.738 85.7058 156.302C85.3574 155.78 85.4445 155.432 86.1412 155.344C87.796 155.083 89.2765 154.561 90.7571 153.69C92.7602 152.558 94.2407 150.99 95.3729 149.074C95.9826 147.942 96.1567 146.722 94.9375 145.852C94.8504 145.764 94.6762 145.677 94.5891 145.503C94.3278 145.155 94.4149 144.893 94.7633 144.719C95.3729 144.371 96.0696 144.11 96.7664 143.848C98.2469 143.239 99.7275 142.629 100.773 141.323C101.469 140.452 102.253 139.581 102.95 138.71C103.211 138.362 103.472 137.839 103.647 137.404C103.908 136.533 104.169 135.575 104.43 134.704C104.866 132.962 104.518 131.394 103.995 129.74C103.559 128.346 102.689 127.301 101.295 126.778C101.121 126.691 101.034 126.604 100.86 126.43C100.598 126.082 100.685 125.82 101.121 125.646C102.601 125.124 103.821 124.253 104.866 123.121C106.869 121.03 109.046 119.114 110.091 116.328C110.701 114.847 110.178 112.931 108.785 112.147C107.914 111.625 106.869 111.363 105.911 110.928C105.65 110.841 105.388 110.492 105.388 110.318C105.388 110.144 105.65 109.883 105.911 109.709C108.524 108.141 110.962 106.399 113.14 104.222C114.968 102.306 115.926 100.041 116.101 97.4287C116.188 96.2965 115.926 95.2514 115.143 94.2934C114.01 92.9 112.53 92.0291 111.049 91.1582C110.44 90.8098 109.743 90.5485 109.046 90.2872C108.437 90.026 108.35 89.6776 108.872 89.2421C109.22 88.9809 109.569 88.6325 109.83 88.2841C110.44 87.4132 110.962 86.4552 111.572 85.4972C112.965 83.3199 114.01 80.9685 114.446 78.4428C114.794 76.701 114.968 74.9592 113.401 73.6528C112.965 73.3044 112.53 73.0432 112.094 72.6948C111.224 72.0852 110.44 71.4755 109.308 71.3884C108.611 71.3884 108.437 70.8659 108.698 70.2562C109.308 69.2111 109.917 68.166 110.44 67.0339C112.094 63.7244 112.443 60.3278 110.788 56.9313C110.614 56.5829 110.44 56.2345 110.178 55.9733C108.785 54.5798 106.695 54.2314 104.866 55.0153C104.692 55.1024 104.256 55.1024 104.169 55.0153C103.995 54.8411 103.995 54.4927 104.082 54.2314C105.04 52.4896 105.824 50.6607 106.434 48.7447C106.956 46.9158 106.782 45.3481 105.737 43.8676C104.953 42.7354 103.647 42.387 102.34 42.7354C101.295 42.9967 100.424 43.5192 99.7275 44.303C99.5533 44.4772 99.1178 44.6514 98.8566 44.5643C98.4211 44.3901 98.5082 43.9547 98.7695 43.5192C98.9437 43.2579 99.1178 42.9967 99.2049 42.7354C99.6404 40.9936 99.9887 39.2517 100.337 37.5099C100.598 35.9423 100.163 34.4617 99.5533 33.0682C98.8566 31.5006 97.6373 30.6297 95.9825 30.3684C95.1987 30.2813 94.4149 30.1942 93.7182 30.4555C92.0634 30.9781 90.9313 32.2844 89.712 33.3295C89.4507 33.5037 89.0152 33.5908 88.6669 33.6779C88.5798 33.3295 88.4056 32.9812 88.4927 32.7199C89.2765 30.4555 89.3636 28.1911 89.5378 25.8397C89.6249 24.4462 89.0152 23.4011 87.8831 22.7044C87.3605 22.356 86.6638 22.1818 86.0541 22.0947C82.4834 21.6593 79.3481 22.356 77.8676 26.3622C77.7805 26.6235 77.345 26.7977 77.0837 27.0589C76.9966 26.7106 76.6483 26.2751 76.7354 26.0139C77.2579 24.5333 77.0837 23.1398 76.7354 21.6593C76.2999 19.8304 74.3839 17.8273 72.4679 17.4789C72.1195 18.6982 71.9453 18.7853 70.7261 18.4369C70.5519 18.3498 70.1164 18.4369 70.0293 18.524C69.2455 19.5691 68.3746 20.5271 68.0262 21.8335C68.0262 22.0077 68.0262 22.356 67.8521 22.5302C67.6779 22.7915 67.3295 22.9657 67.0682 23.1398C66.8941 22.7915 66.7199 22.4431 66.7199 22.1818C66.7199 21.7464 66.9811 21.3109 67.0682 20.7884C67.1553 20.44 67.2424 20.0045 67.1553 19.7433C66.2844 16.7822 63.9329 14.692 60.7106 14.7791C59.4042 14.7791 58.0107 14.8662 56.7044 15.0403C52.9594 15.4758 50.1725 17.3047 48.692 20.8755C48.4307 21.4851 48.2565 22.1818 47.9952 22.8786C47.8211 23.1398 47.4727 23.314 47.2114 23.5753C47.0372 23.314 46.776 23.0527 46.776 22.7044C46.776 22.2689 46.863 21.7464 46.9501 21.2238C46.776 20.9626 46.776 20.7013 46.776 20.3529ZM47.821 18.9595C48.4307 18.2627 48.9532 17.566 49.65 17.0434C50.7822 16.1725 51.9143 15.2145 53.2207 14.692C55.0496 13.9952 57.0527 13.6469 59.1429 13.6469C60.5364 13.5598 61.9298 13.4727 63.1491 14.0823C64.02 14.5178 65.0651 14.8662 65.7619 15.5629C66.7199 16.5209 67.4166 17.8273 68.2004 18.9595C68.723 18.3498 69.4197 17.7402 69.8551 17.0434C70.0293 16.7822 70.0293 16.2596 69.9422 15.9983C69.4197 15.0403 68.8101 13.9952 68.1133 13.2114C66.7199 11.6438 65.1522 10.0761 63.6717 8.59559C61.8428 6.76667 60.1009 5.02484 58.1849 3.28302C57.2269 2.4121 56.8785 2.4992 56.1818 3.4572C56.0947 3.54429 56.0076 3.71847 55.8335 3.80557C53.6562 6.15703 51.3918 8.4214 49.4758 10.9471C46.9501 14.0823 44.6858 17.4789 42.3343 20.7884C42.2472 20.9626 42.1601 21.2238 42.1601 21.4851C42.1601 21.6593 42.4214 22.0077 42.5085 22.0077C42.6827 22.0077 43.031 21.8335 43.2052 21.6593C43.3794 21.398 43.4665 20.9626 43.7278 20.7013C44.2503 20.1787 44.7729 19.7433 45.2954 19.3078C46.6018 18.0885 46.776 18.0885 47.821 18.9595Z" fill="#251C1C"/>
<path d="M59.1432 163.357C57.6626 163.183 56.3563 162.834 55.0499 162.834C53.3952 162.747 51.8275 162.834 50.1728 162.834C47.7342 162.747 45.4699 162.312 43.1184 161.702C41.7249 161.354 40.3315 161.092 38.938 160.483C38.0671 160.047 37.1962 159.699 36.3253 159.263C35.2802 158.741 34.2351 158.393 33.3642 157.696C31.7094 156.476 30.0547 155.083 28.487 153.69C27.2678 152.644 26.1356 151.512 25.0905 150.38C23.9583 149.074 22.739 147.854 21.781 146.374C20.9972 145.155 20.5617 143.761 19.865 142.455C19.0812 140.974 18.2103 139.494 17.4264 137.926C16.991 136.968 16.6426 136.01 16.1201 135.139C15.2492 133.659 14.9008 132.004 14.5524 130.349C14.117 128.259 13.4202 126.256 12.9848 124.253C12.7235 123.208 12.7235 122.075 12.5493 121.03C12.3752 120.072 12.201 119.027 12.0268 118.069C11.8526 117.024 11.8526 116.066 11.5913 115.021C11.3301 113.453 10.8946 111.973 10.5462 110.405C10.3721 109.447 10.3721 108.489 10.285 107.444C10.1979 106.834 10.1979 106.138 10.1979 105.528C10.1979 104.396 10.1108 103.264 10.1108 102.132C10.1979 99.693 10.285 97.3415 10.285 94.9029C10.285 94.6417 10.1108 94.4675 10.1108 94.2062C10.1108 93.9449 10.1108 93.5966 10.1108 93.3353C10.1108 93.074 10.285 92.8128 10.285 92.5515C10.3721 91.0709 10.4591 89.5904 10.6333 88.1098C10.8075 86.8905 11.0688 85.5842 11.3301 84.3649C11.5913 83.2327 11.7655 82.1005 12.0268 80.9683C12.1139 80.5329 12.3752 80.0974 12.4622 79.5749C12.9848 77.9201 13.5073 76.1783 13.9428 74.5236C14.2912 73.3914 14.4653 72.1721 14.8137 70.9528C14.9008 70.6045 15.1621 70.2561 15.3363 69.9077C16.033 68.1659 16.7297 66.4241 17.4264 64.6823C17.6877 64.0726 18.2103 63.6372 18.1232 62.8533C18.1232 62.5921 18.5586 62.3308 18.8199 61.9824C19.4295 61.0244 20.0392 60.0664 20.4746 59.1084C21.4326 56.5828 22.9132 54.4055 24.2196 52.054C24.8292 50.9218 25.4388 49.8767 26.0485 48.7445C26.3098 48.222 26.7452 47.8736 27.0936 47.4382C28.0516 46.1318 28.9225 44.7383 29.8805 43.432C30.5772 42.474 31.274 41.6031 32.0578 40.7321C32.9287 39.7741 33.8867 38.9032 34.8447 38.0323C36.064 36.9001 37.2833 35.6808 38.5896 34.6357C41.7249 32.1972 44.5989 29.3232 48.431 27.9297C50.2599 27.3201 52.1759 26.6233 54.179 26.8846C54.5273 26.9717 55.0499 26.5363 55.3983 26.5363C57.6626 26.6233 59.927 26.6233 62.1914 26.7975C63.3236 26.8846 64.5429 27.4072 65.675 27.4943C68.5491 27.6684 71.336 28.4523 73.9487 29.7586C75.2551 30.4554 76.6485 30.8908 77.9549 31.5005C79.5226 32.1972 81.0031 32.981 82.5707 33.7648C83.0933 34.0261 83.6158 34.4616 84.2255 34.6357C85.6189 35.0712 86.664 35.9421 87.7091 36.813C88.7542 37.6839 89.7993 38.729 90.9315 39.6C92.2379 40.7321 93.1959 42.2127 94.0668 43.7803C94.3281 44.2158 94.6764 44.6512 95.0248 45.0867C95.5474 45.7834 95.8086 46.4802 96.0699 47.3511C96.2441 48.3091 96.8537 49.0929 97.2892 50.0509C97.9859 51.5315 98.6826 53.012 99.3794 54.4055C99.989 55.7118 100.599 57.0182 101.121 58.4117C101.644 59.8922 102.166 61.4599 102.602 63.0275C103.298 65.4661 103.821 67.9917 104.518 70.4303C105.04 72.4334 105.302 74.5236 105.389 76.6138C105.476 78.6169 105.824 80.5329 105.911 82.4489C106.085 84.7133 106.085 86.9776 105.65 89.242C105.389 90.5484 105.302 91.9418 105.214 93.2482C105.04 95.6868 104.953 98.2124 104.692 100.651C104.518 102.132 103.995 103.525 103.647 104.918C103.211 106.747 102.776 108.576 102.428 110.405C102.253 111.189 102.34 112.06 102.253 112.844C102.079 115.631 101.295 118.33 100.163 120.856C99.7277 121.727 99.5536 122.685 99.2923 123.643C98.5956 125.995 97.9859 128.346 97.115 130.61C96.2441 132.875 95.5474 135.139 94.0668 137.142C93.7184 137.665 93.5443 138.274 93.1959 138.797C92.6733 139.668 92.1508 140.539 91.6283 141.41C91.367 141.758 91.1928 142.194 91.0186 142.542C90.409 143.674 89.7993 144.806 89.1026 145.851C88.2317 147.158 87.535 148.551 86.1415 149.509C85.0964 150.206 84.2255 151.164 83.3546 152.122C81.874 153.864 79.8709 154.822 78.1291 156.215C77.4324 156.738 76.7356 157.347 76.0389 157.87C73.7745 159.525 71.1618 160.309 68.549 161.179C67.3298 161.615 66.1105 161.963 64.8041 162.312C64.2816 162.486 63.759 162.573 63.2365 162.66C61.843 162.921 60.4496 163.183 59.1432 163.357ZM104.518 85.1487C104.344 82.4489 104.169 80.3587 103.995 78.2685C103.908 77.1363 103.995 76.0041 103.821 74.8719C103.56 73.043 103.124 71.2141 102.689 69.3852C102.166 67.295 101.731 65.1177 101.121 63.0275C100.337 60.589 99.3794 58.2375 98.4214 55.886C96.8537 51.8798 95.0248 47.9607 92.6733 44.3029C91.6283 42.7352 90.5832 41.2547 89.2768 40.0354C87.2737 38.2936 85.1835 36.6388 82.7449 35.5067C81.0031 34.6357 79.1742 33.7648 77.4324 32.981C76.3002 32.4585 74.9938 32.1972 73.9487 31.5876C71.7714 30.2812 69.3329 29.7586 66.9814 29.2361C65.0654 28.8006 63.0623 28.5394 61.1463 28.3652C59.7528 28.191 58.3594 28.191 56.8788 28.191C56.0079 28.191 55.137 28.191 54.4403 28.9748C54.3532 29.149 54.0048 29.0619 53.7435 29.0619C52.6984 29.0619 51.6533 28.8877 50.6953 28.9748C49.0406 29.0619 47.8213 30.0199 46.4279 30.8037C44.3377 32.023 42.4217 33.5907 40.5927 35.1583C37.8058 37.5098 35.0189 39.8612 32.7545 42.6481C30.5772 45.348 28.5741 48.222 26.6581 51.096C24.9163 53.7958 23.4358 56.7569 21.9552 59.631C20.823 61.8082 19.6908 64.0726 18.6457 66.337C17.949 67.9046 17.3394 69.4723 16.8168 71.127C15.8588 74.1752 14.9879 77.1363 14.117 80.1845C13.5944 82.2747 12.9848 84.3649 12.8106 86.5422C12.3752 91.2451 12.2881 96.0351 11.9397 100.825C11.6784 105.528 12.5493 110.057 13.2461 114.586C13.6815 117.46 14.117 120.247 14.7266 123.121C15.4233 126.604 16.033 130.088 17.4264 133.31C19.6037 138.362 21.781 143.326 25.1776 147.68C27.2678 150.38 29.6192 152.819 32.232 154.909C35.1931 157.347 38.7638 158.741 42.4217 159.96C45.7311 161.005 49.1277 161.092 52.5243 161.179C52.9597 161.179 53.3952 161.092 53.8306 161.092C55.2241 161.267 56.6175 161.528 58.011 161.702C60.1883 161.963 62.2785 161.354 64.2816 161.005C65.675 160.744 66.9814 160.134 68.3749 159.699C70.378 159.002 72.4682 158.48 74.21 157.26C74.8196 156.825 75.3422 156.389 75.9518 155.954C77.9549 154.473 80.1322 153.08 82.0482 151.425C84.3997 149.422 86.8382 147.419 88.2317 144.545C88.7542 143.587 89.2768 142.542 89.8864 141.584C91.2799 139.145 92.8475 136.707 94.0668 134.094C95.0248 132.091 95.9828 130.088 96.5054 127.911C97.2021 125.211 98.073 122.598 99.031 119.985C99.9019 117.721 100.599 115.456 100.773 113.192C101.034 110.144 101.557 107.183 102.34 104.135C102.95 101.957 103.124 99.693 103.386 97.4286C103.56 96.0351 103.473 94.6417 103.647 93.2482C103.995 90.2871 104.256 87.4131 104.518 85.1487Z" fill="#251C1C"/>
<path d="M57.7487 7.28904C57.7487 7.89868 57.4003 8.15995 56.5294 8.15995C56.0069 8.15995 55.6585 7.98577 55.6585 7.37613C55.6585 6.76649 56.3552 6.06976 56.8778 6.06976C57.4003 6.06976 57.7487 6.50522 57.7487 7.28904Z" fill="#251C1C"/>
<path d="M58.7945 192.968C58.4461 193.142 58.2719 193.403 58.1848 193.316C58.0107 193.229 57.8365 192.968 57.6623 192.794C57.8365 192.706 58.0107 192.445 58.1848 192.445C58.2719 192.532 58.4461 192.706 58.7945 192.968Z" fill="black"/>
<path d="M83.2677 193.403C82.9194 191.313 80.9163 190.877 79.0874 191.139C78.6519 190.965 78.1294 191.052 77.6939 191.313C76.7359 191.487 75.865 191.661 74.907 191.748C75.0812 190.442 73.1651 189.484 72.2942 190.877C72.033 191.313 71.7717 191.748 71.4233 192.271C71.2491 192.271 71.162 192.271 70.9879 192.358C70.9879 192.358 70.9879 192.271 71.075 192.271C71.162 192.184 71.162 192.01 71.2491 191.923C71.8588 190.442 69.5073 189.571 68.7235 190.877C68.3751 191.487 68.0268 192.097 67.6784 192.793C67.4171 192.793 67.2429 192.793 66.9817 192.881C66.9817 191.661 65.2398 190.877 64.3689 192.184C64.1947 192.532 63.9335 192.793 63.7593 193.142H63.6722C64.0206 192.445 64.456 191.835 64.8044 191.139C65.5882 189.571 63.4109 188.178 62.3658 189.745C61.9304 190.442 61.4078 191.226 60.9724 192.01C60.9724 191.748 60.8853 191.574 60.7111 191.313C60.7982 191.052 60.9724 190.79 61.0595 190.529C61.3207 189.832 61.2336 189.049 60.5369 188.613C60.1015 188.352 59.4047 188.352 58.9693 188.7C58.708 188.526 58.4467 188.352 58.0984 188.352C51.4794 188.003 44.9476 188.178 38.3286 188.874C38.3286 187.655 36.4997 186.871 35.7159 188.178C35.4546 188.526 35.2804 188.961 35.0192 189.31C34.6708 189.397 34.3224 189.397 33.9741 189.484C33.7128 189.484 33.5386 189.658 33.3644 189.745H33.2773C33.0161 188.613 31.5355 188.003 30.7517 189.223C29.3582 191.487 27.8777 193.664 26.3971 195.842C27.0938 193.751 27.7906 191.748 28.4002 189.658C28.9228 187.916 26.2229 187.22 25.7004 188.874C24.2198 193.403 22.7393 198.019 21.2587 202.548C20.8233 203.854 22.6522 204.986 23.6102 203.941C24.1327 203.244 24.7424 202.635 25.2649 201.938C25.1778 202.112 25.0907 202.286 25.0907 202.461C24.8295 203.07 24.8295 203.854 25.4391 204.29C25.9617 204.725 26.8326 204.725 27.268 204.202C27.5293 203.941 27.7035 203.68 27.9648 203.419C27.6164 204.29 27.268 205.248 26.9197 206.206C26.4842 207.338 27.9648 208.47 29.0099 207.773C31.2742 206.118 33.2773 204.115 35.0192 202.025C34.4095 203.506 33.7999 204.986 33.1902 206.467C32.6677 207.773 34.6708 208.905 35.5417 207.86C36.4997 206.641 37.4577 205.509 38.4157 204.29C38.2415 205.509 39.8963 206.118 40.8543 205.335C41.9865 204.377 43.0316 203.332 44.0766 202.286C43.5541 203.419 43.0316 204.551 42.509 205.683C41.7252 207.338 43.8154 208.47 44.9476 207.076C46.1668 205.509 47.3861 203.854 48.6054 202.286C48.0828 203.332 47.5603 204.464 47.0378 205.509C46.341 206.902 47.9958 208.296 49.215 207.164C50.5214 205.944 51.8278 204.638 52.96 203.332C53.2212 204.202 54.3534 204.725 55.2243 203.941C55.5727 203.593 55.9211 203.332 56.2694 202.983C56.0082 203.68 55.834 204.377 55.6598 205.16C55.3114 206.467 57.0533 207.599 58.0113 206.554C58.5338 206.031 58.9693 205.509 59.4047 204.986C59.3176 205.248 59.3176 205.509 59.2305 205.77C59.0564 207.076 60.5369 208.209 61.582 207.164C62.3658 206.38 63.0626 205.596 63.7593 204.812C64.0206 205.77 65.2398 206.38 66.1108 205.509C66.2849 205.335 66.4591 205.16 66.6333 204.986C66.5462 205.16 66.5462 205.335 66.4591 205.509C66.1107 206.815 67.7655 207.947 68.8106 206.902C69.159 206.554 69.5073 206.206 69.7686 205.857C70.0299 206.728 71.4233 207.076 72.12 206.38C72.3813 206.118 72.6426 205.857 72.9039 205.596C73.4264 206.031 74.2102 206.031 74.7328 205.509C75.865 204.377 76.9972 203.157 77.9552 201.851C77.781 202.983 77.6068 204.115 77.5197 205.248C77.3455 206.641 79.5228 207.076 80.1325 205.944C81.0905 204.115 81.9614 202.112 82.4839 200.109C82.7452 199.238 82.9194 198.28 83.0065 197.322C83.1806 195.58 83.4419 194.448 83.2677 193.403ZM36.3255 192.358C36.5868 192.358 36.9352 192.358 37.1964 192.358C37.4577 192.358 37.719 192.445 37.9803 192.445C37.8061 192.706 37.719 192.881 37.5448 193.142C36.9352 193.142 36.3255 193.229 35.7159 193.229C35.9772 192.968 36.1513 192.619 36.3255 192.358ZM41.551 192.793C41.7252 192.793 41.9865 192.793 42.1606 192.793C41.9865 192.793 41.7252 192.793 41.551 192.881C41.551 192.881 41.551 192.881 41.551 192.793ZM32.7548 192.271C32.8419 192.271 32.8419 192.271 32.929 192.271C32.6677 192.619 32.4064 192.968 32.1451 193.316C32.058 193.316 31.971 193.316 31.8839 193.316C32.058 192.968 32.2322 192.532 32.4064 192.184C32.4935 192.271 32.5806 192.271 32.7548 192.271ZM40.6801 196.103C40.3317 196.625 39.9834 197.061 39.635 197.583C39.8092 197.061 40.0704 196.625 40.2446 196.103C40.3317 196.103 40.5059 196.103 40.6801 196.103ZM54.7889 196.016C54.6147 196.277 54.3534 196.625 54.1792 196.887C54.3534 196.625 54.4405 196.277 54.6147 196.016C54.6147 196.016 54.7018 196.016 54.7889 196.016ZM31.8839 200.98C32.5806 199.325 33.3644 197.758 34.2353 196.103C34.7579 196.103 35.1933 196.103 35.7159 196.103C34.4966 197.845 33.1902 199.499 31.8839 200.98ZM43.7283 198.019C43.9896 197.409 44.3379 196.8 44.5992 196.19C44.8605 196.19 45.0347 196.19 45.2959 196.19C44.8605 196.713 44.3379 197.322 43.7283 198.019ZM61.3207 197.409C61.582 196.887 61.8433 196.364 62.1045 195.842C62.1916 195.842 62.2787 195.842 62.3658 195.842C61.9304 196.364 61.582 196.887 61.3207 197.409ZM65.6753 195.58C65.8495 195.58 66.1108 195.58 66.2849 195.58C66.1108 195.929 66.0237 196.19 65.9366 196.538C65.2398 197.758 64.456 198.89 63.6722 200.022C64.0206 199.064 64.456 198.106 64.8915 197.148C65.0657 196.625 65.3269 196.103 65.6753 195.58ZM68.4622 197.496C68.4622 197.496 68.5493 197.496 68.4622 197.496C68.8977 196.713 69.3331 196.016 69.6815 195.232C69.7686 195.232 69.8557 195.232 69.9428 195.232C69.8557 195.319 69.8557 195.406 69.7686 195.58C69.4202 196.19 68.9848 196.887 68.4622 197.496Z" fill="#39B100"/>
<path d="M23.0864 200.371C23.1734 197.758 23.3476 195.058 23.4347 192.445C23.4347 192.097 23.3476 191.662 23.0864 191.4C22.4767 190.704 22.4767 189.833 22.9122 189.136C23.3476 188.352 23.7831 187.481 25.0895 187.568C28.2247 187.743 31.2729 187.307 34.3211 186.697C36.4113 186.262 38.5886 186.088 40.7659 186.349C41.8981 186.436 43.1174 186.436 44.2495 186.436C46.6881 186.436 49.1267 186.436 51.4781 186.61C53.6554 186.785 55.8327 187.22 58.01 187.394C60.2743 187.568 62.6258 187.568 64.8902 187.655C67.0675 187.655 69.2448 187.568 71.3349 187.743C74.1219 188.004 76.9088 188.439 79.6957 188.788C80.7408 188.962 81.873 188.962 82.9181 189.136C84.0503 189.223 84.3115 189.484 84.3115 190.529C84.3115 191.923 84.2245 193.403 84.0503 194.797C83.789 198.106 83.6148 201.503 83.3535 204.812C83.2664 205.335 83.0923 205.945 82.9181 206.467C82.6568 206.99 82.2213 206.99 81.6988 206.816C79.1732 205.858 76.6475 205.161 73.9477 205.248C70.464 205.335 66.9804 205.248 63.4967 205.248C60.3614 205.248 57.2261 205.335 54.0909 205.422C51.391 205.509 48.6912 205.509 45.9043 205.596C44.0754 205.683 42.1593 206.032 40.3304 205.945C37.8048 205.77 35.3662 206.554 32.7535 205.945C30.6633 205.509 28.3989 205.509 26.3087 205.248C23.9573 204.987 22.8251 203.942 22.9993 201.59C23.1734 201.068 23.0864 200.719 23.0864 200.371ZM24.7411 199.239C24.654 199.239 24.654 199.239 24.7411 199.239C24.7411 199.413 24.7411 199.587 24.7411 199.761C24.654 202.2 24.8282 202.635 27.1796 203.158C29.3569 203.68 31.6213 203.854 33.7986 203.942C37.1951 204.029 40.5046 203.942 43.9012 203.854C48.4299 203.767 53.0458 203.506 57.5745 203.419C62.1904 203.332 66.8062 203.419 71.3349 203.158C74.296 202.984 77.1701 203.332 79.957 204.377C80.2183 204.464 80.4795 204.551 80.8279 204.638C81.4375 204.812 81.7859 204.551 81.7859 203.942C81.873 202.635 82.1343 201.416 82.2214 200.109C82.4826 197.497 82.6568 194.971 82.831 192.358C82.9181 191.139 82.6568 190.791 81.6988 190.704C79.957 190.442 78.3022 190.181 76.5604 190.007C74.209 189.746 71.7704 189.397 69.4189 189.223C67.59 189.136 65.8482 189.223 64.0193 189.223C62.3645 189.223 60.7098 189.397 59.1422 189.31C57.2262 189.223 55.3972 188.701 53.5683 188.613C50.3459 188.439 47.2106 188.439 43.9883 188.352C43.4657 188.352 43.0303 188.178 42.5077 188.178C41.811 188.178 41.1143 188.439 40.5917 188.265C38.8499 187.568 37.1081 188.526 35.4533 188.439C34.7566 188.439 33.9728 188.701 33.276 188.875C32.4051 189.049 31.6213 189.223 30.7504 189.31C29.2698 189.397 27.7893 189.31 26.3087 189.31C26.1345 189.31 25.9604 189.484 25.8733 189.571C25.612 190.355 25.2636 191.052 25.1765 191.836C24.8282 194.274 24.8282 196.713 24.7411 199.239Z" fill="#251C1C"/>
<path d="M56.9649 201.328C56.9649 200.196 56.9649 199.064 56.9649 197.845C56.8778 197.845 56.8778 197.845 56.7907 197.932C56.6166 198.541 56.4424 199.238 56.094 199.848C55.9198 200.196 55.4844 200.457 55.0489 200.457C53.3942 200.632 52.4362 200.022 51.9136 198.454C50.9556 195.754 52.262 192.88 54.8747 192.184C56.7037 191.661 58.0971 192.967 57.7488 194.796C57.6617 195.058 57.8358 195.406 58.01 195.667C58.0971 195.842 58.2713 195.929 58.3584 196.016C58.8809 196.8 58.6197 200.283 58.01 200.98C57.8358 201.154 57.4875 201.241 57.2262 201.415C57.1391 201.415 57.052 201.415 56.9649 201.328ZM55.5715 197.583C54.7876 197.235 54.0909 196.887 53.3942 196.538C53.22 197.409 53.5684 198.367 54.0909 198.541C54.8747 198.803 55.2231 198.28 55.5715 197.583ZM54.178 194.796C54.178 194.884 54.2651 194.971 54.2651 195.058C54.7006 195.058 55.2231 195.145 55.6586 195.145C55.8327 195.145 56.094 194.796 56.2682 194.622C56.0069 194.448 55.7457 194.1 55.5715 194.187C55.0489 194.274 54.6135 194.535 54.178 194.796Z" fill="#251C1C"/>
<path d="M74.5573 198.368C73.5993 198.542 72.9026 198.629 72.2058 198.716C71.422 198.803 70.9866 199.239 70.8124 199.936C70.7253 200.284 70.6382 200.632 70.464 200.894C70.2898 201.155 70.0286 201.329 69.7673 201.503C69.5931 201.242 69.1577 200.981 69.1577 200.632C69.1577 199.936 69.2447 199.152 69.506 198.455C70.2027 196.887 70.8995 195.233 71.6833 193.752C71.8575 193.404 72.2929 193.055 72.6413 192.794C73.4251 192.272 74.2089 192.446 74.5573 193.23C74.9928 194.188 75.4282 195.233 75.6024 196.278C75.7766 197.497 75.7766 198.716 75.8637 199.936C75.8637 200.197 75.7766 200.545 75.6895 200.806C75.5153 201.416 75.0799 201.764 74.4702 201.503C73.8606 201.242 73.8606 200.719 74.0348 200.197C74.296 199.674 74.3831 199.065 74.5573 198.368ZM74.4702 196.278C73.9477 195.668 73.5993 195.233 73.1639 194.71C72.8155 195.233 72.1188 195.755 72.2058 196.278C72.2929 197.149 73.4251 196.365 73.8606 196.887C74.0348 196.713 74.1219 196.539 74.4702 196.278Z" fill="#251C1C"/>
<path d="M47.2988 196.8C47.6471 195.581 47.9955 194.623 48.2568 193.665C48.431 193.055 48.6922 192.533 49.389 192.707C49.9986 192.881 49.9115 193.491 49.8244 193.926C49.4761 195.32 49.2148 196.713 48.8664 198.107C48.8664 198.194 48.8664 198.281 48.7793 198.368C48.0826 199.936 47.56 200.11 46.5149 198.803C45.8182 197.932 45.2957 196.974 44.5118 195.842C44.3377 196.365 44.0764 196.8 43.9022 197.236C43.728 197.758 43.6409 198.368 43.3797 198.803C43.2055 199.065 42.77 199.239 42.5087 199.413C42.3346 199.065 41.8991 198.629 41.8991 198.281C41.8991 197.671 42.1604 197.062 42.3346 196.539C42.77 195.233 43.2055 193.926 43.6409 192.707C43.728 192.446 44.0764 192.097 44.3377 192.097C44.5989 192.097 45.0344 192.359 45.2086 192.707C45.7311 193.839 46.1666 194.971 46.6891 196.016C46.7762 196.104 46.9504 196.365 47.2988 196.8Z" fill="#251C1C"/>
<path d="M63.4108 200.37C62.627 200.457 62.0173 199.935 61.4948 198.541C61.1464 197.67 61.0593 196.712 60.8851 195.754C60.798 195.319 60.711 194.884 60.5368 194.448C60.2755 193.926 60.3626 193.403 60.8851 193.316C61.2335 193.229 61.669 193.403 61.9302 193.664C62.1915 193.838 62.1915 194.274 62.2786 194.622C62.4528 195.58 62.5399 196.625 62.8011 197.583C62.8882 197.932 63.2366 198.454 63.4979 198.454C63.7592 198.454 64.2817 198.106 64.4559 197.845C64.8913 196.8 65.1526 195.754 65.4139 194.622C65.501 194.361 65.3268 194.1 65.501 193.926C65.7622 193.664 66.1106 193.403 66.3719 193.142C66.5461 193.49 66.9815 193.838 66.9815 194.1C66.8073 195.493 66.5461 196.974 66.1106 198.367C65.6752 199.674 64.6301 200.37 63.4108 200.37Z" fill="#251C1C"/>
<path d="M32.3189 197.932C32.406 197.932 32.7544 197.845 33.1027 197.758C33.4511 197.671 33.8865 197.497 34.2349 197.671C34.6704 197.845 35.28 198.107 35.5413 198.455C35.8026 198.978 34.8446 199.848 34.2349 199.848C32.7544 199.848 31.2738 199.936 29.8803 200.632C29.3578 200.894 29.0965 200.545 29.1836 199.674C29.2707 198.542 29.3578 197.41 29.532 196.191C29.7062 194.971 29.8803 193.839 30.0545 192.62C30.0545 192.446 30.2287 192.184 30.3158 192.097C30.5771 191.923 30.8384 191.749 31.0996 191.662C31.1867 191.923 31.3609 192.272 31.3609 192.533C31.2738 193.839 31.0996 195.146 30.9254 196.539C30.7513 197.758 30.8384 197.845 32.3189 197.932Z" fill="#251C1C"/>
<path d="M38.7639 195.145C38.851 196.016 38.9381 196.887 39.0252 197.758C39.1123 198.367 38.6768 199.325 38.0672 199.412C37.893 199.412 37.3705 199.151 37.3705 198.89C37.1963 196.974 36.8479 194.971 37.4576 193.055C37.5447 192.794 37.9801 192.619 38.2414 192.445C38.4156 192.706 38.7639 192.968 38.851 193.316C38.9381 193.839 38.851 194.535 38.7639 195.145C38.851 195.145 38.7639 195.145 38.7639 195.145Z" fill="#251C1C"/>
<path d="M61.0597 150.206C60.2759 148.29 57.9244 148.203 56.7051 149.684C56.3568 150.119 56.9664 150.729 57.3148 150.293C59.4921 152.558 59.405 153.429 57.0535 152.906C56.6181 152.819 56.1826 152.645 55.8342 152.471C54.9633 152.122 54.1795 151.687 53.3957 151.251C52.1764 150.555 50.9571 149.771 49.6508 149.248C47.7347 148.464 45.4704 148.029 43.4673 148.813C38.5902 150.729 43.4673 154.212 46.6026 154.125C47.1251 154.125 47.1251 153.254 46.6026 153.254C44.164 153.342 40.1578 150.468 44.4253 149.422C46.5155 148.9 48.6057 149.597 50.4346 150.555C52.786 151.774 55.4859 154.125 58.2728 153.864C60.1017 153.69 61.7564 152.122 61.0597 150.206Z" fill="#251C1C"/>
<path d="M71.3355 35.8548C70.813 35.8548 70.813 36.7257 71.3355 36.7257C73.1644 36.8128 73.8612 37.8579 73.4257 39.7739C72.3806 40.819 71.3355 41.0803 70.2033 40.5577C69.1582 40.2965 68.1131 39.5126 67.2422 38.903C65.5875 37.7708 64.4553 36.2032 62.9747 34.8097C61.4071 33.3292 59.2298 32.2841 57.1396 33.5033C55.3978 34.5484 55.3978 36.7257 56.7913 38.1192C58.2718 39.5126 60.5362 39.3385 62.1038 38.1192C62.5393 37.7708 61.9296 37.1612 61.4942 37.5095C60.362 38.3805 58.5331 38.5546 57.4009 37.5095C55.2236 35.3323 57.488 33.9388 59.0556 33.8517C61.0587 33.7646 62.3651 35.5064 63.5844 36.8128C65.4133 38.8159 68.026 41.2545 70.9001 41.6028C75.1675 42.2996 75.6901 35.9419 71.3355 35.8548Z" fill="#251C1C"/>
<path d="M59.5792 21.398C59.0566 20.8755 58.2728 20.3529 57.5761 20.1787C57.6632 20.0046 57.5761 19.7433 57.3148 19.6562C56.531 19.5691 55.9213 19.9175 55.573 20.5271C55.573 20.5271 55.4859 20.5271 55.4859 20.6142C54.5279 21.6593 55.2246 23.1398 56.3568 23.6624C57.0535 24.0108 57.8373 23.7495 58.3599 23.314C58.9695 22.9657 59.4921 22.4431 59.7534 21.8335C59.7534 21.6593 59.6663 21.4851 59.5792 21.398ZM56.4439 20.8755C56.531 20.8755 56.6181 20.8755 56.7052 20.8755C56.531 20.9626 56.3568 21.1367 56.2697 21.398C56.0084 22.0077 56.1826 22.4431 56.6181 22.7044V22.7915C56.4439 22.7044 56.2697 22.6173 56.0955 22.4431C55.8343 22.0947 55.8342 21.5722 56.0084 21.1367C56.1826 20.9626 56.2697 20.9626 56.4439 20.8755Z" fill="#251C1C"/>
</svg>
