<svg width="71" height="125" viewBox="0 0 71 125" fill="none" xmlns="http://www.w3.org/2000/svg">
<path d="M24.4571 15.1059C24.5091 14.7937 24.5091 14.4296 24.5091 14.1174C24.5611 12.9729 23.3645 12.5047 22.5322 12.8688C22.0639 12.6087 21.4397 12.6607 21.0235 12.9729C20.4512 12.0364 18.8905 12.0885 18.4223 13.337C17.6419 15.5741 16.9135 17.8111 16.3413 20.0482C15.821 19.8401 15.1968 19.8921 14.7285 20.3083C10.9308 23.3777 8.12147 27.4356 6.4567 32.0137C6.2486 32.586 6.4567 33.0542 6.76884 33.3663C6.4567 33.3663 6.14455 33.5224 5.88443 33.7305C3.4393 36.0196 2.39882 39.2451 2.76298 42.4706C2.60691 42.8868 2.39882 43.3029 2.24274 43.7191C1.82655 44.7076 2.34679 45.54 3.12715 45.8001C2.03465 47.3608 1.67048 49.3377 2.08667 51.2106C2.1387 51.4707 2.29477 51.6788 2.45084 51.8349C2.19072 52.9274 3.02311 53.6037 3.85549 53.5517C3.80347 53.9159 3.69942 54.28 3.6474 54.6442C1.82655 57.2454 0.68202 60.1067 0.265826 63.2802C0.161778 64.0086 0.629995 64.4247 1.15024 64.5808C1.04619 65.5173 1.04619 66.4017 1.04619 67.3381C1.04619 67.9104 1.41036 68.3786 1.9306 68.5867C1.7225 69.9913 1.61845 71.396 1.56643 72.8006C1.56643 73.477 2.03465 73.9452 2.60691 74.1533C2.50286 75.2458 2.39882 76.3903 2.34679 77.4828C2.29477 78.2111 2.71096 78.6273 3.2312 78.7834C3.2312 79.1476 3.2312 79.5638 3.28323 79.9279C3.28323 80.3441 3.49132 80.6563 3.75144 80.9164C3.75144 80.9684 3.75144 80.9684 3.75144 81.0204C3.80347 81.8008 4.47978 82.3731 5.1561 82.4251C5.1561 82.7372 5.10407 83.0494 5.10407 83.3615C5.00002 85.1824 7.86135 85.1824 7.9654 83.3615C8.06945 80.9684 8.1735 78.5233 8.27754 76.1302C8.32957 75.5059 7.91337 75.0377 7.44516 74.8816C7.54921 74.4134 7.65325 73.9972 7.7573 73.529C7.9654 72.6966 7.54921 72.1243 6.97694 71.8642C6.92492 71.2919 6.50872 70.9278 5.98848 70.7717C6.35265 68.8468 6.76884 66.9739 7.34111 65.1011C7.65325 64.0606 6.82087 63.3843 5.98848 63.3322C6.19658 62.708 6.35265 62.1357 6.56075 61.5634C6.76884 60.9912 6.50872 60.4709 6.09253 60.1588C6.56075 58.598 6.92492 57.0373 7.28909 55.4766C7.54921 54.5922 7.86135 53.7598 8.1735 52.8754C8.48564 51.991 7.91337 51.3667 7.18504 51.1586C7.34111 50.3782 7.44516 49.5979 7.60123 48.8695C7.65325 48.6094 7.60123 48.3493 7.54921 48.1412C7.65325 48.0371 7.7573 47.8811 7.80933 47.673C8.12147 46.7886 8.43362 45.9562 8.74576 45.0718C9.31803 43.6151 9.94232 42.1584 10.6186 40.7017C11.9713 38.6208 13.1158 36.4358 14.1563 34.1467C14.3123 33.7825 14.3644 33.4184 14.2603 33.1062C16.6534 29.7767 19.0465 26.4992 21.4397 23.1696C21.8558 23.1696 22.272 22.9615 22.4801 22.4933C22.5842 22.2332 22.6882 22.0251 22.7923 21.765C23.4686 20.2042 24.249 18.6435 25.0813 17.1868C25.6016 16.2504 25.1334 15.47 24.4571 15.1059Z" fill="#39B100"/>
<path d="M70.3952 56.361C70.7073 54.176 70.6033 51.991 70.083 49.858C69.927 49.1817 69.7189 48.5054 69.4587 47.8811C69.5108 47.4129 69.5628 46.9967 69.6148 46.5285C69.7709 45.488 68.6264 44.9678 67.794 45.1759C67.5339 44.8637 67.2217 44.6036 66.9096 44.3435C68.0541 44.5516 68.8865 43.1989 68.3142 42.2105C67.846 41.3261 67.5339 40.3896 67.4818 39.4012C67.4298 38.3607 67.7419 37.3202 67.7419 36.2797C67.7419 34.4069 66.5454 32.4299 64.4644 32.482C63.0078 32.482 62.2794 33.5224 61.9152 34.719C60.9268 36.4358 60.7187 39.089 61.8112 40.5977C62.0193 40.8578 62.2274 41.118 62.4875 41.274C62.5916 41.4821 62.6956 41.7423 62.8517 41.9504C62.9037 42.0544 63.0078 42.1585 63.0598 42.2625C63.0598 42.4186 63.0078 42.5746 63.0078 42.7827C62.5395 43.251 62.1754 43.8752 61.9152 44.5516C61.7072 45.1238 62.0193 45.8522 62.5395 46.1643C62.4355 47.2568 62.3314 48.4013 62.2274 49.4939C62.1754 50.1181 62.4875 50.5864 62.9557 50.7424V50.7945C62.1754 52.8234 61.6031 54.9564 61.2389 57.1414C61.1349 57.8697 61.4991 58.442 61.9673 58.7021C61.1869 62.656 60.3025 66.6618 59.3661 70.5636C59.262 71.0839 59.3661 71.448 59.5742 71.7602C59.314 71.9163 59.1059 72.1764 58.9499 72.5405C58.4296 73.9452 58.0134 75.4019 57.6493 76.8585C57.2331 76.9626 56.8169 77.2747 56.6088 77.795C56.0365 79.1476 55.6203 80.6043 55.2562 82.0089C54.84 82.061 54.4758 82.3211 54.3197 82.6853C53.9556 83.4656 53.5914 84.246 53.2792 85.0784C52.9671 85.7547 52.707 86.431 52.3948 87.1073C51.7705 86.7431 50.8861 86.7952 50.4699 87.5755C49.8456 88.7721 49.2214 89.9166 48.5971 91.1132C48.0248 91.1132 47.5046 91.4253 47.2965 92.1016C46.6722 94.0785 46.0999 96.0555 45.4756 98.0324C44.9034 99.8532 47.5566 100.425 48.2329 98.8127C48.2849 98.7087 48.3369 98.6046 48.3369 98.5006C48.9612 98.8648 49.8977 98.8648 50.2618 98.0324C50.9382 96.6797 51.6665 95.2751 52.2908 93.8704C52.863 94.0265 53.4353 93.9225 53.7995 93.1941C54.3717 92.0496 54.892 90.853 55.4122 89.6565C55.8804 89.6565 56.2966 89.4484 56.5047 88.9282C56.5568 88.8241 56.6088 88.72 56.6608 88.564C57.1811 87.3154 57.7013 86.0148 58.1695 84.7142C58.6898 84.7662 59.21 84.6101 59.4701 84.0379C60.0424 82.6332 60.6146 81.2286 61.1349 79.7719C61.7072 79.7719 62.3314 79.4077 62.5395 78.7834C64.3084 73.1128 65.609 67.2861 66.3893 61.3554C66.7015 61.7195 67.2217 61.9276 67.6899 61.9276C68.4183 62.3958 69.6668 62.1877 70.031 61.1993C70.3952 60.1068 70.4472 59.0143 70.2391 57.8697C70.3952 57.4015 70.3952 56.8813 70.3952 56.361Z" fill="#39B100"/>
<path d="M36.6315 28.7366C36.5275 28.6846 36.4234 28.6325 36.3194 28.5285C35.487 26.2394 32.9378 25.251 30.5447 25.251C29.2961 25.251 28.0476 25.6151 27.1631 26.4996C26.0706 27.5921 25.8625 29.2568 25.5504 30.7135L23.1053 41.9507C22.6891 43.7716 25.4464 44.4999 25.8625 42.7311C26.3308 40.5461 26.851 38.309 27.3192 36.124C29.1921 37.0605 31.4291 37.1125 33.302 36.072C33.8222 35.8119 34.2905 35.4477 34.7066 35.0315C35.6431 34.6153 36.5275 34.0431 37.1518 33.2627C38.4524 31.806 38.2443 29.7771 36.6315 28.7366ZM28.2036 32.2742C28.1516 32.5344 28.2036 32.7945 28.2557 33.0026C28.1516 33.0026 28.0996 32.9505 27.9955 32.9505C28.1516 32.2742 28.2557 31.5979 28.4117 30.9736C28.3597 31.3898 28.3077 31.858 28.2036 32.2742ZM30.9609 33.1066V33.0546C31.2731 31.9101 31.4812 30.7655 31.5852 29.569V29.517C32.3656 29.7771 33.0939 30.0892 33.8222 30.4014C33.8222 31.0257 33.6141 31.6499 33.354 32.1182C33.25 32.2742 33.1459 32.4303 33.0419 32.5864C32.3656 32.8465 31.6892 33.0546 30.9609 33.1066Z" fill="#EF4036"/>
<path d="M46.4117 82.9454C46.2036 82.113 45.4232 81.8009 44.6429 81.957C43.0301 82.2171 41.4694 82.4772 39.8566 82.7373C39.4404 82.7894 39.0763 82.8414 38.6601 82.9454C38.6081 82.9454 38.504 82.9454 38.3479 82.9975C38.3479 82.9454 38.3479 82.9454 38.3479 82.8934C38.3479 82.5292 38.4 82.113 38.4 81.7489C38.452 80.5003 38.4 79.2517 38.3479 78.0031C39.6485 77.9511 40.9491 78.0552 42.1977 78.2633C42.9781 78.3673 43.7064 78.0552 43.9665 77.2748C44.1746 76.5985 43.7064 75.61 42.9781 75.506C41.3653 75.2459 39.7526 75.1418 38.0878 75.1938C38.0358 74.8817 38.0358 74.5695 37.9838 74.2574C39.7006 74.2054 41.4174 73.9453 43.0821 73.6331C44.903 73.2689 44.1226 70.5117 42.3018 70.8758C40.3249 71.292 38.3479 71.4481 36.319 71.4481C35.3305 71.4481 34.8103 72.3845 34.9143 73.2689C35.2265 75.1938 35.4346 77.1187 35.4866 79.0956C35.5386 79.9801 35.5386 80.9165 35.4866 81.8009C35.4346 82.6333 35.2785 83.5697 35.4346 84.4021C35.7988 86.431 37.8797 86.0669 39.3884 85.8068C41.3653 85.4946 43.3943 85.1825 45.3712 84.8703C46.1516 84.5582 46.5678 83.6217 46.4117 82.9454Z" fill="#EF4036"/>
<path d="M43.8108 47.6205C44.175 45.7476 44.4871 43.9268 44.8513 42.0539C45.0594 41.0134 44.9553 40.8574 43.9669 40.7013C43.4466 40.5972 42.8744 40.4412 42.3541 40.3371C42.042 40.2851 41.8859 40.3892 41.7819 40.6493C41.1576 42.1059 40.5333 43.6146 39.909 45.0713C39.5968 45.7997 39.2847 46.476 38.9205 47.1523C38.6604 47.6205 38.2962 47.7246 37.724 47.5685C36.8916 47.3604 36.0592 47.1523 35.2268 46.9962C34.7066 46.8922 34.4985 46.632 34.7066 46.1638C35.0707 45.1233 35.4869 44.0829 35.9552 43.0944C36.6315 41.6377 37.3598 40.2331 38.0881 38.7764C38.8165 37.3197 39.5448 35.9151 40.2732 34.4584C41.0015 32.9497 41.7298 31.441 42.5102 29.9843C42.8744 29.308 43.1865 28.5797 43.9148 28.1115C44.4351 27.7993 44.8513 27.8513 45.3715 28.0074C46.5681 28.3716 47.5045 29.1519 48.597 29.7762C49.4294 30.2444 50.2618 30.6086 51.1462 30.9728C51.7705 31.2329 51.8225 31.2849 51.6664 31.9612C51.4584 33.0017 51.1462 34.0422 50.9381 35.0827C50.626 36.6434 50.3658 38.2041 50.0537 39.7649C49.7416 41.2736 49.4814 42.7302 49.1693 44.2389C48.9612 45.3314 48.8051 46.476 48.597 47.5685C48.493 48.0367 48.4409 48.5049 48.3369 48.9731C48.1808 49.5454 47.7646 49.8055 47.1924 49.5974C46.7242 49.3893 46.2559 49.1812 45.7357 49.0772C45.3715 48.9731 44.9553 49.0252 44.5391 49.0772C43.9669 49.1292 43.8108 48.9731 43.8628 48.4009C43.8628 48.1407 43.9148 47.8806 43.9669 47.6725C43.8628 47.6205 43.8108 47.6205 43.8108 47.6205ZM44.9033 46.2159C44.9033 46.2159 44.9553 46.2159 44.9033 46.2159C44.9033 46.6841 44.8513 47.1003 44.7993 47.5685C44.7472 47.8286 44.9033 47.9326 45.1634 48.0367C45.6837 48.1407 46.2039 48.2448 46.7242 48.4009C47.1403 48.5569 47.3484 48.4009 47.4005 48.0367C47.5565 47.3084 47.7126 46.632 47.8687 45.9037C48.0768 44.9673 48.2849 44.0308 48.4409 43.0424C48.7531 41.5857 49.0132 40.1811 49.3254 38.7244C49.5335 37.6319 49.7416 36.5914 49.9496 35.4989C50.1577 34.4064 50.4179 33.3659 50.678 32.2734C50.782 31.9092 50.626 31.6491 50.3138 31.493C49.8456 31.2849 49.3254 31.0768 48.8571 30.8167C47.7126 30.1924 46.6201 29.5681 45.4756 28.9438C45.2675 28.8398 44.9553 28.6837 44.7993 28.7878C44.331 28.9959 43.7588 29.204 43.4987 29.7762C42.8744 30.9728 42.2501 32.1173 41.6258 33.3139C40.7934 34.8746 39.961 36.4873 39.1807 38.1001C38.4003 39.6608 37.672 41.2215 36.9436 42.8343C36.5274 43.7187 36.2153 44.6551 35.8511 45.5916C35.695 45.9557 35.8511 46.1638 36.2153 46.2679C36.6315 46.3719 37.0477 46.4239 37.4639 46.58C37.828 46.6841 38.0361 46.58 38.1922 46.2679C38.6084 45.4355 39.1286 44.6551 39.5448 43.8227C40.2211 42.5742 40.8974 41.2736 41.1055 39.8169C41.1576 39.4527 41.4177 39.2966 41.7819 39.3487C42.146 39.4007 42.5622 39.4527 42.9264 39.5568C43.6027 39.7128 44.227 39.973 44.8513 40.077C45.9958 40.2331 46.0478 40.2331 45.8918 41.4296C45.8918 41.5857 45.8397 41.6898 45.8397 41.7938C45.4756 43.2505 45.2155 44.7592 44.9033 46.2159Z" fill="#251C1C"/>
<path d="M35.0706 83.7777C35.1747 81.4886 35.3308 79.1996 35.3828 76.9105C35.4348 75.4538 35.2787 73.9972 35.1747 72.5925C35.1747 72.3324 34.9666 72.0723 34.9146 71.8121C34.8625 71.552 34.8105 71.1879 34.9146 70.9277C35.1747 70.1474 35.5909 69.7832 36.4233 69.9393C37.0996 70.0433 37.7759 69.9913 38.4522 69.9913C39.1285 70.0433 39.7528 70.0954 40.4291 70.1474C41.1575 70.1994 41.9378 70.2514 42.6662 70.3035C43.1344 70.3555 43.6026 70.4075 44.0188 70.5115C44.3309 70.5636 44.435 70.8237 44.383 71.1358C44.2269 71.9162 44.1228 72.6445 43.9668 73.4249C43.8627 73.9451 43.5506 74.0492 43.0824 73.9972C42.4581 73.9451 41.8338 73.9451 41.2615 73.9451C40.8453 73.9451 40.4291 73.9451 40.0129 73.9451C39.5447 73.9451 39.0765 74.5694 39.2846 74.9856C39.3366 75.0897 39.5447 75.1937 39.6488 75.1937C40.4811 75.2457 41.3135 75.2457 42.0939 75.2978C42.5621 75.3498 43.0824 75.4538 43.5506 75.6099C43.8627 75.714 43.9668 75.9221 43.9147 76.2862C43.8107 77.0666 43.7587 77.899 43.7066 78.6793C43.6546 79.1476 43.3425 79.3556 42.8743 79.3556C41.9378 79.3036 41.0014 79.2516 40.0129 79.1996C39.6488 79.1996 39.4927 79.3557 39.4927 79.6678C39.4927 80.188 39.5447 80.6563 39.5967 81.1765C39.5967 81.2805 39.8569 81.4366 40.0129 81.4886C41.7818 81.6967 43.5506 81.9048 45.3194 82.1129C45.7876 82.165 46.2558 82.217 46.724 82.321C47.1402 82.373 47.3483 82.6332 47.2443 83.0494C47.1402 83.7257 46.9842 84.402 46.7761 85.0783C46.62 85.6506 46.2038 85.8066 45.5795 85.7026C44.9032 85.6506 44.1749 85.7026 43.4985 85.6506C42.8222 85.6506 42.1979 85.5465 41.5216 85.5465C40.5332 85.5465 39.5447 85.5985 38.6083 85.6506C37.6198 85.7026 36.5793 85.8066 35.5909 85.8066C35.0706 85.8066 34.9146 85.6506 34.9666 85.1303C34.9146 84.6621 35.0186 84.1939 35.0706 83.7777ZM39.7528 75.9221C39.7528 75.9741 39.7528 76.0261 39.7528 76.0261C39.4407 75.9741 39.0765 75.9221 38.7644 75.9221C38.4522 75.9221 38.2961 75.714 38.2961 75.4538C38.2961 74.9856 38.3482 74.5174 38.4522 74.0492C38.6083 73.3209 38.7644 73.1648 39.4927 73.0607C40.221 73.0087 40.8973 73.0087 41.6257 73.0607C42.7182 73.1648 42.9263 73.0607 43.2384 72.1763C43.4465 71.5 43.3945 71.3439 42.6662 71.2399C41.8858 71.1358 41.1054 71.0838 40.3251 71.0318C39.0245 70.9798 37.7239 70.9277 36.3712 70.8757C36.1631 70.8757 35.955 70.9277 36.0071 71.2399C36.1111 72.3324 36.2152 73.4249 36.2152 74.5174C36.2672 75.766 36.2672 76.9625 36.2672 78.2111C36.2152 80.084 36.0071 82.0089 35.903 83.8817C35.851 84.8702 35.955 84.8702 36.9435 84.8702C38.6083 84.8182 40.3251 84.7141 41.9898 84.7141C43.0824 84.6621 44.1228 84.7141 45.2153 84.7141C45.7356 84.7141 46.3079 83.9858 46.2038 83.4656C46.2038 83.3615 46.0998 83.2575 46.0477 83.2575C45.7356 83.1534 45.4234 83.0494 45.1113 82.9973C44.2269 82.8413 43.3425 82.7372 42.4581 82.6332C41.4696 82.5291 40.4812 82.217 39.4407 82.3731C39.1285 82.4251 38.9204 82.269 38.8684 81.9569C38.6083 81.0204 38.7123 80.084 38.8164 79.1476C38.8684 78.3672 39.0245 78.2631 39.8048 78.3672C40.6372 78.4192 41.4696 78.5233 42.302 78.5753C42.5621 78.5753 42.7182 78.5233 42.7182 78.2631C42.7702 77.847 42.8222 77.4308 42.9263 77.0146C43.0303 76.6504 42.8743 76.4423 42.5101 76.3903C41.4696 76.1302 40.5852 76.0261 39.7528 75.9221Z" fill="#251C1C"/>
<path d="M29.0877 57.4533C29.3479 57.8695 29.5559 58.2337 29.8161 58.5979C30.0242 58.91 30.2843 59.1701 30.4924 59.4823C31.1167 60.4187 31.6889 61.3551 32.3132 62.2916C32.4693 62.5517 32.6254 62.8638 32.7814 63.124C32.9375 63.4361 32.6774 63.8523 32.3132 64.0084C31.4808 64.4246 30.6485 64.8408 29.8161 65.257C29.1918 65.5691 29.0877 65.5691 28.7756 64.9448C28.2553 63.9043 27.7871 62.8118 27.2149 61.7713C26.7466 60.939 26.1744 60.1586 25.6021 59.3782C25.5501 59.2742 25.394 59.2222 25.2379 59.0661C25.1859 59.2742 25.1339 59.3782 25.0819 59.5343C24.9258 60.6268 24.8218 61.6673 24.6657 62.7598C24.5096 63.8003 24.4056 64.8408 24.1454 65.8812C23.9894 66.5055 23.6772 66.6616 23.0009 66.6616C22.5847 66.6616 22.1685 66.8177 21.7003 66.6096C21.1801 66.3495 20.972 66.0893 21.024 65.5171C21.2321 63.9564 21.4402 62.4476 21.5963 60.8869C21.7523 59.4823 21.8043 58.0256 21.9084 56.6209C21.9604 55.2683 22.0124 53.9157 22.0645 52.5631C22.1165 51.8868 22.2205 51.2104 22.2726 50.5341C22.3246 49.7017 23.0009 49.4416 23.6252 49.2855C25.29 48.8694 26.9547 48.9214 28.5675 49.5457C29.2438 49.8058 29.9201 50.0659 30.5964 50.3781C31.4808 50.8463 32.1051 51.5746 32.5733 52.459C32.7294 52.7191 32.8335 52.9793 32.9375 53.2914C33.3537 54.592 32.4173 55.7365 31.4808 56.2568C30.8566 56.6209 30.1802 56.8811 29.5039 57.1932C29.4519 57.2452 29.2958 57.3493 29.0877 57.4533ZM24.3535 58.7019C24.3535 58.5979 24.3535 58.4418 24.3535 58.3377C24.3535 58.1817 24.4056 58.0776 24.4056 57.9216C24.5096 57.5054 24.7697 57.2973 25.1859 57.5054C25.394 57.6094 25.6021 57.8175 25.7582 58.0256C26.1224 58.4938 26.4865 58.91 26.7987 59.3782C27.3189 60.2106 27.9952 60.939 28.3074 61.8754C28.5675 62.5517 28.8796 63.124 29.1918 63.8003C29.3478 64.1124 29.608 64.2685 29.9721 64.1124C30.4404 63.8523 30.8566 63.6442 31.3248 63.3841C31.4288 63.28 31.5329 63.0199 31.4808 62.9159C31.2727 62.4997 31.0646 62.0315 30.8045 61.6673C30.5444 61.1991 30.1802 60.7829 29.9201 60.3147C29.3478 59.2742 28.5675 58.4418 27.7351 57.6094C27.579 57.4533 27.423 57.0892 27.475 56.9331C27.527 56.777 27.8912 56.6209 28.1513 56.5689C29.2958 56.3608 30.3363 56.0487 31.2727 55.3724C31.897 54.9042 32.2092 54.3319 32.0011 53.5515C31.793 52.8232 31.3768 52.1469 30.8045 51.6787C30.3883 51.3145 29.8161 51.1064 29.2958 50.8463C28.3594 50.3781 27.3189 49.9098 26.2264 49.9098C25.4981 49.9098 24.8217 50.0139 24.0934 50.1179C23.5732 50.222 23.4171 50.4821 23.4171 51.0544C23.4171 51.1584 23.4171 51.2625 23.3651 51.3145C22.8969 51.8868 23.0009 52.6151 22.9489 53.2914C22.8969 54.1758 23.0009 55.0602 23.0009 55.8926C23.0009 56.5689 22.8448 57.2973 22.7928 57.9736C22.6367 59.6904 22.5327 61.4072 22.3766 63.0719C22.3246 63.7483 22.2205 64.4246 22.1685 65.0489C22.1165 65.413 22.3766 65.5691 22.6888 65.6211C23.0009 65.6731 23.261 65.5691 23.313 65.2049C23.4691 64.3725 23.6252 63.4881 23.7813 62.6557C23.8333 62.2396 23.8333 61.7713 23.8853 61.3551C23.9894 60.5228 24.1975 59.5863 24.3535 58.7019Z" fill="#251C1C"/>
<path d="M31.5324 36.644C30.8041 36.4879 30.2839 36.3318 29.7636 36.2278C29.5555 36.1758 29.2954 36.1237 29.0873 36.0717C28.7752 36.0197 28.6711 36.1237 28.6191 36.4359C28.2549 38.0486 27.8387 39.6614 27.5266 41.2741C27.2665 42.4186 27.1104 43.5632 26.6942 44.6557C26.3821 45.384 25.8618 45.6962 25.1855 45.332C24.5092 45.0199 23.8329 44.7597 23.0525 44.9678C22.5843 45.0719 22.3762 44.8638 22.3762 44.3956C22.2721 41.7423 22.9485 39.1932 23.7809 36.696C24.4051 34.8751 24.8734 33.0023 25.4456 31.1294C25.6017 30.5571 25.8618 30.0369 26.0179 29.4646C26.1219 29.1525 26.0699 28.7883 26.0699 28.4242C26.0699 28.164 25.9659 27.8519 26.0179 27.5918C26.33 26.6033 26.4341 25.5108 27.1104 24.6264C27.2665 24.3663 27.4225 24.3142 27.7347 24.3663C28.359 24.4183 29.0353 24.4703 29.7116 24.4703C31.0642 24.4703 32.4169 24.6264 33.6134 25.3547C34.7579 26.031 35.9025 26.6553 37.047 27.3837C37.8794 27.9039 38.3996 28.6843 38.6077 29.6727C38.6598 30.0369 38.8679 30.349 38.9199 30.7132C39.0239 31.4416 38.6598 32.0138 38.2956 32.5861C37.7753 33.3664 37.2551 34.0948 36.6828 34.8231C35.9025 35.8116 34.81 36.3318 33.5614 36.4879C32.781 36.644 32.0527 36.644 31.5324 36.644ZM30.9082 25.4068C29.9197 25.4588 28.8792 25.4588 27.8908 25.5108C27.5786 25.5108 27.4225 25.7709 27.4225 26.031C27.3705 26.6033 27.3185 27.1756 27.2144 27.6958C26.9543 28.8404 26.6422 30.0369 26.33 31.1814C26.0699 32.0138 25.7578 32.8462 25.4976 33.6786C25.0294 35.1873 24.6653 36.696 24.145 38.1527C23.5728 39.8174 23.3126 41.5342 23.4167 43.251C23.4167 43.4071 23.5728 43.6672 23.7288 43.7193C24.145 43.8753 24.5612 43.9794 24.9774 44.0834C25.6537 44.2915 25.8098 44.2395 25.9659 43.5632C26.278 42.3146 26.5902 41.066 26.9023 39.7654C27.0063 39.3492 27.1624 38.933 27.2665 38.5168C27.4746 37.4764 27.6827 36.3838 27.8387 35.3434C27.8908 34.7711 28.2549 34.511 28.7752 34.7711C28.8792 34.8231 28.9833 34.9272 29.1393 34.9272C29.9717 35.1353 30.8561 35.3434 31.6885 35.6035C32.625 35.9156 33.5614 35.6555 34.4458 35.3954C34.862 35.2393 35.2782 35.0312 35.5903 34.7191C36.5268 33.8347 37.2551 32.7942 37.8274 31.6497C37.9314 31.4936 38.0355 31.2335 37.9834 31.0774C37.8274 30.4531 37.6713 29.8288 37.4632 29.2045C37.1511 28.3721 36.4227 28.008 35.7464 27.5918C35.1221 27.1756 34.3418 26.9155 33.7175 26.4993C32.729 25.979 31.8966 25.5628 30.9082 25.4068Z" fill="#251C1C"/>
<path d="M23.4691 83.8814C22.6367 83.7773 21.8044 83.6733 20.972 83.5692C20.6598 83.5172 20.3997 83.2571 20.4517 82.9449C20.6078 81.4883 20.7119 80.0316 20.8679 78.5229C20.972 77.6385 21.1801 76.8061 21.2841 75.9217C21.3361 75.6616 21.2841 75.3494 21.2841 75.0373C21.2841 74.9332 21.2321 74.8812 21.2841 74.7771C21.4402 74.1008 21.6483 73.4245 21.7523 72.7482C21.8564 72.1239 21.9084 71.4476 22.0125 70.8233C22.0645 70.5632 22.0645 70.251 22.2206 70.043C22.3246 69.8869 22.5327 69.6788 22.7408 69.6268C23.261 69.5227 23.7813 69.4187 24.1975 69.8348C24.3015 69.9389 24.5616 69.9389 24.7177 69.9909C25.9143 70.3031 26.1744 70.8233 25.7062 72.0199C24.9778 73.8927 24.4056 75.8176 24.1975 77.8466C24.1454 78.1587 24.2495 78.4709 24.3015 78.731C24.3535 78.8871 24.5096 79.0431 24.6657 79.0431C25.7062 79.1472 26.7467 79.1992 27.7351 79.2512C28.5675 79.2512 29.3479 79.1992 30.1802 79.2512C30.7525 79.2512 30.9086 79.5113 30.7525 80.0836C30.3883 81.1761 30.4404 82.3206 30.4404 83.4652C30.4404 83.9334 30.3883 84.3496 29.9201 84.5577C29.7641 84.6097 29.556 84.7138 29.4519 84.6617C28.4114 84.1935 27.2669 84.3496 26.1744 84.2455C25.7062 84.1935 25.238 84.0374 24.7697 83.9334C24.3535 83.9854 23.9373 83.9334 23.4691 83.8814ZM23.0529 76.598C23.5212 76.546 23.6252 76.2338 23.7293 75.8697C24.0414 74.6211 24.4056 73.3725 24.7697 72.1239C25.0299 71.2395 24.8218 70.9274 23.8853 70.7713C23.7813 70.7713 23.6772 70.7713 23.5732 70.7193C23.3131 70.6152 23.209 70.6672 23.157 70.9794C23.0529 71.4996 22.8969 72.0719 22.7928 72.5921C22.6888 73.2684 22.6367 73.9968 22.5327 74.6731C22.3246 76.0257 22.0645 77.3784 21.8564 78.783C21.7523 79.5634 21.7523 80.3437 21.7003 81.0721C21.6483 81.4362 21.6483 81.8004 21.5963 82.2166C21.5442 82.5287 21.7523 82.6848 22.0125 82.7368C23.6252 82.997 25.29 83.2571 26.9027 83.5172C27.6311 83.6212 28.3594 83.6733 29.0877 83.7253C29.1918 83.7253 29.3479 83.7253 29.556 83.7253C29.66 82.7889 29.7641 81.9045 29.8681 81.0721C29.9721 80.2917 29.9201 80.2397 29.1398 80.2397C29.0877 80.2397 28.9837 80.2397 28.9317 80.2397C28.3074 80.2397 27.6831 80.3437 27.0588 80.2917C26.1224 80.2397 25.238 80.0836 24.3015 79.9796C24.1454 79.9796 23.9894 79.9796 23.8853 79.9796C23.5212 80.0316 23.3651 79.9275 23.3651 79.5634C23.4171 78.783 23.4171 78.0547 23.4691 77.2743C23.4691 76.9622 23.4691 76.702 23.0529 76.598Z" fill="#251C1C"/>
<path d="M50.3132 60.1586C50.0011 61.9795 49.3248 63.5922 48.2323 65.0489C47.4519 66.0894 46.6715 67.0778 45.527 67.7021C43.6021 68.7426 41.6252 69.2108 39.5442 67.8582C38.8159 67.39 38.3477 66.7657 37.8795 66.0894C36.9951 64.9449 36.5789 63.5922 36.3708 62.1876C36.2147 61.3032 36.2667 60.4188 36.3187 59.5343C36.3708 58.5979 36.4228 57.7135 36.5789 56.7771C36.891 55.0603 37.9835 53.9678 39.4402 53.1874C40.8448 52.4591 42.3535 52.407 43.8622 52.5631C44.5386 52.6151 45.2149 52.9273 45.8392 53.2914C46.6195 53.7597 47.4519 54.2279 48.0762 54.8522C49.3248 56.1007 50.1572 57.6095 50.3132 59.3783C50.3653 59.6384 50.3132 59.8985 50.3132 60.1586ZM41.9894 67.7021C41.9894 67.7542 41.9894 67.7542 41.9894 67.8062C42.5616 67.7021 43.1339 67.6501 43.7062 67.494C44.2264 67.338 44.7467 67.1819 45.2149 66.8697C47.3479 65.4131 48.5964 63.3841 49.1687 60.939C49.2728 60.5228 49.4288 60.0546 49.3768 59.6384C49.3768 58.5979 48.9606 57.6615 48.4404 56.7771C47.9722 55.9447 47.2438 55.3204 46.4635 54.8001C45.423 54.1238 44.3305 53.4995 42.9778 53.4995C42.7697 53.4995 42.6137 53.6036 42.4056 53.6556C42.1975 53.7076 41.9894 53.7597 41.7813 53.7597C41.261 53.7597 40.6367 53.5516 40.1685 53.7597C38.6078 54.436 37.5153 55.6325 37.4113 57.4534C37.3072 58.4939 37.2032 59.5864 37.2552 60.6268C37.2552 61.4592 37.4113 62.3436 37.6194 63.124C37.8795 64.1645 38.3997 65.1009 39.076 65.9853C39.8564 67.0778 40.7408 67.5981 41.9894 67.7021Z" fill="#251C1C"/>
<path d="M14.3647 59.4303C14.3127 59.0141 14.2086 58.5979 14.1566 58.2338C14.1046 58.0777 14.1566 57.8696 14.1566 57.7135C14.1046 57.5054 14.1046 57.2453 13.9485 57.0892C13.5323 56.517 13.5323 56.1008 14.1046 55.7366C14.4688 55.5285 14.885 55.3724 15.3011 55.2684C15.8214 55.1643 16.2896 55.1123 16.8098 55.1123C17.4341 55.1643 17.5902 55.3724 17.6422 55.9967C17.6943 56.673 17.6943 57.2973 17.6422 57.9736C17.5902 58.754 17.2781 59.0661 16.4977 59.1702C15.9254 59.2222 15.3532 59.2742 14.7809 59.3263C14.6248 59.3263 14.4688 59.4303 14.3647 59.4303ZM15.0931 57.0892C15.0931 57.1933 15.1451 57.4014 15.1451 57.6095C15.1971 58.3898 15.1971 58.3898 15.9775 58.1817H16.0295C16.4977 58.1297 16.7058 57.8696 16.6538 57.4014C16.6018 57.0892 16.6018 56.7771 16.5497 56.4649C16.5497 56.3609 16.3937 56.2048 16.2896 56.1528C15.5613 55.8927 15.2491 56.1008 15.0931 57.0892Z" fill="#251C1C"/>
<path d="M59.4693 37.2162C59.2612 37.7885 59.1051 38.3607 58.845 38.933C58.6369 39.4012 58.2727 39.7654 57.6484 39.7654C56.8161 39.7654 55.9316 39.8694 55.0993 39.8694C54.631 39.8694 54.4229 39.6093 54.475 39.1411C54.527 38.4127 54.527 37.7364 54.579 37.0081C54.579 36.6959 54.7871 36.4878 55.1513 36.4358C55.2553 36.4358 55.3594 36.3838 55.4634 36.3318C56.5559 35.6555 57.7005 35.8636 58.845 36.1757C59.4693 36.2798 59.5733 36.5399 59.4693 37.2162ZM55.2033 37.6844C55.2033 37.9965 55.2553 38.2567 55.2553 38.5688C55.2553 38.985 55.5155 39.1411 55.8796 39.1411C56.5039 39.0891 57.1282 38.985 57.7525 38.881C57.8565 38.881 58.0126 38.7249 58.0646 38.6208C58.2727 38.2046 58.4288 37.7885 58.5849 37.3723C58.6889 37.1121 58.5849 36.904 58.3248 36.852C57.4924 36.6439 56.66 36.4358 55.9316 37.0601C55.8796 37.1121 55.8276 37.1642 55.7756 37.1642C55.2553 37.0601 55.2553 37.3723 55.2033 37.6844Z" fill="#251C1C"/>
<path d="M19.1509 38.1006C18.7867 37.9966 18.3185 37.8405 17.7983 37.6324C17.4341 37.4763 17.3301 37.1122 17.4341 36.8C17.6942 35.8636 18.0584 34.9792 18.3705 34.0427C18.4226 33.8867 18.5786 33.7826 18.7347 33.7306C19.0469 33.5225 19.255 33.5745 19.307 33.9387C19.359 34.2508 19.5671 34.3549 19.8272 34.4069C20.2434 34.4589 20.6596 34.563 21.0758 34.667C21.44 34.7711 21.492 35.0312 21.3879 35.3433C21.1799 35.9676 20.9718 36.5399 20.8157 37.1642C20.5556 37.9446 20.0353 38.2567 19.1509 38.1006ZM19.255 37.1642C19.5671 37.2682 19.7752 37.1642 19.8793 36.748C19.9833 36.4359 20.0873 36.1237 20.1914 35.8636C20.2954 35.5514 20.2434 35.3954 19.9313 35.3433C19.8272 35.3433 19.7232 35.2913 19.6191 35.2913C18.7347 35.0312 18.7347 35.0312 18.4226 35.8636C18.1625 36.8 18.3185 37.0081 19.255 37.1642Z" fill="#251C1C"/>
<path d="M16.6535 77.587C15.457 77.3269 14.8847 77.0668 15.2489 75.7662C15.3529 75.35 15.3529 74.8817 15.7171 74.5696C15.9252 74.3615 16.1333 74.1534 16.3934 74.1014C16.9137 73.9973 17.4339 73.7892 17.9021 74.1014C18.4224 74.4656 18.7345 75.2979 18.6305 75.9222C18.4744 76.8066 18.0582 77.3269 17.1738 77.535C17.0177 77.587 16.8096 77.587 16.6535 77.587ZM16.8096 76.5985C17.2778 76.6506 17.642 76.4945 17.642 76.1823C17.59 75.7662 17.3819 75.402 17.2258 74.9858C17.2258 74.9858 17.0697 74.9858 17.0177 75.0378C16.6535 75.2459 16.3934 75.402 16.4454 75.9742C16.3934 76.4945 16.5495 76.5465 16.8096 76.5985Z" fill="#251C1C"/>
<path d="M50.4179 74.6211C50.7301 74.7251 50.9902 74.7772 51.2503 74.8812C51.4064 74.9853 51.6145 75.1413 51.6665 75.2974C51.8746 76.2859 52.0307 77.2743 51.4064 78.1587C50.9902 78.731 50.4179 78.835 49.7416 78.835C49.4295 78.835 49.1694 78.835 48.8572 78.8871C48.389 78.9391 48.0248 78.6269 48.0769 78.1587C48.1809 77.4304 48.389 76.7021 48.5971 75.9737C48.6491 75.8176 48.9092 75.7656 49.0653 75.6616C49.1694 75.8176 49.3254 76.0257 49.2734 76.1818C49.2214 76.598 49.1173 77.0142 49.0653 77.4304C49.0653 77.5344 49.1173 77.7425 49.2214 77.8466C49.7416 78.2108 50.6781 77.9506 50.8341 77.3263C50.9382 76.8581 50.9902 76.3379 50.9382 75.8697C50.9382 75.5055 50.626 75.3494 50.2619 75.3494C50.0538 75.3494 49.8457 75.4015 49.6376 75.4015C49.4815 75.3494 49.3254 75.2454 49.1694 75.1413C49.2734 74.9853 49.3775 74.7251 49.4815 74.6731C49.7937 74.6211 50.1578 74.6211 50.4179 74.6211Z" fill="#251C1C"/>
<path d="M51.6138 61.6155C51.5098 61.5115 51.3537 61.3554 51.2497 61.1473C50.9375 60.3669 50.9375 59.5345 51.0936 58.7022C51.1977 58.1299 51.4578 58.0779 51.978 58.338C52.0821 58.39 52.2902 58.39 52.4462 58.338C53.3306 58.0779 54.059 58.5461 54.7353 58.9623C54.8393 59.0143 54.8914 59.3264 54.8393 59.4825C54.2151 60.6791 53.1225 61.3034 51.874 61.6155C51.8219 61.6675 51.7699 61.6155 51.6138 61.6155ZM51.874 59.6906C51.874 59.8987 51.874 60.1588 51.926 60.3149C51.978 60.4189 52.1861 60.575 52.2381 60.523C52.6543 60.3149 53.0705 60.1588 53.3827 59.8987C53.6428 59.6906 53.5908 59.4825 53.2786 59.3785C52.9665 59.3264 52.6023 59.3264 52.2381 59.3264C51.978 59.2744 51.874 59.3785 51.874 59.6906Z" fill="#251C1C"/>
<path d="M46.3597 34.8227C46.0476 35.7592 45.8395 36.7476 45.1632 37.528C44.9031 37.8401 44.6429 38.0482 44.1747 37.6841C43.8106 37.424 43.3944 37.2679 42.9782 37.0598C42.666 36.9037 42.5099 36.5916 42.718 36.2794C43.1863 35.343 43.7065 34.4066 44.2267 33.5221C44.4348 33.158 44.695 33.158 45.0591 33.4181C45.3713 33.6262 45.6834 33.7302 45.9956 33.9383C46.3077 34.1464 46.4638 34.4066 46.3597 34.8227ZM45.4753 34.9788C45.4753 34.6146 45.3713 34.4586 45.0071 34.5626C44.851 34.6146 44.6429 34.6667 44.5389 34.7707C44.2267 35.2389 43.9666 35.7072 43.7585 36.2274C43.7065 36.3314 44.0707 36.5916 44.2267 36.7476C44.3308 36.7997 44.5909 36.7476 44.6429 36.6436C44.9551 36.0713 45.2152 35.5511 45.4753 34.9788Z" fill="#251C1C"/>
<path d="M25.0818 53.6036C25.2379 52.8752 25.602 52.303 26.0702 51.8868C26.1743 51.7827 26.3824 51.7827 26.5385 51.7307C27.4229 51.6787 28.5154 52.8232 28.4634 53.6556C28.4634 53.8117 28.4113 54.0198 28.3073 54.1238C27.735 54.488 27.2148 54.9562 26.5905 55.2163C26.0702 55.4244 25.498 55.0603 25.2899 54.488C25.1858 54.1759 25.1338 53.8637 25.0818 53.6036ZM26.7466 52.7712C26.5385 52.9793 26.3824 53.1354 26.2783 53.3435C26.1743 53.5516 26.1223 53.8117 26.2263 54.0198C26.3304 54.2799 26.5905 54.3319 26.7986 54.1759C26.9547 54.0718 27.1628 54.0198 27.3188 53.9157C27.4229 53.8117 27.5269 53.6556 27.5269 53.5516C27.4749 53.2914 26.9547 52.8232 26.7466 52.7712Z" fill="#251C1C"/>
<path d="M30.96 31.2333C30.96 31.1293 30.96 31.0252 30.96 30.9212C31.012 30.1928 31.3762 29.7246 32.0525 29.5685C32.5728 29.4125 33.145 29.6726 33.5092 30.2448C33.7173 30.609 33.9254 31.0252 33.9774 31.4414C34.0815 32.1697 33.6133 32.69 33.041 33.0021C32.4687 33.3143 31.8444 33.1582 31.2722 32.8461C31.0641 32.742 30.96 32.3778 30.856 32.0657C30.804 31.8056 30.908 31.5454 30.96 31.2333C30.908 31.2333 30.908 31.2333 30.96 31.2333ZM31.7924 31.4414C31.7924 31.4934 31.7924 31.5455 31.7924 31.5975C31.7404 32.0657 31.9485 32.3258 32.4167 32.3258C32.7288 32.3258 32.989 32.0657 33.041 31.7015C33.041 31.5454 33.093 31.3374 32.989 31.2333C32.8329 30.9732 32.5728 30.7131 32.3647 30.4529C32.2086 30.7131 32.0525 30.9732 31.8965 31.2333C31.7924 31.2853 31.7924 31.3374 31.7924 31.4414Z" fill="#251C1C"/>
<path d="M40.377 62.9684C40.6371 61.8759 41.1053 60.9395 42.0417 60.3152C42.718 59.847 43.0822 59.847 43.6545 60.4193C44.1227 60.8875 44.6429 61.3557 44.9031 61.98C45.3713 62.9164 45.0071 63.8529 44.3308 64.5812C43.7585 65.1535 43.0822 65.4656 42.3018 65.6217C41.6776 65.7257 40.8972 65.3095 40.6371 64.5812C40.533 64.0609 40.481 63.4887 40.377 62.9684ZM44.3308 62.9164C44.2788 62.6563 44.2788 62.3962 44.1227 62.2401C43.8626 61.8759 43.4984 61.6158 43.1863 61.3037C42.7701 60.9395 42.5099 60.9395 42.0938 61.4077C41.4174 62.1361 41.3134 63.0205 41.3654 63.9049C41.3654 64.5292 41.8336 64.8413 42.4579 64.7893C43.2903 64.6332 44.1747 63.7488 44.3308 62.9164Z" fill="#251C1C"/>
<path d="M44.6423 57.9215C44.7984 57.4533 44.8504 56.9331 45.3186 56.6209C45.9429 56.1527 46.5151 56.1007 47.0354 56.5689C47.5556 57.0371 47.6597 57.5053 47.1915 58.1817C46.8793 58.6499 46.4111 59.0661 45.9429 59.3262C45.3186 59.6904 44.6943 59.2742 44.6943 58.5458C44.5903 58.3377 44.6423 58.1296 44.6423 57.9215ZM45.5267 58.4418C45.8388 58.3377 46.4631 57.8175 46.4631 57.5574C46.4631 57.4533 46.255 57.1932 46.203 57.1932C45.6828 57.2452 45.3706 57.8695 45.5267 58.4418Z" fill="#251C1C"/>
<path d="M39.9606 57.1936C40.5848 57.2976 41.3132 58.2861 41.2091 58.9624C41.1051 59.6387 40.1166 60.3671 39.3883 60.263C38.5559 60.107 38.2958 59.2225 38.2958 58.2341C38.2958 57.7138 39.3363 57.0896 39.9606 57.1936ZM40.3247 58.9104C40.2727 58.4942 40.0126 58.078 39.7525 58.078C39.4403 58.078 39.1802 58.1821 39.2842 58.4942C39.3363 58.8063 39.5444 59.0665 39.7004 59.3266C39.9085 59.1705 40.1166 59.0665 40.3247 58.9104Z" fill="#251C1C"/>
<path d="M42.3021 55.6843C43.0304 55.7884 43.6547 56.3606 43.7588 56.8809C43.8108 57.5052 43.4466 58.1295 42.7703 58.3376C42.5622 58.3896 42.1981 58.3896 42.042 58.2335C41.4697 57.8173 41.1576 57.2451 41.2096 56.5167C41.3136 55.9444 41.6778 55.6323 42.3021 55.6843ZM42.4061 57.5052C42.4582 57.5052 42.5102 57.5052 42.5622 57.5052C42.6663 57.4011 42.8223 57.193 42.7703 57.141C42.7183 56.9329 42.5102 56.7768 42.4061 56.6208C42.4061 56.6208 42.094 56.7768 42.094 56.8809C42.1981 57.089 42.3021 57.2971 42.4061 57.5052Z" fill="#251C1C"/>
<path d="M66.4409 53.4999C66.649 53.6039 66.7531 53.708 66.9091 53.76C68.1057 54.3323 69.1462 55.0606 69.9786 56.1011C70.1867 56.4132 70.3948 56.8294 70.3948 57.1936C70.4468 58.026 70.4468 58.9104 70.2907 59.6907C70.1346 60.4191 69.6664 61.0954 69.2502 61.7197C68.4699 62.9162 67.3253 63.7486 66.1808 64.581C65.7126 64.9452 65.2444 65.3614 64.7241 65.7776C65.0363 65.9857 65.3484 66.1417 65.6606 66.3498C67.1693 67.3383 67.3774 68.5869 66.8051 69.9915C66.597 70.5118 66.2328 70.9279 65.8687 71.3962C65.3484 72.0725 64.8802 72.7488 64.36 73.4251C64.0998 73.7373 63.6837 73.9974 63.3715 74.3095C62.9553 74.6737 62.4871 75.0379 62.0709 75.402C62.383 75.9223 62.7472 76.3905 62.9553 76.9628C63.4235 78.1073 63.7877 79.3038 63.4235 80.6044C63.3195 81.0727 63.3195 81.5409 63.1634 82.0091C63.0594 82.3733 62.7992 82.6854 62.5911 82.9976C61.9669 83.8299 61.3946 84.6623 60.6663 85.4427C60.094 86.0149 59.4697 86.2751 58.7934 86.5872C58.2731 86.8473 58.2211 87.0554 58.2211 87.6277C58.2731 88.356 58.3252 89.0844 57.7529 89.7087C57.5448 89.9168 57.4408 90.2289 57.2847 90.437C56.7644 91.2694 55.9841 91.8937 55.2037 92.4139C54.4754 92.8821 53.747 93.2463 53.0187 93.6625C52.9147 93.7145 52.8626 93.9226 52.9147 94.0267C53.5389 94.9631 53.0707 95.6914 52.4464 96.4718C51.8742 97.2001 51.0418 97.6163 50.2094 98.0325C49.7412 98.2406 49.2209 98.2926 48.7007 98.4487C47.8163 98.6568 47.7643 98.8129 47.8683 99.6973C47.9724 100.426 48.0244 101.102 47.9724 101.83C47.9203 102.351 47.6602 102.975 47.4001 103.391C46.1515 105.264 44.1746 106.252 41.8335 105.16C41.1052 104.796 40.3768 104.431 39.6485 104.067C39.5444 104.015 39.3364 104.067 39.2323 104.119C38.8681 104.484 38.4519 104.848 38.1398 105.264C37.2554 106.564 35.9548 107.033 34.4461 107.085C33.4576 107.137 32.4692 107.085 31.5327 106.929C30.3882 106.721 29.3997 106.2 28.5674 105.316C28.0471 104.796 27.735 104.223 27.3188 103.703C27.1107 103.443 26.9546 103.443 26.7465 103.651C26.1742 104.275 25.55 104.848 24.9257 105.42C24.0413 106.252 23.0008 106.044 22.0123 105.732C21.0239 105.42 20.5036 104.588 20.0354 103.807C19.6192 103.131 19.255 102.351 18.9429 101.622C18.7868 101.258 18.7348 100.842 18.5787 100.478C18.4227 100.061 18.1625 99.9574 17.7984 100.166C17.4862 100.322 17.2261 100.478 16.914 100.634C15.9775 101.206 15.0931 100.998 14.2087 100.53C13.3763 100.113 12.9081 99.3852 12.3878 98.6048C11.2433 97.0441 11.0352 95.2752 11.0352 93.4024C11.0352 93.2463 11.0352 93.0382 11.0352 92.8821C10.9832 92.518 10.7751 92.4139 10.4109 92.4659C9.83867 92.57 9.2664 92.7261 8.69414 92.7781C8.48604 92.8301 8.32997 92.7261 8.12187 92.674C6.92532 92.4139 6.09293 91.6336 5.52066 90.6451C4.84435 89.6046 4.53221 88.4081 4.79233 87.2115C4.89637 86.7433 5.20852 86.3791 5.46864 85.9629C5.78078 85.4427 6.09293 84.9745 6.35305 84.4542C6.50912 84.1421 6.40507 83.882 6.04091 83.7779C5.78079 83.6739 5.52066 83.5698 5.26054 83.5698C4.84435 83.5178 4.48018 83.3097 4.11601 83.1016C3.07553 82.5293 2.65934 81.5409 2.34719 80.5004C2.19112 79.8761 1.931 79.2518 1.931 78.6795C1.931 78.0553 2.1391 77.3789 2.39922 76.7547C2.65934 76.1304 3.07553 75.5581 3.4397 74.9858C3.69982 74.6217 3.69982 74.3615 3.28363 74.1014C3.07553 73.9974 2.81541 73.7893 2.60731 73.7373C1.82695 73.5812 1.35873 73.0609 0.94254 72.4887C0.786468 72.1245 0.786468 71.7083 0.630395 71.4482C0.266226 70.7199 0.370275 69.9395 0.31825 69.2112C0.266226 68.3788 0.630395 67.7025 0.890516 66.9741C1.15064 66.2458 1.7229 65.5695 2.1391 64.8932C2.29517 64.581 2.50326 64.3209 2.55529 64.0087C2.60731 63.9047 2.45124 63.6446 2.29517 63.5405C1.98302 63.3324 1.67088 63.2284 1.35873 63.0203C0.422299 62.344 0.0581297 61.4075 0.266226 60.315C0.370275 59.7428 0.370275 59.1705 0.474323 58.5982C0.526347 58.3381 0.682419 58.078 0.786468 57.8179C1.20266 56.9335 1.7229 56.0491 2.45124 55.3727C2.71136 55.1126 2.97148 54.9045 3.28363 54.6964C3.49172 54.5404 3.49172 54.3843 3.28363 54.2282C3.02351 54.0201 2.71136 53.864 2.45124 53.6039C1.61885 52.7715 1.30671 51.7311 1.46278 50.5865C1.51481 50.1703 1.46278 49.7541 1.46278 49.2859C1.51481 48.1414 1.931 47.1529 2.55529 46.2165C2.91946 45.5402 3.49172 45.176 4.01196 44.6558C4.06399 44.6037 4.11601 44.5517 4.16804 44.4997C4.58423 44.0835 4.63625 43.9274 4.16804 43.6153C3.4397 43.1471 3.07553 42.4187 2.65934 41.7424C2.29517 41.1181 2.45124 40.4938 2.24314 39.8695C2.19112 39.6094 2.39922 39.2453 2.45124 38.9331C2.60731 38.2048 2.86743 37.5285 3.4397 37.0082C3.75184 36.7481 3.95994 36.3319 4.22006 36.0198C5.00042 35.0313 5.88483 34.1989 7.08139 33.6787C7.39353 33.5226 7.7577 33.3665 8.06985 33.1584C8.1739 33.1064 8.27794 32.8463 8.22592 32.6902C8.01782 31.9099 7.70568 31.1815 7.65365 30.4012C7.54961 29.3607 7.49758 28.3202 8.01782 27.3838C8.12187 27.2277 8.12187 27.0196 8.17389 26.8635C8.32997 26.5514 8.48604 26.2392 8.69414 25.9271C8.85021 25.667 9.00628 25.3548 9.21438 25.0947C9.63057 24.6265 10.0988 24.2103 10.567 23.7941C11.2953 23.2218 12.0237 22.5975 12.804 22.1293C13.6885 21.6611 14.6249 21.2969 15.5613 20.9328C15.8214 20.8287 16.0816 20.9328 16.3417 20.8807C16.5498 20.8807 16.7059 20.7767 16.914 20.7247C16.7059 20.3085 16.4978 19.9443 16.2897 19.6322C15.9255 19.0079 15.7174 18.3836 15.8735 17.6552C16.0295 16.7188 16.2897 15.8864 16.966 15.1581C17.7984 14.3257 18.5267 13.3893 19.3071 12.5569C19.5672 12.2968 19.9314 12.1407 20.2955 12.0366C21.4921 11.7245 22.6366 11.7765 23.7811 12.1407C24.1453 12.2447 24.3534 12.2447 24.6135 11.8806C25.2898 10.8921 26.0182 9.95567 26.7465 9.01923C28.0991 7.30243 29.4518 5.53361 30.8044 3.81682C31.5327 2.93241 32.3131 2.20407 33.0935 1.37168C33.3016 1.16359 33.4576 0.903466 33.6657 0.643345C33.8738 0.3312 34.186 0.227152 34.4981 0.487273C35.6426 1.42371 36.7872 2.30812 37.8277 3.29658C39.0762 4.49313 40.2728 5.79373 41.4693 7.14636C41.8855 7.61458 42.1977 8.13482 42.5098 8.65506C42.7179 9.01923 42.926 9.27935 43.3422 9.48745C44.1226 9.85162 44.9029 10.2158 45.5793 10.736C46.1515 11.1522 46.5157 11.7765 46.6197 12.5048C46.6718 12.921 46.8278 13.2852 46.9319 13.7014C47.5041 13.3372 47.9203 12.9731 48.4406 12.765C49.4811 12.3488 50.5736 12.2447 51.6661 12.4008C52.4464 12.5048 53.0707 12.765 53.591 13.2852C54.1112 13.8575 54.3713 14.5338 54.3713 15.2621C54.3713 16.0945 54.2673 16.9269 54.2153 17.7593C54.2153 17.9674 54.2153 18.1755 54.2153 18.4876C54.4754 18.3316 54.7355 18.2275 54.8916 18.1235C55.4638 17.7073 56.0881 17.2911 56.8165 17.3431C58.013 17.3951 59.1055 17.6552 59.8339 18.6957C60.8743 20.1524 61.0824 21.7131 60.6663 23.4299C60.5102 23.9502 60.4582 24.4704 60.3541 25.0947C60.6142 25.0427 60.7183 24.9906 60.8743 24.9386C61.9669 24.4184 63.4235 24.8346 64.0998 26.0311C64.6721 26.9676 64.7762 27.904 64.5681 28.8925C64.412 29.6728 64.0478 30.4532 63.7357 31.2335C63.5276 31.7018 63.5796 31.8578 64.0478 31.8578C65.1403 31.9099 66.0768 32.3781 66.7531 33.2625C66.9612 33.5226 67.0652 33.8347 67.1693 34.1469C67.3774 34.7712 67.6375 35.3434 67.7415 36.0198C67.7936 36.6441 67.7415 37.3724 67.5855 37.9967C67.3774 39.0372 67.1693 40.0256 66.545 40.91C66.3889 41.1181 66.3369 41.4823 66.3369 41.7424C66.3369 41.8985 66.493 42.1586 66.701 42.2627C67.2213 42.6268 67.7415 42.939 68.2618 43.3031C69.3023 44.0315 69.3543 45.072 69.3543 46.2165C69.3543 47.6211 68.73 48.8697 68.3138 50.1703C68.2097 50.5345 67.9496 50.7946 67.7936 51.1588C67.4814 51.7831 67.1693 52.4074 66.8051 53.0317C66.8051 53.1357 66.597 53.2918 66.4409 53.4999ZM28.1512 12.1407C27.5789 12.2447 26.8506 12.7129 26.9546 12.921C27.2668 13.5974 26.7985 14.0135 26.5384 14.4818V14.5338C26.4864 14.6378 26.3823 14.7419 26.3303 14.8459C26.2263 14.7419 26.1222 14.6899 26.0182 14.5858C25.706 14.2737 25.4459 13.9095 25.0817 13.7014C24.6655 13.4933 24.2494 13.2852 23.8332 13.1291C22.6886 12.7129 21.4401 12.6609 20.2435 13.0251C20.0354 13.0771 19.7753 13.2332 19.6712 13.3893C18.9429 14.2216 18.2146 15.054 17.4862 15.8864C16.5498 17.0309 16.3417 18.4876 17.122 19.6322C17.4862 20.2044 18.0065 20.6726 18.4227 21.2449C18.5267 21.401 18.6828 21.6611 18.6307 21.8172C18.5267 22.0773 18.2666 22.1813 17.9544 22.0773C16.6538 21.8172 15.4052 21.9212 14.2087 22.5975C13.1682 23.2218 12.1277 23.8461 11.1913 24.6265C9.2664 26.1872 8.43402 28.1641 8.64211 30.6092C8.74616 31.5977 9.00628 32.4301 9.78664 33.1064C10.1508 33.4186 10.0468 33.8347 9.57855 33.9908C9.11033 34.1469 8.64211 34.2509 8.17389 34.407C7.28948 34.7192 6.40507 35.1353 5.78079 35.8637C5.05245 36.7481 4.37613 37.6845 3.85589 38.673C3.54375 39.2453 3.38767 39.9736 3.4397 40.5979C3.49172 41.8985 4.27209 42.7829 5.36459 43.4592C6.35305 44.0835 6.35305 44.2916 5.36459 44.9159C4.32411 45.6442 3.33565 46.4246 2.97148 47.7252C2.76338 48.6096 2.65934 49.494 2.55529 50.3784C2.39922 51.8871 3.07553 53.1877 4.68828 53.6559C4.84435 53.708 5.00042 53.76 5.10447 53.812C5.36459 53.9681 5.46864 54.1762 5.26054 54.3843C5.00042 54.6444 4.7403 54.9045 4.42816 55.0086C3.4397 55.4768 2.76338 56.1531 2.19112 57.0375C1.61885 57.9739 1.41076 59.0144 1.35873 60.1069C1.30671 61.3035 1.67088 62.0318 2.81541 62.448C3.02351 62.5521 3.2316 62.6041 3.38767 62.7081C3.75184 62.9162 3.95994 63.2284 3.80387 63.5926C3.54375 64.1648 3.28363 64.7371 2.91946 65.2573C2.1391 66.2978 1.51481 67.4423 1.35873 68.7429C1.15064 70.4597 1.7229 71.9684 3.54375 72.7488C4.01196 72.9569 4.53221 73.165 5.00042 73.3211C5.31257 73.4251 5.41662 73.6332 5.20852 73.8933C5.05245 74.1535 4.79233 74.3615 4.63625 74.6217C4.16804 75.35 3.6478 76.0263 3.2316 76.7547C2.76338 77.6911 2.91946 78.6275 3.17958 79.616C3.54375 81.0727 4.48018 82.0091 5.93686 82.3212C6.35305 82.4253 6.76924 82.3733 7.18544 82.4773C7.70568 82.5814 7.86175 82.7895 7.65365 83.2577C7.34151 83.934 6.97734 84.5583 6.61317 85.1826C6.14495 86.0149 5.41662 86.7953 5.62471 87.8358C5.72876 88.5121 5.98888 89.1364 6.249 89.7607C6.87329 91.1653 8.43402 91.8417 9.89069 91.3734C10.3069 91.2174 10.6711 91.1133 11.0872 90.9572C11.6595 90.8012 11.8676 90.9573 11.8676 91.5295C11.8676 92.2579 11.8156 92.9862 11.8676 93.7145C11.9196 95.7435 12.5439 97.5643 14.0526 99.021C14.885 99.8013 15.8735 100.009 16.8099 99.3331C17.3301 98.9169 17.7463 98.3967 18.2666 97.9805C18.4227 97.8765 18.6307 97.7204 18.7868 97.7724C18.8909 97.8244 18.9949 98.0845 19.0469 98.2406C19.203 98.9169 19.255 99.6453 19.4631 100.27C19.7753 101.154 20.1915 102.038 20.6077 102.871C20.8158 103.287 21.0759 103.703 21.388 104.067C21.9603 104.744 22.7407 105.108 23.573 104.796C24.2494 104.536 24.8736 104.067 25.3939 103.599C25.8621 103.131 26.2263 102.507 26.6425 101.986C26.7985 101.83 27.0066 101.57 27.2147 101.622C27.3708 101.622 27.5789 101.934 27.6309 102.142C27.891 103.339 28.6714 104.223 29.5558 105.004C29.7119 105.16 29.868 105.316 30.0761 105.368C30.9084 105.628 31.7408 105.888 32.5732 105.992C33.4056 106.096 34.29 106.044 35.1744 105.94C36.423 105.732 37.2554 104.952 37.9837 103.911C38.1918 103.599 38.2959 103.183 38.504 102.767C38.608 102.559 38.66 102.299 38.7641 102.246C38.9202 102.194 39.1283 102.351 39.3364 102.455C39.9606 102.871 40.5849 103.339 41.2612 103.755C41.7295 104.067 42.2497 104.379 42.822 104.431C44.8509 104.744 46.4116 103.495 47.0359 101.622C47.3481 100.634 47.088 99.6453 46.7758 98.6568C46.6718 98.2926 46.6197 97.9805 47.0359 97.8244C47.8163 97.5643 48.5967 97.2522 49.429 97.0441C50.6776 96.784 51.458 96.0036 52.1343 95.0151C52.3424 94.703 52.2904 94.4429 52.0302 94.1827C51.8221 93.9226 51.6141 93.6105 51.406 93.3504C51.1979 93.0382 51.2499 92.8301 51.6661 92.7781C52.6545 92.622 53.5389 92.3099 54.4234 91.7896C55.6199 91.1133 56.5043 90.1769 57.1806 89.0324C57.5448 88.356 57.6489 87.6277 56.9205 87.1075C56.8685 87.0554 56.7644 87.0034 56.7124 86.8994C56.5563 86.6913 56.6084 86.5352 56.8165 86.4311C57.1806 86.2231 57.5968 86.067 58.013 85.9109C58.8974 85.5467 59.7818 85.1826 60.4061 84.4022C60.8223 83.882 61.2905 83.3617 61.7067 82.8415C61.8628 82.6334 62.0189 82.3212 62.1229 82.0611C62.279 81.5409 62.4351 80.9686 62.5911 80.4484C62.8513 79.4079 62.6432 78.4715 62.331 77.483C62.0709 76.6506 61.5507 76.0263 60.7183 75.7142C60.6142 75.6621 60.5622 75.6101 60.4582 75.5061C60.3021 75.298 60.3541 75.1419 60.6142 75.0379C61.4986 74.7257 62.227 74.2055 62.8513 73.5292C64.0478 72.2806 65.3484 71.136 65.9727 69.4713C66.3369 68.5869 66.0247 67.4423 65.1924 66.9741C64.6721 66.662 64.0478 66.5059 63.4756 66.2458C63.3195 66.1938 63.1634 65.9857 63.1634 65.8816C63.1634 65.7776 63.3195 65.6215 63.4756 65.5174C65.0363 64.581 66.493 63.5405 67.7936 62.2399C68.8861 61.0954 69.4583 59.7428 69.5624 58.182C69.6144 57.5057 69.4583 56.8814 68.9901 56.3092C68.3138 55.4768 67.4294 54.9565 66.545 54.4363C66.1808 54.2282 65.7646 54.0721 65.3484 53.9161C64.9843 53.76 64.9322 53.5519 65.2444 53.2918C65.4525 53.1357 65.6606 52.9276 65.8166 52.7195C66.1808 52.1993 66.493 51.627 66.8571 51.0547C67.6895 49.7541 68.3138 48.3495 68.5739 46.8408C68.782 45.8003 68.8861 44.7598 67.9496 43.9795C67.6895 43.7714 67.4294 43.6153 67.1693 43.4072C66.649 43.043 66.1808 42.6788 65.5045 42.6268C65.0883 42.6268 64.9843 42.3147 65.1403 41.9505C65.5045 41.3262 65.8687 40.7019 66.1808 40.0256C67.1693 38.0487 67.3774 36.0198 66.3889 33.9908C66.2849 33.7827 66.1808 33.5746 66.0247 33.4186C65.1924 32.5862 63.9438 32.3781 62.8513 32.8463C62.7472 32.8983 62.4871 32.8983 62.4351 32.8463C62.331 32.7422 62.331 32.5341 62.383 32.3781C62.9553 31.3376 63.4235 30.2451 63.7877 29.1005C64.0998 28.008 63.9958 27.0716 63.3715 26.1872C62.9033 25.5109 62.1229 25.3028 61.3426 25.5109C60.7183 25.667 60.198 25.9791 59.7818 26.4473C59.6778 26.5514 59.4177 26.6554 59.2616 26.6034C59.0015 26.4993 59.0535 26.2392 59.2096 25.9791C59.3136 25.823 59.4177 25.667 59.4697 25.5109C59.7298 24.4704 59.9379 23.4299 60.146 22.3894C60.3021 21.453 60.042 20.5686 59.6778 19.7362C59.2616 18.7998 58.5333 18.2795 57.5448 18.1235C57.0766 18.0714 56.6084 18.0194 56.1922 18.1755C55.2037 18.4876 54.5274 19.268 53.7991 19.8923C53.643 19.9963 53.3829 20.0483 53.1748 20.1004C53.1227 19.8923 53.0187 19.6842 53.0707 19.5281C53.5389 18.1755 53.591 16.8229 53.695 15.4182C53.747 14.5858 53.3829 13.9615 52.7066 13.5453C52.3944 13.3372 51.9782 13.2332 51.614 13.1812C49.4811 12.921 47.6082 13.3372 46.7238 15.7303C46.6718 15.8864 46.4116 15.9905 46.2556 16.1465C46.2035 15.9384 45.9954 15.6783 46.0475 15.5222C46.3596 14.6378 46.2556 13.8055 46.0475 12.921C45.7873 11.8285 44.6428 10.632 43.4983 10.4239C43.2902 11.1522 43.1861 11.2042 42.4578 10.9961C42.3538 10.9441 42.0936 10.9961 42.0416 11.0482C41.5734 11.6725 41.0532 12.2447 40.8451 13.0251C40.8451 13.1291 40.8451 13.3372 40.741 13.4413C40.637 13.5974 40.4289 13.7014 40.2728 13.8055C40.1687 13.5974 40.0647 13.3893 40.0647 13.2332C40.0647 12.9731 40.2208 12.7129 40.2728 12.4008C40.3248 12.1927 40.3768 11.9326 40.3248 11.7765C39.8046 10.0077 38.3999 8.75911 36.475 8.81114C35.6947 8.81114 34.8623 8.86316 34.0819 8.96721C31.8449 9.22733 30.1801 10.3198 29.2957 12.4528C29.1396 12.817 29.0356 13.2332 28.8795 13.6494C28.7755 13.8055 28.5674 13.9095 28.4113 14.0656C28.3072 13.9095 28.1512 13.7534 28.1512 13.5453C28.1512 13.2852 28.2032 12.9731 28.2552 12.6609C28.1512 12.5048 28.1512 12.3488 28.1512 12.1407ZM28.7755 11.3083C29.1396 10.8921 29.4518 10.4759 29.868 10.1638C30.5443 9.64352 31.2206 9.07126 32.001 8.75911C33.0935 8.34292 34.29 8.13482 35.5386 8.13482C36.371 8.0828 37.2034 8.03077 37.9317 8.39494C38.4519 8.65506 39.0762 8.86316 39.4924 9.27935C40.0647 9.85162 40.4809 10.632 40.9491 11.3083C41.2612 10.9441 41.6774 10.58 41.9376 10.1638C42.0416 10.0077 42.0416 9.69555 41.9896 9.53947C41.6774 8.96721 41.3133 8.34292 40.8971 7.8747C40.0647 6.93827 39.1283 6.00183 38.2438 5.11742C37.1513 4.02491 36.1109 2.98443 34.9663 1.94395C34.3941 1.42371 34.186 1.47573 33.7698 2.048C33.7178 2.10002 33.6657 2.20407 33.5617 2.25609C32.2611 3.66075 30.9084 5.01337 29.7639 6.52207C28.2552 8.39494 26.9026 10.4239 25.4979 12.4008C25.4459 12.5048 25.3939 12.6609 25.3939 12.817C25.3939 12.921 25.55 13.1291 25.602 13.1291C25.706 13.1291 25.9141 13.0251 26.0182 12.921C26.1222 12.765 26.1742 12.5048 26.3303 12.3488C26.6425 12.0366 26.9546 11.7765 27.2668 11.5164C28.0471 10.7881 28.1512 10.7881 28.7755 11.3083Z" fill="#251C1C"/>
<path d="M35.5389 97.5639C34.6544 97.4599 33.8741 97.2518 33.0937 97.2518C32.1053 97.1997 31.1688 97.2518 30.1804 97.2518C28.7237 97.1997 27.3711 96.9396 25.9664 96.5754C25.134 96.3673 24.3016 96.2113 23.4693 95.8471C22.949 95.587 22.4288 95.3789 21.9085 95.1188C21.2842 94.8066 20.66 94.5985 20.1397 94.1823C19.1513 93.454 18.1628 92.6216 17.2264 91.7892C16.498 91.1649 15.8217 90.4886 15.1974 89.8123C14.5211 89.0319 13.7928 88.3036 13.2205 87.4192C12.7523 86.6909 12.4922 85.8585 12.076 85.0781C11.6078 84.1937 11.0875 83.3093 10.6193 82.3729C10.3592 81.8006 10.1511 81.2283 9.83893 80.7081C9.31869 79.8237 9.1106 78.8352 8.9025 77.8468C8.64238 76.5982 8.22618 75.4016 7.96606 74.2051C7.80999 73.5808 7.80999 72.9045 7.70594 72.2802C7.6019 71.7079 7.49785 71.0836 7.3938 70.5114C7.28975 69.8871 7.28975 69.3148 7.13368 68.6905C6.97761 67.7541 6.71748 66.8697 6.50939 65.9332C6.40534 65.361 6.40534 64.7887 6.35332 64.1644C6.30129 63.8002 6.30129 63.384 6.30129 63.0199C6.30129 62.3436 6.24927 61.6673 6.24927 60.9909C6.30129 59.5343 6.35332 58.1296 6.35332 56.6729C6.35332 56.5169 6.24927 56.4128 6.24927 56.2567C6.24927 56.1007 6.24927 55.8926 6.24927 55.7365C6.24927 55.5804 6.35332 55.4244 6.35332 55.2683C6.40534 54.3839 6.45736 53.4995 6.56141 52.6151C6.66546 51.8867 6.82153 51.1063 6.97761 50.378C7.13368 49.7017 7.23773 49.0254 7.3938 48.3491C7.44582 48.089 7.6019 47.8288 7.65392 47.5167C7.96606 46.5282 8.27821 45.4877 8.53833 44.4993C8.74643 43.823 8.85047 43.0946 9.05857 42.3663C9.11059 42.1582 9.26667 41.9501 9.37072 41.742C9.78691 40.7015 10.2031 39.661 10.6193 38.6206C10.7754 38.2564 11.0875 37.9963 11.0355 37.5281C11.0355 37.372 11.2956 37.2159 11.4517 37.0078C11.8159 36.4355 12.18 35.8633 12.4401 35.291C13.0124 33.7823 13.8968 32.4817 14.6772 31.0771C15.0413 30.4007 15.4055 29.7765 15.7697 29.1001C15.9258 28.788 16.1859 28.5799 16.394 28.3198C16.9662 27.5394 17.4865 26.707 18.0587 25.9267C18.4749 25.3544 18.8911 24.8342 19.3594 24.3139C19.8796 23.7417 20.4519 23.2214 21.0241 22.7012C21.7525 22.0249 22.4808 21.2965 23.2612 20.6722C25.134 19.2156 26.8508 17.4988 29.1399 16.6664C30.2324 16.3022 31.3769 15.886 32.5735 16.0421C32.7816 16.0941 33.0937 15.834 33.3018 15.834C34.6544 15.886 36.0071 15.886 37.3597 15.9901C38.036 16.0421 38.7644 16.3542 39.4407 16.4063C41.1575 16.5103 42.8222 16.9785 44.383 17.7589C45.1633 18.1751 45.9957 18.4352 46.7761 18.7994C47.7125 19.2156 48.5969 19.6838 49.5333 20.152C49.8455 20.3081 50.1576 20.5682 50.5218 20.6722C51.3542 20.9324 51.9785 21.4526 52.6028 21.9728C53.2271 22.4931 53.8514 23.1174 54.5277 23.6376C55.308 24.3139 55.8803 25.1983 56.4005 26.1348C56.5566 26.3949 56.7647 26.655 56.9728 26.9151C57.2849 27.3313 57.441 27.7475 57.5971 28.2678C57.7011 28.84 58.0653 29.3082 58.3254 29.8805C58.7416 30.7649 59.1578 31.6493 59.574 32.4817C59.9382 33.2621 60.3023 34.0424 60.6145 34.8748C60.9266 35.7592 61.2388 36.6957 61.4989 37.6321C61.9151 39.0888 62.2272 40.5975 62.6434 42.0542C62.9556 43.2507 63.1117 44.4993 63.1637 45.7479C63.2157 46.9444 63.4238 48.089 63.4758 49.2335C63.5799 50.5861 63.5799 51.9387 63.3197 53.2914C63.1637 54.0717 63.1116 54.9041 63.0596 55.6845C62.9556 57.1411 62.9036 58.6498 62.7475 60.1065C62.6434 60.9909 62.3313 61.8233 62.1232 62.6557C61.8631 63.7482 61.603 64.8407 61.3949 65.9332C61.2908 66.4014 61.3428 66.9217 61.2908 67.3899C61.1868 69.0547 60.7185 70.6674 60.0422 72.1761C59.7821 72.6964 59.6781 73.2686 59.522 73.8409C59.1058 75.2456 58.7416 76.6502 58.2214 78.0028C57.7011 79.3555 57.2849 80.7081 56.4005 81.9046C56.1924 82.2168 56.0884 82.5809 55.8803 82.8931C55.5681 83.4133 55.256 83.9336 54.9439 84.4538C54.7878 84.6619 54.6837 84.922 54.5797 85.1301C54.2155 85.8064 53.8514 86.4828 53.4352 87.1071C52.9149 87.8874 52.4987 88.7198 51.6663 89.2921C51.0421 89.7083 50.5218 90.2805 50.0016 90.8528C49.1172 91.8933 47.9206 92.4655 46.8801 93.2979C46.4639 93.6101 46.0477 93.9742 45.6315 94.2864C44.2789 95.2748 42.7182 95.7431 41.1575 96.2633C40.4291 96.5234 39.7008 96.7315 38.9204 96.9396C38.6083 97.0437 38.2961 97.0957 37.984 97.1477C37.1516 97.3038 36.3192 97.4599 35.5389 97.5639ZM62.6434 50.8462C62.5394 49.2335 62.4353 47.9849 62.3313 46.7363C62.2793 46.06 62.3313 45.3837 62.2272 44.7074C62.0712 43.6149 61.8111 42.5224 61.5509 41.4299C61.2388 40.1813 60.9787 38.8807 60.6145 37.6321C60.1463 36.1754 59.574 34.7708 59.0017 33.3661C58.0653 30.973 56.9728 28.6319 55.5682 26.4469C54.9439 25.5105 54.3196 24.6261 53.5392 23.8977C52.3427 22.8572 51.0941 21.8688 49.6374 21.1925C48.5969 20.6722 47.5044 20.152 46.4639 19.6838C45.7876 19.3716 45.0073 19.2156 44.383 18.8514C43.0824 18.071 41.6257 17.7589 40.221 17.4467C39.0765 17.1866 37.8799 17.0305 36.7354 16.9265C35.903 16.8224 35.0706 16.8224 34.1862 16.8224C33.666 16.8224 33.1457 16.8224 32.7296 17.2907C32.6775 17.3947 32.4694 17.3427 32.3134 17.3427C31.6891 17.3427 31.0648 17.2386 30.4925 17.2907C29.5041 17.3427 28.7757 17.9149 27.9433 18.3832C26.6948 19.1115 25.5502 20.0479 24.4577 20.9844C22.7929 22.389 21.1282 23.7937 19.7755 25.4584C18.4749 27.0712 17.2784 28.788 16.1339 30.5048C15.0934 32.1175 14.209 33.8864 13.3246 35.6032C12.6482 36.9038 11.9719 38.2564 11.3476 39.609C10.9314 40.5455 10.5673 41.4819 10.2551 42.4703C9.68286 44.2912 9.16262 46.06 8.64238 47.8809C8.33023 49.1294 7.96606 50.378 7.86202 51.6786C7.6019 54.4879 7.54987 57.3492 7.34177 60.2106C7.1857 63.0199 7.70594 65.7251 8.12214 68.4304C8.38226 70.1472 8.64238 71.812 9.00655 73.5288C9.42274 75.6097 9.78691 77.6907 10.6193 79.6156C11.9199 82.633 13.2205 85.5984 15.2494 88.1996C16.498 89.8123 17.9027 91.269 19.4634 92.5176C21.2322 93.9742 23.3652 94.8066 25.5502 95.535C27.5271 96.1592 29.5561 96.2113 31.585 96.2633C31.8451 96.2633 32.1053 96.2113 32.3654 96.2113C33.1978 96.3153 34.0302 96.4714 34.8625 96.5754C36.1631 96.7315 37.4117 96.3673 38.6083 96.1592C39.4407 96.0032 40.221 95.639 41.0534 95.3789C42.25 94.9627 43.4986 94.6506 44.539 93.9222C44.9032 93.6621 45.2153 93.402 45.5795 93.1418C46.7761 92.2574 48.0767 91.4251 49.2212 90.4366C50.6259 89.24 52.0825 88.0435 52.9149 86.3267C53.2271 85.7544 53.5392 85.1301 53.9034 84.5579C54.7358 83.1012 55.6722 81.6445 56.4005 80.0838C56.9728 78.8872 57.5451 77.6907 57.8572 76.3901C58.2734 74.7773 58.7936 73.2166 59.3659 71.6559C59.8862 70.3033 60.3023 68.9506 60.4064 67.598C60.5625 65.7772 60.8746 64.0083 61.3428 62.1875C61.707 60.8869 61.811 59.5343 61.9671 58.1816C62.0712 57.3492 62.0191 56.5169 62.1232 55.6845C62.3313 53.9157 62.4874 52.1989 62.6434 50.8462Z" fill="#251C1C"/>
<path d="M34.7059 4.33674C34.7059 4.70091 34.4978 4.85698 33.9775 4.85698C33.6654 4.85698 33.4573 4.75293 33.4573 4.38876C33.4573 4.02459 33.8735 3.6084 34.1856 3.6084C34.4978 3.6084 34.7059 3.86852 34.7059 4.33674Z" fill="#251C1C"/>
<path d="M35.3312 115.252C35.1229 115.356 35.0188 115.513 34.9667 115.461C34.8626 115.409 34.7584 115.252 34.6543 115.148C34.7584 115.096 34.8626 114.94 34.9667 114.94C35.0188 114.992 35.1229 115.096 35.3312 115.252Z" fill="black"/>
<path d="M49.9498 115.512C49.7417 114.264 48.5452 114.004 47.4527 114.16C47.1925 114.056 46.8804 114.108 46.6203 114.264C46.048 114.368 45.5278 114.472 44.9555 114.524C45.0596 113.743 43.915 113.171 43.3948 114.004C43.2387 114.264 43.0826 114.524 42.8745 114.836C42.7705 114.836 42.7185 114.836 42.6144 114.888C42.6144 114.888 42.6144 114.836 42.6664 114.836C42.7185 114.784 42.7185 114.68 42.7705 114.628C43.1347 113.743 41.73 113.223 41.2618 114.004C41.0537 114.368 40.8456 114.732 40.6375 115.148C40.4814 115.148 40.3774 115.148 40.2213 115.2C40.2213 114.472 39.1808 114.004 38.6606 114.784C38.5565 114.992 38.4005 115.148 38.2964 115.356H38.2444C38.4525 114.94 38.7126 114.576 38.9207 114.16C39.3889 113.223 38.0883 112.391 37.464 113.327C37.2039 113.743 36.8918 114.212 36.6316 114.68C36.6316 114.524 36.5796 114.42 36.4756 114.264C36.5276 114.108 36.6316 113.952 36.6837 113.795C36.8397 113.379 36.7877 112.911 36.3715 112.651C36.1114 112.495 35.6952 112.495 35.4351 112.703C35.279 112.599 35.1229 112.495 34.9148 112.495C30.961 112.287 27.0592 112.391 23.1054 112.807C23.1054 112.079 22.0129 111.61 21.5446 112.391C21.3886 112.599 21.2845 112.859 21.1285 113.067C20.9204 113.119 20.7123 113.119 20.5042 113.171C20.3481 113.171 20.244 113.275 20.14 113.327H20.088C19.9319 112.651 19.0475 112.287 18.5793 113.015C17.7469 114.368 16.8625 115.668 15.9781 116.969C16.3943 115.72 16.8104 114.524 17.1746 113.275C17.4868 112.235 15.874 111.819 15.5619 112.807C14.6775 115.512 13.793 118.27 12.9086 120.975C12.6485 121.755 13.741 122.432 14.3133 121.807C14.6254 121.391 14.9896 121.027 15.3017 120.611C15.2497 120.715 15.1977 120.819 15.1977 120.923C15.0416 121.287 15.0416 121.755 15.4058 122.015C15.7179 122.275 16.2382 122.275 16.4983 121.963C16.6544 121.807 16.7584 121.651 16.9145 121.495C16.7064 122.015 16.4983 122.588 16.2902 123.16C16.0301 123.836 16.9145 124.512 17.5388 124.096C18.8914 123.108 20.088 121.911 21.1285 120.663C20.7643 121.547 20.4001 122.431 20.0359 123.316C19.7238 124.096 20.9204 124.773 21.4406 124.148C22.0129 123.42 22.5851 122.744 23.1574 122.015C23.0533 122.744 24.0418 123.108 24.6141 122.64C25.2904 122.067 25.9147 121.443 26.539 120.819C26.2268 121.495 25.9147 122.171 25.6025 122.848C25.1343 123.836 26.3829 124.512 27.0592 123.68C27.7875 122.744 28.5159 121.755 29.2442 120.819C28.9321 121.443 28.6199 122.119 28.3078 122.744C27.8916 123.576 28.8801 124.408 29.6084 123.732C30.3888 123.004 31.1691 122.223 31.8454 121.443C32.0015 121.963 32.6778 122.275 33.1981 121.807C33.4061 121.599 33.6142 121.443 33.8223 121.235C33.6663 121.651 33.5622 122.067 33.4582 122.536C33.2501 123.316 34.2906 123.992 34.8628 123.368C35.175 123.056 35.4351 122.744 35.6952 122.432C35.6432 122.588 35.6432 122.744 35.5912 122.9C35.4871 123.68 36.3715 124.356 36.9958 123.732C37.464 123.264 37.8802 122.796 38.2964 122.327C38.4525 122.9 39.1808 123.264 39.7011 122.744C39.8051 122.64 39.9092 122.536 40.0132 122.432C39.9612 122.536 39.9612 122.64 39.9092 122.744C39.7011 123.524 40.6895 124.2 41.3138 123.576C41.5219 123.368 41.73 123.16 41.8861 122.952C42.0422 123.472 42.8745 123.68 43.2907 123.264C43.4468 123.108 43.6029 122.952 43.759 122.796C44.0711 123.056 44.5393 123.056 44.8515 122.744C45.5278 122.067 46.2041 121.339 46.7764 120.559C46.6723 121.235 46.5683 121.911 46.5162 122.588C46.4122 123.42 47.7128 123.68 48.077 123.004C48.6492 121.911 49.1695 120.715 49.4816 119.518C49.6377 118.998 49.7417 118.426 49.7938 117.853C49.8978 116.813 50.0539 116.137 49.9498 115.512ZM21.9088 114.888C22.0649 114.888 22.273 114.888 22.4291 114.888C22.5851 114.888 22.7412 114.94 22.8973 114.94C22.7932 115.096 22.7412 115.2 22.6372 115.356C22.273 115.356 21.9088 115.408 21.5446 115.408C21.7007 115.252 21.8048 115.044 21.9088 114.888ZM25.0303 115.148C25.1343 115.148 25.2904 115.148 25.3944 115.148C25.2904 115.148 25.1343 115.148 25.0303 115.2C25.0303 115.2 25.0303 115.2 25.0303 115.148ZM19.7758 114.836C19.8278 114.836 19.8278 114.836 19.8799 114.836C19.7238 115.044 19.5677 115.252 19.4117 115.46C19.3596 115.46 19.3076 115.46 19.2556 115.46C19.3596 115.252 19.4637 114.992 19.5677 114.784C19.6198 114.836 19.6718 114.836 19.7758 114.836ZM24.51 117.125C24.3019 117.437 24.0938 117.697 23.8857 118.009C23.9898 117.697 24.1459 117.437 24.2499 117.125C24.3019 117.125 24.406 117.125 24.51 117.125ZM32.9379 117.073C32.8339 117.229 32.6778 117.437 32.5738 117.593C32.6778 117.437 32.7298 117.229 32.8339 117.073C32.8339 117.073 32.8859 117.073 32.9379 117.073ZM19.2556 120.038C19.6718 119.05 20.14 118.113 20.6602 117.125C20.9724 117.125 21.2325 117.125 21.5446 117.125C20.8163 118.166 20.0359 119.154 19.2556 120.038ZM26.3309 118.27C26.4869 117.905 26.695 117.541 26.8511 117.177C27.0072 117.177 27.1112 117.177 27.2673 117.177C27.0072 117.489 26.695 117.853 26.3309 118.27ZM36.8397 117.905C36.9958 117.593 37.1519 117.281 37.308 116.969C37.36 116.969 37.412 116.969 37.464 116.969C37.2039 117.281 36.9958 117.593 36.8397 117.905ZM39.441 116.813C39.545 116.813 39.7011 116.813 39.8051 116.813C39.7011 117.021 39.649 117.177 39.597 117.385C39.1808 118.113 38.7126 118.79 38.2444 119.466C38.4525 118.894 38.7126 118.322 38.9727 117.749C39.0768 117.437 39.2329 117.125 39.441 116.813ZM41.1057 117.957C41.1057 117.957 41.1577 117.957 41.1057 117.957C41.3658 117.489 41.626 117.073 41.8341 116.605C41.8861 116.605 41.9381 116.605 41.9901 116.605C41.9381 116.657 41.9381 116.709 41.8861 116.813C41.678 117.177 41.4179 117.593 41.1057 117.957Z" fill="#39B100"/>
<path d="M14.0003 119.674C14.0523 118.114 14.1564 116.501 14.2084 114.94C14.2084 114.732 14.1564 114.472 14.0003 114.316C13.6361 113.9 13.6361 113.379 13.8962 112.963C14.1564 112.495 14.4165 111.975 15.1968 112.027C17.0697 112.131 18.8906 111.871 20.7114 111.507C21.96 111.246 23.2606 111.142 24.5612 111.298C25.2375 111.35 25.9658 111.35 26.6422 111.35C28.0988 111.35 29.5555 111.35 30.9602 111.454C32.2608 111.559 33.5614 111.819 34.862 111.923C36.2146 112.027 37.6193 112.027 38.9719 112.079C40.2725 112.079 41.5731 112.027 42.8217 112.131C44.4864 112.287 46.1512 112.547 47.816 112.755C48.4403 112.859 49.1166 112.859 49.7409 112.963C50.4172 113.015 50.5733 113.171 50.5733 113.796C50.5733 114.628 50.5212 115.512 50.4172 116.345C50.2611 118.322 50.1571 120.351 50.001 122.328C49.949 122.64 49.8449 123.004 49.7409 123.316C49.5848 123.628 49.3247 123.628 49.0125 123.524C47.5038 122.952 45.9951 122.536 44.3824 122.588C42.3014 122.64 40.2205 122.588 38.1395 122.588C36.2666 122.588 34.3938 122.64 32.5209 122.692C30.9081 122.744 29.2954 122.744 27.6306 122.796C26.5381 122.848 25.3936 123.056 24.3011 123.004C22.7924 122.9 21.3357 123.368 19.775 123.004C18.5264 122.744 17.1738 122.744 15.9252 122.588C14.5205 122.432 13.8442 121.807 13.9483 120.403C14.0523 120.091 14.0003 119.882 14.0003 119.674ZM14.9887 118.998C14.9367 118.998 14.9367 118.998 14.9887 118.998C14.9887 119.102 14.9887 119.206 14.9887 119.31C14.9367 120.767 15.0408 121.027 16.4454 121.339C17.746 121.651 19.0987 121.755 20.3993 121.807C22.4282 121.859 24.4051 121.807 26.4341 121.755C29.1393 121.703 31.8966 121.547 34.6019 121.495C37.3591 121.443 40.1164 121.495 42.8217 121.339C44.5905 121.235 46.3073 121.443 47.972 122.067C48.1281 122.119 48.2842 122.171 48.4923 122.223C48.8565 122.328 49.0646 122.171 49.0646 121.807C49.1166 121.027 49.2727 120.299 49.3247 119.518C49.4808 117.958 49.5848 116.449 49.6888 114.888C49.7409 114.16 49.5848 113.952 49.0125 113.9C47.972 113.744 46.9836 113.587 45.9431 113.483C44.5385 113.327 43.0818 113.119 41.6771 113.015C40.5846 112.963 39.5441 113.015 38.4516 113.015C37.4632 113.015 36.4747 113.119 35.5383 113.067C34.3938 113.015 33.3012 112.703 32.2087 112.651C30.2838 112.547 28.411 112.547 26.4861 112.495C26.1739 112.495 25.9138 112.391 25.6017 112.391C25.1855 112.391 24.7693 112.547 24.4571 112.443C23.4167 112.027 22.3762 112.599 21.3877 112.547C20.9715 112.547 20.5033 112.703 20.0871 112.807C19.5669 112.911 19.0987 113.015 18.5784 113.067C17.694 113.119 16.8096 113.067 15.9252 113.067C15.8211 113.067 15.7171 113.171 15.6651 113.223C15.509 113.692 15.3009 114.108 15.2489 114.576C15.0408 116.033 15.0408 117.489 14.9887 118.998Z" fill="#251C1C"/>
<path d="M34.2378 120.246C34.2378 119.57 34.2378 118.894 34.2378 118.165C34.1857 118.165 34.1857 118.165 34.1337 118.217C34.0297 118.581 33.9256 118.998 33.7175 119.362C33.6135 119.57 33.3533 119.726 33.0932 119.726C32.1048 119.83 31.5325 119.466 31.2204 118.529C30.6481 116.917 31.4285 115.2 32.9892 114.784C34.0817 114.472 34.9141 115.252 34.706 116.344C34.654 116.501 34.758 116.709 34.8621 116.865C34.9141 116.969 35.0181 117.021 35.0701 117.073C35.3823 117.541 35.2262 119.622 34.8621 120.038C34.758 120.142 34.5499 120.194 34.3938 120.298C34.3418 120.298 34.2898 120.298 34.2378 120.246ZM33.4054 118.009C32.9372 117.801 32.521 117.593 32.1048 117.385C32.0007 117.905 32.2088 118.477 32.521 118.581C32.9892 118.738 33.1973 118.425 33.4054 118.009ZM32.573 116.344C32.573 116.396 32.625 116.448 32.625 116.501C32.8851 116.501 33.1973 116.553 33.4574 116.553C33.5614 116.553 33.7175 116.344 33.8216 116.24C33.6655 116.136 33.5094 115.928 33.4054 115.98C33.0932 116.032 32.8331 116.188 32.573 116.344Z" fill="#251C1C"/>
<path d="M44.7466 118.478C44.1743 118.582 43.7582 118.634 43.342 118.686C42.8737 118.738 42.6136 118.998 42.5096 119.414C42.4575 119.622 42.4055 119.83 42.3015 119.986C42.1974 120.142 42.0414 120.247 41.8853 120.351C41.7812 120.194 41.5211 120.038 41.5211 119.83C41.5211 119.414 41.5731 118.946 41.7292 118.53C42.1454 117.593 42.5616 116.605 43.0298 115.72C43.1339 115.512 43.394 115.304 43.6021 115.148C44.0703 114.836 44.5385 114.94 44.7466 115.408C45.0067 115.981 45.2669 116.605 45.3709 117.229C45.4749 117.957 45.475 118.686 45.527 119.414C45.527 119.57 45.475 119.778 45.4229 119.934C45.3189 120.299 45.0588 120.507 44.6946 120.351C44.3304 120.194 44.3304 119.882 44.4345 119.57C44.5905 119.258 44.6426 118.894 44.7466 118.478ZM44.6946 117.229C44.3824 116.865 44.1743 116.605 43.9142 116.293C43.7061 116.605 43.2899 116.917 43.342 117.229C43.394 117.749 44.0703 117.281 44.3304 117.593C44.4345 117.489 44.4865 117.385 44.6946 117.229Z" fill="#251C1C"/>
<path d="M28.4637 117.542C28.6718 116.813 28.8798 116.241 29.0359 115.669C29.14 115.305 29.296 114.993 29.7122 115.097C30.0764 115.201 30.0244 115.565 29.9724 115.825C29.7643 116.657 29.6082 117.49 29.4001 118.322C29.4001 118.374 29.4001 118.426 29.3481 118.478C28.9319 119.415 28.6197 119.519 27.9954 118.738C27.5792 118.218 27.2671 117.646 26.7989 116.969C26.6948 117.282 26.5388 117.542 26.4347 117.802C26.3307 118.114 26.2786 118.478 26.1226 118.738C26.0185 118.894 25.7584 118.998 25.6023 119.102C25.4983 118.894 25.2382 118.634 25.2382 118.426C25.2382 118.062 25.3942 117.698 25.4983 117.386C25.7584 116.605 26.0185 115.825 26.2786 115.097C26.3307 114.941 26.5388 114.732 26.6948 114.732C26.8509 114.732 27.111 114.888 27.2151 115.097C27.5272 115.773 27.7873 116.449 28.0995 117.074C28.1515 117.126 28.2556 117.282 28.4637 117.542Z" fill="#251C1C"/>
<path d="M38.0882 119.674C37.6199 119.726 37.2558 119.414 36.9436 118.582C36.7355 118.062 36.6835 117.489 36.5795 116.917C36.5274 116.657 36.4754 116.397 36.3714 116.137C36.2153 115.825 36.2673 115.513 36.5795 115.46C36.7876 115.408 37.0477 115.513 37.2037 115.669C37.3598 115.773 37.3598 116.033 37.4118 116.241C37.5159 116.813 37.5679 117.437 37.724 118.01C37.776 118.218 37.9841 118.53 38.1402 118.53C38.2963 118.53 38.6084 118.322 38.7124 118.166C38.9726 117.541 39.1286 116.917 39.2847 116.241C39.3367 116.085 39.2327 115.929 39.3367 115.825C39.4928 115.669 39.7009 115.513 39.857 115.356C39.961 115.565 40.2211 115.773 40.2211 115.929C40.1171 116.761 39.961 117.646 39.7009 118.478C39.4408 119.258 38.8165 119.674 38.0882 119.674Z" fill="#251C1C"/>
<path d="M19.5153 118.218C19.5673 118.218 19.7754 118.166 19.9835 118.114C20.1916 118.062 20.4517 117.958 20.6598 118.062C20.9199 118.166 21.2841 118.322 21.4402 118.53C21.5963 118.842 21.024 119.362 20.6598 119.362C19.7754 119.362 18.891 119.414 18.0586 119.831C17.7465 119.987 17.5904 119.779 17.6424 119.258C17.6945 118.582 17.7465 117.906 17.8505 117.177C17.9546 116.449 18.0586 115.773 18.1627 115.044C18.1627 114.94 18.2667 114.784 18.3187 114.732C18.4748 114.628 18.6309 114.524 18.787 114.472C18.839 114.628 18.943 114.836 18.943 114.992C18.891 115.773 18.787 116.553 18.6829 117.386C18.5789 118.114 18.6309 118.166 19.5153 118.218Z" fill="#251C1C"/>
<path d="M23.3655 116.553C23.4176 117.073 23.4696 117.593 23.5216 118.113C23.5736 118.478 23.3135 119.05 22.9493 119.102C22.8453 119.102 22.5331 118.946 22.5331 118.79C22.4291 117.645 22.221 116.449 22.5852 115.304C22.6372 115.148 22.8973 115.044 23.0534 114.94C23.1574 115.096 23.3655 115.252 23.4176 115.46C23.4696 115.772 23.4176 116.189 23.3655 116.553C23.4176 116.553 23.3655 116.553 23.3655 116.553Z" fill="#251C1C"/>
<path d="M36.6838 89.7087C36.2156 88.5642 34.8109 88.5122 34.0826 89.3966C33.8745 89.6567 34.2386 90.0209 34.4467 89.7607C35.7473 91.1134 35.6953 91.6336 34.2907 91.3215C34.0305 91.2694 33.7704 91.1654 33.5623 91.0614C33.0421 90.8533 32.5739 90.5931 32.1057 90.333C31.3773 89.9168 30.649 89.4486 29.8686 89.1365C28.7241 88.6682 27.3715 88.4081 26.1749 88.8763C23.2615 90.0209 26.1749 92.1018 28.0478 92.0498C28.3599 92.0498 28.3599 91.5296 28.0478 91.5296C26.5911 91.5816 24.198 89.8648 26.7472 89.2405C27.9957 88.9284 29.2443 89.3446 30.3368 89.9168C31.7415 90.6452 33.3542 92.0498 35.019 91.8937C36.1115 91.7897 37.1 90.8533 36.6838 89.7087Z" fill="#251C1C"/>
<path d="M42.8221 21.4004C42.5099 21.4004 42.5099 21.9206 42.8221 21.9206C43.9146 21.9727 44.3307 22.5969 44.0706 23.7415C43.4463 24.3658 42.8221 24.5218 42.1457 24.2097C41.5214 24.0536 40.8972 23.5854 40.3769 23.2212C39.3885 22.5449 38.7121 21.6085 37.8277 20.7761C36.8913 19.8917 35.5907 19.2674 34.3421 19.9957C33.3016 20.62 33.3016 21.9206 34.134 22.753C35.0184 23.5854 36.3711 23.4814 37.3075 22.753C37.5676 22.5449 37.2034 22.1808 36.9433 22.3889C36.267 22.9091 35.1745 23.0131 34.4982 22.3889C33.1976 21.0882 34.5502 20.2559 35.4866 20.2038C36.6832 20.1518 37.4636 21.1923 38.1919 21.9727C39.2844 23.1692 40.8451 24.6259 42.5619 24.834C45.1111 25.2502 45.4233 21.4524 42.8221 21.4004Z" fill="#251C1C"/>
<path d="M35.7994 12.7647C35.4873 12.4526 35.019 12.1404 34.6028 12.0364C34.6549 11.9323 34.6028 11.7762 34.4468 11.7242C33.9785 11.6722 33.6144 11.8803 33.4063 12.2445C33.4063 12.2445 33.3543 12.2445 33.3543 12.2965C32.782 12.9208 33.1982 13.8052 33.8745 14.1173C34.2907 14.3254 34.7589 14.1694 35.0711 13.9092C35.4352 13.7011 35.7474 13.389 35.9034 13.0248C35.9034 12.9208 35.8514 12.8167 35.7994 12.7647ZM33.9265 12.4526C33.9785 12.4526 34.0306 12.4526 34.0826 12.4526C33.9786 12.5046 33.8745 12.6086 33.8225 12.7647C33.6664 13.1289 33.7705 13.389 34.0306 13.5451V13.5971C33.9265 13.5451 33.8225 13.493 33.7184 13.389C33.5624 13.1809 33.5624 12.8687 33.6664 12.6086C33.7705 12.5046 33.8225 12.5046 33.9265 12.4526Z" fill="#251C1C"/>
</svg>
