<svg width="120" height="164" viewBox="0 0 120 164" fill="none" xmlns="http://www.w3.org/2000/svg">
<path d="M119.209 91.859C119.074 94.0964 118.863 96.3253 118.577 98.5458C118.008 102.991 117.148 107.402 116.002 111.742C115.425 113.912 114.764 116.061 114.026 118.185C113.297 120.308 112.484 122.411 111.587 124.475C109.796 128.605 107.685 132.607 105.212 136.395C102.807 140.069 100.081 143.55 97.005 146.714C96.9966 146.744 96.9839 146.773 96.9671 146.798C96.9671 146.798 96.9713 146.798 96.9713 146.803C96.9207 146.87 96.8702 146.937 96.8196 147.001C96.6721 147.237 96.5963 147.527 96.3182 147.637C96.2508 147.662 96.1876 147.671 96.1244 147.675C96.0654 147.717 96.0022 147.763 95.9348 147.805C95.9222 147.81 95.9095 147.818 95.9011 147.822C92.935 150.725 89.6824 153.35 86.1433 155.558C82.2756 157.972 78.0877 159.911 73.6933 161.204C69.3031 162.493 64.7192 163.147 60.1478 163.109C55.5765 163.062 51.0178 162.333 46.6698 160.985C42.3218 159.628 38.1886 157.648 34.3714 155.208C30.5543 152.769 27.0573 149.87 23.8974 146.651C20.7291 143.44 17.902 139.914 15.4036 136.172C10.4025 128.697 6.69486 120.397 4.20064 111.768C3.57709 109.61 3.0378 107.428 2.57013 105.228C2.09825 103.029 1.698 100.817 1.37358 98.5921C0.733172 94.1427 0.383476 89.6469 0.324491 85.1427C0.227588 76.1428 1.27668 67.0923 3.65293 58.362C6.03339 49.6443 9.71573 41.2385 14.7716 33.6837C17.2953 29.9085 20.1645 26.3523 23.3834 23.1206C26.6023 19.8973 30.1624 16.9858 34.0512 14.5631C37.9316 12.1361 42.1364 10.1895 46.5392 8.87488C50.9462 7.56449 55.547 6.89034 60.1478 6.89455C64.7444 6.9114 69.341 7.59399 73.7396 8.92544C78.1382 10.2527 82.3262 12.2119 86.1939 14.6473C88.1277 15.865 89.9773 17.2091 91.7469 18.6501C93.508 20.0953 95.1849 21.6375 96.7732 23.2638C99.9584 26.5082 102.769 30.0939 105.238 33.8818C107.702 37.6739 109.813 41.6809 111.604 45.8101C112.497 47.8747 113.31 49.9772 114.039 52.1008C114.776 54.2244 115.434 56.3732 116.011 58.5432C117.157 62.883 118.012 67.2945 118.581 71.7397C118.867 73.9602 119.074 76.1934 119.209 78.4307C119.348 80.668 119.419 82.9054 119.419 85.147C119.428 87.3843 119.352 89.6259 119.209 91.859ZM119.183 85.147C119.166 80.6807 118.867 76.2102 118.235 71.7903C117.599 67.3704 116.655 62.9968 115.379 58.7243C114.738 56.5881 114.022 54.4772 113.23 52.3999C112.43 50.3227 111.549 48.2792 110.593 46.2736C108.68 42.2623 106.443 38.4112 103.894 34.7961C101.353 31.1767 98.4796 27.7975 95.3239 24.7301C93.7439 23.2006 92.0839 21.7554 90.3523 20.4071C88.6291 19.0546 86.8216 17.8032 84.9552 16.6698C81.2181 14.3987 77.2113 12.5743 73.0318 11.3566C68.8481 10.1431 64.5085 9.5069 60.1605 9.51954C55.8124 9.53218 51.4771 10.1768 47.306 11.4072C43.1349 12.6375 39.1408 14.4746 35.4163 16.7498C31.6918 19.0293 28.2538 21.7891 25.1319 24.8692C22.0057 27.9492 19.1954 31.3537 16.7097 34.9899C11.7339 42.2666 8.05573 50.4154 5.56572 58.9055C4.94638 61.0291 4.40288 63.178 3.93521 65.3437C3.46333 67.5052 3.06308 69.6878 2.73866 71.883C2.08983 76.2692 1.75277 80.706 1.68536 85.1512C1.58424 94.0331 2.64597 102.961 5.02222 111.549C6.1977 115.842 7.7271 120.043 9.55984 124.1C11.3926 128.158 13.5666 132.064 16.0777 135.738C18.593 139.408 21.4453 142.846 24.6221 145.943C27.8072 149.031 31.3042 151.8 35.1003 154.062C38.888 156.329 42.9495 158.133 47.1796 159.321C49.2946 159.911 51.4476 160.366 53.6174 160.656C55.7872 160.951 57.978 161.078 60.1647 161.065C64.538 161.023 68.8945 160.353 73.0824 159.102C77.2661 157.846 81.2729 156.005 85.01 153.713C86.8806 152.571 88.6797 151.311 90.4071 149.95C92.1345 148.593 93.7861 147.14 95.3702 145.606C98.5259 142.534 101.395 139.151 103.936 135.523C106.48 131.9 108.713 128.048 110.626 124.037C111.583 122.032 112.459 119.984 113.26 117.907C114.056 115.825 114.772 113.714 115.408 111.582C116.685 107.31 117.624 102.932 118.261 98.5163C118.88 94.0795 119.171 89.6132 119.183 85.147Z" fill="#1D1D1B"/>
<path d="M109.699 61.5554C111.73 69.2576 112.699 77.2042 112.72 85.1466C112.686 93.0889 111.713 101.031 109.682 108.729L108.856 111.603C108.561 112.555 108.233 113.495 107.925 114.443C107.782 114.919 107.592 115.378 107.42 115.85L106.897 117.249C106.809 117.481 106.729 117.717 106.632 117.948L106.341 118.639L105.76 120.021C104.171 123.683 102.296 127.231 100.106 130.589C97.9105 133.938 95.4163 137.115 92.5976 139.989C89.7748 142.858 86.6444 145.454 83.2064 147.59C79.7726 149.73 76.0566 151.437 72.1594 152.583C68.2706 153.737 64.2048 154.302 60.1517 154.289C56.0944 154.247 52.0581 153.59 48.2031 152.389C44.348 151.184 40.6783 149.44 37.2909 147.282C37.0718 147.156 36.8695 147.009 36.6631 146.87L36.0437 146.444L34.8051 145.589L33.6127 144.67L33.0187 144.211C32.8206 144.059 32.6184 143.912 32.433 143.743L31.2912 142.766C30.9121 142.437 30.5202 142.125 30.1663 141.771L29.0751 140.739L28.5316 140.221C28.3504 140.048 28.1861 139.863 28.0092 139.681C25.2032 136.833 22.6963 133.707 20.4844 130.391C16.0479 123.759 12.7531 116.406 10.5412 108.755L9.77018 105.868L9.67327 105.506L9.58901 105.144L9.42469 104.415L9.09606 102.957L8.93175 102.228L8.79271 101.495L8.51885 100.024C8.32083 99.0468 8.19022 98.0608 8.04276 97.0749C7.47819 93.1268 7.15377 89.1409 7.099 85.1508C7.0653 81.1564 7.28017 77.1578 7.76469 73.1887C7.89109 72.1986 7.99642 71.2 8.17758 70.214L8.42195 68.7309L8.54413 67.9893C8.59048 67.745 8.64525 67.4964 8.69159 67.252L8.99916 65.7815L9.15083 65.0483L9.22667 64.6818L9.31936 64.3194L10.0482 61.4037C12.1633 53.672 15.4369 46.2226 19.9156 39.5232C22.157 36.1777 24.6976 33.0218 27.5499 30.1567C27.7269 29.9755 27.8996 29.7901 28.0808 29.6174L28.6369 29.0991L29.745 28.0668C30.1073 27.7129 30.5076 27.4011 30.891 27.0724L32.0538 26.0949C32.2434 25.9306 32.4499 25.7789 32.6521 25.6272L33.2588 25.1679L34.4722 24.2536L35.732 23.4025L36.3639 22.9769C36.5746 22.8379 36.7811 22.6862 37.0001 22.564C40.4423 20.4152 44.1752 18.6961 48.0809 17.5331C51.9865 16.366 56.0649 15.7593 60.1433 15.7593C64.2217 15.7803 68.2959 16.3913 72.1931 17.5795C76.0903 18.755 79.8105 20.4784 83.2401 22.6356C86.6781 24.7845 89.8001 27.4011 92.6187 30.2789C95.4416 33.1567 97.9316 36.3378 100.122 39.6959C102.309 43.0583 104.184 46.6102 105.772 50.2717L106.354 51.6537L106.644 52.3448C106.741 52.5765 106.821 52.8125 106.91 53.0442L107.432 54.4473C107.601 54.915 107.795 55.3784 107.938 55.8546C108.245 56.8026 108.57 57.7422 108.865 58.6944L109.699 61.5554ZM39.8483 142.327C39.9157 143.267 39.9452 144.202 40.1011 145.134C40.2443 145.964 40.5435 146.764 40.6698 147.594C40.6783 147.653 40.6698 147.708 40.6488 147.759C40.8974 147.885 41.1459 148.011 41.3945 148.129C41.4577 148.184 41.5293 148.226 41.6136 148.26C41.6852 148.311 41.7779 148.344 41.879 148.357C41.9212 148.374 41.9633 148.386 42.0054 148.399C42.0181 148.407 42.0349 148.412 42.0476 148.42C42.0476 148.42 42.0476 148.42 42.0518 148.42C42.0476 148.424 42.0434 148.433 42.0391 148.437C44.171 149.436 46.3787 150.266 48.637 150.902L49.3406 151.1C49.4965 151.142 49.6482 151.188 49.8041 151.226C49.8926 151.268 49.9937 151.298 50.0948 151.315C50.6299 151.386 51.1523 151.584 51.6705 151.745C51.8349 151.795 51.9781 151.782 52.1003 151.736L52.1845 151.753C52.4205 151.808 52.6649 151.833 52.905 151.871L54.3459 152.094C54.5861 152.128 54.822 152.178 55.0664 152.195L55.791 152.259L57.2404 152.385C57.4805 152.414 57.7249 152.414 57.9693 152.419L58.6982 152.436L59.5197 152.457C59.5197 152.452 59.5197 152.444 59.5197 152.436C59.524 152.436 59.524 152.436 59.5282 152.436C59.7641 152.461 60 152.469 60.236 152.482C60.2781 152.49 60.3245 152.503 60.3708 152.507C60.7037 152.545 61.0028 152.566 61.323 152.541C61.3314 152.541 61.3441 152.541 61.3525 152.541C61.3525 152.541 61.3525 152.541 61.3525 152.537C61.4115 152.532 61.4705 152.528 61.5294 152.516C61.6137 152.503 61.6853 152.469 61.7527 152.419C65.0938 152.254 68.4054 151.66 71.6074 150.704C71.7591 150.657 71.9108 150.607 72.0625 150.561C72.172 150.594 72.29 150.594 72.3995 150.552C72.8082 150.384 73.2169 150.211 73.6213 150.042C75.4162 149.406 77.1731 148.652 78.8752 147.792C78.871 147.784 78.871 147.78 78.8668 147.771C78.8626 147.75 78.8584 147.733 78.8541 147.712C78.9174 147.7 78.9805 147.679 79.0395 147.645C79.0522 147.641 79.0606 147.636 79.069 147.628C79.2628 147.556 79.444 147.468 79.6252 147.371C79.6252 147.379 79.6252 147.388 79.6252 147.396C80.4931 146.937 81.3484 146.452 82.191 145.938C82.4017 145.82 82.5997 145.677 82.8061 145.547L83.4171 145.146L84.6347 144.346L85.8102 143.482L86.4 143.048C86.598 142.905 86.796 142.761 86.9814 142.606L88.1106 141.679C88.4855 141.367 88.8732 141.072 89.2271 140.735L90.3099 139.753L90.8534 139.26C91.0345 139.096 91.2031 138.919 91.3758 138.746C91.38 138.742 91.3842 138.733 91.3927 138.729C91.4727 138.695 91.5485 138.636 91.6244 138.556C91.7634 138.4 91.9025 138.249 92.0457 138.097C92.4123 137.768 92.7662 137.44 93.0737 137.056C93.1074 137.018 93.1285 136.981 93.1496 136.938C95.2562 134.709 97.2027 132.32 98.968 129.801C101.222 126.59 103.206 123.173 104.904 119.617L105.528 118.273L105.84 117.603C105.945 117.38 106.034 117.148 106.13 116.92L106.695 115.555C106.88 115.096 107.087 114.649 107.247 114.182C107.584 113.255 107.934 112.328 108.254 111.396L109.156 108.573C111.405 100.989 112.488 93.0594 112.513 85.1381C112.48 77.2168 111.389 69.2913 109.139 61.7071L108.237 58.884C107.913 57.9529 107.567 57.0259 107.23 56.099C107.07 55.6313 106.864 55.1804 106.678 54.7254L106.109 53.3602C106.012 53.1327 105.924 52.9009 105.823 52.6776L105.511 52.0077L104.888 50.6678C103.19 47.1116 101.205 43.6987 98.9469 40.4923C96.6929 37.2816 94.1481 34.2859 91.3505 31.564C91.1778 31.3954 91.0093 31.2143 90.8281 31.0499L90.2846 30.5612L89.1976 29.5836C88.8437 29.2508 88.4518 28.9558 88.0769 28.644L86.9435 27.7255C86.7581 27.5654 86.5601 27.4264 86.3621 27.2831L85.7722 26.8533L84.5968 25.9938L83.3749 25.1974L82.764 24.8014C82.5618 24.6707 82.3638 24.5275 82.1489 24.4137C78.8331 22.4039 75.2771 20.7986 71.5695 19.7157C67.8661 18.6371 64.0152 18.064 60.1601 18.0683C56.3051 18.0851 52.4584 18.6624 48.7634 19.7579C45.0642 20.8491 41.5209 22.4671 38.2178 24.4811C38.0071 24.5991 37.8091 24.7424 37.6068 24.873L36.9917 25.2817L35.7783 26.0823L34.6113 26.9502L34.0256 27.38C33.8318 27.5275 33.6338 27.6665 33.4484 27.8224L32.3277 28.7494C31.9569 29.0612 31.5693 29.3561 31.2196 29.6974L30.1453 30.6834L29.6102 31.1805C29.4332 31.3449 29.2647 31.526 29.0919 31.6946C26.3239 34.4291 23.8297 37.4502 21.6261 40.6735C17.2149 47.1243 13.9497 54.3504 11.7377 61.8756L10.9667 64.7197L10.8698 65.0736L10.7856 65.436L10.6212 66.1523L10.2926 67.5891L10.1283 68.3096L9.99348 69.0343L9.7154 70.4837C9.51738 71.4444 9.38256 72.4219 9.23931 73.3952C8.66632 77.2842 8.35454 81.2196 8.29134 85.1592C8.25763 89.0988 8.46408 93.0468 8.95703 96.9611C9.08342 97.9386 9.19297 98.9204 9.37413 99.8937L9.6185 101.352L9.74068 102.08C9.78703 102.325 9.8418 102.565 9.89236 102.805L10.1999 104.255L10.3516 104.979L10.4274 105.342L10.5201 105.7L11.249 108.569C12.2939 112.378 13.6548 116.099 15.2811 119.697C16.9074 123.295 18.8412 126.754 21.0658 130.016C23.2946 133.268 25.8267 136.319 28.6411 139.066C28.8181 139.239 28.9866 139.42 29.1678 139.584L29.7155 140.082L29.745 140.107C29.7913 140.17 29.8503 140.221 29.9177 140.267C30.1495 140.423 30.3812 140.587 30.6087 140.756C30.5919 140.785 30.575 140.815 30.5539 140.84L30.8109 141.072C31.1691 141.409 31.5609 141.704 31.9401 142.02L33.0819 142.951C33.2672 143.111 33.4695 143.25 33.6675 143.393L34.2616 143.827L35.4539 144.691L36.6884 145.488H36.6926C35.6688 139.29 35.989 132.708 36.9875 126.54C37.7922 121.547 39.191 116.676 41.1207 112.012C41.0448 111.986 40.9774 111.948 40.9269 111.898C40.0126 110.937 39.2711 109.892 38.7149 108.691C38.5506 108.342 39.0225 108.055 39.2374 108.388C39.7977 109.26 40.4423 110.057 41.1881 110.769C41.7484 109.909 42.3172 109.05 42.8481 108.169C43.2357 107.528 44.1415 108.089 43.8382 108.746C42.3509 111.953 41.1291 115.277 40.1685 118.677C42.2919 119.423 44.1837 120.674 45.8226 122.233C46.3198 122.701 46.1217 123.426 45.6246 123.784C43.973 124.955 41.7821 125.238 39.8904 124.504C39.5618 124.378 39.2079 124.214 38.9087 123.999C38.7276 124.917 38.5632 125.836 38.4242 126.759C38.3779 127.066 38.3315 127.374 38.2894 127.681C39.9957 127.74 41.6389 128.297 43.0419 129.283C43.657 129.717 44.5291 130.26 44.664 131.061C44.7946 131.823 44.2174 132.514 43.6486 132.94C42.3973 133.875 40.1558 134.25 38.7571 133.458C38.3231 133.214 38.0113 132.894 37.7922 132.531C37.7164 133.698 37.67 134.87 37.6574 136.041C37.6574 136.167 37.6574 136.294 37.6574 136.42C37.7796 136.399 37.906 136.399 38.045 136.424C39.2079 136.652 40.4255 136.926 41.4367 137.57C42.2329 138.076 43.2483 138.999 43.1767 140.048C43.025 142.264 39.4733 141.375 37.7964 140.646C37.9018 142.268 38.0492 143.891 38.1925 145.525C38.2009 145.639 38.1841 145.74 38.1461 145.829C38.1798 145.867 38.2093 145.913 38.2135 145.968C38.2388 146.136 38.2852 146.318 38.3062 146.499C38.8455 146.815 39.3932 147.122 39.9452 147.413C39.368 145.867 39.3174 143.87 39.566 142.315C39.5871 142.113 39.8398 142.172 39.8483 142.327ZM41.8748 122.878C41.7737 122.828 41.6726 122.777 41.5757 122.714C41.5504 122.756 41.5209 122.802 41.4914 122.844C41.622 122.865 41.7484 122.878 41.8748 122.878Z" fill="#1D1D1B"/>
<path d="M108.861 111.603L109.687 108.729C111.717 101.027 112.691 93.0846 112.724 85.1465C112.703 77.2041 111.734 69.2575 109.704 61.5553L108.878 58.6817C108.579 57.7295 108.254 56.7899 107.951 55.8419C107.803 55.3657 107.614 54.9023 107.445 54.4346L106.923 53.0315C106.834 52.7997 106.754 52.5638 106.657 52.332L106.367 51.641L105.785 50.259C104.197 46.5975 102.322 43.0456 100.135 39.6832C97.9444 36.3251 95.4544 33.1439 92.6316 30.2662C89.8172 27.3884 86.6952 24.7718 83.253 22.6229C79.8234 20.4656 76.1032 18.7423 72.206 17.5668C68.3087 16.3786 64.2346 15.7676 60.1562 15.7466C56.0778 15.7466 51.9994 16.3533 48.0938 17.5204C44.1881 18.6876 40.4552 20.4024 37.013 22.5513C36.7897 22.6735 36.5875 22.8252 36.3768 22.9642L35.7449 23.3898L34.4851 24.2409L33.2717 25.1552L32.665 25.6145C32.4628 25.7662 32.2563 25.9136 32.0667 26.0822L30.9039 27.0597C30.5205 27.3884 30.1202 27.7002 29.7579 28.0541L28.6498 29.0864L28.0937 29.6046C27.9125 29.7774 27.7398 29.967 27.5628 30.144C24.7105 33.0091 22.1699 36.165 19.9285 39.5105C15.4498 46.2099 12.1762 53.6593 10.0612 61.391L9.33227 64.3067L9.23958 64.6691L9.16374 65.0356L9.01207 65.7688L8.7045 67.2393C8.65394 67.4837 8.60339 67.7323 8.55704 67.9766L8.43486 68.7182L8.19049 70.2013C8.00932 71.1873 7.89978 72.1817 7.7776 73.176C7.29308 77.1451 7.07821 81.1479 7.11191 85.1381C7.1709 89.1324 7.4911 93.1141 8.05567 97.0622C8.20313 98.0481 8.32953 99.0383 8.53176 100.012L8.80562 101.482L8.94466 102.215L9.10897 102.944L9.4376 104.402L9.60192 105.131L9.68618 105.493L9.78308 105.856L10.5541 108.742C12.7702 116.394 16.0608 123.75 20.4973 130.378C22.7134 133.694 25.2161 136.82 28.0221 139.669C28.1948 139.85 28.3633 140.035 28.5445 140.208L29.088 140.726L30.1792 141.759C30.5331 142.112 30.925 142.42 31.3041 142.753L32.4459 143.73C32.6313 143.895 32.8335 144.046 33.0316 144.198L33.6256 144.657L34.818 145.576L36.0566 146.431L36.676 146.857C36.8824 146.996 37.0847 147.148 37.3038 147.27C40.6912 149.427 44.3567 151.171 48.216 152.376C52.071 153.577 56.1115 154.23 60.1646 154.277C64.2177 154.294 68.2835 153.725 72.1723 152.57C76.0653 151.424 79.7813 149.718 83.2193 147.577C86.6573 145.441 89.7877 142.846 92.6105 139.976C95.4334 137.103 97.9276 133.926 100.118 130.576C102.309 127.218 104.184 123.67 105.773 120.009L106.354 118.627L106.645 117.936C106.742 117.704 106.822 117.472 106.91 117.236L107.433 115.837C107.601 115.37 107.795 114.906 107.938 114.43C108.237 113.495 108.566 112.555 108.861 111.603ZM118.231 71.7898C118.863 76.2097 119.162 80.676 119.179 85.1465C119.171 89.6128 118.876 94.079 118.244 98.5032C117.612 102.923 116.668 107.301 115.391 111.569C114.755 113.705 114.039 115.816 113.243 117.894C112.442 119.971 111.566 122.018 110.609 124.024C108.697 128.035 106.464 131.891 103.919 135.51C101.378 139.138 98.5132 142.521 95.3533 145.593C93.7734 147.126 92.1218 148.584 90.3902 149.937C88.667 151.298 86.8637 152.558 84.993 153.699C81.2559 155.992 77.2534 157.833 73.0655 159.089C68.8775 160.34 64.5211 161.006 60.1478 161.052C57.9611 161.065 55.7702 160.938 53.6004 160.643C51.4306 160.353 49.2777 159.897 47.1627 159.308C42.9326 158.115 38.8711 156.316 35.0834 154.049C31.2873 151.787 27.7903 149.018 24.6051 145.93C21.4284 142.829 18.576 139.395 16.0608 135.725C13.5497 132.051 11.3715 128.149 9.54293 124.087C7.71019 120.03 6.18079 115.829 5.00531 111.535C2.62906 102.948 1.56733 94.02 1.66845 85.1381C1.73586 80.6929 2.0687 76.2561 2.72175 71.8699C3.04617 69.6747 3.45063 67.4963 3.9183 65.3306C4.38597 63.1649 4.92947 61.016 5.54881 58.8924C8.03882 50.4065 11.7169 42.2535 16.6927 34.9768C19.1785 31.3406 21.9887 27.9361 25.1149 24.8561C28.2369 21.7802 31.6749 19.0162 35.3994 16.7367C39.1239 14.4572 43.1138 12.6244 47.2891 11.3941C51.4601 10.1637 55.7955 9.51907 60.1435 9.50643C64.4916 9.498 68.8312 10.1342 73.0149 11.3435C77.1944 12.5654 81.1969 14.3856 84.9383 16.6567C86.8089 17.7901 88.6122 19.0415 90.3354 20.394C92.067 21.7423 93.727 23.1875 95.307 24.717C98.4669 27.7844 101.336 31.1636 103.877 34.783C106.426 38.4023 108.663 42.2492 110.576 46.2605C111.532 48.2661 112.413 50.3096 113.213 52.3868C114.009 54.4683 114.726 56.575 115.362 58.7112C116.655 62.9963 117.595 67.3699 118.231 71.7898Z" fill="#47AD4B"/>
<path d="M74.2153 8.68065C71.5863 7.05426 68.953 5.44471 66.2861 3.87731C64.9547 3.0936 63.6276 2.30569 62.3004 1.51777C61.2007 0.864682 59.9916 -0.0327855 58.6518 0.000922233C57.5437 0.026203 56.5283 1.03743 55.6941 1.67367C54.6323 2.48686 53.5959 3.32534 52.5847 4.20174C50.3981 6.0978 48.2704 8.12026 46.4503 10.3745C46.3702 10.4756 46.4966 10.6104 46.5935 10.5177C48.4811 8.71015 50.3433 6.88993 52.3572 5.22561C53.3852 4.37871 54.4428 3.5613 55.5213 2.78181C56.5662 2.0276 57.7375 0.881536 59.1278 1.27339C60.3497 1.61889 61.5125 2.67226 62.5574 3.36748C63.7371 4.15539 64.9168 4.94331 66.0923 5.73544C68.4475 7.3197 70.8279 8.8534 73.2168 10.3829C74.2912 11.0739 75.2939 9.35059 74.2153 8.68065Z" fill="#1D1E1B"/>
<path d="M59.1198 2.65168C58.8038 2.33567 58.3404 2.2177 57.9106 2.33146C57.898 2.33567 57.8853 2.33567 57.8727 2.33989C57.7758 2.38202 57.6747 2.42416 57.5778 2.46629C57.4345 2.54213 57.3166 2.65168 57.2323 2.7823C57.0722 2.98876 56.9542 3.25842 56.9669 3.52808C56.9753 3.74718 57.0343 3.95786 57.1354 4.15168C57.2744 4.41712 57.5862 4.64465 57.8727 4.72049C57.8853 4.72471 57.898 4.72471 57.9106 4.72892C58.3277 4.83847 58.8207 4.73313 59.1198 4.4087C59.3431 4.16432 59.4822 3.86516 59.4822 3.52808C59.4822 3.21629 59.3431 2.87921 59.1198 2.65168Z" fill="#1D1E1B"/>
<path d="M76.7394 85.0747C74.1778 83.7728 71.4602 82.8921 68.6374 82.4834C68.8733 81.8851 68.945 81.2531 68.8649 80.6422C70.4196 80.5874 71.9785 80.6801 73.55 80.916C73.9292 80.975 74.0977 80.3978 73.7101 80.3346C72.0585 80.0565 70.3943 79.9764 68.7427 80.0733C68.6374 79.7194 68.4815 79.3823 68.2793 79.0747C68.4352 79.0579 68.5911 79.041 68.7469 79.0242C71.1695 78.7629 73.4994 78.9905 75.9136 79.0747C76.217 79.0832 76.2928 78.5944 75.9852 78.5354C73.4952 78.0551 70.7356 78.27 68.2414 78.6365C68.1529 78.6492 68.0644 78.6618 67.9759 78.6745C67.6304 78.2868 67.1923 77.9624 66.674 77.7475C65.5491 77.2798 64.2683 77.4399 63.1392 77.8065C62.0269 78.1688 60.8303 78.7124 59.7686 79.3276C60.3205 78.2068 60.4259 76.968 60.2278 75.6829C60.1646 75.2742 59.6001 75.1941 59.3431 75.4512C58.9849 75.8051 58.6774 76.2138 58.433 76.652C58.2224 76.2222 57.9232 75.8514 57.4387 75.6366C56.7056 75.3079 55.7492 75.3795 55.2731 76.1042C54.7802 76.8542 55.1383 77.8107 55.6397 78.4512C55.7197 78.5523 55.804 78.6408 55.9009 78.7292C54.1355 78.468 52.2986 78.4343 50.6976 78.9231C49.5305 79.2812 48.4646 80.0818 47.9463 81.1436C45.3089 81.2657 42.6883 81.6702 40.1098 82.3697C39.7516 82.4666 39.9033 83.027 40.2614 82.9258C42.722 82.2306 45.233 81.7882 47.7652 81.5986C47.6135 82.0832 47.5671 82.6098 47.6725 83.166C47.6978 83.3051 47.7357 83.4357 47.7778 83.5621C46.9015 83.7938 46.0335 84.0551 45.1825 84.3711C43.2023 85.1084 40.6575 86.1997 39.4104 87.9946C39.305 88.1463 39.5115 88.3401 39.6632 88.2475C40.6027 87.6576 41.399 86.8654 42.3554 86.2882C43.4635 85.6182 44.6516 85.0789 45.8734 84.6407C46.5686 84.3921 47.2722 84.1857 47.98 83.9919C48.3382 84.6028 48.9364 84.9778 49.6274 85.218C48.4056 86.0733 47.3101 87.114 46.5433 88.3064C46.3664 88.5803 46.7751 88.9005 46.9942 88.6562C48.098 87.4469 49.1555 86.3598 50.3605 85.416C51.2706 85.6056 52.2565 85.6267 53.0527 85.6562C54.2535 85.6983 55.5217 85.5466 56.5623 85.0326C56.5792 85.2053 56.6298 85.3781 56.7182 85.5508C57.0595 86.2039 57.7378 86.4989 58.4541 86.4989C59.2167 86.4989 59.9119 86.1407 60.4048 85.5719C60.6112 85.3317 60.8388 85.0073 60.9736 84.666C61.3612 84.7882 61.7783 84.8851 62.2207 84.9399C64.3778 85.2138 67.2597 85.0663 68.4436 82.9174C68.4815 82.85 68.511 82.7868 68.5447 82.7194C71.3465 83.1365 74.0303 84.0424 76.5203 85.4666C76.7647 85.6014 76.9922 85.2053 76.7394 85.0747ZM59.0608 84.9483C58.5721 85.3022 57.3713 85.2727 57.1522 84.6744C57.7336 84.2657 58.2097 83.7138 58.5089 82.968C58.8248 83.3978 59.2125 83.7559 59.6591 84.0508C59.5158 84.3753 59.381 84.7166 59.0608 84.9483ZM67.167 82.6604C66.0041 83.9961 63.6574 83.8107 62.0732 83.4947C60.2152 83.1197 59.2419 82.0958 58.2561 80.5368C58.037 80.1871 57.5356 80.4188 57.6114 80.8107C57.7505 81.5565 58.0075 82.2011 58.3572 82.7447C58.3066 82.7362 58.2561 82.7489 58.2181 82.7952C57.0511 84.2236 55.29 84.7461 53.4993 84.7166C52.9769 84.7081 52.2312 84.6997 51.4854 84.607C51.9405 84.3121 52.4166 84.034 52.9306 83.7728C53.0822 83.6969 52.9727 83.4315 52.8126 83.4947C52.1301 83.7643 51.4391 84.0972 50.765 84.4848C50.0951 84.3416 49.4799 84.1056 49.0965 83.7011C50.4995 83.364 51.9152 83.086 53.3224 82.7657C53.4614 82.7362 53.4319 82.4961 53.2887 82.5171C51.7972 82.7152 50.2973 82.9638 48.8227 83.3008C48.6963 83.0228 48.6499 82.6899 48.7216 82.2854C48.7721 82.0031 48.8606 81.7503 48.9701 81.527C50.5501 81.4596 52.1343 81.4933 53.7142 81.6239C53.9038 81.6407 53.8996 81.35 53.7142 81.3289C52.2185 81.1604 50.7228 81.0888 49.2314 81.1014C50.904 78.9652 55.8587 79.8922 58.2013 80.3767C58.2434 80.4315 58.2856 80.4905 58.3235 80.5495C58.5889 80.9834 59.1914 80.7264 59.1661 80.2714C59.1872 80.2461 59.2082 80.2208 59.2293 80.1955C59.2925 80.1113 59.3515 80.027 59.4105 79.9427C61.2306 79.5129 63.0001 78.4806 64.8919 78.5144C65.4312 78.5228 65.9452 78.6787 66.3918 78.9357C64.6517 79.2728 62.9159 79.8121 61.5887 80.9624C61.5719 80.975 61.5929 81.0045 61.6098 80.9919C63.1434 80.0143 65.014 79.5424 66.851 79.2601C67.1543 79.5172 67.4029 79.829 67.5672 80.1702C66.0379 80.343 64.5211 80.6674 63.0465 81.1436C62.7937 81.2236 62.899 81.6197 63.156 81.5438C64.677 81.1098 66.2064 80.836 67.7442 80.7053C67.8495 81.2278 67.7568 81.7882 67.4029 82.3317C66.9943 82.2938 66.5856 82.2643 66.1727 82.2433C66.0252 82.2348 66.0252 82.4624 66.1727 82.4708C66.5308 82.4876 66.8889 82.5171 67.2428 82.5508C67.2176 82.5888 67.1965 82.6225 67.167 82.6604Z" fill="#1D1D1B"/>
<path d="M52.6147 68.8154C52.0839 67.5556 51.4814 65.7733 50.4449 64.8379C48.3678 62.9503 45.8568 65.3267 45.1574 67.3112C44.6771 68.6722 44.5759 70.2227 44.5886 71.6511C44.597 72.7761 44.3021 74.5542 45.1616 75.4474C45.3975 75.6918 45.7304 75.3842 45.604 75.1061C44.9594 73.7157 45.5829 71.5331 45.7388 70.0542C45.9073 68.4868 46.3076 66.2916 47.9549 65.6006C49.1599 65.095 49.7835 65.9334 50.348 66.8857C50.8536 67.7368 51.355 68.5921 51.7215 69.5149C52.3535 71.116 52.442 72.5696 52.2608 74.2171C51.6541 74.2929 51.0306 74.3646 50.4028 74.4446C50.4576 74.3603 50.4871 74.2592 50.4744 74.1413C50.3186 72.6539 50.0953 71.1371 49.7582 69.6792C49.5981 69.0008 49.2484 68.1961 48.4058 68.293C47.3272 68.4152 47.2176 70.1595 47.0828 70.9432C46.8595 72.2578 46.8132 73.7199 47.2429 75.005C46.5056 75.1904 45.7851 75.4221 45.1026 75.7255C45.052 75.7466 45.0815 75.8224 45.1279 75.8224C46.2402 75.8393 47.3777 75.7002 48.5069 75.5359C48.8144 75.6075 49.1557 75.5612 49.4296 75.4011C49.9478 75.3252 50.4618 75.2494 50.9716 75.1946C51.4603 75.1398 52.4715 75.1988 52.8633 74.8912C53.2257 74.6047 53.3141 73.8674 53.3731 73.4671C53.6175 71.8618 53.2425 70.2944 52.6147 68.8154Z" fill="#1D1D1B"/>
<path d="M69.5686 67.9509C69.299 66.4214 68.5785 63.6405 66.6826 63.4383C64.8119 63.2403 63.3963 65.5324 62.7854 66.9945C61.9174 69.0801 61.6689 71.6461 61.9638 73.8877C61.7278 74.1068 61.8163 74.6166 62.2292 74.6124C63.569 74.5955 64.9425 74.5703 66.3034 74.6124C66.434 74.8652 66.8132 74.9116 66.9606 74.6419C67.6769 74.6756 68.3889 74.7346 69.0883 74.8273C69.2147 74.8441 69.3622 74.722 69.3832 74.5998C69.8256 72.4509 69.9478 70.1166 69.5686 67.9509ZM68.785 74.1911C68.2372 74.1531 67.6895 74.111 67.1418 74.0689C67.6642 72.0717 68.4268 67.656 65.7599 67.4158C63.0803 67.1714 63.3836 72.1981 63.767 73.8371C63.2699 73.8161 62.7727 73.7992 62.2713 73.795C62.5073 72.097 62.4357 70.3779 62.8823 68.6967C63.2362 67.3779 64.9172 63.3287 66.9775 64.361C67.7822 64.7655 68.212 66.2445 68.4395 67.0324C68.6838 67.8877 68.806 68.7725 68.8524 69.6574C68.9408 71.1742 68.7934 72.6784 68.785 74.1911Z" fill="#1D1D1B"/>
<path d="M103.864 76.1376C101.901 74.3764 99.2088 73.4495 96.584 73.8919C93.8623 74.3511 91.9326 76.4537 90.576 78.7205C87.2349 84.2907 84.8123 90.8173 84.0497 97.3229C83.5525 96.5561 83.0301 95.8103 82.4782 95.0814C81.4923 93.7836 80.3926 92.3426 79.0781 91.3145C79.3351 91.1123 79.5837 90.9016 79.8154 90.6867C82.2169 88.4789 83.6326 85.3104 84.4879 82.2092C84.5426 82.0112 84.5932 81.809 84.6395 81.6109C84.9218 81.2444 85.0482 80.7682 84.9176 80.3553C85.2378 78.691 85.3811 76.9972 85.3642 75.3034C85.4148 74.9958 85.3937 74.6545 85.3347 74.2964C85.1704 71.0899 84.4162 67.9088 83.1017 64.9846C82.4065 63.4383 81.5513 61.9678 80.5401 60.6026C79.9502 59.8021 79.2298 58.854 78.3745 58.1967C78.404 58.1335 78.4293 58.0661 78.4461 57.9903C79.0023 55.1251 78.8885 52.3527 78.3071 49.5044C78.206 48.9987 77.4687 48.6575 77.0347 48.9861C75.3368 50.2754 73.6515 51.5732 71.9831 52.8962C71.2205 53.5029 70.3441 54.531 69.3203 54.4299C68.3681 54.3372 67.4033 54.0001 66.4553 53.84C62.773 53.2291 59.0022 53.1237 55.303 53.6209C51.5659 54.1265 47.9172 55.1504 44.5045 56.7642C43.6956 57.1476 43.0257 57.5184 42.1241 57.1349C41.7786 56.9875 41.4668 56.722 41.155 56.5198C40.4051 56.0352 39.6383 55.6097 38.8167 55.2599C37.0851 54.5184 35.2902 54.1813 33.428 53.9875C32.8971 53.9327 32.539 54.5395 32.6612 54.9945C33.3859 57.7627 34.2959 60.6532 35.8127 63.097C35.8169 63.1012 35.8169 63.1012 35.8211 63.1054C31.2119 68.2838 28.7977 75.3371 30.0532 82.2472C30.9843 87.3707 33.8114 92.1025 37.9951 95.1193C36.2172 98.0645 34.6035 101.098 33.0151 104.157C31.4225 107.225 29.733 110.275 28.3806 113.456C27.934 114.51 27.5422 115.588 27.243 116.684C27.2388 116.688 27.2388 116.688 27.2346 116.692C26.9312 117.008 26.8638 117.404 26.9776 117.771C26.6447 119.33 26.5057 120.923 26.6574 122.545C26.9312 125.465 27.9508 128.233 29.3623 130.786C31.0391 133.82 33.2216 136.626 35.5473 139.188C36.2804 139.993 37.4137 138.817 36.727 138.008C33.0488 133.635 29.0884 128.764 28.4227 122.869C28.3048 121.812 28.3174 120.771 28.4269 119.747C29.3749 120.505 30.6599 120.821 31.8649 120.75C33.0572 120.678 34.515 120.055 33.9926 118.584C33.5628 117.375 31.9028 116.267 30.7358 115.887C30.2807 115.74 29.8047 115.685 29.3412 115.719C29.7667 114.442 30.3018 113.191 30.8874 111.956C31.2582 112.635 31.886 113.22 32.4126 113.722C33.1204 114.392 34.1021 115.352 35.0964 115.517C36.1202 115.685 37.0219 114.91 37.1272 113.894C37.241 112.812 36.5205 111.741 35.9222 110.899C35.3029 110.022 34.0937 108.476 32.8508 108.109C33.3437 107.178 33.8325 106.255 34.2833 105.345C35.8717 102.152 37.4306 98.9535 38.8167 95.6797C39.0863 95.8524 39.3644 96.0168 39.6467 96.1769C40.0807 97.5462 41.0876 98.8988 42.4106 99.3412C42.7392 99.4507 42.9414 99.021 42.7308 98.7892C42.2168 98.2288 41.6227 97.7527 41.1171 97.1839C40.9991 97.0491 40.8938 96.9142 40.7927 96.7752C41.0202 96.8805 41.2477 96.9859 41.4794 97.0828C43.1437 97.7864 44.1506 95.4564 42.4485 94.7822C40.2113 93.8974 38.1763 92.4943 36.4742 90.7584C37.38 89.8272 38.4628 88.2219 37.4727 87.2528C36.5331 86.3384 35.1386 87.1601 34.2117 87.9775C33.7271 87.2528 33.2932 86.4986 32.914 85.7148C34.5108 84.9227 37.6412 83.2289 36.5711 81.1812C35.7453 79.6011 32.796 79.8413 31.3467 80.6755C31.2203 79.8539 31.1402 79.0239 31.115 78.198C31.1908 78.3961 31.2919 78.5688 31.4352 78.6826C32.084 79.2261 33.1836 78.6236 33.8451 78.4171C34.949 78.0758 36.1708 77.802 37.0893 77.052C38.3111 76.0534 38.7029 74.2163 37.3968 73.1292C36.6006 72.4677 35.5515 72.375 34.5614 72.354C33.6387 72.3329 32.6444 72.2444 31.7512 72.5014C32.5896 69.1012 34.2117 65.8779 36.3941 63.177C36.4952 63.0549 36.4531 62.9032 36.3604 62.8231C36.0233 60.3835 35.2945 57.9776 34.5403 55.6223C36.3646 55.7908 38.1468 56.4102 39.731 57.3288C41.3573 58.2726 42.3853 59.0773 44.3191 58.4959C46.2235 57.9186 48.031 57.0886 49.9606 56.5746C50.2513 56.4987 50.5421 56.4229 50.8328 56.3555C50.6685 57.3372 51.6248 58.6349 52.5012 58.795C53.6935 59.0141 54.7637 57.7164 54.8859 56.5661C55.0249 56.7515 55.1766 56.9201 55.3156 57.0507C55.6737 57.3877 56.0908 57.6869 56.6006 57.6995C57.1736 57.7122 57.6792 57.392 57.9994 56.9285C58.1469 56.7178 58.2649 56.4608 58.3407 56.1953C58.4418 56.4819 58.5893 56.7473 58.7494 56.9411C58.9938 57.2319 59.4403 57.5184 59.9207 57.6827C61.0329 58.2136 62.4107 57.9186 63.4134 57.2698C63.9401 56.9285 64.5257 56.3175 64.7279 55.6855C65.9582 55.8498 67.1884 56.0731 68.4187 56.347C69.2066 56.524 69.927 56.6546 70.7107 56.3723C71.4733 56.0942 72.0926 55.4496 72.7077 54.9397C74.1318 53.7473 75.5432 52.5465 76.9462 51.3288C77.3044 53.3807 77.2496 55.5001 76.8662 57.5436C76.8156 57.8175 76.8915 58.0493 77.0305 58.2262C77.6709 59.5408 78.9054 60.6911 79.7185 61.8835C80.6665 63.2782 81.4712 64.7824 82.099 66.3498C82.6003 67.5928 82.9964 68.8736 83.2871 70.1798C82.2296 70.1967 81.1763 70.479 80.182 70.8245C79.314 71.1278 78.2607 71.4017 77.5319 71.9832C75.8592 73.3146 77.06 74.8778 78.581 75.5688C80.0682 76.2472 82.1369 76.7949 83.8517 76.5126C83.8264 77.1278 83.7716 77.7556 83.6958 78.3834C82.7605 78 81.5344 77.9326 80.5822 78.0042C79.6511 78.0716 78.9012 78.6236 78.6526 79.5379C78.0501 81.7753 80.241 82.955 82.0021 83.5281C82.1327 83.5702 82.2549 83.5786 82.3644 83.5618C82.0189 84.396 81.606 85.1924 81.1257 85.9382C80.6159 85.639 80.0598 85.4789 79.4573 85.441C78.8506 85.403 78.0374 85.462 77.5782 85.9087C77.1148 86.3637 77.1569 87.08 77.4729 87.6025C77.6203 87.8511 77.8352 88.0533 78.0669 88.2176C78.2734 88.3609 78.5262 88.4536 78.7116 88.6221C78.0332 89.1657 77.3001 89.646 76.5291 90.0674C74.8396 90.9901 72.9942 91.2008 71.1783 91.7401C70.2767 92.0098 70.1798 93.4466 71.1783 93.6656C71.6502 93.7668 72.1305 93.8131 72.6108 93.8089C72.4381 94.1965 72.2864 94.5884 72.0126 94.9423C71.6165 95.4479 71.1025 95.9114 70.5337 96.2148C70.2472 96.3665 70.4495 96.8805 70.757 96.7499C71.9999 96.2274 73.4661 95.1488 73.74 93.7204C75.3452 93.4803 76.9378 92.7808 78.2945 91.8665C79.0613 93.1137 80.0682 94.2345 80.8645 95.469C81.7409 96.8215 82.6046 98.1698 83.384 99.5856C84.5258 101.654 85.5075 103.82 86.3206 106.045C85.2505 106.491 84.3109 107.461 83.641 108.324C82.6551 109.597 82.8152 110.857 84.1213 111.83C85.1409 112.593 86.7461 112.845 87.8795 112.163C87.9511 112.121 88.0101 112.074 88.0691 112.032C88.2292 112.753 88.3682 113.473 88.4904 114.198C87.9806 114.265 87.454 114.548 87.0748 114.788C86.2237 115.327 85.5412 116.136 85.1409 117.059C84.7196 118.028 84.7786 119.102 85.5622 119.878C86.388 120.695 87.5761 120.779 88.6716 120.741C88.8359 120.737 88.9834 120.695 89.114 120.632C89.173 123.122 89.0171 125.616 88.6252 128.073C88.3092 130.057 87.9174 132.109 87.0242 133.925C86.4344 135.126 85.6128 136.163 84.6648 137.081C84.6985 136.504 84.7238 135.927 84.7322 135.354C84.7449 134.616 84.7364 133.883 84.7112 133.146C84.8544 132.859 84.8502 132.493 84.707 132.185C84.6901 132.151 84.6775 132.118 84.6648 132.08C84.5511 129.948 84.3025 127.824 83.9444 125.722C83.3924 122.477 82.5414 119.279 81.5176 116.153C80.6918 113.642 79.6722 110.823 77.6414 109.011C78.0248 108.434 78.4293 107.882 78.8422 107.321C79.1455 106.913 78.4672 106.39 78.1343 106.774C77.5656 107.431 77.001 108.076 76.3859 108.691C76.1457 108.931 76.1541 109.327 76.3859 109.567C78.4377 111.695 79.3941 114.286 80.2578 117.067C80.6244 118.243 80.9572 119.427 81.2648 120.619C80.1483 120.906 78.9728 121.66 78.0501 122.25C77.258 122.755 76.4659 123.543 76.6344 124.567C77.0052 126.826 80.8477 126.564 82.4487 126.189C82.5666 126.88 82.6678 127.571 82.7562 128.267C81.4796 128.515 80.1567 128.562 78.9517 129.08C78.0164 129.484 76.289 130.34 76.6387 131.612C76.9547 132.745 78.7158 133.281 79.7185 133.55C80.8519 133.854 82.0189 133.913 83.1691 133.761C83.1776 134.288 83.1818 134.819 83.1733 135.349C83.1691 135.653 83.1565 135.96 83.1481 136.264C83.1354 136.264 83.1228 136.26 83.1059 136.26C81.2437 136.15 78.1301 137.09 77.5571 139.163C76.7988 141.931 81.5344 140.637 82.8237 140.161C82.6383 141.526 82.2507 142.875 82.0821 144.236C82.0147 144.299 81.9642 144.379 81.9347 144.484C81.7619 145.095 81.6524 145.71 81.585 146.342C81.5176 146.987 82.5372 147.097 82.6973 146.494C82.7099 146.443 82.7225 146.393 82.7352 146.347C82.752 146.325 82.7689 146.304 82.7815 146.283C82.9964 146.254 83.1986 146.119 83.2871 145.845C83.3082 145.778 83.3292 145.71 83.3461 145.643C83.4725 145.538 83.561 145.386 83.5652 145.213C83.5652 145.179 83.5652 145.15 83.5652 145.116C83.5652 144.986 83.5188 144.847 83.4346 144.741C83.9781 143.338 84.1592 141.729 84.3573 140.258C84.3952 139.988 84.4247 139.715 84.4542 139.445C87.6941 137.591 89.3373 134.22 90.1083 130.677C90.6307 128.279 90.9341 125.827 91.0352 123.366C91.9621 121.26 92.9227 119.208 94.2035 117.248C95.8846 114.678 97.532 112.078 99.2215 109.508C102.659 104.271 106.03 98.8019 107.387 92.6039C108.596 87.1601 108.318 80.1278 103.864 76.1376ZM78.8717 86.9705C78.8548 86.962 78.838 86.9536 78.8211 86.9452C78.7537 86.9073 78.7242 86.8778 78.7116 86.8525C78.7916 86.8019 78.9054 86.7682 79.036 86.7471C78.9728 86.8103 78.9138 86.8862 78.8717 86.9705ZM81.3448 122.098C81.2563 122.039 81.1594 121.997 81.0541 121.984C81.2142 121.854 81.3659 121.719 81.5091 121.576C81.5386 121.702 81.5681 121.824 81.5976 121.951C81.5091 121.993 81.4249 122.043 81.3448 122.098ZM91.3596 81.7121C91.406 81.7795 91.4523 81.8511 91.4986 81.9185C91.3849 82.0365 91.2796 82.1587 91.1953 82.2935C91.1658 82.2682 91.1363 82.2472 91.1068 82.2219C91.1026 82.2177 91.0984 82.2177 91.0942 82.2135C91.1784 82.0491 91.2669 81.8848 91.3596 81.7121ZM86.7209 107.73C86.6282 107.73 86.5355 107.734 86.447 107.747C86.3838 107.755 86.3248 107.772 86.2658 107.785C86.4302 107.616 86.5987 107.456 86.7714 107.3C86.7841 107.338 86.7967 107.372 86.8051 107.41C86.7461 107.503 86.7124 107.616 86.7209 107.73ZM103.245 97.7653C103.018 97.4072 102.794 97.0491 102.571 96.6867C102.777 96.9227 102.996 97.1502 103.228 97.3735C103.275 97.4156 103.321 97.4535 103.371 97.4873C103.329 97.5842 103.287 97.6726 103.245 97.7653ZM105.019 92.6586C104.539 91.8286 103.856 91.1207 103.026 90.5983C101.842 89.8525 99.6596 89.2457 98.4884 90.3202C97.0727 91.6179 98.7285 93.6235 99.5206 94.7738C100.498 96.1937 101.535 97.58 102.798 98.7513C102.369 99.6698 101.909 100.576 101.421 101.469C100.717 100.167 99.7734 98.9367 98.5895 98.0729C97.2286 97.0828 95.3706 97.1418 94.4816 98.7134C93.6684 100.15 94.2583 101.734 95.0757 103.015C95.6444 103.904 96.2511 104.772 96.8536 105.64C97.2118 106.154 97.5614 106.711 97.9575 107.22C97.7173 107.591 97.4772 107.966 97.237 108.333C95.577 110.886 93.7864 113.465 92.4677 116.216C91.9958 117.202 91.4986 118.209 91.0352 119.237C90.6981 112.555 88.8865 105.931 85.6802 100.057C85.36 99.4718 85.0272 98.8903 84.6775 98.3215C85.3432 96.1895 86.0341 94.0786 86.7925 91.9887C87.2812 92.9452 88.3135 93.8468 88.9834 94.3777C90.0282 95.2036 91.6967 96.1052 92.8469 94.9339C94.0181 93.7415 92.8132 91.66 92.2065 90.4718C91.4017 88.896 90.3147 87.5688 89.0676 86.3384C89.51 85.3525 89.9777 84.375 90.4706 83.4059C90.9425 84.3876 91.8062 85.2556 92.573 85.9677C93.4283 86.7598 94.6206 87.889 95.8467 87.9775C97.1949 88.0744 97.928 86.903 97.8774 85.6811C97.8227 84.2949 97.1317 82.8792 96.4239 81.7205C95.9394 80.9284 94.806 79.125 93.5715 78.2275C94.2035 77.486 94.9366 76.8624 95.8088 76.4705C97.9406 75.5141 100.561 76.2641 102.247 77.7556C106.291 81.3286 106.228 87.8089 105.019 92.6586ZM100.304 92.469C100.317 92.5112 100.33 92.5575 100.342 92.5996C100.33 92.5744 100.321 92.5491 100.308 92.5238C100.275 92.448 100.19 92.0772 100.077 92.0182C100.132 92.014 100.207 92.0224 100.283 92.035C100.258 92.1741 100.262 92.3173 100.304 92.469ZM90.34 93.0336C90.2768 92.9999 90.2136 92.9704 90.1546 92.9367C90.1926 92.9367 90.2305 92.9409 90.2684 92.9409C90.3147 92.9367 90.3611 92.9325 90.4074 92.9241C90.3821 92.9536 90.3611 92.9915 90.34 93.0336Z" fill="#1D1D1B"/>
<path d="M74.4219 105.56C73.1663 102.657 70.3646 100.437 67.3479 99.5941C64.4324 98.7809 60.4677 99.118 58.2221 101.355C56.6506 100.214 54.5777 99.8259 52.6059 100.235C49.4418 100.892 46.8549 103.31 45.4729 106.159C45.4477 106.209 45.5151 106.268 45.553 106.222C47.3436 104.124 49.248 102.017 52.0076 101.254C54.683 100.517 57.6912 101.393 58.9721 103.985C59.3133 104.671 60.3793 104.06 60.0043 103.382C59.663 102.763 59.2333 102.232 58.7403 101.781C61.4747 100.728 64.0616 99.8891 67.0446 100.711C69.9348 101.507 72.0709 103.53 73.5118 106.096C73.8531 106.706 74.6873 106.171 74.4219 105.56Z" fill="#1D1D1B"/>
<path d="M40.5315 32.2925C36.2172 36.329 32.1809 40.6688 27.8877 44.7348C27.4874 45.114 28.0941 45.7166 28.4901 45.3373C32.7708 41.2924 37.1651 37.2306 40.9865 32.7433C41.252 32.4357 40.8391 32.006 40.5315 32.2925Z" fill="#1D1D1B"/>
<path d="M23.1178 67.0288C21.1461 69.0218 19.1869 71.019 17.2362 73.0288C17.0087 73.2648 17.3626 73.6187 17.5985 73.3912C19.6082 71.4403 21.6095 69.4811 23.5981 67.5092C23.9057 67.2016 23.4254 66.717 23.1178 67.0288Z" fill="#1D1D1B"/>
<path d="M25.591 90.6244C22.4648 93.6581 19.406 96.7592 16.3262 99.8434C16.0565 100.113 16.4737 100.534 16.7475 100.265C19.8316 97.1889 22.9325 94.1257 25.966 90.9994C26.2019 90.755 25.8354 90.3884 25.591 90.6244Z" fill="#1D1D1B"/>
<path d="M61.8962 29.4527C58.8796 32.2968 55.9893 35.2842 53.0906 38.2462C52.8421 38.499 53.2255 38.8825 53.4783 38.6339C56.4401 35.7308 59.4273 32.8446 62.2712 29.8277C62.5029 29.5791 62.1448 29.221 61.8962 29.4527Z" fill="#1D1D1B"/>
<path d="M74.633 34.2688C72.6275 36.2238 70.6473 38.2042 68.6629 40.1803C68.3385 40.5047 68.8441 41.0103 69.1685 40.6859C71.1529 38.7098 73.1373 36.7337 75.0965 34.7323C75.3956 34.4331 74.9364 33.9738 74.633 34.2688Z" fill="#1D1D1B"/>
<path d="M91.7171 51.797L86.6655 56.8658C86.3074 57.2239 86.8635 57.7843 87.2216 57.422L92.2901 52.37C92.6693 52.0035 92.0879 51.422 91.7171 51.797Z" fill="#1D1D1B"/>
<path d="M99.4276 64.3492C96.4489 67.3829 93.4659 70.4166 90.4872 73.4545C90.2344 73.7115 90.6262 74.0991 90.879 73.8463C93.9125 70.8674 96.9502 67.8885 99.9837 64.9054C100.35 64.5514 99.7857 63.9868 99.4276 64.3492Z" fill="#1D1D1B"/>
<path d="M101.96 118.147C99.9414 120.018 97.9655 121.922 95.9895 123.839C95.703 124.117 96.1411 124.556 96.4276 124.277C98.4121 122.373 100.388 120.468 102.335 118.522C102.575 118.282 102.208 117.919 101.96 118.147Z" fill="#1D1D1B"/>
</svg>
