<svg width="120" height="164" viewBox="0 0 120 164" fill="none" xmlns="http://www.w3.org/2000/svg">
<path d="M118.366 72.4948C117.732 68.0899 116.792 63.7311 115.519 59.473C114.881 57.344 114.167 55.2402 113.378 53.17C112.58 51.0998 111.702 49.0632 110.749 47.0643C108.843 43.0667 106.613 39.2286 104.073 35.6257C101.541 32.0185 98.6771 28.6507 95.5321 25.5937C93.9575 24.0694 92.3031 22.629 90.5773 21.2853C88.86 19.9373 87.0586 18.6902 85.1985 17.5606C81.474 15.2972 77.4807 13.4789 73.3154 12.2654C69.1458 11.056 64.8208 10.4219 60.4875 10.4345C56.1542 10.4471 51.8334 11.0896 47.6764 12.3158C43.5195 13.5419 39.5388 15.3728 35.827 17.6404C32.1151 19.9122 28.6887 22.6626 25.5773 25.7323C22.4616 28.8019 19.6609 32.1949 17.1835 35.8188C12.2245 43.0709 8.55883 51.1922 6.07724 59.6536C5.45999 61.77 4.91832 63.9116 4.45224 66.07C3.98195 68.2242 3.58305 70.3994 3.25973 72.5872C2.61309 76.9586 2.27717 81.3804 2.20999 85.8106C2.10921 94.6626 3.16735 103.561 5.53557 112.119C6.70708 116.398 8.23131 120.584 10.0579 124.628C11.8844 128.672 14.0511 132.565 16.5537 136.226C19.0605 139.884 21.9032 143.311 25.0692 146.397C28.2436 149.475 31.7288 152.234 35.512 154.489C39.2869 156.748 43.3347 158.545 47.5505 159.73C49.6584 160.317 51.804 160.771 53.9665 161.061C56.129 161.355 58.3124 161.481 60.4917 161.468C64.8502 161.426 69.192 160.758 73.3657 159.511C77.5353 158.26 81.5286 156.425 85.253 154.14C87.1174 153.002 88.9103 151.747 90.6319 150.39C92.3535 149.038 93.9995 147.59 95.5783 146.061C98.7233 143 101.583 139.628 104.115 136.012C106.651 132.401 108.876 128.563 110.783 124.565C111.736 122.566 112.609 120.526 113.407 118.455C114.201 116.381 114.915 114.277 115.549 112.152C116.821 107.894 117.757 103.531 118.391 99.1305C119.021 94.7213 119.315 90.2701 119.323 85.819C119.298 81.351 119 76.8998 118.366 72.4948ZM118.71 99.1599C118.144 103.59 117.287 107.987 116.145 112.312C115.57 114.474 114.91 116.616 114.176 118.732C113.449 120.849 112.639 122.944 111.744 125.002C109.96 129.117 107.856 133.106 105.391 136.882C102.994 140.543 100.277 144.012 97.2117 147.165C97.2033 147.195 97.1907 147.224 97.1739 147.249C97.1739 147.249 97.1781 147.249 97.1781 147.254C97.1277 147.321 97.0773 147.388 97.027 147.451C96.88 147.686 96.8044 147.976 96.5273 148.085C96.4601 148.11 96.3971 148.119 96.3341 148.123C96.2753 148.165 96.2123 148.211 96.1452 148.253C96.1326 148.257 96.12 148.266 96.1116 148.27C93.1555 151.163 89.9139 153.779 86.3868 155.98C82.5321 158.386 78.3583 160.317 73.9788 161.607C69.6035 162.892 65.035 163.542 60.4791 163.505C55.9232 163.458 51.3799 162.732 47.0466 161.388C42.7133 160.036 38.5941 158.062 34.7898 155.631C30.9855 153.2 27.5004 150.311 24.3512 147.102C21.1935 143.903 18.376 140.388 15.886 136.659C10.9019 129.21 7.20676 120.937 4.72097 112.337C4.09952 110.187 3.56206 108.012 3.09597 105.82C2.62568 103.628 2.22678 101.423 1.90346 99.2061C1.26522 94.7717 0.916703 90.2912 0.857918 85.8022C0.761342 76.8326 1.80689 67.8127 4.17511 59.1119C6.54752 50.4237 10.2174 42.0463 15.2562 34.5171C17.7714 30.7545 20.6309 27.2104 23.8389 23.9896C27.0469 20.7772 30.595 17.8755 34.4707 15.461C38.3379 13.0422 42.5285 11.1022 46.9164 9.79202C51.3086 8.48606 55.8938 7.81418 60.4791 7.81838C65.0602 7.83518 69.6413 8.51545 74.025 9.84241C78.4087 11.1652 82.5825 13.1178 86.4371 15.545C88.3645 16.7585 90.2078 18.0981 91.9714 19.5342C93.7266 20.9746 95.3978 22.5115 96.9808 24.1324C100.155 27.3658 102.956 30.9393 105.416 34.7144C107.873 38.4937 109.977 42.4872 111.761 46.6024C112.651 48.66 113.462 50.7555 114.188 52.8719C114.923 54.9883 115.578 57.1299 116.153 59.2925C117.295 63.6177 118.148 68.0143 118.715 72.4445C119 74.6574 119.206 76.883 119.34 79.1128C119.479 81.3426 119.55 83.5724 119.55 85.8064C119.55 88.0362 119.475 90.2702 119.332 92.4958C119.206 94.7255 118.996 96.9469 118.71 99.1599Z" fill="#251C1C"/>
<path d="M112.874 85.8062C112.84 93.7217 111.87 101.637 109.846 109.309L109.023 112.173C108.729 113.122 108.402 114.059 108.095 115.003C107.953 115.478 107.764 115.936 107.592 116.406L107.071 117.8C106.983 118.031 106.903 118.266 106.806 118.497L106.517 119.186L105.937 120.563C104.354 124.212 102.486 127.748 100.302 131.095C98.1145 134.433 95.6287 137.599 92.8196 140.463C90.0063 143.323 86.8864 145.91 83.4601 148.039C80.0379 150.172 76.3344 151.873 72.4504 153.015C68.5747 154.165 64.5227 154.728 60.4833 154.715C56.4397 154.673 52.4171 154.018 48.575 152.822C44.733 151.621 41.0757 149.882 37.6997 147.732C37.4813 147.606 37.2798 147.459 37.074 147.321L36.4568 146.896L35.2223 146.044L34.034 145.129L33.4419 144.671C33.2446 144.52 33.043 144.373 32.8583 144.205L31.7203 143.231C31.3424 142.903 30.9519 142.592 30.5992 142.24L29.5117 141.211L28.97 140.694C28.7895 140.522 28.6257 140.337 28.4493 140.157C25.6528 137.318 23.1544 134.202 20.95 130.897C16.5285 124.288 13.2449 116.96 11.0404 109.334L10.272 106.458L10.1754 106.097L10.0914 105.736L9.92769 105.009L9.60017 103.556L9.43641 102.83L9.29784 102.099L9.02491 100.634C8.82756 99.6594 8.69739 98.6768 8.55042 97.6942C7.98776 93.7595 7.66444 89.787 7.60985 85.8104C7.57626 81.8295 7.79041 77.8444 8.27329 73.8888C8.39926 72.9019 8.50424 71.9067 8.68479 70.9241L8.92833 69.446L9.0501 68.7069C9.09629 68.4633 9.15088 68.2156 9.19707 67.972L9.50359 66.5065L9.65475 65.7759L9.73033 65.4105L9.82271 65.0494L10.5491 62.1435C12.657 54.4379 15.9196 47.0137 20.3831 40.3369C22.617 37.0028 25.149 33.8575 27.9917 31.0021C28.168 30.8215 28.3402 30.6367 28.5207 30.4646L29.075 29.9481L30.1793 28.9193C30.5404 28.5665 30.9393 28.2558 31.3214 27.9282L32.4804 26.954C32.6693 26.7902 32.8751 26.6391 33.0766 26.4879L33.6813 26.0302L34.8906 25.119L36.1461 24.2707L36.7759 23.8466C36.9859 23.708 37.1916 23.5568 37.41 23.4351C40.8405 21.2935 44.5608 19.5802 48.4532 18.4212C52.3457 17.2622 56.4103 16.6533 60.4749 16.6533C64.5395 16.6743 68.5999 17.2832 72.484 18.4674C76.368 19.639 80.0757 21.3565 83.4937 23.5065C86.92 25.6481 90.0315 28.2558 92.8406 31.1238C95.6539 33.9919 98.1355 37.1623 100.319 40.5091C102.498 43.8601 104.367 47.4 105.95 51.0492L106.529 52.4265L106.819 53.1152C106.916 53.3461 106.995 53.5813 107.083 53.8123L107.604 55.2106C107.772 55.6767 107.965 56.1386 108.108 56.6131C108.415 57.558 108.738 58.4944 109.032 59.4434L109.855 62.3073C111.887 69.9709 112.853 77.8906 112.874 85.8062ZM10.2216 71.1803C10.0243 72.1377 9.8899 73.1119 9.74713 74.0819C9.17607 77.9578 8.86535 81.8799 8.80236 85.8062C8.76877 89.7324 8.97452 93.6671 9.4658 97.5682C9.59177 98.5424 9.70094 99.5208 9.8815 100.491L10.125 101.944L10.2468 102.67C10.293 102.914 10.3476 103.153 10.398 103.393L10.7045 104.837L10.8557 105.559L10.9312 105.92L11.0236 106.277L11.75 109.137C12.7914 112.933 14.1477 116.641 15.7685 120.227C17.3893 123.813 19.3166 127.261 21.5336 130.511C23.7549 133.753 26.2785 136.793 29.0834 139.531C29.2598 139.703 29.4277 139.884 29.6083 140.048L30.1541 140.543L30.1835 140.568C30.2297 140.631 30.2885 140.682 30.3557 140.728C30.5866 140.883 30.8176 141.047 31.0443 141.215C31.0275 141.244 31.0107 141.274 30.9897 141.299L31.2459 141.53C31.6028 141.866 31.9933 142.16 32.3712 142.475L33.5091 143.403C33.6939 143.562 33.8954 143.701 34.0928 143.844L34.6848 144.276L35.8731 145.137L37.1034 145.931H37.1076C36.0873 139.754 36.4064 133.194 37.4016 127.047C38.2036 122.071 39.5976 117.216 41.5207 112.568C41.4452 112.543 41.378 112.505 41.3276 112.454C40.4164 111.497 39.6774 110.456 39.1231 109.259C38.9594 108.91 39.4297 108.625 39.6438 108.956C40.2023 109.826 40.8447 110.619 41.5879 111.329C42.1464 110.472 42.7133 109.616 43.2423 108.738C43.6286 108.1 44.5314 108.658 44.2291 109.313C42.7468 112.509 41.5291 115.822 40.5718 119.211C42.6881 119.954 44.5734 121.201 46.2068 122.755C46.7023 123.221 46.5049 123.944 46.0094 124.3C44.3634 125.468 42.18 125.749 40.2946 125.019C39.9671 124.893 39.6144 124.729 39.3163 124.515C39.1357 125.43 38.972 126.345 38.8334 127.265C38.7872 127.572 38.741 127.878 38.699 128.185C40.3996 128.244 42.0372 128.798 43.4355 129.78C44.0485 130.213 44.9177 130.755 45.0521 131.553C45.1823 132.308 44.607 133.001 44.0401 133.425C42.793 134.358 40.5592 134.731 39.1651 133.942C38.7326 133.698 38.4219 133.379 38.2036 133.018C38.128 134.181 38.0818 135.349 38.0692 136.516C38.0692 136.642 38.0692 136.768 38.0692 136.894C38.191 136.873 38.3169 136.873 38.4555 136.898C39.6144 137.125 40.8279 137.398 41.8357 138.04C42.6293 138.544 43.6412 139.464 43.5698 140.509C43.4187 142.718 39.8789 141.832 38.2078 141.106C38.3127 142.722 38.4597 144.339 38.6025 145.968C38.6109 146.082 38.5941 146.183 38.5563 146.271C38.5899 146.309 38.6193 146.355 38.6235 146.409C38.6487 146.577 38.6948 146.758 38.7158 146.938C39.2533 147.253 39.7992 147.56 40.3492 147.85C39.774 146.309 39.7236 144.318 39.9713 142.769C40.0007 142.592 40.2527 142.651 40.2611 142.806C40.3282 143.743 40.3576 144.675 40.513 145.603C40.6558 146.43 40.9539 147.228 41.0799 148.055C41.0883 148.114 41.0799 148.169 41.0589 148.219C41.3066 148.345 41.5543 148.471 41.8021 148.589C41.8651 148.643 41.9364 148.685 42.0204 148.719C42.0918 148.769 42.1842 148.803 42.285 148.816C42.3269 148.832 42.3689 148.845 42.4109 148.857C42.4235 148.866 42.4403 148.87 42.4529 148.879C42.4529 148.879 42.4529 148.879 42.4571 148.879C42.4529 148.883 42.4487 148.891 42.4445 148.895C44.5692 149.891 46.7695 150.718 49.0201 151.352L49.7213 151.549C49.8767 151.591 50.0279 151.637 50.1832 151.675C50.2714 151.717 50.3722 151.747 50.4729 151.763C51.0062 151.835 51.5269 152.032 52.0434 152.192C52.2071 152.242 52.3499 152.229 52.4717 152.183L52.5556 152.2C52.7908 152.255 53.0343 152.28 53.2737 152.318L54.7097 152.54C54.9491 152.574 55.1842 152.624 55.4277 152.641L56.15 152.704L57.5944 152.83C57.8337 152.859 58.0773 152.859 58.3208 152.864L59.0473 152.88L59.8661 152.901C59.8661 152.897 59.8661 152.889 59.8661 152.88C59.8703 152.88 59.8703 152.88 59.8745 152.88C60.1096 152.906 60.3447 152.914 60.5799 152.927C60.6219 152.935 60.6681 152.948 60.7142 152.952C61.046 152.99 61.3441 153.011 61.6632 152.985C61.6716 152.985 61.6842 152.985 61.6926 152.985C61.6926 152.985 61.6926 152.985 61.6926 152.981C61.7514 152.977 61.8102 152.973 61.869 152.96C61.9529 152.948 62.0243 152.914 62.0915 152.864C65.4213 152.7 68.7217 152.108 71.9129 151.154C72.0641 151.108 72.2152 151.058 72.3664 151.012C72.4756 151.045 72.5931 151.045 72.7023 151.003C73.1096 150.835 73.5169 150.663 73.92 150.495C75.7088 149.861 77.4597 149.109 79.1561 148.253C79.1519 148.244 79.1519 148.24 79.1477 148.232C79.1435 148.211 79.1393 148.194 79.1351 148.173C79.1981 148.16 79.2611 148.139 79.3199 148.106C79.3325 148.102 79.3409 148.097 79.3493 148.093C79.5424 148.022 79.723 147.934 79.9035 147.837C79.9035 147.845 79.9035 147.854 79.9035 147.862C80.7685 147.405 81.6209 146.922 82.4607 146.409C82.6707 146.292 82.868 146.149 83.0738 146.019L83.6826 145.62L84.8961 144.822L86.0676 143.961L86.6555 143.529C86.8528 143.386 87.0502 143.243 87.2349 143.088L88.3603 142.164C88.734 141.853 89.1203 141.559 89.473 141.223L90.5521 140.245L91.0938 139.754C91.2744 139.59 91.4423 139.413 91.6145 139.241C91.6187 139.237 91.6229 139.229 91.6313 139.224C91.711 139.191 91.7866 139.132 91.8622 139.052C92.0008 138.897 92.1393 138.746 92.2821 138.595C92.6474 138.267 93.0001 137.94 93.3067 137.557C93.3402 137.52 93.3612 137.482 93.3822 137.44C95.4817 135.218 97.4216 132.837 99.181 130.326C101.427 127.127 103.405 123.721 105.097 120.177L105.719 118.837L106.03 118.17C106.135 117.947 106.223 117.716 106.319 117.489L106.882 116.129C107.067 115.671 107.272 115.226 107.432 114.76C107.768 113.836 108.116 112.912 108.436 111.984L109.334 109.171C111.576 101.612 112.656 93.7091 112.681 85.8145C112.647 77.92 111.56 70.0213 109.317 62.4627L108.419 59.6492C108.095 58.7211 107.751 57.7973 107.415 56.8735C107.256 56.4074 107.05 55.9581 106.865 55.5045L106.298 54.144C106.202 53.9172 106.114 53.6863 106.013 53.4637L105.702 52.796L105.081 51.4607C103.388 47.9165 101.411 44.5152 99.16 41.3196C96.9136 38.1198 94.3774 35.1341 91.5893 32.4214C91.4171 32.2534 91.2492 32.0729 91.0686 31.9091L90.5269 31.422L89.4436 30.4478C89.0909 30.116 88.7004 29.8221 88.3267 29.5113L87.1972 28.5959C87.0124 28.4363 86.815 28.2978 86.6177 28.155L86.0298 27.7267L84.8583 26.87L83.6406 26.0764L83.0318 25.6817C82.8302 25.5515 82.6329 25.4087 82.4187 25.2953C79.1141 23.2923 75.5702 21.6924 71.8751 20.6132C68.1842 19.5382 64.3464 18.9671 60.5043 18.9713C56.6622 18.9881 52.8286 19.5634 49.1461 20.6552C45.4594 21.7428 41.928 23.3553 38.6361 25.3625C38.4261 25.4801 38.2288 25.6229 38.0272 25.753L37.4016 26.1436L36.1923 26.9414L35.0291 27.8065L34.4455 28.2348C34.2523 28.3818 34.055 28.5203 33.8702 28.6757L32.7533 29.5995C32.3838 29.9103 31.9975 30.2042 31.649 30.5444L30.5782 31.527L30.045 32.0225C29.8686 32.1863 29.7006 32.3668 29.5285 32.5348C26.7698 35.2601 24.284 38.2709 22.0879 41.4833C17.6916 47.9124 14.4374 55.114 12.2329 62.6138L11.4645 65.4483L11.3679 65.801L11.284 66.1622L11.1202 66.876L10.7927 68.308L10.6289 69.026L10.4945 69.7483L10.2216 71.1803ZM42.2682 123.41C42.1674 123.36 42.0666 123.309 41.97 123.246C41.9448 123.288 41.9155 123.335 41.8861 123.377C42.0162 123.398 42.1422 123.41 42.2682 123.41Z" fill="#251C1C"/>
<path d="M74.4995 9.5986C71.8793 7.97769 69.255 6.37359 66.597 4.81148C65.2701 4.03042 63.9475 3.24516 62.6248 2.45991C61.5289 1.80903 60.3238 0.914591 58.9885 0.948185C57.8842 0.97338 56.8722 1.9812 56.0408 2.61528C54.9827 3.42573 53.9497 4.26138 52.942 5.13482C50.7627 7.02447 48.6422 9.0401 46.8283 11.2867C46.7485 11.3875 46.8745 11.5218 46.971 11.4295C48.8522 9.62799 50.7081 7.81392 52.7152 6.15522C53.7398 5.31118 54.7937 4.49653 55.8686 3.71968C56.91 2.96802 58.0773 1.82582 59.463 2.21635C60.6807 2.56068 61.8396 3.61049 62.8809 4.30336C64.0566 5.08862 65.2324 5.87387 66.4039 6.66333C68.7511 8.24224 71.1235 9.77077 73.5043 11.2951C74.5751 11.9838 75.5744 10.2663 74.4995 9.5986Z" fill="#251C1C"/>
<path d="M59.4547 3.58942C59.1398 3.27448 58.6779 3.1569 58.2496 3.27028C58.237 3.27448 58.2244 3.27448 58.2118 3.27867C58.1152 3.32067 58.0145 3.36267 57.9179 3.40466C57.7751 3.48024 57.6575 3.58942 57.5736 3.7196C57.414 3.92536 57.2964 4.1941 57.309 4.46285C57.3174 4.68121 57.3762 4.89118 57.477 5.08434C57.6156 5.34889 57.9263 5.57565 58.2118 5.65123C58.2244 5.65543 58.237 5.65543 58.2496 5.65963C58.6653 5.76881 59.1566 5.66382 59.4547 5.34048C59.6772 5.09693 59.8158 4.79879 59.8158 4.46285C59.8158 4.15211 59.6772 3.81618 59.4547 3.58942Z" fill="#251C1C"/>
<path d="M77.0145 85.735C74.4616 84.4375 71.7532 83.5599 68.9399 83.1525C69.1751 82.5562 69.2464 81.9264 69.1667 81.3175C70.7161 81.2629 72.2697 81.3553 73.8359 81.5904C74.2138 81.6492 74.3818 81.0739 73.9955 81.0109C72.3495 80.7338 70.6909 80.654 69.0449 80.7506C68.9399 80.3978 68.7845 80.0619 68.583 79.7553C68.7384 79.7386 68.8937 79.7218 69.0491 79.705C71.4635 79.4446 73.7855 79.6714 76.1915 79.7553C76.4939 79.7637 76.5694 79.2767 76.2629 79.2179C73.7813 78.7392 71.031 78.9533 68.5452 79.3186C68.457 79.3312 68.3688 79.3438 68.2807 79.3564C67.9364 78.9701 67.4997 78.6468 66.9832 78.4326C65.8621 77.9665 64.5856 78.126 63.4603 78.4914C62.3517 78.8525 61.1592 79.3942 60.1011 80.0073C60.6511 78.8903 60.7561 77.6557 60.5588 76.375C60.4958 75.9677 59.9331 75.8879 59.677 76.144C59.3201 76.4968 59.0135 76.9041 58.77 77.3408C58.5601 76.9125 58.2619 76.543 57.779 76.3288C57.0484 76.0013 56.0953 76.0726 55.6208 76.7949C55.1295 77.5424 55.4864 78.4956 55.9861 79.1339C56.0659 79.2347 56.1498 79.3228 56.2464 79.411C54.4871 79.1507 52.6563 79.1171 51.0607 79.6042C49.8976 79.9611 48.8352 80.759 48.3188 81.8172C45.6902 81.939 43.0784 82.3421 40.5087 83.0391C40.1518 83.1357 40.3029 83.6942 40.6598 83.5934C43.112 82.9006 45.6146 82.4596 48.1382 82.2707C47.987 82.7536 47.9409 83.2785 48.0458 83.8328C48.071 83.9714 48.1088 84.1016 48.1508 84.2275C47.2774 84.4585 46.4124 84.7188 45.5642 85.0338C43.5907 85.7686 41.0545 86.8563 39.8116 88.6451C39.7067 88.7963 39.9124 88.9894 40.0636 88.8971C41 88.3092 41.7936 87.5197 42.7467 86.9444C43.8511 86.2767 45.0352 85.7393 46.2529 85.3025C46.9457 85.0548 47.6469 84.849 48.3524 84.6559C48.7093 85.2647 49.3055 85.6385 49.9942 85.8778C48.7765 86.7303 47.6847 87.7675 46.9205 88.9559C46.7441 89.2288 47.1514 89.5479 47.3698 89.3044C48.4699 88.0992 49.5239 87.0158 50.7248 86.0752C51.6318 86.2641 52.6143 86.2851 53.4079 86.3145C54.6046 86.3565 55.8685 86.2054 56.9057 85.6931C56.9225 85.8652 56.9728 86.0374 57.061 86.2096C57.4011 86.8604 58.0772 87.1544 58.791 87.1544C59.551 87.1544 60.2438 86.7975 60.7351 86.2306C60.9409 85.9912 61.1676 85.6679 61.302 85.3277C61.6883 85.4495 62.104 85.5461 62.5449 85.6007C64.6948 85.8736 67.5668 85.7266 68.7468 83.585C68.7845 83.5178 68.8139 83.4507 68.8475 83.3877C71.6398 83.8034 74.3146 84.7063 76.7962 86.1256C77.0397 86.26 77.2665 85.8652 77.0145 85.735ZM59.3957 85.6091C58.9086 85.9618 57.7119 85.9324 57.4935 85.3361C58.073 84.9288 58.5475 84.3787 58.8456 83.6354C59.1605 84.0637 59.5468 84.4207 59.9919 84.7146C59.8491 85.038 59.7148 85.3781 59.3957 85.6091ZM67.4745 83.3289C66.3155 84.66 63.9767 84.4753 62.3979 84.1603C60.5462 83.7866 59.5762 82.7662 58.5936 81.2125C58.3753 80.864 57.8756 81.0949 57.9512 81.4854C58.0898 82.2287 58.3459 82.8712 58.6944 83.4129C58.644 83.4045 58.5936 83.4171 58.5559 83.4633C57.3927 84.8868 55.6376 85.4075 53.853 85.3781C53.3323 85.3697 52.5891 85.3613 51.8459 85.2689C52.2994 84.975 52.7739 84.6978 53.2861 84.4375C53.4373 84.3619 53.3281 84.0973 53.1686 84.1603C52.4883 84.4291 51.7997 84.7608 51.1279 85.1472C50.4602 85.0044 49.8472 84.7692 49.4651 84.3661C50.8633 84.0302 52.2742 83.753 53.6767 83.4339C53.8152 83.4045 53.7858 83.1651 53.6431 83.1861C52.1566 83.3835 50.6618 83.6312 49.1922 83.9672C49.0662 83.69 49.02 83.3583 49.0914 82.9552C49.1418 82.6738 49.2299 82.4219 49.3391 82.1993C50.9137 82.1321 52.4925 82.1657 54.0672 82.2959C54.2561 82.3127 54.2519 82.0229 54.0672 82.0019C52.5765 81.834 51.0859 81.7626 49.5995 81.7752C51.2664 79.6462 56.2044 80.57 58.5391 81.0529C58.581 81.1075 58.623 81.1663 58.6608 81.2251C58.9254 81.6576 59.5258 81.4015 59.5006 80.9479C59.5216 80.9227 59.5426 80.8976 59.5636 80.8724C59.6266 80.7884 59.6854 80.7044 59.7442 80.6204C61.5581 80.1921 63.3217 79.1633 65.207 79.1969C65.7445 79.2053 66.2568 79.3606 66.7019 79.6168C64.9677 79.9527 63.2377 80.4902 61.915 81.6366C61.8982 81.6492 61.9192 81.6786 61.936 81.666C63.4645 80.6918 65.3288 80.2215 67.1595 79.9401C67.4619 80.1963 67.7096 80.507 67.8734 80.8472C66.3491 81.0193 64.8375 81.3427 63.3679 81.8172C63.1159 81.897 63.2209 82.2917 63.4771 82.2161C64.9929 81.7836 66.5171 81.5106 68.0497 81.3804C68.1547 81.9011 68.0623 82.4597 67.7096 83.0014C67.3023 82.9636 66.895 82.9342 66.4835 82.9132C66.3365 82.9048 66.3365 83.1315 66.4835 83.1399C66.8404 83.1567 67.1973 83.1861 67.5501 83.2197C67.5249 83.2575 67.5039 83.2911 67.4745 83.3289Z" fill="#251C1C"/>
<path d="M52.9713 69.5297C52.4422 68.2741 51.8418 66.4978 50.8088 65.5656C48.7387 63.6843 46.2361 66.0527 45.5391 68.0305C45.0604 69.3869 44.9596 70.9322 44.9722 72.3557C44.9806 73.4769 44.6867 75.249 45.5433 76.1392C45.7784 76.3828 46.1102 76.0763 45.9842 75.7991C45.3417 74.4134 45.9632 72.2382 46.1186 70.7642C46.2865 69.2021 46.6854 67.0143 48.3272 66.3256C49.5281 65.8217 50.1496 66.6574 50.7122 67.6064C51.2161 68.4546 51.7158 69.3071 52.0811 70.2267C52.7109 71.8224 52.7991 73.2712 52.6186 74.9131C52.0139 74.9887 51.3925 75.06 50.7668 75.1398C50.8214 75.0558 50.8508 74.9551 50.8382 74.8375C50.6828 73.3552 50.4603 71.8434 50.1244 70.3905C49.9648 69.7144 49.6163 68.9124 48.7765 69.009C47.7016 69.1307 47.5924 70.8692 47.458 71.6503C47.2355 72.9604 47.1893 74.4176 47.6176 75.6983C46.8828 75.8831 46.1647 76.114 45.4845 76.4164C45.4341 76.4374 45.4635 76.513 45.5097 76.513C46.6182 76.5298 47.752 76.3912 48.8773 76.2274C49.1838 76.2988 49.5239 76.2526 49.7969 76.0931C50.3133 76.0175 50.8256 75.9419 51.3337 75.8873C51.8208 75.8327 52.8285 75.8915 53.219 75.5849C53.5801 75.2994 53.6683 74.5645 53.7271 74.1656C53.9706 72.5657 53.5969 71.0036 52.9713 69.5297Z" fill="#251C1C"/>
<path d="M39.9546 59.5357C39.4927 59.0696 38.7788 58.7966 38.1868 58.5531C37.7963 58.3935 37.3596 58.8092 37.3974 59.1997C37.347 59.2585 37.3218 59.3383 37.3302 59.4307C37.3722 59.7876 37.4604 60.1278 37.5527 60.4721C37.6325 60.7744 37.6703 61.1482 37.8551 61.4085C38.3464 62.0972 39.0602 61.4085 39.5095 61.0726C40.0049 60.7073 40.5382 60.1236 39.9546 59.5357Z" fill="#251C1C"/>
<path d="M75.0539 55.5256C74.6298 56.1135 74.1721 56.6846 73.7984 57.3061C73.7942 57.3103 73.7942 57.3144 73.7942 57.3186C73.7186 57.327 73.6808 57.432 73.7312 57.4908C73.6556 57.9023 74.1049 58.2803 74.487 58.1375C74.6634 58.2593 74.8439 58.3726 75.0413 58.4776C75.2974 58.612 75.5577 58.486 75.6585 58.2257C75.9482 57.4782 75.9986 56.588 76.0406 55.7901C76.0658 55.2232 75.3352 55.135 75.0539 55.5256Z" fill="#251C1C"/>
<path d="M69.8681 68.669C69.5993 67.1447 68.8813 64.3732 66.9918 64.1717C65.1274 63.9743 63.7166 66.2587 63.1077 67.7158C62.2427 69.7944 61.995 72.3518 62.2889 74.5858C62.0538 74.8041 62.1419 75.3122 62.5534 75.308C63.8887 75.2912 65.2576 75.266 66.6138 75.308C66.744 75.56 67.1219 75.6062 67.2689 75.3374C67.9827 75.371 68.6923 75.4298 69.3894 75.5222C69.5153 75.539 69.6623 75.4172 69.6833 75.2954C70.1242 73.1538 70.246 70.8275 69.8681 68.669ZM69.087 74.8881C68.5412 74.8503 67.9953 74.8083 67.4494 74.7663C67.9701 72.7759 68.7301 68.3751 66.0722 68.1357C63.4016 67.8922 63.704 72.9019 64.0861 74.5354C63.5906 74.5144 63.0951 74.4976 62.5954 74.4934C62.8306 72.8011 62.7592 71.0878 63.2043 69.4123C63.557 68.0979 65.2324 64.0625 67.2857 65.0913C68.0877 65.4944 68.516 66.9684 68.7427 67.7536C68.9863 68.6061 69.108 69.4879 69.1542 70.3697C69.2424 71.8815 69.0954 73.3806 69.087 74.8881Z" fill="#251C1C"/>
<path d="M104.048 76.8277C102.091 75.0724 99.408 74.1486 96.7921 74.5895C94.0795 75.0472 92.1564 77.1426 90.8043 79.4018C87.4746 84.9532 85.0602 91.4578 84.3001 97.9414C83.8047 97.1771 83.284 96.4339 82.7339 95.7074C81.7514 94.414 80.6554 92.9779 79.3454 91.9533C79.6015 91.7517 79.8492 91.5418 80.0802 91.3276C82.4736 89.1272 83.8844 85.9694 84.7368 82.8788C84.7914 82.6814 84.8418 82.4799 84.888 82.2825C85.1693 81.9172 85.2953 81.4427 85.1651 81.0311C85.4842 79.3724 85.627 77.6843 85.6102 75.9962C85.6606 75.6897 85.6396 75.3496 85.5808 74.9926C85.4171 71.797 84.6655 68.6266 83.3554 65.7123C82.6625 64.1712 81.8102 62.7057 80.8024 61.3452C80.2145 60.5473 79.4965 59.6025 78.6441 58.9474C78.6735 58.8844 78.6987 58.8172 78.7155 58.7416C79.2698 55.8862 79.1564 53.1231 78.5769 50.2844C78.4762 49.7805 77.7413 49.4404 77.3089 49.7679C75.6167 51.0529 73.9371 52.3462 72.2743 53.6648C71.5143 54.2695 70.6409 55.2941 69.6205 55.1933C68.6716 55.1009 67.71 54.765 66.7652 54.6054C63.0953 53.9965 59.3373 53.8915 55.6506 54.387C51.9261 54.891 48.2898 55.9113 44.8886 57.5197C44.0824 57.9018 43.4148 58.2713 42.5162 57.8892C42.1719 57.7422 41.8611 57.4777 41.5504 57.2761C40.803 56.7932 40.0388 56.3691 39.22 56.0205C37.4942 55.2815 35.7055 54.9455 33.8495 54.7524C33.3204 54.6978 32.9635 55.3025 33.0853 55.756C33.8075 58.5149 34.7145 61.3955 36.2261 63.8311C36.2303 63.8353 36.2303 63.8353 36.2345 63.8395C31.6408 69.0004 29.2348 76.0299 30.4861 82.9166C31.4141 88.0228 34.2316 92.7386 38.4012 95.7452C36.6292 98.6805 35.021 101.704 33.438 104.753C31.8508 107.81 30.167 110.85 28.8191 114.02C28.374 115.07 27.9835 116.145 27.6854 117.237C27.6812 117.241 27.6812 117.241 27.677 117.245C27.3747 117.56 27.3075 117.955 27.4209 118.32C27.0892 119.874 26.9506 121.461 27.1018 123.078C27.3747 125.988 28.3908 128.747 29.7975 131.292C31.4687 134.315 33.6438 137.112 35.9616 139.665C36.6922 140.467 37.8217 139.295 37.1373 138.489C33.4716 134.13 29.5246 129.276 28.8611 123.401C28.7436 122.347 28.7562 121.31 28.8653 120.29C29.8101 121.046 31.0908 121.36 32.2917 121.289C33.48 121.218 34.9328 120.596 34.4122 119.131C33.9839 117.926 32.3295 116.821 31.1664 116.443C30.7129 116.296 30.2384 116.242 29.7765 116.275C30.2006 115.003 30.7339 113.756 31.3175 112.525C31.687 113.201 32.3127 113.785 32.8376 114.285C33.543 114.952 34.5213 115.91 35.5123 116.074C36.5326 116.242 37.4312 115.469 37.5362 114.457C37.6496 113.378 36.9315 112.311 36.3353 111.471C35.718 110.598 34.5129 109.057 33.2742 108.691C33.7655 107.763 34.2526 106.844 34.7019 105.937C36.2849 102.754 37.8385 99.5665 39.22 96.3037C39.4887 96.4759 39.7659 96.6396 40.0472 96.7992C40.4797 98.164 41.4832 99.5119 42.8017 99.9528C43.1292 100.062 43.3308 99.6337 43.1208 99.4027C42.6086 98.8442 42.0165 98.3697 41.5126 97.8028C41.3951 97.6685 41.2901 97.5341 41.1893 97.3955C41.4161 97.5005 41.6428 97.6055 41.8737 97.702C43.5323 98.4033 44.5359 96.0812 42.8395 95.4093C40.6098 94.5274 38.5817 93.1291 36.8854 91.399C37.7881 90.471 38.8673 88.8711 37.8805 87.9053C36.9441 86.994 35.5543 87.8129 34.6305 88.6275C34.1476 87.9053 33.7151 87.1536 33.3372 86.3725C34.9286 85.5831 38.0485 83.895 36.9819 81.8542C36.1589 80.2795 33.2197 80.5188 31.7752 81.3503C31.6492 80.5314 31.5695 79.7042 31.5443 78.8811C31.6199 79.0785 31.7206 79.2506 31.8634 79.364C32.51 79.9057 33.606 79.3052 34.2652 79.0995C35.3653 78.7593 36.583 78.4864 37.4984 77.7389C38.7161 76.7437 39.1066 74.9129 37.8049 73.8295C37.0113 73.1702 35.9658 73.0778 34.979 73.0568C34.0595 73.0358 33.0685 72.9476 32.1783 73.2038C33.0139 69.815 34.6305 66.6026 36.8056 63.9109C36.9064 63.7891 36.8644 63.6379 36.772 63.5581C36.4361 61.1268 35.7096 58.729 34.958 56.3817C36.7762 56.5496 38.5524 57.1669 40.1312 58.0824C41.752 59.023 42.7765 59.8292 44.7038 59.2456C46.6018 58.6703 48.4031 57.843 50.3263 57.3307C50.616 57.2551 50.9057 57.1795 51.1955 57.1123C51.0317 58.0908 51.9849 59.3841 52.8582 59.5437C54.0466 59.762 55.1131 58.4687 55.2349 57.3223C55.3734 57.5071 55.5246 57.675 55.6632 57.8052C56.0201 58.1412 56.4358 58.4393 56.9438 58.4519C57.5149 58.4645 58.0188 58.1453 58.3379 57.6834C58.4849 57.4735 58.6024 57.2173 58.678 56.9528C58.7788 57.2383 58.9258 57.5029 59.0853 57.696C59.3289 57.9858 59.774 58.2713 60.2526 58.4351C61.3612 58.9642 62.7342 58.6702 63.7336 58.0236C64.2585 57.6834 64.8421 57.0745 65.0437 56.4447C66.2698 56.6084 67.4959 56.831 68.722 57.1039C69.5072 57.2803 70.2252 57.4105 71.0062 57.1291C71.7662 56.852 72.3835 56.2095 72.9965 55.7014C74.4158 54.513 75.8224 53.3162 77.2207 52.1027C77.5776 54.1477 77.523 56.2599 77.1409 58.2965C77.0905 58.5695 77.1661 58.8004 77.3047 58.9768C77.9429 60.287 79.1732 61.4333 79.9836 62.6217C80.9284 64.0117 81.7304 65.5108 82.356 67.0729C82.8557 68.3117 83.2504 69.5882 83.5401 70.89C82.4862 70.9068 81.4364 71.1882 80.4455 71.5325C79.5805 71.8348 78.5308 72.1078 77.8043 72.6873C76.1373 74.0142 77.334 75.5721 78.8499 76.2608C80.3321 76.9369 82.3938 77.4828 84.1028 77.2014C84.0776 77.8145 84.023 78.4402 83.9474 79.0659C83.0153 78.6838 81.7934 78.6166 80.8444 78.688C79.9164 78.7551 79.169 79.3053 78.9213 80.2165C78.3208 82.4463 80.5043 83.622 82.2594 84.1931C82.3896 84.2351 82.5114 84.2435 82.6206 84.2267C82.2762 85.0582 81.8647 85.8518 81.3861 86.5951C80.878 86.297 80.3237 86.1374 79.7233 86.0996C79.1186 86.0618 78.3082 86.1206 77.8505 86.5657C77.3886 87.0192 77.4306 87.7331 77.7455 88.2538C77.8925 88.5015 78.1067 88.7031 78.3376 88.8669C78.5434 89.0097 78.7953 89.102 78.98 89.27C78.304 89.8117 77.5734 90.2904 76.805 90.7103C75.1212 91.63 73.282 91.8399 71.4723 92.3774C70.5737 92.6462 70.4771 94.0781 71.4723 94.2965C71.9426 94.3973 72.4212 94.4435 72.8999 94.4393C72.7278 94.8256 72.5766 95.2161 72.3037 95.5688C71.909 96.0728 71.3967 96.5347 70.8298 96.837C70.5443 96.9882 70.7459 97.5005 71.0524 97.3703C72.2911 96.8496 73.7523 95.7746 74.0253 94.3511C75.6251 94.1117 77.2123 93.4146 78.5643 92.5034C79.3286 93.7464 80.3321 94.8634 81.1257 96.0938C81.9991 97.4417 82.8599 98.7854 83.6367 100.196C84.7746 102.258 85.753 104.417 86.5634 106.634C85.4968 107.079 84.5605 108.045 83.8928 108.906C82.9103 110.174 83.0698 111.429 84.3715 112.399C85.3877 113.159 86.9875 113.411 88.117 112.731C88.1884 112.689 88.2472 112.643 88.306 112.601C88.4655 113.319 88.6041 114.037 88.7259 114.759C88.2178 114.826 87.6929 115.108 87.315 115.347C86.4668 115.885 85.7866 116.691 85.3877 117.611C84.9678 118.576 85.0266 119.647 85.8076 120.42C86.6306 121.235 87.8147 121.318 88.9064 121.281C89.0702 121.276 89.2171 121.234 89.3473 121.172C89.4061 123.653 89.2507 126.139 88.8602 128.587C88.5453 130.565 88.1548 132.61 87.2646 134.42C86.6768 135.617 85.858 136.65 84.9132 137.565C84.9468 136.99 84.972 136.415 84.9804 135.844C84.993 135.109 84.9846 134.378 84.9594 133.643C85.1021 133.358 85.0979 132.992 84.9552 132.686C84.9384 132.652 84.9258 132.619 84.9132 132.581C84.7998 130.456 84.5521 128.34 84.1952 126.244C83.6451 123.011 82.7969 119.824 81.7766 116.708C80.9536 114.205 79.9374 111.396 77.9135 109.59C78.2956 109.015 78.6987 108.465 79.1102 107.906C79.4125 107.499 78.7365 106.978 78.4048 107.364C77.8379 108.02 77.2753 108.662 76.6622 109.275C76.4229 109.514 76.4313 109.909 76.6622 110.149C78.7071 112.269 79.6603 114.852 80.5211 117.623C80.8864 118.795 81.2181 119.975 81.5246 121.163C80.4119 121.449 79.2404 122.2 78.3208 122.788C77.5314 123.292 76.742 124.077 76.91 125.098C77.2795 127.349 81.1089 127.088 82.7045 126.714C82.8221 127.403 82.9229 128.092 83.0111 128.785C81.7388 129.032 80.4203 129.079 79.2194 129.595C78.2872 129.998 76.5656 130.851 76.9142 132.119C77.2291 133.248 78.9842 133.782 79.9836 134.051C81.1131 134.353 82.2762 134.412 83.4226 134.26C83.431 134.785 83.4352 135.314 83.4268 135.844C83.4226 136.146 83.41 136.452 83.4016 136.755C83.389 136.755 83.3764 136.751 83.3596 136.751C81.5036 136.641 78.4006 137.578 77.8295 139.644C77.0737 142.403 81.7934 141.114 83.0782 140.639C82.8935 142 82.5072 143.343 82.3392 144.7C82.272 144.763 82.2216 144.843 82.1923 144.948C82.0201 145.556 81.9109 146.17 81.8437 146.799C81.7766 147.442 82.7927 147.551 82.9523 146.951C82.9649 146.9 82.9775 146.85 82.9901 146.804C83.0069 146.783 83.0237 146.762 83.0363 146.741C83.2504 146.711 83.452 146.577 83.5401 146.304C83.5611 146.237 83.5821 146.169 83.5989 146.102C83.7249 145.997 83.8131 145.846 83.8173 145.674C83.8173 145.64 83.8173 145.611 83.8173 145.577C83.8173 145.447 83.7711 145.309 83.6871 145.204C84.2288 143.805 84.4093 142.201 84.6067 140.736C84.6445 140.467 84.6738 140.194 84.7032 139.925C87.9322 138.078 89.5699 134.718 90.3383 131.187C90.8589 128.797 91.1613 126.353 91.262 123.901C92.1858 121.801 93.1432 119.756 94.4197 117.804C96.095 115.242 97.7368 112.651 99.4206 110.09C102.847 104.87 106.206 99.4195 107.558 93.2425C108.763 87.8171 108.486 80.8044 104.048 76.8277ZM79.1396 87.6239C79.1228 87.6155 79.106 87.6071 79.0892 87.5987C79.022 87.5609 78.9926 87.5315 78.98 87.5063C79.0598 87.4559 79.1732 87.4223 79.3034 87.4014C79.2404 87.4643 79.1816 87.5399 79.1396 87.6239ZM81.6044 122.633C81.5162 122.574 81.4196 122.532 81.3147 122.519C81.4742 122.389 81.6254 122.255 81.7682 122.112C81.7976 122.238 81.8269 122.36 81.8563 122.486C81.7682 122.532 81.6842 122.578 81.6044 122.633ZM91.5854 82.3833C91.6315 82.4505 91.6777 82.5218 91.7239 82.589C91.6105 82.7066 91.5056 82.8284 91.4216 82.9628C91.3922 82.9376 91.3628 82.9166 91.3334 82.8914C91.3292 82.8872 91.325 82.8872 91.3208 82.883C91.4048 82.7192 91.493 82.5554 91.5854 82.3833ZM86.9623 108.313C86.8699 108.313 86.7775 108.318 86.6894 108.33C86.6264 108.339 86.5676 108.355 86.5088 108.368C86.6726 108.2 86.8405 108.041 87.0127 107.885C87.0253 107.923 87.0379 107.957 87.0463 107.994C86.9875 108.087 86.9539 108.2 86.9623 108.313ZM103.431 98.3823C103.204 98.0254 102.981 97.6684 102.759 97.3073C102.965 97.5425 103.183 97.7692 103.414 97.9918C103.46 98.0338 103.506 98.0716 103.557 98.1052C103.515 98.2018 103.473 98.29 103.431 98.3823ZM105.198 93.2929C104.72 92.4656 104.039 91.7602 103.212 91.2394C102.032 90.4962 99.8573 89.8915 98.69 90.9623C97.2792 92.2556 98.9294 94.2545 99.7188 95.4009C100.693 96.816 101.726 98.1976 102.986 99.3649C102.557 100.28 102.1 101.183 101.612 102.073C100.911 100.776 99.9707 99.5497 98.7908 98.6889C97.4345 97.7021 95.5828 97.7608 94.6968 99.3272C93.8864 100.759 94.4743 102.338 95.2888 103.615C95.8557 104.501 96.4604 105.366 97.0608 106.231C97.4177 106.743 97.7662 107.297 98.1609 107.805C97.9216 108.175 97.6823 108.549 97.4429 108.914C95.7885 111.459 94.004 114.029 92.6897 116.771C92.2194 117.753 91.7239 118.757 91.262 119.782C90.9261 113.122 89.1206 106.52 85.9251 100.667C85.606 100.083 85.2743 99.5035 84.9258 98.9366C85.5892 96.8118 86.2779 94.708 87.0337 92.6252C87.5207 93.5784 88.5495 94.477 89.2171 95.0061C90.2585 95.8292 91.9213 96.7278 93.0676 95.5604C94.2349 94.3721 93.034 92.2976 92.4294 91.1135C91.6273 89.5429 90.544 88.2202 89.3011 86.994C89.742 86.0114 90.2081 85.0372 90.6994 84.0714C91.1697 85.0498 92.0304 85.9148 92.7947 86.6245C93.647 87.414 94.8354 88.5393 96.0573 88.6275C97.4009 88.7241 98.1315 87.5567 98.0812 86.3389C98.0266 84.9574 97.3379 83.5465 96.6325 82.3917C96.1496 81.6022 95.0201 79.8049 93.7898 78.9105C94.4197 78.1714 95.1503 77.55 96.0195 77.1594C98.1441 76.2062 100.756 76.9537 102.436 78.4402C106.467 82.0011 106.404 88.4595 105.198 93.2929ZM100.5 93.1039C100.512 93.1459 100.525 93.1921 100.538 93.2341C100.525 93.2089 100.517 93.1837 100.504 93.1585C100.47 93.0829 100.386 92.7134 100.273 92.6546C100.328 92.6504 100.403 92.6588 100.479 92.6714C100.454 92.8099 100.458 92.9569 100.5 93.1039ZM90.5692 93.6666C90.5062 93.633 90.4432 93.6036 90.3845 93.57C90.4222 93.57 90.46 93.5742 90.4978 93.5742C90.544 93.57 90.5902 93.5658 90.6364 93.5574C90.6112 93.5868 90.5902 93.6246 90.5692 93.6666Z" fill="#251C1C"/>
<path d="M74.7053 106.151C73.454 103.258 70.6617 101.045 67.6552 100.205C64.7495 99.3946 60.7983 99.7306 58.5602 101.96C56.994 100.822 54.9281 100.436 52.963 100.843C49.8096 101.498 47.2314 103.909 45.8541 106.747C45.829 106.798 45.8961 106.857 45.9339 106.81C47.7185 104.719 49.6164 102.62 52.3668 101.86C55.0331 101.125 58.0312 101.998 59.3076 104.581C59.6478 105.265 60.7101 104.656 60.3364 103.98C59.9963 103.363 59.568 102.834 59.0767 102.384C61.8018 101.335 64.38 100.499 67.3529 101.318C70.2334 102.112 72.3623 104.127 73.7983 106.684C74.1384 107.293 74.9698 106.76 74.7053 106.151Z" fill="#251C1C"/>
<path d="M40.9286 33.1305C36.6289 37.1534 32.6063 41.4786 28.3275 45.5308C27.9286 45.9087 28.5333 46.5092 28.928 46.1313C33.1899 42.1 37.5695 38.052 41.3779 33.5798C41.6467 33.2733 41.2352 32.845 40.9286 33.1305Z" fill="#251C1C"/>
<path d="M23.5739 67.7497C21.6088 69.7359 19.6563 71.7264 17.7121 73.7294C17.4854 73.9646 17.8381 74.3173 18.0733 74.0905C20.0762 72.1463 22.0707 70.1936 24.0526 68.2284C24.3591 67.9218 23.8804 67.4389 23.5739 67.7497Z" fill="#251C1C"/>
<path d="M26.0394 91.2652C22.9238 94.2887 19.8753 97.3793 16.8059 100.453C16.5371 100.722 16.9528 101.142 17.2258 100.873C20.2994 97.8076 23.3899 94.7548 26.4131 91.6389C26.6483 91.3954 26.2829 91.0301 26.0394 91.2652Z" fill="#251C1C"/>
<path d="M62.2216 30.3006C59.2151 33.1351 56.3346 36.1124 53.4457 39.0644C53.198 39.3164 53.5801 39.6985 53.832 39.4507C56.7839 36.5575 59.761 33.681 62.5953 30.6744C62.8262 30.4266 62.4693 30.0697 62.2216 30.3006Z" fill="#251C1C"/>
<path d="M74.9151 35.1005C72.9164 37.0489 70.9429 39.0226 68.9652 40.992C68.6419 41.3154 69.1457 41.8193 69.4691 41.4959C71.4468 39.5265 73.4245 37.557 75.377 35.5624C75.6751 35.2643 75.2174 34.8066 74.9151 35.1005Z" fill="#251C1C"/>
<path d="M91.9417 52.5695L86.9072 57.6212C86.5502 57.9781 87.1045 58.5366 87.4614 58.1755L92.5128 53.1406C92.8907 52.7753 92.3112 52.1958 91.9417 52.5695Z" fill="#251C1C"/>
<path d="M99.6259 65.0788C96.6572 68.1022 93.6843 71.1257 90.7157 74.1533C90.4637 74.4095 90.8542 74.7958 91.1062 74.5439C94.1294 71.575 97.1569 68.6061 100.18 65.6331C100.545 65.2803 99.9828 64.7177 99.6259 65.0788Z" fill="#251C1C"/>
<path d="M102.15 118.694C100.139 120.558 98.1693 122.456 96.2 124.367C95.9144 124.644 96.3511 125.081 96.6367 124.804C98.6144 122.906 100.584 121.008 102.524 119.068C102.763 118.828 102.398 118.467 102.15 118.694Z" fill="#251C1C"/>
</svg>
