<svg width="23" height="24" viewBox="0 0 23 24" fill="none" xmlns="http://www.w3.org/2000/svg">
<path d="M10.4906 20.633C12.2588 18.415 13.7368 15.8658 15.2252 13.4521C16.6844 11.0848 18.1384 8.71576 19.589 6.3433C20.3031 5.17596 19.8448 3.5571 18.6792 2.87558C17.4758 2.17174 15.9239 2.61126 15.2115 3.78547C13.7969 6.11329 12.3772 8.43765 10.9558 10.7603C10.2451 11.9208 9.56015 13.0984 8.87005 14.2726C8.79623 14.398 8.72069 14.5233 8.64515 14.6486C7.61514 13.1242 6.57142 11.6067 5.35601 10.2591C4.42042 9.22219 2.55954 10.3071 2.99558 11.6324C3.96207 14.5731 5.60838 17.3231 6.83409 20.1643C7.39201 21.4552 9.62194 21.7214 10.4906 20.633Z" fill="#39B100"/>
<path d="M0.0309601 12.1165C0.219795 12.635 0.441233 13.1448 0.703885 13.6289C0.894436 13.9791 1.19487 14.2693 1.40774 14.6109C2.06695 15.6598 2.70042 16.7259 3.35791 17.7765C3.89866 18.6434 4.43254 19.5189 5.02136 20.3515C5.71661 21.3351 6.49253 22.2604 7.19122 23.2423C7.79034 24.0835 8.6178 24.0698 9.13452 23.2492C9.53107 22.6175 9.98943 22.0252 10.4289 21.4227C11.452 20.0167 12.4786 18.6142 13.5069 17.2117C13.7283 16.9113 13.9618 16.6194 14.1884 16.3224C14.7154 15.6374 15.2545 14.9611 15.7609 14.2624C16.1266 13.7594 16.4304 13.2135 16.7892 12.7071C17.8312 11.241 18.8921 9.78699 19.9359 8.32266C20.2964 7.81796 20.6277 7.29613 20.9693 6.77941C21.5358 5.92622 22.0663 5.04902 22.6757 4.22845C22.9435 3.86623 23.0482 3.50743 22.9795 3.10573C22.9503 2.93406 22.7238 2.64908 22.619 2.66281C21.9083 2.75895 21.6543 2.22159 21.2989 1.80615C21.2045 1.69628 21.0878 1.58987 20.9573 1.52979C20.2294 1.19504 19.4964 0.870551 18.76 0.551248C18.5333 0.453398 18.2999 0.353844 18.0578 0.307493C17.2664 0.154709 16.7806 0.504912 16.554 1.29458C16.4441 1.67569 16.2914 2.05853 16.0854 2.395C14.3155 5.28246 12.1456 7.88323 10.1336 10.5956C9.69932 11.1775 9.16028 11.6822 8.58862 12.3105C8.01869 11.7285 7.50882 11.1999 6.98867 10.678C6.4668 10.1544 5.9947 9.55185 5.39215 9.14328C4.64196 8.63343 4.08405 8.75877 3.51926 9.46776C3.11584 9.97761 2.618 10.3037 2.05493 10.5818C1.49873 10.8565 0.956242 11.1603 0.408621 11.4522C0.139103 11.5946 -0.0840575 11.8024 0.0309601 12.1165ZM3.87291 10.9046C4.65572 10.587 5.37672 10.7569 5.84194 11.4625C6.41359 12.326 7.12944 13.0419 7.85388 13.7663C8.26245 14.1766 8.69331 14.2109 9.16197 13.8092C9.37312 13.6307 9.54993 13.4041 9.71645 13.1809C10.9645 11.5209 12.2194 9.86595 13.4468 8.19047C14.5283 6.71413 15.5789 5.21383 16.645 3.72375C16.8252 3.4714 17.0072 3.22071 17.1978 2.97522C17.9548 2.01388 18.6226 2.062 19.4294 2.77614C20.0303 3.3066 20.5985 3.51598 21.5804 3.41126C21.1616 4.13399 20.8611 4.66789 20.5453 5.19148C19.9032 6.25582 19.3402 7.38024 18.5866 8.36046C17.0759 10.3243 15.7008 12.3827 14.2434 14.3826C12.9455 16.1628 11.6512 17.9447 10.3431 19.7163C9.883 20.3394 9.38857 20.9368 8.90447 21.5411C8.49418 22.0527 7.98092 22.0424 7.60325 21.5068C6.17326 19.4828 4.70892 17.4778 3.34072 15.4126C2.73302 14.4959 2.32102 13.4487 1.84207 12.5062C2.37595 11.6582 3.08495 11.2256 3.87291 10.9046Z" fill="#251C1C"/>
</svg>
