<svg width="120" height="164" viewBox="0 0 120 164" fill="none" xmlns="http://www.w3.org/2000/svg">
<path d="M71.8381 36.8724C69.6894 36.9861 67.469 37.2642 65.3793 37.7951C63.6097 38.2459 61.4736 38.84 60.2308 40.2642C59.6999 39.4046 58.7814 38.8358 57.7113 38.7726C56.3672 38.6968 55.158 39.4131 54.4334 40.517C54.0036 40.2347 53.4896 40.0409 53.0346 39.8302C52.1203 39.4046 51.206 38.9791 50.2918 38.5619C49.3986 38.1532 48.4169 37.5212 47.3973 37.7487C46.6052 37.9257 46.1713 38.4777 45.9396 39.1771C45.5519 40.1715 45.6783 41.3555 45.7036 42.4046C45.7247 43.4074 45.7837 44.406 45.8764 45.4046C46.0112 46.8498 45.9016 50.0816 47.7133 50.5914C47.7175 50.5914 47.7175 50.5914 47.7217 50.5914C48.2821 50.8948 48.9899 50.9453 49.5418 50.5914C50.6499 49.8877 51.817 49.0408 52.6048 47.9748C53.3421 47.6167 54.0458 47.3554 54.4334 46.5591C54.4671 46.4917 54.4924 46.4201 54.5176 46.3526C55.0148 46.4243 55.5288 46.2894 55.9586 45.965C57.0666 46.5338 58.4359 46.0619 59.3081 45.1476C59.7673 44.6673 60.1507 44.1111 60.4035 43.5086C60.5594 43.7993 60.8037 44.0647 61.1492 44.2796C62.4469 45.0802 63.753 45.8765 65.0717 46.6434C66.243 47.3217 67.5659 47.8526 68.6403 48.6785C69.3018 49.1883 70.5489 48.67 70.6753 47.8526C70.8944 46.399 71.6949 45.2403 72.2384 43.913C72.7524 42.6448 73.1232 41.3344 73.6793 40.0788C74.2818 38.7136 73.6077 36.7797 71.8381 36.8724Z" fill="#E5332A"/>
<path d="M31.8256 132.189C30.8355 134.224 29.8243 136.251 28.8174 138.278C28.5983 138.716 28.3708 139.154 28.139 139.597C28.177 139.622 28.2149 139.651 28.2486 139.685C28.7289 140.161 29.226 140.625 29.7021 141.101C30.9197 138.345 32.1205 135.594 33.1106 132.733C33.3718 131.983 32.1753 131.469 31.8256 132.189Z" fill="#1D1D1B"/>
<path d="M54.2141 58.3862C53.8897 58.6559 53.5737 58.9298 53.2577 59.2036C53.0765 59.3595 52.8827 59.507 52.7184 59.6756C52.4656 59.4185 52.1875 59.1784 51.8758 58.9593C51.901 58.9256 51.9221 58.8918 51.9432 58.8497C52.276 58.1587 52.5541 57.4508 52.8322 56.7346C53.0007 56.3048 52.3561 56.0941 52.1243 56.4354C51.7157 57.0379 51.3112 57.632 50.9488 58.2683C50.9236 58.3104 50.9067 58.3525 50.8941 58.3904C50.439 58.1756 49.9503 58.0112 49.4532 57.9228C49.4658 57.9017 49.4784 57.8764 49.4827 57.8469C49.6217 57.198 49.4026 56.4396 49.1414 55.8497C49.0571 55.6601 48.7706 55.7655 48.7706 55.9508C48.7664 56.2795 48.7748 56.5955 48.7959 56.9242C48.8128 57.236 48.7917 57.5478 48.8717 57.8511C48.8717 57.8553 48.876 57.8553 48.876 57.8596C48.4336 57.8385 47.987 57.8806 47.5614 58.0112C47.2792 58.0997 47.0264 58.2219 46.8031 58.3778C46.5418 57.7121 46.1584 57.1306 45.8003 56.4986C45.6571 56.2458 45.2947 56.4228 45.3495 56.6882C45.5307 57.552 45.6318 58.3736 46.0068 59.1784C45.7118 59.5997 45.5012 60.0885 45.3453 60.5941C44.7849 60.2444 44.056 60.0632 43.4493 59.8357C42.9058 59.6292 42.5309 60.5182 43.0533 60.7795C43.6853 61.0955 44.3721 61.5632 45.0714 61.698C45.0757 61.698 45.0799 61.698 45.0883 61.698C44.4732 64.9297 44.688 69.1811 46.6598 71.8356C46.9842 72.2696 47.6078 72.219 47.8479 71.8525C48.5852 71.8651 49.3226 71.882 50.0599 71.8777C50.3169 72.0252 50.6708 72.021 50.9236 71.8651C51.8168 71.8525 52.7858 71.9199 53.6537 71.7513C55.318 71.4311 55.0104 69.5224 55.0062 68.2331C54.9935 65.6418 54.9051 62.7345 53.4599 60.5814C53.6537 60.4635 53.8307 60.3202 54.0161 60.1854C54.3573 59.941 54.6986 59.7008 55.0357 59.448C55.8235 58.875 54.9767 57.7542 54.2141 58.3862ZM53.1018 70.5126C52.8869 70.6727 52.6341 70.7106 52.3771 70.7233C52.8911 69.08 52.8701 67.3272 52.5372 65.6376C52.3097 64.4705 51.821 62.6123 50.2368 62.9283C48.7664 63.2233 48.5052 65.2626 48.362 66.4466C48.1766 67.9676 48.2271 69.6235 48.9223 71.0098C48.5726 71.0477 48.2271 71.0856 47.8774 71.1277C47.5614 69.969 47.098 68.8651 46.8452 67.6853C46.5671 66.3918 46.4744 65.0604 46.5461 63.7373C46.6093 62.625 46.6724 60.7458 47.5572 59.9157C48.5094 59.0267 50.1863 59.7725 51.0542 60.4171C53.2661 62.0646 53.2745 65.0772 53.3672 67.5758C53.3925 68.2331 53.4136 68.8946 53.4052 69.5519C53.3967 70.0702 53.4936 70.2176 53.1018 70.5126Z" fill="#1D1D1B"/>
<path d="M77.1509 58.5217C76.6285 58.7492 76.1734 59.0273 75.7016 59.3476C75.4277 59.533 75.1454 59.7478 74.9474 60.0133C74.6103 59.5456 74.2101 59.179 73.7677 58.9178C73.7719 58.9094 73.7803 58.9051 73.7846 58.8967C74.1722 58.2436 74.2986 57.5442 74.3323 56.79C74.3618 56.1538 73.4475 56.1959 73.3717 56.79C73.2916 57.3799 73.0894 57.9613 72.9251 58.5344C72.9251 58.5386 72.9251 58.547 72.9209 58.5512C72.4321 58.4122 71.9223 58.3785 71.4167 58.4501C71.3999 57.738 71.2566 57.0807 70.9996 56.3981C70.8606 56.0231 70.1949 56.0316 70.2413 56.4993C70.3129 57.2661 70.2918 58.0582 70.2244 58.8251C69.9969 58.9389 69.7778 59.0737 69.5671 59.2338C69.5419 59.0568 69.4492 58.8925 69.2722 58.8124C68.7329 58.5681 68.2189 58.2521 67.726 57.9276C67.4774 57.7633 67.2204 58.0793 67.3426 58.311C67.6417 58.8841 68.0378 59.356 68.5223 59.7858C68.6108 59.8658 68.7203 59.9164 68.8256 59.9417C68.5096 60.3167 68.2653 60.7211 68.0715 61.1467C67.6501 60.7506 67.0392 60.5231 66.5378 60.2577C65.7921 59.8658 65.1391 60.9697 65.8764 61.3911C66.4325 61.7071 67.035 62.1832 67.6881 62.2675C67.1404 64.4838 67.5701 67.0708 67.4016 69.2323C67.3468 69.9697 68.5307 70.1256 68.6908 69.4051C69.209 67.0708 68.4801 64.5975 69.2048 62.3054C69.5545 61.2015 70.3255 60.106 71.5305 59.8532C72.8661 59.5709 73.8646 60.6748 74.2522 61.8335C74.9937 64.0582 74.6904 66.9107 74.5556 69.2155C74.5008 70.1214 74.4587 70.2857 73.5486 70.252C73.4349 70.2478 73.3169 70.2436 73.2031 70.2394C73.7382 68.6804 73.8646 67.075 73.5613 65.4487C73.3633 64.3826 72.9756 62.8363 71.6822 62.6888C68.7456 62.3518 69.2259 68.3559 69.5461 70.1256C68.8972 70.1045 68.2526 70.075 67.6038 70.0413C67.1151 70.016 67.1319 70.7408 67.6038 70.7913C69.5124 70.9978 71.4167 71.2422 73.3295 71.3981C74.5514 71.4992 75.7058 71.5666 75.908 70.0919C76.1608 68.2253 76.1566 66.2619 76.085 64.3826C76.0344 63.1312 75.9249 61.8209 75.3687 60.6874C75.7437 60.6158 76.1271 60.4009 76.4389 60.224C76.9192 59.9501 77.3447 59.6678 77.7703 59.3139C78.2379 58.9136 77.627 58.3195 77.1509 58.5217Z" fill="#1D1D1B"/>
<path d="M65.1057 74.6424C64.461 73.3657 63.1339 74.2884 62.5651 75.0553C62.2112 75.5356 61.9331 76.0454 61.7182 76.5806C61.0062 75.03 59.4389 73.3952 58.3181 74.5075C57.4291 75.3881 58.1496 76.6311 58.7521 77.4317C59.4136 78.3123 60.4416 79.1171 61.5202 79.4668C61.6761 79.5805 61.8573 79.6143 62.0384 79.589C63.0833 79.6901 63.749 78.6789 64.2504 77.8446C64.7222 77.0651 65.5733 75.5651 65.1057 74.6424Z" fill="#1D1D1B"/>
<path d="M92.9762 67.113C92.8961 66.6833 92.7487 66.2998 92.5464 65.9585C93.3849 64.9937 94.0211 63.8771 94.0716 62.5583C94.1095 61.5723 93.7809 60.6622 93.1868 59.9712C93.4523 58.7535 93.2079 57.3083 92.7234 56.3308C92.5254 55.9347 92.2726 55.5766 91.9734 55.2648C91.788 54.5148 91.5353 53.7859 91.215 53.0822C91.135 52.9095 91.0086 52.8168 90.8653 52.783C91.1561 52.6145 91.3794 52.3238 91.4215 51.9067C91.7038 48.8308 91.708 45.7634 91.5985 42.6792C91.5774 42.0303 90.8822 41.2972 90.1744 41.5921C88.1184 42.4601 86.0539 43.3154 84.0147 44.2171C83.1215 44.6132 82.2156 45.0893 81.2592 45.3294C80.1849 45.5949 79.2411 45.2873 78.2299 44.9207C76.8606 44.4278 75.4829 43.9938 74.0884 43.6061C74.4086 42.7971 74.7035 41.9755 74.9563 41.1455C75.386 39.734 76.1823 37.6357 75.0321 36.3463C73.8988 35.0781 71.67 35.5079 70.1912 35.727C68.2194 36.0135 66.2391 36.4854 64.3811 37.2143C63.4458 37.5809 62.5231 38.0275 61.6468 38.5205C61.1791 38.7817 60.7283 39.064 60.2901 39.3674C60.1426 39.4685 60.0415 39.5612 59.953 39.6497C59.0008 38.6975 57.5515 38.3225 56.3507 39.2536C56.2538 39.3295 56.178 39.4137 56.1275 39.5022C55.9758 39.4559 55.7946 39.5401 55.7651 39.7592C55.7482 39.8856 55.723 40.0121 55.6935 40.1385C52.542 39.0303 50.0941 36.1315 46.4624 36.5991C45.0257 36.7845 44.0355 37.5598 44.0608 39.0809C44.0819 40.6778 44.36 42.3295 44.5917 43.9348C43.9808 44.1202 43.3741 44.314 42.7716 44.5247C41.7183 44.8912 40.665 45.4558 39.578 45.6876C38.3266 45.9572 37.4082 44.9544 36.4939 44.2424C34.5685 42.7466 32.6388 41.255 30.7092 39.7635C30.0224 39.2326 29.1798 40.1047 29.3483 40.8084C29.8876 43.071 30.33 45.3505 30.7976 47.6258C31.1516 49.3407 31.3917 51.1861 31.8509 52.9137C31.4928 53.8954 31.4718 54.9867 31.5265 56.078C30.4985 56.4235 29.6179 57.1145 29.0829 58.29C28.5562 59.4403 28.691 60.6622 29.1966 61.7914C29.3399 62.1074 29.521 62.4445 29.7317 62.7816C29.8834 63.1777 30.0856 63.5527 30.33 63.9024C29.4073 64.7366 28.8259 65.9838 28.8975 67.2984C28.9902 69.0849 29.9171 70.4585 31.2148 71.4445C30.5322 72.4431 30.2373 73.7366 30.4858 75.0091C30.8061 76.6312 31.7962 77.8447 33.0728 78.7127C32.4492 79.568 32.1037 80.6298 32.1711 81.8012C32.2554 83.2169 32.9379 84.4135 33.9365 85.2688C33.4098 86.0694 33.1023 87.0174 33.1149 88.0034C33.1318 89.0736 33.5531 90.1017 34.2272 90.9275C32.9674 92.1831 32.2091 93.9148 32.2133 95.7688C32.2133 96.5525 32.622 97.0749 33.1613 97.3446C32.0237 98.9626 31.0504 100.69 30.2752 102.493C27.2375 109.547 27.4692 117.578 31.122 124.328C29.6853 126.455 29.9423 129.304 31.8341 131.115C31.5771 131.659 31.3116 132.198 31.0462 132.733C31.1642 132.915 31.2906 133.092 31.4296 133.26C31.792 133.555 32.1374 133.863 32.4787 134.179C35.3142 128.541 37.4208 122.541 38.6763 116.347C38.8996 115.239 39.0934 114.123 39.2662 113.006C39.1861 111.561 39.0471 110.023 40.2352 108.982C40.3026 108.923 40.37 108.868 40.4417 108.818C40.4332 108.809 40.4248 108.801 40.4122 108.797C40.4669 108.767 40.5217 108.738 40.5807 108.713C40.5891 108.708 40.5976 108.708 40.6018 108.704C41.4065 108.148 42.3713 107.895 43.3235 107.63C43.3193 107.625 43.3151 107.621 43.3151 107.617C45.6071 106.269 47.3092 104.044 48.3794 101.638C49.9593 98.082 50.3174 94.1129 50.2079 90.266C50.2079 90.2618 50.2037 90.2576 50.2037 90.2533C50.6671 90.4135 51.1306 90.5694 51.5983 90.7084C52.6473 91.0244 53.7175 91.3025 54.8003 91.5385C53.5363 94.8671 53.6922 98.5328 54.3958 101.975C55.0025 104.95 56.2791 108.089 58.7102 110.036C60.7746 111.691 63.9472 112.559 66.4035 111.211C68.7797 109.905 69.8836 106.943 70.5071 104.47C71.0169 102.447 71.3835 100.374 71.5857 98.2968C71.7837 96.2954 72.2977 93.8011 71.6447 91.8587C71.5899 91.6986 71.5099 91.5764 71.413 91.4879C71.9902 91.3446 72.5632 91.1887 73.1277 91.0118C73.8946 90.7716 74.6403 90.4977 75.365 90.1944C74.7583 91.7576 75.0279 93.9275 75.0111 95.5876C74.9942 97.471 75.0405 99.3586 75.1754 101.238C75.2723 102.599 75.4534 103.964 75.9927 105.228C76.5615 106.568 77.5053 107.368 78.449 108.422C79.7298 109.85 79.6077 111.805 79.8099 113.6C80.0079 115.374 80.2649 117.148 80.5978 118.901C80.8843 120.409 81.2255 121.905 81.6174 123.388C81.5795 123.439 81.5457 123.489 81.5078 123.54C81.0359 124.231 81.4825 124.964 82.1229 125.217C82.5653 126.725 83.0541 128.225 83.5892 129.704C83.8967 130.551 85.2576 130.184 84.9458 129.329C84.4191 127.884 83.9388 126.426 83.5049 124.951C84.6888 124.142 85.6199 122.68 86.2477 121.458C86.9555 120.076 87.419 118.576 87.7223 117.059C88.3964 113.672 88.4428 110.132 88.3627 106.69C88.2869 103.555 87.7518 100.551 86.4289 97.7828C86.5426 97.707 86.6479 97.6227 86.7491 97.5342L86.8333 97.5637C87.5243 97.8123 88.4006 97.5258 88.8978 97.016C90.2376 95.655 90.9328 93.3039 89.9469 91.568C89.6393 91.0202 89.0537 90.4809 88.3754 90.089C89.555 89.5792 90.5578 88.5048 90.8443 87.3587C91.0549 86.5244 90.9622 85.7239 90.6547 85.0371C91.2993 84.325 91.7164 83.4444 91.7206 82.3952C91.7206 81.6916 91.5395 81.0427 91.2193 80.4866C91.7291 79.8587 92.0956 79.134 92.1967 78.2618C92.2936 77.4276 92.1546 76.5722 91.7164 75.8433C91.649 75.7296 91.5732 75.6242 91.4931 75.5189C91.7544 75.2661 92.0156 75.0133 92.2641 74.752C92.9551 74.0315 93.4565 73.1762 93.4312 72.1439C93.4059 71.2085 92.9762 70.4669 92.3611 69.8728C92.8835 69.0596 93.17 68.1411 92.9762 67.113ZM78.3184 47.7775C78.3395 47.7311 78.3521 47.6805 78.3648 47.63C78.39 47.6384 78.4195 47.6468 78.4448 47.6553C78.3479 47.8027 78.2679 47.9586 78.1963 48.1187C78.23 47.9923 78.2721 47.8786 78.3184 47.7775ZM61.8785 40.0837C62.6242 39.7972 63.3615 39.5106 64.1241 39.2747C65.5271 38.8365 66.9343 38.4194 68.3795 38.1455C69.2095 37.9854 70.0395 37.88 70.8779 37.7916C71.531 37.7241 72.5126 37.4418 73.1446 37.6483C74.1515 37.9769 72.7991 41.2845 72.559 41.9966C72.0239 43.5682 71.3582 45.0893 70.663 46.5935C70.5156 46.9179 70.0184 48.519 69.6898 48.6496C69.2516 48.8224 68.0214 48.0134 67.6632 47.807C67.5874 47.7648 67.5073 47.7185 67.4315 47.6763C67.263 47.4952 67.0523 47.3772 66.8206 47.3266C65.9569 46.8336 65.0805 46.3365 64.2632 45.8056C64.2547 45.8013 64.2463 45.7929 64.2379 45.7887C63.8166 45.2957 63.2562 44.8744 62.6579 44.6426C62.1481 44.2634 61.6341 43.9011 61.0822 43.6188C61.0906 43.5471 61.0948 43.4713 61.099 43.3997C62.5905 43.7157 64.2674 43.8589 65.4302 44.9249C66.6015 45.9952 67.8359 43.7662 66.3529 43.3365C64.6508 42.8435 62.8644 42.1567 61.1075 42.6455C61.099 42.4896 61.0906 42.3379 61.0738 42.1862C62.1186 42.0134 63.1593 41.807 64.221 41.748C65.683 41.6679 67.0649 41.9713 68.4932 42.2494C70.0858 42.5612 70.4355 40.2017 68.7924 40.0373C67.2798 39.8856 65.7336 40.1342 64.2505 40.4292C63.0961 40.6567 61.9796 40.9601 60.9558 41.5036C60.8926 41.234 60.8125 40.9811 60.7156 40.7536C60.6903 40.6946 60.6651 40.6399 60.6356 40.5809C61.0443 40.4376 61.474 40.2396 61.8785 40.0837ZM55.8789 43.1258C55.98 42.1946 56.296 41.3899 56.3465 40.4924C56.5825 40.6525 56.9195 40.6736 57.2439 40.4123C58.5964 39.321 59.8561 41.2972 59.953 42.4348C59.9825 42.7803 59.9952 43.189 59.9573 43.5851C59.6286 43.8379 59.4938 44.3351 59.6329 44.7227C59.616 44.748 59.5991 44.7733 59.5781 44.7985C58.9377 44.5626 58.1835 44.7396 57.7116 45.2199C57.1302 45.182 56.4772 45.123 56.1275 44.6384C55.8325 44.2213 55.8283 43.6019 55.8789 43.1258ZM47.0522 38.3477C47.701 38.3267 48.3457 38.4783 48.9608 38.668C50.1826 39.0387 51.2907 39.6876 52.4788 40.1553C53.5574 40.5767 54.4422 40.7241 55.525 40.7283C55.4196 41.0443 55.2974 41.3688 55.1711 41.689C54.2441 41.4615 53.3383 41.3604 52.3651 41.3561C51.2781 41.3519 49.9804 41.2466 48.9439 41.55C47.8232 41.8828 48.3372 43.6862 49.4242 43.2901C50.3469 42.9573 51.0927 42.439 52.087 42.2873C52.8243 42.1736 53.5995 42.1736 54.3621 42.2325C54.3453 42.4348 54.3284 42.637 54.3073 42.8435C54.3453 42.6413 54.3832 42.439 54.4211 42.241C54.598 42.2536 54.775 42.2747 54.952 42.2915C54.7876 42.7634 54.6528 43.2353 54.6065 43.703C53.8734 43.9221 53.174 44.196 52.4957 44.5668C52.1123 44.7733 51.7415 44.9924 51.3497 45.1862C51.0505 45.3337 50.7051 45.696 50.4143 45.8056C49.7318 46.071 49.4495 46.9516 50.0941 47.4488C50.7219 47.9334 51.5561 47.4614 51.6025 46.7115C51.6109 46.564 51.9437 46.1763 52.0364 46.0457C52.3229 45.6412 52.719 45.3926 53.1403 45.1525C53.6164 44.8786 54.1177 44.6426 54.6149 44.4067C54.6697 44.8028 54.8129 45.1904 55.091 45.5612C54.1767 46.1426 53.372 47.0064 52.5631 47.6974C51.4676 48.637 50.3596 49.762 49.1251 50.512C48.4004 50.9544 47.7895 51.064 47.4482 50.2171C47.2249 49.6693 47.246 48.9025 47.1575 48.3084C46.9511 46.9011 46.6814 45.5022 46.4666 44.0949C46.2517 42.6918 46.0326 41.2887 45.8893 39.8772C45.7924 38.9629 46.0242 38.3814 47.0522 38.3477ZM33.1107 55.7957C33.4183 54.8434 33.6795 53.887 33.6331 52.9347C33.6121 52.5345 33.3003 52.2142 32.9464 52.1047C32.8832 50.5246 32.6135 48.9067 32.4197 47.4067C32.2217 45.8983 31.9563 44.3983 31.6613 42.9025C32.7947 43.8252 33.9238 44.748 35.0572 45.6665C36.4855 46.8294 37.8126 48.1187 39.7928 47.7985C39.776 47.8364 39.7634 47.8744 39.7465 47.9165C39.3547 48.1314 39.005 48.4053 38.7395 48.7128C38.0401 49.5345 37.8168 50.4488 37.8674 51.38C37.2733 51.3547 36.6624 51.5064 36.1273 51.8645C34.7707 52.7788 34.4547 54.2873 34.5684 55.7915C34.5263 55.8167 34.4842 55.8378 34.4421 55.8631C34.0039 55.8041 33.5531 55.7788 33.1107 55.7957ZM49.6265 90.1691C48.3288 96.2449 47.6041 103.939 40.9388 106.597C39.6749 107.103 38.4615 107.512 38.0696 108.97C37.6188 110.651 37.5809 112.513 37.2607 114.232C36.6287 117.632 35.7439 120.986 34.619 124.256C33.9365 126.245 33.157 128.196 32.2891 130.108C31.2021 128.579 31.1895 126.337 32.3818 124.842C32.5714 124.606 32.6514 124.307 32.4871 124.028C30.6459 120.881 29.7738 117.249 29.7443 113.592C30.5575 114.38 31.9942 114.573 33.0812 114.316C33.9575 114.11 34.3662 113.17 34.1935 112.353C33.987 111.35 33.3888 110.44 32.702 109.694C32.1248 109.066 31.219 108.3 30.2963 108.236C30.5491 107.065 30.8861 105.911 31.3074 104.798C32.0953 105.965 33.7258 106.652 34.9308 107.149C35.6723 107.453 36.7972 106.812 36.911 106.024C37.1048 104.697 36.9321 103.522 36.2074 102.367C35.6555 101.486 34.7201 100.441 33.6373 100.18C34.0924 99.4682 34.5769 98.7814 35.0951 98.1157C36.1863 98.8615 37.5008 99.0131 38.5752 97.707C39.1187 97.0454 39.3336 96.2112 39.2662 95.3769C39.8855 95.5665 40.5891 95.5455 41.1369 95.1873C41.9626 94.6522 42.2533 93.8179 42.207 92.9542C42.266 92.9668 42.325 92.9837 42.384 92.9921C43.5342 93.1775 44.7349 92.8109 45.5312 91.9387C46.3022 91.096 46.5466 89.7688 46.3065 88.5806C47.4019 89.1284 48.5268 89.6213 49.677 90.0427C49.6602 90.0848 49.6349 90.1227 49.6265 90.1691ZM70.3554 98.28C70.2796 100.269 70.0563 102.266 69.5886 104.204C68.805 107.448 66.7321 110.92 62.8559 110.183C59.3253 109.513 57.522 106.134 56.6457 102.961C55.6134 99.228 55.4238 95.4823 55.3438 91.6396C55.6935 91.7112 56.0474 91.7744 56.4013 91.8376C57.0459 95.891 58.1034 99.8011 60.0584 103.437C60.2058 103.715 60.6735 103.526 60.5724 103.222C59.3211 99.4977 58.0065 95.773 57.0754 91.9514C61.2844 92.6171 65.6409 92.6255 69.7993 91.8208C68.9904 93.6578 68.1435 95.4823 67.322 97.3151C66.9343 98.1873 66.5383 99.0553 66.1717 99.9359C65.683 101.111 64.9078 102.11 64.4106 103.269C64.28 103.572 64.6592 103.804 64.8572 103.53C65.5229 102.603 65.8894 101.499 66.4835 100.526C67.0776 99.5525 67.6253 98.5665 68.1225 97.5342C68.8471 96.03 69.4707 94.4794 70.0353 92.912C70.0605 93.662 70.1996 94.4331 70.2543 95.162C70.3302 96.207 70.3976 97.2351 70.3554 98.28ZM74.4086 89.1115C65.4892 92.7561 54.3158 91.9345 45.6913 87.1312C45.3164 86.6129 44.7939 86.2295 44.1367 86.0862C44.0355 85.9683 43.9134 85.8629 43.7701 85.7744C43.4204 85.5553 43.0581 85.3742 42.6831 85.2225C42.3671 84.995 42.0595 84.7548 41.7562 84.5146C41.8278 84.0301 41.8531 83.5624 41.8152 83.1368C41.6972 81.7042 41.0484 80.4065 40.0372 79.5301C40.4417 78.7085 40.6102 77.7731 40.4628 76.8166C40.3069 75.8054 39.8013 74.8953 39.0766 74.2085C39.8013 73.113 40.1636 71.8195 39.9024 70.4332C39.7296 69.5021 39.2493 68.6594 38.5794 68.0105C38.6595 67.9557 38.7395 67.9009 38.8069 67.842C39.6749 67.1425 40.2268 66.1734 40.2099 65.04C40.1889 63.8265 39.3504 62.6552 38.3056 62.0906C38.1581 62.0105 37.998 61.9347 37.8295 61.8631C38.1792 61.7577 38.5078 61.6103 38.7817 61.4206C39.7928 60.7254 40.3111 59.6341 40.4164 58.4796C40.9978 58.3912 41.5624 58.1341 42.0301 57.6833C42.6873 57.0513 42.9865 56.2128 42.9907 55.3575C43.5173 55.2437 44.006 55.0035 44.4274 54.5611C45.0973 53.8575 45.2616 52.9432 45.1647 52.0373C45.1857 52.0204 45.211 52.0036 45.2321 51.9867C45.5186 51.7423 45.7503 51.4558 45.9104 51.1229C46.3275 51.9067 47.0353 52.3996 48.0507 52.4123C49.5759 52.4291 50.8019 51.1314 51.9016 50.2465C52.1544 50.0443 52.4114 49.8421 52.6684 49.6398C52.5294 50.3308 52.7063 51.0218 53.3889 51.6033C54.6992 52.7156 56.0095 51.9277 57.0291 50.6932C57.5431 51.1356 58.2088 51.3378 59.0598 51.0977C59.4053 51.0008 59.696 50.8491 59.932 50.6553C59.9657 50.6763 59.9952 50.6974 60.0247 50.7185C61.3898 51.5443 63.4121 51.7845 64.5497 50.4656C64.7687 50.2128 64.9288 49.9221 65.0384 49.6145C65.2111 49.8252 65.4429 49.9895 65.742 50.0654C66.5383 50.2676 67.3557 49.8126 67.6548 49.1342C68.3331 49.5724 69.0367 49.9685 69.7361 50.2339C70.9032 50.6763 71.6405 49.3407 72.1461 48.1398C72.264 48.4011 72.4199 48.6412 72.6222 48.8308C73.3089 49.4713 74.3327 49.5935 75.1585 49.1426C75.2638 49.0836 75.3692 49.012 75.4745 48.9319C75.1796 49.8673 75.2554 50.946 75.7315 51.894C76.414 53.2465 77.6949 53.9755 79.0768 54.1187C79.3043 55.349 79.8689 56.4993 80.8169 57.4136C81.4236 57.9993 82.1482 58.4417 82.9235 58.7409C82.7928 58.8336 82.6665 58.9305 82.5527 59.0443C81.748 59.8364 81.6469 61.0246 82.144 62.0105C82.519 62.7521 83.1383 63.2409 83.8588 63.5569C83.349 63.9403 82.9572 64.4628 82.7929 65.0779C82.4895 66.2156 82.9993 67.1973 83.7956 67.9262C83.6186 68.1875 83.467 68.4613 83.3406 68.7563C82.8434 69.9108 82.7928 71.1832 83.1552 72.3209C82.3378 72.8433 81.6932 73.6439 81.4278 74.6046C81.1371 75.6411 81.3435 76.7239 81.8744 77.6214C81.8786 77.7604 81.8912 77.8953 81.9165 78.0301C80.168 79.9093 79.574 82.6565 80.5219 85.0244C79.6287 85.1171 78.7861 86.0062 78.3985 87.0048C77.1514 87.8348 75.8073 88.5427 74.4086 89.1115ZM85.7463 111.506C85.4809 111.35 85.2028 111.333 84.8995 111.329C84.9584 111.329 84.8784 111.316 84.8236 111.312C84.8152 111.295 84.6298 111.211 84.6087 111.194C83.863 110.684 82.5527 111.165 82.401 112.092C82.2156 113.221 82.4853 114.274 83.2689 115.134C83.7577 115.669 84.4781 116.061 85.2154 116.153C84.9458 117.51 84.5582 118.85 83.9473 120.093C83.6018 120.797 83.1594 121.387 82.7002 121.964C82.4516 120.957 82.2199 119.95 82.0134 118.93C81.6258 117.013 81.3056 115.087 81.0781 113.145C80.9095 111.704 80.9517 110.057 80.227 108.755C79.515 107.465 78.1035 106.829 77.2609 105.649C76.3256 104.335 76.1318 102.599 76.0138 101.036C75.879 99.2154 75.82 97.3867 75.7484 95.5623C75.7147 94.6606 75.6936 93.7632 75.6767 92.8615C75.6599 91.9724 75.761 90.9907 75.4787 90.148C75.4745 90.1396 75.4703 90.1312 75.4619 90.1269C76.3803 89.7393 77.2567 89.2927 78.0993 88.8039C78.1372 89.9036 78.6218 91.0244 79.4897 91.5848C79.3127 91.8587 79.1779 92.1663 79.1021 92.5202C78.7692 94.0075 79.6751 95.457 80.661 96.4851C81.6258 97.4921 82.9319 98.3727 84.3644 98.3769C84.9332 99.7589 85.3081 101.166 85.5357 102.62C85.5188 102.616 85.5019 102.611 85.4851 102.611C85.3629 102.59 85.2449 102.603 85.1228 102.645C85.0848 102.662 85.0553 102.675 85.0258 102.691C85.009 102.691 84.9837 102.691 84.95 102.696C84.8363 102.713 84.7225 102.725 84.6087 102.742C84.4529 102.763 84.4487 102.767 84.5961 102.742C84.436 102.763 84.2759 102.784 84.1158 102.805C83.9936 102.822 83.8672 102.839 83.745 102.873C82.7128 103.147 81.9881 104.006 81.9586 105.089C81.9039 107.145 83.9894 108.215 85.8221 108.009C85.8221 109.172 85.8053 110.339 85.7463 111.506ZM90.0901 53.6594C89.8205 53.2507 89.4834 52.8884 89.0663 52.6187C87.874 51.8392 85.5356 51.717 84.6003 52.9263C84.4992 52.7536 84.4697 52.5387 84.5413 52.2732C84.8573 51.1103 83.6776 49.623 82.4052 50.137C82.1482 50.2423 81.9123 50.2929 81.6932 50.3097C81.4404 50.1749 81.1497 50.1075 80.8463 50.1159C80.2354 49.7451 79.9489 48.9025 80.0711 47.9923C80.2017 48.0008 80.3365 48.0092 80.4714 48.005C81.6131 47.9923 82.658 47.571 83.686 47.1159C85.6283 46.2564 87.5411 45.3379 89.4539 44.4151C89.5635 46.9137 89.4624 49.4165 89.2391 51.9067C89.1801 52.5429 89.6014 52.8884 90.0901 52.9432C90.0691 53.0106 90.0522 53.0822 90.0354 53.1538C90.0564 53.1454 90.0775 53.1412 90.1028 53.137C90.0143 53.2845 89.9932 53.4698 90.0901 53.6594Z" fill="#1D1D1B"/>
<path d="M65.1141 102.35C64.5453 101.688 63.7195 101.966 63.2687 102.573C63.1044 102.796 62.9527 103.028 62.8095 103.264C62.3292 102.489 61.5708 101.975 60.6776 102.299C59.8349 102.607 59.679 103.534 60.0077 104.28C60.2731 104.882 60.9557 105.796 61.6382 106.049C61.6213 106.593 62.3334 107.073 62.8601 106.597C63.5637 105.965 64.1957 105.278 64.7687 104.524C65.2616 103.888 65.7419 103.079 65.1141 102.35Z" fill="#E5332A"/>
<path d="M67.815 83.6121C67.5706 83.7975 67.3262 83.9365 67.0482 84.0587C66.5046 84.2989 65.9359 84.4169 65.3418 84.3452C64.9036 84.2947 64.516 84.143 64.2085 83.9155C63.8166 83.6921 63.4712 83.3888 63.0035 83.3551C62.1693 83.2919 61.651 83.8438 61.3056 84.5053C60.9264 83.907 60.4208 83.3888 59.6793 83.6079C59.0431 83.7975 58.5796 84.202 57.9561 84.3621C57.3873 84.5601 56.7806 84.6107 56.0728 84.4084C55.9127 84.3621 55.7568 84.3031 55.5967 84.2315C56.8185 86.1402 59.1316 87.2736 61.3983 87.3705C62.54 87.4211 63.5975 87.2904 64.5413 86.9618C65.8053 86.4098 66.9175 85.5124 67.6801 84.3537C67.8655 84.0292 68.0256 83.6795 68.1688 83.3003C68.0677 83.3677 67.8782 83.5657 67.815 83.6121Z" fill="#E5332A"/>
<path d="M36.5572 49.7621C35.8493 48.6793 34.8382 47.5079 33.7849 46.7579C33.6627 46.6694 33.5321 46.8127 33.5574 46.9349C33.7975 48.2748 33.9618 49.661 34.3115 50.984C34.3031 51.0093 34.2989 51.0346 34.2947 51.0599C34.2441 51.2537 34.3368 51.4601 34.4843 51.5823C34.4843 51.5865 34.4843 51.5865 34.4885 51.5908C34.5432 51.7593 34.7623 51.7888 34.8677 51.6877C34.9182 51.675 34.973 51.654 35.0236 51.6203C35.6555 51.161 37.1891 50.7354 36.5572 49.7621ZM36.0516 50.1666C36.0052 50.175 35.7019 50.293 35.3859 50.4194C35.3859 50.3773 35.3859 50.3351 35.3859 50.2888C35.5923 50.2298 35.7651 49.9981 35.6345 49.7537C35.5418 49.5809 35.4491 49.4082 35.3606 49.2396C35.3817 49.2691 35.4027 49.2986 35.4238 49.3281C35.5418 49.4882 35.9842 50.1287 36.0516 50.1666ZM34.0966 47.6259C34.1767 47.7228 34.2525 47.8197 34.3326 47.9166C34.2862 47.9335 34.2441 47.963 34.2104 47.9967C34.1725 47.8703 34.1346 47.7481 34.0966 47.6259Z" fill="#1D1D1B"/>
<path d="M48.5095 127.112C47.6795 130.343 46.7652 133.55 45.9731 136.79C45.5855 138.374 45.2358 139.967 44.8903 141.564C44.5532 143.119 44.1193 144.694 44.0055 146.287C43.9676 146.793 44.7302 146.864 44.865 146.405C45.3285 144.85 45.5012 143.19 45.7877 141.593C46.0784 139.984 46.386 138.378 46.6809 136.769C47.2708 133.554 47.8396 130.322 48.5811 127.137C48.5937 127.086 48.5221 127.065 48.5095 127.112Z" fill="#1D1D1B"/>
<path d="M59.009 132.897C57.922 138.261 57.0204 143.81 56.9909 149.292C56.9866 149.933 57.943 149.924 57.981 149.292C58.2927 143.827 58.5202 138.413 59.3334 132.99C59.3629 132.775 59.0511 132.683 59.009 132.897Z" fill="#1D1D1B"/>
<path d="M74.3789 145.112C73.9154 142.614 73.1865 140.178 72.761 137.667C72.3186 135.055 72.0532 132.417 71.9268 129.767C71.9142 129.468 71.4591 129.464 71.4591 129.767C71.4844 132.443 71.6571 135.114 71.99 137.773C72.306 140.301 72.6304 142.947 73.4604 145.365C73.6626 145.947 74.4884 145.711 74.3789 145.112Z" fill="#1D1D1B"/>
<path d="M90.0519 141.35C89.3989 139.631 88.729 137.92 88.0464 136.214C87.1069 133.863 86.0199 131.655 84.8654 129.409C84.8402 129.363 84.8107 129.325 84.7812 129.295C84.52 128.427 84.225 127.576 83.7363 126.793C83.4161 126.283 82.683 126.515 82.6409 127.088C82.5356 128.617 83.058 130.016 83.5256 131.47C84.0017 132.949 84.5326 134.411 85.1225 135.852C86.0831 138.215 87.2038 140.495 88.4045 142.741C88.9354 142.26 89.4831 141.784 90.0519 141.35Z" fill="#1D1D1B"/>
<path d="M69.8663 80.3638C69.1964 80.3638 69.1964 81.4003 69.8663 81.4003C70.5362 81.4003 70.5362 80.3638 69.8663 80.3638Z" fill="#1D1D1B"/>
<path d="M88.1352 47.5955C88.034 46.9214 87.1451 46.8497 86.7279 47.2247C86.2181 47.6798 85.7589 48.1306 85.3375 48.6489C85.2069 48.75 85.0974 48.8891 85.0342 49.045C84.9963 49.1082 84.9794 49.1756 84.9794 49.243C84.9499 49.4157 84.971 49.5969 85.0595 49.7781C85.1901 50.0393 85.367 50.25 85.5777 50.389C85.8979 50.7219 86.256 51.0126 86.6647 51.2528C87.1408 51.5351 87.8697 51.2865 87.9919 50.7135C88.2068 49.6812 88.2868 48.6405 88.1352 47.5955Z" fill="#1D1D1B"/>
<path d="M118.066 71.7899C118.698 76.2098 118.997 80.6803 119.014 85.1465C119.001 89.6128 118.71 94.0833 118.078 98.5032C117.442 102.923 116.503 107.301 115.226 111.573C114.59 113.705 113.874 115.821 113.077 117.898C112.277 119.975 111.4 122.023 110.444 124.028C108.531 128.04 106.298 131.891 103.753 135.514C101.213 139.142 98.3478 142.525 95.1922 145.597C93.6122 147.131 91.9564 148.589 90.229 149.945C88.5058 151.306 86.7026 152.562 84.8319 153.708C81.099 156 77.0922 157.837 72.9043 159.097C68.7206 160.344 64.3599 161.014 59.9866 161.06C57.7999 161.073 55.6091 160.942 53.4393 160.652C51.2695 160.361 49.1165 159.906 47.0015 159.316C42.7756 158.124 38.7141 156.325 34.9222 154.058C31.1303 151.795 27.6334 149.023 24.4482 145.938C21.2714 142.837 18.4191 139.399 15.8996 135.729C14.0205 132.978 12.3226 130.092 10.8227 127.108C10.3213 126.114 9.841 125.111 9.38176 124.096C7.55323 120.038 6.02382 115.837 4.84412 111.544C2.46788 102.957 1.41037 94.0327 1.51149 85.1465C1.57469 80.7013 1.91174 76.2688 2.56057 71.8783C2.8892 69.6873 3.28945 67.5048 3.76133 65.3391C4.22899 63.1776 4.77249 61.0287 5.39184 58.9051C7.88184 50.415 11.56 42.2661 16.5358 34.9895C19.0216 31.3575 21.8318 27.9488 24.958 24.8688C28.08 21.7929 31.518 19.0331 35.2424 16.7494C38.9669 14.4742 42.961 12.6413 47.1321 11.4068C51.3032 10.1764 55.6386 9.53177 59.9866 9.51913C64.3346 9.5107 68.6784 10.1469 72.8579 11.3562C77.0374 12.5781 81.04 14.4025 84.7813 16.6736C86.6478 17.807 88.4552 19.0542 90.1785 20.4109C91.9143 21.755 93.5701 23.2002 95.1543 24.7339C98.3099 27.7971 101.183 31.1763 103.724 34.7957C106.273 38.415 108.51 42.2661 110.423 46.2774C111.379 48.2788 112.256 50.3265 113.056 52.4037C113.852 54.481 114.569 56.5919 115.209 58.7281C116.486 62.9964 117.425 67.3742 118.066 71.7899ZM112.555 85.1465C112.53 77.2042 111.56 69.2576 109.534 61.5554L108.708 58.686C108.413 57.7338 108.085 56.7899 107.777 55.8419C107.634 55.3658 107.444 54.9065 107.276 54.4346L106.749 53.0357C106.66 52.7998 106.58 52.5638 106.484 52.3363L106.197 51.6453L105.616 50.2633C104.027 46.6018 102.152 43.0498 99.9657 39.6875C97.7749 36.3336 95.2849 33.1524 92.462 30.2704C89.6476 27.3926 86.5256 24.7803 83.0876 22.6272C79.6539 20.4699 75.9336 18.7466 72.0364 17.571C68.1392 16.3871 64.065 15.7719 59.9866 15.7508C55.9082 15.7508 51.8298 16.3618 47.9242 17.5247C44.0185 18.6918 40.2898 20.4067 36.8434 22.5598C36.6244 22.682 36.4179 22.8337 36.2072 22.9727L35.5753 23.3941L34.3113 24.2452L33.0979 25.1595L32.4912 25.6188C32.289 25.7704 32.0825 25.9179 31.8929 26.0865L30.7301 27.064C30.3467 27.3926 29.9464 27.7044 29.5841 28.0583L28.476 29.0949L27.9199 29.6089C27.7387 29.7817 27.566 29.9713 27.389 30.1482C24.5367 33.0176 21.9961 36.1735 19.7547 39.519C15.276 46.2184 12.0024 53.6678 9.88735 61.3995L9.15425 64.3152L9.06577 64.6775L8.98993 65.0483L8.83405 65.7815L8.53068 67.252C8.48012 67.4963 8.42536 67.7449 8.37901 67.9893L8.25684 68.7309L8.01247 70.2098C7.83551 71.1958 7.72598 72.1901 7.59958 73.1845C7.11506 77.1536 6.90018 81.1522 6.93388 85.1465C6.99287 89.1409 7.31307 93.1226 7.87764 97.0706C8.0251 98.0566 8.15571 99.0467 8.35373 100.024L8.63179 101.495L8.76662 102.228L8.93094 102.957L9.25958 104.415L9.42388 105.144L9.50393 105.51L9.60085 105.868L10.3719 108.759C11.758 113.541 13.5613 118.205 15.8027 122.646C17.1467 125.318 18.6508 127.905 20.315 130.395C22.5312 133.711 25.038 136.837 27.844 139.686C28.0168 139.867 28.1853 140.052 28.3623 140.225L28.91 140.739L29.997 141.771C30.3509 142.125 30.7427 142.437 31.1219 142.766L32.2637 143.743C32.4491 143.907 32.6513 144.055 32.8535 144.211L33.4476 144.666L34.6399 145.584L35.8786 146.436L36.498 146.865C36.7086 147.004 36.9108 147.152 37.1257 147.278C40.5131 149.436 44.1829 151.18 48.0379 152.385C51.893 153.586 55.9335 154.243 59.9866 154.285C64.0397 154.302 68.1054 153.737 71.9942 152.579C75.8872 151.433 79.6033 149.726 83.0371 147.59C86.4792 145.454 89.6097 142.858 92.4283 139.989C95.2554 137.115 97.7454 133.938 99.9404 130.589C102.131 127.231 104.006 123.679 105.595 120.017L106.176 118.639L106.467 117.948C106.564 117.721 106.644 117.485 106.732 117.249L107.255 115.85C107.427 115.382 107.613 114.919 107.76 114.443C108.068 113.495 108.396 112.555 108.691 111.603L109.513 108.733C111.548 101.031 112.521 93.0889 112.555 85.1465Z" fill="#47AD4B"/>
<path d="M115.833 111.742C115.256 113.912 114.594 116.061 113.861 118.184C113.128 120.308 112.315 122.406 111.422 124.471C109.631 128.604 107.516 132.603 105.047 136.391C102.574 140.174 99.7594 143.752 96.5742 146.992C93.3932 150.228 89.8541 153.143 85.9822 155.558C82.1102 157.972 77.9223 159.91 73.5321 161.204C69.142 162.493 64.558 163.146 59.9867 163.108C55.4153 163.062 50.8566 162.333 46.5086 160.985C42.1606 159.624 38.0274 157.648 34.2103 155.208C30.3931 152.768 26.8919 149.869 23.7362 146.65C20.5721 143.44 17.7408 139.913 15.2466 136.176C13.3675 133.37 11.6738 130.45 10.1613 127.441L10.8227 127.108C12.3226 130.091 14.0206 132.978 15.8996 135.729C18.4191 139.399 21.2715 142.837 24.4483 145.938C27.6334 149.023 31.1304 151.795 34.9223 154.058C38.7142 156.324 42.7757 158.124 47.0015 159.316C49.1166 159.906 51.2695 160.361 53.4393 160.652C55.6091 160.942 57.8 161.073 59.9867 161.06C64.36 161.014 68.7206 160.344 72.9044 159.097C77.0923 157.837 81.0991 156 84.832 153.708C86.7026 152.562 88.5059 151.306 90.2291 149.945C91.9565 148.589 93.6123 147.131 95.1922 145.597C98.3479 142.525 101.213 139.142 103.753 135.514C106.298 131.891 108.531 128.04 110.444 124.028C111.4 122.023 112.277 119.975 113.077 117.898C113.874 115.82 114.59 113.705 115.226 111.573C116.503 107.301 117.442 102.923 118.078 98.5032C118.71 94.0832 119.001 89.6128 119.014 85.1465H119.258C119.258 87.3838 119.182 89.6254 119.039 91.8585C118.904 94.0959 118.694 96.3248 118.407 98.5495C117.838 102.99 116.979 107.402 115.833 111.742Z" fill="#1D1D1B"/>
<path d="M109.534 61.556C111.561 69.2582 112.53 77.2048 112.555 85.1472H112.336C112.302 77.2259 111.211 69.3003 108.961 61.7161L108.055 58.8931C107.735 57.9619 107.385 57.0392 107.048 56.108C106.888 55.6445 106.682 55.1937 106.496 54.7344L105.932 53.3692C105.835 53.1417 105.746 52.9142 105.641 52.6909L105.329 52.0167L104.71 50.6768C103.012 47.1207 101.028 43.712 98.7692 40.5013C96.5152 37.2907 93.9662 34.2949 91.1686 31.573C90.9959 31.4045 90.8274 31.2275 90.6462 31.0632L90.1027 30.5744L89.0157 29.5969C88.6618 29.2598 88.2699 28.9691 87.895 28.6573L86.7616 27.7388C86.5762 27.5787 86.3782 27.4396 86.1844 27.2963L85.5946 26.8666L84.4191 26.0028L83.1973 25.2107L82.5905 24.8104C82.3841 24.6798 82.1861 24.5365 81.9754 24.4228C78.6554 22.4129 75.1037 20.8076 71.396 19.7248C67.6926 18.6461 63.8418 18.0731 59.9867 18.0773C56.1316 18.0941 52.2849 18.6714 48.59 19.7669C44.8908 20.8624 41.3474 22.4761 38.0443 24.4944C37.8294 24.6082 37.6356 24.7514 37.4292 24.882L36.8267 25.2823L35.6133 26.0829L34.4462 26.9508L33.8606 27.3848C33.6668 27.5281 33.4687 27.6713 33.2834 27.8272L32.1627 28.7584C31.7919 29.0702 31.4043 29.3652 31.0546 29.7022L29.9802 30.6882L29.4409 31.1812C29.264 31.3455 29.0997 31.5267 28.9269 31.6952C26.1546 34.4297 23.6646 37.4508 21.4611 40.6741C17.0499 47.1249 13.7846 54.3468 11.5685 61.8762L10.7975 64.7161L10.7048 65.07L10.6205 65.4282L10.4562 66.1487L10.1276 67.5855L9.96326 68.3018L9.82844 69.0265L9.55035 70.4717C9.35233 71.4366 9.22174 72.4099 9.07428 73.3832C8.50128 77.2722 8.18951 81.2076 8.12631 85.1472C8.09682 89.0868 8.30325 93.0348 8.79619 96.9491C8.92259 97.9266 9.03213 98.9083 9.20908 99.8774L9.45345 101.34L9.57565 102.068C9.622 102.313 9.67676 102.553 9.72732 102.793L10.0349 104.243L10.1865 104.967L10.2624 105.33L10.3551 105.688L11.084 108.557C12.1288 112.366 13.4897 116.087 15.116 119.685C15.5247 120.587 15.946 121.476 16.3926 122.356L15.8028 122.647C13.5613 118.206 11.7581 113.542 10.3719 108.759L9.60093 105.869L9.50401 105.511L9.42396 105.144L9.25966 104.415L8.93102 102.957L8.7667 102.229L8.63187 101.495L8.35381 100.025C8.15579 99.0474 8.02518 98.0572 7.87772 97.0713C7.31315 93.1233 6.99295 89.1415 6.93396 85.1472C6.90026 81.1528 7.11514 77.1542 7.59966 73.1852C7.72605 72.1908 7.83559 71.1964 8.01254 70.2105L8.25692 68.7315L8.37909 67.99C8.42544 67.7456 8.4802 67.497 8.53076 67.2526L8.83412 65.7821L8.99001 65.049L9.06585 64.6782L9.15433 64.3158L9.88743 61.4001C12.0025 53.6684 15.2761 46.219 19.7548 39.5196C21.9962 36.1741 24.5367 33.0182 27.3891 30.1489C27.566 29.9719 27.7388 29.7823 27.92 29.6095L28.4761 29.0955L29.5842 28.059C29.9465 27.7051 30.3468 27.3933 30.7302 27.0646L31.893 26.0871C32.0826 25.9185 32.289 25.7711 32.4913 25.6194L33.098 25.1601L34.3114 24.2458L35.5753 23.3947L36.2073 22.9733C36.418 22.8343 36.6244 22.6826 36.8435 22.5604C40.2899 20.4073 44.0186 18.6925 47.9243 17.5253C51.8299 16.3624 55.9083 15.7515 59.9867 15.7515C64.0651 15.7725 68.1392 16.3877 72.0365 17.5717C75.9337 18.7472 79.6539 20.4705 83.0877 22.6278C86.5257 24.7809 89.6477 27.3933 92.4621 30.2711C95.2849 33.1531 97.7749 36.3342 99.9658 39.6881C102.152 43.0505 104.027 46.6024 105.616 50.2639L106.197 51.6459L106.484 52.337C106.581 52.5645 106.661 52.8004 106.749 53.0364L107.276 54.4353C107.444 54.9072 107.634 55.3664 107.777 55.8425C108.085 56.7906 108.413 57.7344 108.708 58.6866L109.534 61.556Z" fill="#1D1D1B"/>
<path d="M113.882 52.1042C114.615 54.2278 115.277 56.3766 115.854 58.5466C116.996 62.8864 117.855 67.2979 118.42 71.7431C118.706 73.9636 118.913 76.1968 119.047 78.4341C119.191 80.6672 119.262 82.9088 119.258 85.1461H119.014C118.997 80.6799 118.698 76.2094 118.066 71.7895C117.425 67.3738 116.486 62.996 115.209 58.7277C114.569 56.5915 113.852 54.4806 113.056 52.4033C112.256 50.3261 111.379 48.2784 110.423 46.277C108.51 42.2658 106.273 38.4147 103.724 34.7953C101.183 31.1759 98.31 27.7967 95.1543 24.7335C93.5701 23.1998 91.9143 21.7546 90.1785 20.4105C88.4553 19.0538 86.6478 17.8066 84.7814 16.6732C81.04 14.4021 77.0375 12.5777 72.858 11.3558C68.6785 10.1465 64.3347 9.51031 59.9866 9.51874C55.6386 9.53138 51.3032 10.176 47.1321 11.4064C42.9611 12.6409 38.967 14.4738 35.2425 16.749C31.518 19.0327 28.08 21.7926 24.958 24.8684C21.8318 27.9484 19.0216 31.3571 16.5358 34.9891C11.56 42.2658 7.88191 50.4146 5.3919 58.9047C4.77256 61.0283 4.22906 63.1772 3.76139 65.3387C3.28951 67.5044 2.88927 69.687 2.56064 71.878C1.9118 76.2684 1.57475 80.701 1.51155 85.1461C1.41044 94.0323 2.46794 102.956 4.84419 111.543C6.02389 115.837 7.55329 120.038 9.38182 124.095C9.84106 125.111 10.3214 126.114 10.8227 127.108L10.1613 127.441C7.63333 122.427 5.59837 117.164 4.0437 111.771C3.42014 109.609 2.87664 107.427 2.40897 105.232C1.93709 103.032 1.53683 100.82 1.21662 98.5955C0.576217 94.1419 0.226525 89.6503 0.167541 85.1461C0.0664236 76.1462 1.1155 67.0957 3.49596 58.3696C5.87642 49.6477 9.55876 41.2419 14.6104 33.6872C17.1383 29.9161 20.0075 26.3557 23.2264 23.1282C26.4453 19.9007 30.0055 16.9934 33.89 14.5707C37.7704 12.1395 41.9752 10.1971 46.3822 8.87829C50.785 7.57212 55.3858 6.89376 59.9866 6.89797C64.5875 6.91482 69.1841 7.5974 73.5784 8.92886C77.977 10.2561 82.165 12.2111 86.0327 14.6465C87.9708 15.8642 89.8204 17.2083 91.5857 18.6493C93.3468 20.0945 95.0237 21.6409 96.612 23.2631C99.7972 26.5074 102.607 30.0973 105.076 33.881C107.541 37.6731 109.656 41.6801 111.443 45.8093C112.34 47.8781 113.149 49.9764 113.882 52.1042Z" fill="#1D1D1B"/>
<path d="M74.0463 8.68065C71.4172 7.05426 68.784 5.44471 66.117 3.87731C64.7856 3.0936 63.4585 2.30569 62.1313 1.51777C61.0317 0.864682 59.8225 -0.0327855 58.4827 0.000922233C57.3746 0.026203 56.3592 1.03743 55.525 1.67367C54.4633 2.48686 53.4268 3.32534 52.4157 4.20174C50.229 6.0978 48.1013 8.12026 46.2812 10.3745C46.2012 10.4756 46.3276 10.6104 46.4245 10.5177C48.312 8.71015 50.1742 6.88993 52.1881 5.22561C53.2162 4.37871 54.2737 3.5613 55.3523 2.78181C56.3971 2.0276 57.5684 0.881536 58.9588 1.27339C60.1806 1.61889 61.3434 2.67226 62.3883 3.36748C63.568 4.15539 64.7477 4.94331 65.9232 5.73544C68.2784 7.3197 70.6588 8.8534 73.0477 10.3829C74.1179 11.0739 75.1248 9.35059 74.0463 8.68065Z" fill="#1D1E1B"/>
<path d="M58.9505 2.65168C58.6345 2.33567 58.1711 2.2177 57.7413 2.33146C57.7287 2.33567 57.7161 2.33567 57.7034 2.33989C57.6065 2.38202 57.5054 2.42416 57.4085 2.46629C57.2652 2.54213 57.1473 2.65168 57.063 2.7823C56.9029 2.98876 56.7849 3.25842 56.7976 3.52808C56.806 3.74718 56.865 3.95786 56.9661 4.15168C57.1051 4.41712 57.4169 4.64465 57.7034 4.72049C57.7161 4.72471 57.7287 4.72471 57.7413 4.72892C58.1584 4.83847 58.6514 4.73313 58.9505 4.4087C59.1738 4.16432 59.3129 3.86516 59.3129 3.52808C59.3129 3.21629 59.1738 2.87921 58.9505 2.65168Z" fill="#1D1E1B"/>
<path d="M22.4765 76.7321C18.693 80.541 14.9474 84.3921 11.223 88.2517C11.0924 88.3865 11.2946 88.5845 11.4294 88.4581C15.2887 84.7334 19.1396 80.9877 22.9483 77.204C23.2475 76.9006 22.7756 76.4287 22.4765 76.7321Z" fill="#1D1E1B"/>
<path d="M20.138 105.304C18.7266 106.682 17.3447 108.085 15.9501 109.48C15.6257 109.804 16.1313 110.31 16.4557 109.985C17.8503 108.591 19.2533 107.204 20.631 105.797C20.947 105.477 20.4625 104.992 20.138 105.304Z" fill="#1D1E1B"/>
<path d="M106.475 76.1469C103.168 79.505 99.8731 82.8674 96.6753 86.3309C96.4731 86.55 96.7806 86.8575 96.9997 86.6553C100.463 83.4573 103.825 80.1623 107.183 76.8548C107.646 76.4039 106.93 75.6876 106.475 76.1469Z" fill="#1D1E1B"/>
<path d="M103.973 109.433C99.5785 113.718 95.2937 118.1 91.0215 122.507C90.7182 122.823 91.1858 123.295 91.5018 122.988C95.9088 118.715 100.291 114.43 104.575 110.035C104.959 109.644 104.365 109.049 103.973 109.433Z" fill="#1D1E1B"/>
<path d="M44.9834 27.4348L41.7434 30.7002C41.3979 31.05 41.933 31.5893 42.2869 31.2438L45.5521 27.9994C45.9145 27.637 45.3457 27.0682 44.9834 27.4348Z" fill="#1D1E1B"/>
<path d="M76.3929 25.8463C74.4463 27.6918 72.6305 29.6806 70.7724 31.6145C70.4312 31.9685 70.9704 32.512 71.3159 32.1581C73.174 30.2241 75.0826 28.3238 76.8521 26.3056C77.1217 25.9938 76.6962 25.5556 76.3929 25.8463Z" fill="#1D1E1B"/>
</svg>
