<svg width="119" height="164" viewBox="0 0 119 164" fill="none" xmlns="http://www.w3.org/2000/svg">
<path d="M31.7149 132.69C30.7281 134.718 29.7204 136.738 28.7168 138.758C28.4985 139.195 28.2717 139.631 28.0408 140.072C28.0786 140.098 28.1163 140.127 28.1499 140.161C28.6286 140.635 29.1241 141.097 29.5986 141.571C30.8121 138.825 32.0088 136.083 32.9955 133.232C33.2559 132.484 32.0634 131.972 31.7149 132.69Z" fill="#251C1C"/>
<path d="M71.5925 37.6951C69.451 37.8085 67.2381 38.0856 65.1554 38.6147C63.3919 39.064 61.263 39.6561 60.0243 41.0755C59.4952 40.2188 58.5799 39.6519 57.5133 39.5889C56.1739 39.5134 54.9687 40.2272 54.2465 41.3274C53.8182 41.0461 53.3059 40.8529 52.8525 40.643C51.9413 40.2188 51.0301 39.7947 50.1189 39.379C49.2287 38.9717 48.2504 38.3418 47.2342 38.5685C46.4448 38.7449 46.0123 39.295 45.7814 39.9921C45.3951 40.9831 45.5211 42.1631 45.5463 43.2087C45.5673 44.2081 45.626 45.2033 45.7184 46.1985C45.8528 47.6389 45.7436 50.8597 47.5492 51.3678C47.5534 51.3678 47.5534 51.3678 47.5576 51.3678C48.116 51.6701 48.8215 51.7205 49.3715 51.3678C50.4758 50.6665 51.6389 49.8224 52.4241 48.76C53.159 48.4031 53.8602 48.1428 54.2465 47.3491C54.2801 47.2819 54.3053 47.2105 54.3305 47.1433C54.826 47.2147 55.3382 47.0804 55.7665 46.757C56.8709 47.3239 58.2355 46.8536 59.1047 45.9424C59.5624 45.4637 59.9445 44.9094 60.1964 44.3089C60.3518 44.5986 60.5954 44.8632 60.9397 45.0773C62.233 45.8752 63.5346 46.6688 64.8489 47.4331C66.0162 48.1092 67.3347 48.6383 68.4054 49.4613C69.0647 49.9694 70.3076 49.4529 70.4335 48.6383C70.6519 47.1895 71.4497 46.0347 71.9914 44.712C72.5036 43.448 72.8731 42.1421 73.4274 40.8907C74.0279 39.5301 73.356 37.6027 71.5925 37.6951Z" fill="#EF4036"/>
<path d="M54.0281 59.1366C53.7047 59.4054 53.3898 59.6783 53.0749 59.9513C52.8944 60.1066 52.7012 60.2536 52.5374 60.4216C52.2855 60.1654 52.0084 59.9261 51.6976 59.7077C51.7228 59.6741 51.7438 59.6405 51.7648 59.5985C52.0966 58.9098 52.3737 58.2044 52.6508 57.4905C52.8188 57.0622 52.1763 56.8522 51.9454 57.1924C51.5381 57.7929 51.135 58.3849 50.7739 59.019C50.7487 59.061 50.7319 59.103 50.7193 59.1408C50.2658 58.9267 49.7787 58.7629 49.2832 58.6747C49.2958 58.6537 49.3084 58.6285 49.3126 58.5991C49.4512 57.9524 49.2329 57.1966 48.9725 56.6087C48.8885 56.4197 48.603 56.5247 48.603 56.7094C48.5988 57.037 48.6072 57.3519 48.6282 57.6795C48.645 57.9902 48.624 58.301 48.7038 58.6033C48.7038 58.6075 48.708 58.6075 48.708 58.6117C48.2671 58.5907 47.822 58.6327 47.3979 58.7629C47.1166 58.8511 46.8646 58.9728 46.6421 59.1282C46.3818 58.4647 45.9996 57.8852 45.6427 57.2554C45.5 57.0034 45.1389 57.1798 45.1934 57.4443C45.374 58.3051 45.4748 59.124 45.8485 59.9261C45.5546 60.346 45.3446 60.8331 45.1892 61.337C44.6308 60.9885 43.9044 60.8079 43.2997 60.5811C42.758 60.3754 42.3843 61.2614 42.905 61.5218C43.5348 61.8367 44.2193 62.3028 44.9163 62.4372C44.9205 62.4372 44.9247 62.4372 44.9331 62.4372C44.3201 65.658 44.5342 69.895 46.4993 72.5405C46.8226 72.973 47.4441 72.9227 47.6834 72.5573C48.4182 72.5699 49.1531 72.5867 49.8879 72.5825C50.144 72.7295 50.4967 72.7253 50.7487 72.5699C51.6389 72.5573 52.6046 72.6245 53.4696 72.4565C55.1282 72.1374 54.8217 70.2352 54.8175 68.9502C54.8049 66.3677 54.7167 63.4702 53.2765 61.3244C53.4696 61.2068 53.646 61.0641 53.8307 60.9297C54.1708 60.6861 54.511 60.4468 54.8469 60.1948C55.6321 59.6237 54.7881 58.5067 54.0281 59.1366ZM52.9196 71.222C52.7054 71.3815 52.4535 71.4193 52.1973 71.4319C52.7096 69.7942 52.6886 68.0474 52.3569 66.3635C52.1301 65.2003 51.643 63.3484 50.0642 63.6634C48.5988 63.9573 48.3385 65.9897 48.1957 67.1697C48.011 68.6856 48.0613 70.3359 48.7542 71.7175C48.4056 71.7553 48.0613 71.7931 47.7128 71.8351C47.3979 70.6803 46.936 69.5801 46.6841 68.4043C46.4069 67.1151 46.3146 65.7882 46.386 64.4696C46.4489 63.361 46.5119 61.4882 47.3937 60.6609C48.3427 59.7749 50.0138 60.5182 50.8788 61.1606C53.0833 62.8025 53.0917 65.805 53.1841 68.2951C53.2093 68.9502 53.2303 69.6095 53.2219 70.2645C53.2135 70.7811 53.3101 70.928 52.9196 71.222Z" fill="#251C1C"/>
<path d="M76.887 59.271C76.3663 59.4977 75.9128 59.7749 75.4425 60.094C75.1696 60.2788 74.8883 60.4929 74.6909 60.7575C74.355 60.2914 73.9561 59.9261 73.5152 59.6657C73.5194 59.6573 73.5278 59.6531 73.532 59.6447C73.9183 58.9938 74.0443 58.2968 74.0779 57.5451C74.1073 56.911 73.1961 56.953 73.1205 57.5451C73.0407 58.133 72.8392 58.7125 72.6754 59.2836C72.6754 59.2878 72.6754 59.2962 72.6712 59.3004C72.1841 59.1618 71.6761 59.1282 71.1722 59.1996C71.1554 58.4899 71.0126 57.8348 70.7565 57.1545C70.6179 56.7808 69.9545 56.7892 70.0007 57.2553C70.0721 58.0196 70.0511 58.809 69.9839 59.5733C69.7571 59.6867 69.5388 59.8211 69.3288 59.9806C69.3037 59.8043 69.2113 59.6405 69.0349 59.5607C68.4974 59.3172 67.9852 59.0022 67.4939 58.6789C67.2462 58.5151 66.99 58.8301 67.1118 59.061C67.4099 59.6321 67.8046 60.1024 68.2875 60.5307C68.3757 60.6105 68.4848 60.6609 68.5898 60.6861C68.2749 61.0598 68.0314 61.463 67.8382 61.8871C67.4183 61.4924 66.8095 61.2656 66.3098 61.0011C65.5666 60.6105 64.9157 61.7107 65.6505 62.1306C66.2048 62.4456 66.8053 62.9201 67.4561 63.0041C66.9103 65.2129 67.3386 67.7912 67.1706 69.9454C67.116 70.6803 68.2959 70.8356 68.4555 70.1176C68.972 67.7912 68.2455 65.3262 68.9677 63.0419C69.3163 61.9417 70.0847 60.8499 71.2856 60.5979C72.6166 60.3166 73.6118 61.4168 73.9981 62.5716C74.7371 64.7887 74.4348 67.6316 74.3004 69.9286C74.2458 70.8314 74.2038 70.9952 73.2969 70.9616C73.1835 70.9574 73.0659 70.9532 72.9526 70.949C73.4858 69.3953 73.6118 67.7954 73.3095 66.1745C73.1121 65.1121 72.7258 63.571 71.4367 63.424C68.5101 63.0881 68.9887 69.072 69.3079 70.8356C68.6612 70.8146 68.0188 70.7852 67.3721 70.7516C66.8851 70.7264 66.9019 71.4487 67.3721 71.4991C69.2743 71.7049 71.1722 71.9484 73.0785 72.1038C74.2962 72.2046 75.4467 72.2718 75.6483 70.802C75.9002 68.9418 75.896 66.9849 75.8247 65.1121C75.7743 63.8649 75.6651 62.559 75.1108 61.4294C75.4845 61.358 75.8666 61.1438 76.1774 60.9675C76.656 60.6945 77.0801 60.4132 77.5042 60.0604C77.9703 59.6615 77.3615 59.0694 76.887 59.271Z" fill="#251C1C"/>
<path d="M64.8823 75.3375C64.2399 74.0651 62.9172 74.9847 62.3503 75.749C61.9976 76.2277 61.7205 76.7358 61.5063 77.2691C60.7967 75.7238 59.2347 74.0945 58.1178 75.2031C57.2318 76.0807 57.9498 77.3195 58.5503 78.1174C59.2095 78.995 60.2341 79.7971 61.309 80.1456C61.4644 80.259 61.6449 80.2926 61.8255 80.2674C62.8668 80.3682 63.5303 79.3603 64.0299 78.5289C64.5002 77.752 65.3484 76.2571 64.8823 75.3375Z" fill="#251C1C"/>
<path d="M92.6586 67.8328C92.5788 67.4045 92.4318 67.0223 92.2303 66.6822C93.0659 65.7206 93.6999 64.6078 93.7503 63.2934C93.7881 62.3108 93.4606 61.4038 92.8685 60.7151C93.1331 59.5015 92.8895 58.0612 92.4066 57.087C92.2093 56.6923 91.9573 56.3353 91.6592 56.0246C91.4745 55.2771 91.2225 54.5506 90.9034 53.8494C90.8236 53.6772 90.6976 53.5848 90.5549 53.5512C90.8446 53.3833 91.0672 53.0935 91.1091 52.6778C91.3905 49.6124 91.3947 46.5553 91.2855 43.4815C91.2645 42.8348 90.5717 42.1042 89.8663 42.3981C87.8172 43.2631 85.7597 44.1156 83.7274 45.0142C82.8372 45.4089 81.9344 45.8835 80.9812 46.1228C79.9105 46.3874 78.9699 46.0808 77.9622 45.7155C76.5975 45.2242 75.2245 44.7917 73.8346 44.4053C74.1537 43.5991 74.4476 42.7802 74.6996 41.953C75.1279 40.5463 75.9215 38.455 74.7752 37.1701C73.6456 35.9061 71.4244 36.3344 69.9505 36.5528C67.9854 36.8383 66.0119 37.3086 64.1601 38.0351C63.228 38.4004 62.3084 38.8455 61.435 39.3369C60.9689 39.5972 60.5196 39.8786 60.083 40.1809C59.936 40.2817 59.8352 40.3741 59.747 40.4622C58.798 39.5132 57.3536 39.1395 56.1569 40.0675C56.0603 40.1431 55.9848 40.2271 55.9344 40.3153C55.7832 40.2691 55.6026 40.3531 55.5732 40.5714C55.5564 40.6974 55.5313 40.8234 55.5019 40.9494C52.361 39.845 49.9214 36.9559 46.3019 37.422C44.8701 37.6068 43.8833 38.3794 43.9085 39.8954C43.9295 41.4869 44.2066 43.133 44.4376 44.7329C43.8287 44.9176 43.2241 45.1108 42.6236 45.3208C41.5739 45.6861 40.5241 46.2488 39.4408 46.4797C38.1937 46.7485 37.2783 45.7491 36.3671 45.0394C34.4482 43.5487 32.5251 42.0622 30.602 40.5756C29.9175 40.0465 29.0777 40.9158 29.2457 41.617C29.7832 43.872 30.2241 46.1438 30.6901 48.4114C31.0429 50.1205 31.2822 51.9597 31.7399 53.6814C31.383 54.6598 31.362 55.7474 31.4166 56.835C30.392 57.1794 29.5144 57.8681 28.9812 59.0396C28.4563 60.186 28.5906 61.4038 29.0945 62.5292C29.2373 62.8441 29.4178 63.1801 29.6278 63.516C29.779 63.9107 29.9805 64.2844 30.224 64.633C29.3045 65.4644 28.725 66.7074 28.7964 68.0176C28.8888 69.798 29.8126 71.167 31.1058 72.1496C30.4256 73.1448 30.1317 74.434 30.3794 75.7022C30.6985 77.3189 31.6853 78.5282 32.9576 79.3933C32.3361 80.2457 31.9918 81.3039 32.059 82.4713C32.143 83.8822 32.8232 85.0748 33.8184 85.9273C33.2935 86.7251 32.987 87.6699 32.9996 88.6525C33.0164 89.7192 33.4363 90.7438 34.1081 91.5668C32.8526 92.8182 32.0968 94.5441 32.101 96.3917C32.101 97.1728 32.5083 97.6935 33.0458 97.9622C31.912 99.5747 30.9421 101.296 30.1695 103.094C27.142 110.123 27.3729 118.127 31.0135 124.854C29.5816 126.975 29.8377 129.813 31.7231 131.619C31.4669 132.161 31.2024 132.698 30.9379 133.232C31.0554 133.412 31.1814 133.588 31.32 133.756C31.6811 134.05 32.0254 134.357 32.3655 134.672C35.1914 129.053 37.2909 123.074 38.5422 116.901C38.7648 115.796 38.9579 114.684 39.1301 113.571C39.0503 112.13 38.9117 110.598 40.0958 109.561C40.163 109.502 40.2302 109.447 40.3016 109.397C40.2932 109.388 40.2848 109.38 40.2722 109.376C40.3268 109.346 40.3814 109.317 40.4402 109.292C40.4485 109.288 40.4569 109.288 40.4611 109.283C41.2631 108.729 42.2247 108.477 43.1737 108.213C43.1695 108.208 43.1653 108.204 43.1653 108.2C45.4495 106.856 47.1459 104.639 48.2125 102.241C49.7871 98.6971 50.144 94.7414 50.0348 90.9075C50.0348 90.9033 50.0306 90.8991 50.0306 90.8949C50.4925 91.0545 50.9544 91.2099 51.4205 91.3485C52.466 91.6634 53.5325 91.9405 54.6117 92.1757C53.352 95.4931 53.5073 99.1464 54.2086 102.577C54.8132 105.542 56.0855 108.67 58.5083 110.61C60.5658 112.261 63.7276 113.126 66.1756 111.782C68.5439 110.48 69.644 107.528 70.2655 105.063C70.7735 103.047 71.1389 100.981 71.3404 98.9112C71.5378 96.9166 72.05 94.4307 71.3992 92.4948C71.3446 92.3353 71.2648 92.2135 71.1682 92.1253C71.7435 91.9825 72.3146 91.8272 72.8772 91.6508C73.6414 91.4114 74.3846 91.1385 75.1069 90.8361C74.5022 92.3941 74.771 94.5567 74.7542 96.2112C74.7374 98.0882 74.7835 99.9695 74.9179 101.842C75.0145 103.199 75.195 104.559 75.7325 105.819C76.2994 107.154 77.2399 107.952 78.1805 109.002C79.457 110.426 79.3352 112.374 79.5368 114.163C79.7341 115.931 79.9903 117.699 80.322 119.445C80.6075 120.949 80.9477 122.44 81.3382 123.918C81.3004 123.968 81.2668 124.018 81.229 124.069C80.7587 124.757 81.2038 125.488 81.842 125.74C82.2829 127.243 82.77 128.738 83.3033 130.212C83.6098 131.056 84.9661 130.691 84.6553 129.839C84.1305 128.398 83.6518 126.945 83.2193 125.476C84.3992 124.669 85.3272 123.212 85.9528 121.994C86.6582 120.617 87.1201 119.122 87.4225 117.61C88.0943 114.234 88.1405 110.707 88.0607 107.276C87.9851 104.152 87.4519 101.158 86.1334 98.399C86.2467 98.3234 86.3517 98.2394 86.4525 98.1512L86.5365 98.1806C87.2251 98.4283 88.0985 98.1428 88.594 97.6347C89.9292 96.2783 90.6221 93.9352 89.6395 92.2051C89.333 91.6592 88.7493 91.1217 88.0733 90.7312C89.249 90.2231 90.2484 89.1523 90.5339 88.0101C90.7438 87.1786 90.6515 86.3808 90.3449 85.6963C90.9874 84.9866 91.4031 84.109 91.4073 83.0634C91.4073 82.3621 91.2267 81.7154 90.9076 81.1611C91.4157 80.5355 91.781 79.8132 91.8818 78.9439C91.9783 78.1125 91.8398 77.2601 91.4031 76.5336C91.3359 76.4202 91.2603 76.3152 91.1805 76.2102C91.4409 75.9583 91.7012 75.7063 91.9489 75.446C92.6376 74.7279 93.1373 73.8755 93.1121 72.8467C93.0869 71.9144 92.6586 71.1754 92.0455 70.5833C92.5662 69.7728 92.8517 68.8574 92.6586 67.8328ZM78.0504 48.5626C78.0713 48.5164 78.0839 48.466 78.0965 48.4156C78.1217 48.424 78.1511 48.4324 78.1763 48.4408C78.0797 48.5877 78 48.7431 77.9286 48.9027C77.9622 48.7767 78.0042 48.6633 78.0504 48.5626ZM61.666 40.8948C62.4092 40.6092 63.144 40.3237 63.904 40.0885C65.3023 39.6518 66.7047 39.2361 68.145 38.9631C68.9722 38.8036 69.7994 38.6986 70.635 38.6104C71.2858 38.5432 72.2642 38.2619 72.894 38.4676C73.8976 38.7952 72.5497 42.0915 72.3104 42.8012C71.7771 44.3675 71.1137 45.8835 70.4208 47.3826C70.2739 47.7059 69.7784 49.3016 69.4509 49.4318C69.0142 49.604 67.7881 48.7977 67.4312 48.592C67.3556 48.55 67.2758 48.5038 67.2002 48.4618C67.0322 48.2812 66.8223 48.1636 66.5914 48.1132C65.7306 47.6219 64.8572 47.1264 64.0426 46.5973C64.0342 46.5931 64.0258 46.5847 64.0174 46.5805C63.5975 46.0892 63.039 45.6693 62.4428 45.4383C61.9347 45.0604 61.4224 44.6993 60.8724 44.4179C60.8808 44.3465 60.885 44.271 60.8892 44.1996C62.3756 44.5145 64.0468 44.6573 65.2057 45.7197C66.373 46.7863 67.6033 44.5649 66.1253 44.1366C64.4289 43.6453 62.6485 42.9608 60.8976 43.4479C60.8892 43.2925 60.8808 43.1414 60.864 42.9902C61.9053 42.818 62.9424 42.6123 64.0006 42.5535C65.4576 42.4737 66.8349 42.776 68.2583 43.0532C69.8456 43.3639 70.1941 41.0124 68.5565 40.8486C67.049 40.6974 65.508 40.9452 64.03 41.2391C62.8795 41.4659 61.7667 41.7682 60.7464 42.3099C60.6834 42.0412 60.6036 41.7892 60.507 41.5624C60.4818 41.5037 60.4566 41.4491 60.4272 41.3903C60.8345 41.2475 61.2629 41.0501 61.666 40.8948ZM55.6866 43.9266C55.7874 42.9986 56.1023 42.1965 56.1527 41.3021C56.3878 41.4617 56.7238 41.4827 57.0471 41.2223C58.395 40.1347 59.6504 42.1042 59.747 43.238C59.7764 43.5823 59.789 43.9896 59.7512 44.3843C59.4237 44.6363 59.2894 45.1318 59.4279 45.5181C59.4111 45.5433 59.3943 45.5685 59.3733 45.5937C58.7351 45.3586 57.9835 45.5349 57.5132 46.0136C56.9337 45.9758 56.2829 45.9171 55.9344 45.4341C55.6404 45.0184 55.6362 44.4011 55.6866 43.9266ZM46.8898 39.1647C47.5364 39.1437 48.1789 39.2949 48.7919 39.4838C50.0096 39.8534 51.1139 40.5 52.298 40.9662C53.373 41.3861 54.2548 41.533 55.3339 41.5372C55.2289 41.8522 55.1072 42.1755 54.9812 42.4947C54.0574 42.2679 53.1547 42.1672 52.1847 42.163C51.1014 42.1588 49.808 42.0538 48.7751 42.3561C47.6582 42.6878 48.1705 44.4851 49.2538 44.0904C50.1734 43.7586 50.9166 43.2421 51.9075 43.091C52.6424 42.9776 53.415 42.9776 54.175 43.0364C54.1582 43.2379 54.1414 43.4395 54.1204 43.6453C54.1582 43.4437 54.196 43.2421 54.2338 43.0448C54.4101 43.0574 54.5865 43.0784 54.7628 43.0952C54.5991 43.5655 54.4647 44.0358 54.4185 44.5019C53.6879 44.7203 52.9909 44.9932 52.3149 45.3628C51.9328 45.5685 51.5632 45.7869 51.1727 45.98C50.8746 46.127 50.5303 46.4882 50.2406 46.5973C49.5603 46.8619 49.279 47.7395 49.9214 48.235C50.5471 48.7179 51.3785 48.2476 51.4247 47.5002C51.4331 47.3532 51.7648 46.9669 51.8572 46.8367C52.1427 46.4336 52.5374 46.1858 52.9573 45.9464C53.4318 45.6735 53.9314 45.4383 54.4269 45.2032C54.4815 45.5979 54.6243 45.9842 54.9014 46.3538C53.9902 46.9333 53.1882 47.7941 52.382 48.4828C51.2903 49.4192 50.186 50.5404 48.9557 51.2879C48.2335 51.7288 47.6246 51.838 47.2845 50.9939C47.0619 50.448 47.0829 49.6838 46.9947 49.0917C46.789 47.6891 46.5203 46.295 46.3061 44.8924C46.092 43.4941 45.8736 42.0958 45.7308 40.689C45.6343 39.7778 45.8652 39.1983 46.8898 39.1647ZM32.9954 56.5537C33.3019 55.6047 33.5622 54.6514 33.516 53.7024C33.4951 53.3035 33.1843 52.9843 32.8316 52.8752C32.7686 51.3004 32.4999 49.688 32.3067 48.193C32.1094 46.6897 31.8449 45.1948 31.5509 43.7041C32.6805 44.6237 33.8058 45.5433 34.9353 46.4588C36.3588 47.6177 37.6814 48.9027 39.6549 48.5836C39.6381 48.6214 39.6256 48.6591 39.6088 48.7011C39.2183 48.9153 38.8697 49.1882 38.6052 49.4948C37.9082 50.3136 37.6856 51.2249 37.736 52.1529C37.144 52.1277 36.5351 52.2789 36.0018 52.6358C34.6498 53.5471 34.3348 55.0504 34.4482 56.5495C34.4062 56.5747 34.3642 56.5957 34.3222 56.6209C33.8855 56.5621 33.4363 56.5369 32.9954 56.5537ZM49.4554 90.811C48.1621 96.8662 47.4398 104.534 40.7971 107.184C39.5374 107.688 38.3281 108.095 37.9376 109.548C37.4883 111.228 37.4505 113.079 37.1314 114.793C36.5015 118.181 35.6197 121.524 34.4986 124.783C33.8184 126.765 33.0416 128.709 32.1766 130.615C31.0932 129.091 31.0806 126.857 32.2689 125.366C32.4579 125.131 32.5377 124.833 32.3739 124.556C30.539 121.419 29.6698 117.799 29.6404 114.154C30.4508 114.94 31.8826 115.133 32.966 114.877C33.8394 114.671 34.2467 113.735 34.0745 112.92C33.8688 111.92 33.2725 111.013 32.5881 110.27C32.0128 109.644 31.11 108.88 30.1905 108.817C30.4424 107.65 30.7783 106.499 31.1982 105.391C31.9834 106.554 33.6084 107.238 34.8093 107.734C35.5484 108.036 36.6695 107.398 36.7828 106.613C36.976 105.29 36.8038 104.118 36.0816 102.968C35.5315 102.09 34.5994 101.049 33.5203 100.788C33.9737 100.079 34.4566 99.3942 34.9731 98.7307C36.0606 99.4739 37.3707 99.6251 38.4414 98.3234C38.9831 97.6641 39.1973 96.8326 39.1301 96.0012C39.7473 96.1902 40.4486 96.1692 40.9944 95.8122C41.8174 95.2789 42.1071 94.4475 42.0609 93.5866C42.1197 93.5992 42.1785 93.616 42.2373 93.6244C43.3836 93.8092 44.5803 93.4439 45.3739 92.5746C46.1424 91.7348 46.3859 90.412 46.1466 89.2278C47.2383 89.7737 48.3594 90.2651 49.5057 90.685C49.4889 90.727 49.4638 90.7648 49.4554 90.811ZM70.1143 98.8945C70.0387 100.876 69.8162 102.867 69.3501 104.799C68.5691 108.032 66.5032 111.492 62.6401 110.757C59.1214 110.09 57.3242 106.722 56.4508 103.56C55.4221 99.8393 55.2331 96.1062 55.1533 92.2765C55.5019 92.3479 55.8546 92.4109 56.2073 92.4739C56.8497 96.5135 57.9037 100.41 59.852 104.034C59.999 104.311 60.4651 104.122 60.3643 103.82C59.1172 100.108 57.8071 96.3959 56.8791 92.5872C61.0739 93.2507 65.4156 93.2591 69.56 92.457C68.7538 94.2879 67.9098 96.1062 67.091 97.9328C66.7047 98.8021 66.31 99.6671 65.9447 100.545C65.4576 101.716 64.685 102.712 64.1895 103.866C64.0594 104.169 64.4373 104.4 64.6346 104.127C65.2981 103.203 65.6634 102.103 66.2554 101.133C66.8475 100.163 67.3934 99.18 67.8888 98.1512C68.6111 96.6521 69.2325 95.1068 69.7952 93.5447C69.8204 94.2921 69.9589 95.0606 70.0135 95.787C70.0891 96.8284 70.1563 97.8531 70.1143 98.8945ZM74.1537 89.7569C65.2645 93.3893 54.1288 92.5704 45.5335 87.7833C45.1598 87.2668 44.6391 86.8847 43.9841 86.7419C43.8833 86.6243 43.7615 86.5193 43.6188 86.4312C43.2703 86.2128 42.9091 86.0322 42.5354 85.8811C42.2205 85.6543 41.914 85.415 41.6117 85.1756C41.683 84.6927 41.7082 84.2266 41.6704 83.8024C41.5529 82.3747 40.9062 81.0814 39.8985 80.2079C40.3016 79.3891 40.4696 78.4568 40.3226 77.5036C40.1672 76.4958 39.6633 75.5888 38.9411 74.9043C39.6633 73.8125 40.0245 72.5233 39.7641 71.1418C39.592 70.2137 39.1133 69.3739 38.4456 68.7272C38.5254 68.6726 38.6052 68.6181 38.6724 68.5593C39.5374 67.8622 40.0874 66.8964 40.0706 65.7668C40.0496 64.5574 39.214 63.39 38.1727 62.8273C38.0257 62.7475 37.8662 62.672 37.6982 62.6006C38.0467 62.4956 38.3742 62.3486 38.6472 62.1597C39.6549 61.4668 40.1714 60.3792 40.2764 59.2286C40.8558 59.1404 41.4185 58.8843 41.8846 58.4349C42.5396 57.8051 42.8378 56.9694 42.842 56.117C43.3668 56.0036 43.8539 55.7642 44.2738 55.3233C44.9415 54.622 45.1052 53.7108 45.0086 52.808C45.0296 52.7912 45.0548 52.7744 45.0758 52.7576C45.3613 52.514 45.5923 52.2285 45.7519 51.8968C46.1676 52.6778 46.873 53.1691 47.8849 53.1817C49.4049 53.1985 50.6269 51.9051 51.7228 51.0233C51.9747 50.8217 52.2309 50.6202 52.487 50.4186C52.3484 51.1073 52.5248 51.7959 53.205 52.3754C54.5109 53.484 55.8168 52.6988 56.8329 51.4684C57.3452 51.9093 58.0086 52.1109 58.8568 51.8716C59.2012 51.775 59.4909 51.6238 59.726 51.4306C59.7596 51.4516 59.789 51.4726 59.8184 51.4936C61.1789 52.3167 63.1944 52.556 64.3281 51.2417C64.5465 50.9897 64.706 50.7 64.8152 50.3934C64.9873 50.6034 65.2183 50.7672 65.5164 50.8427C66.31 51.0443 67.1246 50.5908 67.4228 49.9147C68.0988 50.3514 68.8 50.7461 69.497 51.0107C70.6602 51.4516 71.395 50.1205 71.8988 48.9237C72.0164 49.184 72.1718 49.4234 72.3733 49.6124C73.0578 50.2507 74.0781 50.3724 74.9011 49.9231C75.0061 49.8643 75.1111 49.7929 75.216 49.7132C74.9221 50.6454 74.9977 51.7204 75.4722 52.6652C76.1524 54.0131 77.4289 54.7396 78.8062 54.8824C79.0329 56.1086 79.5956 57.255 80.5403 58.1662C81.145 58.7499 81.8672 59.1908 82.6398 59.4889C82.5097 59.5813 82.3837 59.6779 82.2703 59.7913C81.4683 60.5807 81.3675 61.7649 81.863 62.7475C82.2367 63.4866 82.854 63.9737 83.572 64.2887C83.0639 64.6708 82.6734 65.1915 82.5097 65.8046C82.2073 66.9384 82.7154 67.9168 83.509 68.6433C83.3327 68.9036 83.1815 69.1765 83.0555 69.4705C82.56 70.6211 82.5097 71.8893 82.8708 73.023C82.0562 73.5438 81.4137 74.3416 81.1492 75.299C80.8595 76.332 81.0652 77.4112 81.5943 78.3057C81.5985 78.4442 81.6111 78.5786 81.6363 78.713C79.8937 80.5858 79.3016 83.3237 80.2464 85.6837C79.3562 85.7761 78.5164 86.6621 78.1301 87.6573C76.8872 88.4846 75.5478 89.19 74.1537 89.7569ZM85.4531 112.076C85.1886 111.92 84.9115 111.904 84.6091 111.899C84.6679 111.899 84.5882 111.887 84.5336 111.883C84.5252 111.866 84.3404 111.782 84.3194 111.765C83.5762 111.257 82.2703 111.736 82.1192 112.66C81.9344 113.785 82.2031 114.835 82.9841 115.691C83.4712 116.225 84.1892 116.615 84.9241 116.708C84.6553 118.06 84.269 119.395 83.6602 120.634C83.3159 121.335 82.875 121.923 82.4173 122.498C82.1696 121.495 81.9386 120.491 81.7329 119.475C81.3466 117.564 81.0274 115.645 80.8007 113.709C80.6327 112.273 80.6747 110.631 79.9525 109.334C79.2428 108.049 77.8362 107.415 76.9964 106.239C76.0642 104.929 75.8711 103.199 75.7535 101.641C75.6191 99.8267 75.5604 98.0042 75.489 96.186C75.4554 95.2873 75.4344 94.3929 75.4176 93.4943C75.4008 92.6082 75.5016 91.6298 75.2202 90.79C75.216 90.7816 75.2118 90.7732 75.2034 90.769C76.1188 90.3826 76.9922 89.9375 77.832 89.4504C77.8698 90.5464 78.3527 91.6634 79.2177 92.2219C79.0413 92.4948 78.9069 92.8014 78.8314 93.1541C78.4996 94.6365 79.4024 96.081 80.385 97.1056C81.3465 98.1092 82.6482 98.9868 84.0759 98.991C84.6427 100.368 85.0164 101.771 85.2432 103.22C85.2264 103.215 85.2096 103.211 85.1928 103.211C85.071 103.19 84.9535 103.203 84.8317 103.245C84.7939 103.262 84.7645 103.278 84.7351 103.291C84.7183 103.291 84.6931 103.291 84.6595 103.295C84.5462 103.312 84.4328 103.325 84.3194 103.341C84.1641 103.362 84.1599 103.367 84.3068 103.341C84.1473 103.362 83.9877 103.383 83.8281 103.404C83.7064 103.421 83.5804 103.438 83.4586 103.472C82.4299 103.745 81.7077 104.601 81.6783 105.68C81.6237 107.73 83.7022 108.796 85.5287 108.59C85.5287 109.749 85.5119 110.913 85.4531 112.076ZM89.7823 54.4247C89.5135 54.0173 89.1776 53.6562 88.7619 53.3875C87.5736 52.6106 85.2432 52.4888 84.311 53.694C84.2102 53.5218 84.1809 53.3077 84.2522 53.0431C84.5672 51.8841 83.3915 50.4018 82.1234 50.9141C81.8672 51.0191 81.6321 51.0695 81.4137 51.0863C81.1618 50.9519 80.8721 50.8847 80.5697 50.8931C79.9609 50.5236 79.6753 49.6838 79.7971 48.7767C79.9273 48.7851 80.0617 48.7935 80.196 48.7893C81.3339 48.7767 82.3753 48.3568 83.3998 47.9033C85.3356 47.0466 87.2419 46.1312 89.1482 45.2116C89.2574 47.7017 89.1566 50.1961 88.9341 52.6778C88.8753 53.3119 89.2952 53.6562 89.7823 53.7108C89.7613 53.778 89.7445 53.8494 89.7277 53.9208C89.7487 53.9124 89.7697 53.9082 89.7949 53.904C89.7067 54.0509 89.6857 54.2357 89.7823 54.4247Z" fill="#251C1C"/>
<path d="M64.8908 102.951C64.3239 102.292 63.5009 102.569 63.0516 103.174C62.8878 103.397 62.7367 103.628 62.5939 103.863C62.1152 103.09 61.3594 102.578 60.4692 102.901C59.6294 103.208 59.474 104.131 59.8016 104.875C60.0661 105.475 60.7463 106.386 61.4266 106.638C61.4098 107.18 62.1194 107.659 62.6443 107.184C63.3455 106.554 63.9754 105.87 64.5465 105.118C65.0378 104.484 65.5164 103.678 64.8908 102.951Z" fill="#EF4036"/>
<path d="M67.5825 84.2775C67.339 84.4623 67.0954 84.6009 66.8183 84.7227C66.2766 84.962 65.7098 85.0796 65.1177 85.0082C64.681 84.9578 64.2947 84.8066 63.9882 84.5799C63.5977 84.3573 63.2534 84.055 62.7873 84.0214C61.9559 83.9584 61.4394 84.5085 61.0951 85.1678C60.7172 84.5715 60.2133 84.055 59.4743 84.2733C58.8403 84.4623 58.3784 84.8654 57.7569 85.025C57.1901 85.2223 56.5854 85.2728 55.88 85.0712C55.7204 85.025 55.5651 84.9662 55.4055 84.8948C56.6232 86.7971 58.9285 87.9267 61.1875 88.0232C62.3254 88.0736 63.3793 87.9435 64.3199 87.6159C65.5796 87.0658 66.6881 86.1714 67.4481 85.0166C67.6329 84.6933 67.7924 84.3447 67.9352 83.9668C67.8344 84.034 67.6455 84.2313 67.5825 84.2775Z" fill="#EF4036"/>
<path d="M36.4303 50.5404C35.7249 49.4612 34.7171 48.2939 33.6674 47.5464C33.5456 47.4582 33.4155 47.601 33.4407 47.7228C33.68 49.0581 33.8437 50.4397 34.1923 51.7582C34.1839 51.7834 34.1797 51.8086 34.1755 51.8338C34.1251 52.027 34.2175 52.2327 34.3644 52.3545C34.3644 52.3587 34.3644 52.3587 34.3686 52.3629C34.4232 52.5309 34.6416 52.5603 34.7465 52.4595C34.7969 52.4469 34.8515 52.4259 34.9019 52.3923C35.5317 51.9346 37.0602 51.5105 36.4303 50.5404ZM35.9264 50.9436C35.8802 50.952 35.5779 51.0695 35.263 51.1955C35.263 51.1535 35.263 51.1115 35.263 51.0653C35.4687 51.0066 35.6409 50.7756 35.5107 50.5321C35.4184 50.3599 35.326 50.1877 35.2378 50.0197C35.2588 50.0491 35.2798 50.0785 35.3008 50.1079C35.4184 50.2675 35.8593 50.9058 35.9264 50.9436ZM33.9781 48.4115C34.0579 48.508 34.1335 48.6046 34.2133 48.7012C34.1671 48.718 34.1251 48.7474 34.0915 48.781C34.0537 48.655 34.0159 48.5332 33.9781 48.4115Z" fill="#251C1C"/>
<path d="M48.3426 127.63C47.5154 130.85 46.6042 134.046 45.8148 137.275C45.4285 138.854 45.08 140.441 44.7357 142.033C44.3998 143.582 43.9673 145.153 43.8539 146.74C43.8161 147.244 44.5761 147.316 44.7105 146.858C45.1724 145.308 45.3445 143.654 45.6301 142.062C45.9198 140.458 46.2263 138.858 46.5203 137.254C47.1081 134.05 47.675 130.829 48.414 127.655C48.4266 127.604 48.3552 127.583 48.3426 127.63Z" fill="#251C1C"/>
<path d="M58.8065 133.395C57.7231 138.741 56.8246 144.271 56.7952 149.734C56.791 150.373 57.7441 150.364 57.7819 149.734C58.0926 144.288 58.3194 138.892 59.1298 133.488C59.1592 133.273 58.8485 133.181 58.8065 133.395Z" fill="#251C1C"/>
<path d="M74.1243 145.569C73.6624 143.079 72.9359 140.652 72.5118 138.149C72.071 135.546 71.8064 132.917 71.6805 130.275C71.6679 129.977 71.2144 129.973 71.2144 130.275C71.2395 132.942 71.4117 135.604 71.7434 138.254C72.0584 140.774 72.3817 143.411 73.2089 145.821C73.4104 146.401 74.2334 146.165 74.1243 145.569Z" fill="#251C1C"/>
<path d="M89.7448 141.819C89.094 140.106 88.4264 138.401 87.7461 136.7C86.8098 134.357 85.7264 132.157 84.5759 129.918C84.5507 129.872 84.5213 129.835 84.4919 129.805C84.2316 128.94 83.9377 128.092 83.4506 127.311C83.1315 126.803 82.4008 127.034 82.3589 127.605C82.2539 129.129 82.7745 130.523 83.2406 131.972C83.7151 133.446 84.2442 134.903 84.8321 136.339C85.7894 138.695 86.9063 140.967 88.103 143.205C88.6321 142.726 89.178 142.252 89.7448 141.819Z" fill="#251C1C"/>
<path d="M69.6274 81.0396C68.9598 81.0396 68.9598 82.0726 69.6274 82.0726C70.2951 82.0768 70.2951 81.0396 69.6274 81.0396Z" fill="#251C1C"/>
<path d="M87.834 48.3821C87.7333 47.7102 86.8473 47.6388 86.4316 48.0126C85.9235 48.4661 85.4658 48.9154 85.0459 49.4319C84.9157 49.5327 84.8066 49.6712 84.7436 49.8266C84.7058 49.8896 84.689 49.9568 84.689 50.024C84.6596 50.1961 84.6806 50.3767 84.7688 50.5573C84.8989 50.8176 85.0753 51.0276 85.2852 51.1662C85.6044 51.4979 85.9613 51.7876 86.3686 52.027C86.8431 52.3084 87.5695 52.0606 87.6913 51.4895C87.9054 50.4607 87.9852 49.4235 87.834 48.3821Z" fill="#251C1C"/>
<path d="M108.338 59.4312C108.044 58.4822 107.716 57.5458 107.41 56.6009C107.263 56.1264 107.074 55.6645 106.906 55.1984L106.385 53.8C106.297 53.5691 106.217 53.3339 106.121 53.103L105.831 52.4143L105.251 51.037C103.668 47.3878 101.8 43.8479 99.6205 40.4969C97.4371 37.1501 94.9555 33.9797 92.1422 31.1116C89.3331 28.2394 86.2216 25.6359 82.7953 23.4943C79.3773 21.3442 75.6696 19.6268 71.7814 18.4552C67.8973 17.2752 63.8369 16.6621 59.7723 16.6411C55.7077 16.6453 51.6431 17.25 47.7507 18.4132C43.8582 19.5764 40.1379 21.2855 36.7074 23.4271C36.4848 23.5488 36.2833 23.7 36.0691 23.8386L35.4393 24.2627L34.1838 25.111L32.9745 26.0222L32.3698 26.4799C32.1683 26.6311 31.9625 26.778 31.7736 26.946L30.6146 27.9202C30.2325 28.2478 29.8336 28.5585 29.4725 28.9112L28.3682 29.9443L27.8139 30.4608C27.6292 30.6329 27.4612 30.8219 27.2849 30.9983C24.4422 33.8537 21.9102 36.9989 19.6763 40.3331C15.2128 47.0099 11.9502 54.4341 9.84235 62.1397L9.11593 65.0456L9.02775 65.4109L8.95217 65.7762L8.80101 66.5111L8.49447 67.9766C8.44408 68.2202 8.3937 68.4637 8.34331 68.7115L8.22155 69.4506L7.978 70.9287C7.79745 71.9113 7.69248 72.9023 7.56651 73.8891C7.08363 77.8448 6.86948 81.8299 6.90307 85.8107C6.96185 89.7916 7.28097 93.7599 7.84363 97.6945C7.9906 98.6772 8.12077 99.664 8.31812 100.638L8.59106 102.104L8.72961 102.834L8.89338 103.561L9.22091 105.014L9.38465 105.74L9.46443 106.106L9.56102 106.467L10.3294 109.343C12.5381 116.969 15.8175 124.301 20.239 130.906C22.4477 134.211 24.9418 137.327 27.7384 140.166C27.9105 140.342 28.0785 140.531 28.259 140.703L28.8007 141.215L29.884 142.244C30.2367 142.597 30.6273 142.908 31.0052 143.235L32.1431 144.209C32.3278 144.377 32.5294 144.524 32.7267 144.675L33.323 145.133L34.5113 146.049L35.7458 146.901L36.363 147.325C36.5688 147.464 36.7704 147.615 36.9887 147.741C40.3647 149.891 44.0178 151.629 47.864 152.83C51.7061 154.027 55.7329 154.682 59.7723 154.724C63.8117 154.741 67.8637 154.174 71.7394 153.024C75.6192 151.881 79.3227 150.181 82.7449 148.047C86.1712 145.918 89.2911 143.332 92.1044 140.472C94.9177 137.608 97.4035 134.446 99.5911 131.104C101.775 127.757 103.643 124.221 105.226 120.572L105.806 119.199L106.095 118.51C106.192 118.279 106.272 118.044 106.36 117.813L106.881 116.415C107.049 115.949 107.237 115.487 107.384 115.012C107.691 114.067 108.014 113.131 108.312 112.182L109.135 109.322C111.159 101.646 112.129 93.7305 112.163 85.8149C112.142 77.8994 111.176 69.9797 109.152 62.3035L108.338 59.4312ZM108.602 109.163L107.704 111.976C107.38 112.908 107.036 113.828 106.7 114.752C106.54 115.218 106.335 115.667 106.15 116.121L105.583 117.481C105.487 117.708 105.398 117.939 105.298 118.162L104.987 118.829L104.365 120.165C102.673 123.709 100.7 127.114 98.449 130.314C96.2068 133.518 93.6748 136.512 90.8867 139.229C90.7145 139.397 90.5466 139.578 90.366 139.741L89.8243 140.233L88.7452 141.211C88.3925 141.547 88.0062 141.841 87.6325 142.152L86.503 143.076C86.3182 143.235 86.1208 143.374 85.9235 143.516L85.3398 143.949L84.1683 144.814L82.9548 145.612L82.346 146.011C82.1444 146.141 81.9471 146.284 81.7329 146.401C78.4283 148.421 74.8844 150.038 71.1851 151.146C67.4858 152.251 63.6395 152.868 59.7723 152.902L58.3237 152.864L57.5972 152.847C57.3537 152.843 57.1144 152.843 56.875 152.814L55.4306 152.688L54.7083 152.625C54.4648 152.612 54.2297 152.557 53.9903 152.524L52.5543 152.305C52.3149 152.263 52.0756 152.242 51.8363 152.188L51.1266 152.032L49.7074 151.722C49.468 151.676 49.2371 151.604 49.002 151.541L48.3007 151.344C44.5636 150.294 40.9735 148.711 37.6185 146.712C37.4044 146.599 37.2028 146.456 36.9971 146.326L36.3798 145.927L35.1496 145.133L33.9612 144.272L33.3692 143.84C33.1718 143.697 32.9703 143.554 32.7855 143.399L31.6476 142.471C31.2697 142.16 30.8792 141.862 30.5223 141.526L29.4306 140.543L28.8847 140.052C28.7041 139.888 28.5362 139.708 28.3598 139.536C25.5549 136.794 23.0355 133.757 20.8101 130.516C18.593 127.27 16.6657 123.818 15.0449 120.236C13.4241 116.65 12.072 112.942 11.0265 109.146L10.3 106.286L10.2119 105.929L10.1363 105.568L9.98512 104.846L9.67858 103.401C9.62819 103.162 9.57361 102.918 9.52742 102.679L9.40566 101.953L9.16212 100.5C8.98156 99.5338 8.87239 98.5554 8.74642 97.5812C8.25514 93.6801 8.04938 89.7454 8.07877 85.8191C8.14176 81.8929 8.45248 77.9708 9.02354 74.0949C9.17051 73.1249 9.30068 72.1549 9.50223 71.1974L9.77518 69.7529L9.91372 69.0306L10.0775 68.3168L10.405 66.8848L10.5688 66.171L10.6485 65.814L10.7451 65.4613L11.5135 62.631C13.718 55.1312 16.9722 47.9295 21.3685 41.5005C23.5646 38.2881 26.0504 35.2773 28.8091 32.5562C28.9812 32.384 29.145 32.2076 29.3214 32.0439L29.8588 31.5526L30.9296 30.5699C31.2781 30.234 31.6644 29.9401 32.0339 29.6293L33.1508 28.7055C33.3356 28.5459 33.5329 28.4073 33.7261 28.2646L34.3098 27.832L35.4729 26.967L36.6822 26.1692L37.2868 25.7702C37.4884 25.64 37.6857 25.4973 37.8957 25.3839C41.1877 23.3725 44.719 21.7642 48.4057 20.6766C52.0882 19.5806 55.9219 19.0095 59.7639 18.9927C63.606 18.9885 67.4438 19.5596 71.1347 20.6346C74.8298 21.7138 78.3696 23.3137 81.6783 25.3167C81.8925 25.4301 82.0898 25.5729 82.2914 25.703L82.9002 26.0978L84.1137 26.8914L85.2852 27.7481L85.8731 28.1764C86.0663 28.3192 86.2678 28.4577 86.4526 28.6173L87.5821 29.5327C87.9558 29.8435 88.3463 30.1332 88.699 30.4692L89.7824 31.4434L90.324 31.9305C90.5046 32.0943 90.6725 32.2706 90.8447 32.4428C93.6328 35.1555 96.169 38.1411 98.4154 41.341C100.666 44.5366 102.644 47.9379 104.336 51.4821L104.957 52.8174L105.268 53.4851C105.373 53.7077 105.457 53.9386 105.554 54.1654L106.121 55.5259C106.305 55.9794 106.507 56.4288 106.671 56.8949C107.007 57.8187 107.355 58.7383 107.674 59.6706L108.573 62.484C110.819 70.0384 111.903 77.9372 111.936 85.8359C111.928 93.7011 110.849 101.604 108.602 109.163Z" fill="#251C1C"/>
<path d="M118.642 79.1125C118.507 76.8827 118.302 74.6613 118.016 72.4441C117.449 68.014 116.597 63.6174 115.455 59.2922C114.88 57.1296 114.22 54.988 113.49 52.8716C112.763 50.7552 111.953 48.6597 111.063 46.6021C109.278 42.4827 107.174 38.4934 104.718 34.7141C102.257 30.939 99.4567 27.3655 96.2823 24.1321C94.6993 22.5154 93.0281 20.9743 91.2729 19.5339C89.5135 18.0978 87.6702 16.7582 85.7387 15.5447C81.884 13.1175 77.7102 11.1691 73.3265 9.84631C68.947 8.51936 64.3659 7.83908 59.7806 7.82229C55.1954 7.81809 50.6101 8.49417 46.218 9.79593C41.8258 11.1061 37.6395 13.0461 33.7722 15.4649C29.8966 17.8794 26.3526 20.7811 23.1404 23.9935C19.9324 27.2143 17.0729 30.7585 14.5577 34.521C9.52316 42.0502 5.84908 50.4276 3.47666 59.1158C1.10424 67.8124 0.058686 76.8323 0.159461 85.8019C0.218247 90.2908 0.566757 94.7672 1.205 99.2058C1.52832 101.423 1.92723 103.628 2.39752 105.82C2.86361 108.012 3.40527 110.187 4.02252 112.337C6.50411 120.937 10.1992 129.205 15.1876 136.659C17.6776 140.383 20.4951 143.898 23.6485 147.098C26.7935 150.302 30.2829 153.195 34.0871 155.627C37.8914 158.054 42.0106 160.027 46.3439 161.384C50.6773 162.727 55.2206 163.454 59.7764 163.5C64.3323 163.538 68.9008 162.887 73.2761 161.602C77.6515 160.313 81.8252 158.381 85.6841 155.975C89.5429 153.569 93.0701 150.663 96.2445 147.438C99.4189 144.209 102.224 140.644 104.689 136.877C107.149 133.102 109.257 129.113 111.042 124.997C111.932 122.94 112.742 120.849 113.473 118.728C114.208 116.612 114.867 114.47 115.438 112.307C116.58 107.982 117.437 103.586 118.004 99.1596C118.289 96.9466 118.499 94.721 118.633 92.4954C118.776 90.2698 118.848 88.0359 118.852 85.8061C118.852 83.5721 118.78 81.3423 118.642 79.1125ZM117.672 99.1176C117.042 103.523 116.101 107.886 114.829 112.139C114.195 114.268 113.481 116.372 112.688 118.447C111.89 120.517 111.016 122.558 110.063 124.557C108.157 128.554 105.932 132.396 103.395 136.004C100.868 139.619 98.0081 142.991 94.863 146.052C93.2884 147.581 91.6424 149.034 89.9167 150.382C88.1993 151.738 86.4021 152.994 84.5378 154.132C80.8133 156.416 76.8201 158.251 72.6505 159.502C68.4767 160.75 64.135 161.413 59.7764 161.459C57.5972 161.472 55.4137 161.346 53.2512 161.052C51.0888 160.762 48.9431 160.309 46.8352 159.721C42.6194 158.537 38.5716 156.739 34.7968 154.48C31.0135 152.225 27.5283 149.466 24.3539 146.388C21.1879 143.298 18.3452 139.875 15.8384 136.218C13.3358 132.556 11.1692 128.663 9.34261 124.619C7.52025 120.576 5.99602 116.389 4.82031 112.11C2.45209 103.552 1.39816 94.658 1.49893 85.8019C1.56612 81.3717 1.90203 76.9541 2.54868 72.5785C2.872 70.3907 3.27088 68.2197 3.74117 66.0613C4.20726 63.9029 4.74895 61.7655 5.36619 59.6449C7.84779 51.1877 11.5135 43.0622 16.4725 35.8143C18.9498 32.1946 21.7506 28.7974 24.8662 25.7278C27.9776 22.6581 31.404 19.9076 35.1159 17.6359C38.8278 15.3641 42.8042 13.5374 46.9654 12.3113C51.1223 11.0851 55.4473 10.4426 59.7764 10.43C64.1098 10.4216 68.4347 11.0515 72.6043 12.2609C76.7697 13.4786 80.7629 15.2927 84.4874 17.5561C86.3517 18.6857 88.1489 19.9329 89.8705 21.2808C91.5963 22.6246 93.2506 24.0649 94.8252 25.5892C97.9703 28.6462 100.834 32.0098 103.366 35.6211C105.906 39.2283 108.136 43.0622 110.038 47.0598C110.991 49.0587 111.869 51.0953 112.667 53.1655C113.46 55.2357 114.174 57.3395 114.808 59.4685C116.08 63.7265 117.021 68.0853 117.655 72.4903C118.285 76.8953 118.583 81.3465 118.6 85.8019C118.596 90.2572 118.302 94.7126 117.672 99.1176Z" fill="#251C1C"/>
<path d="M73.7927 9.5986C71.1725 7.97769 68.5482 6.37359 65.8902 4.81148C64.5633 4.03042 63.2407 3.24516 61.918 2.45991C60.8221 1.80903 59.617 0.914591 58.2817 0.948185C57.1774 0.97338 56.1654 1.9812 55.334 2.61528C54.2759 3.42573 53.2429 4.26138 52.2352 5.13482C50.0559 7.02447 47.9354 9.0401 46.1215 11.2867C46.0417 11.3875 46.1677 11.5218 46.2642 11.4295C48.1454 9.62799 50.0013 7.81392 52.0084 6.15522C53.033 5.31118 54.0869 4.49653 55.1618 3.71968C56.2032 2.96802 57.3705 1.82582 58.7562 2.21635C59.9739 2.56068 61.1328 3.61049 62.1741 4.30336C63.3498 5.08862 64.5256 5.87387 65.6971 6.66333C68.0443 8.24224 70.4167 9.77077 72.7975 11.2951C73.8641 11.9838 74.8676 10.2663 73.7927 9.5986Z" fill="#251C1C"/>
<path d="M58.7477 3.58942C58.4328 3.27448 57.9709 3.1569 57.5426 3.27028C57.53 3.27448 57.5174 3.27448 57.5048 3.27867C57.4082 3.32067 57.3074 3.36267 57.2109 3.40466C57.0681 3.48024 56.9505 3.58942 56.8665 3.7196C56.707 3.92536 56.5894 4.1941 56.602 4.46285C56.6104 4.68121 56.6692 4.89118 56.77 5.08434C56.9085 5.34889 57.2193 5.57565 57.5048 5.65123C57.5174 5.65543 57.53 5.65543 57.5426 5.65963C57.9583 5.76881 58.4496 5.66382 58.7477 5.34048C58.9702 5.09693 59.1088 4.79879 59.1088 4.46285C59.1088 4.15211 58.9702 3.81618 58.7477 3.58942Z" fill="#251C1C"/>
<path d="M22.3974 77.4202C18.6267 81.2163 14.8938 85.0544 11.1819 88.9009C11.0518 89.0353 11.2533 89.2326 11.3877 89.1067C15.2339 85.3946 19.0718 81.6614 22.8677 77.8905C23.1658 77.5882 22.6955 77.1179 22.3974 77.4202Z" fill="#251C1C"/>
<path d="M20.0669 105.895C18.6603 107.268 17.283 108.667 15.8932 110.056C15.5698 110.38 16.0737 110.884 16.397 110.56C17.7869 109.17 19.1851 107.789 20.5582 106.386C20.8731 106.067 20.3902 105.584 20.0669 105.895Z" fill="#251C1C"/>
<path d="M106.112 76.8368C102.816 80.1836 99.5325 83.5346 96.3455 86.9864C96.1439 87.2047 96.4505 87.5113 96.6688 87.3097C100.12 84.1225 103.471 80.8387 106.818 77.5423C107.28 77.093 106.566 76.3791 106.112 76.8368Z" fill="#251C1C"/>
<path d="M103.618 110.011C99.2385 114.281 94.9682 118.648 90.7104 123.041C90.4081 123.356 90.8741 123.826 91.1891 123.52C95.5812 119.261 99.9481 114.991 104.218 110.611C104.601 110.221 104.009 109.628 103.618 110.011Z" fill="#251C1C"/>
<path d="M44.8285 28.2894L41.5995 31.5438C41.2552 31.8923 41.7884 32.4298 42.1411 32.0855L45.3953 28.8521C45.7564 28.491 45.1896 27.924 44.8285 28.2894Z" fill="#251C1C"/>
<path d="M76.1315 26.7058C74.1916 28.5451 72.3819 30.5271 70.5301 32.4546C70.19 32.8073 70.7275 33.349 71.0718 32.9963C72.9235 31.0688 74.8257 29.175 76.5892 27.1636C76.858 26.8528 76.4339 26.4161 76.1315 26.7058Z" fill="#251C1C"/>
</svg>
