<svg width="120" height="164" viewBox="0 0 120 164" fill="none" xmlns="http://www.w3.org/2000/svg">
<path d="M93.1766 138.995C94.3563 137.575 95.5614 136.172 96.859 134.861C96.9138 132.439 96.9222 130.016 96.8885 127.593C96.8801 127.041 96.484 126.641 96.0206 126.51C96.1133 126.304 96.2018 126.097 96.2776 125.883C96.3914 125.558 96.0374 125.229 95.7214 125.326C92.9407 126.207 91.6852 129.847 91.4408 132.468C91.2217 134.811 91.8453 137.124 93.0418 139.109C93.0882 139.071 93.1345 139.033 93.1766 138.995Z" fill="#47AD4B"/>
<path d="M25.2048 130.222C25.3986 130.349 25.5924 130.475 25.782 130.593C25.3186 130.686 24.9099 131.103 24.931 131.596C24.9984 132.961 25.0784 134.343 25.1838 135.725C25.9969 136.58 26.7553 137.482 27.5263 138.375C27.6232 138.485 27.6695 138.603 27.6906 138.721C28.3563 139.286 29.043 139.829 29.7256 140.368C30.0163 140.596 30.307 140.828 30.5977 141.055C31.8027 138.835 32.3588 136.151 31.5541 133.698C30.682 131.04 28.3689 129.515 25.7146 129.022C24.9857 128.891 24.5644 129.797 25.2048 130.222ZM27.619 137.722C27.5516 137.036 27.4884 136.349 27.4167 135.666C27.5642 136.328 27.6232 137.023 27.619 137.722Z" fill="#47AD4B"/>
<path d="M62.7236 41.0992C60.9204 40.956 58.9191 41.411 57.1201 41.6006C55.2831 41.7944 53.1554 41.8155 51.4154 42.4812C50.6486 42.7762 50.0671 43.3871 50.0671 44.2509C50.0671 45.0009 50.6317 45.8857 51.4154 46.0205C53.3408 46.3534 55.38 46.0332 57.3139 45.8604C59.2519 45.6877 61.4091 45.734 63.2798 45.2073C65.6434 44.5458 65.0156 41.2804 62.7236 41.0992Z" fill="#E5332A"/>
<path d="M53.2435 126.177C53.1382 125.899 53.1003 125.613 53.1297 125.318C53.1297 124.661 52.5736 124.391 52.0849 124.488C51.929 124.412 51.7562 124.378 51.5919 124.387C51.3813 124.243 51.1285 124.176 50.8968 124.227C50.5765 123.902 50.0373 123.961 49.6707 124.26C49.3379 123.97 48.7691 124.024 48.4194 124.332C48.2045 124.256 47.9644 124.252 47.7579 124.328C47.4124 123.902 46.6835 123.898 46.3423 124.319C46.0937 124.172 45.7735 124.151 45.5123 124.252C45.1752 124.092 44.7118 124.168 44.4421 124.471C44.3199 124.45 44.1935 124.458 44.0671 124.492C43.7175 124.361 43.2666 124.429 43.0349 124.787C42.6557 125.373 42.6431 126.047 42.879 126.696C43.0644 127.21 43.6248 127.471 44.0924 127.231C44.2778 127.366 44.5137 127.433 44.8339 127.382C44.8676 127.378 44.8971 127.366 44.9309 127.361C45.2047 127.686 45.6176 127.72 45.9462 127.547C45.9631 127.568 45.9757 127.589 45.9926 127.61C46.2791 127.968 46.9405 127.939 47.2608 127.61C47.6104 127.804 48.0613 127.77 48.3393 127.488C48.5289 127.543 48.7438 127.53 48.9334 127.462C49.3294 127.863 49.9909 127.93 50.3532 127.391C50.7493 127.488 51.1917 127.37 51.3728 126.97C51.3855 126.936 51.4023 126.906 51.415 126.873C51.4276 126.873 51.436 126.868 51.4487 126.868C51.4613 126.877 51.4697 126.885 51.4824 126.894C51.8531 127.787 53.5511 127.298 53.2435 126.177Z" fill="#E5332A"/>
<path d="M38.017 125.208C38.0255 125.166 37.9623 125.145 37.9496 125.191C37.5199 126.902 37.0607 128.604 36.6098 130.306C36.4455 130.058 36.2644 129.813 36.1169 129.54C35.6914 128.747 35.4428 127.867 35.3627 126.974C35.329 126.607 34.8487 126.62 34.8024 126.974C34.676 127.947 34.735 128.908 35.0468 129.843C35.2785 130.538 35.5734 131.356 36.2475 131.688C35.8051 133.382 35.3754 135.08 35.0004 136.791C34.4948 139.087 33.9892 141.556 33.8755 144C34.3137 144.459 34.7476 144.919 35.1942 145.37C35.1521 144.316 35.1226 143.259 35.2069 142.188C35.3585 140.271 35.7209 138.384 36.0958 136.5C36.4203 134.87 36.7025 133.226 36.9722 131.583C37.0185 131.516 37.0438 131.44 37.0354 131.351C37.0312 131.326 37.027 131.301 37.0227 131.276C37.3514 129.253 37.6631 127.226 38.017 125.208Z" fill="#1D1D1B"/>
<path d="M85.5798 142.504C85.6557 143.612 85.6177 144.75 85.6177 145.879C86.0138 145.572 86.4309 145.285 86.8691 145.032C86.8227 144.109 86.73 143.191 86.6584 142.323C86.4815 140.14 86.1697 137.962 85.7315 135.817C85.2217 133.327 84.5602 130.711 83.6291 128.229C83.7176 128.216 83.8018 128.178 83.8693 128.098C84.4549 127.399 84.7835 126.522 85.0911 125.671C85.3986 124.816 85.8242 123.792 85.7526 122.874C85.7357 122.671 85.4703 122.574 85.3565 122.768C84.8888 123.548 84.7119 124.521 84.3159 125.347C83.9957 126.013 83.5828 126.632 83.2626 127.294C82.6938 125.903 82.0365 124.567 81.2613 123.337C81.1517 123.164 80.8484 123.274 80.92 123.48C81.5941 125.507 82.4536 127.466 83.0982 129.506C83.7639 131.604 84.299 133.753 84.7203 135.914C85.1458 138.093 85.4324 140.292 85.5798 142.504Z" fill="#1D1D1B"/>
<path d="M94.9332 108.388C95.1987 109.433 95.3967 110.491 95.5441 111.557C94.9627 111.826 94.5288 112.458 94.1074 112.918C93.5597 113.516 93.0078 114.114 92.4601 114.708C92.1272 115.071 92.6412 115.589 93.0036 115.252C93.5934 114.696 94.1875 114.139 94.7774 113.588C95.0596 113.322 95.4051 113.052 95.6958 112.749C95.7885 113.63 95.8517 114.514 95.8981 115.399C95.7885 115.311 95.6368 115.277 95.4641 115.332C95.3461 115.37 95.2324 115.416 95.1186 115.467C95.1692 115.235 95.2113 115.003 95.2281 114.767C95.2534 114.413 94.8195 114.321 94.5962 114.506C94.3434 114.712 94.0737 114.826 93.7872 114.97C93.6061 115.062 93.7156 115.302 93.8799 115.319C94.0105 115.332 94.1369 115.332 94.2591 115.315C94.1201 115.698 93.9726 116.073 93.7493 116.44C93.5218 116.811 93.9052 117.384 94.3476 117.22C94.4403 117.186 94.5372 117.144 94.6299 117.106C94.5161 117.426 94.4066 117.746 94.3181 118.075C94.1875 118.568 94.9501 118.934 95.1734 118.437C95.4683 117.771 95.6663 117.072 95.9402 116.398C95.9907 117.868 96.0034 119.343 96.0076 120.809C96.0202 125.444 95.8728 130.079 95.5821 134.705C95.5484 135.253 95.5104 135.801 95.4725 136.349C96.0034 135.763 96.5469 135.19 97.1072 134.634C97.4317 129.965 97.5876 125.292 97.5665 120.611C97.5286 112.694 97.2042 103.125 90.1386 98.0188C87.1725 95.8741 83.2374 94.8123 79.7783 96.2196C79.7952 96.1227 79.7952 96.0258 79.7699 95.9331C79.4076 94.6143 79.0663 93.2913 78.6955 91.9724C83.9325 89.3727 88.3985 85.1171 89.0684 79.0245C89.5572 74.5624 88.3522 69.7254 86.9871 65.5035C86.3467 63.5232 85.3819 61.9515 83.9031 60.5021C82.6096 59.2339 83.2037 57.4937 83.0056 55.8799C83.1194 55.2437 83.1699 54.5991 83.1699 53.9544C83.3132 53.8575 83.4227 53.6974 83.4607 53.4614C83.8693 50.9881 83.903 48.5569 83.8567 46.0584C83.8483 45.5485 83.2879 44.9713 82.736 45.2072C81.2656 45.8266 79.8373 46.5471 78.3964 47.2297C77.6549 47.5794 76.9133 47.9376 76.1718 48.2999C75.4808 48.637 74.6087 49.269 73.8293 49.2775C73.1552 49.2859 72.4347 48.9362 71.7901 48.755C71.0359 48.5401 70.2775 48.3505 69.5149 48.1777C68.0909 47.8575 66.6584 47.6342 65.2133 47.4362C62.7865 47.1075 60.3386 46.9811 57.8949 47.0527C57.5368 46.9811 57.1702 47.0064 56.8037 47.0991C53.846 47.2592 50.901 47.71 48.0318 48.46C44.9688 49.2606 41.9816 50.394 39.1756 51.8645C37.4187 50.8364 35.6534 49.8252 33.7743 49.0289C32.6915 48.5696 29.9908 47.1202 29.1018 48.5359C28.71 49.1595 28.9712 49.9642 29.1229 50.6215C29.3841 51.7423 29.658 52.8631 29.9445 53.9797C30.4922 56.1328 31.1242 58.2479 31.8067 60.3589C31.7815 60.4305 31.7772 60.5063 31.7857 60.5737C31.8151 60.7718 31.8362 60.9698 31.8615 61.1678C31.8826 61.3279 31.9668 61.4333 32.0679 61.4838C32.0679 61.4838 32.0679 61.4838 32.0679 61.4881C32.0553 61.5007 32.0427 61.5176 32.0342 61.5344C28.8701 68.5751 29.2451 77.2801 33.1929 83.9247C34.9245 86.8405 37.2881 89.3727 40.0983 91.273C40.7598 91.7196 41.4423 92.1157 42.1417 92.4738C41.8594 93.5356 41.6066 94.5974 41.3749 95.6677C41.1811 96.5693 40.8146 97.5764 40.7556 98.5202C40.5955 98.5117 40.4396 98.5159 40.2795 98.5286C40.0983 98.3558 39.8455 98.2631 39.559 98.3516C38.0086 98.8277 36.5887 99.5272 35.2995 100.399C34.0102 101.086 32.8263 101.988 31.7983 102.995C29.1524 105.586 27.4545 109.029 26.2495 112.488C24.5642 117.321 23.9744 122.402 24.0039 127.496C23.8859 129.434 23.8438 131.364 23.8648 133.264C23.869 133.665 23.8817 134.069 23.8901 134.469C24.5052 135.013 25.0782 135.603 25.6302 136.205C25.5038 132.215 25.6723 128.212 26.1442 124.252C26.9152 117.771 28.1118 110.802 32.2323 105.515C33.4836 103.905 34.9919 102.493 36.7109 101.419C36.7404 101.411 36.7699 101.406 36.8036 101.394C37.9538 100.939 39.0577 100.345 40.17 99.8095C40.3258 99.7336 40.4269 99.6283 40.4901 99.5019C40.4944 99.4977 40.5028 99.4977 40.507 99.4935C40.6334 99.4556 40.7598 99.4218 40.8862 99.3839C41.0674 99.7168 41.396 99.9275 41.8047 100.109C42.9296 100.61 44.063 101.099 45.1963 101.579C49.616 103.458 54.0356 105.333 58.4553 107.213C58.9019 107.402 59.6181 107.2 59.5549 106.581C59.3358 104.444 59.399 102.308 59.7487 100.214C59.7319 100.656 59.7234 101.103 59.7066 101.545C59.656 102.986 59.6434 104.427 59.6308 105.868C59.6013 108.818 59.5676 111.763 59.5676 114.712C59.5676 120.535 59.437 126.396 59.8667 132.207C59.8836 132.417 60.0731 132.498 60.2206 132.447C60.1785 134.84 60.2796 137.238 60.1363 139.627C60.0521 141.059 59.913 142.458 59.8962 143.895C59.8835 144.91 59.8835 145.93 59.8835 146.945H61.0843C61.0843 145.993 61.0843 145.041 61.0717 144.089C61.0548 142.585 60.9284 141.122 60.8315 139.627C60.6419 136.656 60.8568 133.673 60.6883 130.698C60.6798 130.576 60.5956 130.513 60.5029 130.505C60.7978 125.255 60.6925 119.967 60.6925 114.712C60.6925 111.83 60.6588 108.948 60.6335 106.062C60.6209 104.621 60.6124 103.18 60.5619 101.739C60.5282 100.808 60.5282 99.8769 60.4313 98.9542C61.0043 101.411 61.5646 103.871 62.1292 106.332C62.2261 106.753 62.8328 107.052 63.2036 106.77C68.1372 103.058 73.4417 99.8011 78.9062 96.9359C78.9441 97.1719 79.159 97.3867 79.4328 97.2983C82.7655 96.2617 86.2119 97.0792 89.0263 99.0637C92.1778 101.288 94.0021 104.71 94.9332 108.388ZM86.452 68.8068C86.3088 68.731 86.1487 68.6889 85.976 68.6636C86.115 68.6172 86.2498 68.5709 86.3846 68.5203C86.4099 68.6172 86.431 68.7141 86.452 68.8068ZM57.9876 105.456C54.4232 104.002 50.8589 102.548 47.2945 101.095C46.3339 100.703 45.3733 100.307 44.4084 99.9232C43.7385 99.6578 41.9058 99.2702 41.7962 98.5159C41.733 98.0862 41.9142 97.5089 41.969 97.0749C42.028 96.5778 42.0912 96.0806 42.1502 95.5834C42.2723 94.5974 42.365 93.6157 42.4409 92.6255C45.0573 93.9022 47.8885 94.589 50.8209 94.9514C53.6649 95.3011 56.5846 95.5497 59.5086 95.6045C58.2952 98.7519 57.7643 102.097 57.9876 105.456ZM54.8825 93.9275C51.0021 93.6705 46.9827 93.3376 43.4226 91.6438C41.6109 90.7842 39.9466 89.6508 38.4636 88.3109C39.7865 87.8559 40.3427 86.082 39.9719 84.818C39.6054 83.5834 38.5268 82.5469 37.2081 82.4627C36.6941 82.429 36.2432 82.5764 35.7714 82.7576C35.3837 82.9051 34.8065 83.2843 34.5495 83.377C34.5116 83.3896 34.4737 83.4065 34.44 83.4233C34.1535 82.9472 33.8881 82.4585 33.6353 81.9613C33.9555 81.9402 34.2841 81.8433 34.6127 81.7169C35.9399 81.1986 37.326 80.3264 38.1055 79.1045C38.9313 77.8068 38.0507 76.6607 36.6561 76.5133C35.388 76.3784 33.9892 76.7787 32.8432 77.4149C32.5103 77.4655 32.2365 77.6088 32.0216 77.8068C31.8489 77.1958 31.6972 76.5807 31.5666 75.9571C34.1914 75.7464 40.2921 75.1607 38.8007 71.2506C37.6505 68.2422 33.7364 67.8251 31.1031 69.0512C31.2674 66.5779 31.7519 64.1299 32.4303 61.7029C32.4471 61.6397 32.4303 61.5808 32.4008 61.5344C32.4092 61.5176 32.4219 61.5007 32.4303 61.4838C32.5567 61.4206 32.6452 61.2858 32.6072 61.092C32.6452 60.974 32.6662 60.856 32.6704 60.7254C32.6789 60.4558 32.544 60.2619 32.3376 60.1819C31.832 57.9656 31.3348 55.7451 30.8293 53.5288C30.5723 52.4081 30.3026 51.2831 30.0877 50.1496C30.0287 49.8378 29.8392 49.4755 30.0751 49.2058C30.3279 48.9193 30.6312 49.1216 30.9683 49.2185C31.5413 49.3786 32.1017 49.5892 32.6536 49.8126C33.7111 50.2423 34.7307 50.769 35.7292 51.3252C36.2517 51.6201 36.7699 51.9235 37.2839 52.2311C37.7684 52.5218 38.2866 52.9853 38.8175 53.1707C39.5253 53.4193 40.3638 52.7283 40.9873 52.4333C42.049 51.9319 43.1276 51.4769 44.2273 51.0682C46.4982 50.2255 48.8534 49.5766 51.2423 49.13C51.0063 50.2128 51.474 51.6833 52.1102 52.3996C53.1846 53.6089 54.9077 53.3224 55.5524 51.8434C55.7546 51.3758 55.8979 50.7606 55.9189 50.137C55.9231 50.1665 55.9274 50.1918 55.9316 50.2213C56.1464 51.5274 57.7432 51.894 58.6575 51.026C58.8429 50.8491 59.003 50.6384 59.1336 50.4067C59.2979 50.6679 59.5254 50.887 59.8077 51.0597C61.0548 51.814 62.4957 50.9123 62.9971 49.7072C63.1404 49.3575 63.2036 48.9741 63.1488 48.6117C65.3228 48.8308 67.4757 49.2227 69.5781 49.7999C70.7663 50.1286 71.9249 50.6384 73.1215 50.9207C74.1453 51.1609 74.9458 50.8196 75.8643 50.3982C77.9666 49.4333 80.1027 48.4937 82.1756 47.453C82.2473 49.3069 82.0872 51.1861 81.8301 53.0064C81.8007 53.217 81.8428 53.4066 81.9313 53.5625C81.7796 54.5106 81.649 55.4755 81.67 56.4235C81.6743 56.592 81.7585 56.71 81.8681 56.7732C81.8681 56.8533 81.8639 56.9333 81.8639 57.0176C81.8639 57.0934 81.8807 57.1608 81.9102 57.2156C81.847 58.1257 81.7627 59.0358 82.0745 59.9038C82.3189 60.5737 82.7697 61.0541 83.2753 61.5428C83.9536 62.2001 84.4929 62.9375 84.9142 63.7844C85.4956 64.96 85.8538 66.2451 86.1613 67.5302C83.8567 67.5723 78.7882 68.7184 79.5803 71.7099C79.9805 73.2099 81.7627 74.0315 83.1152 74.4234C84.2991 74.7689 86.3931 75.1902 87.5517 74.3981C87.5685 74.5414 87.5896 74.6804 87.6022 74.8237C87.6612 75.3925 87.6992 75.9571 87.7118 76.5175C86.8144 76.2605 85.7821 76.3616 84.8679 76.4037C84.0716 76.4416 83.2037 76.4711 82.4748 76.8377C81.1982 77.4739 80.2713 79.7534 81.1855 80.9711C82.1209 82.2141 84.7204 83.811 86.3088 83.141C86.3467 83.1242 86.3762 83.1073 86.4099 83.0905C85.9886 83.9627 85.4577 84.7969 84.8004 85.5806C84.792 85.5933 84.7836 85.6017 84.7752 85.6101C84.7373 85.5891 84.6951 85.5722 84.653 85.5596C84.4466 85.4626 84.219 85.3868 83.9789 85.3447C83.8988 85.3152 83.8188 85.2899 83.7387 85.2604C83.8019 85.0919 83.7472 84.8812 83.5744 84.7801C82.8877 84.3882 81.7585 84.6073 81.1687 85.1171C80.503 85.6944 80.5788 86.7646 80.8443 87.5188C80.958 87.8475 81.2066 88.0118 81.4636 88.0455C81.5689 88.1761 81.7038 88.273 81.8596 88.3489C80.1238 89.6677 78.1689 90.7168 76.1718 91.5216C69.4602 94.2267 62.007 94.4036 54.8825 93.9275ZM34.6127 73.9009C34.6591 73.8335 34.7096 73.7619 34.756 73.6902C34.8276 73.7197 34.8992 73.7492 34.9709 73.7745C34.8529 73.8209 34.7307 73.863 34.6127 73.9009ZM63.2752 104.887C62.5252 101.798 61.7711 98.714 61.0633 95.6129C65.504 95.5876 69.932 95.082 74.1284 93.7842C75.2238 93.4472 76.3235 93.0427 77.4021 92.5708C77.7265 93.6368 78.0678 94.6986 78.4048 95.7603C73.0161 98.2463 68.0066 101.322 63.2752 104.887Z" fill="#1D1D1B"/>
<path d="M61.1353 73.8165C61.3207 73.0497 61.5777 71.7898 60.7308 71.3137C59.9008 70.8502 59.0455 71.7014 58.6073 72.3376C58.4304 72.5904 58.2914 72.8601 58.186 73.1382C57.8953 72.7927 57.554 72.4977 57.158 72.2955C56.5976 72.0047 55.6286 71.8362 55.3548 72.5946C55.0725 73.3741 55.9025 74.7561 56.3027 75.3881C56.8673 76.2772 57.5877 77.3558 58.4346 78.0553C58.4346 78.1185 58.4346 78.1775 58.4388 78.2407C58.4515 78.3881 58.6031 78.4429 58.7169 78.3544C58.738 78.3376 58.7548 78.3207 58.7717 78.3039C58.7843 78.3123 58.8012 78.3249 58.8138 78.3334C58.8939 78.3839 58.9613 78.287 58.9318 78.2154C58.9233 78.1985 58.9149 78.1859 58.9107 78.169C59.1214 77.9415 59.2815 77.6634 59.3826 77.3643C60.0778 76.2435 60.8193 75.1143 61.1353 73.8165Z" fill="#1D1D1B"/>
<path d="M53.3533 69.5396C53.3153 67.7826 53.0752 66.0256 52.8561 64.2854C52.6749 62.8529 52.3716 61.3486 51.3014 60.2911C49.0558 58.0832 46.2709 60.2447 45.2302 62.5031C43.8778 65.4357 44.0337 68.8739 45.1712 71.836C45.1628 71.8402 45.1501 71.8402 45.1417 71.8444C44.8342 71.9202 44.9226 72.3879 45.2344 72.3289C45.3145 72.3121 45.3945 72.2994 45.4704 72.2868C45.681 72.4006 45.9549 72.3374 46.1402 72.1688C46.7512 72.0635 47.3663 71.975 47.9814 71.8949C48.171 71.9666 48.3606 72.0256 48.546 72.0593C48.6682 72.1098 48.7861 72.1225 48.8957 72.1056C49.4434 72.1393 49.9743 71.9961 50.4841 71.6506C50.4967 71.6421 50.5051 71.6337 50.5178 71.6211C50.6947 71.6042 50.8759 71.5874 51.0528 71.5747C51.5879 71.5368 52.4348 71.6801 52.9319 71.3725C53.5134 71.0185 53.3659 70.1084 53.3533 69.5396ZM52.1272 70.395C51.9545 70.534 51.4615 70.5003 51.2256 70.5424C51.1034 70.5635 50.9854 70.5846 50.8632 70.6056C50.9012 70.534 50.9265 70.4539 50.9391 70.3655C51.1498 68.6548 50.8127 67.0073 50.286 65.3809C50.008 64.513 49.6709 62.4189 48.3522 62.7264C47.1978 62.9961 47.004 65.1913 46.9113 66.1225C46.7638 67.593 46.7554 69.6492 47.4084 70.989C47.3831 71.0944 47.3831 71.1997 47.4042 71.3051C47.0545 71.3851 46.7006 71.4652 46.3509 71.5494C46.3425 71.5199 46.3383 71.4904 46.3298 71.4567C45.4535 69.0171 45.3145 66.1857 46.1108 63.704C46.4225 62.7391 46.9408 61.6942 47.8045 61.1127C49.1064 60.2405 50.324 60.9779 50.8548 62.3009C51.2761 63.3458 51.432 64.534 51.6385 65.638C51.8997 67.0158 51.8828 68.4441 52.1314 69.8093C52.1356 69.9315 52.1356 70.0537 52.1399 70.1759C52.3758 70.336 52.3716 70.4076 52.1272 70.395Z" fill="#1D1D1B"/>
<path d="M70.2483 63.0721C70.0335 61.7617 69.9534 60.2533 69.1824 59.1157C67.5013 56.6255 64.4889 59.2674 63.6378 61.1002C63.0353 62.3938 62.791 63.8263 62.7193 65.2421C62.6435 66.7463 62.6814 68.4864 63.3597 69.8642C63.0227 69.9864 63.069 70.5426 63.4735 70.5089C64.5015 70.4162 65.5338 70.3741 66.566 70.4162C67.5013 70.4541 68.4409 70.6521 69.3762 70.6648C70.6191 70.6816 70.7413 69.7884 70.7876 68.7182C70.8719 66.7884 70.5601 64.964 70.2483 63.0721ZM69.5911 69.1732C69.5405 69.5861 69.7006 69.5777 69.2077 69.5946C69.0391 69.5988 68.8664 69.5946 68.6937 69.5861C68.6937 69.5777 68.6979 69.5693 68.7021 69.5609C68.9338 68.4359 69.0771 62.1662 66.7682 62.9921C65.8834 63.3081 65.3989 64.5468 65.1883 65.3769C64.8344 66.7715 65.0492 68.2294 64.9523 69.6451C64.7375 69.6662 64.5226 69.6915 64.3077 69.721C64.2572 68.5538 63.9454 67.4246 63.9243 66.2449C63.9032 65.0609 64.0212 63.8432 64.3541 62.7013C64.6406 61.7112 65.1251 60.6831 65.9382 60.0132C66.4143 59.6213 67.1643 59.2126 67.7962 59.4528C68.3566 59.6634 68.6136 60.2533 68.7821 60.7842C69.5405 63.1817 69.4436 65.7561 69.5616 68.2336C69.57 68.5286 69.629 68.8783 69.5911 69.1732Z" fill="#1D1D1B"/>
<path d="M37.225 54.8348C35.5103 54.0005 33.7829 53.141 31.988 52.4921C31.7226 52.3952 31.4235 52.6986 31.5204 52.9598C31.8869 53.9752 32.2155 54.9907 32.62 55.9893C32.9992 56.9162 33.4921 57.721 33.9767 58.589C34.0441 58.7112 34.2252 58.6269 34.1957 58.4963C34.1915 58.4794 34.1873 58.4626 34.1831 58.4457C34.4865 58.5595 34.8572 58.4963 35.1479 58.2645C35.9569 57.6241 36.652 56.8109 37.3809 56.0778C37.7222 55.7407 37.6885 55.0623 37.225 54.8348Z" fill="#1D1D1B"/>
<path d="M80.3812 51.7715C80.5413 51.5187 80.4612 51.2111 80.2801 50.9962C79.6776 50.2884 78.4262 50.9414 77.7563 51.1942C76.9938 51.485 76.0121 51.7209 75.5781 52.4499C75.5276 52.4246 75.4812 52.3993 75.4307 52.3782C75.2706 52.3066 75.102 52.4541 75.1863 52.6226C75.2621 52.7785 75.3506 52.9218 75.4433 53.065C75.4896 53.2631 75.6202 53.4442 75.793 53.5664C76.1258 54.0088 76.4966 54.4218 76.8463 54.86C77.5246 55.7069 78.1777 56.5791 78.8265 57.4512C79.3321 58.1296 80.2759 57.7209 80.1579 56.8908C80.0357 56.0355 79.9725 55.197 79.9936 54.3333C80.0146 53.6001 79.9725 52.4204 80.3812 51.7715Z" fill="#1D1D1B"/>
<path d="M62.1631 109.505C61.0255 109.505 61.0213 111.275 62.1631 111.275C63.3049 111.275 63.3049 109.505 62.1631 109.505Z" fill="#1D1D1B"/>
<path d="M62.6094 113.705C61.2822 113.705 61.2822 115.765 62.6094 115.765C63.9323 115.765 63.9365 113.705 62.6094 113.705Z" fill="#1D1D1B"/>
<path d="M62.6981 118.509C61.5057 118.509 61.5015 120.363 62.6981 120.363C63.8904 120.363 63.8946 118.509 62.6981 118.509Z" fill="#1D1D1B"/>
<path d="M63.8694 123.851C63.6756 123.67 63.4354 123.561 63.1616 123.561C62.9046 123.561 62.6349 123.67 62.4538 123.851C62.281 124.024 62.1504 124.311 62.1588 124.559C62.1715 124.816 62.2557 125.086 62.4538 125.267C62.6476 125.448 62.8877 125.562 63.1616 125.562C63.4186 125.562 63.6882 125.452 63.8694 125.267C64.0421 125.094 64.1727 124.808 64.1643 124.559C64.1517 124.298 64.0674 124.032 63.8694 123.851Z" fill="#1D1D1B"/>
<path d="M63.8485 128.132C63.6041 127.909 63.3049 127.766 62.9637 127.766C62.6435 127.766 62.3064 127.905 62.0789 128.132C61.864 128.347 61.6997 128.705 61.7124 129.017C61.725 129.341 61.8345 129.674 62.0789 129.902C62.3233 130.125 62.6266 130.268 62.9637 130.268C63.2839 130.268 63.6209 130.129 63.8485 129.902C64.0633 129.687 64.2276 129.329 64.215 129.017C64.1981 128.693 64.0928 128.356 63.8485 128.132Z" fill="#1D1D1B"/>
<path d="M62.9634 132.936C61.3161 132.936 61.3118 135.494 62.9634 135.494C64.6108 135.498 64.6108 132.936 62.9634 132.936Z" fill="#1D1D1B"/>
<path d="M63.1404 138.19C62.045 138.19 62.045 139.893 63.1404 139.893C64.2359 139.893 64.2359 138.19 63.1404 138.19Z" fill="#1D1D1B"/>
<path d="M63.2289 142.214C62.1756 142.214 62.1756 143.849 63.2289 143.849C64.2822 143.849 64.2822 142.214 63.2289 142.214Z" fill="#1D1D1B"/>
<path d="M62.5632 146.945H63.3595C63.7935 146.612 63.6629 145.728 62.9593 145.728C62.2641 145.728 62.1293 146.612 62.5632 146.945Z" fill="#1D1D1B"/>
<path d="M53.2354 123.574C52.6666 123.253 51.8367 123.38 51.2131 123.392C51.1078 123.392 50.9982 123.397 50.8929 123.401C50.9434 123.3 50.9603 123.182 50.9182 123.051C50.5053 121.8 49.8522 120.578 49.2624 119.398C48.9843 118.838 48.5461 118.079 47.7962 118.404C47.1052 118.699 46.7387 119.786 46.5027 120.43C46.1109 121.509 45.9213 122.651 45.3357 123.649C45.3146 123.687 45.302 123.721 45.2935 123.759C44.354 123.868 43.4144 123.995 42.4749 124.113C42.2558 124.142 42.239 124.484 42.4749 124.471C42.6013 124.467 42.7277 124.463 42.8541 124.458C42.8288 125.314 42.5507 126.616 42.9805 127.382L42.9847 127.387C42.9594 128.655 43.0984 129.948 43.2248 131.191C43.347 132.397 43.6125 133.69 44.3498 134.68C45.6896 136.488 48.188 136.791 50.2693 136.934C51.2047 136.998 52.3717 137.019 52.9658 136.142C53.3155 135.628 53.3239 134.908 53.3998 134.314C53.5009 133.5 53.5809 132.683 53.6441 131.866C53.7747 130.168 53.8337 128.457 53.8295 126.755C53.8211 125.895 54.1539 124.092 53.2354 123.574ZM47.6445 120.123C47.7077 119.992 47.7793 119.866 47.8594 119.743C48.0068 119.309 48.129 119.246 48.2217 119.554C48.4408 119.668 48.6894 120.544 48.7989 120.784C49.1992 121.656 49.5236 122.575 49.9702 123.422C49.4098 123.439 48.8537 123.46 48.2933 123.489C47.5813 123.527 46.8651 123.586 46.153 123.662C46.8271 122.545 47.0462 121.277 47.6445 120.123ZM52.6793 128.647C52.6119 130.298 52.456 131.946 52.2285 133.58C52.1274 134.318 52.1695 135.354 51.4069 135.7C50.9434 135.911 50.1977 135.826 49.7006 135.826C48.4071 135.83 47.0041 135.75 45.8834 135.034C44.6068 134.217 44.3161 132.78 44.0506 131.398C43.8189 130.193 43.5998 129.026 43.4776 127.829C43.9664 128.069 44.6278 128.082 45.1039 128.149C47.6234 128.495 50.1345 128.457 52.6203 127.918C52.6498 127.913 52.6751 127.901 52.7004 127.892C52.6919 128.141 52.6877 128.394 52.6793 128.647ZM52.7172 126.182C52.7172 126.413 52.7172 126.645 52.713 126.877C52.6456 126.847 52.5655 126.831 52.4728 126.843C50.6359 127.062 48.7947 127.197 46.9451 127.18C46.0856 127.172 45.2219 127.125 44.3666 127.029C43.6167 126.944 43.5661 126.734 43.347 126.047C43.3007 125.895 43.2543 125.743 43.2122 125.588C43.2248 125.575 43.2375 125.554 43.2248 125.529L43.1659 125.411C43.1321 125.276 43.0984 125.141 43.0689 125.002C43.0732 125.002 43.0774 125.002 43.0816 124.998C43.149 124.956 43.1743 124.867 43.1279 124.8C43.1027 124.762 43.0605 124.749 43.0226 124.749C43.0058 124.648 42.9889 124.547 42.9763 124.446C44.493 124.391 45.9971 124.412 47.5139 124.437C49.0559 124.467 50.6485 124.37 52.1821 124.559C52.7593 124.631 52.6161 124.538 52.6961 125.036C52.7593 125.406 52.7172 125.811 52.7172 126.182Z" fill="#1D1D1B"/>
<path d="M64.4338 101.276C64.0462 101.049 63.5701 101.133 63.2499 101.428C63.2372 101.441 63.2246 101.453 63.212 101.462C62.8538 101.79 62.8538 102.444 63.212 102.776C63.2246 102.789 63.2372 102.802 63.2499 102.81C63.5406 103.08 63.9493 103.168 64.32 103.012C64.6613 102.869 64.9394 102.507 64.9225 102.119C64.9014 101.782 64.7329 101.453 64.4338 101.276Z" fill="#1D1D1B"/>
<path d="M55.9738 101.916C54.7561 101.916 54.7561 103.804 55.9738 103.804C57.1914 103.804 57.1914 101.916 55.9738 101.916Z" fill="#1D1D1B"/>
<path d="M94.5412 109.555C93.8081 110.41 93.3573 111.434 92.5357 112.247C91.6888 113.086 90.6861 113.768 89.6075 114.27C89.3042 114.413 89.519 114.923 89.835 114.813C91.0274 114.4 92.0975 113.806 93.0286 112.947C93.8586 112.18 94.9119 111.034 95.1268 109.892C95.1816 109.584 94.7856 109.268 94.5412 109.555Z" fill="#1D1D1B"/>
<path d="M71.4661 44.4948C70.2569 44.3768 69.0098 44.5749 67.7964 44.6507C66.9706 44.7013 66.1406 44.7518 65.3148 44.8024C65.5549 44.5369 65.6982 44.183 65.6687 43.7617C65.5339 41.7561 64.923 39.6999 64.5353 37.728C64.1477 35.7561 63.9371 33.6241 63.3346 31.7069C62.6562 29.5412 60.3685 30.0511 58.5821 30.207C56.6735 30.3713 54.7733 30.6157 52.8858 30.9443C51.0025 31.273 49.1276 31.6732 47.2738 32.1451C46.4228 32.3642 45.6517 32.6381 45.1714 33.4218C44.6911 34.2055 44.7459 35.0777 44.9566 35.9415C45.7908 39.346 47.1264 42.6662 48.6853 45.8094C46.3975 45.9527 44.1097 46.117 41.8262 46.3361C40.9835 46.4161 41.1605 47.5833 41.9568 47.6043C46.8609 47.735 51.7778 47.5833 56.6819 47.4864C59.1003 47.4358 61.5187 47.3726 63.9371 47.301C65.1126 47.2673 66.288 47.2293 67.4635 47.1914C68.7401 47.1493 70.1263 47.2673 71.3776 47.0187C72.6921 46.7659 73.0081 44.6423 71.4661 44.4948ZM56.6651 45.3333C54.5795 45.4639 52.4898 45.5819 50.4 45.7041C50.1304 45.0046 49.8734 44.301 49.629 43.5889C49.6374 43.5889 49.6501 43.5889 49.6585 43.5889C50.7371 43.4583 51.7946 43.1296 52.869 42.9653C53.9475 42.7968 55.0346 42.6577 56.1173 42.5187C57.1454 42.3881 58.1776 42.2912 59.2099 42.2153C60.2295 42.1437 61.3333 42.0047 62.3529 42.1732C62.4962 42.9358 62.6605 43.69 62.8964 44.4148C62.9638 44.6254 63.0649 44.794 63.1871 44.9288C61.0131 45.0636 58.8391 45.1942 56.6651 45.3333Z" fill="#1D1D1B"/>
<path d="M67.451 79.4119C67.3709 78.5987 66.5452 77.8782 65.7151 78.1942C65.0874 78.4343 65.0453 79.1001 65.593 79.454C65.6646 79.5003 65.7784 79.4414 65.7741 79.3529C65.7362 78.8557 66.4567 79.4751 66.5241 79.5972C66.2924 80.0944 65.9932 80.2503 65.6225 80.0649C65.4834 80.0565 65.3655 80.006 65.2728 79.9133C64.8683 79.6773 64.5523 79.3697 64.0973 79.2054C63.1156 78.8473 61.957 78.8725 61.0006 79.2686C60.4571 79.4919 60.0821 79.9259 60.1664 80.5495C60.238 81.0677 60.7352 81.6281 61.3124 81.5607C62.155 81.4596 62.9429 81.4469 63.7813 81.5565C64.4554 81.6408 65.0916 81.6871 65.7615 81.5186C66.6758 81.2826 67.5479 80.4147 67.451 79.4119Z" fill="#1D1D1B"/>
<path d="M58.1647 79.9004C57.3263 80.1574 56.589 80.604 55.7716 80.8947C55.3334 81.0506 54.7478 81.2992 54.2717 81.2487C53.429 81.1602 53.8714 80.3175 54.4571 80.0352C54.5034 80.0141 54.4823 79.9341 54.4318 79.9383C53.5049 80.0394 52.5485 81.177 53.3026 82.0029C53.7872 82.5338 54.6509 82.8161 55.3376 82.8961C55.7884 82.9467 56.2266 82.9088 56.6648 82.7824C57.0608 82.6686 57.7518 82.1967 58.1647 82.2557C60.3219 82.5675 59.9511 79.3526 58.1647 79.9004Z" fill="#1D1D1B"/>
<path d="M61.7376 83.1828C60.7138 83.0985 59.4751 83.3092 58.4976 83.6125C58.2532 83.6884 58.2575 84.0297 58.4976 84.1055C59.4751 84.4131 60.7138 84.628 61.7376 84.5479C62.6139 84.4763 62.6139 83.2544 61.7376 83.1828Z" fill="#1D1D1B"/>
<path d="M119.513 85.5425C119.505 90.0088 119.21 94.4793 118.578 98.8992C117.946 103.319 117.007 107.697 115.73 111.969C115.089 114.101 114.373 116.217 113.581 118.294C112.781 120.371 111.9 122.419 110.944 124.424C109.031 128.436 106.798 132.287 104.253 135.91C101.717 139.538 98.8476 142.921 95.6919 145.993C94.1119 147.527 92.4603 148.985 90.7287 150.341C89.0055 151.702 87.2023 152.958 85.3358 154.104C81.5987 156.396 77.5919 158.233 73.4082 159.493C69.2203 160.74 64.8638 161.41 60.4905 161.456C58.3039 161.469 56.113 161.338 53.9432 161.048C51.7692 160.757 49.6205 160.302 47.5054 159.712C43.2754 158.52 39.2139 156.721 35.4262 154.454C31.6301 152.191 28.1331 149.419 24.9479 146.334C21.7712 143.233 18.9188 139.795 16.4036 136.125C14.5203 133.374 12.8265 130.488 11.3224 127.504C10.8253 126.51 10.345 125.507 9.88573 124.492C8.05298 120.434 6.52358 116.233 5.3481 111.94C2.96763 103.353 1.91013 94.4287 2.01124 85.5425C2.07865 81.0973 2.41571 76.6648 3.06455 72.2743C3.38896 70.0833 3.78922 67.9008 4.26109 65.7351C4.72876 63.5735 5.27227 61.4247 5.89582 59.3011C8.38582 50.811 12.0597 42.6621 17.0355 35.3855C19.5213 31.7535 22.3358 28.3448 25.462 25.2648C28.5839 22.1889 32.0177 19.4291 35.7464 17.1454C39.4709 14.8702 43.4608 13.0373 47.6318 11.8028C51.8029 10.5724 56.1425 9.92776 60.4905 9.91512C64.8386 9.90669 69.1782 10.5429 73.3577 11.7522C77.5414 12.9741 81.5439 14.7985 85.281 17.0696C87.1517 18.203 88.955 19.4502 90.6824 20.8069C92.414 22.151 94.074 23.5962 95.654 25.1299C98.8139 28.1931 101.683 31.5723 104.228 35.1917C106.773 38.811 109.01 42.6621 110.923 46.6734C111.879 48.6747 112.76 50.7225 113.56 52.7997C114.356 54.877 115.073 56.9879 115.709 59.1241C116.985 63.3924 117.929 67.7702 118.565 72.1859C119.202 76.6058 119.496 81.0763 119.513 85.5425ZM113.054 85.5425C113.033 77.6002 112.064 69.6536 110.034 61.9514L109.212 59.082C108.913 58.1297 108.589 57.1859 108.281 56.2379C108.133 55.7618 107.944 55.3025 107.775 54.8306L107.253 53.4317C107.164 53.1958 107.084 52.9598 106.987 52.7323L106.697 52.0413L106.115 50.6593C104.527 46.9978 102.656 43.4458 100.47 40.0835C98.2788 36.7296 95.7888 33.5484 92.9659 30.6664C90.1473 27.7886 87.0253 25.1763 83.5873 23.0232C80.1578 20.8659 76.4375 19.1426 72.5403 17.967C68.6431 16.7831 64.5689 16.1679 60.4905 16.1468C56.4079 16.1468 52.3296 16.7578 48.4281 17.9207C44.5225 19.0878 40.7896 20.8027 37.3474 22.9558C37.1241 23.078 36.9177 23.2297 36.707 23.3687L36.075 23.79L34.8153 24.6412L33.5977 25.5555L32.9909 26.0148C32.7929 26.1664 32.5865 26.3139 32.3969 26.4824L31.234 27.46C30.8464 27.7886 30.4504 28.1004 30.088 28.4543L28.9758 29.4909L28.4238 30.0049C28.2385 30.1777 28.0699 30.3673 27.8888 30.5442C25.0406 33.4136 22.4958 36.5695 20.2544 39.915C15.7758 46.6144 12.5063 54.0638 10.3871 61.7955L9.65821 64.7112L9.56552 65.0735L9.48968 65.4443L9.338 66.1775L9.03045 67.648C8.97989 67.8923 8.92933 68.1409 8.88298 68.3853L8.7608 69.1269L8.51643 70.6058C8.33527 71.5918 8.22572 72.5861 8.10354 73.5805C7.61902 77.5496 7.39993 81.5482 7.43364 85.5425C7.49684 89.5369 7.81704 93.5186 8.38161 97.4666C8.52907 98.4526 8.65547 99.4427 8.8577 100.42L9.13156 101.891L9.2706 102.624L9.43491 103.353L9.75932 104.811L9.92364 105.54L10.0079 105.906L10.1006 106.264L10.8758 109.155C12.2578 113.937 14.0652 118.601 16.3067 123.047C17.6507 125.714 19.1548 128.305 20.819 130.791C23.0309 134.107 25.5378 137.233 28.3438 140.082C28.5165 140.263 28.685 140.448 28.8662 140.621L29.4097 141.135L30.5009 142.167C30.8549 142.521 31.2467 142.833 31.6259 143.162L32.7676 144.139C32.953 144.303 33.1553 144.451 33.3533 144.607L33.9516 145.062L35.1397 145.98L36.3826 146.832L37.0019 147.261C37.2084 147.4 37.4106 147.548 37.6297 147.674C41.0129 149.832 44.6826 151.576 48.5377 152.781C52.3928 153.982 56.4332 154.639 60.4905 154.681C64.5436 154.698 68.6052 154.133 72.4982 152.975C76.3912 151.829 80.1072 150.122 83.541 147.986C86.979 145.85 90.1094 143.254 92.9322 140.385C95.7551 137.511 98.2493 134.334 100.444 130.985C102.631 127.627 104.51 124.075 106.099 120.413L106.68 119.035L106.966 118.344C107.063 118.117 107.143 117.881 107.236 117.645L107.759 116.246C107.927 115.778 108.117 115.315 108.264 114.839C108.572 113.891 108.896 112.951 109.191 111.999L110.017 109.129C112.048 101.427 113.021 93.4849 113.054 85.5425Z" fill="#47AD4B"/>
<path d="M31.7186 132.468C31.845 132.358 31.9756 132.253 32.1062 132.148C32.3253 131.975 32.6075 132.24 32.4179 132.464C32.2578 132.649 32.0767 132.818 31.8829 132.969C32.1104 133.732 32.2452 134.566 32.2873 135.421C32.3295 135.413 32.3716 135.405 32.4137 135.4C32.7971 135.341 32.9657 135.881 32.578 135.99C32.4854 136.016 32.3927 136.041 32.3 136.062C32.2915 136.774 32.2199 137.494 32.0809 138.19C32.2368 138.236 32.3969 138.287 32.5486 138.337C32.8056 138.43 32.7044 138.826 32.439 138.75C32.2873 138.708 32.1357 138.657 31.9882 138.611C31.8955 138.978 31.7902 139.336 31.6596 139.681C31.668 139.685 31.6722 139.685 31.6806 139.69C31.8786 139.757 31.8618 140.086 31.6301 140.073C31.5879 140.069 31.5458 140.065 31.5037 140.06C31.3267 140.469 31.1245 140.861 30.8843 141.215L31.1413 141.447C31.4995 141.788 31.8913 142.083 32.2705 142.395L33.4123 143.326C33.6019 143.486 33.8041 143.625 34.0021 143.768L34.5962 144.202L35.7843 145.07L37.023 145.867L37.6381 146.267C37.8446 146.398 38.0468 146.537 38.2617 146.655C39.4203 147.346 40.6042 147.982 41.8134 148.567C41.5395 146.528 42.1041 144.531 42.6855 142.589C42.7235 142.462 42.913 142.517 42.8836 142.643C42.4496 144.615 42.1041 146.524 42.4707 148.538C42.4959 148.664 42.4538 148.765 42.378 148.837C44.5141 149.836 46.7218 150.666 48.9801 151.302L49.6794 151.5C49.9154 151.567 50.1471 151.639 50.3873 151.685L50.4126 151.69C50.1092 149.069 50.6527 146.199 51.3352 143.726C51.4027 143.469 51.7776 143.579 51.7271 143.832C51.4448 145.281 51.2973 146.764 51.2636 148.239C51.2341 149.482 51.4111 150.695 51.4785 151.926L51.8113 151.997L52.5234 152.153C52.7593 152.208 53.0037 152.233 53.2438 152.275L54.6847 152.494C54.9249 152.528 55.1608 152.579 55.4052 152.596L56.1299 152.654L57.5792 152.781C57.8236 152.81 58.0637 152.81 58.3081 152.815L59.0328 152.831L59.8544 152.853C59.7869 150.341 59.6985 147.801 59.7617 145.298C59.7827 144.388 61.152 144.388 61.1731 145.298C61.2321 147.805 61.1478 150.346 61.0762 152.857C64.7585 152.768 68.4198 152.162 71.942 151.108C72.3128 150.994 72.6878 150.876 73.0585 150.754C73.067 149.389 73.1007 148.07 72.8689 146.68C72.8352 146.478 73.1302 146.389 73.1807 146.596C73.463 147.839 73.7158 149.204 73.7242 150.527C75.5991 149.874 77.4318 149.09 79.2098 148.188C79.2056 148.184 79.2056 148.18 79.2014 148.171C78.9486 147.303 79.0034 146.288 78.9402 145.386C78.9065 144.86 79.7112 144.872 79.7575 145.386C79.8292 146.162 80.0019 147.008 79.9598 147.801C80.8277 147.341 81.683 146.857 82.5214 146.343C82.7363 146.225 82.9343 146.086 83.1365 145.951L83.7474 145.551L84.965 144.75L86.1405 143.882L86.7262 143.448C86.9242 143.305 87.1222 143.166 87.3076 143.006L88.4409 142.079C88.8117 141.767 89.2035 141.472 89.5575 141.135L90.6403 140.153L91.1837 139.66C91.3649 139.496 91.5292 139.319 91.7062 139.15C91.9843 138.876 92.2581 138.603 92.532 138.325C92.2665 137.76 92.0517 137.162 91.8873 136.546C91.8031 136.572 91.723 136.593 91.643 136.618C91.4239 136.681 91.2807 136.348 91.4871 136.243C91.584 136.197 91.6767 136.142 91.7694 136.087C91.6177 135.43 91.525 134.752 91.4702 134.073C91.2975 134.065 91.1248 134.052 90.9562 134.039C90.7582 134.027 90.7582 133.749 90.9562 133.736C91.1206 133.723 91.2849 133.698 91.445 133.669C91.4028 132.826 91.4323 131.979 91.525 131.166C91.4155 131.132 91.3059 131.094 91.2006 131.06C90.8677 130.959 91.011 130.5 91.3396 130.555C91.4281 130.568 91.5166 130.576 91.6051 130.58C91.6346 130.395 91.6641 130.214 91.6978 130.032C91.8284 129.375 92.039 128.76 92.3213 128.191L92.2033 128.12C92.0306 128.014 92.1486 127.694 92.3508 127.778C92.4014 127.799 92.4519 127.82 92.5067 127.841C92.8775 127.193 93.3493 126.62 93.9181 126.148C93.8212 126.004 93.7243 125.857 93.6358 125.705C93.4336 125.372 93.9223 124.98 94.1835 125.284C94.3015 125.423 94.4279 125.554 94.5543 125.684C95.0473 125.372 95.5992 125.124 96.2017 124.951C96.4208 124.888 96.5345 125.195 96.3534 125.309C95.911 125.587 95.4602 125.853 95.0304 126.148C95.1062 126.215 95.1737 126.287 95.2495 126.35C95.7214 126.754 94.9672 127.496 94.5754 127.024C94.4869 126.914 94.3984 126.805 94.3142 126.695C94.0782 126.902 93.8591 127.125 93.6653 127.382C93.4884 127.618 93.3409 127.871 93.2187 128.128L93.4799 128.233C93.8802 128.398 93.6021 128.975 93.2566 128.764C93.1766 128.714 93.0965 128.667 93.0165 128.617C92.8016 129.228 92.6836 129.872 92.5952 130.517C92.7848 130.5 92.9702 130.483 93.164 130.492C93.6738 130.504 93.8212 131.318 93.2861 131.41C93.0249 131.457 92.7637 131.448 92.4983 131.41C92.4519 132.089 92.4604 132.75 92.5109 133.403C92.6752 133.361 92.8395 133.319 93.0039 133.281C93.3788 133.201 93.4968 133.698 93.1597 133.841C92.9744 133.917 92.7763 133.972 92.5741 134.01C92.6331 134.486 92.7131 134.966 92.8143 135.438C93.0291 135.312 93.244 135.194 93.4757 135.097C93.758 134.975 93.9392 135.388 93.758 135.577C93.5347 135.813 93.2651 135.99 92.9744 136.138C93.0839 136.584 93.2061 137.035 93.3367 137.49C95.4981 135.219 97.4909 132.784 99.2942 130.205C101.548 126.995 103.533 123.577 105.231 120.021L105.85 118.677L106.162 118.007C106.267 117.784 106.355 117.552 106.452 117.329L107.017 115.959C107.202 115.504 107.409 115.054 107.569 114.586C107.906 113.659 108.256 112.732 108.576 111.801L109.477 108.978C111.732 101.394 112.814 93.4638 112.835 85.5425H113.054C113.021 93.4849 112.048 101.427 110.017 109.129L109.191 111.999C108.896 112.951 108.572 113.891 108.264 114.839C108.117 115.315 107.927 115.778 107.759 116.246L107.236 117.645C107.143 117.881 107.063 118.117 106.966 118.344L106.68 119.035L106.099 120.413C104.51 124.075 102.631 127.627 100.444 130.985C98.2493 134.334 95.7551 137.511 92.9322 140.385C90.1094 143.254 86.979 145.85 83.541 147.986C80.1072 150.122 76.3912 151.829 72.4982 152.975C68.6052 154.133 64.5436 154.698 60.4905 154.681C56.4332 154.639 52.3928 153.982 48.5377 152.781C44.6826 151.576 41.0129 149.831 37.6297 147.674C37.4106 147.548 37.2084 147.4 37.0019 147.261L36.3826 146.831L35.1397 145.98L33.9516 145.062L33.3533 144.607C33.1553 144.451 32.953 144.303 32.7676 144.139L31.6259 143.162C31.2467 142.833 30.8548 142.521 30.5009 142.167L29.4097 141.135L28.8662 140.621C28.685 140.448 28.5165 140.263 28.3438 140.082C25.5378 137.233 23.0309 134.107 20.819 130.791C19.1548 128.305 17.6507 125.714 16.3066 123.047L16.8923 122.752C18.2279 125.398 19.732 127.951 21.4004 130.399C23.6292 133.652 26.1571 136.698 28.9758 139.45C29.1485 139.622 29.317 139.799 29.4982 139.968L30.0459 140.461L30.0754 140.486C30.1934 140.191 30.3113 139.905 30.4251 139.614C30.3071 139.538 30.1976 139.45 30.0923 139.361C29.9448 139.239 30.1386 138.99 30.2987 139.096C30.383 139.155 30.4714 139.201 30.5641 139.251C30.6905 138.91 30.8043 138.573 30.9054 138.223C30.64 138.122 30.3703 138.021 30.1049 137.924C29.949 137.869 30.0122 137.638 30.1723 137.68C30.4462 137.751 30.72 137.823 30.9939 137.895C31.0781 137.566 31.1456 137.233 31.1835 136.884C31.213 136.652 31.2298 136.42 31.2425 136.188C30.8338 136.201 30.4209 136.176 30.0248 136.117C29.9195 136.1 29.9321 135.94 30.0248 135.919C30.4335 135.818 30.8464 135.712 31.2593 135.619C31.2635 134.912 31.1877 134.2 31.0234 133.513C30.8169 133.618 30.6021 133.715 30.3872 133.799C30.2861 133.841 30.2524 133.698 30.3198 133.643C30.5262 133.487 30.7285 133.319 30.9265 133.15C30.7622 132.594 30.5346 132.063 30.2313 131.575C30.1681 131.621 30.1007 131.663 30.0333 131.705C30.0038 131.735 29.9743 131.768 29.9406 131.798C29.9195 131.823 29.8858 131.819 29.8647 131.802C29.8184 131.827 29.7763 131.853 29.7299 131.878C29.6077 131.941 29.4645 131.777 29.5782 131.676C29.7257 131.537 29.8647 131.389 29.9953 131.237C29.7594 130.917 29.4898 130.622 29.178 130.361C29.0221 130.538 28.862 130.707 28.6977 130.871C28.5039 131.065 28.2047 130.766 28.3985 130.572C28.5502 130.42 28.6935 130.26 28.8283 130.1C28.3438 129.788 27.8045 129.607 27.2652 129.434C27.1304 129.716 26.9955 130.003 26.8692 130.285C26.8354 130.357 26.7259 130.302 26.7427 130.23C26.8228 129.936 26.8944 129.636 26.9703 129.337C26.452 129.169 25.938 128.979 25.4872 128.663C25.4493 128.638 25.4451 128.562 25.4999 128.553C26.0813 128.457 26.6501 128.461 27.1978 128.553C27.2989 128.246 27.4127 127.943 27.5643 127.652C27.6486 127.483 27.893 127.605 27.8593 127.778C27.7961 128.069 27.7034 128.355 27.598 128.638C28.2258 128.798 28.8157 129.068 29.3465 129.43C29.5614 129.127 29.7636 128.819 29.9616 128.499C30.0965 128.28 30.404 128.469 30.2987 128.697C30.1344 129.046 29.9321 129.379 29.7088 129.695C30.0248 129.944 30.3113 130.226 30.5768 130.534C30.6568 130.433 30.7369 130.336 30.8169 130.239C31.0023 130.024 31.2804 130.298 31.1793 130.517C31.1034 130.673 31.0149 130.82 30.9096 130.955C31.2425 131.414 31.5163 131.924 31.7143 132.459C31.7143 132.459 31.7186 132.464 31.7186 132.468Z" fill="#1D1D1B"/>
<path d="M8.85761 100.421C8.65537 99.4434 8.52898 98.4532 8.38151 97.4673C7.81694 93.5193 7.49674 89.5375 7.43354 85.5432C7.39984 81.5488 7.61892 77.5502 8.10344 73.5812C8.22562 72.5868 8.33517 71.5924 8.51634 70.6065L8.7607 69.1275L8.88289 68.386C8.92923 68.1416 8.97979 67.893 9.03035 67.6486L9.33791 66.1781L9.48959 65.445L9.56542 65.0742L9.65812 64.7118L10.387 61.7961C12.5062 54.0644 15.7757 46.615 20.2543 39.9156C22.4958 36.5701 25.0405 33.4142 27.8887 30.5449C28.0698 30.3679 28.2384 30.1783 28.4237 30.0055L28.9757 29.4915L30.088 28.455C30.4503 28.101 30.8463 27.7893 31.2339 27.4606L32.3968 26.4831C32.5864 26.3145 32.7928 26.1671 32.9909 26.0154L33.5976 25.5561L34.8152 24.6418L36.0749 23.7907L36.7069 23.3693C36.9176 23.2303 37.124 23.0786 37.3473 22.9564C40.7895 20.8033 44.5224 19.0885 48.428 17.9213C52.3295 16.7584 56.4079 16.1475 60.4905 16.1475C64.5688 16.1685 68.643 16.7837 72.5402 17.9677C76.4374 19.1432 80.1577 20.8665 83.5873 23.0238C87.0253 25.1769 90.1472 27.7893 92.9659 30.667C95.7887 33.5491 98.2787 36.7302 100.47 40.0841C102.656 43.4465 104.527 46.9984 106.115 50.6599L106.697 52.0419L106.987 52.7329C107.084 52.9605 107.164 53.1964 107.253 53.4324L107.775 54.8312C107.944 55.3032 108.133 55.7624 108.281 56.2385C108.588 57.1866 108.913 58.1304 109.212 59.0826L110.034 61.952C112.064 69.6542 113.033 77.6008 113.054 85.5432H112.835C112.802 77.6219 111.715 69.6963 109.461 62.1121L108.559 59.2891C108.235 58.3579 107.889 57.4352 107.552 56.504C107.388 56.0405 107.185 55.5897 107 55.1304L106.431 53.7652C106.334 53.5377 106.246 53.3102 106.145 53.0869L105.833 52.4127L105.209 51.0728C103.512 47.5167 101.527 44.108 99.2688 40.8973C97.0148 37.6867 94.47 34.6909 91.6724 31.969C91.4954 31.8005 91.3311 31.6235 91.15 31.4592L90.6065 30.9704L89.5195 29.9929C89.1655 29.6558 88.7737 29.3651 88.3988 29.0533L87.2654 28.1348C87.08 27.9746 86.8778 27.8356 86.684 27.6923L86.0941 27.2626L84.9186 26.3988L83.701 25.6067L83.0901 25.2064C82.8879 25.0758 82.6899 24.9325 82.475 24.8188C79.1592 22.8089 75.6032 21.2036 71.8998 20.1208C68.1922 19.0421 64.3455 18.4691 60.4905 18.4733C56.6354 18.4901 52.7887 19.0674 49.0937 20.1629C45.3945 21.2584 41.8512 22.8721 38.5439 24.8904C38.3332 25.0042 38.1352 25.1474 37.933 25.278L37.3263 25.6783L36.1128 26.4789L34.9458 27.3468L34.3602 27.7808C34.1663 27.9241 33.9683 28.0673 33.7829 28.2232L32.6622 29.1544C32.2915 29.4662 31.9038 29.7612 31.5542 30.0982L30.4798 31.0842L29.9447 31.5772C29.7635 31.7415 29.5992 31.9227 29.4265 32.0912C26.6584 34.8257 24.1642 37.8468 21.9607 41.0701C17.5495 47.5209 14.2842 54.7428 12.0723 62.2722L11.3013 65.1121L11.2044 65.466L11.1243 65.8242L10.96 66.5447L10.6314 67.9815L10.4671 68.6978L10.328 69.4225L10.0542 70.8677C9.85192 71.8326 9.72131 72.8059 9.57385 73.7792C9.00085 77.6682 8.69329 81.6036 8.63009 85.5432C8.59639 89.4828 8.80284 93.4308 9.29579 97.3451C9.42218 98.3226 9.53172 99.3043 9.71289 100.273L9.95725 101.736L10.0794 102.464C10.1258 102.709 10.1763 102.949 10.2269 103.189L10.5345 104.639L10.6904 105.363L10.7662 105.726L10.8547 106.084L11.5878 108.953C12.6326 112.762 13.9935 116.483 15.6156 120.081C16.0243 120.983 16.4498 121.872 16.8922 122.752L16.3066 123.047C14.0651 118.602 12.2577 113.938 10.8757 109.155L10.1005 106.265L10.0078 105.907L9.92355 105.54L9.75923 104.811L9.43482 103.353L9.27051 102.625L9.13146 101.891L8.85761 100.421Z" fill="#1D1D1B"/>
<path d="M4.54342 112.167C3.92408 110.005 3.38056 107.823 2.9129 105.628C2.44102 103.428 2.04077 101.216 1.71635 98.9915C1.07594 94.5379 0.72625 90.0463 0.667265 85.5421C0.570361 76.5422 1.61945 67.4917 3.9957 58.7656C6.37616 50.0437 10.0627 41.6379 15.1144 34.0831C17.6423 30.3121 20.5073 26.7517 23.7262 23.5242C26.945 20.2967 30.5052 17.3894 34.394 14.9667C38.2743 12.5355 42.4749 10.5931 46.8819 9.27429C51.2889 7.96812 55.8898 7.28975 60.4906 7.29396C65.0872 7.31082 69.6838 7.9934 74.0824 9.32485C78.4768 10.6521 82.6689 12.6071 86.5367 15.0425C88.4705 16.2602 90.3201 17.6043 92.0854 19.0453C93.8466 20.4905 95.5234 22.0369 97.116 23.659C100.301 26.9034 103.107 30.4933 105.58 34.277C108.045 38.0691 110.156 42.0761 111.947 46.2053C112.84 48.2741 113.653 50.3724 114.382 52.5002C115.119 54.6238 115.776 56.7726 116.354 58.9426C117.499 63.2824 118.355 67.6939 118.924 72.1391C119.21 74.3596 119.417 76.5928 119.551 78.8301C119.69 81.0632 119.762 83.3048 119.762 85.5421H119.513C119.497 81.0759 119.202 76.6054 118.565 72.1855C117.929 67.7698 116.985 63.392 115.709 59.1237C115.073 56.9875 114.356 54.8766 113.56 52.7993C112.76 50.7221 111.879 48.6744 110.923 46.673C109.01 42.6618 106.773 38.8106 104.228 35.1913C101.683 31.5719 98.8139 28.1927 95.654 25.1295C94.0741 23.5958 92.4141 22.1506 90.6824 20.8065C88.955 19.4498 87.1518 18.2026 85.2811 17.0692C81.544 14.7981 77.5414 12.9737 73.3577 11.7518C69.1782 10.5425 64.8386 9.90631 60.4906 9.91474C56.1426 9.92738 51.803 10.572 47.6319 11.8024C43.4608 13.0369 39.4709 14.8698 35.7464 17.145C32.0177 19.4287 28.584 22.1885 25.462 25.2644C22.3358 28.3444 19.5214 31.7531 17.0356 35.3851C12.0598 42.6618 8.38586 50.8106 5.89586 59.3007C5.2723 61.4243 4.7288 63.5732 4.26113 65.7347C3.78925 67.9004 3.389 70.083 3.06458 72.274C2.41575 76.6644 2.07869 81.0969 2.01128 85.5421C1.91016 94.4283 2.96767 103.352 5.34813 111.939C6.52362 116.233 8.05302 120.434 9.88576 124.491C10.345 125.507 10.8253 126.51 11.3225 127.504L10.661 127.837C8.13728 122.823 6.10231 117.56 4.54342 112.167Z" fill="#1D1D1B"/>
<path d="M74.5455 9.07665C71.9165 7.45025 69.2832 5.84071 66.6163 4.2733C65.2849 3.4896 63.9577 2.70168 62.6306 1.91376C61.5309 1.26068 60.3217 0.363211 58.9819 0.396918C57.8739 0.422199 56.8585 1.43343 56.0243 2.06966C54.9625 2.88286 53.9261 3.72134 52.9149 4.59774C50.7283 6.4938 48.6006 8.51626 46.7805 10.7705C46.7004 10.8716 46.8268 11.0064 46.9237 10.9137C48.8113 9.10614 50.6735 7.28593 52.6874 5.62161C53.7154 4.7747 54.773 3.95729 55.8515 3.1778C56.8964 2.42359 58.0677 1.27753 59.458 1.66938C60.6799 2.01489 61.8427 3.06825 62.8876 3.76347C64.0673 4.55139 65.247 5.33931 66.4225 6.13144C68.7777 7.7157 71.1581 9.2494 73.547 10.7789C74.6214 11.4699 75.6283 9.74659 74.5455 9.07665Z" fill="#1D1E1B"/>
<path d="M59.4503 3.04768C59.1343 2.73167 58.6708 2.61369 58.2411 2.72746C58.2284 2.73167 58.2158 2.73167 58.2032 2.73588C58.1062 2.77802 58.0051 2.82015 57.9082 2.86229C57.765 2.93813 57.647 3.04768 57.5627 3.1783C57.4026 3.38476 57.2847 3.65442 57.2973 3.92408C57.3057 4.14318 57.3647 4.35385 57.4658 4.54767C57.6049 4.81312 57.9167 5.04065 58.2032 5.11649C58.2158 5.1207 58.2284 5.1207 58.2411 5.12492C58.6582 5.23447 59.1511 5.12913 59.4503 4.80469C59.6736 4.56031 59.8126 4.26116 59.8126 3.92408C59.8168 3.61228 59.6778 3.27521 59.4503 3.04768Z" fill="#1D1E1B"/>
<path d="M96.1302 59.4487C95.0769 60.5147 94.0237 61.5807 92.9704 62.6467C92.6164 63.0048 93.1642 63.5568 93.5223 63.1986C94.5882 62.1453 95.6542 61.0919 96.7201 60.0385C97.0993 59.6593 96.5052 59.0652 96.1302 59.4487Z" fill="#1D1D1B"/>
<path d="M26.245 95.2929C23.6244 97.9727 21.0038 100.652 18.3874 103.332C18.2189 103.505 18.4801 103.766 18.6528 103.598L26.6916 95.7395C26.9824 95.4572 26.5315 95.0064 26.245 95.2929Z" fill="#1D1D1B"/>
<path d="M22.1631 71.3387C19.9048 73.5887 17.676 75.8597 15.4599 78.1518C15.1102 78.5142 15.6495 79.0577 16.0118 78.7038C18.3038 76.4875 20.5747 74.2586 22.8246 72.0002C23.2543 71.5704 22.5928 70.9089 22.1631 71.3387Z" fill="#1D1D1B"/>
<path d="M73.8427 32.3901L70.2699 35.9716C69.8612 36.3845 70.4974 37.0207 70.906 36.6078C72.0984 35.4154 73.2949 34.2272 74.4873 33.0348C74.9128 32.6219 74.2598 31.9688 73.8427 32.3901Z" fill="#1D1D1B"/>
<path d="M36.6097 31.3278C33.9849 33.7295 31.5117 36.3039 28.9922 38.8152C28.6594 39.148 29.1776 39.6663 29.5105 39.3334C32.0215 36.8138 34.5958 34.3405 36.9973 31.7155C37.2333 31.4542 36.8709 31.0919 36.6097 31.3278Z" fill="#1D1D1B"/>
<path d="M15.7457 136.572C13.8709 133.766 12.1772 130.846 10.6604 127.837L11.3219 127.504C12.826 130.487 14.5197 133.374 16.403 136.125C18.9183 139.795 21.7706 143.233 24.9474 146.334C28.1326 149.419 31.6295 152.191 35.4256 154.454C39.2133 156.72 43.2748 158.52 47.5049 159.712C49.6199 160.302 51.7687 160.757 53.9427 161.048C56.1125 161.338 58.3033 161.469 60.49 161.456C64.8633 161.41 69.2198 160.74 73.4077 159.493C77.5914 158.233 81.5982 156.396 85.3353 154.104C87.2017 152.958 89.005 151.702 90.7282 150.341C92.4598 148.985 94.1114 147.527 95.6913 145.993C98.847 142.921 101.716 139.538 104.253 135.91C106.797 132.287 109.03 128.436 110.943 124.424C111.9 122.419 112.78 120.371 113.581 118.294C114.373 116.216 115.089 114.101 115.729 111.969C117.006 107.697 117.946 103.319 118.577 98.8992C119.209 94.4792 119.504 90.0087 119.513 85.5425H119.761C119.757 87.7798 119.686 90.0214 119.542 92.2545C119.403 94.4919 119.197 96.7208 118.91 98.9455C118.337 103.386 117.478 107.798 116.336 112.138C115.759 114.308 115.097 116.457 114.36 118.58C113.631 120.704 112.818 122.802 111.925 124.867C110.134 129 108.019 132.999 105.55 136.787C103.144 140.461 100.414 143.945 97.3387 147.11C97.3303 147.139 97.3176 147.164 97.3008 147.194C97.305 147.194 97.305 147.198 97.3092 147.198C97.2586 147.27 97.2081 147.333 97.1575 147.4C97.0101 147.632 96.9342 147.923 96.6562 148.032C96.5887 148.058 96.5256 148.07 96.4624 148.07C96.4034 148.117 96.3402 148.159 96.2728 148.201C96.2601 148.209 96.2517 148.214 96.2391 148.222C93.2772 151.125 90.0204 153.746 86.4813 155.954C82.6136 158.368 78.4256 160.306 74.0312 161.6C69.6411 162.889 65.0613 163.542 60.49 163.504C55.9145 163.458 51.36 162.729 47.0077 161.381C42.6597 160.02 38.5265 158.044 34.7094 155.604C30.8922 153.164 27.3953 150.265 24.2354 147.046C21.0712 143.836 18.2442 140.309 15.7457 136.572Z" fill="#1D1D1B"/>
</svg>
