<svg width="89" height="161" viewBox="0 0 89 161" fill="none" xmlns="http://www.w3.org/2000/svg">
<path d="M56.4904 155.684C56.4904 156.857 56.6207 157.509 56.4904 158.291C56.36 159.464 55.7083 160.246 54.4049 160.115C51.6677 159.855 48.9304 159.724 46.3236 159.333C45.6718 159.203 44.7594 158.291 44.6291 157.769C43.1953 147.863 41.7615 137.957 40.4581 128.051C40.3277 126.617 39.8063 125.965 38.3726 125.835C33.9409 125.835 29.6395 125.705 25.2078 125.574C23.5133 125.574 22.6009 126.096 21.9492 127.79C18.4299 137.045 14.65 146.299 11.0003 155.553C8.65413 161.549 8.2631 161.68 2.52797 158.682C-0.469944 157.117 -0.3396 157.117 0.572808 153.989C2.26728 148.384 3.70106 142.78 5.65622 137.175C7.35069 132.091 9.4362 127.008 11.5217 122.055C14.1286 115.668 16.9962 109.412 19.603 103.025C20.3851 101.07 21.4278 100.288 23.6437 100.157C30.1609 99.6358 36.6781 99.7661 43.1953 101.07C45.8022 101.591 47.4966 102.634 47.8877 105.762C48.6697 112.67 49.7125 119.709 51.0159 126.617C52.7104 135.611 54.5352 144.474 56.36 153.468C56.4904 154.12 56.4904 155.162 56.4904 155.684ZM32.7678 101.591C28.8575 101.852 26.1202 101.982 23.5134 102.373C22.7313 102.503 21.9492 103.416 21.4278 104.198C21.0368 104.589 20.9065 105.371 20.7761 105.892C17.1265 114.625 13.0858 123.228 9.69689 132.091C6.82932 139.13 4.87416 146.56 2.65831 153.989C2.00659 155.944 2.65831 156.596 5.52588 157.769C7.22035 158.421 7.74172 157.378 8.2631 156.205C9.4362 153.468 10.7396 150.731 11.7824 147.993C14.9106 140.173 17.9086 132.352 21.0368 124.531C21.2975 123.88 22.3403 122.967 23.1223 122.967C28.7271 123.098 34.2016 123.489 39.8064 123.619C41.8919 123.749 42.4132 124.531 42.6739 126.487C43.5863 135.089 44.6291 143.692 45.6718 152.164C46.3236 157.509 46.4539 156.726 51.6677 157.509C54.0138 157.9 54.2745 157.509 54.2745 155.162C54.2745 154.771 54.2745 154.38 54.2745 153.859C52.7104 145.647 51.2766 137.305 49.8428 129.094C49.5821 127.529 49.0608 126.096 48.8001 124.662C47.8877 118.405 46.9753 112.149 46.0629 105.892C45.8022 104.328 45.0201 103.546 43.5863 103.285C39.5457 102.634 35.6353 102.112 32.7678 101.591Z" fill="white"/>
<path d="M76.0412 119.317C74.9984 121.664 73.9557 124.01 72.9129 126.356C70.8274 131.439 70.6971 131.309 65.8743 128.702C63.7888 127.659 63.3978 126.486 64.1799 124.401C66.2654 119.187 68.3509 114.104 70.4364 108.89C70.9578 107.456 71.0881 105.762 71.7398 104.328C72.1309 103.415 73.1736 101.982 73.8253 101.982C77.866 102.112 81.9066 102.503 85.9473 103.024C86.4687 103.155 87.1204 104.719 87.1204 105.501C87.3811 113.843 87.5114 122.055 87.7721 130.397C88.0328 136.653 88.5542 142.91 88.9452 149.166C89.0756 150.209 88.9452 151.252 88.8149 152.294C88.5542 155.423 88.0328 155.814 85.0349 155.292C82.1673 154.771 79.2998 154.38 76.4322 154.119C75.1288 153.989 74.8681 153.337 74.8681 152.164C75.1288 146.299 75.3895 140.303 75.6501 134.437C75.9108 129.875 76.3019 125.444 76.5625 120.882C76.5625 120.36 76.4322 119.839 76.4322 119.317C76.4322 119.448 76.1715 119.448 76.0412 119.317ZM87.2507 147.602C86.9901 143.431 86.599 139.651 86.4687 135.741C86.0777 126.226 85.6866 116.711 85.2956 107.065C85.2956 106.544 85.2956 106.022 85.0349 105.631C84.1225 103.676 75.7805 103.155 74.8681 105.11C72.0005 111.236 69.2633 117.362 66.5261 123.488C66.3957 123.879 66.2654 124.401 66.2654 124.922C66.0047 126.617 67.3081 127.399 68.4812 127.659C69.0026 127.79 70.1757 126.877 70.4364 126.226C72.5219 122.315 74.477 118.275 76.5625 114.364C76.9536 113.582 77.866 113.191 78.5177 112.67C78.7784 113.452 79.1694 114.234 79.1694 115.146C78.5177 126.747 77.866 138.217 77.0839 149.818C76.9536 151.121 77.3446 151.773 78.648 152.034C80.7336 152.425 82.6887 152.816 84.7742 153.337C86.0777 153.598 86.7294 153.337 86.8597 151.903C86.8597 150.339 87.1204 148.775 87.2507 147.602Z" fill="white"/>
<path d="M32.1167 107.717C34.3325 108.368 36.6787 108.629 38.7642 109.541C41.1104 110.454 42.1532 116.58 40.3284 118.144C39.5463 118.796 38.2429 119.187 37.0698 119.057C33.8112 118.926 30.5526 118.405 27.294 118.144C25.8602 118.014 25.2085 117.101 25.5995 115.928C26.3816 113.582 27.1636 111.106 28.3367 109.02C28.8581 108.238 30.6829 108.108 32.1167 107.717ZM36.9394 116.971C37.3304 116.841 38.7642 116.319 38.7642 116.059C38.5035 114.364 38.5035 112.148 37.3305 111.106C34.5932 108.629 29.2491 110.324 28.076 113.712C27.5547 115.016 27.8153 115.928 29.3795 116.059C31.7257 116.45 34.0718 116.71 36.9394 116.971Z" fill="white"/>
<path d="M71.9645 39.5158C70.5206 34.4278 66.4516 29.8616 60.5448 31.1662C56.2132 32.2099 53.8505 35.341 52.4067 39.1245C49.6502 35.7324 45.8436 33.3841 41.1182 35.341C32.8488 38.8635 34.5552 48.7787 36.5241 55.5628C38.7555 62.6079 40.987 71.3489 47.6813 75.3933C50.569 77.0893 54.3756 77.8721 57.5258 76.437C58.4447 76.0456 59.3635 75.3933 60.0198 74.741C61.2011 76.3065 63.4326 76.0456 64.6139 74.48C71.9645 64.9562 75.3773 51.2576 71.9645 39.5158ZM64.0889 64.1734C64.2201 64.1734 64.3514 64.1734 64.3514 64.043C64.2201 64.3039 64.0889 64.5648 63.9576 64.8257C64.0889 64.6953 64.0889 64.4343 64.0889 64.1734ZM61.7262 36.5152C61.4637 36.9066 61.2011 37.4284 61.0699 37.9503C60.5448 37.8198 60.0198 37.8198 59.4947 37.8198C60.0198 37.1675 60.8074 36.6457 61.7262 36.5152ZM45.5811 40.2986C45.5811 40.4291 45.4498 40.5596 45.4498 40.69C45.3186 41.2119 45.1873 41.7337 45.0561 42.386C44.2685 41.3423 43.0872 41.0814 41.9058 41.3423C41.9058 41.3423 41.9058 41.3423 41.7745 41.3423C42.2996 40.8205 42.9559 40.4291 43.7435 40.2986C44.3998 40.0377 44.9248 40.0377 45.5811 40.2986ZM52.2754 71.4794C50.8315 71.088 49.6502 70.1747 48.7314 69.2615C48.8626 68.7396 48.9939 68.2178 49.1251 67.6959C49.3877 67.5655 49.5189 67.435 49.7815 67.3045C49.9127 69.0006 51.2253 69.7833 52.5379 69.7833C53.3255 71.2184 55.2944 71.6098 56.607 70.8271C56.082 71.8708 53.1942 71.7403 52.2754 71.4794ZM66.5828 57.7807C66.8453 55.1715 67.1079 52.5622 67.3704 49.9529C67.3704 49.5615 67.5017 49.1701 67.5017 48.6483C67.5017 47.8655 67.3704 47.3437 66.9766 46.9523C67.1079 46.1695 67.2391 45.5172 67.3704 44.7344C67.3704 45.3867 67.5017 45.9086 67.5017 46.2999C67.8954 50.2138 67.5017 53.9973 66.5828 57.7807Z" fill="white"/>
<path d="M29.6755 42.5213C29.5431 46.1842 30.8674 49.9778 32.7215 53.6407C34.1783 56.5187 35.5026 59.5275 37.0919 62.2746C39.4757 66.3299 41.992 70.3853 45.4353 73.6557C46.892 75.0947 48.6137 76.272 50.2029 77.5802C50.4678 77.8418 50.8651 77.9726 51.2624 77.9726C53.3814 77.9726 55.5003 78.2343 57.6193 77.8418C58.8112 77.5802 60.0031 76.5336 61.0626 75.6179C62.2545 74.5714 63.5789 73.5249 64.5059 72.2167C65.3005 71.0393 66.4924 70.1236 66.8897 68.5538C67.287 66.8532 68.4789 65.4142 69.1411 63.8444C70.0682 61.4897 70.9952 59.0042 71.6574 56.5187C72.3196 54.0332 72.8493 51.4168 73.1142 48.8005C73.379 45.7917 73.5115 42.7829 72.3196 39.7741C71.6574 38.0735 71.1276 36.1113 70.2006 34.5415C69.2736 33.1025 68.0816 32.056 66.7573 30.8786C64.5059 28.9164 62.2545 27.2157 59.2085 27.4774C57.6193 27.6082 55.8976 28.2623 54.4408 28.9164C52.9841 29.5704 51.5273 30.617 50.0705 31.5327C49.6732 31.7943 49.011 31.6635 48.6137 31.5327C47.4218 30.8786 46.3623 30.0937 45.1704 29.4396C40.2703 26.5617 35.6351 28.7855 32.8539 32.9717C30.0728 37.027 29.6755 38.5968 29.6755 42.5213ZM31.662 42.1288C31.5296 40.559 31.9269 38.7276 32.8539 37.027C33.2512 36.2421 33.781 35.4572 34.3107 34.6723C37.0919 29.8321 41.992 29.3088 45.7001 32.1868C47.0245 33.1025 48.2164 34.2798 49.4083 35.3264C51.3948 37.1578 52.9841 39.2509 53.9111 41.998C54.0435 42.2597 54.176 42.6521 54.3084 42.7829C54.5733 43.0446 55.103 43.3062 55.3679 43.1754C55.6328 43.0446 55.8976 42.5213 55.8976 42.1288C55.6328 41.2131 55.5003 40.2974 54.9706 39.5125C53.9111 37.8119 52.5867 36.1113 51.3948 34.5415C50.8651 33.8874 50.9975 33.4949 51.6597 33.1025C52.5868 32.5792 53.6462 31.9251 54.5733 31.5327C55.7652 31.0094 56.9571 30.3553 58.2815 29.9629C61.8572 29.178 64.5059 31.0094 66.8897 33.4949C69.8033 36.5037 70.5979 40.4282 70.8628 44.4835C71.1276 48.8005 69.9357 53.1174 68.8763 57.1728C67.8168 60.9664 65.8302 64.6293 63.9762 68.1614C62.6518 70.6469 60.7977 72.74 58.2815 74.1789C56.5598 75.0947 54.9706 75.3563 53.1165 75.3563C51.13 75.3563 49.2759 74.833 47.8191 73.394C45.1704 70.9085 42.6541 68.1614 40.8 64.891C38.6811 61.2281 36.5621 57.5652 34.708 53.7715C32.9864 50.3703 31.662 46.5766 31.662 42.1288Z" fill="white"/>
<path d="M62.8229 9.63777C62.8229 6.62933 62.0675 3.8825 60.5565 1.39727C60.0529 0.612462 59.4233 0.0892559 58.5419 0.612462C58.1642 0.743264 57.7865 0.612462 57.2828 0.612462C55.7719 0.48166 54.3869 0.874065 53.3796 2.18208C52.75 3.09769 51.9945 4.0133 51.365 4.92891C49.6022 7.28334 49.6022 10.161 49.854 13.0386C50.2318 16.1778 50.8613 19.1863 53.2537 21.4099C54.7646 22.7179 56.4014 23.6335 58.2901 22.7179C58.9197 22.4563 59.5492 21.8023 59.927 21.1483C61.6897 17.8783 62.8229 13.5618 62.8229 9.63777ZM51.2391 10.815C51.365 8.85296 51.4909 7.93735 52.3723 6.62933C53.1277 5.58292 53.8832 4.53651 54.6387 3.4901C55.8978 1.26647 59.4233 2.83609 60.0529 4.92891C61.8157 10.161 60.5565 14.8698 58.2901 19.4479C57.4087 21.2791 55.7719 21.4099 54.5128 19.9711C53.6314 18.9247 52.75 17.7475 52.3723 16.4394C51.7427 14.6082 51.6168 12.6462 51.2391 10.815Z" fill="white"/>
<path d="M80.2738 13.4747C79.8901 11.7556 79.6343 9.90424 78.9949 8.18514C78.7392 7.52395 77.9719 6.86276 77.3324 6.73052C75.4142 6.20157 73.6238 6.59828 72.2171 8.18514C70.4267 10.1687 69.7873 12.6812 69.4036 15.326C69.02 17.9708 68.5085 20.6155 69.5315 23.2603C70.0431 24.7149 70.8104 25.9051 72.2171 26.3018C74.519 27.0952 76.3094 26.1695 77.5882 23.657C79.1228 20.4833 80.018 17.0451 80.018 13.4747C80.018 13.6069 80.1459 13.6069 80.2738 13.4747ZM77.7161 13.8714C77.5882 15.1938 77.4603 16.1194 77.3324 17.0451C77.0767 18.3675 76.693 19.8221 76.1815 21.0123C75.7978 22.0702 75.1584 23.1281 74.519 23.9215C73.7517 24.9794 72.6007 24.8472 72.2171 23.657C71.7055 22.2024 71.3219 20.4833 71.194 18.7642C71.194 17.0451 71.7055 15.326 71.8334 13.4747C72.0892 11.6233 72.8565 10.1687 74.1353 8.97857C74.6469 8.44962 75.2863 8.0529 76.0536 8.58185C76.8209 9.11081 77.0767 9.90424 77.0767 10.9621C77.0767 11.3589 77.0767 11.7556 77.2046 12.1523C77.4603 12.9457 77.5882 13.4747 77.7161 13.8714Z" fill="white"/>
<path d="M28.7939 26.0664C28.7939 22.0234 27.3876 18.8933 24.8308 16.1545C23.1689 14.3286 21.507 12.6331 19.0781 11.8506C16.9048 11.1985 13.8367 13.6765 13.9645 16.1545C14.2202 20.7192 15.3708 24.8926 18.4389 28.0227C19.8451 29.4573 21.1235 30.8919 23.0411 31.544C26.1092 32.5874 28.666 30.5007 28.7939 26.9793C28.7939 26.7185 28.7939 26.3272 28.7939 26.0664ZM27.0041 25.4143C27.0041 25.6751 27.0041 26.0664 27.0041 26.4577C26.8763 29.4573 24.9587 30.7615 22.6576 29.3269C21.7627 28.8052 20.9957 27.8923 20.2286 27.2402C17.4162 24.6318 16.3935 20.98 16.01 17.0674C15.8821 15.5024 17.4162 13.9373 18.8224 14.1982C20.8678 14.5894 22.4019 15.8936 23.8081 17.5891C25.5979 19.6758 27.2598 22.0234 27.0041 25.4143Z" fill="white"/>
<path d="M41.882 15.3367C41.5008 12.5364 41.2466 9.60276 39.7218 7.06918C38.7052 5.46902 37.8158 3.86886 36.7992 2.26871C36.0368 1.06859 35.0202 0.535202 33.7495 0.401855C32.9871 0.401855 32.0976 0.535202 31.9706 1.73532C31.9706 2.00201 31.8435 2.26871 31.5894 2.26871C29.3021 3.73552 28.7939 6.2691 28.7939 8.93603C28.7939 13.4698 30.0645 17.3369 33.3683 20.2705C34.1308 20.9372 35.0202 21.4706 35.9097 21.8706C38.197 22.9374 40.6113 21.4706 41.3737 18.2703C41.6278 17.4702 41.7549 16.4034 41.882 15.3367ZM40.103 14.6699C39.8489 15.87 39.7218 17.0702 39.3406 18.2703C38.8323 20.0038 37.3075 20.6705 35.9097 19.8704C35.2744 19.4704 34.512 19.0704 34.0037 18.537C31.3352 15.6034 30.1916 12.003 30.6999 7.60257C31.0811 5.06898 32.733 4.2689 34.3849 3.60217C35.6556 3.06878 36.0368 4.66894 36.7992 5.33568L36.9263 5.46902C38.7052 8.2693 40.2301 11.0696 40.103 14.6699Z" fill="black"/>
</svg>
