<svg width="53" height="96" viewBox="0 0 53 96" fill="none" xmlns="http://www.w3.org/2000/svg">
<path d="M33.6786 92.3202C33.6786 93.0131 33.7556 93.3981 33.6786 93.8601C33.6016 94.5531 33.2166 95.0151 32.4466 94.9381C30.8297 94.7841 29.2127 94.7071 27.6728 94.4761C27.2878 94.3991 26.7488 93.8601 26.6718 93.5521C25.8249 87.7003 24.9779 81.8485 24.2079 75.9967C24.1309 75.1497 23.8229 74.7648 22.976 74.6878C20.358 74.6878 17.8171 74.6108 15.1992 74.5338C14.1983 74.5338 13.6593 74.8418 13.2743 75.8427C11.1954 81.3095 8.96243 86.7764 6.80651 92.2432C5.42055 95.785 5.18957 95.862 1.80168 94.0911C0.0307425 93.1671 0.10774 93.1671 0.646721 91.3192C1.64769 88.0083 2.49466 84.6974 3.64962 81.3865C4.65058 78.3836 5.88254 75.3807 7.1145 72.4548C8.65444 68.682 10.3484 64.9861 11.8883 61.2132C12.3503 60.0583 12.9663 59.5963 14.2753 59.5193C18.1251 59.2113 21.975 59.2883 25.8249 60.0583C27.3648 60.3663 28.3658 60.9822 28.5968 62.8302C29.0587 66.911 29.6747 71.0689 30.4447 75.1497C31.4457 80.4626 32.5236 85.6984 33.6016 91.0112C33.6786 91.3962 33.6786 92.0122 33.6786 92.3202ZM19.6651 60.3663C17.3551 60.5203 15.7382 60.5973 14.1983 60.8282C13.7363 60.9052 13.2743 61.4442 12.9663 61.9062C12.7353 62.1372 12.6583 62.5992 12.5813 62.9072C10.4254 68.066 8.03847 73.1478 6.03654 78.3836C4.34259 82.5415 3.18763 86.9303 1.87868 91.3192C1.49369 92.4742 1.87868 92.8591 3.57262 93.5521C4.57359 93.9371 4.88157 93.3211 5.18956 92.6282C5.88254 91.0112 6.65252 89.3943 7.2685 87.7773C9.11643 83.1575 10.8874 78.5376 12.7353 73.9178C12.8893 73.5328 13.5053 72.9938 13.9673 72.9938C17.2782 73.0708 20.512 73.3018 23.8229 73.3788C25.0549 73.4558 25.3629 73.9178 25.5169 75.0728C26.0559 80.1546 26.6718 85.2364 27.2878 90.2412C27.6728 93.3981 27.7498 92.9361 30.8297 93.3981C32.2156 93.6291 32.3696 93.3981 32.3696 92.0122C32.3696 91.7812 32.3696 91.5502 32.3696 91.2422C31.4457 86.3914 30.5987 81.4635 29.7517 76.6127C29.5977 75.6887 29.2897 74.8418 29.1357 73.9948C28.5968 70.2989 28.0578 66.603 27.5188 62.9072C27.3648 61.9832 26.9028 61.5212 26.0558 61.3672C23.6689 60.9822 21.359 60.6742 19.6651 60.3663Z" fill="#251C1C"/>
<path d="M45.2277 70.8378C44.6117 72.2238 43.9957 73.6097 43.3798 74.9957C42.1478 77.9986 42.0708 77.9216 39.2219 76.3816C37.9899 75.7656 37.759 75.0727 38.2209 73.8407C39.4529 70.7608 40.6849 67.7579 41.9168 64.678C42.2248 63.8311 42.3018 62.8301 42.6868 61.9831C42.9178 61.4441 43.5338 60.5972 43.9187 60.5972C46.3057 60.6742 48.6926 60.9052 51.0795 61.2131C51.3875 61.2901 51.7725 62.2141 51.7725 62.6761C51.9265 67.6039 52.0035 72.4548 52.1575 77.3826C52.3115 81.0785 52.6194 84.7743 52.8504 88.4702C52.9274 89.0862 52.8504 89.7022 52.7734 90.3181C52.6194 92.1661 52.3115 92.3971 50.5405 92.0891C48.8466 91.7811 47.1526 91.5501 45.4587 91.3961C44.6887 91.3191 44.5347 90.9341 44.5347 90.2411C44.6887 86.7763 44.8427 83.2344 44.9967 79.7695C45.1507 77.0746 45.3817 74.4567 45.5357 71.7618C45.5357 71.4538 45.4587 71.1458 45.4587 70.8378C45.4587 70.9148 45.3047 70.9148 45.2277 70.8378ZM51.8495 87.5462C51.6955 85.0823 51.4645 82.8494 51.3875 80.5395C51.1565 74.9187 50.9255 69.2979 50.6945 63.6001C50.6945 63.2921 50.6945 62.9841 50.5405 62.7531C50.0015 61.5981 45.0737 61.2901 44.5347 62.4451C42.8408 66.064 41.2238 69.6829 39.6069 73.3017C39.5299 73.5327 39.4529 73.8407 39.4529 74.1487C39.2989 75.1497 40.0689 75.6117 40.7619 75.7656C41.0698 75.8426 41.7628 75.3037 41.9168 74.9187C43.1488 72.6088 44.3037 70.2218 45.5357 67.9119C45.7667 67.4499 46.3057 67.2189 46.6906 66.911C46.8446 67.3729 47.0756 67.8349 47.0756 68.3739C46.6906 75.2267 46.3057 82.0024 45.8437 88.8552C45.7667 89.6252 45.9977 90.0102 46.7676 90.1642C47.9996 90.3951 49.1546 90.6261 50.3865 90.9341C51.1565 91.0881 51.5415 90.9341 51.6185 90.0872C51.6185 89.1632 51.7725 88.2392 51.8495 87.5462Z" fill="#251C1C"/>
<path d="M19.2806 63.9849C20.5896 64.3699 21.9755 64.5238 23.2075 65.0628C24.5934 65.6018 25.2094 69.2207 24.1315 70.1447C23.6695 70.5296 22.8995 70.7606 22.2065 70.6836C20.2816 70.6066 18.3567 70.2986 16.4317 70.1447C15.5848 70.0677 15.1998 69.5287 15.4308 68.8357C15.8927 67.4497 16.3547 65.9868 17.0477 64.7548C17.3557 64.2929 18.4337 64.2159 19.2806 63.9849ZM22.1295 69.4517C22.3605 69.3747 23.2075 69.0667 23.2075 68.9127C23.0535 67.9117 23.0535 66.6028 22.3605 65.9868C20.7436 64.5238 17.5867 65.5248 16.8937 67.5267C16.5857 68.2967 16.7397 68.8357 17.6637 68.9127C19.0496 69.1437 20.4356 69.2977 22.1295 69.4517Z" fill="#251C1C"/>
<path d="M42.8197 23.6968C41.9668 20.6912 39.5631 17.9938 36.0738 18.7645C33.5151 19.381 32.1194 21.2307 31.2664 23.4656C29.6381 21.4619 27.3895 20.0746 24.5981 21.2307C19.7131 23.3115 20.7211 29.1687 21.8842 33.1762C23.2024 37.3379 24.5205 42.5014 28.475 44.8905C30.1809 45.8924 32.4295 46.3548 34.2904 45.5071C34.8332 45.2758 35.376 44.8905 35.7637 44.5052C36.4615 45.43 37.7797 45.2758 38.4775 44.351C42.8197 38.7251 44.8357 30.6329 42.8197 23.6968ZM38.1674 38.2627C38.2449 38.2627 38.3225 38.2627 38.3225 38.1856C38.2449 38.3397 38.1674 38.4939 38.0898 38.648C38.1674 38.5709 38.1674 38.4168 38.1674 38.2627ZM36.7717 21.9243C36.6166 22.1555 36.4615 22.4638 36.384 22.772C36.0738 22.695 35.7637 22.695 35.4535 22.695C35.7637 22.3096 36.2289 22.0013 36.7717 21.9243ZM27.2344 24.1592C27.2344 24.2363 27.1569 24.3134 27.1569 24.3905C27.0793 24.6987 27.0018 25.007 26.9242 25.3923C26.459 24.7758 25.7612 24.6217 25.0633 24.7758C25.0633 24.7758 25.0633 24.7758 24.9858 24.7758C25.2959 24.4675 25.6836 24.2363 26.1489 24.1592C26.5366 24.0051 26.8467 24.0051 27.2344 24.1592ZM31.1889 42.5785C30.336 42.3473 29.6381 41.8078 29.0953 41.2683C29.1729 40.96 29.2504 40.6518 29.328 40.3435C29.483 40.2664 29.5606 40.1894 29.7156 40.1123C29.7932 41.1142 30.5686 41.5766 31.344 41.5766C31.8092 42.4243 32.9723 42.6555 33.7477 42.1931C33.4375 42.8097 31.7317 42.7326 31.1889 42.5785ZM39.6406 34.4863C39.7957 32.945 39.9508 31.4036 40.1059 29.8623C40.1059 29.6311 40.1834 29.3999 40.1834 29.0916C40.1834 28.6292 40.1059 28.3209 39.8732 28.0897C39.9508 27.6273 40.0283 27.242 40.1059 26.7796C40.1059 27.1649 40.1834 27.4732 40.1834 27.7044C40.416 30.0164 40.1834 32.2514 39.6406 34.4863Z" fill="white"/>
<path d="M17.8384 25.4724C17.7602 27.6361 18.5425 29.8772 19.6377 32.0409C20.4983 33.741 21.2806 35.5184 22.2194 37.1412C23.6276 39.5367 25.114 41.9323 27.1481 43.8642C28.0086 44.7143 29.0256 45.4098 29.9644 46.1825C30.1209 46.3371 30.3556 46.4144 30.5903 46.4144C31.842 46.4144 33.0937 46.5689 34.3455 46.3371C35.0496 46.1825 35.7536 45.5643 36.3795 45.0234C37.0836 44.4052 37.8659 43.787 38.4136 43.0142C38.883 42.3187 39.587 41.7778 39.8217 40.8504C40.0564 39.8458 40.7605 38.9958 41.1517 38.0685C41.6993 36.6775 42.247 35.2092 42.6381 33.741C43.0293 32.2727 43.3422 30.7272 43.4987 29.1817C43.6551 27.4043 43.7334 25.627 43.0293 23.8496C42.6381 22.845 42.3252 21.6858 41.7776 20.7585C41.2299 19.9085 40.5258 19.2903 39.7435 18.5948C38.4136 17.4356 37.0836 16.431 35.2843 16.5856C34.3455 16.6629 33.3284 17.0493 32.4679 17.4356C31.6073 17.822 30.7468 18.4402 29.8862 18.9812C29.6515 19.1357 29.2603 19.0584 29.0257 18.9812C28.3216 18.5948 27.6957 18.1311 26.9916 17.7447C24.097 16.0447 21.3589 17.3584 19.716 19.8312C18.0731 22.2268 17.8384 23.1541 17.8384 25.4724ZM19.0119 25.2406C18.9337 24.3133 19.1683 23.2314 19.716 22.2268C19.9507 21.7631 20.2636 21.2995 20.5765 20.8358C22.2194 17.9766 25.114 17.6675 27.3045 19.3675C28.0869 19.9085 28.791 20.604 29.495 21.2222C30.6685 22.3041 31.6073 23.5405 32.155 25.1633C32.2332 25.3178 32.3114 25.5497 32.3896 25.627C32.5461 25.7815 32.859 25.9361 33.0155 25.8588C33.172 25.7815 33.3284 25.4724 33.3284 25.2406C33.172 24.6996 33.0937 24.1587 32.7808 23.695C32.155 22.6904 31.3726 21.6858 30.6685 20.7585C30.3556 20.3721 30.4338 20.1403 30.825 19.9085C31.3726 19.5994 31.9985 19.213 32.5461 18.9812C33.2502 18.6721 33.9543 18.2857 34.7366 18.0538C36.8489 17.5902 38.4136 18.6721 39.8217 20.1403C41.5429 21.9177 42.0123 24.236 42.1687 26.6315C42.3252 29.1817 41.6211 31.7318 40.9952 34.1274C40.3694 36.3684 39.1959 38.5321 38.1006 40.6186C37.3183 42.0869 36.223 43.3233 34.7366 44.1733C33.7196 44.7143 32.7808 44.8688 31.6856 44.8688C30.5121 44.8688 29.4168 44.5597 28.5563 43.7097C26.9916 42.2414 25.5052 40.6186 24.4099 38.6867C23.1582 36.523 21.9065 34.3592 20.8112 32.1182C19.7942 30.109 19.0119 27.868 19.0119 25.2406Z" fill="#251C1C"/>
<path d="M37.4195 6.04719C37.4195 4.27003 36.9732 2.64741 36.0806 1.17932C35.7831 0.715719 35.4112 0.406648 34.8906 0.715719C34.6674 0.792987 34.4443 0.715719 34.1468 0.715719C33.2542 0.638451 32.4361 0.870254 31.841 1.64293C31.4691 2.1838 31.0228 2.72468 30.651 3.26555C29.6096 4.65637 29.6096 6.35626 29.7584 8.05614C29.9815 9.91057 30.3534 11.6877 31.7666 13.0013C32.6592 13.774 33.6261 14.3148 34.7418 13.774C35.1137 13.6194 35.4856 13.2331 35.7087 12.8467C36.75 10.915 37.4195 8.36522 37.4195 6.04719ZM30.5766 6.7426C30.651 5.58358 30.7253 5.04271 31.246 4.27003C31.6923 3.65189 32.1385 3.03375 32.5848 2.41561C33.3286 1.10206 35.4112 2.02927 35.7831 3.26555C36.8244 6.35626 36.0806 9.13789 34.7418 11.8423C34.2212 12.924 33.2542 13.0013 32.5104 12.1513C31.9898 11.5332 31.4691 10.8378 31.246 10.0651C30.8741 8.98336 30.7997 7.82434 30.5766 6.7426Z" fill="#251C1C"/>
<path d="M47.7281 8.31387C47.5014 7.29836 47.3504 6.20473 46.9726 5.18922C46.8215 4.79864 46.3683 4.40806 45.9906 4.32994C44.8574 4.01747 43.7998 4.25182 42.9688 5.18922C41.9112 6.36097 41.5335 7.84518 41.3068 9.4075C41.0802 10.9698 40.778 12.5322 41.3824 14.0945C41.6845 14.9538 42.1378 15.6568 42.9688 15.8912C44.3286 16.3599 45.3862 15.813 46.1416 14.3288C47.0482 12.454 47.577 10.423 47.577 8.31387C47.577 8.39199 47.6525 8.39199 47.7281 8.31387ZM46.2172 8.54822C46.1416 9.32939 46.0661 9.8762 45.9906 10.423C45.8395 11.2042 45.6128 12.0635 45.3107 12.7665C45.084 13.3914 44.7063 14.0164 44.3286 14.4851C43.8753 15.11 43.1954 15.0319 42.9688 14.3288C42.6666 13.4696 42.44 12.454 42.3644 11.4385C42.3644 10.423 42.6666 9.4075 42.7422 8.31387C42.8933 7.22024 43.3465 6.36097 44.102 5.65792C44.4041 5.34545 44.7819 5.1111 45.2351 5.42357C45.6884 5.73603 45.8395 6.20473 45.8395 6.82966C45.8395 7.06401 45.8395 7.29836 45.915 7.53271C46.0661 8.00141 46.1416 8.31387 46.2172 8.54822Z" fill="#251C1C"/>
<path d="M17.3177 15.7521C17.3177 13.3638 16.4871 11.5147 14.9767 9.89685C13.995 8.81826 13.0132 7.81671 11.5784 7.35445C10.2946 6.96924 8.48219 8.43305 8.55771 9.89685C8.70874 12.5933 9.3884 15.0587 11.2008 16.9077C12.0315 17.7552 12.7867 18.6026 13.9195 18.9878C15.7319 19.6042 17.2422 18.3715 17.3177 16.2914C17.3177 16.1373 17.3177 15.9061 17.3177 15.7521ZM16.2605 15.3669C16.2605 15.5209 16.2605 15.7521 16.2605 15.9832C16.185 17.7552 15.0522 18.5256 13.6929 17.6781C13.1643 17.37 12.7112 16.8307 12.2581 16.4454C10.5967 14.9046 9.99254 12.7474 9.76599 10.4361C9.69047 9.51164 10.5967 8.58713 11.4274 8.74122C12.6357 8.97234 13.5419 9.74276 14.3726 10.7443C15.4298 11.977 16.4115 13.3638 16.2605 15.3669Z" fill="#251C1C"/>
<path d="M25.0492 9.41366C24.824 7.75947 24.6739 6.02651 23.7731 4.52986C23.1726 3.58461 22.6472 2.63935 22.0467 1.6941C21.5963 0.985164 20.9958 0.67008 20.2452 0.591309C19.7948 0.591309 19.2694 0.67008 19.1943 1.37902C19.1943 1.53656 19.1193 1.6941 18.9691 1.6941C17.618 2.56058 17.3177 4.05723 17.3177 5.63265C17.3177 8.31087 18.0684 10.5952 20.02 12.3282C20.4704 12.722 20.9958 13.0371 21.5213 13.2734C22.8724 13.9036 24.2986 13.0371 24.749 11.1466C24.8991 10.674 24.9742 10.0438 25.0492 9.41366ZM23.9983 9.01981C23.8482 9.72875 23.7731 10.4377 23.548 11.1466C23.2477 12.1706 22.347 12.5645 21.5213 12.0919C21.146 11.8556 20.6956 11.6193 20.3953 11.3042C18.819 9.5712 18.1434 7.44439 18.4437 4.84494C18.6689 3.34829 19.6447 2.87567 20.6205 2.48181C21.3711 2.16673 21.5963 3.11198 22.0467 3.50584L22.1218 3.58461C23.1726 5.2388 24.0734 6.89299 23.9983 9.01981Z" fill="#251C1C"/>
</svg>
