<svg width="99" height="165" viewBox="0 0 99 165" fill="none" xmlns="http://www.w3.org/2000/svg">
<path d="M56.4166 153.769C53.7275 143.91 50.2916 134.199 45.9592 125.086C45.3617 123.443 44.7641 121.65 44.0172 120.007L41.0294 111.641C40.2824 109.4 39.5355 106.861 37.5934 105.516C36.0995 104.471 34.6056 104.321 32.8129 104.321C31.1696 103.275 29.3769 102.678 27.4348 102.529C25.9409 102.379 23.9989 102.678 22.6543 103.574C22.3556 103.873 22.0568 104.172 21.9074 104.62H21.4592C20.1147 104.62 19.069 105.516 18.6208 106.711C13.2427 124.041 9.65737 141.818 7.7153 159.745C7.26713 163.33 12.944 163.48 13.5415 160.044C14.2885 159.894 14.886 159.446 15.3342 158.699C19.8159 151.977 22.0568 144.507 23.2519 136.888C28.0324 136.888 32.6635 136.739 37.444 136.291C37.8922 136.291 38.1909 136.141 38.4897 135.992C40.88 143.461 43.2702 151.08 45.6605 158.55C46.8556 162.135 52.383 160.641 51.3373 157.056C51.3373 156.757 51.1879 156.608 51.1879 156.309C53.13 158.55 57.1635 157.056 56.4166 153.769ZM29.6757 110.297C29.9745 110.297 30.2732 110.297 30.572 110.297C32.6635 117.019 34.755 123.593 36.8464 130.315H36.697C36.5476 128.971 35.6513 127.925 33.8586 127.925C33.4105 127.925 33.1117 127.925 32.6635 127.925C32.0659 127.477 31.319 127.327 30.4226 127.477C29.5263 127.626 28.6299 127.775 27.7336 127.925C26.6879 127.925 25.6421 127.925 24.5964 127.925C25.194 122.099 25.6421 116.272 26.5385 110.596C27.5842 110.297 28.63 110.297 29.6757 110.297ZM18.6208 129.269C18.6208 129.867 18.4714 130.465 18.4714 131.062H18.322C18.4714 130.465 18.4714 129.867 18.6208 129.269ZM15.7824 144.358C16.2305 141.818 16.6787 139.279 17.1269 136.739C17.2763 136.739 17.4257 136.739 17.5751 136.739C17.1269 139.428 16.5293 141.968 15.7824 144.358Z" fill="#39B100"/>
<path d="M44.6331 38.9968C47.7703 38.9968 49.8618 39.445 51.9532 40.4907C52.4014 40.7895 53.2977 40.6401 53.7459 40.4907C55.9868 39.1462 58.377 37.9511 61.066 37.8017C65.249 37.6523 68.5356 39.5943 71.6728 41.8352C72.4197 42.4328 73.1667 43.0303 73.9136 43.6279C76.3039 45.2712 77.499 47.512 77.2002 50.3505C76.9014 52.8901 76.4533 55.4297 75.5569 57.82C74.81 59.7621 73.3161 61.5547 72.1209 63.3474C69.8801 66.634 67.7886 69.9206 65.249 72.9084C63.0081 75.7468 60.4685 78.4359 57.7794 80.8261C55.2398 83.067 52.1026 83.067 49.1148 81.5731C47.0233 80.5273 45.5294 79.1828 44.4837 76.942C41.4959 70.6676 38.3587 64.3932 35.2215 58.1188C32.5325 52.7407 33.4288 47.8108 36.566 43.0303C38.2093 40.9389 42.3922 38.9968 44.6331 38.9968ZM55.0904 42.134C55.5386 42.8809 55.9868 43.3291 56.2855 44.0761C56.4349 44.3748 56.1362 44.9724 55.9868 45.1218C55.8374 45.2712 55.2398 45.1218 54.941 44.9724C53.8953 44.2255 52.999 43.3291 51.9532 42.7315C48.5172 40.7895 44.9319 40.0425 41.1971 41.8352C37.0142 43.9267 35.2215 47.512 35.3709 51.9938C35.5203 54.5334 36.566 57.2224 37.7611 59.6127C40.5995 65.4389 43.5874 70.9663 46.4258 76.7926C47.9197 79.631 50.7581 81.4237 53.8953 80.3779C55.688 79.7804 57.3313 78.7346 58.6758 77.3901C63.4563 72.4602 67.7886 67.0822 71.374 61.256C73.1667 58.1188 74.6606 54.9816 75.1087 51.3962C75.4075 49.1553 74.9594 47.0639 73.1667 45.7194C70.9258 43.9267 68.5356 42.134 65.9959 40.7895C62.7093 38.8474 58.2276 39.5944 55.0904 42.134Z" fill="white"/>
<path d="M90.9444 12.7037C89.8987 18.9781 87.8072 24.5056 82.4291 28.3897C80.4871 29.7342 78.3956 30.033 76.3041 28.9873C74.2127 27.7922 73.4657 25.8501 73.6151 23.4598C73.9139 19.2769 74.3621 14.9446 77.2005 11.658C79.1425 9.41714 81.3834 7.32567 83.6243 5.3836C85.5663 3.7403 89.0023 4.93543 89.8987 7.62445C90.4962 9.26775 90.6456 11.0604 90.9444 12.7037ZM88.8529 11.9568C88.8529 10.3135 88.8529 8.5208 87.2096 7.17628C86.3133 6.42933 85.4169 6.13055 84.5206 6.8775C82.4291 8.81958 80.1883 10.7617 78.2462 12.8531C76.3041 14.9446 76.1547 17.783 75.7066 20.472C75.5572 22.1153 75.4078 23.7586 75.7066 25.4019C76.3041 27.7922 78.2462 28.3897 80.3377 27.344C85.8651 25.1031 89.4505 16.5879 88.8529 11.9568Z" fill="white"/>
<path d="M52.5512 16.4384C52.4018 10.4628 54.6427 5.68233 59.1244 1.79818C62.2616 -0.890847 64.5024 0.603057 65.6976 3.74026C67.789 9.11831 67.4902 14.4964 64.9506 19.5756C63.7555 21.9659 62.1122 24.2067 60.4689 26.2982C58.0786 29.1366 54.9414 27.3439 54.0451 24.9537C53.1488 22.2647 52.7006 19.2769 52.103 16.4384C52.2524 16.4384 52.4018 16.4384 52.5512 16.4384ZM54.3439 16.4384C54.3439 17.1854 54.1945 18.2311 54.3439 19.1275C54.7921 21.0695 55.0908 23.0116 55.9872 24.6549C57.0329 26.597 58.228 26.597 59.7219 24.9537C63.7555 20.6214 65.8469 15.5421 65.3988 9.56648C65.2494 7.17624 64.9506 4.6366 63.1579 2.84391C62.8591 2.54513 61.9628 2.24635 61.8134 2.39574C60.3195 3.59087 58.5268 4.78599 57.3317 6.27989C54.6427 9.11831 54.0451 12.5543 54.3439 16.4384Z" fill="white"/>
<path d="M44.3365 15.6917C44.1871 19.7252 43.5895 22.713 42.0956 25.4021C40.6017 28.2405 38.2115 28.5393 35.8212 26.2984C33.431 24.0576 31.9371 21.3685 31.6383 18.0819C31.3395 14.4966 30.5926 11.0606 31.9371 7.62461C32.8334 5.23436 34.3273 3.44168 36.867 2.99351C38.3609 2.69473 39.7054 2.99351 40.6017 4.18863C41.6475 5.68253 42.8426 7.17644 43.4402 8.96912C44.0377 11.3594 44.1871 14.0484 44.3365 15.6917ZM42.8426 16.2893C42.6932 15.0941 42.3944 13.6002 42.3944 11.9569C42.245 10.0149 41.6475 8.22217 40.6017 6.57888C38.5103 3.59107 36.2694 3.74046 34.3273 6.42949C33.431 7.62461 32.9828 9.2679 32.8334 10.6124C32.684 12.2557 32.9828 13.7496 32.9828 15.3929C33.2816 18.9783 34.1779 22.1155 36.7176 24.8045C38.3609 26.4478 39.4066 26.4478 40.6017 24.3563C42.0956 22.1155 42.8426 19.4265 42.8426 16.2893Z" fill="white"/>
<path d="M22.5233 26.5964C25.3617 26.5964 26.8557 28.5385 28.3496 30.4805C29.2459 31.8251 29.8435 33.6177 30.2916 35.1116C30.8892 36.9043 30.2916 38.697 29.0965 40.1909C28.4989 40.7885 27.3038 41.2367 26.4075 41.2367C23.8678 41.0873 22.2246 39.1452 20.88 37.3525C19.8343 35.8586 19.0874 34.2153 18.191 32.7214C17.4441 31.0781 17.8922 29.5842 19.2367 28.3891C20.1331 27.6421 21.1788 27.0446 22.2245 26.2976C22.3739 26.447 22.3739 26.5964 22.5233 26.5964ZM28.4989 36.1574C28.2002 33.4683 27.005 30.9287 24.4654 29.136C23.2703 28.0903 22.0752 28.0903 20.5813 29.2854C19.5355 30.0324 19.3861 31.2275 19.8343 32.2732C21.0294 34.8129 22.3739 37.3525 24.7642 38.9958C26.7063 40.3403 28.0508 39.7427 28.3496 37.3525C28.4989 37.0537 28.4989 36.7549 28.4989 36.1574Z" fill="white"/>
<path d="M55.0907 42.1338C58.0786 39.4448 62.7097 38.6978 65.9962 40.6399C68.5359 42.1338 70.9261 43.7771 73.167 45.5698C74.9597 46.9143 75.4078 49.0057 75.1091 51.2466C74.6609 54.832 73.167 58.1186 71.3743 61.1064C67.7889 67.082 63.4566 72.3106 58.6761 77.2405C57.481 78.585 55.6883 79.6308 53.8956 80.2283C50.9078 81.1247 47.92 79.4814 46.4261 76.643C43.5877 70.9661 40.4505 65.2893 37.7615 59.4631C36.5663 57.0728 35.5206 54.5332 35.3712 51.8442C35.0724 47.5118 36.8651 43.7771 41.1974 41.6856C44.9322 39.8929 48.5176 40.6399 51.9535 42.582C52.9993 43.1795 53.8956 44.0759 54.9414 44.8228C55.2401 44.9722 55.8377 45.1216 55.9871 44.9722C56.2859 44.6734 56.4353 44.2253 56.2859 43.9265C56.1365 43.4783 55.5389 42.8807 55.0907 42.1338Z" fill="white"/>
<path d="M88.8544 11.9568C89.4519 16.588 85.7172 25.1032 80.4885 27.4935C78.2476 28.3898 76.3056 27.7922 75.8574 25.5514C75.5586 24.0575 75.5586 22.2648 75.8574 20.6215C76.1562 17.9325 76.4549 15.094 78.397 13.0026C80.3391 10.9111 82.58 8.96904 84.6714 7.02696C85.5678 6.28001 86.4641 6.4294 87.3605 7.32574C88.8544 8.52087 89.0037 10.3136 88.8544 11.9568Z" fill="white" stroke="#221E1F" stroke-width="0.3568" stroke-miterlimit="10"/>
<path d="M54.3436 16.4386C54.0448 12.5545 54.6424 9.11848 57.182 6.13067C58.5265 4.63677 60.1698 3.44165 61.6637 2.24652C61.9625 2.09713 62.7094 2.39591 63.0082 2.69469C64.9503 4.63677 65.0997 7.17641 65.3985 9.56665C65.8466 15.5423 63.7552 20.6215 59.7216 24.9539C58.2277 26.5972 57.0326 26.5972 55.9869 24.6551C55.0905 23.0118 54.7918 21.0697 54.3436 19.1276C54.1942 18.2313 54.3436 17.1856 54.3436 16.4386Z" fill="white" stroke="#221E1F" stroke-width="0.3568" stroke-miterlimit="10"/>
<path d="M42.8408 16.2888C42.6914 19.5754 42.0939 22.115 40.7494 24.5053C39.5542 26.4473 38.5085 26.5967 36.8652 24.9534C34.3256 22.2644 33.2798 19.1272 33.1304 15.5418C32.9811 13.8985 32.6823 12.2553 32.9811 10.7613C33.1304 9.41683 33.5786 7.77354 34.3256 6.72781C36.2676 3.88939 38.6579 3.74 40.6 6.8772C41.6457 8.52049 42.2433 10.1638 42.3926 12.2553C42.3926 13.5998 42.6914 15.0937 42.8408 16.2888Z" fill="white" stroke="#221E1F" stroke-width="0.3568" stroke-miterlimit="10"/>
<path d="M28.4984 36.1582C28.4984 36.7558 28.4984 37.0545 28.4984 37.3533C28.1996 39.7436 26.8551 40.3411 24.913 38.9966C22.5228 37.3533 21.1783 34.8137 19.9831 32.274C19.535 31.2283 19.6844 30.0332 20.7301 29.2862C22.0746 28.2405 23.2697 28.2405 24.6143 29.1368C27.0045 30.9295 28.1996 33.4692 28.4984 36.1582Z" fill="white" stroke="#221E1F" stroke-width="0.3568" stroke-miterlimit="10"/>
<path d="M83.611 147.196C86.4494 146.897 89.2878 146.598 92.1262 146.3C94.5165 146.001 96.0104 146.748 96.6079 148.989C97.3549 151.827 97.8031 154.815 98.1018 157.803C98.2512 160.044 97.0561 160.79 94.9646 160.79C88.0927 160.641 81.2207 160.641 74.3488 160.492C71.3609 160.492 68.3731 160.342 65.3853 160.342C63.8914 160.342 62.9951 159.446 62.8457 157.952C62.5469 151.678 63.742 145.702 67.3274 140.473C68.6719 138.531 71.3609 137.336 73.6018 135.992C75.3945 134.946 77.486 134.498 79.428 133.601C81.2207 132.705 83.1628 131.659 84.6567 130.315C91.2299 123.742 88.2421 112.089 79.2786 109.101C75.0957 107.757 70.9128 110.745 70.7634 115.376C70.7634 117.318 71.0622 119.409 71.3609 121.351C71.6597 124.787 70.9128 125.534 67.6262 124.638C65.5347 124.04 63.4432 123.443 61.3518 123.144C59.7085 122.845 58.9615 121.949 58.8121 120.455C58.6628 119.559 58.5134 118.662 58.8121 117.766C60.9036 111.342 63.4432 105.068 69.5683 101.333C73.303 99.0922 77.4859 98.7934 81.5195 100.586C88.6902 104.022 93.7695 109.55 97.0561 116.72C97.6537 118.214 97.8031 120.156 97.5043 121.8C96.3092 128.821 91.3793 133.004 85.8518 136.589C83.9097 137.784 81.9677 139.129 80.0256 140.324C79.428 140.623 78.8305 141.071 78.5317 141.519C77.7847 142.714 77.3366 144.059 76.739 145.403C77.9341 145.851 79.1293 146.3 80.3244 146.598C81.3701 146.748 82.5652 146.598 83.611 146.598C83.611 147.047 83.611 147.196 83.611 147.196ZM88.2421 158.251C88.8396 158.101 89.5866 158.251 90.1841 158.101C95.7116 158.101 95.7116 158.101 95.114 152.425C94.8153 148.989 94.0683 148.69 90.6323 148.69C86.1506 148.839 81.5195 148.989 77.0378 148.54C74.1994 148.242 73.1536 145.702 74.6475 143.162C75.6933 141.519 77.1872 139.876 78.8305 138.531C82.864 135.394 87.1963 132.854 91.0805 129.568C95.861 125.534 96.4585 119.26 93.3213 113.882C90.4829 109.101 86.5988 105.665 81.8183 102.827C78.2329 100.736 74.6475 100.735 71.0622 102.379C64.6384 105.516 61.9493 111.342 60.6048 117.915C60.306 119.559 60.7542 120.604 62.6963 121.053C64.0408 121.351 65.3853 121.8 66.7298 122.248C68.2238 122.696 68.6719 122.098 68.6719 120.754C68.6719 118.812 68.6719 116.72 68.6719 114.778C68.6719 111.342 70.4646 108.952 73.6018 107.757C78.0835 105.815 81.5195 107.607 84.6567 110.745C94.0683 120.306 89.736 132.406 78.6811 136.141C75.8427 137.037 73.1536 138.382 70.614 139.876C69.2695 140.623 68.0744 141.967 67.3274 143.312C65.3853 146.897 64.489 150.632 64.3396 154.665C64.3396 157.504 64.7878 158.101 67.4768 158.101C74.4981 158.251 81.3701 158.251 88.2421 158.251Z" fill="white"/>
<path d="M46.1124 164.077C41.4813 164.077 41.3319 164.077 39.9874 159.595C38.1947 153.47 36.7008 147.345 35.0575 141.22C34.7587 139.876 34.3105 138.681 34.0118 137.336C33.4142 133.9 31.024 133.004 28.0361 132.854C27.8868 132.854 27.588 132.854 27.4386 132.854C22.5087 132.556 22.6581 132.556 21.0148 137.336C18.9233 143.76 16.5331 150.034 14.4416 156.309C13.8441 157.952 13.3959 159.595 13.0971 161.239C12.4995 163.629 11.3044 164.376 8.91417 163.928C6.52392 163.479 4.28307 163.031 1.89282 162.732C0.100136 162.583 -0.348038 161.836 0.249523 160.043C5.77697 144.955 11.3044 129.867 16.8319 114.629C18.1764 110.745 19.2221 106.86 20.5666 102.976C20.716 102.528 21.6124 101.931 22.2099 101.931C27.4386 101.931 32.5179 103.126 37.2983 105.516C37.8959 105.815 38.4935 106.86 38.6429 107.607C39.6886 116.421 42.6764 124.488 45.6642 132.705C48.0545 139.577 50.5941 146.449 52.6856 153.47C53.4325 155.86 53.1337 158.699 52.9843 161.239C52.9843 162.882 51.9386 164.077 50.1459 164.077C48.652 164.077 47.3075 164.077 46.1124 164.077ZM50.5941 155.711C50.5941 155.114 50.5941 153.918 50.2953 152.873C48.2039 146.449 46.1124 139.876 43.7221 133.452C40.4356 125.534 37.8959 117.318 36.402 108.653C36.2526 107.757 35.2069 106.711 34.4599 106.412C31.9203 105.516 29.2313 104.769 26.5422 104.171C23.2557 103.574 22.5087 104.022 21.1642 107.159C21.0148 107.607 20.8654 108.205 20.5666 108.653C17.5788 116.421 14.4416 124.19 11.6032 132.107C8.466 140.623 5.62758 149.138 2.78916 157.653C2.1916 159.446 2.78916 160.193 4.58184 160.641C9.9599 161.986 10.2587 161.836 12.0514 156.607C14.8898 148.54 17.8776 140.473 20.716 132.406C21.3136 130.912 22.0605 130.165 23.7038 130.315C26.5422 130.614 29.5301 130.614 32.3685 131.062C33.1154 131.211 34.1611 132.107 34.4599 133.004C35.5057 135.693 36.2526 138.382 36.9996 141.071C38.6429 147.046 40.1368 153.022 41.7801 158.998C42.0788 159.894 42.6764 160.94 43.4234 161.239C48.3532 163.33 50.4447 161.836 50.4447 156.458C50.5941 156.458 50.5941 156.309 50.5941 155.711Z" fill="white"/>
<path d="M32.517 119.559V119.709C32.3676 126.282 30.4255 127.477 24.4499 124.638C23.8524 124.34 23.1054 123.145 23.1054 122.398C23.2548 120.456 23.703 118.364 24.1511 116.422C24.3005 115.526 24.7487 114.629 25.9438 115.227C26.2426 115.376 26.6908 115.227 26.9896 115.227C31.3219 114.331 32.6664 115.376 32.517 119.559ZM31.1725 119.709C30.1268 118.663 29.5292 117.468 28.7822 117.468C26.392 117.169 25.3463 118.364 25.1969 121.053C25.0475 123.742 27.5871 122.547 28.7822 123.443C29.3798 122.248 30.1268 121.203 31.1725 119.709Z" fill="black"/>
</svg>
