<svg width="59" height="98" viewBox="0 0 59 98" fill="none" xmlns="http://www.w3.org/2000/svg">
<path d="M34.1036 91.4503C32.5151 85.6259 30.4854 79.8898 27.9262 74.5066C27.5732 73.5359 27.2202 72.4769 26.779 71.5062L25.014 66.5643C24.5728 65.2405 24.1315 63.7403 22.9843 62.9461C22.1018 62.3283 21.2193 62.2401 20.1603 62.2401C19.1896 61.6223 18.1306 61.2693 16.9834 61.1811C16.1009 61.0928 14.9537 61.2693 14.1594 61.7988C13.9829 61.9753 13.8064 62.1518 13.7182 62.4166H13.4534C12.6592 62.4166 12.0415 62.9461 11.7767 63.6521C8.59977 73.8889 6.4818 84.3905 5.33457 94.9803C5.06983 97.0983 8.42327 97.1865 8.77626 95.1568C9.2175 95.0685 9.5705 94.8038 9.83525 94.3625C12.4827 90.3914 13.8064 85.9789 14.5124 81.4783C17.3364 81.4783 20.0721 81.39 22.896 81.1253C23.1608 81.1253 23.3373 81.037 23.5138 80.9488C24.9258 85.3612 26.3377 89.8619 27.7497 94.2743C28.4557 96.3923 31.7209 95.5098 31.1031 93.3918C31.1031 93.2153 31.0149 93.1271 31.0149 92.9506C32.1621 94.2743 34.5448 93.3918 34.1036 91.4503ZM18.3071 65.77C18.4836 65.77 18.6601 65.77 18.8366 65.77C20.0721 69.7412 21.3076 73.6241 22.543 77.5953H22.4548C22.3665 76.8011 21.8371 76.1833 20.7781 76.1833C20.5133 76.1833 20.3368 76.1833 20.0721 76.1833C19.7191 75.9186 19.2778 75.8304 18.7484 75.9186C18.2189 76.0069 17.6894 76.0951 17.1599 76.1833C16.5421 76.1833 15.9244 76.1833 15.3067 76.1833C15.6596 72.7417 15.9244 69.3 16.4539 65.9465C17.0716 65.77 17.6894 65.77 18.3071 65.77ZM11.7767 76.9776C11.7767 77.3306 11.6885 77.6836 11.6885 78.0366H11.6002C11.6885 77.6836 11.6885 77.3306 11.7767 76.9776ZM10.1 85.8907C10.3647 84.3905 10.6295 82.8902 10.8942 81.39C10.9825 81.39 11.0707 81.39 11.159 81.39C10.8942 82.9785 10.5412 84.4787 10.1 85.8907Z" fill="#39B100"/>
<path d="M27.1426 23.6514C28.9958 23.6514 30.2313 23.9162 31.4667 24.5339C31.7315 24.7104 32.261 24.6222 32.5257 24.5339C33.8494 23.7397 35.2614 23.0337 36.8499 22.9455C39.3209 22.8572 41.2623 24.0044 43.1155 25.3282C43.5568 25.6812 43.998 26.0341 44.4393 26.3871C45.8513 27.3579 46.5572 28.6816 46.3807 30.3583C46.2042 31.8586 45.9395 33.3588 45.41 34.7708C44.9688 35.918 44.0863 36.977 43.3803 38.036C42.0566 39.9774 40.8211 41.9189 39.3209 43.6839C37.9971 45.3606 36.4969 46.9491 34.9084 48.361C33.4082 49.6848 31.555 49.6848 29.79 48.8023C28.5545 48.1845 27.672 47.3903 27.0543 46.0666C25.2893 42.3601 23.4361 38.6537 21.5829 34.9473C19.9944 31.7703 20.5239 28.8581 22.3771 26.0342C23.3479 24.7987 25.8188 23.6514 27.1426 23.6514ZM33.32 25.5047C33.5847 25.9459 33.8494 26.2106 34.0259 26.6519C34.1142 26.8284 33.9377 27.1814 33.8494 27.2696C33.7612 27.3579 33.4082 27.2696 33.2317 27.1814C32.614 26.7401 32.0845 26.2106 31.4667 25.8577C29.437 24.7104 27.3191 24.2692 25.1128 25.3282C22.6419 26.5636 21.5829 28.6816 21.6711 31.3291C21.7594 32.8293 22.3771 34.4178 23.0831 35.8297C24.7598 39.2714 26.5248 42.5366 28.2015 45.9783C29.084 47.655 30.7607 48.714 32.614 48.0963C33.6729 47.7433 34.6437 47.1256 35.4379 46.3313C38.2619 43.4191 40.8211 40.2422 42.9391 36.8005C43.998 34.9473 44.8805 33.094 45.1453 30.9761C45.3218 29.6523 45.057 28.4169 43.998 27.6226C42.6743 26.5636 41.2623 25.5047 39.7621 24.7104C37.8206 23.5632 35.1732 24.0044 33.32 25.5047Z" fill="#251C1C"/>
<path d="M54.4999 8.11955C53.8822 11.826 52.6467 15.0912 49.4697 17.3856C48.3225 18.1799 47.087 18.3564 45.8516 17.7386C44.6161 17.0327 44.1748 15.8854 44.2631 14.4734C44.4396 12.0025 44.7043 9.44328 46.381 7.50181C47.5283 6.17808 48.852 4.9426 50.1757 3.79537C51.323 2.82463 53.3527 3.53062 53.8822 5.1191C54.2352 6.08983 54.3234 7.14881 54.4999 8.11955ZM53.2644 7.67831C53.2644 6.70757 53.2644 5.64859 52.2937 4.85435C51.7642 4.41311 51.2347 4.23661 50.7052 4.67785C49.4697 5.82509 48.146 6.97232 46.9988 8.2078C45.8516 9.44328 45.7633 11.12 45.4986 12.7085C45.4103 13.6792 45.3221 14.6499 45.4986 15.6207C45.8516 17.0327 46.9988 17.3856 48.2343 16.7679C51.4995 15.4442 53.6174 10.414 53.2644 7.67831Z" fill="#251C1C"/>
<path d="M31.8202 10.3257C31.7319 6.7958 33.0556 3.97184 35.7031 1.67738C37.5563 0.0889081 38.8801 0.971394 39.586 2.82461C40.8215 6.00156 40.645 9.17851 39.1448 12.179C38.4388 13.5909 37.4681 14.9147 36.4973 16.1501C35.0854 17.8269 33.2321 16.7679 32.7027 15.3559C32.1732 13.7674 31.9084 12.0025 31.5554 10.3257C31.6437 10.3257 31.7319 10.3257 31.8202 10.3257ZM32.8791 10.3257C32.8791 10.767 32.7909 11.3847 32.8791 11.9142C33.1439 13.0614 33.3204 14.2087 33.8499 15.1794C34.4676 16.3266 35.1736 16.3266 36.0561 15.3559C38.4388 12.7967 39.6743 9.79625 39.4095 6.26631C39.3213 4.85433 39.1448 3.3541 38.0858 2.29512C37.9093 2.11862 37.3798 1.94213 37.2916 2.03038C36.4091 2.73636 35.3501 3.44235 34.6441 4.32484C33.0556 6.00156 32.7027 8.03128 32.8791 10.3257Z" fill="#251C1C"/>
<path d="M26.9677 9.88485C26.8795 12.2676 26.5265 14.0325 25.644 15.621C24.7615 17.2977 23.3495 17.4742 21.9375 16.1505C20.5256 14.8268 19.6431 13.2383 19.4666 11.2968C19.2901 9.17887 18.8488 7.14915 19.6431 5.11943C20.1726 3.70746 21.0551 2.64847 22.5553 2.38373C23.4378 2.20723 24.232 2.38373 24.7615 3.08972C25.3792 3.9722 26.0852 4.85469 26.4382 5.91367C26.7912 7.32565 26.8795 8.91412 26.9677 9.88485ZM26.0852 10.2378C25.997 9.53186 25.8205 8.64937 25.8205 7.67864C25.7322 6.53141 25.3792 5.47243 24.7615 4.50169C23.526 2.73672 22.2023 2.82497 21.0551 4.41344C20.5256 5.11943 20.2608 6.09017 20.1726 6.8844C20.0843 7.85514 20.2608 8.73762 20.2608 9.70836C20.4373 11.8263 20.9668 13.6795 22.467 15.268C23.4378 16.2388 24.0555 16.2388 24.7615 15.0033C25.644 13.6795 26.0852 12.0911 26.0852 10.2378Z" fill="#251C1C"/>
<path d="M14.0819 16.3264C15.7587 16.3264 16.6412 17.4736 17.5236 18.6209C18.0531 19.4151 18.4061 20.4741 18.6709 21.3566C19.0239 22.4155 18.6709 23.4745 17.9649 24.357C17.6119 24.71 16.9059 24.9748 16.3764 24.9748C14.8762 24.8865 13.9055 23.7393 13.1112 22.6803C12.4935 21.7978 12.0522 20.8271 11.5227 19.9446C11.0815 18.9739 11.3462 18.0914 12.1405 17.3854C12.67 16.9441 13.2877 16.5911 13.9055 16.1499C13.9937 16.2382 13.9937 16.3264 14.0819 16.3264ZM17.6119 21.9743C17.4354 20.3858 16.7294 18.8856 15.2292 17.8266C14.5232 17.2089 13.8172 17.2089 12.9347 17.9149C12.317 18.3561 12.2287 19.0621 12.4935 19.6798C13.1995 21.1801 13.9937 22.6803 15.4057 23.651C16.5529 24.4453 17.3471 24.0923 17.5236 22.6803C17.6119 22.5038 17.6119 22.3273 17.6119 21.9743Z" fill="#251C1C"/>
<path d="M33.3205 25.5047C35.0854 23.9162 37.8211 23.475 39.7626 24.6222C41.2628 25.5047 42.6748 26.4754 43.9985 27.5344C45.0575 28.3286 45.3223 29.5641 45.1458 30.8879C44.881 33.0058 43.9985 34.9473 42.9395 36.7123C40.8216 40.2422 38.2624 43.3309 35.4384 46.2431C34.7324 47.0373 33.6734 47.6551 32.6145 48.0081C30.8495 48.5376 29.0845 47.5668 28.202 45.8901C26.5253 42.5367 24.6721 39.1832 23.0836 35.7415C22.3776 34.3295 21.7599 32.8293 21.6716 31.2408C21.4951 28.6816 22.5541 26.4754 25.1133 25.2399C27.3196 24.181 29.4375 24.6222 31.4672 25.7694C32.085 26.1224 32.6145 26.6519 33.2322 27.0932C33.4087 27.1814 33.7617 27.2697 33.8499 27.1814C34.0264 27.0049 34.1147 26.7402 34.0264 26.5637C33.9382 26.2989 33.5852 25.9459 33.3205 25.5047Z" fill="white"/>
<path d="M53.2654 7.67861C53.6184 10.4143 51.4122 15.4445 48.3235 16.8565C46.9998 17.3859 45.8526 17.033 45.5878 15.7092C45.4113 14.8267 45.4113 13.7678 45.5878 12.797C45.7643 11.2085 45.9408 9.53183 47.088 8.29635C48.2353 7.06087 49.559 5.91364 50.7945 4.7664C51.324 4.32516 51.8535 4.41341 52.383 4.9429C53.2654 5.64889 53.3537 6.70787 53.2654 7.67861Z" fill="white" stroke="#221E1F" stroke-width="0.3568" stroke-miterlimit="10"/>
<path d="M32.879 10.3258C32.7025 8.03132 33.0555 6.00161 34.5557 4.23664C35.35 3.35415 36.3207 2.64816 37.2032 1.94217C37.3797 1.85393 37.8209 2.03042 37.9974 2.20692C39.1447 3.35415 39.2329 4.85438 39.4094 6.26635C39.6742 9.79629 38.4387 12.7967 36.056 15.356C35.1735 16.3267 34.4675 16.3267 33.8498 15.1795C33.3203 14.2087 33.1438 13.0615 32.879 11.9143C32.7908 11.3848 32.879 10.767 32.879 10.3258Z" fill="white" stroke="#221E1F" stroke-width="0.3568" stroke-miterlimit="10"/>
<path d="M26.084 10.2371C25.9958 12.1785 25.6428 13.6788 24.8485 15.0908C24.1425 16.238 23.5248 16.3262 22.5541 15.3555C21.0538 13.767 20.4361 11.9138 20.3478 9.79584C20.2596 8.82511 20.0831 7.85437 20.2596 6.97189C20.3478 6.17765 20.6126 5.20691 21.0538 4.58917C22.2011 2.91245 23.613 2.8242 24.7603 4.67742C25.378 5.64816 25.731 6.61889 25.8193 7.85437C25.8193 8.64861 25.9958 9.53109 26.084 10.2371Z" fill="white" stroke="#221E1F" stroke-width="0.3568" stroke-miterlimit="10"/>
<path d="M17.6117 21.9748C17.6117 22.3278 17.6117 22.5043 17.6117 22.6808C17.4352 24.0928 16.6409 24.4458 15.4937 23.6516C14.0817 22.6808 13.2875 21.1806 12.5815 19.6804C12.3168 19.0626 12.405 18.3566 13.0228 17.9154C13.817 17.2977 14.523 17.2977 15.3172 17.8272C16.7292 18.8861 17.4352 20.3864 17.6117 21.9748Z" fill="white" stroke="#221E1F" stroke-width="0.3568" stroke-miterlimit="10"/>
<path d="M50.1678 87.5671C51.8445 87.3906 53.5212 87.2141 55.198 87.0376C56.6099 86.8612 57.4924 87.3024 57.8454 88.6261C58.2867 90.3028 58.5514 92.0678 58.7279 93.8328C58.8161 95.1565 58.1102 95.5978 56.8747 95.5978C52.8152 95.5095 48.7558 95.5095 44.6964 95.4213C42.9314 95.4213 41.1664 95.333 39.4015 95.333C38.519 95.333 37.9895 94.8035 37.9012 93.921C37.7247 90.2146 38.4307 86.6847 40.5487 83.596C41.3429 82.4487 42.9314 81.7427 44.2551 80.9485C45.3141 80.3308 46.5496 80.066 47.6968 79.5365C48.7558 79.007 49.903 78.3893 50.7855 77.5951C54.6685 73.7121 52.9035 66.8287 47.6086 65.0638C45.1376 64.2695 42.6667 66.0345 42.5784 68.7702C42.5784 69.9174 42.7549 71.1529 42.9314 72.3001C43.1079 74.3299 42.6667 74.7711 40.7252 74.2416C39.4897 73.8886 38.2542 73.5356 37.0187 73.3591C36.048 73.1826 35.6068 72.6531 35.5185 71.7706C35.4303 71.2412 35.342 70.7117 35.5185 70.1822C36.754 66.3875 38.2542 62.681 41.8724 60.4748C44.0786 59.1511 46.5496 58.9746 48.9323 60.0336C53.1682 62.0633 56.1687 65.3285 58.1102 69.5644C58.4632 70.4469 58.5514 71.5942 58.3749 72.5649C57.6689 76.7126 54.7567 79.1835 51.4915 81.3015C50.3443 82.0075 49.1971 82.8017 48.0498 83.5077C47.6968 83.6842 47.3438 83.9489 47.1673 84.2137C46.7261 84.9197 46.4613 85.7139 46.1084 86.5082C46.8143 86.7729 47.5203 87.0376 48.2263 87.2141C48.8441 87.3024 49.55 87.2141 50.1678 87.2141C50.1678 87.4789 50.1678 87.5671 50.1678 87.5671ZM52.9035 94.0975C53.2565 94.0093 53.6977 94.0975 54.0507 94.0093C57.3159 94.0093 57.3159 94.0093 56.9629 90.6558C56.7864 88.6261 56.3452 88.4496 54.3155 88.4496C51.668 88.5379 48.9323 88.6261 46.2848 88.3614C44.6081 88.1849 43.9904 86.6847 44.8729 85.1844C45.4906 84.2137 46.3731 83.243 47.3438 82.4487C49.7265 80.5955 52.2858 79.0953 54.5802 77.1538C57.4042 74.7711 57.7572 71.0647 55.9039 67.8877C54.2272 65.0638 51.9328 63.034 49.1088 61.3573C46.9908 60.1218 44.8729 60.1218 42.7549 61.0926C38.9602 62.9458 37.3717 66.3875 36.5775 70.2704C36.401 71.2412 36.6658 71.8589 37.813 72.1236C38.6072 72.3001 39.4015 72.5649 40.1957 72.8296C41.0782 73.0944 41.3429 72.7414 41.3429 71.9471C41.3429 70.7999 41.3429 69.5644 41.3429 68.4172C41.3429 66.3875 42.4019 64.9755 44.2551 64.2695C46.9026 63.1223 48.9323 64.1813 50.7855 66.0345C56.3452 71.6824 53.786 78.8305 47.2556 81.0367C45.5789 81.5662 43.9904 82.3605 42.4902 83.243C41.6959 83.6842 40.9899 84.4784 40.5487 85.2727C39.4015 87.3906 38.872 89.5969 38.7837 91.9796C38.7837 93.6563 39.0485 94.0093 40.6369 94.0093C44.7846 94.0975 48.8441 94.0975 52.9035 94.0975Z" fill="#251C1C"/>
<path d="M28.0167 97.5388C25.281 97.5388 25.1927 97.5388 24.3985 94.8913C23.3395 91.2731 22.457 87.655 21.4863 84.0368C21.3098 83.2425 21.0451 82.5365 20.8686 81.7423C20.5156 79.7126 19.1036 79.1831 17.3386 79.0948C17.2504 79.0948 17.0739 79.0948 16.9856 79.0948C14.0734 78.9183 14.1617 78.9183 13.1909 81.7423C11.9554 85.537 10.5435 89.2434 9.30799 92.9499C8.955 93.9206 8.69025 94.8913 8.51375 95.8621C8.16076 97.274 7.45477 97.7153 6.04279 97.4505C4.63082 97.1858 3.30709 96.9211 1.89511 96.7446C0.836131 96.6563 0.571383 96.2151 0.924377 95.1561C4.18957 86.243 7.45477 77.3299 10.72 68.3285C11.5142 66.0341 12.1319 63.7396 12.9262 61.4451C13.0144 61.1804 13.5439 60.8274 13.8969 60.8274C16.9856 60.8274 19.9861 61.5334 22.81 62.9454C23.163 63.1219 23.516 63.7396 23.6043 64.1808C24.222 69.3875 25.987 74.1529 27.7519 79.0066C29.1639 83.066 30.6641 87.1255 31.8996 91.2731C32.3409 92.6851 32.1644 94.3618 32.0761 95.8621C32.0761 96.8328 31.4584 97.5388 30.3994 97.5388C29.5169 97.5388 28.7227 97.5388 28.0167 97.5388ZM30.6641 92.5969C30.6641 92.2439 30.6641 91.5379 30.4876 90.9201C29.2522 87.1255 28.0167 83.2425 26.6047 79.4478C24.6632 74.7707 23.163 69.917 22.2805 64.7986C22.1923 64.2691 21.5745 63.6513 21.1333 63.4748C19.6331 62.9454 18.0446 62.5041 16.4561 62.1511C14.5147 61.7981 14.0734 62.0629 13.2792 63.9161C13.1909 64.1808 13.1027 64.5338 12.9262 64.7986C11.1612 69.3875 9.30799 73.9764 7.63127 78.6536C5.77805 83.6838 4.10133 88.7139 2.4246 93.7441C2.07161 94.8031 2.4246 95.2443 3.48358 95.5091C6.66053 96.3033 6.83703 96.2151 7.89601 93.1264C9.57273 88.3609 11.3377 83.5955 13.0144 78.8301C13.3674 77.9476 13.8087 77.5064 14.7794 77.5946C16.4561 77.7711 18.2211 77.7711 19.8978 78.0359C20.3391 78.1241 20.9568 78.6536 21.1333 79.1831C21.751 80.7716 22.1923 82.36 22.6335 83.9485C23.6043 87.4785 24.4867 91.0084 25.4575 94.5383C25.634 95.0678 25.987 95.6856 26.4282 95.8621C29.3404 97.0975 30.5759 96.2151 30.5759 93.0381C30.6641 93.0381 30.6641 92.9499 30.6641 92.5969Z" fill="#251C1C"/>
<path d="M19.9854 71.2412V71.3295C19.8972 75.2124 18.75 75.9184 15.22 74.2417C14.867 74.0652 14.4258 73.3592 14.4258 72.9179C14.514 71.7707 14.7788 70.5352 15.0435 69.388C15.1318 68.8585 15.3965 68.329 16.1025 68.682C16.279 68.7703 16.5437 68.682 16.7202 68.682C19.2795 68.1525 20.0737 68.7703 19.9854 71.2412ZM19.1912 71.3295C18.5735 70.7117 18.2205 70.0057 17.7792 70.0057C16.3673 69.8292 15.7495 70.5352 15.6613 72.1237C15.573 73.7122 17.0732 73.0062 17.7792 73.5357C18.1322 72.8297 18.5735 72.212 19.1912 71.3295Z" fill="#251C1C"/>
</svg>
