<svg width="59" height="100" viewBox="0 0 59 100" fill="none" xmlns="http://www.w3.org/2000/svg">
<path d="M48.8944 10.3074C48.6268 10.3074 48.3592 10.4864 48.0916 10.7549C47.7348 11.2024 47.3781 11.6498 47.1105 12.1868C46.8429 12.2763 46.6645 12.3658 46.4861 12.5448C45.4158 13.7082 44.7914 15.1402 44.9698 16.7511C45.059 17.6461 45.8618 18.4515 46.7537 18.2725C47.3781 18.541 48.27 18.4515 48.716 17.7356C50.0539 15.9456 50.8566 13.9767 51.3026 11.8288C51.7486 10.3074 49.9647 9.32296 48.8944 10.3074Z" fill="white"/>
<path d="M36.2295 4.31111C35.0699 2.43171 32.9293 2.6107 31.7698 4.40061C30.6102 6.36951 30.4318 8.7859 30.8778 10.9338C30.967 11.2918 31.2346 11.5603 31.5022 11.8287C31.5914 11.9182 31.5914 12.0077 31.6806 12.0077C31.6806 12.4552 31.7698 12.9027 31.8589 13.3502C32.0373 14.6926 33.9996 14.7821 34.624 13.7082C34.9807 12.9922 35.3375 12.2762 35.6051 11.5603C35.9619 11.0233 36.3187 10.4863 36.497 9.94934C37.2106 8.15943 37.2106 5.92204 36.2295 4.31111Z" fill="white"/>
<path d="M18.5695 7.98076C18.3911 7.89126 18.3019 7.89126 18.1236 7.80176C17.9452 7.71227 17.6776 7.62277 17.41 7.62277C15.3585 7.35429 13.1287 8.51773 13.0395 10.7551C12.9503 12.6345 14.2882 14.2455 15.9829 14.7824C16.3397 15.4089 16.8748 15.9459 17.4992 16.3933C18.2128 16.9303 19.1047 16.4828 19.5507 15.8564C20.3534 14.7824 20.8886 13.44 20.8886 12.0976C21.3345 10.3971 20.4426 8.51773 18.5695 7.98076Z" fill="white"/>
<path d="M11.5225 23.7319C10.0954 21.226 4.4762 19.9731 3.40587 23.4634C2.87071 25.1638 3.76265 26.6852 5.10056 27.4907C5.45734 28.2067 5.9925 28.7436 6.79525 29.1016C9.91704 30.5336 13.2172 26.6852 11.5225 23.7319Z" fill="white"/>
<path d="M36.2295 32.2338C35.5159 32.0548 34.4456 32.5022 34.3564 33.3077C34.2672 33.9342 34.178 34.5606 34.0888 35.1871C33.9104 35.0081 33.732 34.8291 33.5537 34.6501C32.8401 33.9342 32.0374 32.7707 30.967 32.5022C28.648 31.9653 27.8452 35.5451 30.0751 35.9031C30.2535 35.9031 30.4319 35.9031 30.6103 35.9031C31.0562 36.3506 31.5022 36.8875 31.859 37.2455C32.5725 37.9615 33.2861 38.6774 33.9996 39.4829C34.7132 40.1989 36.3187 40.0199 36.4971 38.8564C36.7647 37.2455 36.943 35.7241 37.2106 34.1132C37.4782 33.3077 37.1214 32.5022 36.2295 32.2338Z" fill="#39B100"/>
<path d="M25.4145 78.2971C26.3956 78.6551 27.2876 79.1026 28.2687 79.4606C32.0149 80.624 34.5123 83.3089 36.3854 86.4412C36.8313 87.2467 36.8313 88.7681 36.3854 89.5736C34.4231 93.1534 31.3905 95.5698 27.466 96.9122C23.7198 98.1652 19.8845 99.0601 15.8707 99.0601C13.6409 99.0601 11.411 98.4337 9.18117 97.8967C8.7352 97.8072 8.28923 96.7332 8.37842 96.1068C8.46762 93.9589 8.82439 91.9005 9.09197 89.7526C9.27036 88.5891 9.35955 87.4257 9.53794 86.2622C10.5191 80.445 10.2515 74.6278 10.1623 68.8106C10.1623 66.7522 10.4299 64.6938 10.6083 62.7249C10.6975 62.0089 11.0542 61.472 11.9462 61.3825C16.5843 60.935 21.2224 60.8455 25.6821 62.1879C29.6958 63.4409 32.9068 65.7677 35.0475 69.4371C35.761 70.6005 35.5826 72.2114 34.5123 73.1959C33.0852 74.3593 31.4797 75.4333 29.8742 76.3282C28.5363 77.0442 26.9308 77.4917 25.5037 78.0287C25.4145 78.1181 25.4145 78.2076 25.4145 78.2971ZM16.0491 97.9862C19.1709 97.3597 22.2927 96.5542 25.3253 96.0173C29.0715 95.3908 31.8365 93.2429 34.1555 90.558C35.4934 89.0366 35.5826 87.5152 34.6015 86.0833C31.3013 81.4295 26.7524 79.3711 21.2224 79.0131C20.8656 79.0131 20.5088 78.5656 20.0629 78.2971C20.4196 78.0286 20.6872 77.5812 21.044 77.4917C23.1846 76.8652 25.5037 76.4177 27.5552 75.6123C29.339 74.8963 31.1229 73.9118 32.7284 72.9274C34.1555 72.0324 34.3339 70.7795 33.442 69.3476C33.1744 68.8106 32.8176 68.3631 32.3716 68.0051C29.9634 65.5888 27.1984 63.7988 23.7198 63.1724C20.4196 62.5459 17.1194 62.2774 13.7301 62.6354C12.2138 62.8144 11.7678 63.0829 11.6786 64.6043C11.5002 66.8417 11.411 68.9896 11.411 71.227C11.5002 76.6862 11.5894 82.2349 10.6975 87.6942C10.2515 90.2001 10.1623 92.7954 9.89472 95.3013C9.80553 96.1068 9.98391 96.6437 10.8759 96.9122C12.6597 97.0912 14.2652 97.5387 16.0491 97.9862Z" fill="#251C1C"/>
<path d="M50.122 75.7022C49.4977 76.5971 48.9625 77.4921 48.3381 78.387C48.1597 78.6555 47.9814 79.0135 47.803 79.282C46.2867 81.1614 46.2867 81.1614 44.146 79.998C43.6108 79.7295 43.0757 79.461 42.4513 79.1925C41.2918 78.6555 41.1134 78.2975 41.7378 77.1341C43.5217 74.0017 45.3947 70.8694 47.1786 67.6476C47.8922 66.4841 48.4273 65.2312 49.1409 64.0677C49.7652 62.9938 50.122 63.0833 51.1032 63.7097C51.5491 64.0677 52.1735 64.1572 52.7086 64.3362C54.1357 64.8732 55.6521 65.3207 57.0792 65.8576C58.2387 66.2156 58.5955 67.0211 58.4171 68.274C57.9711 71.9433 57.4359 75.6127 57.1683 79.3715C56.99 81.3404 57.0792 83.3988 56.99 85.3677C56.9008 88.321 56.9008 91.2744 56.6332 94.1383C56.544 95.6597 55.9196 95.7492 54.4925 95.3017C52.6194 94.7647 50.7464 94.2278 48.8733 93.9593C47.8922 93.7803 47.6246 93.4223 47.7138 92.4379C48.5165 87.4261 49.4085 82.4143 50.2112 77.4026C50.3004 76.8656 50.3004 76.3286 50.3896 75.7917C50.3896 75.7917 50.2112 75.7917 50.122 75.7022ZM57.1683 68.7215C57.2575 68.632 57.3467 68.632 57.4359 68.5425C57.1684 68.095 56.9008 67.2896 56.544 67.2001C54.7601 66.4841 52.9762 65.9471 51.1923 65.4997C50.8356 65.4102 50.122 65.7681 49.8544 66.1261C47.803 69.4375 45.8407 72.7488 43.9676 76.0601C42.9865 77.8501 43.0757 77.8501 44.7704 78.745C45.6623 79.1925 46.1975 79.1925 46.7326 78.2975C48.2489 75.9707 49.7652 73.7333 51.2815 71.4959C51.4599 71.2274 51.9059 71.0484 52.2627 70.8694C52.4411 71.2274 52.6194 71.4959 52.7086 71.8539C52.7978 72.0328 52.6194 72.3013 52.6194 72.5698C51.5491 78.745 50.568 85.0097 49.4977 91.1849C49.3193 92.1694 49.676 92.5273 50.4788 92.7063C51.7275 92.9748 52.9762 93.3328 54.2249 93.7803C54.9385 94.0488 55.2953 93.8698 55.3845 93.0643C55.5629 90.6479 55.7412 88.2316 55.8304 85.8152C55.9196 83.6673 55.7412 81.4299 55.9196 79.282C56.2764 75.7917 56.7224 72.3013 57.1683 68.7215Z" fill="#251C1C"/>
<path d="M20.9545 92.8849C20.1517 92.7954 19.2598 92.7059 18.457 92.6164C17.2975 92.5269 16.8515 91.8109 16.9407 90.8265C17.1191 88.4101 17.3867 86.0832 17.6543 83.6668C17.7435 82.6824 18.2786 82.1454 19.349 82.5929C19.4382 82.6824 19.6166 82.6824 19.7058 82.6824C22.4708 82.3244 24.6114 83.5773 26.7521 85.0988C27.8224 85.9042 29.0711 86.6202 28.8928 88.1416C28.7144 89.663 27.7332 90.916 26.3953 91.4529C24.7006 92.0794 23.0059 92.5269 21.2221 93.0639C21.0437 93.0639 20.9545 92.9744 20.9545 92.8849ZM18.3678 88.7681C18.457 91.1845 18.7246 91.5424 21.1329 91.274C22.6492 91.095 24.1655 90.737 25.5926 90.2C27.5548 89.3945 27.644 87.6046 25.9493 86.3517C25.2358 85.8147 24.5222 85.4567 23.8087 84.9198C22.6492 84.1143 21.3113 84.0248 20.0625 84.2038C19.6166 84.2933 19.0814 84.7408 18.9922 85.0988C18.6354 86.3517 18.5462 87.5151 18.3678 88.7681Z" fill="#251C1C"/>
<path d="M18.1006 75.344C17.7439 75.344 17.2979 75.344 16.9411 75.344C16.0492 75.344 15.6924 74.8966 15.6924 74.0016C15.6924 71.4957 15.7816 69.0793 15.8708 66.5735C15.8708 66.2155 16.1384 65.768 16.4059 65.589C19.7061 63.7991 24.3442 64.873 26.6633 67.9159C28.3579 70.0638 27.912 72.5697 25.3253 73.5541C23.0063 74.4491 20.5089 74.8966 18.1006 75.523C18.1006 75.523 18.1006 75.4335 18.1006 75.344ZM17.3871 70.4218H17.2979C17.2979 71.2272 17.2087 72.0327 17.2979 72.8382C17.3871 73.1961 17.833 73.8226 18.1006 73.8226C20.4197 73.7331 22.7387 73.5541 24.7902 72.3907C26.3957 71.4957 26.5741 70.2428 25.5037 68.7214C24.1658 66.7525 22.1144 66.305 19.9737 65.947C18.5466 65.768 17.2979 67.1104 17.2979 68.5424C17.3871 69.1688 17.3871 69.7953 17.3871 70.4218Z" fill="#251C1C"/>
<path d="M34.6243 47.1795C31.1457 47.09 28.2915 45.9266 25.6157 44.1367C24.813 43.5997 24.0994 42.9732 23.3859 42.4363C21.5128 41.0938 20.9776 39.0354 20.3533 36.8875C19.0153 32.3232 21.602 26.327 25.9725 24.0897C27.578 23.2842 29.4511 22.8367 31.2349 23.3737C32.1269 23.6422 32.7512 23.3737 33.3756 22.8367C35.0703 21.2258 37.1217 20.4203 39.3516 20.0623C41.0463 19.7939 42.3842 20.6888 43.7221 21.5838C45.3276 22.6577 46.0412 24.4476 47.1115 25.9691C48.1818 27.58 48.4494 29.3699 48.6278 31.1598C48.717 32.5917 48.4494 34.1132 48.271 35.5451C47.7359 38.3195 46.4871 40.8253 44.5249 42.8837C43.4545 44.0472 42.2058 45.0316 40.9571 45.8371C40.2435 46.2846 39.2624 46.3741 38.3705 46.5531C37.0326 46.911 35.6946 47.0005 34.6243 47.1795ZM22.1371 34.3816C22.4047 35.2766 22.5831 36.7085 23.0291 38.051C23.2967 38.9459 23.6534 39.8409 24.2778 40.4674C25.7941 41.9888 27.4888 43.3312 29.5402 44.2262C33.4648 45.8371 37.3001 45.6581 40.8679 43.3312C46.3087 39.8409 47.6467 33.6657 46.4871 28.2065C46.1304 26.685 45.1492 25.1636 44.2573 23.8212C43.2761 22.4787 42.0274 21.4048 40.2435 21.4048C38.7272 21.4048 37.3001 21.7628 35.9622 22.6577C34.3567 23.7317 34.4459 24.3581 35.873 25.5216C36.5866 26.0586 37.3001 26.7745 38.0137 27.401C38.4597 27.8485 38.4597 28.3854 38.0137 28.7434C37.5677 29.1014 37.2109 29.0119 36.8542 28.5644C35.2487 26.2375 32.9296 25.2531 30.343 24.8056C27.3996 24.3581 25.3481 26.0586 23.7426 28.2959C22.4047 29.9069 22.3155 31.9653 22.1371 34.3816Z" fill="#251C1C"/>
<path d="M18.212 17.9146C16.1605 18.0041 14.7334 16.9302 13.4847 15.7667C12.682 15.0508 12.0576 14.2453 11.5224 13.3504C10.1845 11.292 10.5413 9.14407 11.4332 7.08567C12.236 5.47474 13.8415 4.66928 15.5362 4.84827C18.1228 5.02727 20.6202 5.83273 22.2257 8.24911C23.8312 10.755 23.5637 14.1558 21.6906 16.3037C20.7094 17.4672 19.4607 18.0041 18.212 17.9146ZM12.3252 10.1285C12.1468 12.0974 14.7334 15.2298 16.4281 15.9457C18.212 16.6617 19.1931 16.4827 20.3527 15.2298C22.1365 13.2609 21.6014 8.87558 19.2823 7.44365C18.658 7.08567 17.9444 6.90667 17.2309 6.63819C13.9307 5.74323 12.7712 7.26466 12.3252 10.1285Z" fill="#251C1C"/>
<path d="M8.40112 29.9964C4.74416 30.0859 1.62236 27.1325 0.641229 24.0897C0.373646 23.3737 0.641229 22.8367 1.17639 22.4788C1.97914 22.1208 2.33592 21.4943 2.6035 20.7783C3.13866 19.7939 3.76302 18.8989 4.92255 18.8989C5.81449 18.8989 6.88482 19.0779 7.68756 19.4359C9.20387 20.2414 10.7202 21.1363 12.0581 22.2998C13.3068 23.3737 14.0203 24.8951 13.4852 26.5956C12.8608 28.5645 11.4337 29.5489 9.47145 29.9069C9.11467 29.9964 8.75789 29.9069 8.40112 29.9964ZM8.40112 28.475C8.84709 28.3855 9.29306 28.3855 9.73903 28.2065C11.3445 27.6695 12.2365 25.7901 11.4337 24.6266C10.0958 22.5682 8.31192 21.1363 5.90368 20.5993C4.92255 20.3309 4.29819 20.8678 3.94141 21.7628C3.76302 22.2103 3.40625 22.7472 3.04947 22.9262C2.15753 23.2842 2.42511 23.7317 2.6035 24.2687C2.69269 24.5372 2.96028 24.8951 3.13866 25.1636C4.47658 26.9535 5.99288 28.296 8.40112 28.475Z" fill="#251C1C"/>
<path d="M38.4599 6.54871C38.1031 9.05459 37.568 11.292 36.3193 13.3504C35.4273 14.8718 33.7326 15.4983 32.0379 15.6773C30.8784 15.7668 29.8973 14.9613 29.3621 13.9768C26.7755 9.94955 27.6674 4.84829 30.8784 2.16343C33.465 0.0155298 36.5868 0.552504 37.8356 4.13233C38.1923 4.93779 38.2815 5.83275 38.4599 6.54871ZM29.3621 8.7861C29.5405 9.68106 29.7189 11.113 30.2541 12.3659C31.2352 14.4243 32.3055 14.8718 34.2678 13.2609C34.357 13.2609 34.357 13.1714 34.357 13.1714C36.2301 11.292 36.7652 8.96509 36.8544 6.45922C36.9436 5.20628 36.4977 4.13233 35.6949 3.23737C35.2489 2.6109 34.6246 2.43191 33.8218 2.6109C33.2867 2.7004 32.6623 2.78989 32.1271 2.96889C31.8596 3.05838 31.5028 3.23737 31.2352 3.41636C30.0757 4.6693 29.5405 6.45922 29.3621 8.7861Z" fill="#251C1C"/>
<path d="M52.6411 11.8286C52.5519 15.4084 50.2329 18.8988 46.1299 18.8093C44.4353 18.8093 43.6325 18.2723 43.2757 16.5719C42.5622 13.6185 44.3461 9.6807 47.0219 8.33827C49.6977 6.99583 52.6411 8.87524 52.6411 11.8286ZM46.3083 17.3773C49.8761 17.2878 51.4816 14.3345 51.3032 11.2021C51.3032 10.3967 50.6788 9.85969 49.8761 9.6807C48.5382 9.41221 47.2003 9.5912 46.1299 10.6652C44.7028 12.1866 44.4353 14.1555 44.6136 16.1244C44.7028 17.1983 45.1488 17.3773 46.3083 17.3773Z" fill="#251C1C"/>
<path d="M31.056 30.1758C32.3939 30.2653 33.6426 30.7128 34.5345 31.8762C34.9805 32.5027 35.4265 32.4132 35.8724 31.9657C36.14 31.6972 36.4968 31.3392 36.7644 31.0707C37.6563 30.3548 38.6375 30.2653 39.4402 30.8023C40.4213 31.4287 40.7781 32.5027 40.4214 33.5766C39.9754 34.8296 39.7078 36.172 39.0834 37.3354C38.4591 38.4989 37.4779 39.5728 36.4968 40.5573C36.0508 41.0048 35.5157 41.0048 34.9805 40.5573C34.267 39.9308 33.4642 39.3938 32.6615 38.7674C30.8776 37.2459 29.3613 35.456 28.5585 33.1291C28.1126 31.1602 29.4505 30.2653 31.056 30.1758ZM31.9479 31.9657C30.8776 31.9657 30.5208 32.5922 30.9668 33.3081C32.0371 35.277 33.4642 36.888 35.1589 38.2304C35.6941 38.6779 36.14 38.5884 36.4968 38.0514C37.1212 37.1564 37.7455 36.2615 38.2807 35.277C38.6375 34.7401 38.8159 34.1136 38.9942 33.4871C39.0834 33.2186 38.8159 32.7712 38.5483 32.5922C38.4591 32.5027 37.9239 32.7712 37.7455 32.9501C37.4779 33.2186 37.3887 33.6661 37.1212 33.9346C36.6752 34.5611 36.3184 35.277 35.6941 35.814C34.9805 36.351 34.5345 36.0825 34.1778 35.1875C33.9102 34.3821 33.6426 33.5766 33.1966 32.8607C32.8398 32.4132 32.2155 32.1447 31.9479 31.9657Z" fill="#251C1C"/>
</svg>
