<svg width="99" height="167" viewBox="0 0 99 167" fill="none" xmlns="http://www.w3.org/2000/svg">
<path d="M81.863 16.3326C81.41 16.3326 80.9571 16.6356 80.5041 17.0901C79.9001 17.8477 79.2962 18.6052 78.8432 19.5142C78.3902 19.6657 78.0882 19.8172 77.7863 20.1202C75.9744 22.0897 74.9174 24.5137 75.2194 27.2407C75.3704 28.7558 76.7293 30.1193 78.2392 29.8163C79.2962 30.2708 80.8061 30.1193 81.561 28.9073C83.8259 25.8772 85.1848 22.5442 85.9398 18.9082C86.6947 16.3326 83.6749 14.6661 81.863 16.3326Z" fill="white"/>
<path d="M60.423 6.18199C58.4602 3.00046 54.8364 3.30346 52.8735 6.33349C50.9106 9.66653 50.6086 13.7571 51.3636 17.3931C51.5146 17.9991 51.9675 18.4536 52.4205 18.9081C52.5715 19.0596 52.5715 19.2111 52.7225 19.2111C52.7225 19.9686 52.8735 20.7261 53.0245 21.4836C53.3265 23.7562 56.6483 23.9077 57.7052 22.0897C58.3092 20.8776 58.9131 19.6656 59.3661 18.4536C59.9701 17.5446 60.574 16.6356 60.876 15.7266C62.0839 12.6966 62.084 8.90902 60.423 6.18199Z" fill="white"/>
<path d="M30.5275 12.3938C30.2255 12.2423 30.0745 12.2423 29.7725 12.0908C29.4705 11.9393 29.0175 11.7878 28.5646 11.7878C25.0918 11.3333 21.317 13.3028 21.166 17.0904C21.015 20.2719 23.2799 22.9989 26.1487 23.9079C26.7527 24.9684 27.6586 25.8775 28.7156 26.635C29.9235 27.544 31.4334 26.7865 32.1884 25.726C33.5473 23.9079 34.4532 21.6354 34.4532 19.3629C35.2082 16.4844 33.6983 13.3028 30.5275 12.3938Z" fill="white"/>
<path d="M18.5983 39.0582C16.1825 34.8161 6.67005 32.6951 4.85815 38.6037C3.95221 41.4822 5.46212 44.0577 7.72698 45.4212C8.33095 46.6332 9.2369 47.5422 10.5958 48.1483C15.8805 50.5723 21.4672 44.0577 18.5983 39.0582Z" fill="white"/>
<path d="M60.4234 53.4506C59.2155 53.1476 57.4036 53.9051 57.2526 55.2686C57.1016 56.3291 56.9506 57.3896 56.7996 58.4501C56.4976 58.1471 56.1957 57.8441 55.8937 57.5411C54.6857 56.3291 53.3268 54.3596 51.5149 53.9051C47.5892 52.9961 46.2302 59.0561 50.005 59.6622C50.307 59.6622 50.609 59.6622 50.911 59.6622C51.6659 60.4197 52.4209 61.3287 53.0248 61.9347C54.2328 63.1467 55.4407 64.3587 56.6486 65.7222C57.8566 66.9342 60.5744 66.6312 60.8764 64.6617C61.3294 61.9347 61.6313 59.3592 62.0843 56.6321C62.5373 55.2686 61.9333 53.9051 60.4234 53.4506Z" fill="#39B100"/>
<path d="M42.1153 131.428C43.7762 132.034 45.2861 132.792 46.947 133.398C53.2887 135.367 57.5164 139.912 60.6872 145.215C61.4422 146.578 61.4422 149.154 60.6872 150.517C57.3654 156.577 52.2317 160.668 45.5881 162.941C39.2465 165.062 32.7539 166.577 25.9593 166.577C22.1845 166.577 18.4097 165.516 14.6349 164.607C13.88 164.456 13.125 162.638 13.276 161.577C13.427 157.941 14.031 154.456 14.4839 150.82C14.7859 148.851 14.9369 146.881 15.2389 144.912C16.8998 135.064 16.4468 125.217 16.2958 115.369C16.2958 111.885 16.7488 108.4 17.0508 105.067C17.2018 103.855 17.8058 102.946 19.3157 102.794C27.1672 102.037 35.0187 101.885 42.5683 104.158C49.3629 106.279 54.7986 110.218 58.4224 116.43C59.6303 118.399 59.3283 121.126 57.5164 122.793C55.1006 124.762 52.3827 126.58 49.6649 128.095C47.4 129.307 44.6822 130.065 42.2663 130.974C42.1153 131.125 42.1153 131.277 42.1153 131.428ZM26.2613 164.759C31.5459 163.698 36.8306 162.335 41.9643 161.426C48.306 160.365 52.9867 156.729 56.9125 152.184C59.1773 149.608 59.3283 147.033 57.6674 144.609C52.0807 136.731 44.3802 133.246 35.0187 132.64C34.4148 132.64 33.8108 131.883 33.0559 131.428C33.6598 130.974 34.1128 130.216 34.7168 130.065C38.3405 129.004 42.2663 128.247 45.7391 126.883C48.7589 125.671 51.7788 124.005 54.4966 122.338C56.9124 120.823 57.2144 118.702 55.7045 116.278C55.2516 115.369 54.6476 114.612 53.8926 114.006C49.8159 109.915 45.1351 106.885 39.2465 105.824C33.6598 104.764 28.0732 104.309 22.3355 104.915C19.7686 105.218 19.0137 105.673 18.8627 108.248C18.5607 112.036 18.4097 115.672 18.4097 119.46C18.5607 128.701 18.7117 138.094 17.2018 147.336C16.4468 151.578 16.2958 155.971 15.8429 160.214C15.6919 161.577 15.9939 162.486 17.5038 162.941C20.5236 163.244 23.2414 164.001 26.2613 164.759Z" fill="#251C1C"/>
<path d="M83.9412 127.035C82.8842 128.55 81.9783 130.065 80.9213 131.58C80.6194 132.034 80.3174 132.64 80.0154 133.095C77.4486 136.276 77.4486 136.276 73.8248 134.307C72.9188 133.852 72.0129 133.398 70.9559 132.943C68.993 132.034 68.6911 131.428 69.748 129.459C72.7678 124.156 75.9386 118.854 78.9585 113.4C80.1664 111.43 81.0723 109.309 82.2803 107.34C83.3372 105.522 83.9412 105.673 85.6021 106.734C86.357 107.34 87.414 107.491 88.3199 107.794C90.7358 108.703 93.3026 109.461 95.7185 110.37C97.6814 110.976 98.2853 112.339 97.9833 114.46C97.2284 120.672 96.3224 126.883 95.8695 133.246C95.5675 136.579 95.7185 140.064 95.5675 143.397C95.4165 148.397 95.4165 153.396 94.9635 158.244C94.8125 160.82 93.7556 160.971 91.3397 160.214C88.1689 159.305 84.9981 158.396 81.8273 157.941C80.1664 157.638 79.7134 157.032 79.8644 155.366C81.2233 146.882 82.7332 138.397 84.0922 129.913C84.2432 129.004 84.2432 128.095 84.3941 127.186C84.3941 127.186 84.0922 127.186 83.9412 127.035ZM95.8695 115.218C96.0205 115.066 96.1715 115.066 96.3224 114.915C95.8695 114.157 95.4165 112.794 94.8125 112.642C91.7927 111.43 88.7729 110.521 85.7531 109.764C85.1491 109.612 83.9412 110.218 83.4882 110.824C80.0154 116.43 76.6936 122.035 73.5228 127.641C71.8619 130.671 72.0129 130.671 74.8817 132.186C76.3916 132.943 77.2976 132.943 78.2035 131.428C80.7704 127.489 83.3372 123.702 85.9041 119.914C86.206 119.46 86.961 119.157 87.565 118.854C87.8669 119.46 88.1689 119.914 88.3199 120.52C88.4709 120.823 88.1689 121.278 88.1689 121.732C86.357 132.186 84.6961 142.791 82.8842 153.245C82.5823 154.911 83.1862 155.517 84.5451 155.82C86.659 156.275 88.7729 156.881 90.8868 157.638C92.0947 158.093 92.6987 157.79 92.8496 156.426C93.1516 152.336 93.4536 148.245 93.6046 144.155C93.7556 140.519 93.4536 136.731 93.7556 133.095C94.3596 127.186 95.1145 121.278 95.8695 115.218Z" fill="#251C1C"/>
<path d="M34.5651 156.123C33.2062 155.972 31.6963 155.82 30.3374 155.669C28.3745 155.517 27.6195 154.305 27.7705 152.638C28.0725 148.548 28.5255 144.609 28.9785 140.518C29.1295 138.852 30.0354 137.943 31.8473 138.7C31.9983 138.852 32.3003 138.852 32.4513 138.852C37.132 138.246 40.7558 140.367 44.3796 142.942C46.1915 144.306 48.3053 145.518 48.0034 148.093C47.7014 150.669 46.0405 152.79 43.7756 153.699C40.9068 154.76 38.0379 155.517 35.0181 156.426C34.7161 156.426 34.5651 156.275 34.5651 156.123ZM30.1864 149.154C30.3374 153.244 30.7904 153.85 34.8671 153.396C37.434 153.093 40.0008 152.487 42.4167 151.578C45.7385 150.214 45.8895 147.184 43.0206 145.063C41.8127 144.154 40.6048 143.548 39.3969 142.639C37.434 141.276 35.1691 141.124 33.0552 141.427C32.3003 141.579 31.3943 142.336 31.2433 142.942C30.6394 145.063 30.4884 147.033 30.1864 149.154Z" fill="#251C1C"/>
<path d="M29.7344 126.429C29.1304 126.429 28.3754 126.429 27.7715 126.429C26.2616 126.429 25.6576 125.671 25.6576 124.156C25.6576 119.914 25.8086 115.824 25.9596 111.582C25.9596 110.976 26.4126 110.218 26.8655 109.915C32.4522 106.885 40.3037 108.703 44.2295 113.854C47.0983 117.49 46.3434 121.732 41.9646 123.399C38.0389 124.914 33.8111 125.671 29.7344 126.732C29.7344 126.732 29.7344 126.58 29.7344 126.429ZM28.5264 118.096H28.3754C28.3754 119.46 28.2244 120.823 28.3754 122.187C28.5264 122.793 29.2814 123.853 29.7344 123.853C33.6601 123.702 37.5859 123.399 41.0587 121.429C43.7765 119.914 44.0785 117.793 42.2666 115.218C40.0017 111.885 36.529 111.127 32.9052 110.521C30.4893 110.218 28.3754 112.491 28.3754 114.915C28.5264 115.975 28.5264 117.036 28.5264 118.096Z" fill="#251C1C"/>
<path d="M57.7059 78.7514C51.8173 78.5999 46.9856 76.6303 42.4558 73.6003C41.0969 72.6913 39.889 71.6308 38.6811 70.7218C35.5102 68.4493 34.6043 64.9647 33.5474 61.3287C31.2825 53.6021 35.6612 43.4515 43.0598 39.664C45.7776 38.3004 48.9485 37.5429 51.9683 38.4519C53.4782 38.9065 54.5351 38.4519 55.5921 37.5429C58.4609 34.8159 61.9337 33.4524 65.7085 32.8464C68.5773 32.3919 70.8422 33.9069 73.107 35.4219C75.8249 37.2399 77.0328 40.27 78.8447 42.8455C80.6566 45.5725 81.1096 48.6026 81.4115 51.6326C81.5625 54.0566 81.1096 56.6321 80.8076 59.0562C79.9016 63.7527 77.7878 67.9948 74.466 71.4793C72.6541 73.4488 70.5402 75.1153 68.4263 76.4788C67.2184 77.2363 65.5575 77.3878 64.0476 77.6908C61.7827 78.2969 59.5178 78.4484 57.7059 78.7514ZM36.5672 57.0866C37.0202 58.6017 37.3221 61.0257 38.0771 63.2982C38.5301 64.8132 39.134 66.3282 40.191 67.3887C42.7578 69.9643 45.6266 72.2368 49.0994 73.7518C55.7431 76.4788 62.2357 76.1758 68.2753 72.2368C77.4858 66.3282 79.7506 55.8746 77.7878 46.633C77.1838 44.0575 75.5229 41.482 74.013 39.2095C72.3521 36.9369 70.2382 35.1189 67.2184 35.1189C64.6515 35.1189 62.2357 35.7249 59.9708 37.2399C57.253 39.058 57.404 40.1185 59.8198 42.088C61.0277 42.997 62.2357 44.209 63.4436 45.2695C64.1986 46.027 64.1986 46.936 63.4436 47.542C62.6886 48.148 62.0847 47.9965 61.4807 47.239C58.7629 43.3 54.8371 41.6335 50.4584 40.876C45.4757 40.1185 42.0029 42.997 39.285 46.7845C37.0202 49.5116 36.8692 52.9961 36.5672 57.0866Z" fill="#251C1C"/>
<path d="M29.9227 29.2107C26.4499 29.3622 24.034 27.5442 21.9201 25.5747C20.5612 24.3627 19.5043 22.9991 18.5983 21.4841C16.3334 17.9996 16.9374 14.3635 18.4473 10.879C19.8062 8.15199 22.5241 6.78847 25.3929 7.09148C29.7717 7.39448 33.9994 8.75799 36.7173 12.8485C39.4351 17.0906 38.9821 22.8476 35.8113 26.4837C34.1504 28.4532 32.0365 29.3622 29.9227 29.2107ZM19.9572 16.0301C19.6553 19.3631 24.034 24.6657 26.9028 25.8777C29.9227 27.0897 31.5836 26.7867 33.5464 24.6657C36.5663 21.3326 35.6603 13.909 31.7345 11.485C30.6776 10.879 29.4697 10.576 28.2618 10.1215C22.6751 8.60649 20.7122 11.182 19.9572 16.0301Z" fill="#251C1C"/>
<path d="M13.3139 49.6629C7.1233 49.8144 1.83861 44.8148 0.177704 39.6638C-0.27527 38.4518 0.177704 37.5428 1.08365 36.9368C2.44257 36.3308 3.04653 35.2703 3.49951 34.0582C4.40545 32.3917 5.46239 30.8767 7.42528 30.8767C8.93519 30.8767 10.7471 31.1797 12.106 31.7857C14.6729 33.1492 17.2397 34.6642 19.5046 36.6338C21.6184 38.4518 22.8264 41.0273 21.9204 43.9058C20.8635 47.2389 18.4476 48.9054 15.1258 49.5114C14.5219 49.6629 13.9179 49.5114 13.3139 49.6629ZM13.3139 47.0874C14.0689 46.9359 14.8238 46.9359 15.5788 46.6329C18.2966 45.7239 19.8065 42.5423 18.4476 40.5728C16.1828 37.0883 13.1629 34.6642 9.08618 33.7552C7.42528 33.3007 6.36834 34.2097 5.76437 35.7248C5.46239 36.4823 4.85843 37.3913 4.25446 37.6943C2.74455 38.3003 3.19753 39.0578 3.49951 39.9668C3.6505 40.4213 4.10347 41.0273 4.40546 41.4818C6.67032 44.5118 9.23717 46.7844 13.3139 47.0874Z" fill="#251C1C"/>
<path d="M64.1989 9.96974C63.595 14.2118 62.689 17.9993 60.5752 21.4839C59.0652 24.0594 56.1964 25.1199 53.3276 25.4229C51.3647 25.5744 49.7038 24.2109 48.7978 22.5444C44.4191 15.7268 45.929 7.09121 51.3647 2.54617C55.7434 -1.08987 61.0281 -0.180861 63.142 5.8792C63.746 7.24271 63.897 8.75773 64.1989 9.96974ZM48.7978 13.7573C49.0998 15.2723 49.4018 17.6963 50.3078 19.8173C51.9687 23.3019 53.7806 24.0594 57.1024 21.3324C57.2533 21.3324 57.2533 21.1809 57.2533 21.1809C60.4242 17.9993 61.3301 14.0603 61.4811 9.81824C61.6321 7.69722 60.8771 5.8792 59.5182 4.36418C58.7633 3.30367 57.7063 3.00067 56.3474 3.30367C55.4415 3.45518 54.3845 3.60668 53.4786 3.90968C53.0256 4.06118 52.4216 4.36419 51.9687 4.66719C50.0058 6.78821 49.0998 9.81824 48.7978 13.7573Z" fill="#251C1C"/>
<path d="M88.2054 18.9082C88.0544 24.9682 84.1286 30.8768 77.183 30.7253C74.3142 30.7253 72.9553 29.8163 72.3513 26.9377C71.1434 21.9382 74.1632 15.2721 78.6929 12.9996C83.2227 10.7271 88.2054 13.9086 88.2054 18.9082ZM77.485 28.3013C83.5247 28.1498 86.2425 23.1502 85.9405 17.8476C85.9405 16.4841 84.8836 15.5751 83.5247 15.2721C81.2598 14.8176 78.9949 15.1206 77.183 16.9386C74.7672 19.5142 74.3142 22.8472 74.6162 26.1802C74.7672 27.9983 75.5221 28.3013 77.485 28.3013Z" fill="#251C1C"/>
<path d="M51.6653 49.9659C53.9301 50.1174 56.044 50.8749 57.5539 52.8445C58.3089 53.905 59.0638 53.7535 59.8188 52.996C60.2718 52.5415 60.8757 51.9355 61.3287 51.481C62.8386 50.2689 64.4995 50.1174 65.8584 51.0265C67.5193 52.087 68.1233 53.905 67.5193 55.723C66.7644 57.844 66.3114 60.1165 65.2545 62.0861C64.1975 64.0556 62.5366 65.8736 60.8757 67.5401C60.1208 68.2976 59.2148 68.2976 58.3089 67.5401C57.1009 66.4796 55.742 65.5706 54.3831 64.5101C51.3633 61.9346 48.7964 58.9045 47.4375 54.9655C46.6826 51.6325 48.9474 50.1174 51.6653 49.9659ZM53.1752 52.996C51.3633 52.996 50.7593 54.0565 51.5143 55.2685C53.3262 58.6015 55.742 61.3286 58.6109 63.6011C59.5168 64.3586 60.2718 64.2071 60.8757 63.2981C61.9327 61.7831 62.9896 60.268 63.8956 58.6015C64.4995 57.6925 64.8015 56.632 65.1035 55.5715C65.2545 55.117 64.8015 54.3595 64.3485 54.0565C64.1975 53.905 63.2916 54.3595 62.9896 54.6625C62.5366 55.117 62.3856 55.8745 61.9327 56.329C61.1777 57.3895 60.5738 58.6015 59.5168 59.5105C58.3089 60.4195 57.5539 59.965 56.95 58.45C56.497 57.0865 56.044 55.723 55.2891 54.511C54.6851 53.7535 53.6282 53.299 53.1752 52.996Z" fill="#251C1C"/>
</svg>
