<svg width="54" height="102" viewBox="0 0 54 102" fill="none" xmlns="http://www.w3.org/2000/svg">
<path d="M22.3189 85.2731C21.4766 83.1208 19.4179 81.6235 16.8912 81.1556C16.704 81.1556 16.6105 81.062 16.4233 81.062C15.6746 80.7813 14.926 80.5941 14.1774 80.5005C13.803 80.3134 13.4287 80.1262 13.0544 79.9391C13.9902 79.3776 14.8324 78.8161 15.6746 78.0674C16.049 77.7867 16.4233 77.4124 16.7976 77.0381C18.95 75.5408 21.7574 73.6692 21.5702 70.6746C21.5702 70.2067 21.3831 69.7388 21.2895 69.3645C21.2895 69.2709 21.2895 69.1773 21.2895 68.9901C20.9151 66.0892 18.2013 64.6855 15.5811 64.2176C13.7095 63.9368 11.7443 63.7496 9.77909 63.8432C8.46896 63.7496 7.15883 63.8432 5.8487 63.9368C5.19364 63.3753 4.16426 63.3753 3.32204 63.7496C0.888946 64.779 0.701782 67.7736 0.701782 70.1131C0.888943 78.7225 1.07611 87.2383 1.35685 95.8477C1.35685 97.5322 3.60278 97.8129 4.35142 96.6899C4.445 97.0643 4.53858 97.345 4.63216 97.6257C4.63216 98.2808 4.9129 98.9359 5.75513 99.0295C12.2122 100.059 20.1665 97.345 23.2547 91.2623C24.7519 88.5485 24.0969 86.6768 22.3189 85.2731ZM13.6159 68.5222C14.2709 68.6158 15.3939 68.7094 16.4233 68.9901C17.0784 69.5516 17.3591 70.3003 17.0784 71.2361C16.8912 72.0783 16.4233 72.7334 15.9554 73.482C15.3939 74.0435 14.8324 74.5114 14.4581 74.8857L14.3645 74.9793C14.1774 75.0729 13.9902 75.1665 13.803 75.3536C11.8378 76.5702 9.77908 77.5995 7.72031 78.3482C7.43957 78.4418 7.25241 78.6289 7.06525 78.8161C6.97167 75.7279 6.97167 72.5462 6.87809 69.4581C6.87809 68.9901 6.87809 68.4287 6.87809 67.8672C9.12402 68.1479 11.37 68.3351 13.6159 68.5222ZM7.34599 95.3798C7.34599 94.3504 7.34599 93.3211 7.25241 92.2917C7.25241 90.1393 7.15883 87.987 7.15883 85.9282C9.59192 85.8346 11.9314 85.9282 14.3645 86.3025C14.6453 86.3025 15.3939 86.3961 16.2361 86.5833C16.704 87.2383 17.0784 87.987 17.4527 88.7356C17.7334 89.3907 18.1077 89.9522 18.5756 90.3265C18.5756 90.4201 18.4821 90.5136 18.4821 90.6072C17.4527 91.9173 15.9554 92.8531 14.6453 93.6018C12.3993 94.8183 9.96625 95.6606 7.43958 95.9413C7.34599 95.7541 7.34599 95.567 7.34599 95.3798Z" fill="#39B100"/>
<path d="M41.503 89.9512C43.0938 89.764 44.6847 89.4833 46.2756 89.3897C48.1472 89.2961 50.0188 89.2961 51.984 89.2961C53.4813 89.3897 53.6684 89.6705 53.6684 91.1677C53.6684 92.7586 53.5749 94.2559 53.4813 95.8468C53.3877 97.2505 52.7326 97.9991 51.3289 98.0927C49.4573 98.1863 47.6793 97.9991 45.8077 97.9055C44.1232 97.9055 42.5324 97.9991 40.8479 97.9991C38.1341 97.9991 35.4203 98.0927 32.7064 98.0927C30.2733 98.0927 29.9926 97.812 30.7412 95.3789C31.5835 92.9458 32.3321 90.5127 33.4551 88.1732C34.8588 85.3658 37.479 83.5877 39.9121 81.6225C41.5966 80.3124 43.1874 79.0023 44.2168 77.0371C44.9655 75.5398 44.7783 74.1361 43.9361 72.826C42.9067 71.4223 41.503 70.5801 39.8185 70.3929C38.1341 70.2057 37.2919 70.7672 36.824 72.4517C36.6368 73.2003 36.5432 74.0425 36.5432 74.7912C36.4496 76.1013 35.9817 76.7564 34.6716 76.6628C32.8936 76.4756 31.2091 76.1013 29.4311 75.8206C29.1504 75.727 28.8696 75.4462 28.8696 75.1655C28.8696 74.9783 29.1504 74.6976 29.3375 74.4168C29.6183 73.8554 30.0862 73.3875 30.1798 72.826C30.7412 69.3635 32.1449 66.3689 34.8588 64.123C37.2919 62.0642 40.6608 61.5028 43.8425 63.4679C47.305 65.6203 49.6445 68.6149 50.9546 72.3581C51.8904 74.9783 51.4225 77.6922 49.8316 80.1253C47.7729 83.307 45.1526 85.9272 42.4388 88.4539C42.0645 88.8282 41.7837 89.2026 41.4094 89.5769C41.4094 89.764 41.4094 89.8576 41.503 89.9512ZM49.083 96.4082C49.083 96.5018 49.083 96.5954 49.083 96.7826C49.3637 96.7826 49.6445 96.7826 49.9252 96.7826C51.4225 96.7826 51.8904 96.4082 52.0776 94.911C52.1712 93.8816 52.2647 92.8522 52.3583 91.8228C52.4519 91.0742 52.0776 90.6998 51.3289 90.6998C49.8316 90.6998 48.3344 90.6998 46.8371 90.7934C44.8719 90.9806 42.9067 91.3549 40.9415 91.4485C40.2864 91.4485 39.5378 90.9806 38.7892 90.6998C39.0699 90.1384 39.3506 89.4833 39.8185 89.0154C42.4388 86.3951 45.1526 83.7749 47.6793 81.0611C49.7381 78.8151 50.4867 75.9141 49.6445 72.9196C48.4279 68.8956 45.9948 65.8075 41.9709 64.123C40.5672 63.5615 39.1635 63.4679 37.8534 64.0294C33.923 65.5267 32.2385 68.7084 31.5835 72.6388C31.4899 73.481 31.1156 74.604 31.4899 74.9783C32.0514 75.4462 33.1743 75.3527 34.0166 75.5398H34.1101C34.6716 75.6334 34.9524 75.4462 35.0459 74.7912C35.1395 74.0425 35.2331 73.2003 35.4203 72.4517C36.4496 69.3635 38.5084 68.3341 41.4094 69.6442C45.9013 71.703 47.6793 76.1013 43.5618 79.9381C42.0645 81.3418 40.5672 82.7455 38.8827 83.9621C34.9524 86.863 32.8 90.887 31.8642 95.566C31.7706 96.2211 31.8642 96.689 32.6128 96.689C33.8294 96.689 35.1395 96.8761 36.3561 96.8761C40.6608 96.689 44.8719 96.5954 49.083 96.4082Z" fill="#251C1C"/>
<path d="M14.552 79.0962C16.5171 80.1256 18.4823 80.8743 20.1668 81.9972C21.4769 82.8394 22.6934 84.056 23.7228 85.2725C25.8752 87.7992 25.9688 90.7002 23.91 93.3204C21.009 97.2508 17.3594 100.245 12.3996 100.994C8.65639 101.556 4.91318 101.556 1.4507 99.7775C0.608479 99.3096 0.0469971 98.6545 0.0469971 97.7187C0.140577 94.8177 0.421319 91.9167 0.514899 89.1093C0.70206 81.7165 0.702056 74.3236 0.795636 66.9308C0.795636 66.4629 0.795636 65.995 0.795636 65.5271C0.889216 64.4977 1.26354 63.749 2.38651 63.4683C3.60305 63.1876 4.72601 62.6261 5.84898 62.1582C8.28207 61.1288 10.7152 61.4095 13.1483 62.1582C15.7685 63.0004 18.108 64.2169 20.0732 66.1821C20.9154 67.1179 21.9448 67.8666 22.6935 68.7088C24.0972 70.2997 24.0036 72.0777 22.6935 73.575C20.8218 75.7273 18.3888 77.2246 15.7685 78.5347C15.3006 78.7219 14.9263 78.9091 14.552 79.0962ZM8.46923 99.7775C9.68578 99.6839 10.6216 99.6839 11.4638 99.5903C16.0492 98.9353 19.6053 96.5022 22.5063 93.0397C24.2843 90.8874 24.5651 88.3607 22.8806 86.2083C20.9154 83.5881 18.3888 81.6229 15.0199 80.9678C13.8033 80.6871 12.4932 80.5935 11.1831 80.4063C10.8087 80.3128 10.528 79.9384 10.1537 79.7513C10.3408 79.4705 10.528 79.0962 10.7152 79.0026C12.306 78.3476 13.9905 77.8797 15.4878 77.0375C17.453 75.9145 19.4181 74.6044 21.1026 73.2007C22.5063 72.0777 22.6935 70.674 21.5705 69.2703C20.6347 68.0537 19.4181 67.0244 18.108 66.0885C13.8033 62.8132 9.12429 61.5967 3.88379 64.0298C2.10576 64.872 1.82503 65.2463 1.82503 67.2115C1.91861 70.2997 2.10576 73.3878 2.01218 76.476C1.82502 82.7459 1.63787 89.1093 1.35712 95.3792C1.26354 97.9995 2.29293 98.9353 4.8196 99.4032C6.2233 99.5903 7.53343 99.6839 8.46923 99.7775Z" fill="#251C1C"/>
<path d="M6.59739 72.3588C6.50381 70.8615 6.31665 69.3642 6.31665 67.9605C6.31665 67.2119 6.31665 66.5568 7.43962 66.8376C7.62678 66.9311 7.90752 66.744 8.09468 66.6504C10.6213 65.621 13.3352 66.0889 15.2068 68.0541C16.049 68.9899 16.7977 69.9257 17.5463 70.9551C18.1078 71.7037 17.9206 72.546 17.172 73.201C14.6453 75.5405 11.5572 76.3828 8.18826 76.102C6.78455 76.0084 6.50382 75.5405 6.50382 74.1368C6.50382 73.5754 6.50382 72.9203 6.50382 72.3588H6.59739ZM7.81394 71.3294C7.90752 72.1716 7.72036 72.9203 7.90752 73.7625C8.0011 74.1368 8.56258 74.7919 8.9369 74.7919C11.4636 74.7919 13.9902 74.1368 15.9554 72.546C16.2362 72.3588 16.3298 71.7037 16.2362 71.423C15.3004 68.8963 12.493 67.3055 9.77913 67.5862C8.18826 67.7734 7.72036 68.3349 7.72036 69.9257C7.81394 70.3936 7.81394 70.8615 7.81394 71.3294Z" fill="#251C1C"/>
<path d="M7.90792 90.7941C7.90792 89.9519 7.90792 89.2033 7.90792 88.361C7.81434 86.583 8.84372 85.46 10.4346 84.805C11.9319 84.1499 13.3356 84.3371 14.6457 85.3665C15.3008 85.9279 15.9558 86.3958 16.6109 86.9573C18.2953 88.6418 18.4825 90.7005 16.8916 92.385C14.7393 94.6309 11.8383 94.9117 8.9373 94.8181C8.65656 94.8181 8.09508 93.9759 8.0015 93.5079C7.81434 92.6657 7.90792 91.7299 7.90792 90.7941ZM9.12446 90.7941C9.21804 90.7941 9.21804 90.7941 9.31162 90.7941C9.31162 91.3556 9.21804 91.9171 9.31162 92.4786C9.4052 92.8529 9.77952 93.3208 10.0603 93.3208C12.0255 93.2272 13.9906 92.9465 15.5815 91.6363C16.7981 90.7005 16.8916 89.2968 15.8623 88.1739C15.3008 87.6124 14.7393 87.0509 14.0842 86.583C12.2126 85.0857 9.77952 86.0215 9.4052 88.361C9.31162 89.1097 9.21804 89.9519 9.12446 90.7941Z" fill="#251C1C"/>
<path d="M42.4222 27.8172C42.5158 30.1567 41.58 32.5898 40.2698 34.9293C39.2404 36.8009 38.3046 38.7661 37.1817 40.5441C35.4972 43.1644 33.7192 45.7846 31.3797 47.8434C30.3503 48.7792 29.1338 49.5278 28.0108 50.3701C27.8236 50.5572 27.5429 50.6508 27.3557 50.6508C25.8585 50.6508 24.3612 50.838 22.9575 50.5572C22.1152 50.3701 21.273 49.715 20.5244 49.1535C19.6821 48.4985 18.7463 47.8434 18.0913 47.0012C17.5298 46.2525 16.6876 45.691 16.4068 44.5681C16.1261 43.5387 15.2839 42.6029 14.9095 41.4799C14.2545 39.8891 13.5994 38.3918 13.1315 36.7073C12.57 35.21 12.1957 33.5256 12.1021 31.8411C11.915 29.876 11.8214 27.9108 12.6636 26.0392C13.1315 25.0098 13.4123 23.7932 14.0673 22.7638C14.6288 21.828 15.5646 21.173 16.5004 20.4243C17.9977 19.2078 19.6821 18.0848 21.7409 18.272C22.8639 18.3656 24.0804 18.7399 25.1098 19.2078C26.1392 19.6757 27.075 20.3308 28.1044 20.8922C28.3851 20.9858 28.853 20.9858 29.1338 20.8922C29.976 20.5179 30.7246 19.9564 31.5669 19.4885C34.9357 17.6169 38.3046 19.0206 40.2698 21.7345C42.1414 24.2611 42.4222 25.1969 42.4222 27.8172ZM41.0185 27.5364C41.1121 26.5071 40.8313 25.3841 40.1763 24.2611C39.8955 23.6996 39.5212 23.2317 39.1469 22.6703C37.1817 19.5821 33.8128 19.2078 31.1925 21.0794C30.2567 21.7345 29.4145 22.3895 28.5723 23.1382C27.1686 24.3547 26.0456 25.6648 25.4841 27.4429C25.3905 27.63 25.297 27.8172 25.2034 27.9108C25.0162 28.0979 24.6419 28.1915 24.4547 28.1915C24.2676 28.0979 24.0804 27.7236 24.174 27.5364C24.3612 26.975 24.4547 26.3199 24.8291 25.852C25.5777 24.729 26.5135 23.6996 27.3557 22.6703C27.7301 22.2959 27.6365 22.0152 27.1686 21.7345C26.5135 21.3601 25.8584 20.9858 25.1098 20.7051C24.2676 20.3308 23.4254 19.9564 22.5831 19.7693C20.15 19.3014 18.1849 20.4243 16.5004 22.1088C14.4416 23.9804 13.8802 26.5071 13.693 29.1273C13.5058 31.9347 14.3481 34.6486 15.0967 37.2688C15.8453 39.7019 17.2491 42.0414 18.4656 44.3809C19.4014 45.9718 20.7115 47.3755 22.396 48.2177C23.5189 48.7792 24.7355 48.9664 25.952 48.9664C27.3557 48.9664 28.5723 48.592 29.6017 47.7498C31.4733 46.1589 33.1577 44.3809 34.4678 42.3222C35.9651 39.9826 37.3688 37.5495 38.7725 35.1165C40.1763 32.7769 41.0185 30.3439 41.0185 27.5364Z" fill="#251C1C"/>
<path d="M18.933 6.94882C18.933 4.98363 19.4945 3.2056 20.6174 1.61473C20.9918 1.05325 21.4597 0.77251 22.1147 1.05325C22.3955 1.14683 22.6762 1.05325 23.0505 1.05325C24.1735 0.959671 25.1093 1.14683 25.8579 2.08264C26.3258 2.64412 26.8873 3.2056 27.3552 3.76708C28.6653 5.26437 28.6653 7.13598 28.4782 8.91401C28.1974 10.9728 27.7295 12.938 25.9515 14.2481C24.8285 15.0903 23.7056 15.7454 22.3019 15.0903C21.834 14.9032 21.3661 14.5288 21.0853 14.0609C19.7752 12.1893 18.933 9.38191 18.933 6.94882ZM27.3552 7.60388C27.2616 6.29375 27.1681 5.82585 26.6066 4.98363C26.1387 4.32857 25.4836 3.6735 25.0157 2.92486C24.0799 1.52115 21.5532 2.45696 20.9918 3.76708C19.6816 7.13598 20.6174 10.2241 22.2083 13.1251C22.8634 14.2481 24.0799 14.4352 25.0157 13.4994C25.6708 12.8444 26.3258 12.0957 26.6066 11.2535C26.9809 10.037 27.1681 8.82042 27.3552 7.60388Z" fill="#251C1C"/>
<path d="M6.58154 9.28837C6.86228 8.1654 7.04944 7.04244 7.51735 5.91947C7.70451 5.54515 8.26599 5.07725 8.73389 4.98367C10.044 4.70293 11.3541 4.89009 12.3835 5.91947C13.6001 7.13602 14.1616 8.82047 14.4423 10.5049C14.723 12.1894 15.0974 13.8738 14.3487 15.5583C13.9744 16.4941 13.4129 17.2427 12.3835 17.5234C10.7927 17.9913 9.48254 17.4299 8.54673 15.839C7.33019 13.8738 6.7687 11.7215 6.7687 9.38195C6.67512 9.38195 6.67512 9.28837 6.58154 9.28837ZM8.35957 9.47553C8.45315 10.3178 8.54673 10.8792 8.64031 11.5343C8.82747 12.3765 9.10821 13.3123 9.48254 14.061C9.76328 14.716 10.2312 15.3711 10.6991 15.9326C11.2606 16.5876 12.1028 16.5876 12.3835 15.7454C12.7578 14.8096 13.0386 13.6866 13.1322 12.6573C13.1322 11.5343 12.7578 10.4113 12.6643 9.38195C12.4771 8.1654 11.9156 7.32318 10.9798 6.57454C10.6055 6.20021 10.1376 5.91947 9.57612 6.2938C9.01463 6.57454 8.82747 7.13602 8.92105 7.79108C8.92105 8.07182 8.92105 8.25898 8.82747 8.53973C8.64031 8.91405 8.45315 9.28837 8.35957 9.47553Z" fill="#251C1C"/>
<path d="M42.703 17.243C42.703 14.7163 43.7324 12.5639 45.5104 10.8795C46.727 9.66295 48.0371 8.63357 49.7215 8.16567C51.3124 7.69777 53.5583 9.28863 53.4647 10.9731C53.2776 13.9677 52.4354 16.5879 50.1894 18.6467C49.1601 19.5825 48.2242 20.5183 46.8205 20.8926C44.5746 21.5477 42.703 20.2375 42.703 17.898C42.703 17.6173 42.703 17.4301 42.703 17.243ZM44.0131 16.8686C44.0131 17.0558 44.0131 17.243 44.0131 17.5237C44.1067 19.3953 45.5104 20.2375 47.1949 19.3017C47.8499 18.9274 48.4114 18.3659 48.9729 17.898C51.0317 16.2136 51.7803 13.8741 51.9675 11.3474C52.061 10.318 50.9381 9.38221 49.9087 9.56937C48.4114 9.85011 47.2884 10.6923 46.2591 11.7217C45.0425 13.1254 43.826 14.6227 44.0131 16.8686Z" fill="#251C1C"/>
<path d="M33.5326 10.5984C33.8133 8.82042 33.9069 6.94881 35.1235 5.45152C35.8721 4.42214 36.5272 3.39275 37.1822 2.45695C37.7437 1.70831 38.4924 1.33398 39.4282 1.33398C39.9896 1.33398 40.6447 1.42756 40.7383 2.17621C40.7383 2.26979 40.8319 2.45695 41.019 2.55053C42.7035 3.48633 43.0778 5.0772 43.0778 6.76165C43.0778 9.56906 42.142 12.0957 39.8025 13.8738C39.241 14.3417 38.5859 14.6224 37.9309 14.9031C36.2464 15.5582 34.4684 14.6224 34.0005 12.6572C33.7198 11.9086 33.6262 11.2535 33.5326 10.5984ZM34.8427 10.1305C35.0299 10.8792 35.1235 11.7214 35.4042 12.3765C35.7785 13.4994 36.9015 13.8738 37.9309 13.4059C38.3988 13.1251 38.9603 12.938 39.3346 12.5636C41.2998 10.692 42.142 8.44609 41.7677 5.73226C41.4869 4.1414 40.2704 3.67349 39.1474 3.20559C38.2116 2.83127 37.9309 3.86065 37.463 4.32856L37.3694 4.42214C35.7785 6.013 34.7491 7.79103 34.8427 10.1305Z" fill="#251C1C"/>
</svg>
