<svg width="91" height="171" viewBox="0 0 91 171" fill="none" xmlns="http://www.w3.org/2000/svg">
<path d="M37.7021 143.158C36.2763 139.514 32.7912 136.98 28.5139 136.188C28.1971 136.188 28.0387 136.029 27.7219 136.029C26.4545 135.554 25.1872 135.237 23.9199 135.079C23.2862 134.762 22.6525 134.445 22.0189 134.128C23.603 133.178 25.0288 132.227 26.4545 130.96C27.0882 130.485 27.7219 129.851 28.3555 129.217C31.9991 126.683 36.7516 123.514 36.4348 118.445C36.4348 117.653 36.1179 116.861 35.9595 116.227C35.9595 116.069 35.9595 115.91 35.9595 115.593C35.3258 110.683 30.7318 108.306 26.2961 107.514C23.1278 107.039 19.801 106.722 16.4743 106.881C14.2565 106.722 12.0386 106.881 9.82081 107.039C8.7119 106.088 6.96932 106.088 5.54357 106.722C1.42475 108.465 1.10791 113.534 1.10791 117.494C1.42474 132.069 1.74158 146.485 2.21683 161.059C2.21683 163.91 6.01882 164.386 7.28615 162.485C7.44457 163.118 7.60299 163.594 7.7614 164.069C7.7614 165.178 8.23665 166.287 9.6624 166.445C20.5931 168.188 34.0585 163.594 39.2863 153.297C41.8209 148.702 40.712 145.534 37.7021 143.158ZM22.9694 114.801C24.0783 114.96 25.9793 115.118 27.7219 115.593C28.8308 116.544 29.306 117.811 28.8308 119.395C28.5139 120.821 27.7219 121.93 26.9298 123.197C25.9793 124.148 25.0288 124.94 24.3951 125.574L24.2367 125.732C23.9199 125.891 23.603 126.049 23.2862 126.366C19.9595 128.425 16.4743 130.168 12.9891 131.435C12.5139 131.594 12.1971 131.91 11.8802 132.227C11.7218 126.999 11.7218 121.613 11.5634 116.386C11.5634 115.593 11.5634 114.643 11.5634 113.692C15.3654 114.168 19.1674 114.485 22.9694 114.801ZM12.3555 160.267C12.3555 158.524 12.3555 156.782 12.1971 155.039C12.1971 151.396 12.0386 147.752 12.0386 144.267C16.1575 144.108 20.1179 144.267 24.2367 144.9C24.7119 144.9 25.9793 145.059 27.405 145.376C28.1971 146.485 28.8308 147.752 29.4644 149.019C29.9397 150.128 30.5734 151.079 31.3654 151.712C31.3654 151.871 31.207 152.029 31.207 152.188C29.4644 154.405 26.9298 155.99 24.712 157.257C20.91 159.316 16.7911 160.742 12.5139 161.217C12.3555 160.901 12.3555 160.584 12.3555 160.267Z" fill="#39B100"/>
<path d="M70.1787 151.078C72.8718 150.761 75.5649 150.286 78.258 150.128C81.4263 149.969 84.5946 149.969 87.9214 149.969C90.4561 150.128 90.7729 150.603 90.7729 153.137C90.7729 155.831 90.6145 158.365 90.456 161.058C90.2976 163.435 89.1887 164.702 86.8125 164.86C83.6441 165.019 80.6342 164.702 77.4659 164.543C74.6144 164.543 71.9213 164.702 69.0698 164.702C64.4758 164.702 59.8817 164.86 55.2876 164.86C51.1688 164.86 50.6935 164.385 51.9609 160.266C53.3866 156.147 54.6539 152.029 56.5549 148.068C58.9312 143.316 63.3669 140.306 67.4857 136.979C70.3372 134.761 73.0302 132.543 74.7728 129.217C76.0402 126.682 75.7233 124.306 74.2976 122.088C72.555 119.712 70.1788 118.286 67.3273 117.969C64.4758 117.652 63.05 118.603 62.2579 121.454C61.9411 122.722 61.7827 124.147 61.7827 125.415C61.6243 127.632 60.8322 128.741 58.6144 128.583C55.6045 128.266 52.753 127.632 49.743 127.157C49.2678 126.999 48.7925 126.524 48.7925 126.048C48.7925 125.731 49.2678 125.256 49.5846 124.781C50.0599 123.83 50.852 123.038 51.0104 122.088C51.9609 116.226 54.3371 111.157 58.9312 107.355C63.05 103.87 68.753 102.92 74.1392 106.246C80.0006 109.89 83.961 114.959 86.1788 121.296C87.763 125.731 86.9709 130.326 84.2778 134.444C80.7926 139.831 76.357 144.266 71.7629 148.543C71.1292 149.177 70.654 149.811 70.0203 150.444C70.0203 150.761 70.0203 150.92 70.1787 151.078ZM83.0105 162.009C83.0105 162.167 83.0105 162.326 83.0105 162.642C83.4857 162.642 83.961 162.642 84.4362 162.642C86.9709 162.642 87.763 162.009 88.0798 159.474C88.2382 157.732 88.3966 155.989 88.5551 154.246C88.7135 152.979 88.0798 152.345 86.8125 152.345C84.2778 152.345 81.7431 152.345 79.2085 152.504C75.8817 152.821 72.555 153.454 69.2283 153.613C68.1193 153.613 66.852 152.821 65.5847 152.345C66.0599 151.395 66.5352 150.286 67.3273 149.494C71.7629 145.058 76.357 140.623 80.6342 136.029C84.1194 132.227 85.3867 127.316 83.961 122.246C81.9016 115.434 77.7827 110.207 70.9708 107.355C68.5946 106.405 66.2183 106.246 64.0005 107.197C57.347 109.731 54.4955 115.118 53.3866 121.771C53.2282 123.197 52.5945 125.098 53.2282 125.731C54.1787 126.524 56.0797 126.365 57.5054 126.682H57.6639C58.6144 126.84 59.0896 126.524 59.248 125.415C59.4064 124.147 59.5649 122.722 59.8817 121.454C61.6243 116.226 65.1094 114.484 70.0203 116.702C77.6243 120.187 80.6342 127.632 73.6639 134.128C71.1293 136.504 68.5946 138.88 65.7431 140.939C59.0896 145.85 55.446 152.662 53.8619 160.583C53.7035 161.692 53.8619 162.484 55.1292 162.484C57.1886 162.484 59.4064 162.801 61.4658 162.801C68.753 162.484 75.8817 162.326 83.0105 162.009Z" fill="white"/>
<path d="M24.5545 132.702C27.8813 134.445 31.208 135.712 34.0595 137.613C36.2773 139.039 38.3368 141.098 40.0793 143.157C43.7229 147.435 43.8813 152.346 40.3962 156.781C35.4853 163.435 29.307 168.504 20.911 169.771C14.5743 170.722 8.23765 170.722 2.37625 167.712C0.950498 166.92 0 165.811 0 164.227C0.158416 159.316 0.633665 154.405 0.792082 149.653C1.10891 137.138 1.10891 124.623 1.26732 112.108C1.26732 111.316 1.26732 110.524 1.26732 109.732C1.42574 107.989 2.05941 106.722 3.96041 106.246C6.01982 105.771 7.92081 104.821 9.82181 104.029C13.9406 102.286 18.0595 102.761 22.1783 104.029C26.6139 105.454 30.5744 107.514 33.9011 110.841C35.3269 112.425 37.0694 113.692 38.3368 115.118C40.713 117.811 40.5546 120.821 38.3368 123.355C35.1684 126.999 31.0496 129.534 26.6139 131.751C25.8219 132.068 25.1882 132.385 24.5545 132.702ZM14.2575 167.712C16.3169 167.554 17.901 167.554 19.3268 167.395C27.0892 166.286 33.109 162.167 38.0199 156.306C41.0298 152.662 41.5051 148.385 38.6536 144.742C35.3269 140.306 31.0496 136.979 25.3466 135.87C23.2872 135.395 21.0694 135.237 18.8515 134.92C18.2179 134.761 17.7426 134.128 17.109 133.811C17.4258 133.336 17.7426 132.702 18.0595 132.544C20.7525 131.435 23.604 130.643 26.1387 129.217C29.4654 127.316 32.7922 125.098 35.6437 122.722C38.0199 120.821 38.3368 118.444 36.4358 116.068C34.8516 114.009 32.7922 112.266 30.5744 110.682C23.2872 105.138 15.3664 103.078 6.49507 107.197C3.48516 108.623 3.00991 109.256 3.00991 112.583C3.16833 117.811 3.48516 123.039 3.32674 128.266C3.00991 138.88 2.69308 149.653 2.21783 160.266C2.05942 164.702 3.80199 166.286 8.07923 167.078C10.4555 167.395 12.6733 167.554 14.2575 167.712Z" fill="white"/>
<path d="M11.0893 121.296C10.9309 118.762 10.6141 116.227 10.6141 113.851C10.6141 112.583 10.6141 111.474 12.5151 111.95C12.8319 112.108 13.3072 111.791 13.624 111.633C17.9012 109.89 22.4953 110.682 25.6636 114.009C27.0894 115.593 28.3567 117.177 29.624 118.92C30.5745 120.187 30.2577 121.613 28.9904 122.722C24.7131 126.682 19.4854 128.108 13.7824 127.633C11.4062 127.475 10.9309 126.682 10.9309 124.306C10.9309 123.356 10.9309 122.247 10.9309 121.296H11.0893ZM13.1487 119.554C13.3072 120.979 12.9903 122.247 13.3072 123.673C13.4656 124.306 14.4161 125.415 15.0497 125.415C19.327 125.415 23.6042 124.306 26.931 121.613C27.4062 121.296 27.5646 120.187 27.4062 119.712C25.822 115.435 21.0696 112.742 16.4755 113.217C13.7824 113.534 12.9903 114.484 12.9903 117.177C13.1487 117.97 13.1487 118.762 13.1487 119.554Z" fill="white"/>
<path d="M13.3077 152.504C13.3077 151.079 13.3077 149.811 13.3077 148.386C13.1493 145.376 14.8918 143.475 17.5849 142.366C20.1196 141.257 22.4958 141.574 24.7136 143.316C25.8226 144.267 26.9315 145.059 28.0404 146.009C30.8919 148.861 31.2087 152.346 28.5156 155.197C24.8721 158.999 19.9612 159.475 15.0502 159.316C14.575 159.316 13.6245 157.891 13.4661 157.098C13.1493 155.673 13.3077 154.089 13.3077 152.504ZM15.3671 152.504C15.5255 152.504 15.5255 152.504 15.6839 152.504C15.6839 153.455 15.5255 154.405 15.6839 155.356C15.8423 155.99 16.476 156.782 16.9512 156.782C20.278 156.623 23.6047 156.148 26.2978 153.93C28.3572 152.346 28.5156 149.97 26.7731 148.069C25.8226 147.118 24.8721 146.168 23.7631 145.376C20.5948 142.841 16.476 144.425 15.8423 148.386C15.6839 149.653 15.5255 151.079 15.3671 152.504Z" fill="white"/>
<path d="M71.734 45.8951C71.8924 49.8555 70.3082 53.9743 68.0904 57.9348C66.3478 61.1031 64.7636 64.4298 62.8626 67.4397C60.0111 71.8754 57.0012 76.3111 53.0408 79.7962C51.2982 81.3804 49.2388 82.6477 47.3378 84.0735C47.021 84.3903 46.5458 84.5487 46.2289 84.5487C43.6943 84.5487 41.1596 84.8655 38.7834 84.3903C37.3576 84.0735 35.9319 82.9645 34.6645 82.014C33.2388 80.9051 31.6546 79.7962 30.5457 78.3705C29.5952 77.1031 28.1695 76.1526 27.6942 74.2516C27.219 72.5091 25.7932 70.9249 25.1595 69.0239C24.0506 66.3308 22.9417 63.7962 22.1496 60.9447C21.1991 58.41 20.5655 55.5585 20.4071 52.707C20.0902 49.3803 19.9318 46.0535 21.3576 42.8852C22.1496 41.1426 22.6249 39.0832 23.7338 37.3406C24.6843 35.7565 26.2685 34.6475 27.8526 33.3802C30.3873 31.3208 33.2388 29.4198 36.7239 29.7366C38.6249 29.8951 40.6843 30.5287 42.4269 31.3208C44.1695 32.1129 45.7537 33.2218 47.4963 34.1723C47.9715 34.3307 48.7636 34.3307 49.2388 34.1723C50.6646 33.5386 51.9319 32.5881 53.3577 31.7961C59.0606 28.6277 64.7636 31.004 68.0904 35.598C71.2587 39.8753 71.734 41.4595 71.734 45.8951ZM69.3577 45.4199C69.5161 43.6773 69.0409 41.7763 67.932 39.8753C67.4567 38.9248 66.8231 38.1327 66.1894 37.1822C62.8626 31.9545 57.1596 31.3208 52.724 34.4891C51.1398 35.598 49.7141 36.707 48.2883 37.9743C45.9121 40.0337 44.0111 42.2515 43.0606 45.2614C42.9022 45.5783 42.7438 45.8951 42.5853 46.0535C42.2685 46.3704 41.6348 46.5288 41.318 46.5288C41.0012 46.3704 40.6843 45.7367 40.8428 45.4199C41.1596 44.4694 41.318 43.3605 41.9517 42.5684C43.219 40.6674 44.8032 38.9248 46.2289 37.1822C46.8626 36.5485 46.7042 36.0733 45.9121 35.598C44.8032 34.9644 43.6943 34.3307 42.4269 33.8555C41.0012 33.2218 39.5754 32.5881 38.1497 32.2713C34.0309 31.4792 30.7041 33.3802 27.8526 36.2317C24.3675 39.4 23.417 43.6773 23.1001 48.1129C22.7833 52.8654 24.209 57.4595 25.4764 61.8952C26.7437 66.014 29.12 69.9744 31.1794 73.9348C32.7635 76.6279 34.9814 79.0041 37.8329 80.4299C39.7339 81.3804 41.7933 81.6972 43.8527 81.6972C46.2289 81.6972 48.2883 81.0635 50.0309 79.6378C53.1992 76.9447 56.0507 73.9348 58.2686 70.4496C60.8032 66.4892 63.1795 62.3704 65.5557 58.2516C67.932 54.2912 69.3577 50.1724 69.3577 45.4199Z" fill="white"/>
<path d="M31.9708 10.5685C31.9708 7.24179 32.9213 4.23187 34.8223 1.5388C35.4559 0.588298 36.248 0.113049 37.3569 0.588298C37.8322 0.746714 38.3074 0.588298 38.9411 0.588298C40.8421 0.429882 42.4262 0.746715 43.6936 2.33088C44.4857 3.28138 45.4362 4.23187 46.2282 5.18237C48.4461 7.71703 48.4461 10.8854 48.1292 13.8953C47.654 17.3804 46.8619 20.7072 43.852 22.925C41.951 24.3508 40.05 25.4597 37.6738 24.3508C36.8817 24.0339 36.0896 23.4003 35.6143 22.6082C33.3965 19.4398 31.9708 14.6874 31.9708 10.5685ZM46.2282 11.6774C46.0698 9.45961 45.9114 8.66753 44.9609 7.24179C44.1688 6.13287 43.0599 5.02396 42.2678 3.75662C40.6837 1.38038 36.4064 2.96454 35.4559 5.18237C33.2381 10.8854 34.8223 16.1131 37.5153 21.024C38.6243 22.925 40.6837 23.2418 42.2678 21.6577C43.3767 20.5488 44.4857 19.2814 44.9609 17.8557C45.5946 15.7963 45.9114 13.7369 46.2282 11.6774Z" fill="white"/>
<path d="M11.0612 14.5286C11.5365 12.6276 11.8533 10.7266 12.6454 8.82565C12.9622 8.19199 13.9127 7.39991 14.7048 7.24149C16.9226 6.76624 19.1405 7.08307 20.883 8.82565C22.9424 10.8851 23.8929 13.7366 24.3682 16.5881C24.8434 19.4395 25.4771 22.291 24.2098 25.1425C23.5761 26.7267 22.6256 27.994 20.883 28.4693C18.19 29.2614 15.9721 28.3109 14.388 25.6178C12.3285 22.291 11.3781 18.6475 11.3781 14.6871C11.2196 14.6871 11.2196 14.5286 11.0612 14.5286ZM14.0711 14.8455C14.2295 16.2712 14.388 17.2217 14.5464 18.3306C14.8632 19.7564 15.3385 21.3405 15.9721 22.6079C16.4474 23.7168 17.2395 24.8257 18.0315 25.7762C18.982 26.8851 20.4078 26.8851 20.883 25.4594C21.5167 23.8752 21.9919 21.9742 22.1504 20.2316C22.1504 18.3306 21.5167 16.4296 21.3583 14.6871C21.0414 12.6276 20.091 11.2019 18.5068 9.93457C17.8731 9.3009 17.081 8.82565 16.1305 9.45932C15.18 9.93457 14.8632 10.8851 15.0216 11.994C15.0216 12.4692 15.0216 12.7861 14.8632 13.2613C14.5464 13.895 14.2295 14.5286 14.0711 14.8455Z" fill="white"/>
<path d="M72.2094 27.994C72.2094 23.7168 73.952 20.0732 76.9619 17.2217C79.0213 15.1623 81.2391 13.4197 84.0906 12.6276C86.7837 11.8356 90.5857 14.5286 90.4273 17.3801C90.1105 22.4495 88.6847 26.8851 84.8827 30.3703C83.1401 31.9544 81.556 33.5386 79.1797 34.1723C75.3777 35.2812 72.2094 33.0634 72.2094 29.1029C72.2094 28.6277 72.2094 28.3109 72.2094 27.994ZM74.4272 27.3604C74.4272 27.6772 74.4272 27.994 74.4272 28.4693C74.5857 31.6376 76.9619 33.0634 79.8134 31.4792C80.9223 30.8455 81.8728 29.895 82.8233 29.1029C86.3085 26.2515 87.5758 22.291 87.8926 18.0138C88.0511 16.2712 86.1501 14.6871 84.4075 15.0039C81.8728 15.4791 79.9718 16.9049 78.2292 18.6475C76.1698 21.0237 74.1104 23.5584 74.4272 27.3604Z" fill="white"/>
<path d="M56.6857 16.7463C57.1609 13.7364 57.3193 10.5681 59.3787 8.03343C60.6461 6.29085 61.755 4.54827 62.8639 2.96411C63.8144 1.69678 65.0817 1.06311 66.6659 1.06311C67.6164 1.06311 68.7253 1.22153 68.8837 2.48886C68.8837 2.64727 69.0421 2.96411 69.359 3.12252C72.2105 4.70669 72.8441 7.39976 72.8441 10.2513C72.8441 15.0037 71.26 19.281 67.2996 22.2909C66.3491 23.083 65.2402 23.5582 64.1312 24.0335C61.2797 25.1424 58.2698 23.5582 57.4778 20.2315C57.0025 18.9642 56.8441 17.8552 56.6857 16.7463ZM58.9035 15.9542C59.2203 17.2216 59.3787 18.6473 59.854 19.7562C60.4877 21.6572 62.3887 22.2909 64.1312 21.4988C64.9233 21.0236 65.8738 20.7067 66.5075 20.0731C69.8342 16.9047 71.26 13.1028 70.6263 8.50868C70.1511 5.8156 68.0916 5.02352 66.1907 4.23144C64.6065 3.59777 64.1312 5.34035 63.3392 6.13243L63.1807 6.29085C60.4877 8.98393 58.7451 11.9938 58.9035 15.9542Z" fill="white"/>
</svg>
