<svg width="16" height="16" viewBox="0 0 16 16" fill="none" xmlns="http://www.w3.org/2000/svg">
<path d="M8.13636 3.90873C5.99045 3.90873 4.2124 5.65612 4.2124 7.83269C4.2124 10.0093 5.95979 11.7566 8.13636 11.7566C10.3129 11.7566 12.0603 9.9786 12.0603 7.83269C12.0603 5.68677 10.2823 3.90873 8.13636 3.90873ZM8.13636 10.3465C6.75684 10.3465 5.62258 9.21221 5.62258 7.83269C5.62258 6.45317 6.75684 5.3189 8.13636 5.3189C9.51588 5.3189 10.6501 6.45317 10.6501 7.83269C10.6501 9.21221 9.51588 10.3465 8.13636 10.3465Z"  class="fill-black" />
<path d="M12.2159 4.70581C12.7069 4.70581 13.105 4.30778 13.105 3.81679C13.105 3.3258 12.7069 2.92777 12.2159 2.92777C11.7249 2.92777 11.3269 3.3258 11.3269 3.81679C11.3269 4.30778 11.7249 4.70581 12.2159 4.70581Z"  class="fill-black" />
<path d="M14.5127 1.51788C13.7156 0.690169 12.5814 0.260986 11.2938 0.260986H4.97868C2.31161 0.260986 0.533569 2.03903 0.533569 4.7061V10.9906C0.533569 12.3088 0.962752 13.443 1.82112 14.2708C2.64883 15.0678 3.75244 15.4663 5.00934 15.4663H11.2631C12.5814 15.4663 13.685 15.0371 14.482 14.2708C15.3097 13.4737 15.7389 12.3394 15.7389 11.0212V4.7061C15.7389 3.41855 15.3097 2.31493 14.5127 1.51788ZM14.3901 11.0212C14.3901 11.9716 14.0528 12.738 13.501 13.2591C12.9492 13.7803 12.1828 14.0562 11.2631 14.0562H5.00934C4.08966 14.0562 3.32326 13.7803 2.77145 13.2591C2.21965 12.7073 1.94374 11.9409 1.94374 10.9906V4.7061C1.94374 3.78642 2.21965 3.02002 2.77145 2.46821C3.2926 1.94706 4.08966 1.67116 5.00934 1.67116H11.3245C12.2441 1.67116 13.0105 1.94706 13.5623 2.49887C14.0835 3.05068 14.3901 3.81708 14.3901 4.7061V11.0212Z"  class="fill-black" />
</svg>
